M48
;DRILL file {KiCad 4.0.6} date 2017 July 24, Monday 19:52:22
;FORMAT={-:-/ absolute / metric / decimal}
FMAT,2
METRIC,TZ
T1C0.400
T2C1.000
T3C1.501
T4C1.699
T5C3.980
T6C3.200
%
G90
G05
M71
T1
X74.854Y-55.499
X77.315Y-51.776
X77.343Y-60.96
X77.343Y-64.77
X79.375Y-98.171
X79.375Y-121.54
X88.265Y-91.44
X88.265Y-110.49
X88.265Y-129.54
X88.9Y-52.07
X90.17Y-52.07
X91.44Y-52.07
X91.44Y-135.255
X91.516Y-42.596
X92.71Y-52.07
X92.71Y-136.525
X93.98Y-44.78
X95.25Y-135.89
X95.25Y-137.16
X96.52Y-135.255
X97.79Y-53.34
X99.06Y-53.34
X100.33Y-53.34
X101.6Y-53.34
X106.68Y-54.61
X107.315Y-91.44
X107.315Y-110.49
X107.315Y-129.54
X107.95Y-54.61
X109.22Y-54.61
X110.49Y-54.61
X111.76Y-57.15
X113.03Y-57.15
X114.3Y-57.15
X114.3Y-135.89
X115.57Y-57.15
X116.205Y-48.26
X117.475Y-72.39
X120.015Y-49.738
X120.523Y-48.133
X120.523Y-57.531
X120.53Y-43.511
X120.53Y-46.011
X120.53Y-51.893
X120.53Y-54.393
X126.365Y-91.44
X126.365Y-110.49
X126.365Y-129.54
X129.54Y-135.255
X130.81Y-49.022
X130.81Y-50.038
X130.81Y-136.525
X131.373Y-45.996
X131.939Y-45.43
X132.504Y-55.188
X133.07Y-55.754
X133.35Y-135.89
X133.35Y-137.16
X134.62Y-135.255
X137.737Y-44.299
X138.303Y-44.864
X139.478Y-43.085
X139.964Y-52.324
X140.Y-53.491
X143.637Y-57.15
X145.415Y-72.39
X145.415Y-91.44
X145.415Y-110.49
X145.415Y-129.54
X146.685Y-63.5
X148.641Y-44.272
X149.987Y-54.61
X152.4Y-63.5
X152.4Y-135.89
X153.162Y-61.341
X153.162Y-62.357
X153.314Y-44.704
X159.513Y-80.01
X162.687Y-54.102
X162.694Y-57.227
X162.694Y-59.727
X163.83Y-49.403
X163.83Y-50.673
X166.37Y-52.07
X167.386Y-47.371
X167.386Y-48.768
X169.545Y-56.769
T2
X73.66Y-101.6
X73.66Y-104.14
X73.66Y-106.68
X73.66Y-109.22
X73.66Y-111.76
X73.66Y-114.3
X73.66Y-116.84
X73.66Y-119.38
X73.66Y-121.92
X87.617Y-133.325
X87.63Y-76.2
X87.63Y-95.25
X87.63Y-114.3
X90.157Y-133.325
X90.17Y-76.2
X90.17Y-95.25
X90.17Y-114.3
X92.697Y-133.325
X92.71Y-76.2
X92.71Y-95.25
X92.71Y-114.3
X95.237Y-133.325
X95.25Y-76.2
X95.25Y-95.25
X95.25Y-114.3
X106.68Y-76.2
X106.68Y-95.25
X106.68Y-114.3
X106.68Y-133.35
X109.22Y-76.2
X109.22Y-95.25
X109.22Y-114.3
X109.22Y-133.35
X111.76Y-76.2
X111.76Y-95.25
X111.76Y-114.3
X111.76Y-133.35
X114.3Y-76.2
X114.3Y-95.25
X114.3Y-114.3
X114.3Y-133.35
X125.73Y-76.2
X125.73Y-95.25
X125.73Y-114.3
X125.73Y-133.35
X128.27Y-76.2
X128.27Y-95.25
X128.27Y-114.3
X128.27Y-133.35
X130.81Y-76.2
X130.81Y-95.25
X130.81Y-114.3
X130.81Y-133.35
X133.35Y-76.2
X133.35Y-95.25
X133.35Y-114.3
X133.35Y-133.35
X144.78Y-76.2
X144.78Y-95.25
X144.78Y-114.3
X144.78Y-133.35
X147.32Y-76.2
X147.32Y-95.25
X147.32Y-114.3
X147.32Y-133.35
X148.59Y-41.91
X149.86Y-76.2
X149.86Y-95.25
X149.86Y-114.3
X149.86Y-133.35
X151.13Y-41.91
X151.163Y-47.061
X151.163Y-49.601
X152.4Y-76.2
X152.4Y-95.25
X152.4Y-114.3
X152.4Y-133.35
X153.67Y-41.91
X153.703Y-47.061
X153.703Y-49.601
X156.21Y-41.91
X156.243Y-47.061
X156.243Y-49.601
X166.37Y-101.6
X166.37Y-104.14
X166.37Y-106.68
X166.37Y-109.22
X166.37Y-111.76
X166.37Y-114.3
X166.37Y-116.84
X166.37Y-119.38
X166.37Y-121.92
T3
X87.617Y-125.705
X87.63Y-68.58
X87.63Y-87.63
X87.63Y-106.68
X93.967Y-123.165
X93.98Y-66.04
X93.98Y-85.09
X93.98Y-104.14
X106.68Y-68.58
X106.68Y-87.63
X106.68Y-106.68
X106.68Y-125.73
X113.03Y-66.04
X113.03Y-85.09
X113.03Y-104.14
X113.03Y-123.19
X125.73Y-68.58
X125.73Y-87.63
X125.73Y-106.68
X125.73Y-125.73
X132.08Y-66.04
X132.08Y-85.09
X132.08Y-104.14
X132.08Y-123.19
X144.78Y-68.58
X144.78Y-87.63
X144.78Y-106.68
X144.78Y-125.73
X151.13Y-66.04
X151.13Y-85.09
X151.13Y-104.14
X151.13Y-123.19
T4
X86.347Y-128.245
X86.36Y-71.12
X86.36Y-90.17
X86.36Y-109.22
X96.507Y-128.245
X96.52Y-71.12
X96.52Y-90.17
X96.52Y-109.22
X105.41Y-71.12
X105.41Y-90.17
X105.41Y-109.22
X105.41Y-128.27
X115.57Y-71.12
X115.57Y-90.17
X115.57Y-109.22
X115.57Y-128.27
X124.46Y-71.12
X124.46Y-90.17
X124.46Y-109.22
X124.46Y-128.27
X134.62Y-71.12
X134.62Y-90.17
X134.62Y-109.22
X134.62Y-128.27
X143.51Y-71.12
X143.51Y-90.17
X143.51Y-109.22
X143.51Y-128.27
X153.67Y-71.12
X153.67Y-90.17
X153.67Y-109.22
X153.67Y-128.27
T5
X91.427Y-128.245
X91.44Y-71.12
X91.44Y-90.17
X91.44Y-109.22
X110.49Y-71.12
X110.49Y-90.17
X110.49Y-109.22
X110.49Y-128.27
X129.54Y-71.12
X129.54Y-90.17
X129.54Y-109.22
X129.54Y-128.27
X148.59Y-71.12
X148.59Y-90.17
X148.59Y-109.22
X148.59Y-128.27
T6
X74.93Y-43.18
X74.93Y-134.62
X165.1Y-43.18
X165.1Y-134.62
T0
M30
