G04 #@! TF.FileFunction,Paste,Top*
%FSLAX46Y46*%
G04 Gerber Fmt 4.6, Leading zero omitted, Abs format (unit mm)*
G04 Created by KiCad (PCBNEW 4.0.6) date 2017 August 09, Wednesday 05:31:59*
%MOMM*%
%LPD*%
G01*
G04 APERTURE LIST*
%ADD10C,0.100000*%
%ADD11R,1.099820X0.398780*%
%ADD12R,1.500000X1.300000*%
%ADD13R,2.000000X3.800000*%
%ADD14R,2.000000X1.500000*%
%ADD15R,0.900000X1.200000*%
%ADD16R,1.651000X1.000000*%
G04 APERTURE END LIST*
D10*
D11*
X159843639Y-54671939D03*
X159843639Y-55322179D03*
X159843639Y-55972419D03*
X159843639Y-56622659D03*
X159843639Y-57272899D03*
X159843639Y-57918059D03*
X159843639Y-58568299D03*
X159843639Y-59218539D03*
X159843639Y-59868779D03*
X159843639Y-60519019D03*
X165543399Y-60519019D03*
X165543399Y-59868779D03*
X165543399Y-59218539D03*
X165543399Y-58568299D03*
X165543399Y-57918059D03*
X165543399Y-57272899D03*
X165543399Y-56622659D03*
X165543399Y-55972419D03*
X165543399Y-55322179D03*
X165543399Y-54671939D03*
D12*
X162469391Y-64317299D03*
X159769391Y-64317299D03*
D10*
G36*
X128208707Y-51953045D02*
X127819799Y-51564137D01*
X128880459Y-50503477D01*
X129269367Y-50892385D01*
X128208707Y-51953045D01*
X128208707Y-51953045D01*
G37*
G36*
X128774393Y-52518730D02*
X128385485Y-52129822D01*
X129446145Y-51069162D01*
X129835053Y-51458070D01*
X128774393Y-52518730D01*
X128774393Y-52518730D01*
G37*
G36*
X129340078Y-53084415D02*
X128951170Y-52695507D01*
X130011830Y-51634847D01*
X130400738Y-52023755D01*
X129340078Y-53084415D01*
X129340078Y-53084415D01*
G37*
G36*
X129905763Y-53650101D02*
X129516855Y-53261193D01*
X130577515Y-52200533D01*
X130966423Y-52589441D01*
X129905763Y-53650101D01*
X129905763Y-53650101D01*
G37*
G36*
X130471449Y-54215786D02*
X130082541Y-53826878D01*
X131143201Y-52766218D01*
X131532109Y-53155126D01*
X130471449Y-54215786D01*
X130471449Y-54215786D01*
G37*
G36*
X131037134Y-54781472D02*
X130648226Y-54392564D01*
X131708886Y-53331904D01*
X132097794Y-53720812D01*
X131037134Y-54781472D01*
X131037134Y-54781472D01*
G37*
G36*
X131602820Y-55347157D02*
X131213912Y-54958249D01*
X132274572Y-53897589D01*
X132663480Y-54286497D01*
X131602820Y-55347157D01*
X131602820Y-55347157D01*
G37*
G36*
X132168505Y-55912843D02*
X131779597Y-55523935D01*
X132840257Y-54463275D01*
X133229165Y-54852183D01*
X132168505Y-55912843D01*
X132168505Y-55912843D01*
G37*
G36*
X132734191Y-56478528D02*
X132345283Y-56089620D01*
X133405943Y-55028960D01*
X133794851Y-55417868D01*
X132734191Y-56478528D01*
X132734191Y-56478528D01*
G37*
G36*
X133299876Y-57044213D02*
X132910968Y-56655305D01*
X133971628Y-55594645D01*
X134360536Y-55983553D01*
X133299876Y-57044213D01*
X133299876Y-57044213D01*
G37*
G36*
X133865561Y-57609899D02*
X133476653Y-57220991D01*
X134537313Y-56160331D01*
X134926221Y-56549239D01*
X133865561Y-57609899D01*
X133865561Y-57609899D01*
G37*
G36*
X137330385Y-57220991D02*
X136941477Y-57609899D01*
X135880817Y-56549239D01*
X136269725Y-56160331D01*
X137330385Y-57220991D01*
X137330385Y-57220991D01*
G37*
G36*
X137896070Y-56655305D02*
X137507162Y-57044213D01*
X136446502Y-55983553D01*
X136835410Y-55594645D01*
X137896070Y-56655305D01*
X137896070Y-56655305D01*
G37*
G36*
X138461755Y-56089620D02*
X138072847Y-56478528D01*
X137012187Y-55417868D01*
X137401095Y-55028960D01*
X138461755Y-56089620D01*
X138461755Y-56089620D01*
G37*
G36*
X139027441Y-55523935D02*
X138638533Y-55912843D01*
X137577873Y-54852183D01*
X137966781Y-54463275D01*
X139027441Y-55523935D01*
X139027441Y-55523935D01*
G37*
G36*
X139593126Y-54958249D02*
X139204218Y-55347157D01*
X138143558Y-54286497D01*
X138532466Y-53897589D01*
X139593126Y-54958249D01*
X139593126Y-54958249D01*
G37*
G36*
X140158812Y-54392564D02*
X139769904Y-54781472D01*
X138709244Y-53720812D01*
X139098152Y-53331904D01*
X140158812Y-54392564D01*
X140158812Y-54392564D01*
G37*
G36*
X140724497Y-53826878D02*
X140335589Y-54215786D01*
X139274929Y-53155126D01*
X139663837Y-52766218D01*
X140724497Y-53826878D01*
X140724497Y-53826878D01*
G37*
G36*
X141290183Y-53261193D02*
X140901275Y-53650101D01*
X139840615Y-52589441D01*
X140229523Y-52200533D01*
X141290183Y-53261193D01*
X141290183Y-53261193D01*
G37*
G36*
X141855868Y-52695507D02*
X141466960Y-53084415D01*
X140406300Y-52023755D01*
X140795208Y-51634847D01*
X141855868Y-52695507D01*
X141855868Y-52695507D01*
G37*
G36*
X142421553Y-52129822D02*
X142032645Y-52518730D01*
X140971985Y-51458070D01*
X141360893Y-51069162D01*
X142421553Y-52129822D01*
X142421553Y-52129822D01*
G37*
G36*
X142987239Y-51564137D02*
X142598331Y-51953045D01*
X141537671Y-50892385D01*
X141926579Y-50503477D01*
X142987239Y-51564137D01*
X142987239Y-51564137D01*
G37*
G36*
X141926579Y-49548881D02*
X141537671Y-49159973D01*
X142598331Y-48099313D01*
X142987239Y-48488221D01*
X141926579Y-49548881D01*
X141926579Y-49548881D01*
G37*
G36*
X141360893Y-48983196D02*
X140971985Y-48594288D01*
X142032645Y-47533628D01*
X142421553Y-47922536D01*
X141360893Y-48983196D01*
X141360893Y-48983196D01*
G37*
G36*
X140795208Y-48417511D02*
X140406300Y-48028603D01*
X141466960Y-46967943D01*
X141855868Y-47356851D01*
X140795208Y-48417511D01*
X140795208Y-48417511D01*
G37*
G36*
X140229523Y-47851825D02*
X139840615Y-47462917D01*
X140901275Y-46402257D01*
X141290183Y-46791165D01*
X140229523Y-47851825D01*
X140229523Y-47851825D01*
G37*
G36*
X139663837Y-47286140D02*
X139274929Y-46897232D01*
X140335589Y-45836572D01*
X140724497Y-46225480D01*
X139663837Y-47286140D01*
X139663837Y-47286140D01*
G37*
G36*
X139098152Y-46720454D02*
X138709244Y-46331546D01*
X139769904Y-45270886D01*
X140158812Y-45659794D01*
X139098152Y-46720454D01*
X139098152Y-46720454D01*
G37*
G36*
X138532466Y-46154769D02*
X138143558Y-45765861D01*
X139204218Y-44705201D01*
X139593126Y-45094109D01*
X138532466Y-46154769D01*
X138532466Y-46154769D01*
G37*
G36*
X137966781Y-45589083D02*
X137577873Y-45200175D01*
X138638533Y-44139515D01*
X139027441Y-44528423D01*
X137966781Y-45589083D01*
X137966781Y-45589083D01*
G37*
G36*
X137401095Y-45023398D02*
X137012187Y-44634490D01*
X138072847Y-43573830D01*
X138461755Y-43962738D01*
X137401095Y-45023398D01*
X137401095Y-45023398D01*
G37*
G36*
X136835410Y-44457713D02*
X136446502Y-44068805D01*
X137507162Y-43008145D01*
X137896070Y-43397053D01*
X136835410Y-44457713D01*
X136835410Y-44457713D01*
G37*
G36*
X136269725Y-43892027D02*
X135880817Y-43503119D01*
X136941477Y-42442459D01*
X137330385Y-42831367D01*
X136269725Y-43892027D01*
X136269725Y-43892027D01*
G37*
G36*
X134926221Y-43503119D02*
X134537313Y-43892027D01*
X133476653Y-42831367D01*
X133865561Y-42442459D01*
X134926221Y-43503119D01*
X134926221Y-43503119D01*
G37*
G36*
X134360536Y-44068805D02*
X133971628Y-44457713D01*
X132910968Y-43397053D01*
X133299876Y-43008145D01*
X134360536Y-44068805D01*
X134360536Y-44068805D01*
G37*
G36*
X133794851Y-44634490D02*
X133405943Y-45023398D01*
X132345283Y-43962738D01*
X132734191Y-43573830D01*
X133794851Y-44634490D01*
X133794851Y-44634490D01*
G37*
G36*
X133229165Y-45200175D02*
X132840257Y-45589083D01*
X131779597Y-44528423D01*
X132168505Y-44139515D01*
X133229165Y-45200175D01*
X133229165Y-45200175D01*
G37*
G36*
X132663480Y-45765861D02*
X132274572Y-46154769D01*
X131213912Y-45094109D01*
X131602820Y-44705201D01*
X132663480Y-45765861D01*
X132663480Y-45765861D01*
G37*
G36*
X132097794Y-46331546D02*
X131708886Y-46720454D01*
X130648226Y-45659794D01*
X131037134Y-45270886D01*
X132097794Y-46331546D01*
X132097794Y-46331546D01*
G37*
G36*
X131532109Y-46897232D02*
X131143201Y-47286140D01*
X130082541Y-46225480D01*
X130471449Y-45836572D01*
X131532109Y-46897232D01*
X131532109Y-46897232D01*
G37*
G36*
X130966423Y-47462917D02*
X130577515Y-47851825D01*
X129516855Y-46791165D01*
X129905763Y-46402257D01*
X130966423Y-47462917D01*
X130966423Y-47462917D01*
G37*
G36*
X130400738Y-48028603D02*
X130011830Y-48417511D01*
X128951170Y-47356851D01*
X129340078Y-46967943D01*
X130400738Y-48028603D01*
X130400738Y-48028603D01*
G37*
G36*
X129835053Y-48594288D02*
X129446145Y-48983196D01*
X128385485Y-47922536D01*
X128774393Y-47533628D01*
X129835053Y-48594288D01*
X129835053Y-48594288D01*
G37*
G36*
X129269367Y-49159973D02*
X128880459Y-49548881D01*
X127819799Y-48488221D01*
X128208707Y-48099313D01*
X129269367Y-49159973D01*
X129269367Y-49159973D01*
G37*
D11*
X123323519Y-48606419D03*
X123323519Y-47956179D03*
X123323519Y-47305939D03*
X123323519Y-46655699D03*
X123323519Y-46005459D03*
X123323519Y-45360299D03*
X123323519Y-44710059D03*
X123323519Y-44059819D03*
X123323519Y-43409579D03*
X123323519Y-42759339D03*
X117623759Y-42759339D03*
X117623759Y-43409579D03*
X117623759Y-44059819D03*
X117623759Y-44710059D03*
X117623759Y-45360299D03*
X117623759Y-46005459D03*
X117623759Y-46655699D03*
X117623759Y-47305939D03*
X117623759Y-47956179D03*
X117623759Y-48606419D03*
X123379399Y-56963019D03*
X123379399Y-56312779D03*
X123379399Y-55662539D03*
X123379399Y-55012299D03*
X123379399Y-54362059D03*
X123379399Y-53716899D03*
X123379399Y-53066659D03*
X123379399Y-52416419D03*
X123379399Y-51766179D03*
X123379399Y-51115939D03*
X117679639Y-51115939D03*
X117679639Y-51766179D03*
X117679639Y-52416419D03*
X117679639Y-53066659D03*
X117679639Y-53716899D03*
X117679639Y-54362059D03*
X117679639Y-55012299D03*
X117679639Y-55662539D03*
X117679639Y-56312779D03*
X117679639Y-56963019D03*
D13*
X83615275Y-54075929D03*
D14*
X77315275Y-54075929D03*
X77315275Y-56375929D03*
X77315275Y-51775929D03*
D15*
X162813000Y-80010000D03*
X159513000Y-80010000D03*
D12*
X162469391Y-69524299D03*
X159769391Y-69524299D03*
X162469391Y-74604299D03*
X159769391Y-74604299D03*
X162466000Y-85344000D03*
X159766000Y-85344000D03*
D16*
X88826000Y-41580000D03*
X93980000Y-41580000D03*
X93980000Y-44780000D03*
X88826000Y-44780000D03*
D12*
X126920000Y-41402000D03*
X129620000Y-41402000D03*
M02*
