G04 #@! TF.FileFunction,Soldermask,Bot*
%FSLAX46Y46*%
G04 Gerber Fmt 4.6, Leading zero omitted, Abs format (unit mm)*
G04 Created by KiCad (PCBNEW 4.0.6) date 2017 May 14, Sunday 21:18:00*
%MOMM*%
%LPD*%
G01*
G04 APERTURE LIST*
%ADD10C,0.100000*%
%ADD11R,2.100000X2.100000*%
%ADD12C,3.600000*%
%ADD13C,4.380180*%
%ADD14C,3.000000*%
%ADD15C,2.099260*%
%ADD16C,1.900000*%
%ADD17R,1.300000X1.600000*%
%ADD18R,1.400000X1.400000*%
%ADD19O,1.400000X1.400000*%
%ADD20R,1.900000X1.650000*%
G04 APERTURE END LIST*
D10*
D11*
X112522000Y-124460000D03*
X112522000Y-106680000D03*
X112522000Y-53340000D03*
X112522000Y-71120000D03*
D12*
X74930000Y-43180000D03*
X74930000Y-134620000D03*
X165100000Y-134620000D03*
D13*
X103505000Y-53340000D03*
D14*
X106045000Y-48260000D03*
X99695000Y-50800000D03*
D15*
X98425000Y-53340000D03*
X108585000Y-53340000D03*
D13*
X121285000Y-71120000D03*
D14*
X123825000Y-66040000D03*
X117475000Y-68580000D03*
D15*
X116205000Y-71120000D03*
X126365000Y-71120000D03*
D13*
X139065000Y-53340000D03*
D14*
X141605000Y-48260000D03*
X135255000Y-50800000D03*
D15*
X133985000Y-53340000D03*
X144145000Y-53340000D03*
D16*
X89535000Y-58420000D03*
X81915000Y-58420000D03*
X86995000Y-58420000D03*
X84455000Y-58420000D03*
X89535000Y-76200000D03*
X81915000Y-76200000D03*
X86995000Y-76200000D03*
X84455000Y-76200000D03*
X89535000Y-93980000D03*
X81915000Y-93980000D03*
X86995000Y-93980000D03*
X84455000Y-93980000D03*
X89535000Y-111760000D03*
X81915000Y-111760000D03*
X86995000Y-111760000D03*
X84455000Y-111760000D03*
X89535000Y-129540000D03*
X81915000Y-129540000D03*
X86995000Y-129540000D03*
X84455000Y-129540000D03*
X107315000Y-129540000D03*
X99695000Y-129540000D03*
X104775000Y-129540000D03*
X102235000Y-129540000D03*
X107315000Y-111760000D03*
X99695000Y-111760000D03*
X104775000Y-111760000D03*
X102235000Y-111760000D03*
X107315000Y-93980000D03*
X99695000Y-93980000D03*
X104775000Y-93980000D03*
X102235000Y-93980000D03*
X107315000Y-76200000D03*
X99695000Y-76200000D03*
X104775000Y-76200000D03*
X102235000Y-76200000D03*
X107315000Y-58420000D03*
X99695000Y-58420000D03*
X104775000Y-58420000D03*
X102235000Y-58420000D03*
X125095000Y-58420000D03*
X117475000Y-58420000D03*
X122555000Y-58420000D03*
X120015000Y-58420000D03*
X125095000Y-76200000D03*
X117475000Y-76200000D03*
X122555000Y-76200000D03*
X120015000Y-76200000D03*
X125095000Y-93980000D03*
X117475000Y-93980000D03*
X122555000Y-93980000D03*
X120015000Y-93980000D03*
X125095000Y-111760000D03*
X117475000Y-111760000D03*
X122555000Y-111760000D03*
X120015000Y-111760000D03*
X125095000Y-129540000D03*
X117475000Y-129540000D03*
X122555000Y-129540000D03*
X120015000Y-129540000D03*
X142875000Y-129540000D03*
X135255000Y-129540000D03*
X140335000Y-129540000D03*
X137795000Y-129540000D03*
X142875000Y-111760000D03*
X135255000Y-111760000D03*
X140335000Y-111760000D03*
X137795000Y-111760000D03*
X142875000Y-93980000D03*
X135255000Y-93980000D03*
X140335000Y-93980000D03*
X137795000Y-93980000D03*
X142875000Y-76200000D03*
X135255000Y-76200000D03*
X140335000Y-76200000D03*
X137795000Y-76200000D03*
X142875000Y-58420000D03*
X135255000Y-58420000D03*
X140335000Y-58420000D03*
X137795000Y-58420000D03*
D17*
X82295000Y-46990000D03*
X78995000Y-46990000D03*
X82295000Y-64770000D03*
X78995000Y-64770000D03*
X82295000Y-82550000D03*
X78995000Y-82550000D03*
X82295000Y-100330000D03*
X78995000Y-100330000D03*
X82295000Y-118110000D03*
X78995000Y-118110000D03*
X100075000Y-118110000D03*
X96775000Y-118110000D03*
X100075000Y-100330000D03*
X96775000Y-100330000D03*
X100075000Y-82550000D03*
X96775000Y-82550000D03*
X100075000Y-64770000D03*
X96775000Y-64770000D03*
X100075000Y-46990000D03*
X96775000Y-46990000D03*
X117855000Y-46990000D03*
X114555000Y-46990000D03*
X117855000Y-64770000D03*
X114555000Y-64770000D03*
X117855000Y-82550000D03*
X114555000Y-82550000D03*
X117855000Y-100330000D03*
X114555000Y-100330000D03*
X117855000Y-118110000D03*
X114555000Y-118110000D03*
X135635000Y-118110000D03*
X132335000Y-118110000D03*
X135635000Y-100330000D03*
X132335000Y-100330000D03*
X135635000Y-82550000D03*
X132335000Y-82550000D03*
X135635000Y-64770000D03*
X132335000Y-64770000D03*
X135635000Y-46990000D03*
X132335000Y-46990000D03*
D13*
X85725000Y-53340000D03*
D14*
X88265000Y-48260000D03*
X81915000Y-50800000D03*
D15*
X80645000Y-53340000D03*
X90805000Y-53340000D03*
D13*
X85725000Y-71120000D03*
D14*
X88265000Y-66040000D03*
X81915000Y-68580000D03*
D15*
X80645000Y-71120000D03*
X90805000Y-71120000D03*
D13*
X85725000Y-88900000D03*
D14*
X88265000Y-83820000D03*
X81915000Y-86360000D03*
D15*
X80645000Y-88900000D03*
X90805000Y-88900000D03*
D13*
X85725000Y-106680000D03*
D14*
X88265000Y-101600000D03*
X81915000Y-104140000D03*
D15*
X80645000Y-106680000D03*
X90805000Y-106680000D03*
D13*
X85725000Y-124460000D03*
D14*
X88265000Y-119380000D03*
X81915000Y-121920000D03*
D15*
X80645000Y-124460000D03*
X90805000Y-124460000D03*
D13*
X103505000Y-124460000D03*
D14*
X106045000Y-119380000D03*
X99695000Y-121920000D03*
D15*
X98425000Y-124460000D03*
X108585000Y-124460000D03*
D13*
X103505000Y-106680000D03*
D14*
X106045000Y-101600000D03*
X99695000Y-104140000D03*
D15*
X98425000Y-106680000D03*
X108585000Y-106680000D03*
D13*
X103505000Y-88900000D03*
D14*
X106045000Y-83820000D03*
X99695000Y-86360000D03*
D15*
X98425000Y-88900000D03*
X108585000Y-88900000D03*
D13*
X103505000Y-71120000D03*
D14*
X106045000Y-66040000D03*
X99695000Y-68580000D03*
D15*
X98425000Y-71120000D03*
X108585000Y-71120000D03*
D13*
X121285000Y-53340000D03*
D14*
X123825000Y-48260000D03*
X117475000Y-50800000D03*
D15*
X116205000Y-53340000D03*
X126365000Y-53340000D03*
D13*
X121285000Y-88900000D03*
D14*
X123825000Y-83820000D03*
X117475000Y-86360000D03*
D15*
X116205000Y-88900000D03*
X126365000Y-88900000D03*
D13*
X121285000Y-106680000D03*
D14*
X123825000Y-101600000D03*
X117475000Y-104140000D03*
D15*
X116205000Y-106680000D03*
X126365000Y-106680000D03*
D13*
X121285000Y-124460000D03*
D14*
X123825000Y-119380000D03*
X117475000Y-121920000D03*
D15*
X116205000Y-124460000D03*
X126365000Y-124460000D03*
D13*
X139065000Y-124460000D03*
D14*
X141605000Y-119380000D03*
X135255000Y-121920000D03*
D15*
X133985000Y-124460000D03*
X144145000Y-124460000D03*
D13*
X139065000Y-106680000D03*
D14*
X141605000Y-101600000D03*
X135255000Y-104140000D03*
D15*
X133985000Y-106680000D03*
X144145000Y-106680000D03*
D13*
X139065000Y-88900000D03*
D14*
X141605000Y-83820000D03*
X135255000Y-86360000D03*
D15*
X133985000Y-88900000D03*
X144145000Y-88900000D03*
D13*
X139065000Y-71120000D03*
D14*
X141605000Y-66040000D03*
X135255000Y-68580000D03*
D15*
X133985000Y-71120000D03*
X144145000Y-71120000D03*
D18*
X162560000Y-75565000D03*
D19*
X162560000Y-76835000D03*
X162560000Y-78105000D03*
X162560000Y-79375000D03*
X162560000Y-80645000D03*
X162560000Y-81915000D03*
X162560000Y-83185000D03*
X162560000Y-84455000D03*
D18*
X74930000Y-75565000D03*
D19*
X74930000Y-76835000D03*
X74930000Y-78105000D03*
X74930000Y-79375000D03*
X74930000Y-80645000D03*
X74930000Y-81915000D03*
D12*
X165100000Y-43180000D03*
D20*
X154706000Y-99568000D03*
X157206000Y-99568000D03*
X160782000Y-99568000D03*
X163282000Y-99568000D03*
D11*
X112522000Y-88900000D03*
D18*
X162306000Y-123952000D03*
D19*
X163576000Y-123952000D03*
X162306000Y-125222000D03*
X163576000Y-125222000D03*
X162306000Y-126492000D03*
X163576000Y-126492000D03*
X162306000Y-127762000D03*
X163576000Y-127762000D03*
X162306000Y-129032000D03*
X163576000Y-129032000D03*
M02*
