G04 #@! TF.FileFunction,Soldermask,Top*
%FSLAX46Y46*%
G04 Gerber Fmt 4.6, Leading zero omitted, Abs format (unit mm)*
G04 Created by KiCad (PCBNEW 4.0.6) date 2017 May 14, Sunday 21:18:00*
%MOMM*%
%LPD*%
G01*
G04 APERTURE LIST*
%ADD10C,0.100000*%
%ADD11R,2.100000X2.100000*%
%ADD12C,3.600000*%
%ADD13C,4.380180*%
%ADD14C,3.000000*%
%ADD15C,2.099260*%
%ADD16C,1.900000*%
%ADD17R,0.798780X1.499820*%
%ADD18R,2.400000X4.200000*%
%ADD19R,2.400000X1.900000*%
%ADD20R,1.400000X1.400000*%
%ADD21O,1.400000X1.400000*%
%ADD22R,1.300000X1.600000*%
%ADD23R,1.700000X1.900000*%
%ADD24R,1.650000X1.900000*%
G04 APERTURE END LIST*
D10*
D11*
X112522000Y-124460000D03*
X112522000Y-106680000D03*
X112522000Y-53340000D03*
X112522000Y-71120000D03*
D12*
X74930000Y-43180000D03*
X74930000Y-134620000D03*
X165100000Y-134620000D03*
D13*
X103505000Y-53340000D03*
D14*
X106045000Y-48260000D03*
X99695000Y-50800000D03*
D15*
X98425000Y-53340000D03*
X108585000Y-53340000D03*
D13*
X121285000Y-71120000D03*
D14*
X123825000Y-66040000D03*
X117475000Y-68580000D03*
D15*
X116205000Y-71120000D03*
X126365000Y-71120000D03*
D13*
X139065000Y-53340000D03*
D14*
X141605000Y-48260000D03*
X135255000Y-50800000D03*
D15*
X133985000Y-53340000D03*
X144145000Y-53340000D03*
D16*
X89535000Y-58420000D03*
X81915000Y-58420000D03*
X86995000Y-58420000D03*
X84455000Y-58420000D03*
X89535000Y-76200000D03*
X81915000Y-76200000D03*
X86995000Y-76200000D03*
X84455000Y-76200000D03*
X89535000Y-93980000D03*
X81915000Y-93980000D03*
X86995000Y-93980000D03*
X84455000Y-93980000D03*
X89535000Y-111760000D03*
X81915000Y-111760000D03*
X86995000Y-111760000D03*
X84455000Y-111760000D03*
X89535000Y-129540000D03*
X81915000Y-129540000D03*
X86995000Y-129540000D03*
X84455000Y-129540000D03*
X107315000Y-129540000D03*
X99695000Y-129540000D03*
X104775000Y-129540000D03*
X102235000Y-129540000D03*
X107315000Y-111760000D03*
X99695000Y-111760000D03*
X104775000Y-111760000D03*
X102235000Y-111760000D03*
X107315000Y-93980000D03*
X99695000Y-93980000D03*
X104775000Y-93980000D03*
X102235000Y-93980000D03*
X107315000Y-76200000D03*
X99695000Y-76200000D03*
X104775000Y-76200000D03*
X102235000Y-76200000D03*
X107315000Y-58420000D03*
X99695000Y-58420000D03*
X104775000Y-58420000D03*
X102235000Y-58420000D03*
X125095000Y-58420000D03*
X117475000Y-58420000D03*
X122555000Y-58420000D03*
X120015000Y-58420000D03*
X125095000Y-76200000D03*
X117475000Y-76200000D03*
X122555000Y-76200000D03*
X120015000Y-76200000D03*
X125095000Y-93980000D03*
X117475000Y-93980000D03*
X122555000Y-93980000D03*
X120015000Y-93980000D03*
X125095000Y-111760000D03*
X117475000Y-111760000D03*
X122555000Y-111760000D03*
X120015000Y-111760000D03*
X125095000Y-129540000D03*
X117475000Y-129540000D03*
X122555000Y-129540000D03*
X120015000Y-129540000D03*
X142875000Y-129540000D03*
X135255000Y-129540000D03*
X140335000Y-129540000D03*
X137795000Y-129540000D03*
X142875000Y-111760000D03*
X135255000Y-111760000D03*
X140335000Y-111760000D03*
X137795000Y-111760000D03*
X142875000Y-93980000D03*
X135255000Y-93980000D03*
X140335000Y-93980000D03*
X137795000Y-93980000D03*
X142875000Y-76200000D03*
X135255000Y-76200000D03*
X140335000Y-76200000D03*
X137795000Y-76200000D03*
X142875000Y-58420000D03*
X135255000Y-58420000D03*
X140335000Y-58420000D03*
X137795000Y-58420000D03*
D13*
X85725000Y-53340000D03*
D14*
X88265000Y-48260000D03*
X81915000Y-50800000D03*
D15*
X80645000Y-53340000D03*
X90805000Y-53340000D03*
D13*
X85725000Y-71120000D03*
D14*
X88265000Y-66040000D03*
X81915000Y-68580000D03*
D15*
X80645000Y-71120000D03*
X90805000Y-71120000D03*
D13*
X85725000Y-88900000D03*
D14*
X88265000Y-83820000D03*
X81915000Y-86360000D03*
D15*
X80645000Y-88900000D03*
X90805000Y-88900000D03*
D13*
X85725000Y-106680000D03*
D14*
X88265000Y-101600000D03*
X81915000Y-104140000D03*
D15*
X80645000Y-106680000D03*
X90805000Y-106680000D03*
D13*
X85725000Y-124460000D03*
D14*
X88265000Y-119380000D03*
X81915000Y-121920000D03*
D15*
X80645000Y-124460000D03*
X90805000Y-124460000D03*
D13*
X103505000Y-124460000D03*
D14*
X106045000Y-119380000D03*
X99695000Y-121920000D03*
D15*
X98425000Y-124460000D03*
X108585000Y-124460000D03*
D13*
X103505000Y-106680000D03*
D14*
X106045000Y-101600000D03*
X99695000Y-104140000D03*
D15*
X98425000Y-106680000D03*
X108585000Y-106680000D03*
D13*
X103505000Y-88900000D03*
D14*
X106045000Y-83820000D03*
X99695000Y-86360000D03*
D15*
X98425000Y-88900000D03*
X108585000Y-88900000D03*
D13*
X103505000Y-71120000D03*
D14*
X106045000Y-66040000D03*
X99695000Y-68580000D03*
D15*
X98425000Y-71120000D03*
X108585000Y-71120000D03*
D13*
X121285000Y-53340000D03*
D14*
X123825000Y-48260000D03*
X117475000Y-50800000D03*
D15*
X116205000Y-53340000D03*
X126365000Y-53340000D03*
D13*
X121285000Y-88900000D03*
D14*
X123825000Y-83820000D03*
X117475000Y-86360000D03*
D15*
X116205000Y-88900000D03*
X126365000Y-88900000D03*
D13*
X121285000Y-106680000D03*
D14*
X123825000Y-101600000D03*
X117475000Y-104140000D03*
D15*
X116205000Y-106680000D03*
X126365000Y-106680000D03*
D13*
X121285000Y-124460000D03*
D14*
X123825000Y-119380000D03*
X117475000Y-121920000D03*
D15*
X116205000Y-124460000D03*
X126365000Y-124460000D03*
D13*
X139065000Y-124460000D03*
D14*
X141605000Y-119380000D03*
X135255000Y-121920000D03*
D15*
X133985000Y-124460000D03*
X144145000Y-124460000D03*
D13*
X139065000Y-106680000D03*
D14*
X141605000Y-101600000D03*
X135255000Y-104140000D03*
D15*
X133985000Y-106680000D03*
X144145000Y-106680000D03*
D13*
X139065000Y-88900000D03*
D14*
X141605000Y-83820000D03*
X135255000Y-86360000D03*
D15*
X133985000Y-88900000D03*
X144145000Y-88900000D03*
D13*
X139065000Y-71120000D03*
D14*
X141605000Y-66040000D03*
X135255000Y-68580000D03*
D15*
X133985000Y-71120000D03*
X144145000Y-71120000D03*
D10*
G36*
X154851291Y-107755188D02*
X155523042Y-107083437D01*
X156866545Y-108426940D01*
X156194794Y-109098691D01*
X154851291Y-107755188D01*
X154851291Y-107755188D01*
G37*
G36*
X154285606Y-108320874D02*
X154957357Y-107649123D01*
X156300860Y-108992626D01*
X155629109Y-109664377D01*
X154285606Y-108320874D01*
X154285606Y-108320874D01*
G37*
G36*
X153719921Y-108886559D02*
X154391672Y-108214808D01*
X155735175Y-109558311D01*
X155063424Y-110230062D01*
X153719921Y-108886559D01*
X153719921Y-108886559D01*
G37*
G36*
X153154235Y-109452244D02*
X153825986Y-108780493D01*
X155169489Y-110123996D01*
X154497738Y-110795747D01*
X153154235Y-109452244D01*
X153154235Y-109452244D01*
G37*
G36*
X152588550Y-110017930D02*
X153260301Y-109346179D01*
X154603804Y-110689682D01*
X153932053Y-111361433D01*
X152588550Y-110017930D01*
X152588550Y-110017930D01*
G37*
G36*
X152022864Y-110583615D02*
X152694615Y-109911864D01*
X154038118Y-111255367D01*
X153366367Y-111927118D01*
X152022864Y-110583615D01*
X152022864Y-110583615D01*
G37*
G36*
X151457179Y-111149301D02*
X152128930Y-110477550D01*
X153472433Y-111821053D01*
X152800682Y-112492804D01*
X151457179Y-111149301D01*
X151457179Y-111149301D01*
G37*
G36*
X150891493Y-111714986D02*
X151563244Y-111043235D01*
X152906747Y-112386738D01*
X152234996Y-113058489D01*
X150891493Y-111714986D01*
X150891493Y-111714986D01*
G37*
G36*
X150325808Y-112280672D02*
X150997559Y-111608921D01*
X152341062Y-112952424D01*
X151669311Y-113624175D01*
X150325808Y-112280672D01*
X150325808Y-112280672D01*
G37*
G36*
X149760123Y-112846357D02*
X150431874Y-112174606D01*
X151775377Y-113518109D01*
X151103626Y-114189860D01*
X149760123Y-112846357D01*
X149760123Y-112846357D01*
G37*
G36*
X149194437Y-113412042D02*
X149866188Y-112740291D01*
X151209691Y-114083794D01*
X150537940Y-114755545D01*
X149194437Y-113412042D01*
X149194437Y-113412042D01*
G37*
G36*
X149866188Y-117159709D02*
X149194437Y-116487958D01*
X150537940Y-115144455D01*
X151209691Y-115816206D01*
X149866188Y-117159709D01*
X149866188Y-117159709D01*
G37*
G36*
X150431874Y-117725394D02*
X149760123Y-117053643D01*
X151103626Y-115710140D01*
X151775377Y-116381891D01*
X150431874Y-117725394D01*
X150431874Y-117725394D01*
G37*
G36*
X150997559Y-118291079D02*
X150325808Y-117619328D01*
X151669311Y-116275825D01*
X152341062Y-116947576D01*
X150997559Y-118291079D01*
X150997559Y-118291079D01*
G37*
G36*
X151563244Y-118856765D02*
X150891493Y-118185014D01*
X152234996Y-116841511D01*
X152906747Y-117513262D01*
X151563244Y-118856765D01*
X151563244Y-118856765D01*
G37*
G36*
X152128930Y-119422450D02*
X151457179Y-118750699D01*
X152800682Y-117407196D01*
X153472433Y-118078947D01*
X152128930Y-119422450D01*
X152128930Y-119422450D01*
G37*
G36*
X152694615Y-119988136D02*
X152022864Y-119316385D01*
X153366367Y-117972882D01*
X154038118Y-118644633D01*
X152694615Y-119988136D01*
X152694615Y-119988136D01*
G37*
G36*
X153260301Y-120553821D02*
X152588550Y-119882070D01*
X153932053Y-118538567D01*
X154603804Y-119210318D01*
X153260301Y-120553821D01*
X153260301Y-120553821D01*
G37*
G36*
X153825986Y-121119507D02*
X153154235Y-120447756D01*
X154497738Y-119104253D01*
X155169489Y-119776004D01*
X153825986Y-121119507D01*
X153825986Y-121119507D01*
G37*
G36*
X154391672Y-121685192D02*
X153719921Y-121013441D01*
X155063424Y-119669938D01*
X155735175Y-120341689D01*
X154391672Y-121685192D01*
X154391672Y-121685192D01*
G37*
G36*
X154957357Y-122250877D02*
X154285606Y-121579126D01*
X155629109Y-120235623D01*
X156300860Y-120907374D01*
X154957357Y-122250877D01*
X154957357Y-122250877D01*
G37*
G36*
X155523042Y-122816563D02*
X154851291Y-122144812D01*
X156194794Y-120801309D01*
X156866545Y-121473060D01*
X155523042Y-122816563D01*
X155523042Y-122816563D01*
G37*
G36*
X157255455Y-121473060D02*
X157927206Y-120801309D01*
X159270709Y-122144812D01*
X158598958Y-122816563D01*
X157255455Y-121473060D01*
X157255455Y-121473060D01*
G37*
G36*
X157821140Y-120907374D02*
X158492891Y-120235623D01*
X159836394Y-121579126D01*
X159164643Y-122250877D01*
X157821140Y-120907374D01*
X157821140Y-120907374D01*
G37*
G36*
X158386825Y-120341689D02*
X159058576Y-119669938D01*
X160402079Y-121013441D01*
X159730328Y-121685192D01*
X158386825Y-120341689D01*
X158386825Y-120341689D01*
G37*
G36*
X158952511Y-119776004D02*
X159624262Y-119104253D01*
X160967765Y-120447756D01*
X160296014Y-121119507D01*
X158952511Y-119776004D01*
X158952511Y-119776004D01*
G37*
G36*
X159518196Y-119210318D02*
X160189947Y-118538567D01*
X161533450Y-119882070D01*
X160861699Y-120553821D01*
X159518196Y-119210318D01*
X159518196Y-119210318D01*
G37*
G36*
X160083882Y-118644633D02*
X160755633Y-117972882D01*
X162099136Y-119316385D01*
X161427385Y-119988136D01*
X160083882Y-118644633D01*
X160083882Y-118644633D01*
G37*
G36*
X160649567Y-118078947D02*
X161321318Y-117407196D01*
X162664821Y-118750699D01*
X161993070Y-119422450D01*
X160649567Y-118078947D01*
X160649567Y-118078947D01*
G37*
G36*
X161215253Y-117513262D02*
X161887004Y-116841511D01*
X163230507Y-118185014D01*
X162558756Y-118856765D01*
X161215253Y-117513262D01*
X161215253Y-117513262D01*
G37*
G36*
X161780938Y-116947576D02*
X162452689Y-116275825D01*
X163796192Y-117619328D01*
X163124441Y-118291079D01*
X161780938Y-116947576D01*
X161780938Y-116947576D01*
G37*
G36*
X162346623Y-116381891D02*
X163018374Y-115710140D01*
X164361877Y-117053643D01*
X163690126Y-117725394D01*
X162346623Y-116381891D01*
X162346623Y-116381891D01*
G37*
G36*
X162912309Y-115816206D02*
X163584060Y-115144455D01*
X164927563Y-116487958D01*
X164255812Y-117159709D01*
X162912309Y-115816206D01*
X162912309Y-115816206D01*
G37*
G36*
X163584060Y-114755545D02*
X162912309Y-114083794D01*
X164255812Y-112740291D01*
X164927563Y-113412042D01*
X163584060Y-114755545D01*
X163584060Y-114755545D01*
G37*
G36*
X163018374Y-114189860D02*
X162346623Y-113518109D01*
X163690126Y-112174606D01*
X164361877Y-112846357D01*
X163018374Y-114189860D01*
X163018374Y-114189860D01*
G37*
G36*
X162452689Y-113624175D02*
X161780938Y-112952424D01*
X163124441Y-111608921D01*
X163796192Y-112280672D01*
X162452689Y-113624175D01*
X162452689Y-113624175D01*
G37*
G36*
X161887004Y-113058489D02*
X161215253Y-112386738D01*
X162558756Y-111043235D01*
X163230507Y-111714986D01*
X161887004Y-113058489D01*
X161887004Y-113058489D01*
G37*
G36*
X161321318Y-112492804D02*
X160649567Y-111821053D01*
X161993070Y-110477550D01*
X162664821Y-111149301D01*
X161321318Y-112492804D01*
X161321318Y-112492804D01*
G37*
G36*
X160755633Y-111927118D02*
X160083882Y-111255367D01*
X161427385Y-109911864D01*
X162099136Y-110583615D01*
X160755633Y-111927118D01*
X160755633Y-111927118D01*
G37*
G36*
X160189947Y-111361433D02*
X159518196Y-110689682D01*
X160861699Y-109346179D01*
X161533450Y-110017930D01*
X160189947Y-111361433D01*
X160189947Y-111361433D01*
G37*
G36*
X159624262Y-110795747D02*
X158952511Y-110123996D01*
X160296014Y-108780493D01*
X160967765Y-109452244D01*
X159624262Y-110795747D01*
X159624262Y-110795747D01*
G37*
G36*
X159058576Y-110230062D02*
X158386825Y-109558311D01*
X159730328Y-108214808D01*
X160402079Y-108886559D01*
X159058576Y-110230062D01*
X159058576Y-110230062D01*
G37*
G36*
X158492891Y-109664377D02*
X157821140Y-108992626D01*
X159164643Y-107649123D01*
X159836394Y-108320874D01*
X158492891Y-109664377D01*
X158492891Y-109664377D01*
G37*
G36*
X157927206Y-109098691D02*
X157255455Y-108426940D01*
X158598958Y-107083437D01*
X159270709Y-107755188D01*
X157927206Y-109098691D01*
X157927206Y-109098691D01*
G37*
D17*
X158480760Y-102870000D03*
X159131000Y-102870000D03*
X159781240Y-102870000D03*
X160431480Y-102870000D03*
X161081720Y-102870000D03*
X161726880Y-102870000D03*
X162377120Y-102870000D03*
X163027360Y-102870000D03*
X163677600Y-102870000D03*
X164327840Y-102870000D03*
X164327840Y-97170240D03*
X163677600Y-97170240D03*
X163027360Y-97170240D03*
X162377120Y-97170240D03*
X161726880Y-97170240D03*
X161081720Y-97170240D03*
X160431480Y-97170240D03*
X159781240Y-97170240D03*
X159131000Y-97170240D03*
X158480760Y-97170240D03*
X150124160Y-102925880D03*
X150774400Y-102925880D03*
X151424640Y-102925880D03*
X152074880Y-102925880D03*
X152725120Y-102925880D03*
X153370280Y-102925880D03*
X154020520Y-102925880D03*
X154670760Y-102925880D03*
X155321000Y-102925880D03*
X155971240Y-102925880D03*
X155971240Y-97226120D03*
X155321000Y-97226120D03*
X154670760Y-97226120D03*
X154020520Y-97226120D03*
X153370280Y-97226120D03*
X152725120Y-97226120D03*
X152074880Y-97226120D03*
X151424640Y-97226120D03*
X150774400Y-97226120D03*
X150124160Y-97226120D03*
X154955240Y-126690120D03*
X154305000Y-126690120D03*
X153654760Y-126690120D03*
X153004520Y-126690120D03*
X152354280Y-126690120D03*
X151709120Y-126690120D03*
X151058880Y-126690120D03*
X150408640Y-126690120D03*
X149758400Y-126690120D03*
X149108160Y-126690120D03*
X149108160Y-132389880D03*
X149758400Y-132389880D03*
X150408640Y-132389880D03*
X151058880Y-132389880D03*
X151709120Y-132389880D03*
X152354280Y-132389880D03*
X153004520Y-132389880D03*
X153654760Y-132389880D03*
X154305000Y-132389880D03*
X154955240Y-132389880D03*
D18*
X155600000Y-66675000D03*
D19*
X161900000Y-66675000D03*
X161900000Y-64375000D03*
X161900000Y-68975000D03*
D20*
X162560000Y-75565000D03*
D21*
X162560000Y-76835000D03*
X162560000Y-78105000D03*
X162560000Y-79375000D03*
X162560000Y-80645000D03*
X162560000Y-81915000D03*
X162560000Y-83185000D03*
X162560000Y-84455000D03*
D20*
X74930000Y-75565000D03*
D21*
X74930000Y-76835000D03*
X74930000Y-78105000D03*
X74930000Y-79375000D03*
X74930000Y-80645000D03*
X74930000Y-81915000D03*
D22*
X154180000Y-44450000D03*
X157480000Y-44450000D03*
D12*
X165100000Y-43180000D03*
D23*
X161290000Y-53960000D03*
X161290000Y-51260000D03*
X151130000Y-53960000D03*
X151130000Y-51260000D03*
X156210000Y-53960000D03*
X156210000Y-51260000D03*
X166370000Y-53960000D03*
X166370000Y-51260000D03*
D24*
X156718000Y-131024000D03*
X156718000Y-128524000D03*
D11*
X112522000Y-88900000D03*
D20*
X162306000Y-123952000D03*
D21*
X163576000Y-123952000D03*
X162306000Y-125222000D03*
X163576000Y-125222000D03*
X162306000Y-126492000D03*
X163576000Y-126492000D03*
X162306000Y-127762000D03*
X163576000Y-127762000D03*
X162306000Y-129032000D03*
X163576000Y-129032000D03*
M02*
