G04 #@! TF.FileFunction,Copper,L2,Bot,Signal*
%FSLAX46Y46*%
G04 Gerber Fmt 4.6, Leading zero omitted, Abs format (unit mm)*
G04 Created by KiCad (PCBNEW 4.0.6) date 2018 January 05, Friday 09:14:58*
%MOMM*%
%LPD*%
G01*
G04 APERTURE LIST*
%ADD10C,0.100000*%
%ADD11C,3.980180*%
%ADD12C,2.600000*%
%ADD13C,1.699260*%
%ADD14C,1.500000*%
%ADD15R,0.900000X1.200000*%
%ADD16R,1.250000X1.500000*%
%ADD17R,1.700000X1.700000*%
%ADD18O,1.700000X1.700000*%
%ADD19R,1.500000X1.250000*%
%ADD20C,0.600000*%
%ADD21C,0.250000*%
%ADD22C,0.254000*%
G04 APERTURE END LIST*
D10*
D11*
X91440000Y-90170000D03*
D12*
X93980000Y-85090000D03*
X87630000Y-87630000D03*
D13*
X86360000Y-90170000D03*
X96520000Y-90170000D03*
D11*
X129540000Y-109220000D03*
D12*
X132080000Y-104140000D03*
X125730000Y-106680000D03*
D13*
X124460000Y-109220000D03*
X134620000Y-109220000D03*
D11*
X129540000Y-71120000D03*
D12*
X132080000Y-66040000D03*
X125730000Y-68580000D03*
D13*
X124460000Y-71120000D03*
X134620000Y-71120000D03*
D14*
X95237300Y-133324600D03*
X87617300Y-133324600D03*
X92697300Y-133324600D03*
X90157300Y-133324600D03*
D15*
X87997300Y-121894600D03*
X84697300Y-121894600D03*
D11*
X91427300Y-128244600D03*
D12*
X93967300Y-123164600D03*
X87617300Y-125704600D03*
D13*
X86347300Y-128244600D03*
X96507300Y-128244600D03*
D14*
X95250000Y-114300000D03*
X87630000Y-114300000D03*
X92710000Y-114300000D03*
X90170000Y-114300000D03*
X95250000Y-95250000D03*
X87630000Y-95250000D03*
X92710000Y-95250000D03*
X90170000Y-95250000D03*
X95250000Y-76200000D03*
X87630000Y-76200000D03*
X92710000Y-76200000D03*
X90170000Y-76200000D03*
X114300000Y-133350000D03*
X106680000Y-133350000D03*
X111760000Y-133350000D03*
X109220000Y-133350000D03*
X114300000Y-114300000D03*
X106680000Y-114300000D03*
X111760000Y-114300000D03*
X109220000Y-114300000D03*
X114300000Y-95250000D03*
X106680000Y-95250000D03*
X111760000Y-95250000D03*
X109220000Y-95250000D03*
X114300000Y-76200000D03*
X106680000Y-76200000D03*
X111760000Y-76200000D03*
X109220000Y-76200000D03*
X133350000Y-133350000D03*
X125730000Y-133350000D03*
X130810000Y-133350000D03*
X128270000Y-133350000D03*
X133350000Y-114300000D03*
X125730000Y-114300000D03*
X130810000Y-114300000D03*
X128270000Y-114300000D03*
X133350000Y-95250000D03*
X125730000Y-95250000D03*
X130810000Y-95250000D03*
X128270000Y-95250000D03*
X133350000Y-76200000D03*
X125730000Y-76200000D03*
X130810000Y-76200000D03*
X128270000Y-76200000D03*
X152400000Y-133350000D03*
X144780000Y-133350000D03*
X149860000Y-133350000D03*
X147320000Y-133350000D03*
X152400000Y-114300000D03*
X144780000Y-114300000D03*
X149860000Y-114300000D03*
X147320000Y-114300000D03*
X152400000Y-95250000D03*
X144780000Y-95250000D03*
X149860000Y-95250000D03*
X147320000Y-95250000D03*
X152400000Y-76200000D03*
X144780000Y-76200000D03*
X149860000Y-76200000D03*
X147320000Y-76200000D03*
D15*
X88010000Y-102870000D03*
X84710000Y-102870000D03*
X88010000Y-83820000D03*
X84710000Y-83820000D03*
X88010000Y-64770000D03*
X84710000Y-64770000D03*
X107060000Y-121920000D03*
X103760000Y-121920000D03*
X107060000Y-102870000D03*
X103760000Y-102870000D03*
X107060000Y-83820000D03*
X103760000Y-83820000D03*
X107060000Y-64770000D03*
X103760000Y-64770000D03*
X126110000Y-121920000D03*
X122810000Y-121920000D03*
X126110000Y-102870000D03*
X122810000Y-102870000D03*
X126110000Y-83820000D03*
X122810000Y-83820000D03*
X126110000Y-64770000D03*
X122810000Y-64770000D03*
X145160000Y-121920000D03*
X141860000Y-121920000D03*
X145160000Y-102870000D03*
X141860000Y-102870000D03*
X145160000Y-83820000D03*
X141860000Y-83820000D03*
X145160000Y-64770000D03*
X141860000Y-64770000D03*
D11*
X91440000Y-109220000D03*
D12*
X93980000Y-104140000D03*
X87630000Y-106680000D03*
D13*
X86360000Y-109220000D03*
X96520000Y-109220000D03*
D11*
X91440000Y-71120000D03*
D12*
X93980000Y-66040000D03*
X87630000Y-68580000D03*
D13*
X86360000Y-71120000D03*
X96520000Y-71120000D03*
D11*
X110490000Y-128270000D03*
D12*
X113030000Y-123190000D03*
X106680000Y-125730000D03*
D13*
X105410000Y-128270000D03*
X115570000Y-128270000D03*
D11*
X110490000Y-109220000D03*
D12*
X113030000Y-104140000D03*
X106680000Y-106680000D03*
D13*
X105410000Y-109220000D03*
X115570000Y-109220000D03*
D11*
X110490000Y-90170000D03*
D12*
X113030000Y-85090000D03*
X106680000Y-87630000D03*
D13*
X105410000Y-90170000D03*
X115570000Y-90170000D03*
D11*
X110490000Y-71120000D03*
D12*
X113030000Y-66040000D03*
X106680000Y-68580000D03*
D13*
X105410000Y-71120000D03*
X115570000Y-71120000D03*
D11*
X129540000Y-128270000D03*
D12*
X132080000Y-123190000D03*
X125730000Y-125730000D03*
D13*
X124460000Y-128270000D03*
X134620000Y-128270000D03*
D11*
X129540000Y-90170000D03*
D12*
X132080000Y-85090000D03*
X125730000Y-87630000D03*
D13*
X124460000Y-90170000D03*
X134620000Y-90170000D03*
D11*
X148590000Y-128270000D03*
D12*
X151130000Y-123190000D03*
X144780000Y-125730000D03*
D13*
X143510000Y-128270000D03*
X153670000Y-128270000D03*
D11*
X148590000Y-109220000D03*
D12*
X151130000Y-104140000D03*
X144780000Y-106680000D03*
D13*
X143510000Y-109220000D03*
X153670000Y-109220000D03*
D11*
X148590000Y-90170000D03*
D12*
X151130000Y-85090000D03*
X144780000Y-87630000D03*
D13*
X143510000Y-90170000D03*
X153670000Y-90170000D03*
D11*
X148590000Y-71120000D03*
D12*
X151130000Y-66040000D03*
X144780000Y-68580000D03*
D13*
X143510000Y-71120000D03*
X153670000Y-71120000D03*
D16*
X162693519Y-57227179D03*
X162693519Y-59727179D03*
X120529519Y-54393179D03*
X120529519Y-51893179D03*
X120529519Y-46011179D03*
X120529519Y-43511179D03*
D17*
X166370000Y-101600000D03*
D18*
X166370000Y-104140000D03*
X166370000Y-106680000D03*
X166370000Y-109220000D03*
X166370000Y-111760000D03*
X166370000Y-114300000D03*
X166370000Y-116840000D03*
X166370000Y-119380000D03*
X166370000Y-121920000D03*
D17*
X73660000Y-101600000D03*
D18*
X73660000Y-104140000D03*
X73660000Y-106680000D03*
X73660000Y-109220000D03*
X73660000Y-111760000D03*
X73660000Y-114300000D03*
X73660000Y-116840000D03*
X73660000Y-119380000D03*
X73660000Y-121920000D03*
D17*
X156243282Y-47061420D03*
D18*
X156243282Y-49601420D03*
X153703282Y-47061420D03*
X153703282Y-49601420D03*
X151163282Y-47061420D03*
X151163282Y-49601420D03*
D17*
X156210000Y-41910000D03*
D18*
X153670000Y-41910000D03*
X151130000Y-41910000D03*
X148590000Y-41910000D03*
D19*
X136612000Y-45847000D03*
X134112000Y-45847000D03*
D16*
X136779000Y-51268000D03*
X136779000Y-48768000D03*
X133985000Y-48808000D03*
X133985000Y-51308000D03*
D19*
X134112000Y-54229000D03*
X136612000Y-54229000D03*
D20*
X152400000Y-63500000D03*
X117475000Y-72390000D03*
X95250000Y-135890000D03*
X114300000Y-135890000D03*
X133350000Y-135890000D03*
X152400000Y-135890000D03*
X146685000Y-63500000D03*
X145415000Y-72390000D03*
X91440000Y-135255000D03*
X96520000Y-135255000D03*
X129540000Y-135255000D03*
X134620000Y-135255000D03*
X126365000Y-129540000D03*
X145415000Y-129540000D03*
X145415000Y-91440000D03*
X145415000Y-110490000D03*
X126365000Y-110490000D03*
X126365000Y-91440000D03*
X107315000Y-91440000D03*
X107315000Y-110490000D03*
X107315000Y-129540000D03*
X88265000Y-129540000D03*
X88265000Y-110490000D03*
X88265000Y-91440000D03*
X153162000Y-61341000D03*
X92710000Y-136525000D03*
X95250000Y-137160000D03*
X130810000Y-136525000D03*
X133350000Y-137160000D03*
X88900000Y-52070000D03*
X90170000Y-52070000D03*
X91440000Y-52070000D03*
X92710000Y-52070000D03*
X97790000Y-53340000D03*
X99060000Y-53340000D03*
X100330000Y-53340000D03*
X101600000Y-53340000D03*
X106680000Y-54610000D03*
X107950000Y-54610000D03*
X109220000Y-54610000D03*
X110490000Y-54610000D03*
X111760000Y-57150000D03*
X113030000Y-57150000D03*
X114300000Y-57150000D03*
X115570000Y-57150000D03*
X153162000Y-62357000D03*
X129413000Y-56134000D03*
X162687000Y-61595000D03*
X122047000Y-51115939D03*
X120523000Y-41783000D03*
X139065000Y-51943000D03*
X141351000Y-54864000D03*
X138049000Y-46990000D03*
X148640800Y-44272200D03*
X153314400Y-44704000D03*
X116205000Y-48260000D03*
X120523000Y-48133000D03*
X77343000Y-64770000D03*
X77343000Y-60960000D03*
X77315275Y-51775929D03*
X93980000Y-44780000D03*
X159513000Y-80010000D03*
X162687000Y-54102000D03*
X120523000Y-57531000D03*
X162687000Y-55499000D03*
X121539000Y-47625000D03*
X121158000Y-56769000D03*
X74853800Y-55499000D03*
X91516200Y-42595800D03*
X79375000Y-121539599D03*
X79375000Y-98171000D03*
X169545000Y-56769000D03*
X149987000Y-54610000D03*
X143637000Y-57150000D03*
X166370000Y-52070000D03*
X163830000Y-50673000D03*
X167386000Y-48768000D03*
X163830000Y-49403000D03*
X167386000Y-47371000D03*
X139478001Y-43085001D03*
X130810000Y-49022000D03*
X130048000Y-44323000D03*
X143129000Y-55499000D03*
X140465879Y-44239298D03*
X130810000Y-50038000D03*
X120015000Y-49738001D03*
D21*
X152400000Y-64770000D02*
X152400000Y-63500000D01*
X152755001Y-65125001D02*
X152400000Y-64770000D01*
X152400000Y-70485000D02*
X152755001Y-70129999D01*
X152755001Y-70129999D02*
X152755001Y-65125001D01*
X152400000Y-76200000D02*
X152400000Y-70485000D01*
X117475000Y-72390000D02*
X114300000Y-75565000D01*
X114300000Y-75565000D02*
X114300000Y-76200000D01*
X95250000Y-135890000D02*
X95250000Y-133337300D01*
X95250000Y-133337300D02*
X95237300Y-133324600D01*
X114300000Y-133350000D02*
X114300000Y-135890000D01*
X133350000Y-135890000D02*
X133350000Y-133350000D01*
X152400000Y-133350000D02*
X152400000Y-135890000D01*
X152400000Y-114300000D02*
X152400000Y-122054998D01*
X152400000Y-127801545D02*
X152400000Y-133350000D01*
X152400000Y-122054998D02*
X152755001Y-122409999D01*
X152755001Y-122409999D02*
X152755001Y-127446544D01*
X152755001Y-127446544D02*
X152400000Y-127801545D01*
X133350000Y-114300000D02*
X133350000Y-122054998D01*
X133350000Y-122054998D02*
X133705001Y-122409999D01*
X133705001Y-122409999D02*
X133705001Y-127446544D01*
X133705001Y-127446544D02*
X133350000Y-127801545D01*
X133350000Y-127801545D02*
X133350000Y-133350000D01*
X133350000Y-95250000D02*
X134099999Y-95999999D01*
X134099999Y-95999999D02*
X134099999Y-108045369D01*
X133350000Y-108795368D02*
X133350000Y-114300000D01*
X134099999Y-108045369D02*
X133350000Y-108795368D01*
X152400000Y-95250000D02*
X152400000Y-103004998D01*
X152400000Y-103004998D02*
X152755001Y-103359999D01*
X152400000Y-108751545D02*
X152400000Y-114300000D01*
X152755001Y-103359999D02*
X152755001Y-108396544D01*
X152755001Y-108396544D02*
X152400000Y-108751545D01*
X152400000Y-76200000D02*
X152400000Y-83954998D01*
X152400000Y-83954998D02*
X152755001Y-84309999D01*
X152755001Y-84309999D02*
X152755001Y-89346544D01*
X152755001Y-89346544D02*
X152400000Y-89701545D01*
X152400000Y-89701545D02*
X152400000Y-95250000D01*
X133350000Y-76200000D02*
X133350000Y-83954998D01*
X133350000Y-89701545D02*
X133350000Y-95250000D01*
X133350000Y-83954998D02*
X133705001Y-84309999D01*
X133705001Y-84309999D02*
X133705001Y-89346544D01*
X133705001Y-89346544D02*
X133350000Y-89701545D01*
X95250000Y-76200000D02*
X95250000Y-83954998D01*
X95250000Y-83954998D02*
X95605001Y-84309999D01*
X95250000Y-89701545D02*
X95250000Y-95250000D01*
X95605001Y-84309999D02*
X95605001Y-89346544D01*
X95605001Y-89346544D02*
X95250000Y-89701545D01*
X114300000Y-76200000D02*
X114300000Y-77260660D01*
X114300000Y-77260660D02*
X114935000Y-77895660D01*
X114935000Y-77895660D02*
X114935000Y-89066545D01*
X114935000Y-89066545D02*
X114300000Y-89701545D01*
X114300000Y-89701545D02*
X114300000Y-95250000D01*
X114300000Y-95250000D02*
X114300000Y-103004998D01*
X114300000Y-103004998D02*
X114655001Y-103359999D01*
X114655001Y-103359999D02*
X114655001Y-108396544D01*
X114300000Y-108751545D02*
X114300000Y-114300000D01*
X114655001Y-108396544D02*
X114300000Y-108751545D01*
X114300000Y-114300000D02*
X114300000Y-122054998D01*
X114655001Y-127446544D02*
X114300000Y-127801545D01*
X114300000Y-122054998D02*
X114655001Y-122409999D01*
X114655001Y-122409999D02*
X114655001Y-127446544D01*
X114300000Y-127801545D02*
X114300000Y-133350000D01*
X95250000Y-114300000D02*
X95250000Y-115360660D01*
X95250000Y-115360660D02*
X95592301Y-115702961D01*
X95592301Y-115702961D02*
X95592301Y-127421144D01*
X95237300Y-127776145D02*
X95237300Y-133324600D01*
X95592301Y-127421144D02*
X95237300Y-127776145D01*
X95250000Y-95250000D02*
X95250000Y-96310660D01*
X95250000Y-96310660D02*
X95605001Y-96665661D01*
X95605001Y-96665661D02*
X95605001Y-108396544D01*
X95605001Y-108396544D02*
X95250000Y-108751545D01*
X95250000Y-108751545D02*
X95250000Y-114300000D01*
X146685000Y-69080002D02*
X146685000Y-63500000D01*
X145415000Y-72390000D02*
X145415000Y-70350002D01*
X145415000Y-70350002D02*
X146685000Y-69080002D01*
X88265000Y-135255000D02*
X87617300Y-134607300D01*
X87617300Y-134607300D02*
X87617300Y-133324600D01*
X91440000Y-135255000D02*
X88265000Y-135255000D01*
X106680000Y-134620000D02*
X106045000Y-135255000D01*
X106045000Y-135255000D02*
X96520000Y-135255000D01*
X106680000Y-133350000D02*
X106680000Y-134620000D01*
X126365000Y-135255000D02*
X125730000Y-134620000D01*
X125730000Y-134620000D02*
X125730000Y-133350000D01*
X129540000Y-135255000D02*
X126365000Y-135255000D01*
X144780000Y-134620000D02*
X144145000Y-135255000D01*
X144145000Y-135255000D02*
X134620000Y-135255000D01*
X144780000Y-133350000D02*
X144780000Y-134620000D01*
X125730000Y-114300000D02*
X127355001Y-115925001D01*
X127355001Y-115925001D02*
X127355001Y-127279999D01*
X127355001Y-127279999D02*
X126365000Y-128270000D01*
X126365000Y-128270000D02*
X126365000Y-129540000D01*
X144780000Y-114300000D02*
X146405001Y-115925001D01*
X146405001Y-115925001D02*
X146405001Y-127028663D01*
X146405001Y-127028663D02*
X145415000Y-128018664D01*
X145415000Y-128018664D02*
X145415000Y-129540000D01*
X144780000Y-76200000D02*
X146405001Y-77825001D01*
X146405001Y-77825001D02*
X146405001Y-88928663D01*
X146405001Y-88928663D02*
X145415000Y-89918664D01*
X145415000Y-89918664D02*
X145415000Y-91440000D01*
X127355001Y-96875001D02*
X127355001Y-107978663D01*
X127355001Y-107978663D02*
X126365000Y-108968664D01*
X126365000Y-108968664D02*
X126365000Y-110490000D01*
X144780000Y-95250000D02*
X146405001Y-96875001D01*
X145415000Y-109220000D02*
X145415000Y-110490000D01*
X146405001Y-96875001D02*
X146405001Y-108229999D01*
X146405001Y-108229999D02*
X145415000Y-109220000D01*
X125730000Y-95250000D02*
X127355001Y-96875001D01*
X125730000Y-76200000D02*
X127355001Y-77825001D01*
X127355001Y-77825001D02*
X127355001Y-88544999D01*
X127355001Y-88544999D02*
X126365000Y-89535000D01*
X126365000Y-89535000D02*
X126365000Y-91440000D01*
X106680000Y-76200000D02*
X108305001Y-77825001D01*
X108305001Y-77825001D02*
X108305001Y-89179999D01*
X108305001Y-89179999D02*
X107315000Y-90170000D01*
X107315000Y-90170000D02*
X107315000Y-91440000D01*
X106680000Y-95250000D02*
X108305001Y-96875001D01*
X108305001Y-96875001D02*
X108305001Y-108229999D01*
X108305001Y-108229999D02*
X107315000Y-109220000D01*
X107315000Y-109220000D02*
X107315000Y-110490000D01*
X106680000Y-114300000D02*
X108305001Y-115925001D01*
X108305001Y-126644999D02*
X107315000Y-127635000D01*
X108305001Y-115925001D02*
X108305001Y-126644999D01*
X107315000Y-127635000D02*
X107315000Y-129540000D01*
X87630000Y-114300000D02*
X89242301Y-115912301D01*
X89242301Y-115912301D02*
X89242301Y-127292699D01*
X89242301Y-127292699D02*
X88265000Y-128270000D01*
X88265000Y-128270000D02*
X88265000Y-129540000D01*
X87630000Y-95250000D02*
X89255001Y-96875001D01*
X89255001Y-96875001D02*
X89255001Y-108229999D01*
X89255001Y-108229999D02*
X88265000Y-109220000D01*
X88265000Y-109220000D02*
X88265000Y-110490000D01*
X87630000Y-76200000D02*
X89255001Y-77825001D01*
X89255001Y-77825001D02*
X89255001Y-89179999D01*
X88265000Y-90170000D02*
X88265000Y-91440000D01*
X89255001Y-89179999D02*
X88265000Y-90170000D01*
X153162000Y-61341000D02*
X149987000Y-61341000D01*
X149987000Y-61341000D02*
X149225000Y-62103000D01*
X149860000Y-74295000D02*
X149860000Y-76200000D01*
X149225000Y-62103000D02*
X149225000Y-67946410D01*
X149225000Y-67946410D02*
X150905091Y-69626501D01*
X150905091Y-69626501D02*
X150905091Y-72614909D01*
X149860000Y-73660000D02*
X149860000Y-74295000D01*
X150905091Y-72614909D02*
X149860000Y-73660000D01*
X130810000Y-95250000D02*
X130060001Y-95999999D01*
X130060001Y-95999999D02*
X130060001Y-96405001D01*
X130060001Y-96405001D02*
X130175000Y-96520000D01*
X130175000Y-96520000D02*
X130175000Y-106428664D01*
X130175000Y-106428664D02*
X131855091Y-108108755D01*
X131855091Y-108108755D02*
X131855091Y-110714909D01*
X131855091Y-110714909D02*
X130810000Y-111760000D01*
X130810000Y-111760000D02*
X130810000Y-114300000D01*
X111760000Y-95250000D02*
X111010001Y-95999999D01*
X111010001Y-95999999D02*
X111010001Y-98310001D01*
X111010001Y-98310001D02*
X111125000Y-98425000D01*
X111125000Y-98425000D02*
X111125000Y-106428664D01*
X113030000Y-108333664D02*
X113030000Y-110490000D01*
X111125000Y-106428664D02*
X113030000Y-108333664D01*
X111760000Y-111760000D02*
X111760000Y-114300000D01*
X113030000Y-110490000D02*
X111760000Y-111760000D01*
X92710000Y-95250000D02*
X91960001Y-95999999D01*
X92075000Y-97155000D02*
X92075000Y-106428664D01*
X91960001Y-95999999D02*
X91960001Y-97040001D01*
X92710000Y-111760000D02*
X92710000Y-114300000D01*
X91960001Y-97040001D02*
X92075000Y-97155000D01*
X92075000Y-106428664D02*
X93755091Y-108108755D01*
X93755091Y-108108755D02*
X93755091Y-110714909D01*
X93755091Y-110714909D02*
X92710000Y-111760000D01*
X93755091Y-91664909D02*
X92710000Y-92710000D01*
X92710000Y-92710000D02*
X92710000Y-95250000D01*
X92075000Y-86995000D02*
X92075000Y-87378664D01*
X92075000Y-87378664D02*
X93755091Y-89058755D01*
X93755091Y-89058755D02*
X93755091Y-91664909D01*
X112805091Y-91664909D02*
X111760000Y-92710000D01*
X111760000Y-92710000D02*
X111760000Y-95250000D01*
X111125000Y-86995000D02*
X111125000Y-87378664D01*
X111125000Y-87378664D02*
X112805091Y-89058755D01*
X112805091Y-89058755D02*
X112805091Y-91664909D01*
X130810000Y-76200000D02*
X130060001Y-76949999D01*
X131855091Y-89058755D02*
X131855091Y-91664909D01*
X130060001Y-76949999D02*
X130060001Y-77355001D01*
X130060001Y-77355001D02*
X130175000Y-77470000D01*
X130175000Y-87378664D02*
X131855091Y-89058755D01*
X131855091Y-91664909D02*
X130810000Y-92710000D01*
X130175000Y-77470000D02*
X130175000Y-87378664D01*
X130810000Y-92710000D02*
X130810000Y-95250000D01*
X92710000Y-136525000D02*
X92710000Y-133337300D01*
X92710000Y-133337300D02*
X92697300Y-133324600D01*
X111125000Y-137160000D02*
X95250000Y-137160000D01*
X111760000Y-136525000D02*
X111125000Y-137160000D01*
X111760000Y-133350000D02*
X111760000Y-136525000D01*
X92710000Y-114300000D02*
X91960001Y-115049999D01*
X91960001Y-115049999D02*
X91960001Y-118630001D01*
X91960001Y-118630001D02*
X92075000Y-118745000D01*
X92075000Y-118745000D02*
X92075000Y-125465964D01*
X92075000Y-125465964D02*
X93742391Y-127133355D01*
X93742391Y-129777609D02*
X92697300Y-130822700D01*
X93742391Y-127133355D02*
X93742391Y-129777609D01*
X92697300Y-130822700D02*
X92697300Y-133324600D01*
X111760000Y-114300000D02*
X111010001Y-115049999D01*
X112805091Y-127158755D02*
X112805091Y-129764909D01*
X111010001Y-115049999D02*
X111010001Y-115455001D01*
X111010001Y-115455001D02*
X111125000Y-115570000D01*
X111125000Y-115570000D02*
X111125000Y-125478664D01*
X111125000Y-125478664D02*
X112805091Y-127158755D01*
X112805091Y-129764909D02*
X111760000Y-130810000D01*
X111760000Y-130810000D02*
X111760000Y-133350000D01*
X130810000Y-136525000D02*
X130810000Y-133350000D01*
X149860000Y-136525000D02*
X149225000Y-137160000D01*
X149225000Y-137160000D02*
X133350000Y-137160000D01*
X149860000Y-133350000D02*
X149860000Y-136525000D01*
X130810000Y-114300000D02*
X130060001Y-115049999D01*
X130060001Y-115049999D02*
X130060001Y-115455001D01*
X130060001Y-115455001D02*
X130175000Y-115570000D01*
X130175000Y-115570000D02*
X130175000Y-125478664D01*
X130175000Y-125478664D02*
X131855091Y-127158755D01*
X131855091Y-127158755D02*
X131855091Y-129764909D01*
X131855091Y-129764909D02*
X130810000Y-130810000D01*
X130810000Y-130810000D02*
X130810000Y-133350000D01*
X149860000Y-114300000D02*
X149110001Y-115049999D01*
X149110001Y-115049999D02*
X149110001Y-115455001D01*
X149110001Y-115455001D02*
X149225000Y-115570000D01*
X149225000Y-115570000D02*
X149225000Y-125478664D01*
X149225000Y-125478664D02*
X150905091Y-127158755D01*
X150905091Y-127158755D02*
X150905091Y-129764909D01*
X150905091Y-129764909D02*
X149860000Y-130810000D01*
X149860000Y-130810000D02*
X149860000Y-133350000D01*
X149860000Y-76200000D02*
X149110001Y-76949999D01*
X149110001Y-76949999D02*
X149110001Y-77355001D01*
X149110001Y-77355001D02*
X149225000Y-77470000D01*
X149225000Y-77470000D02*
X149225000Y-87378664D01*
X149225000Y-87378664D02*
X150905091Y-89058755D01*
X150905091Y-89058755D02*
X150905091Y-91664909D01*
X150905091Y-91664909D02*
X149860000Y-92710000D01*
X149860000Y-92710000D02*
X149860000Y-95250000D01*
X149860000Y-95250000D02*
X149110001Y-95999999D01*
X149110001Y-95999999D02*
X149110001Y-97040001D01*
X149110001Y-97040001D02*
X149225000Y-97155000D01*
X149225000Y-97155000D02*
X149225000Y-106428664D01*
X149225000Y-106428664D02*
X150905091Y-108108755D01*
X150905091Y-108108755D02*
X150905091Y-110714909D01*
X150905091Y-110714909D02*
X149860000Y-111760000D01*
X149860000Y-111760000D02*
X149860000Y-114300000D01*
X111760000Y-76200000D02*
X111010001Y-76949999D01*
X111010001Y-76949999D02*
X111010001Y-86880001D01*
X111010001Y-86880001D02*
X111125000Y-86995000D01*
X92710000Y-76200000D02*
X91960001Y-76949999D01*
X91960001Y-76949999D02*
X91960001Y-86880001D01*
X91960001Y-86880001D02*
X92075000Y-86995000D01*
X84697300Y-121894600D02*
X84697300Y-128333055D01*
X84697300Y-128333055D02*
X88938846Y-132574601D01*
X88938846Y-132574601D02*
X89407301Y-132574601D01*
X89407301Y-132574601D02*
X90157300Y-133324600D01*
X81280000Y-119380000D02*
X83794600Y-121894600D01*
X83794600Y-121894600D02*
X84697300Y-121894600D01*
X81280000Y-59690000D02*
X81280000Y-119380000D01*
X88900000Y-52070000D02*
X81280000Y-59690000D01*
X84697300Y-121894600D02*
X84697300Y-121744600D01*
X84442300Y-122149600D02*
X84697300Y-121894600D01*
X84710000Y-102870000D02*
X84710000Y-109308455D01*
X84710000Y-109308455D02*
X88951546Y-113550001D01*
X88951546Y-113550001D02*
X89420001Y-113550001D01*
X89420001Y-113550001D02*
X90170000Y-114300000D01*
X81915000Y-100965000D02*
X83820000Y-102870000D01*
X83820000Y-102870000D02*
X84710000Y-102870000D01*
X81915000Y-60325000D02*
X81915000Y-100965000D01*
X90170000Y-52070000D02*
X81915000Y-60325000D01*
X84455000Y-103125000D02*
X84710000Y-102870000D01*
X84710000Y-83820000D02*
X84710000Y-90258455D01*
X84710000Y-90258455D02*
X88951546Y-94500001D01*
X88951546Y-94500001D02*
X89420001Y-94500001D01*
X89420001Y-94500001D02*
X90170000Y-95250000D01*
X91440000Y-52070000D02*
X82550000Y-60960000D01*
X82550000Y-60960000D02*
X82550000Y-82550000D01*
X83820000Y-83820000D02*
X84710000Y-83820000D01*
X82550000Y-82550000D02*
X83820000Y-83820000D01*
X84710000Y-83820000D02*
X84710000Y-83670000D01*
X84455000Y-84075000D02*
X84710000Y-83820000D01*
X84710000Y-64770000D02*
X84710000Y-71208455D01*
X84710000Y-71208455D02*
X88951546Y-75450001D01*
X88951546Y-75450001D02*
X89420001Y-75450001D01*
X89420001Y-75450001D02*
X90170000Y-76200000D01*
X92710000Y-52070000D02*
X83185000Y-61595000D01*
X83185000Y-61595000D02*
X83185000Y-64135000D01*
X83185000Y-64135000D02*
X83820000Y-64770000D01*
X83820000Y-64770000D02*
X84710000Y-64770000D01*
X84455000Y-65025000D02*
X84710000Y-64770000D01*
X103760000Y-121920000D02*
X103760000Y-128358455D01*
X103760000Y-128358455D02*
X108001546Y-132600001D01*
X108001546Y-132600001D02*
X108470001Y-132600001D01*
X108470001Y-132600001D02*
X109220000Y-133350000D01*
X100330000Y-119380000D02*
X102870000Y-121920000D01*
X102870000Y-121920000D02*
X103760000Y-121920000D01*
X100330000Y-60964230D02*
X100330000Y-119380000D01*
X97790000Y-53340000D02*
X97790000Y-58424230D01*
X97790000Y-58424230D02*
X100330000Y-60964230D01*
X103505000Y-122175000D02*
X103760000Y-121920000D01*
X103760000Y-102870000D02*
X103760000Y-109308455D01*
X103760000Y-109308455D02*
X108001546Y-113550001D01*
X108001546Y-113550001D02*
X108470001Y-113550001D01*
X108470001Y-113550001D02*
X109220000Y-114300000D01*
X99060000Y-53340000D02*
X99060000Y-59057820D01*
X99060000Y-59057820D02*
X100965000Y-60962820D01*
X100965000Y-60962820D02*
X100965000Y-102235000D01*
X100965000Y-102235000D02*
X101600000Y-102870000D01*
X101600000Y-102870000D02*
X103760000Y-102870000D01*
X103505000Y-103125000D02*
X103760000Y-102870000D01*
X103760000Y-83820000D02*
X103760000Y-90258455D01*
X103760000Y-90258455D02*
X108001546Y-94500001D01*
X108001546Y-94500001D02*
X108470001Y-94500001D01*
X108470001Y-94500001D02*
X109220000Y-95250000D01*
X101600000Y-82550000D02*
X102870000Y-83820000D01*
X102870000Y-83820000D02*
X103760000Y-83820000D01*
X101600000Y-60961410D02*
X101600000Y-82550000D01*
X100330000Y-53340000D02*
X100330000Y-59691410D01*
X100330000Y-59691410D02*
X101600000Y-60961410D01*
X103505000Y-84075000D02*
X103760000Y-83820000D01*
X103760000Y-64770000D02*
X103760000Y-71208455D01*
X103760000Y-71208455D02*
X108001546Y-75450001D01*
X108001546Y-75450001D02*
X108470001Y-75450001D01*
X108470001Y-75450001D02*
X109220000Y-76200000D01*
X102235000Y-64135000D02*
X102870000Y-64770000D01*
X102870000Y-64770000D02*
X103760000Y-64770000D01*
X102235000Y-60960000D02*
X102235000Y-64135000D01*
X101600000Y-60325000D02*
X102235000Y-60960000D01*
X101600000Y-53340000D02*
X101600000Y-60325000D01*
X103505000Y-65025000D02*
X103760000Y-64770000D01*
X122810000Y-121920000D02*
X122810000Y-128358455D01*
X127051546Y-132600001D02*
X127520001Y-132600001D01*
X122810000Y-128358455D02*
X127051546Y-132600001D01*
X127520001Y-132600001D02*
X128270000Y-133350000D01*
X119380000Y-120650000D02*
X120650000Y-121920000D01*
X120650000Y-121920000D02*
X122810000Y-121920000D01*
X119380000Y-63500000D02*
X119380000Y-120650000D01*
X118745000Y-62865000D02*
X119380000Y-63500000D01*
X107950000Y-62865000D02*
X118745000Y-62865000D01*
X106680000Y-61595000D02*
X107950000Y-62865000D01*
X106680000Y-54610000D02*
X106680000Y-61595000D01*
X122810000Y-121920000D02*
X122810000Y-121770000D01*
X122555000Y-122175000D02*
X122810000Y-121920000D01*
X122810000Y-102870000D02*
X122810000Y-109308455D01*
X122810000Y-109308455D02*
X127051546Y-113550001D01*
X127051546Y-113550001D02*
X127520001Y-113550001D01*
X127520001Y-113550001D02*
X128270000Y-114300000D01*
X107950000Y-54610000D02*
X107950000Y-60960000D01*
X107950000Y-60960000D02*
X109220000Y-62230000D01*
X120015000Y-62865000D02*
X120015000Y-102235000D01*
X109220000Y-62230000D02*
X119380000Y-62230000D01*
X119380000Y-62230000D02*
X120015000Y-62865000D01*
X120015000Y-102235000D02*
X120650000Y-102870000D01*
X120650000Y-102870000D02*
X122810000Y-102870000D01*
X122810000Y-102870000D02*
X122810000Y-102720000D01*
X122555000Y-103125000D02*
X122810000Y-102870000D01*
X122810000Y-83820000D02*
X122810000Y-90258455D01*
X127051546Y-94500001D02*
X127520001Y-94500001D01*
X122810000Y-90258455D02*
X127051546Y-94500001D01*
X127520001Y-94500001D02*
X128270000Y-95250000D01*
X109220000Y-54610000D02*
X109220000Y-60325000D01*
X109220000Y-60325000D02*
X110490000Y-61595000D01*
X110490000Y-61595000D02*
X120013590Y-61595000D01*
X120013590Y-61595000D02*
X120650000Y-62231410D01*
X120650000Y-62231410D02*
X120650000Y-83185000D01*
X120650000Y-83185000D02*
X121285000Y-83820000D01*
X121285000Y-83820000D02*
X122810000Y-83820000D01*
X122810000Y-83820000D02*
X122810000Y-83670000D01*
X122555000Y-84075000D02*
X122810000Y-83820000D01*
X122810000Y-64770000D02*
X122810000Y-71208455D01*
X122810000Y-71208455D02*
X127051546Y-75450001D01*
X127051546Y-75450001D02*
X127520001Y-75450001D01*
X127520001Y-75450001D02*
X128270000Y-76200000D01*
X110490000Y-54610000D02*
X110490000Y-59690000D01*
X110490000Y-59690000D02*
X111760000Y-60960000D01*
X111760000Y-60960000D02*
X120015000Y-60960000D01*
X120015000Y-60960000D02*
X121285000Y-62230000D01*
X121285000Y-64135000D02*
X121920000Y-64770000D01*
X121285000Y-62230000D02*
X121285000Y-64135000D01*
X121920000Y-64770000D02*
X122810000Y-64770000D01*
X122810000Y-64770000D02*
X122810000Y-64620000D01*
X122555000Y-65025000D02*
X122810000Y-64770000D01*
X141860000Y-121920000D02*
X141860000Y-128358455D01*
X141860000Y-128358455D02*
X146101546Y-132600001D01*
X146101546Y-132600001D02*
X146570001Y-132600001D01*
X146570001Y-132600001D02*
X147320000Y-133350000D01*
X111760000Y-57150000D02*
X111760000Y-59690000D01*
X111760000Y-59690000D02*
X112395000Y-60325000D01*
X112395000Y-60325000D02*
X137795000Y-60325000D01*
X137795000Y-60325000D02*
X138430000Y-60960000D01*
X138430000Y-60960000D02*
X138430000Y-120650000D01*
X138430000Y-120650000D02*
X139700000Y-121920000D01*
X139700000Y-121920000D02*
X141860000Y-121920000D01*
X141605000Y-122175000D02*
X141860000Y-121920000D01*
X141860000Y-102870000D02*
X141860000Y-109308455D01*
X141860000Y-109308455D02*
X146101546Y-113550001D01*
X146101546Y-113550001D02*
X146570001Y-113550001D01*
X146570001Y-113550001D02*
X147320000Y-114300000D01*
X141860000Y-102870000D02*
X139700000Y-102870000D01*
X138430000Y-59690000D02*
X113665000Y-59690000D01*
X139700000Y-102870000D02*
X139065000Y-102235000D01*
X139065000Y-102235000D02*
X139065000Y-60325000D01*
X139065000Y-60325000D02*
X138430000Y-59690000D01*
X113665000Y-59690000D02*
X113030000Y-59055000D01*
X113030000Y-59055000D02*
X113030000Y-57150000D01*
X141605000Y-103125000D02*
X141860000Y-102870000D01*
X141860000Y-83820000D02*
X141860000Y-90258455D01*
X141860000Y-90258455D02*
X146101546Y-94500001D01*
X146101546Y-94500001D02*
X146570001Y-94500001D01*
X146570001Y-94500001D02*
X147320000Y-95250000D01*
X141860000Y-83820000D02*
X140970000Y-83820000D01*
X140970000Y-83820000D02*
X139700000Y-82550000D01*
X114935000Y-59055000D02*
X114300000Y-58420000D01*
X139700000Y-82550000D02*
X139700000Y-59691410D01*
X139700000Y-59691410D02*
X139063590Y-59055000D01*
X139063590Y-59055000D02*
X114935000Y-59055000D01*
X114300000Y-58420000D02*
X114300000Y-57150000D01*
X141605000Y-84075000D02*
X141860000Y-83820000D01*
X141860000Y-64770000D02*
X141860000Y-71208455D01*
X141860000Y-71208455D02*
X146101546Y-75450001D01*
X146101546Y-75450001D02*
X146570001Y-75450001D01*
X146570001Y-75450001D02*
X147320000Y-76200000D01*
X115570000Y-57150000D02*
X115570000Y-57785000D01*
X115570000Y-57785000D02*
X116205000Y-58420000D01*
X116205000Y-58420000D02*
X139065000Y-58420000D01*
X140335000Y-64135000D02*
X140970000Y-64770000D01*
X139065000Y-58420000D02*
X140335000Y-59690000D01*
X140970000Y-64770000D02*
X141860000Y-64770000D01*
X140335000Y-59690000D02*
X140335000Y-64135000D01*
X141605000Y-65025000D02*
X141860000Y-64770000D01*
X87997300Y-121894600D02*
X87997300Y-125324600D01*
X87997300Y-125324600D02*
X87617300Y-125704600D01*
X88010000Y-102870000D02*
X88010000Y-106300000D01*
X88010000Y-106300000D02*
X87630000Y-106680000D01*
X88010000Y-83820000D02*
X88010000Y-87250000D01*
X88010000Y-87250000D02*
X87630000Y-87630000D01*
X88010000Y-64770000D02*
X88010000Y-68200000D01*
X88010000Y-68200000D02*
X87630000Y-68580000D01*
X107060000Y-121920000D02*
X107060000Y-125350000D01*
X107060000Y-125350000D02*
X106680000Y-125730000D01*
X107060000Y-102870000D02*
X107060000Y-106300000D01*
X107060000Y-106300000D02*
X106680000Y-106680000D01*
X107060000Y-83820000D02*
X107060000Y-87250000D01*
X107060000Y-87250000D02*
X106680000Y-87630000D01*
X107060000Y-64770000D02*
X107060000Y-68200000D01*
X107060000Y-68200000D02*
X106680000Y-68580000D01*
X126110000Y-121920000D02*
X126110000Y-125350000D01*
X126110000Y-125350000D02*
X125730000Y-125730000D01*
X126110000Y-102870000D02*
X126110000Y-106300000D01*
X126110000Y-106300000D02*
X125730000Y-106680000D01*
X126110000Y-83820000D02*
X126110000Y-87250000D01*
X126110000Y-87250000D02*
X125730000Y-87630000D01*
X126110000Y-64770000D02*
X126110000Y-68200000D01*
X126110000Y-68200000D02*
X125730000Y-68580000D01*
X145160000Y-121920000D02*
X145160000Y-125350000D01*
X145160000Y-125350000D02*
X144780000Y-125730000D01*
X145160000Y-102870000D02*
X145160000Y-106300000D01*
X145160000Y-106300000D02*
X144780000Y-106680000D01*
X145160000Y-83820000D02*
X145160000Y-87250000D01*
X145160000Y-87250000D02*
X144780000Y-87630000D01*
X145160000Y-64770000D02*
X145160000Y-68200000D01*
X145160000Y-68200000D02*
X144780000Y-68580000D01*
X151638000Y-62357000D02*
X151130000Y-62865000D01*
X151130000Y-62865000D02*
X151130000Y-63500000D01*
X153162000Y-62357000D02*
X151638000Y-62357000D01*
X151130000Y-66040000D02*
X151130000Y-63500000D01*
X93980000Y-104140000D02*
X93980000Y-107315000D01*
X93980000Y-107315000D02*
X94615000Y-107950000D01*
X94615000Y-107950000D02*
X94615000Y-111125000D01*
X93967300Y-111772700D02*
X93967300Y-123164600D01*
X94615000Y-111125000D02*
X93967300Y-111772700D01*
X113030000Y-111760000D02*
X113030000Y-123190000D01*
X113665000Y-111125000D02*
X113030000Y-111760000D01*
X113665000Y-107950000D02*
X113665000Y-111125000D01*
X113030000Y-107315000D02*
X113665000Y-107950000D01*
X113030000Y-104140000D02*
X113030000Y-107315000D01*
X93980000Y-85090000D02*
X93980000Y-88265000D01*
X94615000Y-88900000D02*
X94615000Y-92075000D01*
X93980000Y-88265000D02*
X94615000Y-88900000D01*
X94615000Y-92075000D02*
X93980000Y-92710000D01*
X93980000Y-92710000D02*
X93980000Y-104140000D01*
X113030000Y-92710000D02*
X113030000Y-104140000D01*
X113665000Y-92075000D02*
X113030000Y-92710000D01*
X113665000Y-88900000D02*
X113665000Y-92075000D01*
X113030000Y-88265000D02*
X113665000Y-88900000D01*
X113030000Y-85090000D02*
X113030000Y-88265000D01*
X132080000Y-85090000D02*
X132080000Y-88265000D01*
X132080000Y-88265000D02*
X132715000Y-88900000D01*
X132715000Y-88900000D02*
X132715000Y-92075000D01*
X132715000Y-92075000D02*
X132080000Y-92710000D01*
X132080000Y-92710000D02*
X132080000Y-104140000D01*
X93980000Y-73660000D02*
X93980000Y-85090000D01*
X94615000Y-73025000D02*
X93980000Y-73660000D01*
X94615000Y-69850000D02*
X94615000Y-73025000D01*
X93980000Y-69215000D02*
X94615000Y-69850000D01*
X93980000Y-66040000D02*
X93980000Y-69215000D01*
X113030000Y-73660000D02*
X113030000Y-85090000D01*
X113665000Y-73025000D02*
X113030000Y-73660000D01*
X113665000Y-69850000D02*
X113665000Y-73025000D01*
X113030000Y-69215000D02*
X113665000Y-69850000D01*
X113030000Y-66040000D02*
X113030000Y-69215000D01*
X132080000Y-73660000D02*
X132080000Y-85090000D01*
X132715000Y-73025000D02*
X132080000Y-73660000D01*
X132715000Y-69850000D02*
X132715000Y-73025000D01*
X132080000Y-69215000D02*
X132715000Y-69850000D01*
X132080000Y-66040000D02*
X132080000Y-69215000D01*
X132080000Y-111760000D02*
X132080000Y-123190000D01*
X132715000Y-111125000D02*
X132080000Y-111760000D01*
X132715000Y-107950000D02*
X132715000Y-111125000D01*
X132080000Y-107315000D02*
X132715000Y-107950000D01*
X132080000Y-104140000D02*
X132080000Y-107315000D01*
X93980000Y-130810000D02*
X93980000Y-137160000D01*
X94615000Y-137795000D02*
X93980000Y-137160000D01*
X112395000Y-137795000D02*
X94615000Y-137795000D01*
X113030000Y-137160000D02*
X112395000Y-137795000D01*
X113030000Y-130810000D02*
X113030000Y-137160000D01*
X94615000Y-130175000D02*
X93980000Y-130810000D01*
X94615000Y-127000000D02*
X94615000Y-130175000D01*
X93967300Y-126352300D02*
X94615000Y-127000000D01*
X93967300Y-123164600D02*
X93967300Y-126352300D01*
X113665000Y-130175000D02*
X113030000Y-130810000D01*
X113665000Y-127000000D02*
X113665000Y-130175000D01*
X113030000Y-126365000D02*
X113665000Y-127000000D01*
X113030000Y-123190000D02*
X113030000Y-126365000D01*
X132715000Y-127000000D02*
X132080000Y-126365000D01*
X132080000Y-126365000D02*
X132080000Y-123190000D01*
X132715000Y-130175000D02*
X132715000Y-127000000D01*
X132080000Y-130810000D02*
X132715000Y-130175000D01*
X132080000Y-137160000D02*
X132080000Y-130810000D01*
X132715000Y-137795000D02*
X132080000Y-137160000D01*
X150495000Y-137795000D02*
X132715000Y-137795000D01*
X151130000Y-137160000D02*
X150495000Y-137795000D01*
X151130000Y-130810000D02*
X151130000Y-137160000D01*
X151765000Y-130175000D02*
X151130000Y-130810000D01*
X151765000Y-127000000D02*
X151765000Y-130175000D01*
X151130000Y-126365000D02*
X151765000Y-127000000D01*
X151130000Y-123190000D02*
X151130000Y-126365000D01*
X151130000Y-73660000D02*
X151130000Y-85090000D01*
X151765000Y-73025000D02*
X151130000Y-73660000D01*
X151765000Y-69850000D02*
X151765000Y-73025000D01*
X151130000Y-69215000D02*
X151765000Y-69850000D01*
X151130000Y-66040000D02*
X151130000Y-69215000D01*
X151130000Y-92710000D02*
X151130000Y-104140000D01*
X151765000Y-92075000D02*
X151130000Y-92710000D01*
X151765000Y-88900000D02*
X151765000Y-92075000D01*
X151130000Y-88265000D02*
X151765000Y-88900000D01*
X151130000Y-85090000D02*
X151130000Y-88265000D01*
X151130000Y-111760000D02*
X151130000Y-123190000D01*
X151765000Y-111125000D02*
X151130000Y-111760000D01*
X151765000Y-107950000D02*
X151765000Y-111125000D01*
X151130000Y-107315000D02*
X151765000Y-107950000D01*
X151130000Y-104140000D02*
X151130000Y-107315000D01*
X93980000Y-123151900D02*
X93967300Y-123164600D01*
X162693519Y-59727179D02*
X162693519Y-61588481D01*
X162693519Y-61588481D02*
X162687000Y-61595000D01*
X121269760Y-51893179D02*
X122047000Y-51115939D01*
X120529519Y-51893179D02*
X121269760Y-51893179D01*
X120529519Y-43511179D02*
X120529519Y-41789519D01*
X120529519Y-41789519D02*
X120523000Y-41783000D01*
X148640800Y-44272200D02*
X152882600Y-44272200D01*
X152882600Y-44272200D02*
X153314400Y-44704000D01*
X119253000Y-53294698D02*
X119253000Y-56261000D01*
X119253000Y-56261000D02*
X120523000Y-57531000D01*
X120529519Y-52018179D02*
X119253000Y-53294698D01*
X77315275Y-51775929D02*
X86984071Y-51775929D01*
X86984071Y-51775929D02*
X92904500Y-45855500D01*
X92904500Y-45855500D02*
X92904500Y-45530000D01*
X92904500Y-45530000D02*
X93654500Y-44780000D01*
X93654500Y-44780000D02*
X93980000Y-44780000D01*
X77343000Y-64770000D02*
X77343000Y-100457000D01*
X77343000Y-100457000D02*
X73660000Y-104140000D01*
X77315275Y-51775929D02*
X77315275Y-60932275D01*
X77315275Y-60932275D02*
X77343000Y-60960000D01*
X137795000Y-46752000D02*
X137795000Y-45371956D01*
X136779000Y-48768000D02*
X136779000Y-47768000D01*
X136779000Y-47768000D02*
X137795000Y-46752000D01*
X136612000Y-54229000D02*
X136737000Y-54229000D01*
X162693519Y-57227179D02*
X162693519Y-55505519D01*
X162693519Y-55505519D02*
X162687000Y-55499000D01*
X120529519Y-46011179D02*
X120529519Y-46615519D01*
X120529519Y-46615519D02*
X121539000Y-47625000D01*
X120529519Y-54393179D02*
X120529519Y-56140519D01*
X120529519Y-56140519D02*
X121158000Y-56769000D01*
X87909400Y-49707800D02*
X78458402Y-49707800D01*
X78458402Y-49707800D02*
X74853800Y-53312402D01*
X74853800Y-53312402D02*
X74853800Y-55499000D01*
X91516200Y-46101000D02*
X87909400Y-49707800D01*
X91516200Y-42595800D02*
X91516200Y-46101000D01*
X79375000Y-101219000D02*
X79375000Y-121539599D01*
X79375000Y-98171000D02*
X79375000Y-101219000D01*
X169164000Y-52070000D02*
X169545000Y-52451000D01*
X169545000Y-52451000D02*
X169545000Y-56769000D01*
X169035357Y-52070000D02*
X169164000Y-52070000D01*
X143936999Y-56850001D02*
X146177000Y-54610000D01*
X146177000Y-54610000D02*
X149987000Y-54610000D01*
X143637000Y-57150000D02*
X143936999Y-56850001D01*
X166370000Y-52070000D02*
X169035357Y-52070000D01*
X165989000Y-48768000D02*
X165735000Y-48768000D01*
X165735000Y-48768000D02*
X163830000Y-50673000D01*
X166961736Y-48768000D02*
X165989000Y-48768000D01*
X167386000Y-48768000D02*
X166961736Y-48768000D01*
X167386000Y-47371000D02*
X165862000Y-47371000D01*
X165862000Y-47371000D02*
X163830000Y-49403000D01*
X169418000Y-57951136D02*
X169418000Y-116332000D01*
X169418000Y-116332000D02*
X166370000Y-119380000D01*
X154551865Y-43085001D02*
X169418000Y-57951136D01*
X139478001Y-43085001D02*
X154551865Y-43085001D01*
X119478700Y-49022000D02*
X117349772Y-51150928D01*
X130810000Y-49022000D02*
X119478700Y-49022000D01*
X71247000Y-68797998D02*
X71247000Y-116967000D01*
X71247000Y-116967000D02*
X73660000Y-119380000D01*
X88894070Y-51150928D02*
X71247000Y-68797998D01*
X117349772Y-51150928D02*
X88894070Y-51150928D01*
X130048000Y-44323000D02*
X130347999Y-44023001D01*
X130347999Y-44023001D02*
X135717001Y-44023001D01*
X135717001Y-44023001D02*
X136612000Y-44918000D01*
X136612000Y-44918000D02*
X136612000Y-45847000D01*
X141859000Y-57912000D02*
X143637000Y-56134000D01*
X143637000Y-56134000D02*
X145786001Y-53984999D01*
X143129000Y-55499000D02*
X143637000Y-56007000D01*
X143637000Y-56007000D02*
X143637000Y-56134000D01*
X130810000Y-51927000D02*
X130810000Y-50038000D01*
X134112000Y-54229000D02*
X133112000Y-54229000D01*
X133112000Y-54229000D02*
X130810000Y-51927000D01*
X131880000Y-50038000D02*
X130810000Y-50038000D01*
X130810000Y-50038000D02*
X125730000Y-50038000D01*
X125730000Y-50038000D02*
X120314999Y-50038000D01*
X120314999Y-50038000D02*
X120015000Y-49738001D01*
X145786001Y-53984999D02*
X151859703Y-53984999D01*
X151859703Y-53984999D02*
X155393283Y-50451419D01*
X155393283Y-50451419D02*
X156243282Y-49601420D01*
X133350000Y-57912000D02*
X141859000Y-57912000D01*
X125730000Y-50038000D02*
X125730000Y-50292000D01*
X125730000Y-50292000D02*
X133350000Y-57912000D01*
X133985000Y-48808000D02*
X133110000Y-48808000D01*
X133110000Y-48808000D02*
X131880000Y-50038000D01*
X155068281Y-48426419D02*
X144653000Y-48426419D01*
X144653000Y-48426419D02*
X140495581Y-48426419D01*
X137736971Y-44298614D02*
X137796287Y-44239298D01*
X137796287Y-44239298D02*
X140465879Y-44239298D01*
X140465879Y-44239298D02*
X144653000Y-48426419D01*
X156243282Y-49601420D02*
X155068281Y-48426419D01*
X140495581Y-48426419D02*
X137654000Y-51268000D01*
X137654000Y-51268000D02*
X136779000Y-51268000D01*
X133985000Y-48808000D02*
X133985000Y-48683000D01*
X134112000Y-54229000D02*
X134112000Y-54711811D01*
X136612000Y-45847000D02*
X136612000Y-45423585D01*
X136612000Y-45423585D02*
X137736971Y-44298614D01*
D22*
G36*
X168658000Y-58265938D02*
X168658000Y-116017198D01*
X167875981Y-116799217D01*
X167771054Y-116271715D01*
X167449147Y-115789946D01*
X167119974Y-115570000D01*
X167449147Y-115350054D01*
X167771054Y-114868285D01*
X167884093Y-114300000D01*
X167771054Y-113731715D01*
X167449147Y-113249946D01*
X167119974Y-113030000D01*
X167449147Y-112810054D01*
X167771054Y-112328285D01*
X167884093Y-111760000D01*
X167771054Y-111191715D01*
X167449147Y-110709946D01*
X167119974Y-110490000D01*
X167449147Y-110270054D01*
X167771054Y-109788285D01*
X167884093Y-109220000D01*
X167771054Y-108651715D01*
X167449147Y-108169946D01*
X167119974Y-107950000D01*
X167449147Y-107730054D01*
X167771054Y-107248285D01*
X167884093Y-106680000D01*
X167771054Y-106111715D01*
X167449147Y-105629946D01*
X167108447Y-105402298D01*
X167251358Y-105335183D01*
X167641645Y-104906924D01*
X167811476Y-104496890D01*
X167690155Y-104267000D01*
X166497000Y-104267000D01*
X166497000Y-104287000D01*
X166243000Y-104287000D01*
X166243000Y-104267000D01*
X165049845Y-104267000D01*
X164928524Y-104496890D01*
X165098355Y-104906924D01*
X165488642Y-105335183D01*
X165631553Y-105402298D01*
X165290853Y-105629946D01*
X164968946Y-106111715D01*
X164855907Y-106680000D01*
X164968946Y-107248285D01*
X165290853Y-107730054D01*
X165620026Y-107950000D01*
X165290853Y-108169946D01*
X164968946Y-108651715D01*
X164855907Y-109220000D01*
X164968946Y-109788285D01*
X165290853Y-110270054D01*
X165620026Y-110490000D01*
X165290853Y-110709946D01*
X164968946Y-111191715D01*
X164855907Y-111760000D01*
X164968946Y-112328285D01*
X165290853Y-112810054D01*
X165620026Y-113030000D01*
X165290853Y-113249946D01*
X164968946Y-113731715D01*
X164855907Y-114300000D01*
X164968946Y-114868285D01*
X165290853Y-115350054D01*
X165620026Y-115570000D01*
X165290853Y-115789946D01*
X164968946Y-116271715D01*
X164855907Y-116840000D01*
X164968946Y-117408285D01*
X165290853Y-117890054D01*
X165620026Y-118110000D01*
X165290853Y-118329946D01*
X164968946Y-118811715D01*
X164855907Y-119380000D01*
X164968946Y-119948285D01*
X165290853Y-120430054D01*
X165620026Y-120650000D01*
X165290853Y-120869946D01*
X164968946Y-121351715D01*
X164855907Y-121920000D01*
X164968946Y-122488285D01*
X165290853Y-122970054D01*
X165772622Y-123291961D01*
X166340907Y-123405000D01*
X166399093Y-123405000D01*
X166967378Y-123291961D01*
X167449147Y-122970054D01*
X167771054Y-122488285D01*
X167884093Y-121920000D01*
X167771054Y-121351715D01*
X167449147Y-120869946D01*
X167119974Y-120650000D01*
X167449147Y-120430054D01*
X167771054Y-119948285D01*
X167884093Y-119380000D01*
X167811210Y-119013592D01*
X169290000Y-117534802D01*
X169290000Y-138090000D01*
X151274802Y-138090000D01*
X151667401Y-137697401D01*
X151832148Y-137450839D01*
X151890000Y-137160000D01*
X151890000Y-136690633D01*
X152213201Y-136824838D01*
X152585167Y-136825162D01*
X152928943Y-136683117D01*
X153192192Y-136420327D01*
X153334838Y-136076799D01*
X153335162Y-135704833D01*
X153193117Y-135361057D01*
X153160000Y-135327882D01*
X153160000Y-135062619D01*
X162864613Y-135062619D01*
X163204155Y-135884372D01*
X163832321Y-136513636D01*
X164653481Y-136854611D01*
X165542619Y-136855387D01*
X166364372Y-136515845D01*
X166993636Y-135887679D01*
X167334611Y-135066519D01*
X167335387Y-134177381D01*
X166995845Y-133355628D01*
X166367679Y-132726364D01*
X165546519Y-132385389D01*
X164657381Y-132384613D01*
X163835628Y-132724155D01*
X163206364Y-133352321D01*
X162865389Y-134173481D01*
X162864613Y-135062619D01*
X153160000Y-135062619D01*
X153160000Y-134534547D01*
X153183515Y-134524831D01*
X153573461Y-134135564D01*
X153784759Y-133626702D01*
X153785240Y-133075715D01*
X153574831Y-132566485D01*
X153185564Y-132176539D01*
X153160000Y-132165924D01*
X153160000Y-129665763D01*
X153373393Y-129754372D01*
X153964016Y-129754888D01*
X154509877Y-129529342D01*
X154927874Y-129112074D01*
X155154372Y-128566607D01*
X155154888Y-127975984D01*
X154929342Y-127430123D01*
X154512074Y-127012126D01*
X153966607Y-126785628D01*
X153515001Y-126785233D01*
X153515001Y-122409999D01*
X153481533Y-122241747D01*
X153457149Y-122119159D01*
X153292402Y-121872598D01*
X153160000Y-121740196D01*
X153160000Y-115484547D01*
X153183515Y-115474831D01*
X153573461Y-115085564D01*
X153784759Y-114576702D01*
X153785240Y-114025715D01*
X153574831Y-113516485D01*
X153185564Y-113126539D01*
X153160000Y-113115924D01*
X153160000Y-110615763D01*
X153373393Y-110704372D01*
X153964016Y-110704888D01*
X154509877Y-110479342D01*
X154927874Y-110062074D01*
X155154372Y-109516607D01*
X155154888Y-108925984D01*
X154929342Y-108380123D01*
X154512074Y-107962126D01*
X153966607Y-107735628D01*
X153515001Y-107735233D01*
X153515001Y-103359999D01*
X153502238Y-103295837D01*
X153457149Y-103069159D01*
X153292402Y-102822598D01*
X153160000Y-102690196D01*
X153160000Y-100750000D01*
X164872560Y-100750000D01*
X164872560Y-102450000D01*
X164916838Y-102685317D01*
X165055910Y-102901441D01*
X165268110Y-103046431D01*
X165376107Y-103068301D01*
X165098355Y-103373076D01*
X164928524Y-103783110D01*
X165049845Y-104013000D01*
X166243000Y-104013000D01*
X166243000Y-103993000D01*
X166497000Y-103993000D01*
X166497000Y-104013000D01*
X167690155Y-104013000D01*
X167811476Y-103783110D01*
X167641645Y-103373076D01*
X167365499Y-103070063D01*
X167455317Y-103053162D01*
X167671441Y-102914090D01*
X167816431Y-102701890D01*
X167867440Y-102450000D01*
X167867440Y-100750000D01*
X167823162Y-100514683D01*
X167684090Y-100298559D01*
X167471890Y-100153569D01*
X167220000Y-100102560D01*
X165520000Y-100102560D01*
X165284683Y-100146838D01*
X165068559Y-100285910D01*
X164923569Y-100498110D01*
X164872560Y-100750000D01*
X153160000Y-100750000D01*
X153160000Y-96434547D01*
X153183515Y-96424831D01*
X153573461Y-96035564D01*
X153784759Y-95526702D01*
X153785240Y-94975715D01*
X153574831Y-94466485D01*
X153185564Y-94076539D01*
X153160000Y-94065924D01*
X153160000Y-91565763D01*
X153373393Y-91654372D01*
X153964016Y-91654888D01*
X154509877Y-91429342D01*
X154927874Y-91012074D01*
X155154372Y-90466607D01*
X155154888Y-89875984D01*
X154929342Y-89330123D01*
X154512074Y-88912126D01*
X153966607Y-88685628D01*
X153515001Y-88685233D01*
X153515001Y-84309999D01*
X153502238Y-84245837D01*
X153457149Y-84019159D01*
X153292402Y-83772598D01*
X153160000Y-83640196D01*
X153160000Y-77384547D01*
X153183515Y-77374831D01*
X153573461Y-76985564D01*
X153784759Y-76476702D01*
X153785240Y-75925715D01*
X153574831Y-75416485D01*
X153185564Y-75026539D01*
X153160000Y-75015924D01*
X153160000Y-72515763D01*
X153373393Y-72604372D01*
X153964016Y-72604888D01*
X154509877Y-72379342D01*
X154927874Y-71962074D01*
X155154372Y-71416607D01*
X155154888Y-70825984D01*
X154929342Y-70280123D01*
X154512074Y-69862126D01*
X153966607Y-69635628D01*
X153515001Y-69635233D01*
X153515001Y-65125001D01*
X153457149Y-64834161D01*
X153292402Y-64587600D01*
X153160000Y-64455198D01*
X153160000Y-64062463D01*
X153192192Y-64030327D01*
X153334838Y-63686799D01*
X153335162Y-63314833D01*
X153325787Y-63292143D01*
X153347167Y-63292162D01*
X153690943Y-63150117D01*
X153954192Y-62887327D01*
X154096838Y-62543799D01*
X154097162Y-62171833D01*
X153963617Y-61848629D01*
X154096838Y-61527799D01*
X154097162Y-61155833D01*
X153955117Y-60812057D01*
X153692327Y-60548808D01*
X153348799Y-60406162D01*
X152976833Y-60405838D01*
X152633057Y-60547883D01*
X152599882Y-60581000D01*
X149987000Y-60581000D01*
X149696161Y-60638852D01*
X149449599Y-60803599D01*
X148687599Y-61565599D01*
X148522852Y-61812161D01*
X148465000Y-62103000D01*
X148465000Y-67946410D01*
X148522852Y-68237249D01*
X148687599Y-68483811D01*
X148698791Y-68495003D01*
X148070128Y-68494455D01*
X147445000Y-68752752D01*
X147445000Y-64062463D01*
X147477192Y-64030327D01*
X147619838Y-63686799D01*
X147620162Y-63314833D01*
X147478117Y-62971057D01*
X147215327Y-62707808D01*
X146871799Y-62565162D01*
X146499833Y-62564838D01*
X146156057Y-62706883D01*
X145892808Y-62969673D01*
X145750162Y-63313201D01*
X145749955Y-63550902D01*
X145610000Y-63522560D01*
X144710000Y-63522560D01*
X144474683Y-63566838D01*
X144258559Y-63705910D01*
X144113569Y-63918110D01*
X144062560Y-64170000D01*
X144062560Y-65370000D01*
X144106838Y-65605317D01*
X144245910Y-65821441D01*
X144400000Y-65926726D01*
X144400000Y-66644668D01*
X144396793Y-66644665D01*
X143685342Y-66938630D01*
X143140543Y-67482479D01*
X142845337Y-68193416D01*
X142844665Y-68963207D01*
X143135953Y-69668180D01*
X142670123Y-69860658D01*
X142620000Y-69910694D01*
X142620000Y-65925105D01*
X142761441Y-65834090D01*
X142906431Y-65621890D01*
X142957440Y-65370000D01*
X142957440Y-64170000D01*
X142913162Y-63934683D01*
X142774090Y-63718559D01*
X142561890Y-63573569D01*
X142310000Y-63522560D01*
X141410000Y-63522560D01*
X141174683Y-63566838D01*
X141095000Y-63618113D01*
X141095000Y-60012929D01*
X161433519Y-60012929D01*
X161433519Y-60603488D01*
X161530192Y-60836877D01*
X161708820Y-61015506D01*
X161942209Y-61112179D01*
X162407769Y-61112179D01*
X162566519Y-60953429D01*
X162566519Y-59854179D01*
X162820519Y-59854179D01*
X162820519Y-60953429D01*
X162979269Y-61112179D01*
X163444829Y-61112179D01*
X163678218Y-61015506D01*
X163856846Y-60836877D01*
X163953519Y-60603488D01*
X163953519Y-60012929D01*
X163794769Y-59854179D01*
X162820519Y-59854179D01*
X162566519Y-59854179D01*
X161592269Y-59854179D01*
X161433519Y-60012929D01*
X141095000Y-60012929D01*
X141095000Y-59690000D01*
X141045556Y-59441429D01*
X141037148Y-59399160D01*
X140872401Y-59152599D01*
X140391802Y-58672000D01*
X141859000Y-58672000D01*
X142149839Y-58614148D01*
X142396401Y-58449401D01*
X143005230Y-57840572D01*
X143106673Y-57942192D01*
X143450201Y-58084838D01*
X143822167Y-58085162D01*
X144165943Y-57943117D01*
X144429192Y-57680327D01*
X144571838Y-57336799D01*
X144571879Y-57289923D01*
X145384623Y-56477179D01*
X161421079Y-56477179D01*
X161421079Y-57977179D01*
X161465357Y-58212496D01*
X161604429Y-58428620D01*
X161672525Y-58475148D01*
X161530192Y-58617481D01*
X161433519Y-58850870D01*
X161433519Y-59441429D01*
X161592269Y-59600179D01*
X162566519Y-59600179D01*
X162566519Y-59580179D01*
X162820519Y-59580179D01*
X162820519Y-59600179D01*
X163794769Y-59600179D01*
X163953519Y-59441429D01*
X163953519Y-58850870D01*
X163856846Y-58617481D01*
X163715609Y-58476243D01*
X163769960Y-58441269D01*
X163914950Y-58229069D01*
X163965959Y-57977179D01*
X163965959Y-56477179D01*
X163921681Y-56241862D01*
X163782609Y-56025738D01*
X163570409Y-55880748D01*
X163543178Y-55875233D01*
X163621838Y-55685799D01*
X163622162Y-55313833D01*
X163480117Y-54970057D01*
X163217327Y-54706808D01*
X162873799Y-54564162D01*
X162501833Y-54563838D01*
X162158057Y-54705883D01*
X161894808Y-54968673D01*
X161752162Y-55312201D01*
X161751838Y-55684167D01*
X161830895Y-55875501D01*
X161617078Y-56013089D01*
X161472088Y-56225289D01*
X161421079Y-56477179D01*
X145384623Y-56477179D01*
X146491802Y-55370000D01*
X149424537Y-55370000D01*
X149456673Y-55402192D01*
X149800201Y-55544838D01*
X150172167Y-55545162D01*
X150515943Y-55403117D01*
X150779192Y-55140327D01*
X150921838Y-54796799D01*
X150921883Y-54744999D01*
X151859703Y-54744999D01*
X152150542Y-54687147D01*
X152397104Y-54522400D01*
X155876874Y-51042630D01*
X156243282Y-51115513D01*
X156811567Y-51002474D01*
X157293336Y-50680567D01*
X157615243Y-50198798D01*
X157728282Y-49630513D01*
X157728282Y-49572327D01*
X157615243Y-49004042D01*
X157293336Y-48522273D01*
X157292103Y-48521449D01*
X157328599Y-48514582D01*
X157544723Y-48375510D01*
X157689713Y-48163310D01*
X157740722Y-47911420D01*
X157740722Y-47348660D01*
X168658000Y-58265938D01*
X168658000Y-58265938D01*
G37*
X168658000Y-58265938D02*
X168658000Y-116017198D01*
X167875981Y-116799217D01*
X167771054Y-116271715D01*
X167449147Y-115789946D01*
X167119974Y-115570000D01*
X167449147Y-115350054D01*
X167771054Y-114868285D01*
X167884093Y-114300000D01*
X167771054Y-113731715D01*
X167449147Y-113249946D01*
X167119974Y-113030000D01*
X167449147Y-112810054D01*
X167771054Y-112328285D01*
X167884093Y-111760000D01*
X167771054Y-111191715D01*
X167449147Y-110709946D01*
X167119974Y-110490000D01*
X167449147Y-110270054D01*
X167771054Y-109788285D01*
X167884093Y-109220000D01*
X167771054Y-108651715D01*
X167449147Y-108169946D01*
X167119974Y-107950000D01*
X167449147Y-107730054D01*
X167771054Y-107248285D01*
X167884093Y-106680000D01*
X167771054Y-106111715D01*
X167449147Y-105629946D01*
X167108447Y-105402298D01*
X167251358Y-105335183D01*
X167641645Y-104906924D01*
X167811476Y-104496890D01*
X167690155Y-104267000D01*
X166497000Y-104267000D01*
X166497000Y-104287000D01*
X166243000Y-104287000D01*
X166243000Y-104267000D01*
X165049845Y-104267000D01*
X164928524Y-104496890D01*
X165098355Y-104906924D01*
X165488642Y-105335183D01*
X165631553Y-105402298D01*
X165290853Y-105629946D01*
X164968946Y-106111715D01*
X164855907Y-106680000D01*
X164968946Y-107248285D01*
X165290853Y-107730054D01*
X165620026Y-107950000D01*
X165290853Y-108169946D01*
X164968946Y-108651715D01*
X164855907Y-109220000D01*
X164968946Y-109788285D01*
X165290853Y-110270054D01*
X165620026Y-110490000D01*
X165290853Y-110709946D01*
X164968946Y-111191715D01*
X164855907Y-111760000D01*
X164968946Y-112328285D01*
X165290853Y-112810054D01*
X165620026Y-113030000D01*
X165290853Y-113249946D01*
X164968946Y-113731715D01*
X164855907Y-114300000D01*
X164968946Y-114868285D01*
X165290853Y-115350054D01*
X165620026Y-115570000D01*
X165290853Y-115789946D01*
X164968946Y-116271715D01*
X164855907Y-116840000D01*
X164968946Y-117408285D01*
X165290853Y-117890054D01*
X165620026Y-118110000D01*
X165290853Y-118329946D01*
X164968946Y-118811715D01*
X164855907Y-119380000D01*
X164968946Y-119948285D01*
X165290853Y-120430054D01*
X165620026Y-120650000D01*
X165290853Y-120869946D01*
X164968946Y-121351715D01*
X164855907Y-121920000D01*
X164968946Y-122488285D01*
X165290853Y-122970054D01*
X165772622Y-123291961D01*
X166340907Y-123405000D01*
X166399093Y-123405000D01*
X166967378Y-123291961D01*
X167449147Y-122970054D01*
X167771054Y-122488285D01*
X167884093Y-121920000D01*
X167771054Y-121351715D01*
X167449147Y-120869946D01*
X167119974Y-120650000D01*
X167449147Y-120430054D01*
X167771054Y-119948285D01*
X167884093Y-119380000D01*
X167811210Y-119013592D01*
X169290000Y-117534802D01*
X169290000Y-138090000D01*
X151274802Y-138090000D01*
X151667401Y-137697401D01*
X151832148Y-137450839D01*
X151890000Y-137160000D01*
X151890000Y-136690633D01*
X152213201Y-136824838D01*
X152585167Y-136825162D01*
X152928943Y-136683117D01*
X153192192Y-136420327D01*
X153334838Y-136076799D01*
X153335162Y-135704833D01*
X153193117Y-135361057D01*
X153160000Y-135327882D01*
X153160000Y-135062619D01*
X162864613Y-135062619D01*
X163204155Y-135884372D01*
X163832321Y-136513636D01*
X164653481Y-136854611D01*
X165542619Y-136855387D01*
X166364372Y-136515845D01*
X166993636Y-135887679D01*
X167334611Y-135066519D01*
X167335387Y-134177381D01*
X166995845Y-133355628D01*
X166367679Y-132726364D01*
X165546519Y-132385389D01*
X164657381Y-132384613D01*
X163835628Y-132724155D01*
X163206364Y-133352321D01*
X162865389Y-134173481D01*
X162864613Y-135062619D01*
X153160000Y-135062619D01*
X153160000Y-134534547D01*
X153183515Y-134524831D01*
X153573461Y-134135564D01*
X153784759Y-133626702D01*
X153785240Y-133075715D01*
X153574831Y-132566485D01*
X153185564Y-132176539D01*
X153160000Y-132165924D01*
X153160000Y-129665763D01*
X153373393Y-129754372D01*
X153964016Y-129754888D01*
X154509877Y-129529342D01*
X154927874Y-129112074D01*
X155154372Y-128566607D01*
X155154888Y-127975984D01*
X154929342Y-127430123D01*
X154512074Y-127012126D01*
X153966607Y-126785628D01*
X153515001Y-126785233D01*
X153515001Y-122409999D01*
X153481533Y-122241747D01*
X153457149Y-122119159D01*
X153292402Y-121872598D01*
X153160000Y-121740196D01*
X153160000Y-115484547D01*
X153183515Y-115474831D01*
X153573461Y-115085564D01*
X153784759Y-114576702D01*
X153785240Y-114025715D01*
X153574831Y-113516485D01*
X153185564Y-113126539D01*
X153160000Y-113115924D01*
X153160000Y-110615763D01*
X153373393Y-110704372D01*
X153964016Y-110704888D01*
X154509877Y-110479342D01*
X154927874Y-110062074D01*
X155154372Y-109516607D01*
X155154888Y-108925984D01*
X154929342Y-108380123D01*
X154512074Y-107962126D01*
X153966607Y-107735628D01*
X153515001Y-107735233D01*
X153515001Y-103359999D01*
X153502238Y-103295837D01*
X153457149Y-103069159D01*
X153292402Y-102822598D01*
X153160000Y-102690196D01*
X153160000Y-100750000D01*
X164872560Y-100750000D01*
X164872560Y-102450000D01*
X164916838Y-102685317D01*
X165055910Y-102901441D01*
X165268110Y-103046431D01*
X165376107Y-103068301D01*
X165098355Y-103373076D01*
X164928524Y-103783110D01*
X165049845Y-104013000D01*
X166243000Y-104013000D01*
X166243000Y-103993000D01*
X166497000Y-103993000D01*
X166497000Y-104013000D01*
X167690155Y-104013000D01*
X167811476Y-103783110D01*
X167641645Y-103373076D01*
X167365499Y-103070063D01*
X167455317Y-103053162D01*
X167671441Y-102914090D01*
X167816431Y-102701890D01*
X167867440Y-102450000D01*
X167867440Y-100750000D01*
X167823162Y-100514683D01*
X167684090Y-100298559D01*
X167471890Y-100153569D01*
X167220000Y-100102560D01*
X165520000Y-100102560D01*
X165284683Y-100146838D01*
X165068559Y-100285910D01*
X164923569Y-100498110D01*
X164872560Y-100750000D01*
X153160000Y-100750000D01*
X153160000Y-96434547D01*
X153183515Y-96424831D01*
X153573461Y-96035564D01*
X153784759Y-95526702D01*
X153785240Y-94975715D01*
X153574831Y-94466485D01*
X153185564Y-94076539D01*
X153160000Y-94065924D01*
X153160000Y-91565763D01*
X153373393Y-91654372D01*
X153964016Y-91654888D01*
X154509877Y-91429342D01*
X154927874Y-91012074D01*
X155154372Y-90466607D01*
X155154888Y-89875984D01*
X154929342Y-89330123D01*
X154512074Y-88912126D01*
X153966607Y-88685628D01*
X153515001Y-88685233D01*
X153515001Y-84309999D01*
X153502238Y-84245837D01*
X153457149Y-84019159D01*
X153292402Y-83772598D01*
X153160000Y-83640196D01*
X153160000Y-77384547D01*
X153183515Y-77374831D01*
X153573461Y-76985564D01*
X153784759Y-76476702D01*
X153785240Y-75925715D01*
X153574831Y-75416485D01*
X153185564Y-75026539D01*
X153160000Y-75015924D01*
X153160000Y-72515763D01*
X153373393Y-72604372D01*
X153964016Y-72604888D01*
X154509877Y-72379342D01*
X154927874Y-71962074D01*
X155154372Y-71416607D01*
X155154888Y-70825984D01*
X154929342Y-70280123D01*
X154512074Y-69862126D01*
X153966607Y-69635628D01*
X153515001Y-69635233D01*
X153515001Y-65125001D01*
X153457149Y-64834161D01*
X153292402Y-64587600D01*
X153160000Y-64455198D01*
X153160000Y-64062463D01*
X153192192Y-64030327D01*
X153334838Y-63686799D01*
X153335162Y-63314833D01*
X153325787Y-63292143D01*
X153347167Y-63292162D01*
X153690943Y-63150117D01*
X153954192Y-62887327D01*
X154096838Y-62543799D01*
X154097162Y-62171833D01*
X153963617Y-61848629D01*
X154096838Y-61527799D01*
X154097162Y-61155833D01*
X153955117Y-60812057D01*
X153692327Y-60548808D01*
X153348799Y-60406162D01*
X152976833Y-60405838D01*
X152633057Y-60547883D01*
X152599882Y-60581000D01*
X149987000Y-60581000D01*
X149696161Y-60638852D01*
X149449599Y-60803599D01*
X148687599Y-61565599D01*
X148522852Y-61812161D01*
X148465000Y-62103000D01*
X148465000Y-67946410D01*
X148522852Y-68237249D01*
X148687599Y-68483811D01*
X148698791Y-68495003D01*
X148070128Y-68494455D01*
X147445000Y-68752752D01*
X147445000Y-64062463D01*
X147477192Y-64030327D01*
X147619838Y-63686799D01*
X147620162Y-63314833D01*
X147478117Y-62971057D01*
X147215327Y-62707808D01*
X146871799Y-62565162D01*
X146499833Y-62564838D01*
X146156057Y-62706883D01*
X145892808Y-62969673D01*
X145750162Y-63313201D01*
X145749955Y-63550902D01*
X145610000Y-63522560D01*
X144710000Y-63522560D01*
X144474683Y-63566838D01*
X144258559Y-63705910D01*
X144113569Y-63918110D01*
X144062560Y-64170000D01*
X144062560Y-65370000D01*
X144106838Y-65605317D01*
X144245910Y-65821441D01*
X144400000Y-65926726D01*
X144400000Y-66644668D01*
X144396793Y-66644665D01*
X143685342Y-66938630D01*
X143140543Y-67482479D01*
X142845337Y-68193416D01*
X142844665Y-68963207D01*
X143135953Y-69668180D01*
X142670123Y-69860658D01*
X142620000Y-69910694D01*
X142620000Y-65925105D01*
X142761441Y-65834090D01*
X142906431Y-65621890D01*
X142957440Y-65370000D01*
X142957440Y-64170000D01*
X142913162Y-63934683D01*
X142774090Y-63718559D01*
X142561890Y-63573569D01*
X142310000Y-63522560D01*
X141410000Y-63522560D01*
X141174683Y-63566838D01*
X141095000Y-63618113D01*
X141095000Y-60012929D01*
X161433519Y-60012929D01*
X161433519Y-60603488D01*
X161530192Y-60836877D01*
X161708820Y-61015506D01*
X161942209Y-61112179D01*
X162407769Y-61112179D01*
X162566519Y-60953429D01*
X162566519Y-59854179D01*
X162820519Y-59854179D01*
X162820519Y-60953429D01*
X162979269Y-61112179D01*
X163444829Y-61112179D01*
X163678218Y-61015506D01*
X163856846Y-60836877D01*
X163953519Y-60603488D01*
X163953519Y-60012929D01*
X163794769Y-59854179D01*
X162820519Y-59854179D01*
X162566519Y-59854179D01*
X161592269Y-59854179D01*
X161433519Y-60012929D01*
X141095000Y-60012929D01*
X141095000Y-59690000D01*
X141045556Y-59441429D01*
X141037148Y-59399160D01*
X140872401Y-59152599D01*
X140391802Y-58672000D01*
X141859000Y-58672000D01*
X142149839Y-58614148D01*
X142396401Y-58449401D01*
X143005230Y-57840572D01*
X143106673Y-57942192D01*
X143450201Y-58084838D01*
X143822167Y-58085162D01*
X144165943Y-57943117D01*
X144429192Y-57680327D01*
X144571838Y-57336799D01*
X144571879Y-57289923D01*
X145384623Y-56477179D01*
X161421079Y-56477179D01*
X161421079Y-57977179D01*
X161465357Y-58212496D01*
X161604429Y-58428620D01*
X161672525Y-58475148D01*
X161530192Y-58617481D01*
X161433519Y-58850870D01*
X161433519Y-59441429D01*
X161592269Y-59600179D01*
X162566519Y-59600179D01*
X162566519Y-59580179D01*
X162820519Y-59580179D01*
X162820519Y-59600179D01*
X163794769Y-59600179D01*
X163953519Y-59441429D01*
X163953519Y-58850870D01*
X163856846Y-58617481D01*
X163715609Y-58476243D01*
X163769960Y-58441269D01*
X163914950Y-58229069D01*
X163965959Y-57977179D01*
X163965959Y-56477179D01*
X163921681Y-56241862D01*
X163782609Y-56025738D01*
X163570409Y-55880748D01*
X163543178Y-55875233D01*
X163621838Y-55685799D01*
X163622162Y-55313833D01*
X163480117Y-54970057D01*
X163217327Y-54706808D01*
X162873799Y-54564162D01*
X162501833Y-54563838D01*
X162158057Y-54705883D01*
X161894808Y-54968673D01*
X161752162Y-55312201D01*
X161751838Y-55684167D01*
X161830895Y-55875501D01*
X161617078Y-56013089D01*
X161472088Y-56225289D01*
X161421079Y-56477179D01*
X145384623Y-56477179D01*
X146491802Y-55370000D01*
X149424537Y-55370000D01*
X149456673Y-55402192D01*
X149800201Y-55544838D01*
X150172167Y-55545162D01*
X150515943Y-55403117D01*
X150779192Y-55140327D01*
X150921838Y-54796799D01*
X150921883Y-54744999D01*
X151859703Y-54744999D01*
X152150542Y-54687147D01*
X152397104Y-54522400D01*
X155876874Y-51042630D01*
X156243282Y-51115513D01*
X156811567Y-51002474D01*
X157293336Y-50680567D01*
X157615243Y-50198798D01*
X157728282Y-49630513D01*
X157728282Y-49572327D01*
X157615243Y-49004042D01*
X157293336Y-48522273D01*
X157292103Y-48521449D01*
X157328599Y-48514582D01*
X157544723Y-48375510D01*
X157689713Y-48163310D01*
X157740722Y-47911420D01*
X157740722Y-47348660D01*
X168658000Y-58265938D01*
G36*
X80520000Y-119380000D02*
X80577852Y-119670839D01*
X80742599Y-119917401D01*
X83257199Y-122432001D01*
X83503760Y-122596748D01*
X83552014Y-122606346D01*
X83623565Y-122620579D01*
X83644138Y-122729917D01*
X83783210Y-122946041D01*
X83937300Y-123051326D01*
X83937300Y-128333055D01*
X83995152Y-128623894D01*
X84159899Y-128870456D01*
X87262196Y-131972753D01*
X86833785Y-132149769D01*
X86443839Y-132539036D01*
X86232541Y-133047898D01*
X86232060Y-133598885D01*
X86442469Y-134108115D01*
X86831736Y-134498061D01*
X86857300Y-134508676D01*
X86857300Y-134607300D01*
X86915152Y-134898139D01*
X87079899Y-135144701D01*
X87727599Y-135792401D01*
X87974161Y-135957148D01*
X88265000Y-136015000D01*
X90877537Y-136015000D01*
X90909673Y-136047192D01*
X91253201Y-136189838D01*
X91625167Y-136190162D01*
X91880430Y-136084690D01*
X91775162Y-136338201D01*
X91774838Y-136710167D01*
X91916883Y-137053943D01*
X92179673Y-137317192D01*
X92523201Y-137459838D01*
X92895167Y-137460162D01*
X93238943Y-137318117D01*
X93249379Y-137307699D01*
X93277852Y-137450839D01*
X93442599Y-137697401D01*
X93835198Y-138090000D01*
X70710000Y-138090000D01*
X70710000Y-135062619D01*
X72694613Y-135062619D01*
X73034155Y-135884372D01*
X73662321Y-136513636D01*
X74483481Y-136854611D01*
X75372619Y-136855387D01*
X76194372Y-136515845D01*
X76823636Y-135887679D01*
X77164611Y-135066519D01*
X77165387Y-134177381D01*
X76825845Y-133355628D01*
X76197679Y-132726364D01*
X75376519Y-132385389D01*
X74487381Y-132384613D01*
X73665628Y-132724155D01*
X73036364Y-133352321D01*
X72695389Y-134173481D01*
X72694613Y-135062619D01*
X70710000Y-135062619D01*
X70710000Y-117504802D01*
X72218790Y-119013592D01*
X72145907Y-119380000D01*
X72258946Y-119948285D01*
X72580853Y-120430054D01*
X72910026Y-120650000D01*
X72580853Y-120869946D01*
X72258946Y-121351715D01*
X72145907Y-121920000D01*
X72258946Y-122488285D01*
X72580853Y-122970054D01*
X73062622Y-123291961D01*
X73630907Y-123405000D01*
X73689093Y-123405000D01*
X74257378Y-123291961D01*
X74739147Y-122970054D01*
X75061054Y-122488285D01*
X75174093Y-121920000D01*
X75061054Y-121351715D01*
X74739147Y-120869946D01*
X74409974Y-120650000D01*
X74739147Y-120430054D01*
X75061054Y-119948285D01*
X75174093Y-119380000D01*
X75061054Y-118811715D01*
X74739147Y-118329946D01*
X74409974Y-118110000D01*
X74739147Y-117890054D01*
X75061054Y-117408285D01*
X75174093Y-116840000D01*
X75061054Y-116271715D01*
X74739147Y-115789946D01*
X74409974Y-115570000D01*
X74739147Y-115350054D01*
X75061054Y-114868285D01*
X75174093Y-114300000D01*
X75061054Y-113731715D01*
X74739147Y-113249946D01*
X74409974Y-113030000D01*
X74739147Y-112810054D01*
X75061054Y-112328285D01*
X75174093Y-111760000D01*
X75061054Y-111191715D01*
X74739147Y-110709946D01*
X74409974Y-110490000D01*
X74739147Y-110270054D01*
X75061054Y-109788285D01*
X75174093Y-109220000D01*
X75061054Y-108651715D01*
X74739147Y-108169946D01*
X74409974Y-107950000D01*
X74739147Y-107730054D01*
X75061054Y-107248285D01*
X75174093Y-106680000D01*
X75061054Y-106111715D01*
X74739147Y-105629946D01*
X74398447Y-105402298D01*
X74541358Y-105335183D01*
X74931645Y-104906924D01*
X75101476Y-104496890D01*
X74980155Y-104267000D01*
X73787000Y-104267000D01*
X73787000Y-104287000D01*
X73533000Y-104287000D01*
X73533000Y-104267000D01*
X72339845Y-104267000D01*
X72218524Y-104496890D01*
X72388355Y-104906924D01*
X72778642Y-105335183D01*
X72921553Y-105402298D01*
X72580853Y-105629946D01*
X72258946Y-106111715D01*
X72145907Y-106680000D01*
X72258946Y-107248285D01*
X72580853Y-107730054D01*
X72910026Y-107950000D01*
X72580853Y-108169946D01*
X72258946Y-108651715D01*
X72145907Y-109220000D01*
X72258946Y-109788285D01*
X72580853Y-110270054D01*
X72910026Y-110490000D01*
X72580853Y-110709946D01*
X72258946Y-111191715D01*
X72145907Y-111760000D01*
X72258946Y-112328285D01*
X72580853Y-112810054D01*
X72910026Y-113030000D01*
X72580853Y-113249946D01*
X72258946Y-113731715D01*
X72145907Y-114300000D01*
X72258946Y-114868285D01*
X72580853Y-115350054D01*
X72910026Y-115570000D01*
X72580853Y-115789946D01*
X72258946Y-116271715D01*
X72154019Y-116799217D01*
X72007000Y-116652198D01*
X72007000Y-100750000D01*
X72162560Y-100750000D01*
X72162560Y-102450000D01*
X72206838Y-102685317D01*
X72345910Y-102901441D01*
X72558110Y-103046431D01*
X72666107Y-103068301D01*
X72388355Y-103373076D01*
X72218524Y-103783110D01*
X72339845Y-104013000D01*
X73533000Y-104013000D01*
X73533000Y-103993000D01*
X73787000Y-103993000D01*
X73787000Y-104013000D01*
X74980155Y-104013000D01*
X75101476Y-103783110D01*
X74931645Y-103373076D01*
X74655499Y-103070063D01*
X74745317Y-103053162D01*
X74961441Y-102914090D01*
X75106431Y-102701890D01*
X75157440Y-102450000D01*
X75157440Y-100750000D01*
X75113162Y-100514683D01*
X74974090Y-100298559D01*
X74761890Y-100153569D01*
X74510000Y-100102560D01*
X72810000Y-100102560D01*
X72574683Y-100146838D01*
X72358559Y-100285910D01*
X72213569Y-100498110D01*
X72162560Y-100750000D01*
X72007000Y-100750000D01*
X72007000Y-98356167D01*
X78439838Y-98356167D01*
X78581883Y-98699943D01*
X78615000Y-98733118D01*
X78615000Y-120977136D01*
X78582808Y-121009272D01*
X78440162Y-121352800D01*
X78439838Y-121724766D01*
X78581883Y-122068542D01*
X78844673Y-122331791D01*
X79188201Y-122474437D01*
X79560167Y-122474761D01*
X79903943Y-122332716D01*
X80167192Y-122069926D01*
X80309838Y-121726398D01*
X80310162Y-121354432D01*
X80168117Y-121010656D01*
X80135000Y-120977481D01*
X80135000Y-98733463D01*
X80167192Y-98701327D01*
X80309838Y-98357799D01*
X80310162Y-97985833D01*
X80168117Y-97642057D01*
X79905327Y-97378808D01*
X79561799Y-97236162D01*
X79189833Y-97235838D01*
X78846057Y-97377883D01*
X78582808Y-97640673D01*
X78440162Y-97984201D01*
X78439838Y-98356167D01*
X72007000Y-98356167D01*
X72007000Y-69112800D01*
X80520000Y-60599800D01*
X80520000Y-119380000D01*
X80520000Y-119380000D01*
G37*
X80520000Y-119380000D02*
X80577852Y-119670839D01*
X80742599Y-119917401D01*
X83257199Y-122432001D01*
X83503760Y-122596748D01*
X83552014Y-122606346D01*
X83623565Y-122620579D01*
X83644138Y-122729917D01*
X83783210Y-122946041D01*
X83937300Y-123051326D01*
X83937300Y-128333055D01*
X83995152Y-128623894D01*
X84159899Y-128870456D01*
X87262196Y-131972753D01*
X86833785Y-132149769D01*
X86443839Y-132539036D01*
X86232541Y-133047898D01*
X86232060Y-133598885D01*
X86442469Y-134108115D01*
X86831736Y-134498061D01*
X86857300Y-134508676D01*
X86857300Y-134607300D01*
X86915152Y-134898139D01*
X87079899Y-135144701D01*
X87727599Y-135792401D01*
X87974161Y-135957148D01*
X88265000Y-136015000D01*
X90877537Y-136015000D01*
X90909673Y-136047192D01*
X91253201Y-136189838D01*
X91625167Y-136190162D01*
X91880430Y-136084690D01*
X91775162Y-136338201D01*
X91774838Y-136710167D01*
X91916883Y-137053943D01*
X92179673Y-137317192D01*
X92523201Y-137459838D01*
X92895167Y-137460162D01*
X93238943Y-137318117D01*
X93249379Y-137307699D01*
X93277852Y-137450839D01*
X93442599Y-137697401D01*
X93835198Y-138090000D01*
X70710000Y-138090000D01*
X70710000Y-135062619D01*
X72694613Y-135062619D01*
X73034155Y-135884372D01*
X73662321Y-136513636D01*
X74483481Y-136854611D01*
X75372619Y-136855387D01*
X76194372Y-136515845D01*
X76823636Y-135887679D01*
X77164611Y-135066519D01*
X77165387Y-134177381D01*
X76825845Y-133355628D01*
X76197679Y-132726364D01*
X75376519Y-132385389D01*
X74487381Y-132384613D01*
X73665628Y-132724155D01*
X73036364Y-133352321D01*
X72695389Y-134173481D01*
X72694613Y-135062619D01*
X70710000Y-135062619D01*
X70710000Y-117504802D01*
X72218790Y-119013592D01*
X72145907Y-119380000D01*
X72258946Y-119948285D01*
X72580853Y-120430054D01*
X72910026Y-120650000D01*
X72580853Y-120869946D01*
X72258946Y-121351715D01*
X72145907Y-121920000D01*
X72258946Y-122488285D01*
X72580853Y-122970054D01*
X73062622Y-123291961D01*
X73630907Y-123405000D01*
X73689093Y-123405000D01*
X74257378Y-123291961D01*
X74739147Y-122970054D01*
X75061054Y-122488285D01*
X75174093Y-121920000D01*
X75061054Y-121351715D01*
X74739147Y-120869946D01*
X74409974Y-120650000D01*
X74739147Y-120430054D01*
X75061054Y-119948285D01*
X75174093Y-119380000D01*
X75061054Y-118811715D01*
X74739147Y-118329946D01*
X74409974Y-118110000D01*
X74739147Y-117890054D01*
X75061054Y-117408285D01*
X75174093Y-116840000D01*
X75061054Y-116271715D01*
X74739147Y-115789946D01*
X74409974Y-115570000D01*
X74739147Y-115350054D01*
X75061054Y-114868285D01*
X75174093Y-114300000D01*
X75061054Y-113731715D01*
X74739147Y-113249946D01*
X74409974Y-113030000D01*
X74739147Y-112810054D01*
X75061054Y-112328285D01*
X75174093Y-111760000D01*
X75061054Y-111191715D01*
X74739147Y-110709946D01*
X74409974Y-110490000D01*
X74739147Y-110270054D01*
X75061054Y-109788285D01*
X75174093Y-109220000D01*
X75061054Y-108651715D01*
X74739147Y-108169946D01*
X74409974Y-107950000D01*
X74739147Y-107730054D01*
X75061054Y-107248285D01*
X75174093Y-106680000D01*
X75061054Y-106111715D01*
X74739147Y-105629946D01*
X74398447Y-105402298D01*
X74541358Y-105335183D01*
X74931645Y-104906924D01*
X75101476Y-104496890D01*
X74980155Y-104267000D01*
X73787000Y-104267000D01*
X73787000Y-104287000D01*
X73533000Y-104287000D01*
X73533000Y-104267000D01*
X72339845Y-104267000D01*
X72218524Y-104496890D01*
X72388355Y-104906924D01*
X72778642Y-105335183D01*
X72921553Y-105402298D01*
X72580853Y-105629946D01*
X72258946Y-106111715D01*
X72145907Y-106680000D01*
X72258946Y-107248285D01*
X72580853Y-107730054D01*
X72910026Y-107950000D01*
X72580853Y-108169946D01*
X72258946Y-108651715D01*
X72145907Y-109220000D01*
X72258946Y-109788285D01*
X72580853Y-110270054D01*
X72910026Y-110490000D01*
X72580853Y-110709946D01*
X72258946Y-111191715D01*
X72145907Y-111760000D01*
X72258946Y-112328285D01*
X72580853Y-112810054D01*
X72910026Y-113030000D01*
X72580853Y-113249946D01*
X72258946Y-113731715D01*
X72145907Y-114300000D01*
X72258946Y-114868285D01*
X72580853Y-115350054D01*
X72910026Y-115570000D01*
X72580853Y-115789946D01*
X72258946Y-116271715D01*
X72154019Y-116799217D01*
X72007000Y-116652198D01*
X72007000Y-100750000D01*
X72162560Y-100750000D01*
X72162560Y-102450000D01*
X72206838Y-102685317D01*
X72345910Y-102901441D01*
X72558110Y-103046431D01*
X72666107Y-103068301D01*
X72388355Y-103373076D01*
X72218524Y-103783110D01*
X72339845Y-104013000D01*
X73533000Y-104013000D01*
X73533000Y-103993000D01*
X73787000Y-103993000D01*
X73787000Y-104013000D01*
X74980155Y-104013000D01*
X75101476Y-103783110D01*
X74931645Y-103373076D01*
X74655499Y-103070063D01*
X74745317Y-103053162D01*
X74961441Y-102914090D01*
X75106431Y-102701890D01*
X75157440Y-102450000D01*
X75157440Y-100750000D01*
X75113162Y-100514683D01*
X74974090Y-100298559D01*
X74761890Y-100153569D01*
X74510000Y-100102560D01*
X72810000Y-100102560D01*
X72574683Y-100146838D01*
X72358559Y-100285910D01*
X72213569Y-100498110D01*
X72162560Y-100750000D01*
X72007000Y-100750000D01*
X72007000Y-98356167D01*
X78439838Y-98356167D01*
X78581883Y-98699943D01*
X78615000Y-98733118D01*
X78615000Y-120977136D01*
X78582808Y-121009272D01*
X78440162Y-121352800D01*
X78439838Y-121724766D01*
X78581883Y-122068542D01*
X78844673Y-122331791D01*
X79188201Y-122474437D01*
X79560167Y-122474761D01*
X79903943Y-122332716D01*
X80167192Y-122069926D01*
X80309838Y-121726398D01*
X80310162Y-121354432D01*
X80168117Y-121010656D01*
X80135000Y-120977481D01*
X80135000Y-98733463D01*
X80167192Y-98701327D01*
X80309838Y-98357799D01*
X80310162Y-97985833D01*
X80168117Y-97642057D01*
X79905327Y-97378808D01*
X79561799Y-97236162D01*
X79189833Y-97235838D01*
X78846057Y-97377883D01*
X78582808Y-97640673D01*
X78440162Y-97984201D01*
X78439838Y-98356167D01*
X72007000Y-98356167D01*
X72007000Y-69112800D01*
X80520000Y-60599800D01*
X80520000Y-119380000D01*
G36*
X119484673Y-50530193D02*
X119604719Y-50580041D01*
X119544820Y-50604852D01*
X119366192Y-50783481D01*
X119269519Y-51016870D01*
X119269519Y-51607429D01*
X119428269Y-51766179D01*
X120402519Y-51766179D01*
X120402519Y-51746179D01*
X120656519Y-51746179D01*
X120656519Y-51766179D01*
X121630769Y-51766179D01*
X121789519Y-51607429D01*
X121789519Y-51016870D01*
X121698860Y-50798000D01*
X125171618Y-50798000D01*
X125192599Y-50829401D01*
X132023198Y-57660000D01*
X121450047Y-57660000D01*
X121686943Y-57562117D01*
X121950192Y-57299327D01*
X122092838Y-56955799D01*
X122093162Y-56583833D01*
X121951117Y-56240057D01*
X121688327Y-55976808D01*
X121344799Y-55834162D01*
X121297923Y-55834121D01*
X121289519Y-55825717D01*
X121289519Y-55765217D01*
X121389836Y-55746341D01*
X121605960Y-55607269D01*
X121750950Y-55395069D01*
X121801959Y-55143179D01*
X121801959Y-53643179D01*
X121757681Y-53407862D01*
X121618609Y-53191738D01*
X121550513Y-53145210D01*
X121692846Y-53002877D01*
X121789519Y-52769488D01*
X121789519Y-52178929D01*
X121630769Y-52020179D01*
X120656519Y-52020179D01*
X120656519Y-52040179D01*
X120402519Y-52040179D01*
X120402519Y-52020179D01*
X119428269Y-52020179D01*
X119269519Y-52178929D01*
X119269519Y-52769488D01*
X119366192Y-53002877D01*
X119507429Y-53144115D01*
X119453078Y-53179089D01*
X119308088Y-53391289D01*
X119257079Y-53643179D01*
X119257079Y-55143179D01*
X119301357Y-55378496D01*
X119440429Y-55594620D01*
X119652629Y-55739610D01*
X119769519Y-55763281D01*
X119769519Y-56140519D01*
X119827371Y-56431358D01*
X119992118Y-56677920D01*
X120222878Y-56908680D01*
X120222838Y-56954167D01*
X120364883Y-57297943D01*
X120627673Y-57561192D01*
X120865628Y-57660000D01*
X116519802Y-57660000D01*
X116414400Y-57554598D01*
X116504838Y-57336799D01*
X116505162Y-56964833D01*
X116363117Y-56621057D01*
X116100327Y-56357808D01*
X115756799Y-56215162D01*
X115384833Y-56214838D01*
X115041057Y-56356883D01*
X114935046Y-56462710D01*
X114830327Y-56357808D01*
X114486799Y-56215162D01*
X114114833Y-56214838D01*
X113771057Y-56356883D01*
X113665046Y-56462710D01*
X113560327Y-56357808D01*
X113216799Y-56215162D01*
X112844833Y-56214838D01*
X112501057Y-56356883D01*
X112395046Y-56462710D01*
X112290327Y-56357808D01*
X111946799Y-56215162D01*
X111574833Y-56214838D01*
X111250000Y-56349056D01*
X111250000Y-55172463D01*
X111282192Y-55140327D01*
X111424838Y-54796799D01*
X111425162Y-54424833D01*
X111283117Y-54081057D01*
X111020327Y-53817808D01*
X110676799Y-53675162D01*
X110304833Y-53674838D01*
X109961057Y-53816883D01*
X109855046Y-53922710D01*
X109750327Y-53817808D01*
X109406799Y-53675162D01*
X109034833Y-53674838D01*
X108691057Y-53816883D01*
X108585046Y-53922710D01*
X108480327Y-53817808D01*
X108136799Y-53675162D01*
X107764833Y-53674838D01*
X107421057Y-53816883D01*
X107315046Y-53922710D01*
X107210327Y-53817808D01*
X106866799Y-53675162D01*
X106494833Y-53674838D01*
X106151057Y-53816883D01*
X105887808Y-54079673D01*
X105745162Y-54423201D01*
X105744838Y-54795167D01*
X105886883Y-55138943D01*
X105920000Y-55172118D01*
X105920000Y-61595000D01*
X105977852Y-61885839D01*
X106142599Y-62132401D01*
X107412599Y-63402401D01*
X107628275Y-63546511D01*
X107510000Y-63522560D01*
X106610000Y-63522560D01*
X106374683Y-63566838D01*
X106158559Y-63705910D01*
X106013569Y-63918110D01*
X105962560Y-64170000D01*
X105962560Y-65370000D01*
X106006838Y-65605317D01*
X106145910Y-65821441D01*
X106300000Y-65926726D01*
X106300000Y-66644668D01*
X106296793Y-66644665D01*
X105585342Y-66938630D01*
X105040543Y-67482479D01*
X104745337Y-68193416D01*
X104744665Y-68963207D01*
X105035953Y-69668180D01*
X104570123Y-69860658D01*
X104520000Y-69910694D01*
X104520000Y-65925105D01*
X104661441Y-65834090D01*
X104806431Y-65621890D01*
X104857440Y-65370000D01*
X104857440Y-64170000D01*
X104813162Y-63934683D01*
X104674090Y-63718559D01*
X104461890Y-63573569D01*
X104210000Y-63522560D01*
X103310000Y-63522560D01*
X103074683Y-63566838D01*
X102995000Y-63618113D01*
X102995000Y-60960000D01*
X102937148Y-60669161D01*
X102772401Y-60422599D01*
X102360000Y-60010198D01*
X102360000Y-53902463D01*
X102392192Y-53870327D01*
X102534838Y-53526799D01*
X102535162Y-53154833D01*
X102393117Y-52811057D01*
X102130327Y-52547808D01*
X101786799Y-52405162D01*
X101414833Y-52404838D01*
X101071057Y-52546883D01*
X100965046Y-52652710D01*
X100860327Y-52547808D01*
X100516799Y-52405162D01*
X100144833Y-52404838D01*
X99801057Y-52546883D01*
X99695046Y-52652710D01*
X99590327Y-52547808D01*
X99246799Y-52405162D01*
X98874833Y-52404838D01*
X98531057Y-52546883D01*
X98425046Y-52652710D01*
X98320327Y-52547808D01*
X97976799Y-52405162D01*
X97604833Y-52404838D01*
X97261057Y-52546883D01*
X96997808Y-52809673D01*
X96855162Y-53153201D01*
X96854838Y-53525167D01*
X96996883Y-53868943D01*
X97030000Y-53902118D01*
X97030000Y-58424230D01*
X97087852Y-58715069D01*
X97252599Y-58961631D01*
X99570000Y-61279032D01*
X99570000Y-119380000D01*
X99627852Y-119670839D01*
X99792599Y-119917401D01*
X102332599Y-122457401D01*
X102579160Y-122622148D01*
X102627414Y-122631746D01*
X102685771Y-122643354D01*
X102706838Y-122755317D01*
X102845910Y-122971441D01*
X103000000Y-123076726D01*
X103000000Y-128358455D01*
X103057852Y-128649294D01*
X103222599Y-128895856D01*
X106324896Y-131998153D01*
X105896485Y-132175169D01*
X105506539Y-132564436D01*
X105295241Y-133073298D01*
X105294760Y-133624285D01*
X105505169Y-134133515D01*
X105798170Y-134427028D01*
X105730198Y-134495000D01*
X97082463Y-134495000D01*
X97050327Y-134462808D01*
X96706799Y-134320162D01*
X96334833Y-134319838D01*
X96106008Y-134414386D01*
X96410761Y-134110164D01*
X96622059Y-133601302D01*
X96622540Y-133050315D01*
X96412131Y-132541085D01*
X96022864Y-132151139D01*
X95997300Y-132140524D01*
X95997300Y-129640363D01*
X96210693Y-129728972D01*
X96801316Y-129729488D01*
X97347177Y-129503942D01*
X97765174Y-129086674D01*
X97991672Y-128541207D01*
X97992188Y-127950584D01*
X97766642Y-127404723D01*
X97349374Y-126986726D01*
X96803907Y-126760228D01*
X96352301Y-126759833D01*
X96352301Y-115702961D01*
X96294449Y-115412122D01*
X96215178Y-115293484D01*
X96423461Y-115085564D01*
X96634759Y-114576702D01*
X96635240Y-114025715D01*
X96424831Y-113516485D01*
X96035564Y-113126539D01*
X96010000Y-113115924D01*
X96010000Y-110615763D01*
X96223393Y-110704372D01*
X96814016Y-110704888D01*
X97359877Y-110479342D01*
X97777874Y-110062074D01*
X98004372Y-109516607D01*
X98004888Y-108925984D01*
X97779342Y-108380123D01*
X97362074Y-107962126D01*
X96816607Y-107735628D01*
X96365001Y-107735233D01*
X96365001Y-96665661D01*
X96348790Y-96584162D01*
X96307149Y-96374821D01*
X96217706Y-96240961D01*
X96423461Y-96035564D01*
X96634759Y-95526702D01*
X96635240Y-94975715D01*
X96424831Y-94466485D01*
X96035564Y-94076539D01*
X96010000Y-94065924D01*
X96010000Y-91565763D01*
X96223393Y-91654372D01*
X96814016Y-91654888D01*
X97359877Y-91429342D01*
X97777874Y-91012074D01*
X98004372Y-90466607D01*
X98004888Y-89875984D01*
X97779342Y-89330123D01*
X97362074Y-88912126D01*
X96816607Y-88685628D01*
X96365001Y-88685233D01*
X96365001Y-84309999D01*
X96352238Y-84245837D01*
X96307149Y-84019159D01*
X96142402Y-83772598D01*
X96010000Y-83640196D01*
X96010000Y-77384547D01*
X96033515Y-77374831D01*
X96423461Y-76985564D01*
X96634759Y-76476702D01*
X96635240Y-75925715D01*
X96424831Y-75416485D01*
X96035564Y-75026539D01*
X95526702Y-74815241D01*
X94975715Y-74814760D01*
X94740000Y-74912155D01*
X94740000Y-73974802D01*
X95152401Y-73562401D01*
X95317148Y-73315839D01*
X95375000Y-73025000D01*
X95375000Y-72074419D01*
X95677926Y-72377874D01*
X96223393Y-72604372D01*
X96814016Y-72604888D01*
X97359877Y-72379342D01*
X97777874Y-71962074D01*
X98004372Y-71416607D01*
X98004888Y-70825984D01*
X97779342Y-70280123D01*
X97362074Y-69862126D01*
X96816607Y-69635628D01*
X96225984Y-69635112D01*
X95680123Y-69860658D01*
X95375000Y-70165249D01*
X95375000Y-69850000D01*
X95317148Y-69559161D01*
X95152401Y-69312599D01*
X94740000Y-68900198D01*
X94740000Y-67819648D01*
X95074658Y-67681370D01*
X95619457Y-67137521D01*
X95914663Y-66426584D01*
X95915335Y-65656793D01*
X95621370Y-64945342D01*
X95077521Y-64400543D01*
X94366584Y-64105337D01*
X93596793Y-64104665D01*
X92885342Y-64398630D01*
X92340543Y-64942479D01*
X92045337Y-65653416D01*
X92044665Y-66423207D01*
X92338630Y-67134658D01*
X92882479Y-67679457D01*
X93220000Y-67819608D01*
X93220000Y-69187427D01*
X92928936Y-68895854D01*
X91964454Y-68495366D01*
X90920128Y-68494455D01*
X89954948Y-68893259D01*
X89340354Y-69506781D01*
X89564663Y-68966584D01*
X89565335Y-68196793D01*
X89271370Y-67485342D01*
X88770000Y-66983096D01*
X88770000Y-65925105D01*
X88911441Y-65834090D01*
X89056431Y-65621890D01*
X89107440Y-65370000D01*
X89107440Y-64170000D01*
X89063162Y-63934683D01*
X88924090Y-63718559D01*
X88711890Y-63573569D01*
X88460000Y-63522560D01*
X87560000Y-63522560D01*
X87324683Y-63566838D01*
X87108559Y-63705910D01*
X86963569Y-63918110D01*
X86912560Y-64170000D01*
X86912560Y-65370000D01*
X86956838Y-65605317D01*
X87095910Y-65821441D01*
X87250000Y-65926726D01*
X87250000Y-66644668D01*
X87246793Y-66644665D01*
X86535342Y-66938630D01*
X85990543Y-67482479D01*
X85695337Y-68193416D01*
X85694665Y-68963207D01*
X85985953Y-69668180D01*
X85520123Y-69860658D01*
X85470000Y-69910694D01*
X85470000Y-65925105D01*
X85611441Y-65834090D01*
X85756431Y-65621890D01*
X85807440Y-65370000D01*
X85807440Y-64170000D01*
X85763162Y-63934683D01*
X85624090Y-63718559D01*
X85411890Y-63573569D01*
X85160000Y-63522560D01*
X84260000Y-63522560D01*
X84024683Y-63566838D01*
X83945000Y-63618113D01*
X83945000Y-61909802D01*
X92849680Y-53005122D01*
X92895167Y-53005162D01*
X93238943Y-52863117D01*
X93502192Y-52600327D01*
X93644838Y-52256799D01*
X93645139Y-51910928D01*
X117349772Y-51910928D01*
X117640611Y-51853076D01*
X117887173Y-51688329D01*
X119265183Y-50310319D01*
X119484673Y-50530193D01*
X119484673Y-50530193D01*
G37*
X119484673Y-50530193D02*
X119604719Y-50580041D01*
X119544820Y-50604852D01*
X119366192Y-50783481D01*
X119269519Y-51016870D01*
X119269519Y-51607429D01*
X119428269Y-51766179D01*
X120402519Y-51766179D01*
X120402519Y-51746179D01*
X120656519Y-51746179D01*
X120656519Y-51766179D01*
X121630769Y-51766179D01*
X121789519Y-51607429D01*
X121789519Y-51016870D01*
X121698860Y-50798000D01*
X125171618Y-50798000D01*
X125192599Y-50829401D01*
X132023198Y-57660000D01*
X121450047Y-57660000D01*
X121686943Y-57562117D01*
X121950192Y-57299327D01*
X122092838Y-56955799D01*
X122093162Y-56583833D01*
X121951117Y-56240057D01*
X121688327Y-55976808D01*
X121344799Y-55834162D01*
X121297923Y-55834121D01*
X121289519Y-55825717D01*
X121289519Y-55765217D01*
X121389836Y-55746341D01*
X121605960Y-55607269D01*
X121750950Y-55395069D01*
X121801959Y-55143179D01*
X121801959Y-53643179D01*
X121757681Y-53407862D01*
X121618609Y-53191738D01*
X121550513Y-53145210D01*
X121692846Y-53002877D01*
X121789519Y-52769488D01*
X121789519Y-52178929D01*
X121630769Y-52020179D01*
X120656519Y-52020179D01*
X120656519Y-52040179D01*
X120402519Y-52040179D01*
X120402519Y-52020179D01*
X119428269Y-52020179D01*
X119269519Y-52178929D01*
X119269519Y-52769488D01*
X119366192Y-53002877D01*
X119507429Y-53144115D01*
X119453078Y-53179089D01*
X119308088Y-53391289D01*
X119257079Y-53643179D01*
X119257079Y-55143179D01*
X119301357Y-55378496D01*
X119440429Y-55594620D01*
X119652629Y-55739610D01*
X119769519Y-55763281D01*
X119769519Y-56140519D01*
X119827371Y-56431358D01*
X119992118Y-56677920D01*
X120222878Y-56908680D01*
X120222838Y-56954167D01*
X120364883Y-57297943D01*
X120627673Y-57561192D01*
X120865628Y-57660000D01*
X116519802Y-57660000D01*
X116414400Y-57554598D01*
X116504838Y-57336799D01*
X116505162Y-56964833D01*
X116363117Y-56621057D01*
X116100327Y-56357808D01*
X115756799Y-56215162D01*
X115384833Y-56214838D01*
X115041057Y-56356883D01*
X114935046Y-56462710D01*
X114830327Y-56357808D01*
X114486799Y-56215162D01*
X114114833Y-56214838D01*
X113771057Y-56356883D01*
X113665046Y-56462710D01*
X113560327Y-56357808D01*
X113216799Y-56215162D01*
X112844833Y-56214838D01*
X112501057Y-56356883D01*
X112395046Y-56462710D01*
X112290327Y-56357808D01*
X111946799Y-56215162D01*
X111574833Y-56214838D01*
X111250000Y-56349056D01*
X111250000Y-55172463D01*
X111282192Y-55140327D01*
X111424838Y-54796799D01*
X111425162Y-54424833D01*
X111283117Y-54081057D01*
X111020327Y-53817808D01*
X110676799Y-53675162D01*
X110304833Y-53674838D01*
X109961057Y-53816883D01*
X109855046Y-53922710D01*
X109750327Y-53817808D01*
X109406799Y-53675162D01*
X109034833Y-53674838D01*
X108691057Y-53816883D01*
X108585046Y-53922710D01*
X108480327Y-53817808D01*
X108136799Y-53675162D01*
X107764833Y-53674838D01*
X107421057Y-53816883D01*
X107315046Y-53922710D01*
X107210327Y-53817808D01*
X106866799Y-53675162D01*
X106494833Y-53674838D01*
X106151057Y-53816883D01*
X105887808Y-54079673D01*
X105745162Y-54423201D01*
X105744838Y-54795167D01*
X105886883Y-55138943D01*
X105920000Y-55172118D01*
X105920000Y-61595000D01*
X105977852Y-61885839D01*
X106142599Y-62132401D01*
X107412599Y-63402401D01*
X107628275Y-63546511D01*
X107510000Y-63522560D01*
X106610000Y-63522560D01*
X106374683Y-63566838D01*
X106158559Y-63705910D01*
X106013569Y-63918110D01*
X105962560Y-64170000D01*
X105962560Y-65370000D01*
X106006838Y-65605317D01*
X106145910Y-65821441D01*
X106300000Y-65926726D01*
X106300000Y-66644668D01*
X106296793Y-66644665D01*
X105585342Y-66938630D01*
X105040543Y-67482479D01*
X104745337Y-68193416D01*
X104744665Y-68963207D01*
X105035953Y-69668180D01*
X104570123Y-69860658D01*
X104520000Y-69910694D01*
X104520000Y-65925105D01*
X104661441Y-65834090D01*
X104806431Y-65621890D01*
X104857440Y-65370000D01*
X104857440Y-64170000D01*
X104813162Y-63934683D01*
X104674090Y-63718559D01*
X104461890Y-63573569D01*
X104210000Y-63522560D01*
X103310000Y-63522560D01*
X103074683Y-63566838D01*
X102995000Y-63618113D01*
X102995000Y-60960000D01*
X102937148Y-60669161D01*
X102772401Y-60422599D01*
X102360000Y-60010198D01*
X102360000Y-53902463D01*
X102392192Y-53870327D01*
X102534838Y-53526799D01*
X102535162Y-53154833D01*
X102393117Y-52811057D01*
X102130327Y-52547808D01*
X101786799Y-52405162D01*
X101414833Y-52404838D01*
X101071057Y-52546883D01*
X100965046Y-52652710D01*
X100860327Y-52547808D01*
X100516799Y-52405162D01*
X100144833Y-52404838D01*
X99801057Y-52546883D01*
X99695046Y-52652710D01*
X99590327Y-52547808D01*
X99246799Y-52405162D01*
X98874833Y-52404838D01*
X98531057Y-52546883D01*
X98425046Y-52652710D01*
X98320327Y-52547808D01*
X97976799Y-52405162D01*
X97604833Y-52404838D01*
X97261057Y-52546883D01*
X96997808Y-52809673D01*
X96855162Y-53153201D01*
X96854838Y-53525167D01*
X96996883Y-53868943D01*
X97030000Y-53902118D01*
X97030000Y-58424230D01*
X97087852Y-58715069D01*
X97252599Y-58961631D01*
X99570000Y-61279032D01*
X99570000Y-119380000D01*
X99627852Y-119670839D01*
X99792599Y-119917401D01*
X102332599Y-122457401D01*
X102579160Y-122622148D01*
X102627414Y-122631746D01*
X102685771Y-122643354D01*
X102706838Y-122755317D01*
X102845910Y-122971441D01*
X103000000Y-123076726D01*
X103000000Y-128358455D01*
X103057852Y-128649294D01*
X103222599Y-128895856D01*
X106324896Y-131998153D01*
X105896485Y-132175169D01*
X105506539Y-132564436D01*
X105295241Y-133073298D01*
X105294760Y-133624285D01*
X105505169Y-134133515D01*
X105798170Y-134427028D01*
X105730198Y-134495000D01*
X97082463Y-134495000D01*
X97050327Y-134462808D01*
X96706799Y-134320162D01*
X96334833Y-134319838D01*
X96106008Y-134414386D01*
X96410761Y-134110164D01*
X96622059Y-133601302D01*
X96622540Y-133050315D01*
X96412131Y-132541085D01*
X96022864Y-132151139D01*
X95997300Y-132140524D01*
X95997300Y-129640363D01*
X96210693Y-129728972D01*
X96801316Y-129729488D01*
X97347177Y-129503942D01*
X97765174Y-129086674D01*
X97991672Y-128541207D01*
X97992188Y-127950584D01*
X97766642Y-127404723D01*
X97349374Y-126986726D01*
X96803907Y-126760228D01*
X96352301Y-126759833D01*
X96352301Y-115702961D01*
X96294449Y-115412122D01*
X96215178Y-115293484D01*
X96423461Y-115085564D01*
X96634759Y-114576702D01*
X96635240Y-114025715D01*
X96424831Y-113516485D01*
X96035564Y-113126539D01*
X96010000Y-113115924D01*
X96010000Y-110615763D01*
X96223393Y-110704372D01*
X96814016Y-110704888D01*
X97359877Y-110479342D01*
X97777874Y-110062074D01*
X98004372Y-109516607D01*
X98004888Y-108925984D01*
X97779342Y-108380123D01*
X97362074Y-107962126D01*
X96816607Y-107735628D01*
X96365001Y-107735233D01*
X96365001Y-96665661D01*
X96348790Y-96584162D01*
X96307149Y-96374821D01*
X96217706Y-96240961D01*
X96423461Y-96035564D01*
X96634759Y-95526702D01*
X96635240Y-94975715D01*
X96424831Y-94466485D01*
X96035564Y-94076539D01*
X96010000Y-94065924D01*
X96010000Y-91565763D01*
X96223393Y-91654372D01*
X96814016Y-91654888D01*
X97359877Y-91429342D01*
X97777874Y-91012074D01*
X98004372Y-90466607D01*
X98004888Y-89875984D01*
X97779342Y-89330123D01*
X97362074Y-88912126D01*
X96816607Y-88685628D01*
X96365001Y-88685233D01*
X96365001Y-84309999D01*
X96352238Y-84245837D01*
X96307149Y-84019159D01*
X96142402Y-83772598D01*
X96010000Y-83640196D01*
X96010000Y-77384547D01*
X96033515Y-77374831D01*
X96423461Y-76985564D01*
X96634759Y-76476702D01*
X96635240Y-75925715D01*
X96424831Y-75416485D01*
X96035564Y-75026539D01*
X95526702Y-74815241D01*
X94975715Y-74814760D01*
X94740000Y-74912155D01*
X94740000Y-73974802D01*
X95152401Y-73562401D01*
X95317148Y-73315839D01*
X95375000Y-73025000D01*
X95375000Y-72074419D01*
X95677926Y-72377874D01*
X96223393Y-72604372D01*
X96814016Y-72604888D01*
X97359877Y-72379342D01*
X97777874Y-71962074D01*
X98004372Y-71416607D01*
X98004888Y-70825984D01*
X97779342Y-70280123D01*
X97362074Y-69862126D01*
X96816607Y-69635628D01*
X96225984Y-69635112D01*
X95680123Y-69860658D01*
X95375000Y-70165249D01*
X95375000Y-69850000D01*
X95317148Y-69559161D01*
X95152401Y-69312599D01*
X94740000Y-68900198D01*
X94740000Y-67819648D01*
X95074658Y-67681370D01*
X95619457Y-67137521D01*
X95914663Y-66426584D01*
X95915335Y-65656793D01*
X95621370Y-64945342D01*
X95077521Y-64400543D01*
X94366584Y-64105337D01*
X93596793Y-64104665D01*
X92885342Y-64398630D01*
X92340543Y-64942479D01*
X92045337Y-65653416D01*
X92044665Y-66423207D01*
X92338630Y-67134658D01*
X92882479Y-67679457D01*
X93220000Y-67819608D01*
X93220000Y-69187427D01*
X92928936Y-68895854D01*
X91964454Y-68495366D01*
X90920128Y-68494455D01*
X89954948Y-68893259D01*
X89340354Y-69506781D01*
X89564663Y-68966584D01*
X89565335Y-68196793D01*
X89271370Y-67485342D01*
X88770000Y-66983096D01*
X88770000Y-65925105D01*
X88911441Y-65834090D01*
X89056431Y-65621890D01*
X89107440Y-65370000D01*
X89107440Y-64170000D01*
X89063162Y-63934683D01*
X88924090Y-63718559D01*
X88711890Y-63573569D01*
X88460000Y-63522560D01*
X87560000Y-63522560D01*
X87324683Y-63566838D01*
X87108559Y-63705910D01*
X86963569Y-63918110D01*
X86912560Y-64170000D01*
X86912560Y-65370000D01*
X86956838Y-65605317D01*
X87095910Y-65821441D01*
X87250000Y-65926726D01*
X87250000Y-66644668D01*
X87246793Y-66644665D01*
X86535342Y-66938630D01*
X85990543Y-67482479D01*
X85695337Y-68193416D01*
X85694665Y-68963207D01*
X85985953Y-69668180D01*
X85520123Y-69860658D01*
X85470000Y-69910694D01*
X85470000Y-65925105D01*
X85611441Y-65834090D01*
X85756431Y-65621890D01*
X85807440Y-65370000D01*
X85807440Y-64170000D01*
X85763162Y-63934683D01*
X85624090Y-63718559D01*
X85411890Y-63573569D01*
X85160000Y-63522560D01*
X84260000Y-63522560D01*
X84024683Y-63566838D01*
X83945000Y-63618113D01*
X83945000Y-61909802D01*
X92849680Y-53005122D01*
X92895167Y-53005162D01*
X93238943Y-52863117D01*
X93502192Y-52600327D01*
X93644838Y-52256799D01*
X93645139Y-51910928D01*
X117349772Y-51910928D01*
X117640611Y-51853076D01*
X117887173Y-51688329D01*
X119265183Y-50310319D01*
X119484673Y-50530193D01*
G36*
X169290000Y-51335063D02*
X169164000Y-51310000D01*
X166932463Y-51310000D01*
X166900327Y-51277808D01*
X166556799Y-51135162D01*
X166184833Y-51134838D01*
X165841057Y-51276883D01*
X165577808Y-51539673D01*
X165435162Y-51883201D01*
X165434838Y-52255167D01*
X165576883Y-52598943D01*
X165839673Y-52862192D01*
X166183201Y-53004838D01*
X166555167Y-53005162D01*
X166898943Y-52863117D01*
X166932118Y-52830000D01*
X168785000Y-52830000D01*
X168785000Y-56206537D01*
X168766586Y-56224920D01*
X164110456Y-51568790D01*
X164358943Y-51466117D01*
X164622192Y-51203327D01*
X164764838Y-50859799D01*
X164764879Y-50812923D01*
X166049802Y-49528000D01*
X166823537Y-49528000D01*
X166855673Y-49560192D01*
X167199201Y-49702838D01*
X167571167Y-49703162D01*
X167914943Y-49561117D01*
X168178192Y-49298327D01*
X168320838Y-48954799D01*
X168321162Y-48582833D01*
X168179117Y-48239057D01*
X168009791Y-48069435D01*
X168178192Y-47901327D01*
X168320838Y-47557799D01*
X168321162Y-47185833D01*
X168179117Y-46842057D01*
X167916327Y-46578808D01*
X167572799Y-46436162D01*
X167200833Y-46435838D01*
X166857057Y-46577883D01*
X166823882Y-46611000D01*
X165862000Y-46611000D01*
X165571161Y-46668852D01*
X165324599Y-46833599D01*
X163690320Y-48467878D01*
X163644833Y-48467838D01*
X163301057Y-48609883D01*
X163037808Y-48872673D01*
X162895162Y-49216201D01*
X162894838Y-49588167D01*
X163036883Y-49931943D01*
X163142710Y-50037954D01*
X163037808Y-50142673D01*
X162934098Y-50392432D01*
X156164285Y-43622619D01*
X162864613Y-43622619D01*
X163204155Y-44444372D01*
X163832321Y-45073636D01*
X164653481Y-45414611D01*
X165542619Y-45415387D01*
X166364372Y-45075845D01*
X166993636Y-44447679D01*
X167334611Y-43626519D01*
X167335387Y-42737381D01*
X166995845Y-41915628D01*
X166367679Y-41286364D01*
X165546519Y-40945389D01*
X164657381Y-40944613D01*
X163835628Y-41284155D01*
X163206364Y-41912321D01*
X162865389Y-42733481D01*
X162864613Y-43622619D01*
X156164285Y-43622619D01*
X155949106Y-43407440D01*
X157060000Y-43407440D01*
X157295317Y-43363162D01*
X157511441Y-43224090D01*
X157656431Y-43011890D01*
X157707440Y-42760000D01*
X157707440Y-41060000D01*
X157663162Y-40824683D01*
X157524090Y-40608559D01*
X157311890Y-40463569D01*
X157060000Y-40412560D01*
X155360000Y-40412560D01*
X155124683Y-40456838D01*
X154908559Y-40595910D01*
X154763569Y-40808110D01*
X154749914Y-40875541D01*
X154720054Y-40830853D01*
X154238285Y-40508946D01*
X153670000Y-40395907D01*
X153101715Y-40508946D01*
X152619946Y-40830853D01*
X152400000Y-41160026D01*
X152180054Y-40830853D01*
X151698285Y-40508946D01*
X151130000Y-40395907D01*
X150561715Y-40508946D01*
X150079946Y-40830853D01*
X149852298Y-41171553D01*
X149785183Y-41028642D01*
X149356924Y-40638355D01*
X148946890Y-40468524D01*
X148717000Y-40589845D01*
X148717000Y-41783000D01*
X148737000Y-41783000D01*
X148737000Y-42037000D01*
X148717000Y-42037000D01*
X148717000Y-42057000D01*
X148463000Y-42057000D01*
X148463000Y-42037000D01*
X147269181Y-42037000D01*
X147148514Y-42266892D01*
X147175804Y-42325001D01*
X140040464Y-42325001D01*
X140008328Y-42292809D01*
X139664800Y-42150163D01*
X139292834Y-42149839D01*
X138949058Y-42291884D01*
X138685809Y-42554674D01*
X138543163Y-42898202D01*
X138542839Y-43270168D01*
X138629250Y-43479298D01*
X137796287Y-43479298D01*
X137505448Y-43537150D01*
X137505446Y-43537151D01*
X137505447Y-43537151D01*
X137258885Y-43701897D01*
X137199570Y-43761213D01*
X136864793Y-44095991D01*
X136254402Y-43485600D01*
X136007840Y-43320853D01*
X135717001Y-43263001D01*
X130347999Y-43263001D01*
X130057160Y-43320853D01*
X129956787Y-43387920D01*
X129862833Y-43387838D01*
X129519057Y-43529883D01*
X129255808Y-43792673D01*
X129113162Y-44136201D01*
X129112838Y-44508167D01*
X129254883Y-44851943D01*
X129517673Y-45115192D01*
X129861201Y-45257838D01*
X130233167Y-45258162D01*
X130576943Y-45116117D01*
X130840192Y-44853327D01*
X130869394Y-44783001D01*
X132902973Y-44783001D01*
X132823673Y-44862301D01*
X132727000Y-45095690D01*
X132727000Y-45561250D01*
X132885750Y-45720000D01*
X133985000Y-45720000D01*
X133985000Y-45700000D01*
X134239000Y-45700000D01*
X134239000Y-45720000D01*
X134259000Y-45720000D01*
X134259000Y-45974000D01*
X134239000Y-45974000D01*
X134239000Y-46948250D01*
X134397750Y-47107000D01*
X134988309Y-47107000D01*
X135221698Y-47010327D01*
X135362936Y-46869090D01*
X135397910Y-46923441D01*
X135610110Y-47068431D01*
X135862000Y-47119440D01*
X137362000Y-47119440D01*
X137597317Y-47075162D01*
X137813441Y-46936090D01*
X137958431Y-46723890D01*
X138009440Y-46472000D01*
X138009440Y-45222000D01*
X137990269Y-45120118D01*
X138111089Y-44999298D01*
X139903416Y-44999298D01*
X139935552Y-45031490D01*
X140279080Y-45174136D01*
X140325956Y-45174177D01*
X142818198Y-47666419D01*
X140495581Y-47666419D01*
X140204741Y-47724271D01*
X139958180Y-47889018D01*
X137816137Y-50031061D01*
X137799994Y-50020031D01*
X137942327Y-49877698D01*
X138039000Y-49644309D01*
X138039000Y-49053750D01*
X137880250Y-48895000D01*
X136906000Y-48895000D01*
X136906000Y-48915000D01*
X136652000Y-48915000D01*
X136652000Y-48895000D01*
X135677750Y-48895000D01*
X135519000Y-49053750D01*
X135519000Y-49644309D01*
X135615673Y-49877698D01*
X135756910Y-50018936D01*
X135702559Y-50053910D01*
X135557569Y-50266110D01*
X135506560Y-50518000D01*
X135506560Y-52018000D01*
X135550838Y-52253317D01*
X135689910Y-52469441D01*
X135902110Y-52614431D01*
X136154000Y-52665440D01*
X137404000Y-52665440D01*
X137639317Y-52621162D01*
X137855441Y-52482090D01*
X138000431Y-52269890D01*
X138051440Y-52018000D01*
X138051440Y-51898920D01*
X138191401Y-51805401D01*
X140038490Y-49958312D01*
X149721796Y-49958312D01*
X149968099Y-50482778D01*
X150396358Y-50873065D01*
X150806392Y-51042896D01*
X151036282Y-50921575D01*
X151036282Y-49728420D01*
X149842463Y-49728420D01*
X149721796Y-49958312D01*
X140038490Y-49958312D01*
X140810383Y-49186419D01*
X149749086Y-49186419D01*
X149721796Y-49244528D01*
X149842463Y-49474420D01*
X151036282Y-49474420D01*
X151036282Y-49454420D01*
X151290282Y-49454420D01*
X151290282Y-49474420D01*
X151310282Y-49474420D01*
X151310282Y-49728420D01*
X151290282Y-49728420D01*
X151290282Y-50921575D01*
X151520172Y-51042896D01*
X151930206Y-50873065D01*
X152358465Y-50482778D01*
X152425580Y-50339867D01*
X152653228Y-50680567D01*
X153134997Y-51002474D01*
X153662499Y-51107401D01*
X151544901Y-53224999D01*
X145786001Y-53224999D01*
X145495161Y-53282851D01*
X145248600Y-53447598D01*
X143824215Y-54871983D01*
X143659327Y-54706808D01*
X143315799Y-54564162D01*
X142943833Y-54563838D01*
X142600057Y-54705883D01*
X142336808Y-54968673D01*
X142194162Y-55312201D01*
X142193838Y-55684167D01*
X142335883Y-56027943D01*
X142501924Y-56194274D01*
X141544198Y-57152000D01*
X133664802Y-57152000D01*
X127310802Y-50798000D01*
X130050000Y-50798000D01*
X130050000Y-51927000D01*
X130107852Y-52217839D01*
X130272599Y-52464401D01*
X132574599Y-54766401D01*
X132715834Y-54860771D01*
X132758838Y-55089317D01*
X132897910Y-55305441D01*
X133110110Y-55450431D01*
X133362000Y-55501440D01*
X134862000Y-55501440D01*
X135097317Y-55457162D01*
X135313441Y-55318090D01*
X135359969Y-55249994D01*
X135502302Y-55392327D01*
X135735691Y-55489000D01*
X136326250Y-55489000D01*
X136485000Y-55330250D01*
X136485000Y-54356000D01*
X136739000Y-54356000D01*
X136739000Y-55330250D01*
X136897750Y-55489000D01*
X137488309Y-55489000D01*
X137721698Y-55392327D01*
X137900327Y-55213699D01*
X137997000Y-54980310D01*
X137997000Y-54514750D01*
X137838250Y-54356000D01*
X136739000Y-54356000D01*
X136485000Y-54356000D01*
X136465000Y-54356000D01*
X136465000Y-54102000D01*
X136485000Y-54102000D01*
X136485000Y-53127750D01*
X136739000Y-53127750D01*
X136739000Y-54102000D01*
X137838250Y-54102000D01*
X137997000Y-53943250D01*
X137997000Y-53477690D01*
X137900327Y-53244301D01*
X137721698Y-53065673D01*
X137488309Y-52969000D01*
X136897750Y-52969000D01*
X136739000Y-53127750D01*
X136485000Y-53127750D01*
X136326250Y-52969000D01*
X135735691Y-52969000D01*
X135502302Y-53065673D01*
X135361064Y-53206910D01*
X135326090Y-53152559D01*
X135113890Y-53007569D01*
X134862000Y-52956560D01*
X133362000Y-52956560D01*
X133126683Y-53000838D01*
X133024435Y-53066633D01*
X131570000Y-51612198D01*
X131570000Y-51593750D01*
X132725000Y-51593750D01*
X132725000Y-52184309D01*
X132821673Y-52417698D01*
X133000301Y-52596327D01*
X133233690Y-52693000D01*
X133699250Y-52693000D01*
X133858000Y-52534250D01*
X133858000Y-51435000D01*
X134112000Y-51435000D01*
X134112000Y-52534250D01*
X134270750Y-52693000D01*
X134736310Y-52693000D01*
X134969699Y-52596327D01*
X135148327Y-52417698D01*
X135245000Y-52184309D01*
X135245000Y-51593750D01*
X135086250Y-51435000D01*
X134112000Y-51435000D01*
X133858000Y-51435000D01*
X132883750Y-51435000D01*
X132725000Y-51593750D01*
X131570000Y-51593750D01*
X131570000Y-50798000D01*
X131880000Y-50798000D01*
X132170839Y-50740148D01*
X132417401Y-50575401D01*
X132947863Y-50044939D01*
X132964006Y-50055969D01*
X132821673Y-50198302D01*
X132725000Y-50431691D01*
X132725000Y-51022250D01*
X132883750Y-51181000D01*
X133858000Y-51181000D01*
X133858000Y-51161000D01*
X134112000Y-51161000D01*
X134112000Y-51181000D01*
X135086250Y-51181000D01*
X135245000Y-51022250D01*
X135245000Y-50431691D01*
X135148327Y-50198302D01*
X135007090Y-50057064D01*
X135061441Y-50022090D01*
X135206431Y-49809890D01*
X135257440Y-49558000D01*
X135257440Y-48058000D01*
X135226147Y-47891691D01*
X135519000Y-47891691D01*
X135519000Y-48482250D01*
X135677750Y-48641000D01*
X136652000Y-48641000D01*
X136652000Y-47541750D01*
X136906000Y-47541750D01*
X136906000Y-48641000D01*
X137880250Y-48641000D01*
X138039000Y-48482250D01*
X138039000Y-47891691D01*
X137942327Y-47658302D01*
X137763699Y-47479673D01*
X137530310Y-47383000D01*
X137064750Y-47383000D01*
X136906000Y-47541750D01*
X136652000Y-47541750D01*
X136493250Y-47383000D01*
X136027690Y-47383000D01*
X135794301Y-47479673D01*
X135615673Y-47658302D01*
X135519000Y-47891691D01*
X135226147Y-47891691D01*
X135213162Y-47822683D01*
X135074090Y-47606559D01*
X134861890Y-47461569D01*
X134610000Y-47410560D01*
X133360000Y-47410560D01*
X133124683Y-47454838D01*
X132908559Y-47593910D01*
X132763569Y-47806110D01*
X132712560Y-48058000D01*
X132712560Y-48177080D01*
X132572599Y-48270599D01*
X131744934Y-49098264D01*
X131745162Y-48836833D01*
X131603117Y-48493057D01*
X131340327Y-48229808D01*
X130996799Y-48087162D01*
X130624833Y-48086838D01*
X130281057Y-48228883D01*
X130247882Y-48262000D01*
X122224333Y-48262000D01*
X122331192Y-48155327D01*
X122473838Y-47811799D01*
X122474162Y-47439833D01*
X122332117Y-47096057D01*
X122069327Y-46832808D01*
X121801959Y-46721787D01*
X121801959Y-46132750D01*
X132727000Y-46132750D01*
X132727000Y-46598310D01*
X132823673Y-46831699D01*
X133002302Y-47010327D01*
X133235691Y-47107000D01*
X133826250Y-47107000D01*
X133985000Y-46948250D01*
X133985000Y-45974000D01*
X132885750Y-45974000D01*
X132727000Y-46132750D01*
X121801959Y-46132750D01*
X121801959Y-45261179D01*
X121757681Y-45025862D01*
X121618609Y-44809738D01*
X121550513Y-44763210D01*
X121692846Y-44620877D01*
X121789519Y-44387488D01*
X121789519Y-43796929D01*
X121630769Y-43638179D01*
X120656519Y-43638179D01*
X120656519Y-43658179D01*
X120402519Y-43658179D01*
X120402519Y-43638179D01*
X119428269Y-43638179D01*
X119269519Y-43796929D01*
X119269519Y-44387488D01*
X119366192Y-44620877D01*
X119507429Y-44762115D01*
X119453078Y-44797089D01*
X119308088Y-45009289D01*
X119257079Y-45261179D01*
X119257079Y-46761179D01*
X119301357Y-46996496D01*
X119440429Y-47212620D01*
X119652629Y-47357610D01*
X119904519Y-47408619D01*
X120247817Y-47408619D01*
X120603878Y-47764680D01*
X120603838Y-47810167D01*
X120745883Y-48153943D01*
X120853752Y-48262000D01*
X119478700Y-48262000D01*
X119187861Y-48319852D01*
X118941299Y-48484599D01*
X117034970Y-50390928D01*
X88894070Y-50390928D01*
X88603231Y-50448780D01*
X88356669Y-50613527D01*
X70710000Y-68260196D01*
X70710000Y-55684167D01*
X73918638Y-55684167D01*
X74060683Y-56027943D01*
X74323473Y-56291192D01*
X74667001Y-56433838D01*
X75038967Y-56434162D01*
X75382743Y-56292117D01*
X75645992Y-56029327D01*
X75788638Y-55685799D01*
X75788962Y-55313833D01*
X75646917Y-54970057D01*
X75613800Y-54936882D01*
X75613800Y-53627204D01*
X78773204Y-50467800D01*
X87909400Y-50467800D01*
X88200239Y-50409948D01*
X88446801Y-50245201D01*
X92053601Y-46638401D01*
X92218348Y-46391840D01*
X92231707Y-46324680D01*
X92276200Y-46101000D01*
X92276200Y-43158263D01*
X92308392Y-43126127D01*
X92451038Y-42782599D01*
X92451166Y-42634870D01*
X119269519Y-42634870D01*
X119269519Y-43225429D01*
X119428269Y-43384179D01*
X120402519Y-43384179D01*
X120402519Y-42284929D01*
X120656519Y-42284929D01*
X120656519Y-43384179D01*
X121630769Y-43384179D01*
X121789519Y-43225429D01*
X121789519Y-42634870D01*
X121692846Y-42401481D01*
X121514218Y-42222852D01*
X121280829Y-42126179D01*
X120815269Y-42126179D01*
X120656519Y-42284929D01*
X120402519Y-42284929D01*
X120243769Y-42126179D01*
X119778209Y-42126179D01*
X119544820Y-42222852D01*
X119366192Y-42401481D01*
X119269519Y-42634870D01*
X92451166Y-42634870D01*
X92451362Y-42410633D01*
X92309317Y-42066857D01*
X92046527Y-41803608D01*
X91702999Y-41660962D01*
X91331033Y-41660638D01*
X90987257Y-41802683D01*
X90724008Y-42065473D01*
X90581362Y-42409001D01*
X90581038Y-42780967D01*
X90723083Y-43124743D01*
X90756200Y-43157918D01*
X90756200Y-45786198D01*
X87594598Y-48947800D01*
X78458402Y-48947800D01*
X78167563Y-49005652D01*
X77921001Y-49170399D01*
X74316399Y-52775001D01*
X74151652Y-53021563D01*
X74093800Y-53312402D01*
X74093800Y-54936537D01*
X74061608Y-54968673D01*
X73918962Y-55312201D01*
X73918638Y-55684167D01*
X70710000Y-55684167D01*
X70710000Y-43622619D01*
X72694613Y-43622619D01*
X73034155Y-44444372D01*
X73662321Y-45073636D01*
X74483481Y-45414611D01*
X75372619Y-45415387D01*
X76194372Y-45075845D01*
X76823636Y-44447679D01*
X77164611Y-43626519D01*
X77165387Y-42737381D01*
X76825845Y-41915628D01*
X76463958Y-41553108D01*
X147148514Y-41553108D01*
X147269181Y-41783000D01*
X148463000Y-41783000D01*
X148463000Y-40589845D01*
X148233110Y-40468524D01*
X147823076Y-40638355D01*
X147394817Y-41028642D01*
X147148514Y-41553108D01*
X76463958Y-41553108D01*
X76197679Y-41286364D01*
X75376519Y-40945389D01*
X74487381Y-40944613D01*
X73665628Y-41284155D01*
X73036364Y-41912321D01*
X72695389Y-42733481D01*
X72694613Y-43622619D01*
X70710000Y-43622619D01*
X70710000Y-39510000D01*
X169290000Y-39510000D01*
X169290000Y-51335063D01*
X169290000Y-51335063D01*
G37*
X169290000Y-51335063D02*
X169164000Y-51310000D01*
X166932463Y-51310000D01*
X166900327Y-51277808D01*
X166556799Y-51135162D01*
X166184833Y-51134838D01*
X165841057Y-51276883D01*
X165577808Y-51539673D01*
X165435162Y-51883201D01*
X165434838Y-52255167D01*
X165576883Y-52598943D01*
X165839673Y-52862192D01*
X166183201Y-53004838D01*
X166555167Y-53005162D01*
X166898943Y-52863117D01*
X166932118Y-52830000D01*
X168785000Y-52830000D01*
X168785000Y-56206537D01*
X168766586Y-56224920D01*
X164110456Y-51568790D01*
X164358943Y-51466117D01*
X164622192Y-51203327D01*
X164764838Y-50859799D01*
X164764879Y-50812923D01*
X166049802Y-49528000D01*
X166823537Y-49528000D01*
X166855673Y-49560192D01*
X167199201Y-49702838D01*
X167571167Y-49703162D01*
X167914943Y-49561117D01*
X168178192Y-49298327D01*
X168320838Y-48954799D01*
X168321162Y-48582833D01*
X168179117Y-48239057D01*
X168009791Y-48069435D01*
X168178192Y-47901327D01*
X168320838Y-47557799D01*
X168321162Y-47185833D01*
X168179117Y-46842057D01*
X167916327Y-46578808D01*
X167572799Y-46436162D01*
X167200833Y-46435838D01*
X166857057Y-46577883D01*
X166823882Y-46611000D01*
X165862000Y-46611000D01*
X165571161Y-46668852D01*
X165324599Y-46833599D01*
X163690320Y-48467878D01*
X163644833Y-48467838D01*
X163301057Y-48609883D01*
X163037808Y-48872673D01*
X162895162Y-49216201D01*
X162894838Y-49588167D01*
X163036883Y-49931943D01*
X163142710Y-50037954D01*
X163037808Y-50142673D01*
X162934098Y-50392432D01*
X156164285Y-43622619D01*
X162864613Y-43622619D01*
X163204155Y-44444372D01*
X163832321Y-45073636D01*
X164653481Y-45414611D01*
X165542619Y-45415387D01*
X166364372Y-45075845D01*
X166993636Y-44447679D01*
X167334611Y-43626519D01*
X167335387Y-42737381D01*
X166995845Y-41915628D01*
X166367679Y-41286364D01*
X165546519Y-40945389D01*
X164657381Y-40944613D01*
X163835628Y-41284155D01*
X163206364Y-41912321D01*
X162865389Y-42733481D01*
X162864613Y-43622619D01*
X156164285Y-43622619D01*
X155949106Y-43407440D01*
X157060000Y-43407440D01*
X157295317Y-43363162D01*
X157511441Y-43224090D01*
X157656431Y-43011890D01*
X157707440Y-42760000D01*
X157707440Y-41060000D01*
X157663162Y-40824683D01*
X157524090Y-40608559D01*
X157311890Y-40463569D01*
X157060000Y-40412560D01*
X155360000Y-40412560D01*
X155124683Y-40456838D01*
X154908559Y-40595910D01*
X154763569Y-40808110D01*
X154749914Y-40875541D01*
X154720054Y-40830853D01*
X154238285Y-40508946D01*
X153670000Y-40395907D01*
X153101715Y-40508946D01*
X152619946Y-40830853D01*
X152400000Y-41160026D01*
X152180054Y-40830853D01*
X151698285Y-40508946D01*
X151130000Y-40395907D01*
X150561715Y-40508946D01*
X150079946Y-40830853D01*
X149852298Y-41171553D01*
X149785183Y-41028642D01*
X149356924Y-40638355D01*
X148946890Y-40468524D01*
X148717000Y-40589845D01*
X148717000Y-41783000D01*
X148737000Y-41783000D01*
X148737000Y-42037000D01*
X148717000Y-42037000D01*
X148717000Y-42057000D01*
X148463000Y-42057000D01*
X148463000Y-42037000D01*
X147269181Y-42037000D01*
X147148514Y-42266892D01*
X147175804Y-42325001D01*
X140040464Y-42325001D01*
X140008328Y-42292809D01*
X139664800Y-42150163D01*
X139292834Y-42149839D01*
X138949058Y-42291884D01*
X138685809Y-42554674D01*
X138543163Y-42898202D01*
X138542839Y-43270168D01*
X138629250Y-43479298D01*
X137796287Y-43479298D01*
X137505448Y-43537150D01*
X137505446Y-43537151D01*
X137505447Y-43537151D01*
X137258885Y-43701897D01*
X137199570Y-43761213D01*
X136864793Y-44095991D01*
X136254402Y-43485600D01*
X136007840Y-43320853D01*
X135717001Y-43263001D01*
X130347999Y-43263001D01*
X130057160Y-43320853D01*
X129956787Y-43387920D01*
X129862833Y-43387838D01*
X129519057Y-43529883D01*
X129255808Y-43792673D01*
X129113162Y-44136201D01*
X129112838Y-44508167D01*
X129254883Y-44851943D01*
X129517673Y-45115192D01*
X129861201Y-45257838D01*
X130233167Y-45258162D01*
X130576943Y-45116117D01*
X130840192Y-44853327D01*
X130869394Y-44783001D01*
X132902973Y-44783001D01*
X132823673Y-44862301D01*
X132727000Y-45095690D01*
X132727000Y-45561250D01*
X132885750Y-45720000D01*
X133985000Y-45720000D01*
X133985000Y-45700000D01*
X134239000Y-45700000D01*
X134239000Y-45720000D01*
X134259000Y-45720000D01*
X134259000Y-45974000D01*
X134239000Y-45974000D01*
X134239000Y-46948250D01*
X134397750Y-47107000D01*
X134988309Y-47107000D01*
X135221698Y-47010327D01*
X135362936Y-46869090D01*
X135397910Y-46923441D01*
X135610110Y-47068431D01*
X135862000Y-47119440D01*
X137362000Y-47119440D01*
X137597317Y-47075162D01*
X137813441Y-46936090D01*
X137958431Y-46723890D01*
X138009440Y-46472000D01*
X138009440Y-45222000D01*
X137990269Y-45120118D01*
X138111089Y-44999298D01*
X139903416Y-44999298D01*
X139935552Y-45031490D01*
X140279080Y-45174136D01*
X140325956Y-45174177D01*
X142818198Y-47666419D01*
X140495581Y-47666419D01*
X140204741Y-47724271D01*
X139958180Y-47889018D01*
X137816137Y-50031061D01*
X137799994Y-50020031D01*
X137942327Y-49877698D01*
X138039000Y-49644309D01*
X138039000Y-49053750D01*
X137880250Y-48895000D01*
X136906000Y-48895000D01*
X136906000Y-48915000D01*
X136652000Y-48915000D01*
X136652000Y-48895000D01*
X135677750Y-48895000D01*
X135519000Y-49053750D01*
X135519000Y-49644309D01*
X135615673Y-49877698D01*
X135756910Y-50018936D01*
X135702559Y-50053910D01*
X135557569Y-50266110D01*
X135506560Y-50518000D01*
X135506560Y-52018000D01*
X135550838Y-52253317D01*
X135689910Y-52469441D01*
X135902110Y-52614431D01*
X136154000Y-52665440D01*
X137404000Y-52665440D01*
X137639317Y-52621162D01*
X137855441Y-52482090D01*
X138000431Y-52269890D01*
X138051440Y-52018000D01*
X138051440Y-51898920D01*
X138191401Y-51805401D01*
X140038490Y-49958312D01*
X149721796Y-49958312D01*
X149968099Y-50482778D01*
X150396358Y-50873065D01*
X150806392Y-51042896D01*
X151036282Y-50921575D01*
X151036282Y-49728420D01*
X149842463Y-49728420D01*
X149721796Y-49958312D01*
X140038490Y-49958312D01*
X140810383Y-49186419D01*
X149749086Y-49186419D01*
X149721796Y-49244528D01*
X149842463Y-49474420D01*
X151036282Y-49474420D01*
X151036282Y-49454420D01*
X151290282Y-49454420D01*
X151290282Y-49474420D01*
X151310282Y-49474420D01*
X151310282Y-49728420D01*
X151290282Y-49728420D01*
X151290282Y-50921575D01*
X151520172Y-51042896D01*
X151930206Y-50873065D01*
X152358465Y-50482778D01*
X152425580Y-50339867D01*
X152653228Y-50680567D01*
X153134997Y-51002474D01*
X153662499Y-51107401D01*
X151544901Y-53224999D01*
X145786001Y-53224999D01*
X145495161Y-53282851D01*
X145248600Y-53447598D01*
X143824215Y-54871983D01*
X143659327Y-54706808D01*
X143315799Y-54564162D01*
X142943833Y-54563838D01*
X142600057Y-54705883D01*
X142336808Y-54968673D01*
X142194162Y-55312201D01*
X142193838Y-55684167D01*
X142335883Y-56027943D01*
X142501924Y-56194274D01*
X141544198Y-57152000D01*
X133664802Y-57152000D01*
X127310802Y-50798000D01*
X130050000Y-50798000D01*
X130050000Y-51927000D01*
X130107852Y-52217839D01*
X130272599Y-52464401D01*
X132574599Y-54766401D01*
X132715834Y-54860771D01*
X132758838Y-55089317D01*
X132897910Y-55305441D01*
X133110110Y-55450431D01*
X133362000Y-55501440D01*
X134862000Y-55501440D01*
X135097317Y-55457162D01*
X135313441Y-55318090D01*
X135359969Y-55249994D01*
X135502302Y-55392327D01*
X135735691Y-55489000D01*
X136326250Y-55489000D01*
X136485000Y-55330250D01*
X136485000Y-54356000D01*
X136739000Y-54356000D01*
X136739000Y-55330250D01*
X136897750Y-55489000D01*
X137488309Y-55489000D01*
X137721698Y-55392327D01*
X137900327Y-55213699D01*
X137997000Y-54980310D01*
X137997000Y-54514750D01*
X137838250Y-54356000D01*
X136739000Y-54356000D01*
X136485000Y-54356000D01*
X136465000Y-54356000D01*
X136465000Y-54102000D01*
X136485000Y-54102000D01*
X136485000Y-53127750D01*
X136739000Y-53127750D01*
X136739000Y-54102000D01*
X137838250Y-54102000D01*
X137997000Y-53943250D01*
X137997000Y-53477690D01*
X137900327Y-53244301D01*
X137721698Y-53065673D01*
X137488309Y-52969000D01*
X136897750Y-52969000D01*
X136739000Y-53127750D01*
X136485000Y-53127750D01*
X136326250Y-52969000D01*
X135735691Y-52969000D01*
X135502302Y-53065673D01*
X135361064Y-53206910D01*
X135326090Y-53152559D01*
X135113890Y-53007569D01*
X134862000Y-52956560D01*
X133362000Y-52956560D01*
X133126683Y-53000838D01*
X133024435Y-53066633D01*
X131570000Y-51612198D01*
X131570000Y-51593750D01*
X132725000Y-51593750D01*
X132725000Y-52184309D01*
X132821673Y-52417698D01*
X133000301Y-52596327D01*
X133233690Y-52693000D01*
X133699250Y-52693000D01*
X133858000Y-52534250D01*
X133858000Y-51435000D01*
X134112000Y-51435000D01*
X134112000Y-52534250D01*
X134270750Y-52693000D01*
X134736310Y-52693000D01*
X134969699Y-52596327D01*
X135148327Y-52417698D01*
X135245000Y-52184309D01*
X135245000Y-51593750D01*
X135086250Y-51435000D01*
X134112000Y-51435000D01*
X133858000Y-51435000D01*
X132883750Y-51435000D01*
X132725000Y-51593750D01*
X131570000Y-51593750D01*
X131570000Y-50798000D01*
X131880000Y-50798000D01*
X132170839Y-50740148D01*
X132417401Y-50575401D01*
X132947863Y-50044939D01*
X132964006Y-50055969D01*
X132821673Y-50198302D01*
X132725000Y-50431691D01*
X132725000Y-51022250D01*
X132883750Y-51181000D01*
X133858000Y-51181000D01*
X133858000Y-51161000D01*
X134112000Y-51161000D01*
X134112000Y-51181000D01*
X135086250Y-51181000D01*
X135245000Y-51022250D01*
X135245000Y-50431691D01*
X135148327Y-50198302D01*
X135007090Y-50057064D01*
X135061441Y-50022090D01*
X135206431Y-49809890D01*
X135257440Y-49558000D01*
X135257440Y-48058000D01*
X135226147Y-47891691D01*
X135519000Y-47891691D01*
X135519000Y-48482250D01*
X135677750Y-48641000D01*
X136652000Y-48641000D01*
X136652000Y-47541750D01*
X136906000Y-47541750D01*
X136906000Y-48641000D01*
X137880250Y-48641000D01*
X138039000Y-48482250D01*
X138039000Y-47891691D01*
X137942327Y-47658302D01*
X137763699Y-47479673D01*
X137530310Y-47383000D01*
X137064750Y-47383000D01*
X136906000Y-47541750D01*
X136652000Y-47541750D01*
X136493250Y-47383000D01*
X136027690Y-47383000D01*
X135794301Y-47479673D01*
X135615673Y-47658302D01*
X135519000Y-47891691D01*
X135226147Y-47891691D01*
X135213162Y-47822683D01*
X135074090Y-47606559D01*
X134861890Y-47461569D01*
X134610000Y-47410560D01*
X133360000Y-47410560D01*
X133124683Y-47454838D01*
X132908559Y-47593910D01*
X132763569Y-47806110D01*
X132712560Y-48058000D01*
X132712560Y-48177080D01*
X132572599Y-48270599D01*
X131744934Y-49098264D01*
X131745162Y-48836833D01*
X131603117Y-48493057D01*
X131340327Y-48229808D01*
X130996799Y-48087162D01*
X130624833Y-48086838D01*
X130281057Y-48228883D01*
X130247882Y-48262000D01*
X122224333Y-48262000D01*
X122331192Y-48155327D01*
X122473838Y-47811799D01*
X122474162Y-47439833D01*
X122332117Y-47096057D01*
X122069327Y-46832808D01*
X121801959Y-46721787D01*
X121801959Y-46132750D01*
X132727000Y-46132750D01*
X132727000Y-46598310D01*
X132823673Y-46831699D01*
X133002302Y-47010327D01*
X133235691Y-47107000D01*
X133826250Y-47107000D01*
X133985000Y-46948250D01*
X133985000Y-45974000D01*
X132885750Y-45974000D01*
X132727000Y-46132750D01*
X121801959Y-46132750D01*
X121801959Y-45261179D01*
X121757681Y-45025862D01*
X121618609Y-44809738D01*
X121550513Y-44763210D01*
X121692846Y-44620877D01*
X121789519Y-44387488D01*
X121789519Y-43796929D01*
X121630769Y-43638179D01*
X120656519Y-43638179D01*
X120656519Y-43658179D01*
X120402519Y-43658179D01*
X120402519Y-43638179D01*
X119428269Y-43638179D01*
X119269519Y-43796929D01*
X119269519Y-44387488D01*
X119366192Y-44620877D01*
X119507429Y-44762115D01*
X119453078Y-44797089D01*
X119308088Y-45009289D01*
X119257079Y-45261179D01*
X119257079Y-46761179D01*
X119301357Y-46996496D01*
X119440429Y-47212620D01*
X119652629Y-47357610D01*
X119904519Y-47408619D01*
X120247817Y-47408619D01*
X120603878Y-47764680D01*
X120603838Y-47810167D01*
X120745883Y-48153943D01*
X120853752Y-48262000D01*
X119478700Y-48262000D01*
X119187861Y-48319852D01*
X118941299Y-48484599D01*
X117034970Y-50390928D01*
X88894070Y-50390928D01*
X88603231Y-50448780D01*
X88356669Y-50613527D01*
X70710000Y-68260196D01*
X70710000Y-55684167D01*
X73918638Y-55684167D01*
X74060683Y-56027943D01*
X74323473Y-56291192D01*
X74667001Y-56433838D01*
X75038967Y-56434162D01*
X75382743Y-56292117D01*
X75645992Y-56029327D01*
X75788638Y-55685799D01*
X75788962Y-55313833D01*
X75646917Y-54970057D01*
X75613800Y-54936882D01*
X75613800Y-53627204D01*
X78773204Y-50467800D01*
X87909400Y-50467800D01*
X88200239Y-50409948D01*
X88446801Y-50245201D01*
X92053601Y-46638401D01*
X92218348Y-46391840D01*
X92231707Y-46324680D01*
X92276200Y-46101000D01*
X92276200Y-43158263D01*
X92308392Y-43126127D01*
X92451038Y-42782599D01*
X92451166Y-42634870D01*
X119269519Y-42634870D01*
X119269519Y-43225429D01*
X119428269Y-43384179D01*
X120402519Y-43384179D01*
X120402519Y-42284929D01*
X120656519Y-42284929D01*
X120656519Y-43384179D01*
X121630769Y-43384179D01*
X121789519Y-43225429D01*
X121789519Y-42634870D01*
X121692846Y-42401481D01*
X121514218Y-42222852D01*
X121280829Y-42126179D01*
X120815269Y-42126179D01*
X120656519Y-42284929D01*
X120402519Y-42284929D01*
X120243769Y-42126179D01*
X119778209Y-42126179D01*
X119544820Y-42222852D01*
X119366192Y-42401481D01*
X119269519Y-42634870D01*
X92451166Y-42634870D01*
X92451362Y-42410633D01*
X92309317Y-42066857D01*
X92046527Y-41803608D01*
X91702999Y-41660962D01*
X91331033Y-41660638D01*
X90987257Y-41802683D01*
X90724008Y-42065473D01*
X90581362Y-42409001D01*
X90581038Y-42780967D01*
X90723083Y-43124743D01*
X90756200Y-43157918D01*
X90756200Y-45786198D01*
X87594598Y-48947800D01*
X78458402Y-48947800D01*
X78167563Y-49005652D01*
X77921001Y-49170399D01*
X74316399Y-52775001D01*
X74151652Y-53021563D01*
X74093800Y-53312402D01*
X74093800Y-54936537D01*
X74061608Y-54968673D01*
X73918962Y-55312201D01*
X73918638Y-55684167D01*
X70710000Y-55684167D01*
X70710000Y-43622619D01*
X72694613Y-43622619D01*
X73034155Y-44444372D01*
X73662321Y-45073636D01*
X74483481Y-45414611D01*
X75372619Y-45415387D01*
X76194372Y-45075845D01*
X76823636Y-44447679D01*
X77164611Y-43626519D01*
X77165387Y-42737381D01*
X76825845Y-41915628D01*
X76463958Y-41553108D01*
X147148514Y-41553108D01*
X147269181Y-41783000D01*
X148463000Y-41783000D01*
X148463000Y-40589845D01*
X148233110Y-40468524D01*
X147823076Y-40638355D01*
X147394817Y-41028642D01*
X147148514Y-41553108D01*
X76463958Y-41553108D01*
X76197679Y-41286364D01*
X75376519Y-40945389D01*
X74487381Y-40944613D01*
X73665628Y-41284155D01*
X73036364Y-41912321D01*
X72695389Y-42733481D01*
X72694613Y-43622619D01*
X70710000Y-43622619D01*
X70710000Y-39510000D01*
X169290000Y-39510000D01*
X169290000Y-51335063D01*
G36*
X155956042Y-45563980D02*
X155393282Y-45563980D01*
X155157965Y-45608258D01*
X154941841Y-45747330D01*
X154796851Y-45959530D01*
X154783196Y-46026961D01*
X154753336Y-45982273D01*
X154271567Y-45660366D01*
X153703282Y-45547327D01*
X153134997Y-45660366D01*
X152653228Y-45982273D01*
X152433282Y-46311446D01*
X152213336Y-45982273D01*
X151731567Y-45660366D01*
X151163282Y-45547327D01*
X150594997Y-45660366D01*
X150113228Y-45982273D01*
X149791321Y-46464042D01*
X149678282Y-47032327D01*
X149678282Y-47090513D01*
X149791321Y-47658798D01*
X149796413Y-47666419D01*
X144967802Y-47666419D01*
X141401001Y-44099618D01*
X141401041Y-44054131D01*
X141314630Y-43845001D01*
X154237063Y-43845001D01*
X155956042Y-45563980D01*
X155956042Y-45563980D01*
G37*
X155956042Y-45563980D02*
X155393282Y-45563980D01*
X155157965Y-45608258D01*
X154941841Y-45747330D01*
X154796851Y-45959530D01*
X154783196Y-46026961D01*
X154753336Y-45982273D01*
X154271567Y-45660366D01*
X153703282Y-45547327D01*
X153134997Y-45660366D01*
X152653228Y-45982273D01*
X152433282Y-46311446D01*
X152213336Y-45982273D01*
X151731567Y-45660366D01*
X151163282Y-45547327D01*
X150594997Y-45660366D01*
X150113228Y-45982273D01*
X149791321Y-46464042D01*
X149678282Y-47032327D01*
X149678282Y-47090513D01*
X149791321Y-47658798D01*
X149796413Y-47666419D01*
X144967802Y-47666419D01*
X141401001Y-44099618D01*
X141401041Y-44054131D01*
X141314630Y-43845001D01*
X154237063Y-43845001D01*
X155956042Y-45563980D01*
M02*
