G04 #@! TF.FileFunction,Paste,Top*
%FSLAX46Y46*%
G04 Gerber Fmt 4.6, Leading zero omitted, Abs format (unit mm)*
G04 Created by KiCad (PCBNEW 4.0.6) date 2017 June 08, Thursday 05:28:43*
%MOMM*%
%LPD*%
G01*
G04 APERTURE LIST*
%ADD10C,0.100000*%
%ADD11R,0.398780X1.099820*%
%ADD12R,2.000000X3.800000*%
%ADD13R,2.000000X1.500000*%
%ADD14R,0.900000X1.200000*%
%ADD15R,1.300000X1.500000*%
%ADD16R,1.250000X1.500000*%
G04 APERTURE END LIST*
D10*
G36*
X155134134Y-107755188D02*
X155523042Y-107366280D01*
X156583702Y-108426940D01*
X156194794Y-108815848D01*
X155134134Y-107755188D01*
X155134134Y-107755188D01*
G37*
G36*
X154568449Y-108320874D02*
X154957357Y-107931966D01*
X156018017Y-108992626D01*
X155629109Y-109381534D01*
X154568449Y-108320874D01*
X154568449Y-108320874D01*
G37*
G36*
X154002764Y-108886559D02*
X154391672Y-108497651D01*
X155452332Y-109558311D01*
X155063424Y-109947219D01*
X154002764Y-108886559D01*
X154002764Y-108886559D01*
G37*
G36*
X153437078Y-109452244D02*
X153825986Y-109063336D01*
X154886646Y-110123996D01*
X154497738Y-110512904D01*
X153437078Y-109452244D01*
X153437078Y-109452244D01*
G37*
G36*
X152871393Y-110017930D02*
X153260301Y-109629022D01*
X154320961Y-110689682D01*
X153932053Y-111078590D01*
X152871393Y-110017930D01*
X152871393Y-110017930D01*
G37*
G36*
X152305707Y-110583615D02*
X152694615Y-110194707D01*
X153755275Y-111255367D01*
X153366367Y-111644275D01*
X152305707Y-110583615D01*
X152305707Y-110583615D01*
G37*
G36*
X151740022Y-111149301D02*
X152128930Y-110760393D01*
X153189590Y-111821053D01*
X152800682Y-112209961D01*
X151740022Y-111149301D01*
X151740022Y-111149301D01*
G37*
G36*
X151174336Y-111714986D02*
X151563244Y-111326078D01*
X152623904Y-112386738D01*
X152234996Y-112775646D01*
X151174336Y-111714986D01*
X151174336Y-111714986D01*
G37*
G36*
X150608651Y-112280672D02*
X150997559Y-111891764D01*
X152058219Y-112952424D01*
X151669311Y-113341332D01*
X150608651Y-112280672D01*
X150608651Y-112280672D01*
G37*
G36*
X150042966Y-112846357D02*
X150431874Y-112457449D01*
X151492534Y-113518109D01*
X151103626Y-113907017D01*
X150042966Y-112846357D01*
X150042966Y-112846357D01*
G37*
G36*
X149477280Y-113412042D02*
X149866188Y-113023134D01*
X150926848Y-114083794D01*
X150537940Y-114472702D01*
X149477280Y-113412042D01*
X149477280Y-113412042D01*
G37*
G36*
X149866188Y-116876866D02*
X149477280Y-116487958D01*
X150537940Y-115427298D01*
X150926848Y-115816206D01*
X149866188Y-116876866D01*
X149866188Y-116876866D01*
G37*
G36*
X150431874Y-117442551D02*
X150042966Y-117053643D01*
X151103626Y-115992983D01*
X151492534Y-116381891D01*
X150431874Y-117442551D01*
X150431874Y-117442551D01*
G37*
G36*
X150997559Y-118008236D02*
X150608651Y-117619328D01*
X151669311Y-116558668D01*
X152058219Y-116947576D01*
X150997559Y-118008236D01*
X150997559Y-118008236D01*
G37*
G36*
X151563244Y-118573922D02*
X151174336Y-118185014D01*
X152234996Y-117124354D01*
X152623904Y-117513262D01*
X151563244Y-118573922D01*
X151563244Y-118573922D01*
G37*
G36*
X152128930Y-119139607D02*
X151740022Y-118750699D01*
X152800682Y-117690039D01*
X153189590Y-118078947D01*
X152128930Y-119139607D01*
X152128930Y-119139607D01*
G37*
G36*
X152694615Y-119705293D02*
X152305707Y-119316385D01*
X153366367Y-118255725D01*
X153755275Y-118644633D01*
X152694615Y-119705293D01*
X152694615Y-119705293D01*
G37*
G36*
X153260301Y-120270978D02*
X152871393Y-119882070D01*
X153932053Y-118821410D01*
X154320961Y-119210318D01*
X153260301Y-120270978D01*
X153260301Y-120270978D01*
G37*
G36*
X153825986Y-120836664D02*
X153437078Y-120447756D01*
X154497738Y-119387096D01*
X154886646Y-119776004D01*
X153825986Y-120836664D01*
X153825986Y-120836664D01*
G37*
G36*
X154391672Y-121402349D02*
X154002764Y-121013441D01*
X155063424Y-119952781D01*
X155452332Y-120341689D01*
X154391672Y-121402349D01*
X154391672Y-121402349D01*
G37*
G36*
X154957357Y-121968034D02*
X154568449Y-121579126D01*
X155629109Y-120518466D01*
X156018017Y-120907374D01*
X154957357Y-121968034D01*
X154957357Y-121968034D01*
G37*
G36*
X155523042Y-122533720D02*
X155134134Y-122144812D01*
X156194794Y-121084152D01*
X156583702Y-121473060D01*
X155523042Y-122533720D01*
X155523042Y-122533720D01*
G37*
G36*
X157538298Y-121473060D02*
X157927206Y-121084152D01*
X158987866Y-122144812D01*
X158598958Y-122533720D01*
X157538298Y-121473060D01*
X157538298Y-121473060D01*
G37*
G36*
X158103983Y-120907374D02*
X158492891Y-120518466D01*
X159553551Y-121579126D01*
X159164643Y-121968034D01*
X158103983Y-120907374D01*
X158103983Y-120907374D01*
G37*
G36*
X158669668Y-120341689D02*
X159058576Y-119952781D01*
X160119236Y-121013441D01*
X159730328Y-121402349D01*
X158669668Y-120341689D01*
X158669668Y-120341689D01*
G37*
G36*
X159235354Y-119776004D02*
X159624262Y-119387096D01*
X160684922Y-120447756D01*
X160296014Y-120836664D01*
X159235354Y-119776004D01*
X159235354Y-119776004D01*
G37*
G36*
X159801039Y-119210318D02*
X160189947Y-118821410D01*
X161250607Y-119882070D01*
X160861699Y-120270978D01*
X159801039Y-119210318D01*
X159801039Y-119210318D01*
G37*
G36*
X160366725Y-118644633D02*
X160755633Y-118255725D01*
X161816293Y-119316385D01*
X161427385Y-119705293D01*
X160366725Y-118644633D01*
X160366725Y-118644633D01*
G37*
G36*
X160932410Y-118078947D02*
X161321318Y-117690039D01*
X162381978Y-118750699D01*
X161993070Y-119139607D01*
X160932410Y-118078947D01*
X160932410Y-118078947D01*
G37*
G36*
X161498096Y-117513262D02*
X161887004Y-117124354D01*
X162947664Y-118185014D01*
X162558756Y-118573922D01*
X161498096Y-117513262D01*
X161498096Y-117513262D01*
G37*
G36*
X162063781Y-116947576D02*
X162452689Y-116558668D01*
X163513349Y-117619328D01*
X163124441Y-118008236D01*
X162063781Y-116947576D01*
X162063781Y-116947576D01*
G37*
G36*
X162629466Y-116381891D02*
X163018374Y-115992983D01*
X164079034Y-117053643D01*
X163690126Y-117442551D01*
X162629466Y-116381891D01*
X162629466Y-116381891D01*
G37*
G36*
X163195152Y-115816206D02*
X163584060Y-115427298D01*
X164644720Y-116487958D01*
X164255812Y-116876866D01*
X163195152Y-115816206D01*
X163195152Y-115816206D01*
G37*
G36*
X163584060Y-114472702D02*
X163195152Y-114083794D01*
X164255812Y-113023134D01*
X164644720Y-113412042D01*
X163584060Y-114472702D01*
X163584060Y-114472702D01*
G37*
G36*
X163018374Y-113907017D02*
X162629466Y-113518109D01*
X163690126Y-112457449D01*
X164079034Y-112846357D01*
X163018374Y-113907017D01*
X163018374Y-113907017D01*
G37*
G36*
X162452689Y-113341332D02*
X162063781Y-112952424D01*
X163124441Y-111891764D01*
X163513349Y-112280672D01*
X162452689Y-113341332D01*
X162452689Y-113341332D01*
G37*
G36*
X161887004Y-112775646D02*
X161498096Y-112386738D01*
X162558756Y-111326078D01*
X162947664Y-111714986D01*
X161887004Y-112775646D01*
X161887004Y-112775646D01*
G37*
G36*
X161321318Y-112209961D02*
X160932410Y-111821053D01*
X161993070Y-110760393D01*
X162381978Y-111149301D01*
X161321318Y-112209961D01*
X161321318Y-112209961D01*
G37*
G36*
X160755633Y-111644275D02*
X160366725Y-111255367D01*
X161427385Y-110194707D01*
X161816293Y-110583615D01*
X160755633Y-111644275D01*
X160755633Y-111644275D01*
G37*
G36*
X160189947Y-111078590D02*
X159801039Y-110689682D01*
X160861699Y-109629022D01*
X161250607Y-110017930D01*
X160189947Y-111078590D01*
X160189947Y-111078590D01*
G37*
G36*
X159624262Y-110512904D02*
X159235354Y-110123996D01*
X160296014Y-109063336D01*
X160684922Y-109452244D01*
X159624262Y-110512904D01*
X159624262Y-110512904D01*
G37*
G36*
X159058576Y-109947219D02*
X158669668Y-109558311D01*
X159730328Y-108497651D01*
X160119236Y-108886559D01*
X159058576Y-109947219D01*
X159058576Y-109947219D01*
G37*
G36*
X158492891Y-109381534D02*
X158103983Y-108992626D01*
X159164643Y-107931966D01*
X159553551Y-108320874D01*
X158492891Y-109381534D01*
X158492891Y-109381534D01*
G37*
G36*
X157927206Y-108815848D02*
X157538298Y-108426940D01*
X158598958Y-107366280D01*
X158987866Y-107755188D01*
X157927206Y-108815848D01*
X157927206Y-108815848D01*
G37*
D11*
X158480760Y-102870000D03*
X159131000Y-102870000D03*
X159781240Y-102870000D03*
X160431480Y-102870000D03*
X161081720Y-102870000D03*
X161726880Y-102870000D03*
X162377120Y-102870000D03*
X163027360Y-102870000D03*
X163677600Y-102870000D03*
X164327840Y-102870000D03*
X164327840Y-97170240D03*
X163677600Y-97170240D03*
X163027360Y-97170240D03*
X162377120Y-97170240D03*
X161726880Y-97170240D03*
X161081720Y-97170240D03*
X160431480Y-97170240D03*
X159781240Y-97170240D03*
X159131000Y-97170240D03*
X158480760Y-97170240D03*
X150124160Y-102925880D03*
X150774400Y-102925880D03*
X151424640Y-102925880D03*
X152074880Y-102925880D03*
X152725120Y-102925880D03*
X153370280Y-102925880D03*
X154020520Y-102925880D03*
X154670760Y-102925880D03*
X155321000Y-102925880D03*
X155971240Y-102925880D03*
X155971240Y-97226120D03*
X155321000Y-97226120D03*
X154670760Y-97226120D03*
X154020520Y-97226120D03*
X153370280Y-97226120D03*
X152725120Y-97226120D03*
X152074880Y-97226120D03*
X151424640Y-97226120D03*
X150774400Y-97226120D03*
X150124160Y-97226120D03*
X154955240Y-126690120D03*
X154305000Y-126690120D03*
X153654760Y-126690120D03*
X153004520Y-126690120D03*
X152354280Y-126690120D03*
X151709120Y-126690120D03*
X151058880Y-126690120D03*
X150408640Y-126690120D03*
X149758400Y-126690120D03*
X149108160Y-126690120D03*
X149108160Y-132389880D03*
X149758400Y-132389880D03*
X150408640Y-132389880D03*
X151058880Y-132389880D03*
X151709120Y-132389880D03*
X152354280Y-132389880D03*
X153004520Y-132389880D03*
X153654760Y-132389880D03*
X154305000Y-132389880D03*
X154955240Y-132389880D03*
D12*
X155600000Y-66675000D03*
D13*
X161900000Y-66675000D03*
X161900000Y-64375000D03*
X161900000Y-68975000D03*
D14*
X154180000Y-44450000D03*
X157480000Y-44450000D03*
D15*
X161290000Y-53960000D03*
X161290000Y-51260000D03*
X151130000Y-53960000D03*
X151130000Y-51260000D03*
X156210000Y-53960000D03*
X156210000Y-51260000D03*
X166370000Y-53960000D03*
X166370000Y-51260000D03*
D16*
X156718000Y-131024000D03*
X156718000Y-128524000D03*
M02*
