G04 #@! TF.FileFunction,Paste,Bot*
%FSLAX46Y46*%
G04 Gerber Fmt 4.6, Leading zero omitted, Abs format (unit mm)*
G04 Created by KiCad (PCBNEW 4.0.6) date 2017 May 14, Sunday 21:17:59*
%MOMM*%
%LPD*%
G01*
G04 APERTURE LIST*
%ADD10C,0.100000*%
%ADD11R,0.900000X1.200000*%
%ADD12R,1.500000X1.250000*%
G04 APERTURE END LIST*
D10*
D11*
X82295000Y-46990000D03*
X78995000Y-46990000D03*
X82295000Y-64770000D03*
X78995000Y-64770000D03*
X82295000Y-82550000D03*
X78995000Y-82550000D03*
X82295000Y-100330000D03*
X78995000Y-100330000D03*
X82295000Y-118110000D03*
X78995000Y-118110000D03*
X100075000Y-118110000D03*
X96775000Y-118110000D03*
X100075000Y-100330000D03*
X96775000Y-100330000D03*
X100075000Y-82550000D03*
X96775000Y-82550000D03*
X100075000Y-64770000D03*
X96775000Y-64770000D03*
X100075000Y-46990000D03*
X96775000Y-46990000D03*
X117855000Y-46990000D03*
X114555000Y-46990000D03*
X117855000Y-64770000D03*
X114555000Y-64770000D03*
X117855000Y-82550000D03*
X114555000Y-82550000D03*
X117855000Y-100330000D03*
X114555000Y-100330000D03*
X117855000Y-118110000D03*
X114555000Y-118110000D03*
X135635000Y-118110000D03*
X132335000Y-118110000D03*
X135635000Y-100330000D03*
X132335000Y-100330000D03*
X135635000Y-82550000D03*
X132335000Y-82550000D03*
X135635000Y-64770000D03*
X132335000Y-64770000D03*
X135635000Y-46990000D03*
X132335000Y-46990000D03*
D12*
X154706000Y-99568000D03*
X157206000Y-99568000D03*
X160782000Y-99568000D03*
X163282000Y-99568000D03*
M02*
