M48
;DRILL file {KiCad 4.0.6} date 2017 May 14, Sunday 21:18:27
;FORMAT={-:-/ absolute / metric / decimal}
FMAT,2
METRIC,TZ
T1C0.400
T2C0.650
T3C1.000
T4C1.501
T5C1.699
T6C3.980
%
G90
G05
M71
T1
X78.74Y-48.895
X78.74Y-66.675
X78.74Y-84.455
X78.74Y-102.235
X78.74Y-120.015
X81.28Y-57.15
X81.28Y-74.93
X81.28Y-92.71
X81.28Y-110.49
X81.28Y-128.27
X81.915Y-55.245
X81.915Y-73.025
X81.915Y-90.805
X81.915Y-108.585
X81.915Y-126.365
X88.265Y-46.355
X90.17Y-39.37
X96.52Y-48.895
X96.52Y-66.675
X96.52Y-84.455
X96.52Y-102.235
X96.52Y-120.015
X96.52Y-135.255
X97.155Y-134.62
X97.79Y-133.985
X99.06Y-57.15
X99.06Y-74.93
X99.06Y-92.71
X99.06Y-110.49
X99.06Y-128.27
X99.06Y-135.255
X99.695Y-55.245
X99.695Y-73.025
X99.695Y-90.805
X99.695Y-108.585
X99.695Y-126.365
X105.41Y-134.62
X107.315Y-133.35
X114.3Y-48.895
X114.3Y-66.675
X114.3Y-84.455
X114.3Y-102.235
X114.3Y-120.015
X116.84Y-57.15
X116.84Y-74.93
X116.84Y-92.71
X116.84Y-110.49
X116.84Y-128.27
X117.475Y-55.245
X117.475Y-73.025
X117.475Y-90.805
X117.475Y-108.585
X117.475Y-126.365
X118.11Y-41.91
X119.38Y-45.085
X121.285Y-43.815
X121.285Y-45.085
X123.825Y-44.201
X125.095Y-45.085
X132.08Y-48.895
X132.08Y-66.675
X132.08Y-84.455
X132.08Y-102.235
X132.08Y-120.015
X132.08Y-135.255
X132.715Y-134.62
X133.35Y-133.985
X134.62Y-74.93
X134.62Y-92.71
X134.62Y-110.49
X134.62Y-128.27
X134.62Y-135.255
X135.255Y-73.025
X135.255Y-90.805
X135.255Y-108.585
X135.255Y-126.365
X140.97Y-134.62
X142.875Y-133.35
X145.288Y-68.072
X148.59Y-137.795
X149.098Y-98.298
X149.225Y-130.81
X149.225Y-134.62
X149.86Y-95.504
X149.86Y-128.27
X149.86Y-135.255
X150.368Y-94.488
X150.495Y-135.89
X150.622Y-68.072
X150.876Y-93.472
X150.876Y-110.236
X151.13Y-99.06
X151.384Y-92.456
X151.765Y-99.695
X152.4Y-100.33
X152.908Y-113.284
X152.908Y-121.92
X153.03Y-133.985
X153.035Y-100.965
X153.924Y-129.54
X155.194Y-101.346
X155.321Y-123.571
X155.448Y-118.872
X156.972Y-103.124
X156.972Y-113.284
X157.162Y-120.332
X157.48Y-119.38
X157.671Y-101.346
X158.305Y-128.016
X159.004Y-44.704
X159.258Y-101.346
X159.385Y-95.885
X160.02Y-95.25
X160.147Y-127.254
X160.274Y-101.346
X160.655Y-94.615
X160.655Y-116.205
X161.036Y-113.792
X161.29Y-93.98
X161.925Y-93.345
X162.306Y-71.12
X162.56Y-92.71
X163.195Y-92.075
X163.576Y-110.744
X163.83Y-91.44
X163.83Y-101.346
X165.1Y-114.935
X165.1Y-121.92
X165.354Y-75.692
X165.608Y-119.38
X166.116Y-120.904
X166.37Y-80.01
X167.386Y-75.692
T2
X74.93Y-75.565
X74.93Y-76.835
X74.93Y-78.105
X74.93Y-79.375
X74.93Y-80.645
X74.93Y-81.915
X162.306Y-123.952
X162.306Y-125.222
X162.306Y-126.492
X162.306Y-127.762
X162.306Y-129.032
X162.56Y-75.565
X162.56Y-76.835
X162.56Y-78.105
X162.56Y-79.375
X162.56Y-80.645
X162.56Y-81.915
X162.56Y-83.185
X162.56Y-84.455
X163.576Y-123.952
X163.576Y-125.222
X163.576Y-126.492
X163.576Y-127.762
X163.576Y-129.032
T3
X81.915Y-58.42
X81.915Y-76.2
X81.915Y-93.98
X81.915Y-111.76
X81.915Y-129.54
X84.455Y-58.42
X84.455Y-76.2
X84.455Y-93.98
X84.455Y-111.76
X84.455Y-129.54
X86.995Y-58.42
X86.995Y-76.2
X86.995Y-93.98
X86.995Y-111.76
X86.995Y-129.54
X89.535Y-58.42
X89.535Y-76.2
X89.535Y-93.98
X89.535Y-111.76
X89.535Y-129.54
X99.695Y-58.42
X99.695Y-76.2
X99.695Y-93.98
X99.695Y-111.76
X99.695Y-129.54
X102.235Y-58.42
X102.235Y-76.2
X102.235Y-93.98
X102.235Y-111.76
X102.235Y-129.54
X104.775Y-58.42
X104.775Y-76.2
X104.775Y-93.98
X104.775Y-111.76
X104.775Y-129.54
X107.315Y-58.42
X107.315Y-76.2
X107.315Y-93.98
X107.315Y-111.76
X107.315Y-129.54
X112.522Y-53.34
X112.522Y-71.12
X112.522Y-88.9
X112.522Y-106.68
X112.522Y-124.46
X117.475Y-58.42
X117.475Y-76.2
X117.475Y-93.98
X117.475Y-111.76
X117.475Y-129.54
X120.015Y-58.42
X120.015Y-76.2
X120.015Y-93.98
X120.015Y-111.76
X120.015Y-129.54
X122.555Y-58.42
X122.555Y-76.2
X122.555Y-93.98
X122.555Y-111.76
X122.555Y-129.54
X125.095Y-58.42
X125.095Y-76.2
X125.095Y-93.98
X125.095Y-111.76
X125.095Y-129.54
X135.255Y-58.42
X135.255Y-76.2
X135.255Y-93.98
X135.255Y-111.76
X135.255Y-129.54
X137.795Y-58.42
X137.795Y-76.2
X137.795Y-93.98
X137.795Y-111.76
X137.795Y-129.54
X140.335Y-58.42
X140.335Y-76.2
X140.335Y-93.98
X140.335Y-111.76
X140.335Y-129.54
X142.875Y-58.42
X142.875Y-76.2
X142.875Y-93.98
X142.875Y-111.76
X142.875Y-129.54
T4
X81.915Y-50.8
X81.915Y-68.58
X81.915Y-86.36
X81.915Y-104.14
X81.915Y-121.92
X88.265Y-48.26
X88.265Y-66.04
X88.265Y-83.82
X88.265Y-101.6
X88.265Y-119.38
X99.695Y-50.8
X99.695Y-68.58
X99.695Y-86.36
X99.695Y-104.14
X99.695Y-121.92
X106.045Y-48.26
X106.045Y-66.04
X106.045Y-83.82
X106.045Y-101.6
X106.045Y-119.38
X117.475Y-50.8
X117.475Y-68.58
X117.475Y-86.36
X117.475Y-104.14
X117.475Y-121.92
X123.825Y-48.26
X123.825Y-66.04
X123.825Y-83.82
X123.825Y-101.6
X123.825Y-119.38
X135.255Y-50.8
X135.255Y-68.58
X135.255Y-86.36
X135.255Y-104.14
X135.255Y-121.92
X141.605Y-48.26
X141.605Y-66.04
X141.605Y-83.82
X141.605Y-101.6
X141.605Y-119.38
T5
X80.645Y-53.34
X80.645Y-71.12
X80.645Y-88.9
X80.645Y-106.68
X80.645Y-124.46
X90.805Y-53.34
X90.805Y-71.12
X90.805Y-88.9
X90.805Y-106.68
X90.805Y-124.46
X98.425Y-53.34
X98.425Y-71.12
X98.425Y-88.9
X98.425Y-106.68
X98.425Y-124.46
X108.585Y-53.34
X108.585Y-71.12
X108.585Y-88.9
X108.585Y-106.68
X108.585Y-124.46
X116.205Y-53.34
X116.205Y-71.12
X116.205Y-88.9
X116.205Y-106.68
X116.205Y-124.46
X126.365Y-53.34
X126.365Y-71.12
X126.365Y-88.9
X126.365Y-106.68
X126.365Y-124.46
X133.985Y-53.34
X133.985Y-71.12
X133.985Y-88.9
X133.985Y-106.68
X133.985Y-124.46
X144.145Y-53.34
X144.145Y-71.12
X144.145Y-88.9
X144.145Y-106.68
X144.145Y-124.46
T6
X85.725Y-53.34
X85.725Y-71.12
X85.725Y-88.9
X85.725Y-106.68
X85.725Y-124.46
X103.505Y-53.34
X103.505Y-71.12
X103.505Y-88.9
X103.505Y-106.68
X103.505Y-124.46
X121.285Y-53.34
X121.285Y-71.12
X121.285Y-88.9
X121.285Y-106.68
X121.285Y-124.46
X139.065Y-53.34
X139.065Y-71.12
X139.065Y-88.9
X139.065Y-106.68
X139.065Y-124.46
T0
M30
