G04 #@! TF.FileFunction,Legend,Top*
%FSLAX46Y46*%
G04 Gerber Fmt 4.6, Leading zero omitted, Abs format (unit mm)*
G04 Created by KiCad (PCBNEW 4.0.6) date 2017 August 09, Wednesday 05:31:59*
%MOMM*%
%LPD*%
G01*
G04 APERTURE LIST*
%ADD10C,0.100000*%
%ADD11C,0.200000*%
%ADD12C,0.125000*%
%ADD13C,0.250000*%
%ADD14C,0.120000*%
%ADD15C,0.381000*%
%ADD16C,0.010000*%
%ADD17C,0.150000*%
%ADD18C,0.203200*%
%ADD19C,0.050000*%
G04 APERTURE END LIST*
D10*
D11*
X147320000Y-40386000D02*
X149733000Y-40386000D01*
X147320000Y-40513000D02*
X147320000Y-40386000D01*
X149860000Y-40513000D02*
X147320000Y-40513000D01*
X149860000Y-40259000D02*
X149860000Y-40513000D01*
X147193000Y-40259000D02*
X149860000Y-40259000D01*
X147193000Y-40513000D02*
X147193000Y-40259000D01*
X147193000Y-43307000D02*
X147193000Y-40513000D01*
X157607000Y-43307000D02*
X147193000Y-43307000D01*
X157607000Y-40513000D02*
X157607000Y-43307000D01*
X147193000Y-40513000D02*
X157607000Y-40513000D01*
X164973000Y-100203000D02*
X167767000Y-100203000D01*
X164973000Y-123317000D02*
X164973000Y-100203000D01*
X167767000Y-123317000D02*
X164973000Y-123317000D01*
X167767000Y-100203000D02*
X167767000Y-123317000D01*
X167640000Y-100203000D02*
X167767000Y-100203000D01*
X72263000Y-123317000D02*
X72263000Y-100203000D01*
X75057000Y-123317000D02*
X72263000Y-123317000D01*
X75057000Y-100203000D02*
X75057000Y-123317000D01*
X72263000Y-100203000D02*
X75057000Y-100203000D01*
X168021000Y-116840000D02*
X168656000Y-116840000D01*
X72009000Y-116840000D02*
X71374000Y-116840000D01*
X71882000Y-119507000D02*
X71755000Y-119380000D01*
X71882000Y-119253000D02*
X71882000Y-119507000D01*
X71628000Y-119380000D02*
X71882000Y-119253000D01*
X71501000Y-122047000D02*
X71501000Y-121793000D01*
X71755000Y-121920000D02*
X71501000Y-122047000D01*
X71501000Y-121793000D02*
X71755000Y-121920000D01*
X71374000Y-122301000D02*
X72009000Y-121920000D01*
X71374000Y-121539000D02*
X71374000Y-122301000D01*
X72009000Y-121920000D02*
X71374000Y-121539000D01*
X72009000Y-119761000D02*
X72009000Y-118999000D01*
X71374000Y-119380000D02*
X72009000Y-119761000D01*
X72009000Y-118999000D02*
X71374000Y-119380000D01*
X168529000Y-119507000D02*
X168275000Y-119380000D01*
X168529000Y-119253000D02*
X168529000Y-119507000D01*
X168148000Y-119380000D02*
X168529000Y-119253000D01*
X168148000Y-122047000D02*
X168148000Y-121793000D01*
X168402000Y-121920000D02*
X168148000Y-122047000D01*
X168148000Y-121666000D02*
X168402000Y-121920000D01*
X168021000Y-122301000D02*
X168021000Y-121539000D01*
X168656000Y-121920000D02*
X168021000Y-122301000D01*
X168021000Y-121539000D02*
X168656000Y-121920000D01*
X168656000Y-119761000D02*
X168021000Y-119380000D01*
X168656000Y-118999000D02*
X168656000Y-119761000D01*
X168021000Y-119380000D02*
X168656000Y-118999000D01*
X167894000Y-105156000D02*
X167894000Y-103251000D01*
X168021000Y-105156000D02*
X167894000Y-105156000D01*
X168021000Y-103124000D02*
X168021000Y-105156000D01*
X167767000Y-103124000D02*
X168021000Y-103124000D01*
X167767000Y-105283000D02*
X167767000Y-103124000D01*
X168148000Y-105283000D02*
X167767000Y-105283000D01*
X168148000Y-102997000D02*
X168148000Y-105283000D01*
X167767000Y-102997000D02*
X168148000Y-102997000D01*
X72009000Y-105029000D02*
X72009000Y-103251000D01*
X71882000Y-105029000D02*
X72009000Y-105029000D01*
X71882000Y-103251000D02*
X71882000Y-105029000D01*
X72136000Y-103251000D02*
X71882000Y-103251000D01*
X72136000Y-105156000D02*
X72136000Y-103251000D01*
X71755000Y-105156000D02*
X72136000Y-105156000D01*
X71755000Y-103124000D02*
X71755000Y-105156000D01*
X72263000Y-103124000D02*
X71755000Y-103124000D01*
X72263000Y-105283000D02*
X72263000Y-103124000D01*
X71628000Y-105283000D02*
X72263000Y-105283000D01*
X71628000Y-102997000D02*
X71628000Y-105283000D01*
X72263000Y-102997000D02*
X71628000Y-102997000D01*
X93091000Y-46482000D02*
X93091000Y-46355000D01*
X94615000Y-46482000D02*
X93091000Y-46482000D01*
X94615000Y-44831000D02*
X94615000Y-46482000D01*
X94488000Y-44831000D02*
X94615000Y-44831000D01*
X94488000Y-46355000D02*
X94488000Y-44831000D01*
X93091000Y-46355000D02*
X94488000Y-46355000D01*
X123825000Y-49784000D02*
X123825000Y-49911000D01*
X123571000Y-49784000D02*
X123825000Y-49784000D01*
X123952000Y-50165000D02*
X123571000Y-49784000D01*
X123952000Y-49657000D02*
X123952000Y-50165000D01*
X123317000Y-49657000D02*
X123952000Y-49657000D01*
X124079000Y-50419000D02*
X123063000Y-49530000D01*
X124079000Y-49530000D02*
X124079000Y-50419000D01*
X123063000Y-49530000D02*
X124079000Y-49530000D01*
X123825000Y-58166000D02*
X123825000Y-58293000D01*
X123444000Y-58166000D02*
X123825000Y-58166000D01*
X123952000Y-58547000D02*
X123444000Y-58166000D01*
X123952000Y-58039000D02*
X123952000Y-58547000D01*
X123317000Y-58039000D02*
X123952000Y-58039000D01*
X124079000Y-58801000D02*
X123063000Y-57912000D01*
X124079000Y-57912000D02*
X124079000Y-58801000D01*
X123063000Y-57912000D02*
X124079000Y-57912000D01*
X159512000Y-53213000D02*
X159512000Y-53467000D01*
X159766000Y-53467000D02*
X159512000Y-53213000D01*
X159385000Y-53467000D02*
X159766000Y-53467000D01*
X159385000Y-52959000D02*
X159385000Y-53467000D01*
X160147000Y-53594000D02*
X159385000Y-52959000D01*
X159258000Y-53594000D02*
X160147000Y-53594000D01*
X159258000Y-52832000D02*
X159258000Y-53594000D01*
X159131000Y-52578000D02*
X159131000Y-53721000D01*
X160401000Y-53721000D02*
X159131000Y-52578000D01*
X159131000Y-53721000D02*
X160401000Y-53721000D01*
X127508000Y-49911000D02*
X127508000Y-50292000D01*
X127381000Y-49784000D02*
X127381000Y-50292000D01*
X127254000Y-49657000D02*
X127254000Y-50419000D01*
X127127000Y-49530000D02*
X127127000Y-50546000D01*
X127000000Y-49403000D02*
X127000000Y-50673000D01*
X127762000Y-50165000D02*
X126873000Y-49149000D01*
X126873000Y-50800000D02*
X127762000Y-50165000D01*
X126873000Y-49149000D02*
X126873000Y-50800000D01*
X157607000Y-45720000D02*
X154813000Y-45720000D01*
X157607000Y-51054000D02*
X157607000Y-45720000D01*
X149733000Y-51054000D02*
X157607000Y-51054000D01*
X149733000Y-45593000D02*
X149733000Y-51054000D01*
X152273000Y-45593000D02*
X149733000Y-45593000D01*
X152273000Y-45466000D02*
X152273000Y-45593000D01*
X149606000Y-45466000D02*
X152273000Y-45466000D01*
X149606000Y-51181000D02*
X149606000Y-45466000D01*
X157734000Y-51181000D02*
X149606000Y-51181000D01*
X157734000Y-45593000D02*
X157734000Y-51181000D01*
X155067000Y-45593000D02*
X157734000Y-45593000D01*
X155067000Y-45466000D02*
X155067000Y-45593000D01*
X157861000Y-45466000D02*
X155067000Y-45466000D01*
X157861000Y-51181000D02*
X157861000Y-45466000D01*
X149479000Y-45339000D02*
X152400000Y-45339000D01*
X149479000Y-51308000D02*
X149479000Y-45339000D01*
X157988000Y-51308000D02*
X149479000Y-51308000D01*
X157988000Y-45339000D02*
X157988000Y-51308000D01*
X154940000Y-45339000D02*
X157988000Y-45339000D01*
X152400000Y-44831000D02*
X154940000Y-44831000D01*
X152400000Y-44958000D02*
X154940000Y-44958000D01*
X152400000Y-45085000D02*
X154940000Y-45085000D01*
X152400000Y-45212000D02*
X154940000Y-45212000D01*
X152400000Y-45339000D02*
X154940000Y-45339000D01*
X152400000Y-45466000D02*
X154940000Y-45466000D01*
X152400000Y-45593000D02*
X154813000Y-45593000D01*
X154940000Y-45720000D02*
X152400000Y-45720000D01*
X154940000Y-44704000D02*
X154940000Y-45720000D01*
X152400000Y-44704000D02*
X154940000Y-44704000D01*
X152400000Y-45720000D02*
X152400000Y-44704000D01*
D12*
X148056667Y-39274000D02*
X147990001Y-39240667D01*
X147890001Y-39240667D01*
X147790001Y-39274000D01*
X147723334Y-39340667D01*
X147690001Y-39407333D01*
X147656667Y-39540667D01*
X147656667Y-39640667D01*
X147690001Y-39774000D01*
X147723334Y-39840667D01*
X147790001Y-39907333D01*
X147890001Y-39940667D01*
X147956667Y-39940667D01*
X148056667Y-39907333D01*
X148090001Y-39874000D01*
X148090001Y-39640667D01*
X147956667Y-39640667D01*
X148390001Y-39940667D02*
X148390001Y-39240667D01*
X148790001Y-39940667D01*
X148790001Y-39240667D01*
X149123334Y-39940667D02*
X149123334Y-39240667D01*
X149290000Y-39240667D01*
X149390000Y-39274000D01*
X149456667Y-39340667D01*
X149490000Y-39407333D01*
X149523334Y-39540667D01*
X149523334Y-39640667D01*
X149490000Y-39774000D01*
X149456667Y-39840667D01*
X149390000Y-39907333D01*
X149290000Y-39940667D01*
X149123334Y-39940667D01*
X150263333Y-39240667D02*
X150696666Y-39240667D01*
X150463333Y-39507333D01*
X150563333Y-39507333D01*
X150630000Y-39540667D01*
X150663333Y-39574000D01*
X150696666Y-39640667D01*
X150696666Y-39807333D01*
X150663333Y-39874000D01*
X150630000Y-39907333D01*
X150563333Y-39940667D01*
X150363333Y-39940667D01*
X150296666Y-39907333D01*
X150263333Y-39874000D01*
X150896667Y-39240667D02*
X151130000Y-39940667D01*
X151363333Y-39240667D01*
X151530000Y-39240667D02*
X151963333Y-39240667D01*
X151730000Y-39507333D01*
X151830000Y-39507333D01*
X151896667Y-39540667D01*
X151930000Y-39574000D01*
X151963333Y-39640667D01*
X151963333Y-39807333D01*
X151930000Y-39874000D01*
X151896667Y-39907333D01*
X151830000Y-39940667D01*
X151630000Y-39940667D01*
X151563333Y-39907333D01*
X151530000Y-39874000D01*
X153253334Y-39874000D02*
X153220000Y-39907333D01*
X153120000Y-39940667D01*
X153053334Y-39940667D01*
X152953334Y-39907333D01*
X152886667Y-39840667D01*
X152853334Y-39774000D01*
X152820000Y-39640667D01*
X152820000Y-39540667D01*
X152853334Y-39407333D01*
X152886667Y-39340667D01*
X152953334Y-39274000D01*
X153053334Y-39240667D01*
X153120000Y-39240667D01*
X153220000Y-39274000D01*
X153253334Y-39307333D01*
X153886667Y-39940667D02*
X153553334Y-39940667D01*
X153553334Y-39240667D01*
X154120001Y-39940667D02*
X154120001Y-39240667D01*
X154520001Y-39940667D02*
X154220001Y-39540667D01*
X154520001Y-39240667D02*
X154120001Y-39640667D01*
X155160001Y-39940667D02*
X155160001Y-39240667D01*
X155326667Y-39240667D01*
X155426667Y-39274000D01*
X155493334Y-39340667D01*
X155526667Y-39407333D01*
X155560001Y-39540667D01*
X155560001Y-39640667D01*
X155526667Y-39774000D01*
X155493334Y-39840667D01*
X155426667Y-39907333D01*
X155326667Y-39940667D01*
X155160001Y-39940667D01*
X155826667Y-39740667D02*
X156160001Y-39740667D01*
X155760001Y-39940667D02*
X155993334Y-39240667D01*
X156226667Y-39940667D01*
X156360001Y-39240667D02*
X156760001Y-39240667D01*
X156560001Y-39940667D02*
X156560001Y-39240667D01*
X156960000Y-39740667D02*
X157293334Y-39740667D01*
X156893334Y-39940667D02*
X157126667Y-39240667D01*
X157360000Y-39940667D01*
X128403333Y-39954833D02*
X128503333Y-39988167D01*
X128670000Y-39988167D01*
X128736667Y-39954833D01*
X128770000Y-39921500D01*
X128803333Y-39854833D01*
X128803333Y-39788167D01*
X128770000Y-39721500D01*
X128736667Y-39688167D01*
X128670000Y-39654833D01*
X128536667Y-39621500D01*
X128470000Y-39588167D01*
X128436667Y-39554833D01*
X128403333Y-39488167D01*
X128403333Y-39421500D01*
X128436667Y-39354833D01*
X128470000Y-39321500D01*
X128536667Y-39288167D01*
X128703333Y-39288167D01*
X128803333Y-39321500D01*
X129036667Y-39288167D02*
X129203334Y-39988167D01*
X129336667Y-39488167D01*
X129470000Y-39988167D01*
X129636667Y-39288167D01*
X130536667Y-39988167D02*
X130470000Y-39954833D01*
X130436667Y-39888167D01*
X130436667Y-39288167D01*
X130903334Y-39988167D02*
X130836667Y-39954833D01*
X130803334Y-39921500D01*
X130770000Y-39854833D01*
X130770000Y-39654833D01*
X130803334Y-39588167D01*
X130836667Y-39554833D01*
X130903334Y-39521500D01*
X131003334Y-39521500D01*
X131070000Y-39554833D01*
X131103334Y-39588167D01*
X131136667Y-39654833D01*
X131136667Y-39854833D01*
X131103334Y-39921500D01*
X131070000Y-39954833D01*
X131003334Y-39988167D01*
X130903334Y-39988167D01*
X131736667Y-39521500D02*
X131736667Y-40088167D01*
X131703333Y-40154833D01*
X131670000Y-40188167D01*
X131603333Y-40221500D01*
X131503333Y-40221500D01*
X131436667Y-40188167D01*
X131736667Y-39954833D02*
X131670000Y-39988167D01*
X131536667Y-39988167D01*
X131470000Y-39954833D01*
X131436667Y-39921500D01*
X131403333Y-39854833D01*
X131403333Y-39654833D01*
X131436667Y-39588167D01*
X131470000Y-39554833D01*
X131536667Y-39521500D01*
X131670000Y-39521500D01*
X131736667Y-39554833D01*
X132070000Y-39988167D02*
X132070000Y-39521500D01*
X132070000Y-39288167D02*
X132036666Y-39321500D01*
X132070000Y-39354833D01*
X132103333Y-39321500D01*
X132070000Y-39288167D01*
X132070000Y-39354833D01*
X132703333Y-39954833D02*
X132636666Y-39988167D01*
X132503333Y-39988167D01*
X132436666Y-39954833D01*
X132403333Y-39921500D01*
X132369999Y-39854833D01*
X132369999Y-39654833D01*
X132403333Y-39588167D01*
X132436666Y-39554833D01*
X132503333Y-39521500D01*
X132636666Y-39521500D01*
X132703333Y-39554833D01*
X133003333Y-39921500D02*
X133036666Y-39954833D01*
X133003333Y-39988167D01*
X132969999Y-39954833D01*
X133003333Y-39921500D01*
X133003333Y-39988167D01*
X133003333Y-39554833D02*
X133036666Y-39588167D01*
X133003333Y-39621500D01*
X132969999Y-39588167D01*
X133003333Y-39554833D01*
X133003333Y-39621500D01*
X134003332Y-39288167D02*
X134069999Y-39288167D01*
X134136665Y-39321500D01*
X134169999Y-39354833D01*
X134203332Y-39421500D01*
X134236665Y-39554833D01*
X134236665Y-39721500D01*
X134203332Y-39854833D01*
X134169999Y-39921500D01*
X134136665Y-39954833D01*
X134069999Y-39988167D01*
X134003332Y-39988167D01*
X133936665Y-39954833D01*
X133903332Y-39921500D01*
X133869999Y-39854833D01*
X133836665Y-39721500D01*
X133836665Y-39554833D01*
X133869999Y-39421500D01*
X133903332Y-39354833D01*
X133936665Y-39321500D01*
X134003332Y-39288167D01*
X135069999Y-39621500D02*
X135603332Y-39621500D01*
X135603332Y-39821500D02*
X135069999Y-39821500D01*
X136769999Y-39954833D02*
X136703332Y-39988167D01*
X136569999Y-39988167D01*
X136503332Y-39954833D01*
X136469999Y-39921500D01*
X136436665Y-39854833D01*
X136436665Y-39654833D01*
X136469999Y-39588167D01*
X136503332Y-39554833D01*
X136569999Y-39521500D01*
X136703332Y-39521500D01*
X136769999Y-39554833D01*
X137369999Y-39988167D02*
X137369999Y-39621500D01*
X137336665Y-39554833D01*
X137269999Y-39521500D01*
X137136665Y-39521500D01*
X137069999Y-39554833D01*
X137369999Y-39954833D02*
X137303332Y-39988167D01*
X137136665Y-39988167D01*
X137069999Y-39954833D01*
X137036665Y-39888167D01*
X137036665Y-39821500D01*
X137069999Y-39754833D01*
X137136665Y-39721500D01*
X137303332Y-39721500D01*
X137369999Y-39688167D01*
X137603332Y-39521500D02*
X137869998Y-39521500D01*
X137703332Y-39288167D02*
X137703332Y-39888167D01*
X137736665Y-39954833D01*
X137803332Y-39988167D01*
X137869998Y-39988167D01*
X138103332Y-39988167D02*
X138103332Y-39288167D01*
X138403332Y-39988167D02*
X138403332Y-39621500D01*
X138369998Y-39554833D01*
X138303332Y-39521500D01*
X138203332Y-39521500D01*
X138136665Y-39554833D01*
X138103332Y-39588167D01*
X138836665Y-39988167D02*
X138769998Y-39954833D01*
X138736665Y-39921500D01*
X138703331Y-39854833D01*
X138703331Y-39654833D01*
X138736665Y-39588167D01*
X138769998Y-39554833D01*
X138836665Y-39521500D01*
X138936665Y-39521500D01*
X139003331Y-39554833D01*
X139036665Y-39588167D01*
X139069998Y-39654833D01*
X139069998Y-39854833D01*
X139036665Y-39921500D01*
X139003331Y-39954833D01*
X138936665Y-39988167D01*
X138836665Y-39988167D01*
X139669998Y-39988167D02*
X139669998Y-39288167D01*
X139669998Y-39954833D02*
X139603331Y-39988167D01*
X139469998Y-39988167D01*
X139403331Y-39954833D01*
X139369998Y-39921500D01*
X139336664Y-39854833D01*
X139336664Y-39654833D01*
X139369998Y-39588167D01*
X139403331Y-39554833D01*
X139469998Y-39521500D01*
X139603331Y-39521500D01*
X139669998Y-39554833D01*
X140269997Y-39954833D02*
X140203331Y-39988167D01*
X140069997Y-39988167D01*
X140003331Y-39954833D01*
X139969997Y-39888167D01*
X139969997Y-39621500D01*
X140003331Y-39554833D01*
X140069997Y-39521500D01*
X140203331Y-39521500D01*
X140269997Y-39554833D01*
X140303331Y-39621500D01*
X140303331Y-39688167D01*
X139969997Y-39754833D01*
X134136663Y-41163167D02*
X133736663Y-41163167D01*
X133936663Y-41163167D02*
X133936663Y-40463167D01*
X133869997Y-40563167D01*
X133803330Y-40629833D01*
X133736663Y-40663167D01*
X134969997Y-40796500D02*
X135503330Y-40796500D01*
X135503330Y-40996500D02*
X134969997Y-40996500D01*
X136669997Y-41163167D02*
X136669997Y-40796500D01*
X136636663Y-40729833D01*
X136569997Y-40696500D01*
X136436663Y-40696500D01*
X136369997Y-40729833D01*
X136669997Y-41129833D02*
X136603330Y-41163167D01*
X136436663Y-41163167D01*
X136369997Y-41129833D01*
X136336663Y-41063167D01*
X136336663Y-40996500D01*
X136369997Y-40929833D01*
X136436663Y-40896500D01*
X136603330Y-40896500D01*
X136669997Y-40863167D01*
X137003330Y-40696500D02*
X137003330Y-41163167D01*
X137003330Y-40763167D02*
X137036663Y-40729833D01*
X137103330Y-40696500D01*
X137203330Y-40696500D01*
X137269996Y-40729833D01*
X137303330Y-40796500D01*
X137303330Y-41163167D01*
X137736663Y-41163167D02*
X137669996Y-41129833D01*
X137636663Y-41096500D01*
X137603329Y-41029833D01*
X137603329Y-40829833D01*
X137636663Y-40763167D01*
X137669996Y-40729833D01*
X137736663Y-40696500D01*
X137836663Y-40696500D01*
X137903329Y-40729833D01*
X137936663Y-40763167D01*
X137969996Y-40829833D01*
X137969996Y-41029833D01*
X137936663Y-41096500D01*
X137903329Y-41129833D01*
X137836663Y-41163167D01*
X137736663Y-41163167D01*
X138569996Y-41163167D02*
X138569996Y-40463167D01*
X138569996Y-41129833D02*
X138503329Y-41163167D01*
X138369996Y-41163167D01*
X138303329Y-41129833D01*
X138269996Y-41096500D01*
X138236662Y-41029833D01*
X138236662Y-40829833D01*
X138269996Y-40763167D01*
X138303329Y-40729833D01*
X138369996Y-40696500D01*
X138503329Y-40696500D01*
X138569996Y-40729833D01*
X139169995Y-41129833D02*
X139103329Y-41163167D01*
X138969995Y-41163167D01*
X138903329Y-41129833D01*
X138869995Y-41063167D01*
X138869995Y-40796500D01*
X138903329Y-40729833D01*
X138969995Y-40696500D01*
X139103329Y-40696500D01*
X139169995Y-40729833D01*
X139203329Y-40796500D01*
X139203329Y-40863167D01*
X138869995Y-40929833D01*
X161583667Y-77674000D02*
X162117000Y-77674000D01*
X162117000Y-77874000D02*
X161583667Y-77874000D01*
X162917000Y-77340667D02*
X163383667Y-77340667D01*
X162917000Y-78040667D01*
X163383667Y-78040667D01*
X161583667Y-83262000D02*
X162117000Y-83262000D01*
X162117000Y-83462000D02*
X161583667Y-83462000D01*
X162950333Y-83595333D02*
X163050333Y-83628667D01*
X163217000Y-83628667D01*
X163283667Y-83595333D01*
X163317000Y-83562000D01*
X163350333Y-83495333D01*
X163350333Y-83428667D01*
X163317000Y-83362000D01*
X163283667Y-83328667D01*
X163217000Y-83295333D01*
X163083667Y-83262000D01*
X163017000Y-83228667D01*
X162983667Y-83195333D01*
X162950333Y-83128667D01*
X162950333Y-83062000D01*
X162983667Y-82995333D01*
X163017000Y-82962000D01*
X163083667Y-82928667D01*
X163250333Y-82928667D01*
X163350333Y-82962000D01*
X161583667Y-62180000D02*
X162117000Y-62180000D01*
X162117000Y-62380000D02*
X161583667Y-62380000D01*
X163383667Y-62546667D02*
X163150333Y-62213333D01*
X162983667Y-62546667D02*
X162983667Y-61846667D01*
X163250333Y-61846667D01*
X163317000Y-61880000D01*
X163350333Y-61913333D01*
X163383667Y-61980000D01*
X163383667Y-62080000D01*
X163350333Y-62146667D01*
X163317000Y-62180000D01*
X163250333Y-62213333D01*
X162983667Y-62213333D01*
X161583667Y-72467000D02*
X162117000Y-72467000D01*
X162117000Y-72667000D02*
X161583667Y-72667000D01*
X163217000Y-72467000D02*
X163317000Y-72500333D01*
X163350333Y-72533667D01*
X163383667Y-72600333D01*
X163383667Y-72700333D01*
X163350333Y-72767000D01*
X163317000Y-72800333D01*
X163250333Y-72833667D01*
X162983667Y-72833667D01*
X162983667Y-72133667D01*
X163217000Y-72133667D01*
X163283667Y-72167000D01*
X163317000Y-72200333D01*
X163350333Y-72267000D01*
X163350333Y-72333667D01*
X163317000Y-72400333D01*
X163283667Y-72433667D01*
X163217000Y-72467000D01*
X162983667Y-72467000D01*
X161583667Y-67387000D02*
X162117000Y-67387000D01*
X162117000Y-67587000D02*
X161583667Y-67587000D01*
X163350333Y-67087000D02*
X163283667Y-67053667D01*
X163183667Y-67053667D01*
X163083667Y-67087000D01*
X163017000Y-67153667D01*
X162983667Y-67220333D01*
X162950333Y-67353667D01*
X162950333Y-67453667D01*
X162983667Y-67587000D01*
X163017000Y-67653667D01*
X163083667Y-67720333D01*
X163183667Y-67753667D01*
X163250333Y-67753667D01*
X163350333Y-67720333D01*
X163383667Y-67687000D01*
X163383667Y-67453667D01*
X163250333Y-67453667D01*
X122679334Y-58549333D02*
X122212667Y-58549333D01*
X122512667Y-57849333D01*
X121646000Y-58316000D02*
X121646000Y-57849333D01*
X121812667Y-58582667D02*
X121979334Y-58082667D01*
X121546000Y-58082667D01*
X121279333Y-57849333D02*
X121279333Y-58549333D01*
X121279333Y-58216000D02*
X120879333Y-58216000D01*
X120879333Y-57849333D02*
X120879333Y-58549333D01*
X120146000Y-57916000D02*
X120179334Y-57882667D01*
X120279334Y-57849333D01*
X120346000Y-57849333D01*
X120446000Y-57882667D01*
X120512667Y-57949333D01*
X120546000Y-58016000D01*
X120579334Y-58149333D01*
X120579334Y-58249333D01*
X120546000Y-58382667D01*
X120512667Y-58449333D01*
X120446000Y-58516000D01*
X120346000Y-58549333D01*
X120279334Y-58549333D01*
X120179334Y-58516000D01*
X120146000Y-58482667D01*
X119879334Y-58482667D02*
X119846000Y-58516000D01*
X119779334Y-58549333D01*
X119612667Y-58549333D01*
X119546000Y-58516000D01*
X119512667Y-58482667D01*
X119479334Y-58416000D01*
X119479334Y-58349333D01*
X119512667Y-58249333D01*
X119912667Y-57849333D01*
X119479334Y-57849333D01*
X118879333Y-58316000D02*
X118879333Y-57849333D01*
X119046000Y-58582667D02*
X119212667Y-58082667D01*
X118779333Y-58082667D01*
X118179333Y-58549333D02*
X118512666Y-58549333D01*
X118546000Y-58216000D01*
X118512666Y-58249333D01*
X118446000Y-58282667D01*
X118279333Y-58282667D01*
X118212666Y-58249333D01*
X118179333Y-58216000D01*
X118146000Y-58149333D01*
X118146000Y-57982667D01*
X118179333Y-57916000D01*
X118212666Y-57882667D01*
X118279333Y-57849333D01*
X118446000Y-57849333D01*
X118512666Y-57882667D01*
X118546000Y-57916000D01*
X150599909Y-51666884D02*
X150533243Y-51633551D01*
X150433243Y-51633551D01*
X150333243Y-51666884D01*
X150266576Y-51733551D01*
X150233243Y-51800217D01*
X150199909Y-51933551D01*
X150199909Y-52033551D01*
X150233243Y-52166884D01*
X150266576Y-52233551D01*
X150333243Y-52300217D01*
X150433243Y-52333551D01*
X150499909Y-52333551D01*
X150599909Y-52300217D01*
X150633243Y-52266884D01*
X150633243Y-52033551D01*
X150499909Y-52033551D01*
X150933243Y-52333551D02*
X150933243Y-51633551D01*
X151333243Y-52333551D01*
X151333243Y-51633551D01*
X151666576Y-52333551D02*
X151666576Y-51633551D01*
X151833242Y-51633551D01*
X151933242Y-51666884D01*
X151999909Y-51733551D01*
X152033242Y-51800217D01*
X152066576Y-51933551D01*
X152066576Y-52033551D01*
X152033242Y-52166884D01*
X151999909Y-52233551D01*
X151933242Y-52300217D01*
X151833242Y-52333551D01*
X151666576Y-52333551D01*
X155346575Y-51633551D02*
X155779908Y-51633551D01*
X155546575Y-51900217D01*
X155646575Y-51900217D01*
X155713242Y-51933551D01*
X155746575Y-51966884D01*
X155779908Y-52033551D01*
X155779908Y-52200217D01*
X155746575Y-52266884D01*
X155713242Y-52300217D01*
X155646575Y-52333551D01*
X155446575Y-52333551D01*
X155379908Y-52300217D01*
X155346575Y-52266884D01*
X155979909Y-51633551D02*
X156213242Y-52333551D01*
X156446575Y-51633551D01*
X156613242Y-51633551D02*
X157046575Y-51633551D01*
X156813242Y-51900217D01*
X156913242Y-51900217D01*
X156979909Y-51933551D01*
X157013242Y-51966884D01*
X157046575Y-52033551D01*
X157046575Y-52200217D01*
X157013242Y-52266884D01*
X156979909Y-52300217D01*
X156913242Y-52333551D01*
X156713242Y-52333551D01*
X156646575Y-52300217D01*
X156613242Y-52266884D01*
X150713334Y-44954000D02*
X150680000Y-44987333D01*
X150580000Y-45020667D01*
X150513334Y-45020667D01*
X150413334Y-44987333D01*
X150346667Y-44920667D01*
X150313334Y-44854000D01*
X150280000Y-44720667D01*
X150280000Y-44620667D01*
X150313334Y-44487333D01*
X150346667Y-44420667D01*
X150413334Y-44354000D01*
X150513334Y-44320667D01*
X150580000Y-44320667D01*
X150680000Y-44354000D01*
X150713334Y-44387333D01*
X151346667Y-45020667D02*
X151013334Y-45020667D01*
X151013334Y-44320667D01*
X151580001Y-45020667D02*
X151580001Y-44320667D01*
X151980001Y-45020667D02*
X151680001Y-44620667D01*
X151980001Y-44320667D02*
X151580001Y-44720667D01*
X74417333Y-56004667D02*
X74084000Y-56004667D01*
X74050666Y-56338000D01*
X74084000Y-56304667D01*
X74150666Y-56271333D01*
X74317333Y-56271333D01*
X74384000Y-56304667D01*
X74417333Y-56338000D01*
X74450666Y-56404667D01*
X74450666Y-56571333D01*
X74417333Y-56638000D01*
X74384000Y-56671333D01*
X74317333Y-56704667D01*
X74150666Y-56704667D01*
X74084000Y-56671333D01*
X74050666Y-56638000D01*
X74650667Y-56004667D02*
X74884000Y-56704667D01*
X75117333Y-56004667D01*
X73350666Y-53718667D02*
X73783999Y-53718667D01*
X73550666Y-53985333D01*
X73650666Y-53985333D01*
X73717333Y-54018667D01*
X73750666Y-54052000D01*
X73783999Y-54118667D01*
X73783999Y-54285333D01*
X73750666Y-54352000D01*
X73717333Y-54385333D01*
X73650666Y-54418667D01*
X73450666Y-54418667D01*
X73383999Y-54385333D01*
X73350666Y-54352000D01*
X73984000Y-53718667D02*
X74217333Y-54418667D01*
X74450666Y-53718667D01*
X74617333Y-53718667D02*
X75050666Y-53718667D01*
X74817333Y-53985333D01*
X74917333Y-53985333D01*
X74984000Y-54018667D01*
X75017333Y-54052000D01*
X75050666Y-54118667D01*
X75050666Y-54285333D01*
X75017333Y-54352000D01*
X74984000Y-54385333D01*
X74917333Y-54418667D01*
X74717333Y-54418667D01*
X74650666Y-54385333D01*
X74617333Y-54352000D01*
X76366667Y-112076667D02*
X76366667Y-111376667D01*
X76666666Y-111443333D02*
X76700000Y-111410000D01*
X76766666Y-111376667D01*
X76933333Y-111376667D01*
X77000000Y-111410000D01*
X77033333Y-111443333D01*
X77066666Y-111510000D01*
X77066666Y-111576667D01*
X77033333Y-111676667D01*
X76633333Y-112076667D01*
X77066666Y-112076667D01*
X77766667Y-112010000D02*
X77733333Y-112043333D01*
X77633333Y-112076667D01*
X77566667Y-112076667D01*
X77466667Y-112043333D01*
X77400000Y-111976667D01*
X77366667Y-111910000D01*
X77333333Y-111776667D01*
X77333333Y-111676667D01*
X77366667Y-111543333D01*
X77400000Y-111476667D01*
X77466667Y-111410000D01*
X77566667Y-111376667D01*
X77633333Y-111376667D01*
X77733333Y-111410000D01*
X77766667Y-111443333D01*
X77900000Y-112143333D02*
X78433333Y-112143333D01*
X78566666Y-112043333D02*
X78666666Y-112076667D01*
X78833333Y-112076667D01*
X78900000Y-112043333D01*
X78933333Y-112010000D01*
X78966666Y-111943333D01*
X78966666Y-111876667D01*
X78933333Y-111810000D01*
X78900000Y-111776667D01*
X78833333Y-111743333D01*
X78700000Y-111710000D01*
X78633333Y-111676667D01*
X78600000Y-111643333D01*
X78566666Y-111576667D01*
X78566666Y-111510000D01*
X78600000Y-111443333D01*
X78633333Y-111410000D01*
X78700000Y-111376667D01*
X78866666Y-111376667D01*
X78966666Y-111410000D01*
X79266667Y-112076667D02*
X79266667Y-111376667D01*
X79433333Y-111376667D01*
X79533333Y-111410000D01*
X79600000Y-111476667D01*
X79633333Y-111543333D01*
X79666667Y-111676667D01*
X79666667Y-111776667D01*
X79633333Y-111910000D01*
X79600000Y-111976667D01*
X79533333Y-112043333D01*
X79433333Y-112076667D01*
X79266667Y-112076667D01*
X79933333Y-111876667D02*
X80266667Y-111876667D01*
X79866667Y-112076667D02*
X80100000Y-111376667D01*
X80333333Y-112076667D01*
X76700000Y-109536667D02*
X76366667Y-109536667D01*
X76366667Y-108836667D01*
X76933334Y-109170000D02*
X77166667Y-109170000D01*
X77266667Y-109536667D02*
X76933334Y-109536667D01*
X76933334Y-108836667D01*
X77266667Y-108836667D01*
X77566667Y-109536667D02*
X77566667Y-108836667D01*
X77733333Y-108836667D01*
X77833333Y-108870000D01*
X77900000Y-108936667D01*
X77933333Y-109003333D01*
X77966667Y-109136667D01*
X77966667Y-109236667D01*
X77933333Y-109370000D01*
X77900000Y-109436667D01*
X77833333Y-109503333D01*
X77733333Y-109536667D01*
X77566667Y-109536667D01*
X78100000Y-109603333D02*
X78633333Y-109603333D01*
X78800000Y-109536667D02*
X78800000Y-108836667D01*
X78966666Y-108836667D01*
X79066666Y-108870000D01*
X79133333Y-108936667D01*
X79166666Y-109003333D01*
X79200000Y-109136667D01*
X79200000Y-109236667D01*
X79166666Y-109370000D01*
X79133333Y-109436667D01*
X79066666Y-109503333D01*
X78966666Y-109536667D01*
X78800000Y-109536667D01*
X79466666Y-109336667D02*
X79800000Y-109336667D01*
X79400000Y-109536667D02*
X79633333Y-108836667D01*
X79866666Y-109536667D01*
X80000000Y-108836667D02*
X80400000Y-108836667D01*
X80200000Y-109536667D02*
X80200000Y-108836667D01*
X80599999Y-109336667D02*
X80933333Y-109336667D01*
X80533333Y-109536667D02*
X80766666Y-108836667D01*
X80999999Y-109536667D01*
X76733333Y-106996667D02*
X76333333Y-106996667D01*
X76533333Y-106996667D02*
X76533333Y-106296667D01*
X76466667Y-106396667D01*
X76400000Y-106463333D01*
X76333333Y-106496667D01*
X77166667Y-106296667D02*
X77233334Y-106296667D01*
X77300000Y-106330000D01*
X77333334Y-106363333D01*
X77366667Y-106430000D01*
X77400000Y-106563333D01*
X77400000Y-106730000D01*
X77366667Y-106863333D01*
X77333334Y-106930000D01*
X77300000Y-106963333D01*
X77233334Y-106996667D01*
X77166667Y-106996667D01*
X77100000Y-106963333D01*
X77066667Y-106930000D01*
X77033334Y-106863333D01*
X77000000Y-106730000D01*
X77000000Y-106563333D01*
X77033334Y-106430000D01*
X77066667Y-106363333D01*
X77100000Y-106330000D01*
X77166667Y-106296667D01*
X77600001Y-106296667D02*
X77833334Y-106996667D01*
X78066667Y-106296667D01*
X76733333Y-103790000D02*
X76666667Y-103756667D01*
X76566667Y-103756667D01*
X76466667Y-103790000D01*
X76400000Y-103856667D01*
X76366667Y-103923333D01*
X76333333Y-104056667D01*
X76333333Y-104156667D01*
X76366667Y-104290000D01*
X76400000Y-104356667D01*
X76466667Y-104423333D01*
X76566667Y-104456667D01*
X76633333Y-104456667D01*
X76733333Y-104423333D01*
X76766667Y-104390000D01*
X76766667Y-104156667D01*
X76633333Y-104156667D01*
X77066667Y-104456667D02*
X77066667Y-103756667D01*
X77466667Y-104456667D01*
X77466667Y-103756667D01*
X77800000Y-104456667D02*
X77800000Y-103756667D01*
X77966666Y-103756667D01*
X78066666Y-103790000D01*
X78133333Y-103856667D01*
X78166666Y-103923333D01*
X78200000Y-104056667D01*
X78200000Y-104156667D01*
X78166666Y-104290000D01*
X78133333Y-104356667D01*
X78066666Y-104423333D01*
X77966666Y-104456667D01*
X77800000Y-104456667D01*
X76766667Y-119696667D02*
X76533333Y-119363333D01*
X76366667Y-119696667D02*
X76366667Y-118996667D01*
X76633333Y-118996667D01*
X76700000Y-119030000D01*
X76733333Y-119063333D01*
X76766667Y-119130000D01*
X76766667Y-119230000D01*
X76733333Y-119296667D01*
X76700000Y-119330000D01*
X76633333Y-119363333D01*
X76366667Y-119363333D01*
X77066667Y-118996667D02*
X77066667Y-119563333D01*
X77100000Y-119630000D01*
X77133333Y-119663333D01*
X77200000Y-119696667D01*
X77333333Y-119696667D01*
X77400000Y-119663333D01*
X77433333Y-119630000D01*
X77466667Y-119563333D01*
X77466667Y-118996667D01*
X77800000Y-119696667D02*
X77800000Y-118996667D01*
X78200000Y-119696667D01*
X78200000Y-118996667D01*
X78366666Y-119763333D02*
X78899999Y-119763333D01*
X79199999Y-118996667D02*
X79333332Y-118996667D01*
X79399999Y-119030000D01*
X79466666Y-119096667D01*
X79499999Y-119230000D01*
X79499999Y-119463333D01*
X79466666Y-119596667D01*
X79399999Y-119663333D01*
X79333332Y-119696667D01*
X79199999Y-119696667D01*
X79133332Y-119663333D01*
X79066666Y-119596667D01*
X79033332Y-119463333D01*
X79033332Y-119230000D01*
X79066666Y-119096667D01*
X79133332Y-119030000D01*
X79199999Y-118996667D01*
X79799999Y-118996667D02*
X79799999Y-119563333D01*
X79833332Y-119630000D01*
X79866665Y-119663333D01*
X79933332Y-119696667D01*
X80066665Y-119696667D01*
X80133332Y-119663333D01*
X80166665Y-119630000D01*
X80199999Y-119563333D01*
X80199999Y-118996667D01*
X80433332Y-118996667D02*
X80833332Y-118996667D01*
X80633332Y-119696667D02*
X80633332Y-118996667D01*
X76766667Y-122236667D02*
X76533333Y-121903333D01*
X76366667Y-122236667D02*
X76366667Y-121536667D01*
X76633333Y-121536667D01*
X76700000Y-121570000D01*
X76733333Y-121603333D01*
X76766667Y-121670000D01*
X76766667Y-121770000D01*
X76733333Y-121836667D01*
X76700000Y-121870000D01*
X76633333Y-121903333D01*
X76366667Y-121903333D01*
X77066667Y-121536667D02*
X77066667Y-122103333D01*
X77100000Y-122170000D01*
X77133333Y-122203333D01*
X77200000Y-122236667D01*
X77333333Y-122236667D01*
X77400000Y-122203333D01*
X77433333Y-122170000D01*
X77466667Y-122103333D01*
X77466667Y-121536667D01*
X77800000Y-122236667D02*
X77800000Y-121536667D01*
X78200000Y-122236667D01*
X78200000Y-121536667D01*
X78366666Y-122303333D02*
X78899999Y-122303333D01*
X79399999Y-122236667D02*
X79066666Y-122236667D01*
X79066666Y-121536667D01*
X79766666Y-121536667D02*
X79899999Y-121536667D01*
X79966666Y-121570000D01*
X80033333Y-121636667D01*
X80066666Y-121770000D01*
X80066666Y-122003333D01*
X80033333Y-122136667D01*
X79966666Y-122203333D01*
X79899999Y-122236667D01*
X79766666Y-122236667D01*
X79699999Y-122203333D01*
X79633333Y-122136667D01*
X79599999Y-122003333D01*
X79599999Y-121770000D01*
X79633333Y-121636667D01*
X79699999Y-121570000D01*
X79766666Y-121536667D01*
X80499999Y-121536667D02*
X80633332Y-121536667D01*
X80699999Y-121570000D01*
X80766666Y-121636667D01*
X80799999Y-121770000D01*
X80799999Y-122003333D01*
X80766666Y-122136667D01*
X80699999Y-122203333D01*
X80633332Y-122236667D01*
X80499999Y-122236667D01*
X80433332Y-122203333D01*
X80366666Y-122136667D01*
X80333332Y-122003333D01*
X80333332Y-121770000D01*
X80366666Y-121636667D01*
X80433332Y-121570000D01*
X80499999Y-121536667D01*
X81099999Y-122236667D02*
X81099999Y-121536667D01*
X81366665Y-121536667D01*
X81433332Y-121570000D01*
X81466665Y-121603333D01*
X81499999Y-121670000D01*
X81499999Y-121770000D01*
X81466665Y-121836667D01*
X81433332Y-121870000D01*
X81366665Y-121903333D01*
X81099999Y-121903333D01*
X76366667Y-117156667D02*
X76366667Y-116456667D01*
X77100000Y-117156667D02*
X76866666Y-116823333D01*
X76700000Y-117156667D02*
X76700000Y-116456667D01*
X76966666Y-116456667D01*
X77033333Y-116490000D01*
X77066666Y-116523333D01*
X77100000Y-116590000D01*
X77100000Y-116690000D01*
X77066666Y-116756667D01*
X77033333Y-116790000D01*
X76966666Y-116823333D01*
X76700000Y-116823333D01*
X77866666Y-117223333D02*
X77800000Y-117190000D01*
X77733333Y-117123333D01*
X77633333Y-117023333D01*
X77566666Y-116990000D01*
X77500000Y-116990000D01*
X77533333Y-117156667D02*
X77466666Y-117123333D01*
X77400000Y-117056667D01*
X77366666Y-116923333D01*
X77366666Y-116690000D01*
X77400000Y-116556667D01*
X77466666Y-116490000D01*
X77533333Y-116456667D01*
X77666666Y-116456667D01*
X77733333Y-116490000D01*
X77800000Y-116556667D01*
X77833333Y-116690000D01*
X77833333Y-116923333D01*
X77800000Y-117056667D01*
X77733333Y-117123333D01*
X77666666Y-117156667D01*
X77533333Y-117156667D01*
X76366667Y-114616667D02*
X76366667Y-113916667D01*
X76666666Y-113983333D02*
X76700000Y-113950000D01*
X76766666Y-113916667D01*
X76933333Y-113916667D01*
X77000000Y-113950000D01*
X77033333Y-113983333D01*
X77066666Y-114050000D01*
X77066666Y-114116667D01*
X77033333Y-114216667D01*
X76633333Y-114616667D01*
X77066666Y-114616667D01*
X77766667Y-114550000D02*
X77733333Y-114583333D01*
X77633333Y-114616667D01*
X77566667Y-114616667D01*
X77466667Y-114583333D01*
X77400000Y-114516667D01*
X77366667Y-114450000D01*
X77333333Y-114316667D01*
X77333333Y-114216667D01*
X77366667Y-114083333D01*
X77400000Y-114016667D01*
X77466667Y-113950000D01*
X77566667Y-113916667D01*
X77633333Y-113916667D01*
X77733333Y-113950000D01*
X77766667Y-113983333D01*
X77900000Y-114683333D02*
X78433333Y-114683333D01*
X78566666Y-114583333D02*
X78666666Y-114616667D01*
X78833333Y-114616667D01*
X78900000Y-114583333D01*
X78933333Y-114550000D01*
X78966666Y-114483333D01*
X78966666Y-114416667D01*
X78933333Y-114350000D01*
X78900000Y-114316667D01*
X78833333Y-114283333D01*
X78700000Y-114250000D01*
X78633333Y-114216667D01*
X78600000Y-114183333D01*
X78566666Y-114116667D01*
X78566666Y-114050000D01*
X78600000Y-113983333D01*
X78633333Y-113950000D01*
X78700000Y-113916667D01*
X78866666Y-113916667D01*
X78966666Y-113950000D01*
X79666667Y-114550000D02*
X79633333Y-114583333D01*
X79533333Y-114616667D01*
X79466667Y-114616667D01*
X79366667Y-114583333D01*
X79300000Y-114516667D01*
X79266667Y-114450000D01*
X79233333Y-114316667D01*
X79233333Y-114216667D01*
X79266667Y-114083333D01*
X79300000Y-114016667D01*
X79366667Y-113950000D01*
X79466667Y-113916667D01*
X79533333Y-113916667D01*
X79633333Y-113950000D01*
X79666667Y-113983333D01*
X80300000Y-114616667D02*
X79966667Y-114616667D01*
X79966667Y-113916667D01*
X76700000Y-101216667D02*
X76366667Y-101216667D01*
X76333333Y-101550000D01*
X76366667Y-101516667D01*
X76433333Y-101483333D01*
X76600000Y-101483333D01*
X76666667Y-101516667D01*
X76700000Y-101550000D01*
X76733333Y-101616667D01*
X76733333Y-101783333D01*
X76700000Y-101850000D01*
X76666667Y-101883333D01*
X76600000Y-101916667D01*
X76433333Y-101916667D01*
X76366667Y-101883333D01*
X76333333Y-101850000D01*
X76933334Y-101216667D02*
X77166667Y-101916667D01*
X77400000Y-101216667D01*
X158963335Y-122236667D02*
X158730001Y-121903333D01*
X158563335Y-122236667D02*
X158563335Y-121536667D01*
X158830001Y-121536667D01*
X158896668Y-121570000D01*
X158930001Y-121603333D01*
X158963335Y-121670000D01*
X158963335Y-121770000D01*
X158930001Y-121836667D01*
X158896668Y-121870000D01*
X158830001Y-121903333D01*
X158563335Y-121903333D01*
X159263335Y-121536667D02*
X159263335Y-122103333D01*
X159296668Y-122170000D01*
X159330001Y-122203333D01*
X159396668Y-122236667D01*
X159530001Y-122236667D01*
X159596668Y-122203333D01*
X159630001Y-122170000D01*
X159663335Y-122103333D01*
X159663335Y-121536667D01*
X159996668Y-122236667D02*
X159996668Y-121536667D01*
X160396668Y-122236667D01*
X160396668Y-121536667D01*
X160563334Y-122303333D02*
X161096667Y-122303333D01*
X161596667Y-122236667D02*
X161263334Y-122236667D01*
X161263334Y-121536667D01*
X161963334Y-121536667D02*
X162096667Y-121536667D01*
X162163334Y-121570000D01*
X162230001Y-121636667D01*
X162263334Y-121770000D01*
X162263334Y-122003333D01*
X162230001Y-122136667D01*
X162163334Y-122203333D01*
X162096667Y-122236667D01*
X161963334Y-122236667D01*
X161896667Y-122203333D01*
X161830001Y-122136667D01*
X161796667Y-122003333D01*
X161796667Y-121770000D01*
X161830001Y-121636667D01*
X161896667Y-121570000D01*
X161963334Y-121536667D01*
X162696667Y-121536667D02*
X162830000Y-121536667D01*
X162896667Y-121570000D01*
X162963334Y-121636667D01*
X162996667Y-121770000D01*
X162996667Y-122003333D01*
X162963334Y-122136667D01*
X162896667Y-122203333D01*
X162830000Y-122236667D01*
X162696667Y-122236667D01*
X162630000Y-122203333D01*
X162563334Y-122136667D01*
X162530000Y-122003333D01*
X162530000Y-121770000D01*
X162563334Y-121636667D01*
X162630000Y-121570000D01*
X162696667Y-121536667D01*
X163296667Y-122236667D02*
X163296667Y-121536667D01*
X163563333Y-121536667D01*
X163630000Y-121570000D01*
X163663333Y-121603333D01*
X163696667Y-121670000D01*
X163696667Y-121770000D01*
X163663333Y-121836667D01*
X163630000Y-121870000D01*
X163563333Y-121903333D01*
X163296667Y-121903333D01*
X160630002Y-119696667D02*
X160396668Y-119363333D01*
X160230002Y-119696667D02*
X160230002Y-118996667D01*
X160496668Y-118996667D01*
X160563335Y-119030000D01*
X160596668Y-119063333D01*
X160630002Y-119130000D01*
X160630002Y-119230000D01*
X160596668Y-119296667D01*
X160563335Y-119330000D01*
X160496668Y-119363333D01*
X160230002Y-119363333D01*
X160930002Y-118996667D02*
X160930002Y-119563333D01*
X160963335Y-119630000D01*
X160996668Y-119663333D01*
X161063335Y-119696667D01*
X161196668Y-119696667D01*
X161263335Y-119663333D01*
X161296668Y-119630000D01*
X161330002Y-119563333D01*
X161330002Y-118996667D01*
X161663335Y-119696667D02*
X161663335Y-118996667D01*
X162063335Y-119696667D01*
X162063335Y-118996667D01*
X162230001Y-119763333D02*
X162763334Y-119763333D01*
X162930001Y-119696667D02*
X162930001Y-118996667D01*
X163263334Y-119696667D02*
X163263334Y-118996667D01*
X163663334Y-119696667D01*
X163663334Y-118996667D01*
X162230001Y-117156667D02*
X162230001Y-116456667D01*
X162963334Y-117156667D02*
X162730000Y-116823333D01*
X162563334Y-117156667D02*
X162563334Y-116456667D01*
X162830000Y-116456667D01*
X162896667Y-116490000D01*
X162930000Y-116523333D01*
X162963334Y-116590000D01*
X162963334Y-116690000D01*
X162930000Y-116756667D01*
X162896667Y-116790000D01*
X162830000Y-116823333D01*
X162563334Y-116823333D01*
X163730000Y-117223333D02*
X163663334Y-117190000D01*
X163596667Y-117123333D01*
X163496667Y-117023333D01*
X163430000Y-116990000D01*
X163363334Y-116990000D01*
X163396667Y-117156667D02*
X163330000Y-117123333D01*
X163263334Y-117056667D01*
X163230000Y-116923333D01*
X163230000Y-116690000D01*
X163263334Y-116556667D01*
X163330000Y-116490000D01*
X163396667Y-116456667D01*
X163530000Y-116456667D01*
X163596667Y-116490000D01*
X163663334Y-116556667D01*
X163696667Y-116690000D01*
X163696667Y-116923333D01*
X163663334Y-117056667D01*
X163596667Y-117123333D01*
X163530000Y-117156667D01*
X163396667Y-117156667D01*
X159830000Y-114616667D02*
X159830000Y-113916667D01*
X160129999Y-113983333D02*
X160163333Y-113950000D01*
X160229999Y-113916667D01*
X160396666Y-113916667D01*
X160463333Y-113950000D01*
X160496666Y-113983333D01*
X160529999Y-114050000D01*
X160529999Y-114116667D01*
X160496666Y-114216667D01*
X160096666Y-114616667D01*
X160529999Y-114616667D01*
X161230000Y-114550000D02*
X161196666Y-114583333D01*
X161096666Y-114616667D01*
X161030000Y-114616667D01*
X160930000Y-114583333D01*
X160863333Y-114516667D01*
X160830000Y-114450000D01*
X160796666Y-114316667D01*
X160796666Y-114216667D01*
X160830000Y-114083333D01*
X160863333Y-114016667D01*
X160930000Y-113950000D01*
X161030000Y-113916667D01*
X161096666Y-113916667D01*
X161196666Y-113950000D01*
X161230000Y-113983333D01*
X161363333Y-114683333D02*
X161896666Y-114683333D01*
X162029999Y-114583333D02*
X162129999Y-114616667D01*
X162296666Y-114616667D01*
X162363333Y-114583333D01*
X162396666Y-114550000D01*
X162429999Y-114483333D01*
X162429999Y-114416667D01*
X162396666Y-114350000D01*
X162363333Y-114316667D01*
X162296666Y-114283333D01*
X162163333Y-114250000D01*
X162096666Y-114216667D01*
X162063333Y-114183333D01*
X162029999Y-114116667D01*
X162029999Y-114050000D01*
X162063333Y-113983333D01*
X162096666Y-113950000D01*
X162163333Y-113916667D01*
X162329999Y-113916667D01*
X162429999Y-113950000D01*
X163130000Y-114550000D02*
X163096666Y-114583333D01*
X162996666Y-114616667D01*
X162930000Y-114616667D01*
X162830000Y-114583333D01*
X162763333Y-114516667D01*
X162730000Y-114450000D01*
X162696666Y-114316667D01*
X162696666Y-114216667D01*
X162730000Y-114083333D01*
X162763333Y-114016667D01*
X162830000Y-113950000D01*
X162930000Y-113916667D01*
X162996666Y-113916667D01*
X163096666Y-113950000D01*
X163130000Y-113983333D01*
X163763333Y-114616667D02*
X163430000Y-114616667D01*
X163430000Y-113916667D01*
X159796667Y-112076667D02*
X159796667Y-111376667D01*
X160096666Y-111443333D02*
X160130000Y-111410000D01*
X160196666Y-111376667D01*
X160363333Y-111376667D01*
X160430000Y-111410000D01*
X160463333Y-111443333D01*
X160496666Y-111510000D01*
X160496666Y-111576667D01*
X160463333Y-111676667D01*
X160063333Y-112076667D01*
X160496666Y-112076667D01*
X161196667Y-112010000D02*
X161163333Y-112043333D01*
X161063333Y-112076667D01*
X160996667Y-112076667D01*
X160896667Y-112043333D01*
X160830000Y-111976667D01*
X160796667Y-111910000D01*
X160763333Y-111776667D01*
X160763333Y-111676667D01*
X160796667Y-111543333D01*
X160830000Y-111476667D01*
X160896667Y-111410000D01*
X160996667Y-111376667D01*
X161063333Y-111376667D01*
X161163333Y-111410000D01*
X161196667Y-111443333D01*
X161330000Y-112143333D02*
X161863333Y-112143333D01*
X161996666Y-112043333D02*
X162096666Y-112076667D01*
X162263333Y-112076667D01*
X162330000Y-112043333D01*
X162363333Y-112010000D01*
X162396666Y-111943333D01*
X162396666Y-111876667D01*
X162363333Y-111810000D01*
X162330000Y-111776667D01*
X162263333Y-111743333D01*
X162130000Y-111710000D01*
X162063333Y-111676667D01*
X162030000Y-111643333D01*
X161996666Y-111576667D01*
X161996666Y-111510000D01*
X162030000Y-111443333D01*
X162063333Y-111410000D01*
X162130000Y-111376667D01*
X162296666Y-111376667D01*
X162396666Y-111410000D01*
X162696667Y-112076667D02*
X162696667Y-111376667D01*
X162863333Y-111376667D01*
X162963333Y-111410000D01*
X163030000Y-111476667D01*
X163063333Y-111543333D01*
X163096667Y-111676667D01*
X163096667Y-111776667D01*
X163063333Y-111910000D01*
X163030000Y-111976667D01*
X162963333Y-112043333D01*
X162863333Y-112076667D01*
X162696667Y-112076667D01*
X163363333Y-111876667D02*
X163696667Y-111876667D01*
X163296667Y-112076667D02*
X163530000Y-111376667D01*
X163763333Y-112076667D01*
X159463334Y-109536667D02*
X159130001Y-109536667D01*
X159130001Y-108836667D01*
X159696668Y-109170000D02*
X159930001Y-109170000D01*
X160030001Y-109536667D02*
X159696668Y-109536667D01*
X159696668Y-108836667D01*
X160030001Y-108836667D01*
X160330001Y-109536667D02*
X160330001Y-108836667D01*
X160496667Y-108836667D01*
X160596667Y-108870000D01*
X160663334Y-108936667D01*
X160696667Y-109003333D01*
X160730001Y-109136667D01*
X160730001Y-109236667D01*
X160696667Y-109370000D01*
X160663334Y-109436667D01*
X160596667Y-109503333D01*
X160496667Y-109536667D01*
X160330001Y-109536667D01*
X160863334Y-109603333D02*
X161396667Y-109603333D01*
X161563334Y-109536667D02*
X161563334Y-108836667D01*
X161730000Y-108836667D01*
X161830000Y-108870000D01*
X161896667Y-108936667D01*
X161930000Y-109003333D01*
X161963334Y-109136667D01*
X161963334Y-109236667D01*
X161930000Y-109370000D01*
X161896667Y-109436667D01*
X161830000Y-109503333D01*
X161730000Y-109536667D01*
X161563334Y-109536667D01*
X162230000Y-109336667D02*
X162563334Y-109336667D01*
X162163334Y-109536667D02*
X162396667Y-108836667D01*
X162630000Y-109536667D01*
X162763334Y-108836667D02*
X163163334Y-108836667D01*
X162963334Y-109536667D02*
X162963334Y-108836667D01*
X163363333Y-109336667D02*
X163696667Y-109336667D01*
X163296667Y-109536667D02*
X163530000Y-108836667D01*
X163763333Y-109536667D01*
X162429999Y-106996667D02*
X162029999Y-106996667D01*
X162229999Y-106996667D02*
X162229999Y-106296667D01*
X162163333Y-106396667D01*
X162096666Y-106463333D01*
X162029999Y-106496667D01*
X162863333Y-106296667D02*
X162930000Y-106296667D01*
X162996666Y-106330000D01*
X163030000Y-106363333D01*
X163063333Y-106430000D01*
X163096666Y-106563333D01*
X163096666Y-106730000D01*
X163063333Y-106863333D01*
X163030000Y-106930000D01*
X162996666Y-106963333D01*
X162930000Y-106996667D01*
X162863333Y-106996667D01*
X162796666Y-106963333D01*
X162763333Y-106930000D01*
X162730000Y-106863333D01*
X162696666Y-106730000D01*
X162696666Y-106563333D01*
X162730000Y-106430000D01*
X162763333Y-106363333D01*
X162796666Y-106330000D01*
X162863333Y-106296667D01*
X163296667Y-106296667D02*
X163530000Y-106996667D01*
X163763333Y-106296667D01*
X162230000Y-103790000D02*
X162163334Y-103756667D01*
X162063334Y-103756667D01*
X161963334Y-103790000D01*
X161896667Y-103856667D01*
X161863334Y-103923333D01*
X161830000Y-104056667D01*
X161830000Y-104156667D01*
X161863334Y-104290000D01*
X161896667Y-104356667D01*
X161963334Y-104423333D01*
X162063334Y-104456667D01*
X162130000Y-104456667D01*
X162230000Y-104423333D01*
X162263334Y-104390000D01*
X162263334Y-104156667D01*
X162130000Y-104156667D01*
X162563334Y-104456667D02*
X162563334Y-103756667D01*
X162963334Y-104456667D01*
X162963334Y-103756667D01*
X163296667Y-104456667D02*
X163296667Y-103756667D01*
X163463333Y-103756667D01*
X163563333Y-103790000D01*
X163630000Y-103856667D01*
X163663333Y-103923333D01*
X163696667Y-104056667D01*
X163696667Y-104156667D01*
X163663333Y-104290000D01*
X163630000Y-104356667D01*
X163563333Y-104423333D01*
X163463333Y-104456667D01*
X163296667Y-104456667D01*
D13*
X75666600Y-94670113D02*
X75595171Y-94741541D01*
X75380886Y-94884398D01*
X75238029Y-94955827D01*
X75023743Y-95027256D01*
X74666600Y-95098684D01*
X74380886Y-95098684D01*
X74023743Y-95027256D01*
X73809457Y-94955827D01*
X73666600Y-94884398D01*
X73452314Y-94741541D01*
X73380886Y-94670113D01*
X75023743Y-93455827D02*
X75095171Y-93598684D01*
X75095171Y-93884398D01*
X75023743Y-94027256D01*
X74952314Y-94098684D01*
X74809457Y-94170113D01*
X74380886Y-94170113D01*
X74238029Y-94098684D01*
X74166600Y-94027256D01*
X74095171Y-93884398D01*
X74095171Y-93598684D01*
X74166600Y-93455827D01*
X75666600Y-92955827D02*
X75595171Y-92884399D01*
X75380886Y-92741542D01*
X75238029Y-92670113D01*
X75023743Y-92598684D01*
X74666600Y-92527256D01*
X74380886Y-92527256D01*
X74023743Y-92598684D01*
X73809457Y-92670113D01*
X73666600Y-92741542D01*
X73452314Y-92884399D01*
X73380886Y-92955827D01*
X73738029Y-90741542D02*
X73666600Y-90670113D01*
X73595171Y-90527256D01*
X73595171Y-90170113D01*
X73666600Y-90027256D01*
X73738029Y-89955827D01*
X73880886Y-89884399D01*
X74023743Y-89884399D01*
X74238029Y-89955827D01*
X75095171Y-90812970D01*
X75095171Y-89884399D01*
X73595171Y-88955828D02*
X73595171Y-88812971D01*
X73666600Y-88670114D01*
X73738029Y-88598685D01*
X73880886Y-88527256D01*
X74166600Y-88455828D01*
X74523743Y-88455828D01*
X74809457Y-88527256D01*
X74952314Y-88598685D01*
X75023743Y-88670114D01*
X75095171Y-88812971D01*
X75095171Y-88955828D01*
X75023743Y-89098685D01*
X74952314Y-89170114D01*
X74809457Y-89241542D01*
X74523743Y-89312971D01*
X74166600Y-89312971D01*
X73880886Y-89241542D01*
X73738029Y-89170114D01*
X73666600Y-89098685D01*
X73595171Y-88955828D01*
X75095171Y-87027257D02*
X75095171Y-87884400D01*
X75095171Y-87455828D02*
X73595171Y-87455828D01*
X73809457Y-87598685D01*
X73952314Y-87741543D01*
X74023743Y-87884400D01*
X73595171Y-86527257D02*
X73595171Y-85527257D01*
X75095171Y-86170114D01*
X75095171Y-83812972D02*
X73595171Y-83812972D01*
X74166600Y-83812972D02*
X74095171Y-83670115D01*
X74095171Y-83384401D01*
X74166600Y-83241544D01*
X74238029Y-83170115D01*
X74380886Y-83098686D01*
X74809457Y-83098686D01*
X74952314Y-83170115D01*
X75023743Y-83241544D01*
X75095171Y-83384401D01*
X75095171Y-83670115D01*
X75023743Y-83812972D01*
X74095171Y-82598686D02*
X75095171Y-82241543D01*
X74095171Y-81884401D02*
X75095171Y-82241543D01*
X75452314Y-82384401D01*
X75523743Y-82455829D01*
X75595171Y-82598686D01*
X73595171Y-79741544D02*
X74666600Y-79741544D01*
X74880886Y-79812972D01*
X75023743Y-79955829D01*
X75095171Y-80170115D01*
X75095171Y-80312972D01*
X74095171Y-78384401D02*
X75095171Y-78384401D01*
X74095171Y-79027258D02*
X74880886Y-79027258D01*
X75023743Y-78955830D01*
X75095171Y-78812972D01*
X75095171Y-78598687D01*
X75023743Y-78455830D01*
X74952314Y-78384401D01*
X75023743Y-77098687D02*
X75095171Y-77241544D01*
X75095171Y-77527258D01*
X75023743Y-77670115D01*
X74880886Y-77741544D01*
X74309457Y-77741544D01*
X74166600Y-77670115D01*
X74095171Y-77527258D01*
X74095171Y-77241544D01*
X74166600Y-77098687D01*
X74309457Y-77027258D01*
X74452314Y-77027258D01*
X74595171Y-77741544D01*
X75095171Y-76384401D02*
X74095171Y-76384401D01*
X74380886Y-76384401D02*
X74238029Y-76312973D01*
X74166600Y-76241544D01*
X74095171Y-76098687D01*
X74095171Y-75955830D01*
X74095171Y-74812973D02*
X75309457Y-74812973D01*
X75452314Y-74884402D01*
X75523743Y-74955830D01*
X75595171Y-75098687D01*
X75595171Y-75312973D01*
X75523743Y-75455830D01*
X75023743Y-74812973D02*
X75095171Y-74955830D01*
X75095171Y-75241544D01*
X75023743Y-75384402D01*
X74952314Y-75455830D01*
X74809457Y-75527259D01*
X74380886Y-75527259D01*
X74238029Y-75455830D01*
X74166600Y-75384402D01*
X74095171Y-75241544D01*
X74095171Y-74955830D01*
X74166600Y-74812973D01*
X75023743Y-73527259D02*
X75095171Y-73670116D01*
X75095171Y-73955830D01*
X75023743Y-74098687D01*
X74880886Y-74170116D01*
X74309457Y-74170116D01*
X74166600Y-74098687D01*
X74095171Y-73955830D01*
X74095171Y-73670116D01*
X74166600Y-73527259D01*
X74309457Y-73455830D01*
X74452314Y-73455830D01*
X74595171Y-74170116D01*
X74095171Y-72812973D02*
X75095171Y-72812973D01*
X74238029Y-72812973D02*
X74166600Y-72741545D01*
X74095171Y-72598687D01*
X74095171Y-72384402D01*
X74166600Y-72241545D01*
X74309457Y-72170116D01*
X75095171Y-72170116D01*
X75023743Y-70384402D02*
X75095171Y-70170116D01*
X75095171Y-69812973D01*
X75023743Y-69670116D01*
X74952314Y-69598687D01*
X74809457Y-69527259D01*
X74666600Y-69527259D01*
X74523743Y-69598687D01*
X74452314Y-69670116D01*
X74380886Y-69812973D01*
X74309457Y-70098687D01*
X74238029Y-70241545D01*
X74166600Y-70312973D01*
X74023743Y-70384402D01*
X73880886Y-70384402D01*
X73738029Y-70312973D01*
X73666600Y-70241545D01*
X73595171Y-70098687D01*
X73595171Y-69741545D01*
X73666600Y-69527259D01*
X75095171Y-68884402D02*
X73595171Y-68884402D01*
X74523743Y-68741545D02*
X75095171Y-68312974D01*
X74095171Y-68312974D02*
X74666600Y-68884402D01*
X75095171Y-67670116D02*
X74095171Y-67670116D01*
X74380886Y-67670116D02*
X74238029Y-67598688D01*
X74166600Y-67527259D01*
X74095171Y-67384402D01*
X74095171Y-67241545D01*
X75095171Y-66527259D02*
X75023743Y-66670117D01*
X74952314Y-66741545D01*
X74809457Y-66812974D01*
X74380886Y-66812974D01*
X74238029Y-66741545D01*
X74166600Y-66670117D01*
X74095171Y-66527259D01*
X74095171Y-66312974D01*
X74166600Y-66170117D01*
X74238029Y-66098688D01*
X74380886Y-66027259D01*
X74809457Y-66027259D01*
X74952314Y-66098688D01*
X75023743Y-66170117D01*
X75095171Y-66312974D01*
X75095171Y-66527259D01*
X74095171Y-65598688D02*
X74095171Y-65027259D01*
X73595171Y-65384402D02*
X74880886Y-65384402D01*
X75023743Y-65312974D01*
X75095171Y-65170116D01*
X75095171Y-65027259D01*
X74095171Y-64670116D02*
X74095171Y-63884402D01*
X75095171Y-64670116D01*
X75095171Y-63884402D01*
X75095171Y-63312973D02*
X73595171Y-63312973D01*
X74523743Y-63170116D02*
X75095171Y-62741545D01*
X74095171Y-62741545D02*
X74666600Y-63312973D01*
X74095171Y-62241544D02*
X75095171Y-61884401D01*
X74095171Y-61527259D02*
X75095171Y-61884401D01*
X75452314Y-62027259D01*
X75523743Y-62098687D01*
X75595171Y-62241544D01*
X78166600Y-94491543D02*
X78095171Y-94562971D01*
X77880886Y-94705828D01*
X77738029Y-94777257D01*
X77523743Y-94848686D01*
X77166600Y-94920114D01*
X76880886Y-94920114D01*
X76523743Y-94848686D01*
X76309457Y-94777257D01*
X76166600Y-94705828D01*
X75952314Y-94562971D01*
X75880886Y-94491543D01*
X76095171Y-93491543D02*
X77166600Y-93491543D01*
X77380886Y-93562971D01*
X77523743Y-93705828D01*
X77595171Y-93920114D01*
X77595171Y-94062971D01*
X77595171Y-92562971D02*
X77523743Y-92705829D01*
X77452314Y-92777257D01*
X77309457Y-92848686D01*
X76880886Y-92848686D01*
X76738029Y-92777257D01*
X76666600Y-92705829D01*
X76595171Y-92562971D01*
X76595171Y-92348686D01*
X76666600Y-92205829D01*
X76738029Y-92134400D01*
X76880886Y-92062971D01*
X77309457Y-92062971D01*
X77452314Y-92134400D01*
X77523743Y-92205829D01*
X77595171Y-92348686D01*
X77595171Y-92562971D01*
X77595171Y-91420114D02*
X76595171Y-91420114D01*
X76880886Y-91420114D02*
X76738029Y-91348686D01*
X76666600Y-91277257D01*
X76595171Y-91134400D01*
X76595171Y-90991543D01*
X76595171Y-89848686D02*
X77809457Y-89848686D01*
X77952314Y-89920115D01*
X78023743Y-89991543D01*
X78095171Y-90134400D01*
X78095171Y-90348686D01*
X78023743Y-90491543D01*
X77523743Y-89848686D02*
X77595171Y-89991543D01*
X77595171Y-90277257D01*
X77523743Y-90420115D01*
X77452314Y-90491543D01*
X77309457Y-90562972D01*
X76880886Y-90562972D01*
X76738029Y-90491543D01*
X76666600Y-90420115D01*
X76595171Y-90277257D01*
X76595171Y-89991543D01*
X76666600Y-89848686D01*
X77523743Y-88562972D02*
X77595171Y-88705829D01*
X77595171Y-88991543D01*
X77523743Y-89134400D01*
X77380886Y-89205829D01*
X76809457Y-89205829D01*
X76666600Y-89134400D01*
X76595171Y-88991543D01*
X76595171Y-88705829D01*
X76666600Y-88562972D01*
X76809457Y-88491543D01*
X76952314Y-88491543D01*
X77095171Y-89205829D01*
X76595171Y-87848686D02*
X77595171Y-87848686D01*
X76738029Y-87848686D02*
X76666600Y-87777258D01*
X76595171Y-87634400D01*
X76595171Y-87420115D01*
X76666600Y-87277258D01*
X76809457Y-87205829D01*
X77595171Y-87205829D01*
X76095171Y-86705829D02*
X77595171Y-86205829D01*
X76095171Y-85705829D01*
X77595171Y-85205829D02*
X76595171Y-85205829D01*
X76095171Y-85205829D02*
X76166600Y-85277258D01*
X76238029Y-85205829D01*
X76166600Y-85134401D01*
X76095171Y-85205829D01*
X76238029Y-85205829D01*
X77595171Y-84491543D02*
X76095171Y-84491543D01*
X77023743Y-84348686D02*
X77595171Y-83920115D01*
X76595171Y-83920115D02*
X77166600Y-84491543D01*
X77595171Y-83277257D02*
X76595171Y-83277257D01*
X76095171Y-83277257D02*
X76166600Y-83348686D01*
X76238029Y-83277257D01*
X76166600Y-83205829D01*
X76095171Y-83277257D01*
X76238029Y-83277257D01*
X76595171Y-82562971D02*
X77595171Y-82562971D01*
X76738029Y-82562971D02*
X76666600Y-82491543D01*
X76595171Y-82348685D01*
X76595171Y-82134400D01*
X76666600Y-81991543D01*
X76809457Y-81920114D01*
X77595171Y-81920114D01*
X76595171Y-80562971D02*
X77809457Y-80562971D01*
X77952314Y-80634400D01*
X78023743Y-80705828D01*
X78095171Y-80848685D01*
X78095171Y-81062971D01*
X78023743Y-81205828D01*
X77523743Y-80562971D02*
X77595171Y-80705828D01*
X77595171Y-80991542D01*
X77523743Y-81134400D01*
X77452314Y-81205828D01*
X77309457Y-81277257D01*
X76880886Y-81277257D01*
X76738029Y-81205828D01*
X76666600Y-81134400D01*
X76595171Y-80991542D01*
X76595171Y-80705828D01*
X76666600Y-80562971D01*
X76166600Y-79062971D02*
X76095171Y-79205828D01*
X76095171Y-79420114D01*
X76166600Y-79634399D01*
X76309457Y-79777257D01*
X76452314Y-79848685D01*
X76738029Y-79920114D01*
X76952314Y-79920114D01*
X77238029Y-79848685D01*
X77380886Y-79777257D01*
X77523743Y-79634399D01*
X77595171Y-79420114D01*
X77595171Y-79277257D01*
X77523743Y-79062971D01*
X77452314Y-78991542D01*
X76952314Y-78991542D01*
X76952314Y-79277257D01*
X77595171Y-78134399D02*
X77523743Y-78277257D01*
X77452314Y-78348685D01*
X77309457Y-78420114D01*
X76880886Y-78420114D01*
X76738029Y-78348685D01*
X76666600Y-78277257D01*
X76595171Y-78134399D01*
X76595171Y-77920114D01*
X76666600Y-77777257D01*
X76738029Y-77705828D01*
X76880886Y-77634399D01*
X77309457Y-77634399D01*
X77452314Y-77705828D01*
X77523743Y-77777257D01*
X77595171Y-77920114D01*
X77595171Y-78134399D01*
X77595171Y-76348685D02*
X76095171Y-76348685D01*
X77523743Y-76348685D02*
X77595171Y-76491542D01*
X77595171Y-76777256D01*
X77523743Y-76920114D01*
X77452314Y-76991542D01*
X77309457Y-77062971D01*
X76880886Y-77062971D01*
X76738029Y-76991542D01*
X76666600Y-76920114D01*
X76595171Y-76777256D01*
X76595171Y-76491542D01*
X76666600Y-76348685D01*
X76880886Y-74705828D02*
X76809457Y-74777256D01*
X76738029Y-74920113D01*
X76738029Y-75062971D01*
X76809457Y-75205828D01*
X76880886Y-75277256D01*
X77023743Y-75348685D01*
X77166600Y-75348685D01*
X77309457Y-75277256D01*
X77380886Y-75205828D01*
X77452314Y-75062971D01*
X77452314Y-74920113D01*
X77380886Y-74777256D01*
X77309457Y-74705828D01*
X76738029Y-74705828D02*
X77309457Y-74705828D01*
X77380886Y-74634399D01*
X77380886Y-74562971D01*
X77309457Y-74420113D01*
X77166600Y-74348685D01*
X76809457Y-74348685D01*
X76595171Y-74491542D01*
X76452314Y-74705828D01*
X76380886Y-74991542D01*
X76452314Y-75277256D01*
X76595171Y-75491542D01*
X76809457Y-75634399D01*
X77095171Y-75705828D01*
X77380886Y-75634399D01*
X77595171Y-75491542D01*
X77738029Y-75277256D01*
X77809457Y-74991542D01*
X77738029Y-74705828D01*
X77595171Y-74491542D01*
X76595171Y-73062971D02*
X77809457Y-73062971D01*
X77952314Y-73134400D01*
X78023743Y-73205828D01*
X78095171Y-73348685D01*
X78095171Y-73562971D01*
X78023743Y-73705828D01*
X77523743Y-73062971D02*
X77595171Y-73205828D01*
X77595171Y-73491542D01*
X77523743Y-73634400D01*
X77452314Y-73705828D01*
X77309457Y-73777257D01*
X76880886Y-73777257D01*
X76738029Y-73705828D01*
X76666600Y-73634400D01*
X76595171Y-73491542D01*
X76595171Y-73205828D01*
X76666600Y-73062971D01*
X77595171Y-72348685D02*
X76595171Y-72348685D01*
X76738029Y-72348685D02*
X76666600Y-72277257D01*
X76595171Y-72134399D01*
X76595171Y-71920114D01*
X76666600Y-71777257D01*
X76809457Y-71705828D01*
X77595171Y-71705828D01*
X76809457Y-71705828D02*
X76666600Y-71634399D01*
X76595171Y-71491542D01*
X76595171Y-71277257D01*
X76666600Y-71134399D01*
X76809457Y-71062971D01*
X77595171Y-71062971D01*
X77595171Y-69705828D02*
X76809457Y-69705828D01*
X76666600Y-69777257D01*
X76595171Y-69920114D01*
X76595171Y-70205828D01*
X76666600Y-70348685D01*
X77523743Y-69705828D02*
X77595171Y-69848685D01*
X77595171Y-70205828D01*
X77523743Y-70348685D01*
X77380886Y-70420114D01*
X77238029Y-70420114D01*
X77095171Y-70348685D01*
X77023743Y-70205828D01*
X77023743Y-69848685D01*
X76952314Y-69705828D01*
X77595171Y-68991542D02*
X76595171Y-68991542D01*
X76095171Y-68991542D02*
X76166600Y-69062971D01*
X76238029Y-68991542D01*
X76166600Y-68920114D01*
X76095171Y-68991542D01*
X76238029Y-68991542D01*
X77595171Y-68062970D02*
X77523743Y-68205828D01*
X77380886Y-68277256D01*
X76095171Y-68277256D01*
X77452314Y-67491542D02*
X77523743Y-67420114D01*
X77595171Y-67491542D01*
X77523743Y-67562971D01*
X77452314Y-67491542D01*
X77595171Y-67491542D01*
X77523743Y-66134399D02*
X77595171Y-66277256D01*
X77595171Y-66562970D01*
X77523743Y-66705828D01*
X77452314Y-66777256D01*
X77309457Y-66848685D01*
X76880886Y-66848685D01*
X76738029Y-66777256D01*
X76666600Y-66705828D01*
X76595171Y-66562970D01*
X76595171Y-66277256D01*
X76666600Y-66134399D01*
X77595171Y-65277256D02*
X77523743Y-65420114D01*
X77452314Y-65491542D01*
X77309457Y-65562971D01*
X76880886Y-65562971D01*
X76738029Y-65491542D01*
X76666600Y-65420114D01*
X76595171Y-65277256D01*
X76595171Y-65062971D01*
X76666600Y-64920114D01*
X76738029Y-64848685D01*
X76880886Y-64777256D01*
X77309457Y-64777256D01*
X77452314Y-64848685D01*
X77523743Y-64920114D01*
X77595171Y-65062971D01*
X77595171Y-65277256D01*
X77595171Y-64134399D02*
X76595171Y-64134399D01*
X76738029Y-64134399D02*
X76666600Y-64062971D01*
X76595171Y-63920113D01*
X76595171Y-63705828D01*
X76666600Y-63562971D01*
X76809457Y-63491542D01*
X77595171Y-63491542D01*
X76809457Y-63491542D02*
X76666600Y-63420113D01*
X76595171Y-63277256D01*
X76595171Y-63062971D01*
X76666600Y-62920113D01*
X76809457Y-62848685D01*
X77595171Y-62848685D01*
X78166600Y-62277256D02*
X78095171Y-62205828D01*
X77880886Y-62062971D01*
X77738029Y-61991542D01*
X77523743Y-61920113D01*
X77166600Y-61848685D01*
X76880886Y-61848685D01*
X76523743Y-61920113D01*
X76309457Y-61991542D01*
X76166600Y-62062971D01*
X75952314Y-62205828D01*
X75880886Y-62277256D01*
X99875322Y-137790181D02*
X99875322Y-136790181D01*
X100303894Y-137790181D02*
X100303894Y-137266371D01*
X100256275Y-137171133D01*
X100161037Y-137123514D01*
X100018179Y-137123514D01*
X99922941Y-137171133D01*
X99875322Y-137218752D01*
X100637227Y-137123514D02*
X101018179Y-137123514D01*
X100780084Y-136790181D02*
X100780084Y-137647324D01*
X100827703Y-137742562D01*
X100922941Y-137790181D01*
X101018179Y-137790181D01*
X101208656Y-137123514D02*
X101589608Y-137123514D01*
X101351513Y-136790181D02*
X101351513Y-137647324D01*
X101399132Y-137742562D01*
X101494370Y-137790181D01*
X101589608Y-137790181D01*
X101922942Y-137123514D02*
X101922942Y-138123514D01*
X101922942Y-137171133D02*
X102018180Y-137123514D01*
X102208657Y-137123514D01*
X102303895Y-137171133D01*
X102351514Y-137218752D01*
X102399133Y-137313990D01*
X102399133Y-137599705D01*
X102351514Y-137694943D01*
X102303895Y-137742562D01*
X102208657Y-137790181D01*
X102018180Y-137790181D01*
X101922942Y-137742562D01*
X102780085Y-137742562D02*
X102875323Y-137790181D01*
X103065799Y-137790181D01*
X103161038Y-137742562D01*
X103208657Y-137647324D01*
X103208657Y-137599705D01*
X103161038Y-137504467D01*
X103065799Y-137456848D01*
X102922942Y-137456848D01*
X102827704Y-137409229D01*
X102780085Y-137313990D01*
X102780085Y-137266371D01*
X102827704Y-137171133D01*
X102922942Y-137123514D01*
X103065799Y-137123514D01*
X103161038Y-137171133D01*
X103637228Y-137694943D02*
X103684847Y-137742562D01*
X103637228Y-137790181D01*
X103589609Y-137742562D01*
X103637228Y-137694943D01*
X103637228Y-137790181D01*
X103637228Y-137171133D02*
X103684847Y-137218752D01*
X103637228Y-137266371D01*
X103589609Y-137218752D01*
X103637228Y-137171133D01*
X103637228Y-137266371D01*
X104827704Y-136742562D02*
X103970561Y-138028276D01*
X105875323Y-136742562D02*
X105018180Y-138028276D01*
X106637228Y-137123514D02*
X106637228Y-137933038D01*
X106589609Y-138028276D01*
X106541990Y-138075895D01*
X106446751Y-138123514D01*
X106303894Y-138123514D01*
X106208656Y-138075895D01*
X106637228Y-137742562D02*
X106541990Y-137790181D01*
X106351513Y-137790181D01*
X106256275Y-137742562D01*
X106208656Y-137694943D01*
X106161037Y-137599705D01*
X106161037Y-137313990D01*
X106208656Y-137218752D01*
X106256275Y-137171133D01*
X106351513Y-137123514D01*
X106541990Y-137123514D01*
X106637228Y-137171133D01*
X107113418Y-137790181D02*
X107113418Y-137123514D01*
X107113418Y-136790181D02*
X107065799Y-136837800D01*
X107113418Y-136885419D01*
X107161037Y-136837800D01*
X107113418Y-136790181D01*
X107113418Y-136885419D01*
X107446751Y-137123514D02*
X107827703Y-137123514D01*
X107589608Y-136790181D02*
X107589608Y-137647324D01*
X107637227Y-137742562D01*
X107732465Y-137790181D01*
X107827703Y-137790181D01*
X108161037Y-137790181D02*
X108161037Y-136790181D01*
X108589609Y-137790181D02*
X108589609Y-137266371D01*
X108541990Y-137171133D01*
X108446752Y-137123514D01*
X108303894Y-137123514D01*
X108208656Y-137171133D01*
X108161037Y-137218752D01*
X109494371Y-137123514D02*
X109494371Y-137790181D01*
X109065799Y-137123514D02*
X109065799Y-137647324D01*
X109113418Y-137742562D01*
X109208656Y-137790181D01*
X109351514Y-137790181D01*
X109446752Y-137742562D01*
X109494371Y-137694943D01*
X109970561Y-137790181D02*
X109970561Y-136790181D01*
X109970561Y-137171133D02*
X110065799Y-137123514D01*
X110256276Y-137123514D01*
X110351514Y-137171133D01*
X110399133Y-137218752D01*
X110446752Y-137313990D01*
X110446752Y-137599705D01*
X110399133Y-137694943D01*
X110351514Y-137742562D01*
X110256276Y-137790181D01*
X110065799Y-137790181D01*
X109970561Y-137742562D01*
X110875323Y-137694943D02*
X110922942Y-137742562D01*
X110875323Y-137790181D01*
X110827704Y-137742562D01*
X110875323Y-137694943D01*
X110875323Y-137790181D01*
X111780085Y-137742562D02*
X111684847Y-137790181D01*
X111494370Y-137790181D01*
X111399132Y-137742562D01*
X111351513Y-137694943D01*
X111303894Y-137599705D01*
X111303894Y-137313990D01*
X111351513Y-137218752D01*
X111399132Y-137171133D01*
X111494370Y-137123514D01*
X111684847Y-137123514D01*
X111780085Y-137171133D01*
X112351513Y-137790181D02*
X112256275Y-137742562D01*
X112208656Y-137694943D01*
X112161037Y-137599705D01*
X112161037Y-137313990D01*
X112208656Y-137218752D01*
X112256275Y-137171133D01*
X112351513Y-137123514D01*
X112494371Y-137123514D01*
X112589609Y-137171133D01*
X112637228Y-137218752D01*
X112684847Y-137313990D01*
X112684847Y-137599705D01*
X112637228Y-137694943D01*
X112589609Y-137742562D01*
X112494371Y-137790181D01*
X112351513Y-137790181D01*
X113113418Y-137790181D02*
X113113418Y-137123514D01*
X113113418Y-137218752D02*
X113161037Y-137171133D01*
X113256275Y-137123514D01*
X113399133Y-137123514D01*
X113494371Y-137171133D01*
X113541990Y-137266371D01*
X113541990Y-137790181D01*
X113541990Y-137266371D02*
X113589609Y-137171133D01*
X113684847Y-137123514D01*
X113827704Y-137123514D01*
X113922942Y-137171133D01*
X113970561Y-137266371D01*
X113970561Y-137790181D01*
X115161037Y-136742562D02*
X114303894Y-138028276D01*
X115780085Y-136790181D02*
X115780085Y-137504467D01*
X115732465Y-137647324D01*
X115637227Y-137742562D01*
X115494370Y-137790181D01*
X115399132Y-137790181D01*
X116399132Y-137790181D02*
X116303894Y-137742562D01*
X116256275Y-137694943D01*
X116208656Y-137599705D01*
X116208656Y-137313990D01*
X116256275Y-137218752D01*
X116303894Y-137171133D01*
X116399132Y-137123514D01*
X116541990Y-137123514D01*
X116637228Y-137171133D01*
X116684847Y-137218752D01*
X116732466Y-137313990D01*
X116732466Y-137599705D01*
X116684847Y-137694943D01*
X116637228Y-137742562D01*
X116541990Y-137790181D01*
X116399132Y-137790181D01*
X117161037Y-137790181D02*
X117161037Y-137123514D01*
X117161037Y-137313990D02*
X117208656Y-137218752D01*
X117256275Y-137171133D01*
X117351513Y-137123514D01*
X117446752Y-137123514D01*
X118208657Y-137123514D02*
X118208657Y-137933038D01*
X118161038Y-138028276D01*
X118113419Y-138075895D01*
X118018180Y-138123514D01*
X117875323Y-138123514D01*
X117780085Y-138075895D01*
X118208657Y-137742562D02*
X118113419Y-137790181D01*
X117922942Y-137790181D01*
X117827704Y-137742562D01*
X117780085Y-137694943D01*
X117732466Y-137599705D01*
X117732466Y-137313990D01*
X117780085Y-137218752D01*
X117827704Y-137171133D01*
X117922942Y-137123514D01*
X118113419Y-137123514D01*
X118208657Y-137171133D01*
X119065800Y-137742562D02*
X118970562Y-137790181D01*
X118780085Y-137790181D01*
X118684847Y-137742562D01*
X118637228Y-137647324D01*
X118637228Y-137266371D01*
X118684847Y-137171133D01*
X118780085Y-137123514D01*
X118970562Y-137123514D01*
X119065800Y-137171133D01*
X119113419Y-137266371D01*
X119113419Y-137361610D01*
X118637228Y-137456848D01*
X119541990Y-137123514D02*
X119541990Y-137790181D01*
X119541990Y-137218752D02*
X119589609Y-137171133D01*
X119684847Y-137123514D01*
X119827705Y-137123514D01*
X119922943Y-137171133D01*
X119970562Y-137266371D01*
X119970562Y-137790181D01*
X120446752Y-137409229D02*
X121208657Y-137409229D01*
X121541990Y-136790181D02*
X121875323Y-137790181D01*
X122208657Y-136790181D01*
X122541990Y-137790181D02*
X122541990Y-137123514D01*
X122541990Y-136790181D02*
X122494371Y-136837800D01*
X122541990Y-136885419D01*
X122589609Y-136837800D01*
X122541990Y-136790181D01*
X122541990Y-136885419D01*
X123018180Y-137790181D02*
X123018180Y-136790181D01*
X123113418Y-137409229D02*
X123399133Y-137790181D01*
X123399133Y-137123514D02*
X123018180Y-137504467D01*
X123827704Y-137790181D02*
X123827704Y-137123514D01*
X123827704Y-136790181D02*
X123780085Y-136837800D01*
X123827704Y-136885419D01*
X123875323Y-136837800D01*
X123827704Y-136790181D01*
X123827704Y-136885419D01*
X124303894Y-137123514D02*
X124303894Y-137790181D01*
X124303894Y-137218752D02*
X124351513Y-137171133D01*
X124446751Y-137123514D01*
X124589609Y-137123514D01*
X124684847Y-137171133D01*
X124732466Y-137266371D01*
X124732466Y-137790181D01*
X125637228Y-137123514D02*
X125637228Y-137933038D01*
X125589609Y-138028276D01*
X125541990Y-138075895D01*
X125446751Y-138123514D01*
X125303894Y-138123514D01*
X125208656Y-138075895D01*
X125637228Y-137742562D02*
X125541990Y-137790181D01*
X125351513Y-137790181D01*
X125256275Y-137742562D01*
X125208656Y-137694943D01*
X125161037Y-137599705D01*
X125161037Y-137313990D01*
X125208656Y-137218752D01*
X125256275Y-137171133D01*
X125351513Y-137123514D01*
X125541990Y-137123514D01*
X125637228Y-137171133D01*
X126637228Y-136837800D02*
X126541990Y-136790181D01*
X126399133Y-136790181D01*
X126256275Y-136837800D01*
X126161037Y-136933038D01*
X126113418Y-137028276D01*
X126065799Y-137218752D01*
X126065799Y-137361610D01*
X126113418Y-137552086D01*
X126161037Y-137647324D01*
X126256275Y-137742562D01*
X126399133Y-137790181D01*
X126494371Y-137790181D01*
X126637228Y-137742562D01*
X126684847Y-137694943D01*
X126684847Y-137361610D01*
X126494371Y-137361610D01*
X127256275Y-137790181D02*
X127161037Y-137742562D01*
X127113418Y-137694943D01*
X127065799Y-137599705D01*
X127065799Y-137313990D01*
X127113418Y-137218752D01*
X127161037Y-137171133D01*
X127256275Y-137123514D01*
X127399133Y-137123514D01*
X127494371Y-137171133D01*
X127541990Y-137218752D01*
X127589609Y-137313990D01*
X127589609Y-137599705D01*
X127541990Y-137694943D01*
X127494371Y-137742562D01*
X127399133Y-137790181D01*
X127256275Y-137790181D01*
X128446752Y-137790181D02*
X128446752Y-136790181D01*
X128446752Y-137742562D02*
X128351514Y-137790181D01*
X128161037Y-137790181D01*
X128065799Y-137742562D01*
X128018180Y-137694943D01*
X127970561Y-137599705D01*
X127970561Y-137313990D01*
X128018180Y-137218752D01*
X128065799Y-137171133D01*
X128161037Y-137123514D01*
X128351514Y-137123514D01*
X128446752Y-137171133D01*
X129637228Y-136742562D02*
X128780085Y-138028276D01*
X129875323Y-136790181D02*
X130494371Y-136790181D01*
X130161037Y-137171133D01*
X130303895Y-137171133D01*
X130399133Y-137218752D01*
X130446752Y-137266371D01*
X130494371Y-137361610D01*
X130494371Y-137599705D01*
X130446752Y-137694943D01*
X130399133Y-137742562D01*
X130303895Y-137790181D01*
X130018180Y-137790181D01*
X129922942Y-137742562D01*
X129875323Y-137694943D01*
X130922942Y-137790181D02*
X130922942Y-136790181D01*
X131256276Y-137504467D01*
X131589609Y-136790181D01*
X131589609Y-137790181D01*
X132065799Y-137409229D02*
X132827704Y-137409229D01*
X133875323Y-137694943D02*
X133827704Y-137742562D01*
X133684847Y-137790181D01*
X133589609Y-137790181D01*
X133446751Y-137742562D01*
X133351513Y-137647324D01*
X133303894Y-137552086D01*
X133256275Y-137361610D01*
X133256275Y-137218752D01*
X133303894Y-137028276D01*
X133351513Y-136933038D01*
X133446751Y-136837800D01*
X133589609Y-136790181D01*
X133684847Y-136790181D01*
X133827704Y-136837800D01*
X133875323Y-136885419D01*
X134446751Y-137790181D02*
X134351513Y-137742562D01*
X134303894Y-137694943D01*
X134256275Y-137599705D01*
X134256275Y-137313990D01*
X134303894Y-137218752D01*
X134351513Y-137171133D01*
X134446751Y-137123514D01*
X134589609Y-137123514D01*
X134684847Y-137171133D01*
X134732466Y-137218752D01*
X134780085Y-137313990D01*
X134780085Y-137599705D01*
X134732466Y-137694943D01*
X134684847Y-137742562D01*
X134589609Y-137790181D01*
X134446751Y-137790181D01*
X135208656Y-137123514D02*
X135208656Y-137790181D01*
X135208656Y-137218752D02*
X135256275Y-137171133D01*
X135351513Y-137123514D01*
X135494371Y-137123514D01*
X135589609Y-137171133D01*
X135637228Y-137266371D01*
X135637228Y-137790181D01*
X135970561Y-137123514D02*
X136351513Y-137123514D01*
X136113418Y-136790181D02*
X136113418Y-137647324D01*
X136161037Y-137742562D01*
X136256275Y-137790181D01*
X136351513Y-137790181D01*
X136684847Y-137790181D02*
X136684847Y-137123514D01*
X136684847Y-137313990D02*
X136732466Y-137218752D01*
X136780085Y-137171133D01*
X136875323Y-137123514D01*
X136970562Y-137123514D01*
X137446752Y-137790181D02*
X137351514Y-137742562D01*
X137303895Y-137694943D01*
X137256276Y-137599705D01*
X137256276Y-137313990D01*
X137303895Y-137218752D01*
X137351514Y-137171133D01*
X137446752Y-137123514D01*
X137589610Y-137123514D01*
X137684848Y-137171133D01*
X137732467Y-137218752D01*
X137780086Y-137313990D01*
X137780086Y-137599705D01*
X137732467Y-137694943D01*
X137684848Y-137742562D01*
X137589610Y-137790181D01*
X137446752Y-137790181D01*
X138351514Y-137790181D02*
X138256276Y-137742562D01*
X138208657Y-137647324D01*
X138208657Y-136790181D01*
X138875324Y-137790181D02*
X138780086Y-137742562D01*
X138732467Y-137647324D01*
X138732467Y-136790181D01*
X139637230Y-137742562D02*
X139541992Y-137790181D01*
X139351515Y-137790181D01*
X139256277Y-137742562D01*
X139208658Y-137647324D01*
X139208658Y-137266371D01*
X139256277Y-137171133D01*
X139351515Y-137123514D01*
X139541992Y-137123514D01*
X139637230Y-137171133D01*
X139684849Y-137266371D01*
X139684849Y-137361610D01*
X139208658Y-137456848D01*
X140113420Y-137790181D02*
X140113420Y-137123514D01*
X140113420Y-137313990D02*
X140161039Y-137218752D01*
X140208658Y-137171133D01*
X140303896Y-137123514D01*
X140399135Y-137123514D01*
D12*
X160530666Y-52956667D02*
X160997333Y-52956667D01*
X160697333Y-53656667D01*
X161564000Y-53190000D02*
X161564000Y-53656667D01*
X161397333Y-52923333D02*
X161230666Y-53423333D01*
X161664000Y-53423333D01*
X161930667Y-53656667D02*
X161930667Y-52956667D01*
X161930667Y-53290000D02*
X162330667Y-53290000D01*
X162330667Y-53656667D02*
X162330667Y-52956667D01*
X163064000Y-53590000D02*
X163030666Y-53623333D01*
X162930666Y-53656667D01*
X162864000Y-53656667D01*
X162764000Y-53623333D01*
X162697333Y-53556667D01*
X162664000Y-53490000D01*
X162630666Y-53356667D01*
X162630666Y-53256667D01*
X162664000Y-53123333D01*
X162697333Y-53056667D01*
X162764000Y-52990000D01*
X162864000Y-52956667D01*
X162930666Y-52956667D01*
X163030666Y-52990000D01*
X163064000Y-53023333D01*
X163330666Y-53023333D02*
X163364000Y-52990000D01*
X163430666Y-52956667D01*
X163597333Y-52956667D01*
X163664000Y-52990000D01*
X163697333Y-53023333D01*
X163730666Y-53090000D01*
X163730666Y-53156667D01*
X163697333Y-53256667D01*
X163297333Y-53656667D01*
X163730666Y-53656667D01*
X164330667Y-53190000D02*
X164330667Y-53656667D01*
X164164000Y-52923333D02*
X163997333Y-53423333D01*
X164430667Y-53423333D01*
X165030667Y-52956667D02*
X164697334Y-52956667D01*
X164664000Y-53290000D01*
X164697334Y-53256667D01*
X164764000Y-53223333D01*
X164930667Y-53223333D01*
X164997334Y-53256667D01*
X165030667Y-53290000D01*
X165064000Y-53356667D01*
X165064000Y-53523333D01*
X165030667Y-53590000D01*
X164997334Y-53623333D01*
X164930667Y-53656667D01*
X164764000Y-53656667D01*
X164697334Y-53623333D01*
X164664000Y-53590000D01*
X125846667Y-54938000D02*
X125846667Y-54604666D01*
X126046667Y-55004666D02*
X125346667Y-54771333D01*
X126046667Y-54538000D01*
X125346667Y-54404666D02*
X125346667Y-54004666D01*
X126046667Y-54204666D02*
X125346667Y-54204666D01*
X125346667Y-53838000D02*
X126046667Y-53371333D01*
X125346667Y-53371333D02*
X126046667Y-53838000D01*
X126046667Y-53104666D02*
X125346667Y-53104666D01*
X125846667Y-52871333D01*
X125346667Y-52638000D01*
X126046667Y-52638000D01*
X125680000Y-52304666D02*
X125680000Y-52071333D01*
X126046667Y-51971333D02*
X126046667Y-52304666D01*
X125346667Y-52304666D01*
X125346667Y-51971333D01*
X125380000Y-51304667D02*
X125346667Y-51371333D01*
X125346667Y-51471333D01*
X125380000Y-51571333D01*
X125446667Y-51638000D01*
X125513333Y-51671333D01*
X125646667Y-51704667D01*
X125746667Y-51704667D01*
X125880000Y-51671333D01*
X125946667Y-51638000D01*
X126013333Y-51571333D01*
X126046667Y-51471333D01*
X126046667Y-51404667D01*
X126013333Y-51304667D01*
X125980000Y-51271333D01*
X125746667Y-51271333D01*
X125746667Y-51404667D01*
X125846667Y-51004667D02*
X125846667Y-50671333D01*
X126046667Y-51071333D02*
X125346667Y-50838000D01*
X126046667Y-50604667D01*
X125346667Y-50438000D02*
X125346667Y-50004667D01*
X125613333Y-50238000D01*
X125613333Y-50138000D01*
X125646667Y-50071333D01*
X125680000Y-50038000D01*
X125746667Y-50004667D01*
X125913333Y-50004667D01*
X125980000Y-50038000D01*
X126013333Y-50071333D01*
X126046667Y-50138000D01*
X126046667Y-50338000D01*
X126013333Y-50404667D01*
X125980000Y-50438000D01*
X125413333Y-49738000D02*
X125380000Y-49704666D01*
X125346667Y-49638000D01*
X125346667Y-49471333D01*
X125380000Y-49404666D01*
X125413333Y-49371333D01*
X125480000Y-49338000D01*
X125546667Y-49338000D01*
X125646667Y-49371333D01*
X126046667Y-49771333D01*
X126046667Y-49338000D01*
X125846667Y-49071333D02*
X125846667Y-48737999D01*
X126046667Y-49137999D02*
X125346667Y-48904666D01*
X126046667Y-48671333D01*
X125580000Y-48137999D02*
X126046667Y-48137999D01*
X125313333Y-48304666D02*
X125813333Y-48471333D01*
X125813333Y-48037999D01*
X125346667Y-47771332D02*
X125913333Y-47771332D01*
X125980000Y-47737999D01*
X126013333Y-47704666D01*
X126046667Y-47637999D01*
X126046667Y-47504666D01*
X126013333Y-47437999D01*
X125980000Y-47404666D01*
X125913333Y-47371332D01*
X125346667Y-47371332D01*
X125780000Y-47037999D02*
X125780000Y-46504666D01*
X125846667Y-46204666D02*
X125846667Y-45871332D01*
X126046667Y-46271332D02*
X125346667Y-46037999D01*
X126046667Y-45804666D01*
X125346667Y-45571332D02*
X125913333Y-45571332D01*
X125980000Y-45537999D01*
X126013333Y-45504666D01*
X126046667Y-45437999D01*
X126046667Y-45304666D01*
X126013333Y-45237999D01*
X125980000Y-45204666D01*
X125913333Y-45171332D01*
X125346667Y-45171332D01*
X122679334Y-50167333D02*
X122212667Y-50167333D01*
X122512667Y-49467333D01*
X121646000Y-49934000D02*
X121646000Y-49467333D01*
X121812667Y-50200667D02*
X121979334Y-49700667D01*
X121546000Y-49700667D01*
X121279333Y-49467333D02*
X121279333Y-50167333D01*
X121279333Y-49834000D02*
X120879333Y-49834000D01*
X120879333Y-49467333D02*
X120879333Y-50167333D01*
X120146000Y-49534000D02*
X120179334Y-49500667D01*
X120279334Y-49467333D01*
X120346000Y-49467333D01*
X120446000Y-49500667D01*
X120512667Y-49567333D01*
X120546000Y-49634000D01*
X120579334Y-49767333D01*
X120579334Y-49867333D01*
X120546000Y-50000667D01*
X120512667Y-50067333D01*
X120446000Y-50134000D01*
X120346000Y-50167333D01*
X120279334Y-50167333D01*
X120179334Y-50134000D01*
X120146000Y-50100667D01*
X119879334Y-50100667D02*
X119846000Y-50134000D01*
X119779334Y-50167333D01*
X119612667Y-50167333D01*
X119546000Y-50134000D01*
X119512667Y-50100667D01*
X119479334Y-50034000D01*
X119479334Y-49967333D01*
X119512667Y-49867333D01*
X119912667Y-49467333D01*
X119479334Y-49467333D01*
X118879333Y-49934000D02*
X118879333Y-49467333D01*
X119046000Y-50200667D02*
X119212667Y-49700667D01*
X118779333Y-49700667D01*
X118179333Y-50167333D02*
X118512666Y-50167333D01*
X118546000Y-49834000D01*
X118512666Y-49867333D01*
X118446000Y-49900667D01*
X118279333Y-49900667D01*
X118212666Y-49867333D01*
X118179333Y-49834000D01*
X118146000Y-49767333D01*
X118146000Y-49600667D01*
X118179333Y-49534000D01*
X118212666Y-49500667D01*
X118279333Y-49467333D01*
X118446000Y-49467333D01*
X118512666Y-49500667D01*
X118546000Y-49534000D01*
X81561810Y-51899621D02*
X81561810Y-51661526D01*
X82061810Y-51661526D01*
X81561810Y-52066288D02*
X82061810Y-52066288D01*
X82061810Y-52185335D01*
X82038000Y-52256764D01*
X81990381Y-52304383D01*
X81942762Y-52328192D01*
X81847524Y-52352002D01*
X81776095Y-52352002D01*
X81680857Y-52328192D01*
X81633238Y-52304383D01*
X81585619Y-52256764D01*
X81561810Y-52185335D01*
X81561810Y-52066288D01*
X81561810Y-52828192D02*
X81561810Y-52542478D01*
X81561810Y-52685335D02*
X82061810Y-52685335D01*
X81990381Y-52637716D01*
X81942762Y-52590097D01*
X81918952Y-52542478D01*
X81561810Y-53304382D02*
X81561810Y-53018668D01*
X81561810Y-53161525D02*
X82061810Y-53161525D01*
X81990381Y-53113906D01*
X81942762Y-53066287D01*
X81918952Y-53018668D01*
X81561810Y-53780572D02*
X81561810Y-53494858D01*
X81561810Y-53637715D02*
X82061810Y-53637715D01*
X81990381Y-53590096D01*
X81942762Y-53542477D01*
X81918952Y-53494858D01*
X82061810Y-53947239D02*
X82061810Y-54280572D01*
X81561810Y-54066286D01*
X81585619Y-54447238D02*
X81561810Y-54518667D01*
X81561810Y-54637714D01*
X81585619Y-54685333D01*
X81609429Y-54709143D01*
X81657048Y-54732952D01*
X81704667Y-54732952D01*
X81752286Y-54709143D01*
X81776095Y-54685333D01*
X81799905Y-54637714D01*
X81823714Y-54542476D01*
X81847524Y-54494857D01*
X81871333Y-54471048D01*
X81918952Y-54447238D01*
X81966571Y-54447238D01*
X82014190Y-54471048D01*
X82038000Y-54494857D01*
X82061810Y-54542476D01*
X82061810Y-54661524D01*
X82038000Y-54732952D01*
X82061810Y-54899619D02*
X82061810Y-55209142D01*
X81871333Y-55042476D01*
X81871333Y-55113904D01*
X81847524Y-55161523D01*
X81823714Y-55185333D01*
X81776095Y-55209142D01*
X81657048Y-55209142D01*
X81609429Y-55185333D01*
X81585619Y-55161523D01*
X81561810Y-55113904D01*
X81561810Y-54971047D01*
X81585619Y-54923428D01*
X81609429Y-54899619D01*
X82061810Y-55375809D02*
X82061810Y-55685332D01*
X81871333Y-55518666D01*
X81871333Y-55590094D01*
X81847524Y-55637713D01*
X81823714Y-55661523D01*
X81776095Y-55685332D01*
X81657048Y-55685332D01*
X81609429Y-55661523D01*
X81585619Y-55637713D01*
X81561810Y-55590094D01*
X81561810Y-55447237D01*
X81585619Y-55399618D01*
X81609429Y-55375809D01*
X82061810Y-55828189D02*
X82061810Y-56113903D01*
X81561810Y-55971046D02*
X82061810Y-55971046D01*
X81561810Y-56566284D02*
X81799905Y-56399617D01*
X81561810Y-56280570D02*
X82061810Y-56280570D01*
X82061810Y-56471046D01*
X82038000Y-56518665D01*
X82014190Y-56542474D01*
X81966571Y-56566284D01*
X81895143Y-56566284D01*
X81847524Y-56542474D01*
X81823714Y-56518665D01*
X81799905Y-56471046D01*
X81799905Y-56280570D01*
X73584000Y-51466000D02*
X73517334Y-51432667D01*
X73417334Y-51432667D01*
X73317334Y-51466000D01*
X73250667Y-51532667D01*
X73217334Y-51599333D01*
X73184000Y-51732667D01*
X73184000Y-51832667D01*
X73217334Y-51966000D01*
X73250667Y-52032667D01*
X73317334Y-52099333D01*
X73417334Y-52132667D01*
X73484000Y-52132667D01*
X73584000Y-52099333D01*
X73617334Y-52066000D01*
X73617334Y-51832667D01*
X73484000Y-51832667D01*
X73917334Y-52132667D02*
X73917334Y-51432667D01*
X74317334Y-52132667D01*
X74317334Y-51432667D01*
X74650667Y-52132667D02*
X74650667Y-51432667D01*
X74817333Y-51432667D01*
X74917333Y-51466000D01*
X74984000Y-51532667D01*
X75017333Y-51599333D01*
X75050667Y-51732667D01*
X75050667Y-51832667D01*
X75017333Y-51966000D01*
X74984000Y-52032667D01*
X74917333Y-52099333D01*
X74817333Y-52132667D01*
X74650667Y-52132667D01*
X163063333Y-101216667D02*
X162730000Y-101216667D01*
X162696666Y-101550000D01*
X162730000Y-101516667D01*
X162796666Y-101483333D01*
X162963333Y-101483333D01*
X163030000Y-101516667D01*
X163063333Y-101550000D01*
X163096666Y-101616667D01*
X163096666Y-101783333D01*
X163063333Y-101850000D01*
X163030000Y-101883333D01*
X162963333Y-101916667D01*
X162796666Y-101916667D01*
X162730000Y-101883333D01*
X162696666Y-101850000D01*
X163296667Y-101216667D02*
X163530000Y-101916667D01*
X163763333Y-101216667D01*
X155160001Y-45020667D02*
X155160001Y-44320667D01*
X155326667Y-44320667D01*
X155426667Y-44354000D01*
X155493334Y-44420667D01*
X155526667Y-44487333D01*
X155560001Y-44620667D01*
X155560001Y-44720667D01*
X155526667Y-44854000D01*
X155493334Y-44920667D01*
X155426667Y-44987333D01*
X155326667Y-45020667D01*
X155160001Y-45020667D01*
X155826667Y-44820667D02*
X156160001Y-44820667D01*
X155760001Y-45020667D02*
X155993334Y-44320667D01*
X156226667Y-45020667D01*
X156360001Y-44320667D02*
X156760001Y-44320667D01*
X156560001Y-45020667D02*
X156560001Y-44320667D01*
X156960000Y-44820667D02*
X157293334Y-44820667D01*
X156893334Y-45020667D02*
X157126667Y-44320667D01*
X157360000Y-45020667D01*
D14*
X160519391Y-63437299D02*
X161719391Y-63437299D01*
X161719391Y-65197299D02*
X160519391Y-65197299D01*
D15*
X83820000Y-82550000D02*
X99060000Y-82550000D01*
X99060000Y-82550000D02*
X99060000Y-97790000D01*
X99060000Y-97790000D02*
X83820000Y-97790000D01*
X83820000Y-97790000D02*
X83820000Y-82550000D01*
X121920000Y-101600000D02*
X137160000Y-101600000D01*
X137160000Y-101600000D02*
X137160000Y-116840000D01*
X137160000Y-116840000D02*
X121920000Y-116840000D01*
X121920000Y-116840000D02*
X121920000Y-101600000D01*
X121920000Y-63500000D02*
X137160000Y-63500000D01*
X137160000Y-63500000D02*
X137160000Y-78740000D01*
X137160000Y-78740000D02*
X121920000Y-78740000D01*
X121920000Y-78740000D02*
X121920000Y-63500000D01*
D16*
G36*
X97906765Y-55909995D02*
X97959334Y-55967646D01*
X98011162Y-56012046D01*
X98123101Y-55967646D01*
X98433894Y-55882120D01*
X98742960Y-55930975D01*
X98960575Y-56075957D01*
X99057552Y-56205081D01*
X99113668Y-56366815D01*
X99139239Y-56608605D01*
X99144667Y-56922624D01*
X99136855Y-57276035D01*
X99107254Y-57505360D01*
X99046618Y-57655379D01*
X98975334Y-57742667D01*
X98772559Y-57858129D01*
X98503112Y-57910739D01*
X98240053Y-57895087D01*
X98060933Y-57810400D01*
X98013275Y-57798885D01*
X97982353Y-57891897D01*
X97965347Y-58109879D01*
X97959438Y-58473270D01*
X97959334Y-58547000D01*
X97963714Y-58935800D01*
X97978737Y-59175888D01*
X98007220Y-59287705D01*
X98051984Y-59291691D01*
X98060933Y-59283600D01*
X98248745Y-59197071D01*
X98513329Y-59184018D01*
X98781622Y-59239030D01*
X98975334Y-59351334D01*
X99054399Y-59451561D01*
X99104584Y-59586027D01*
X99132126Y-59792162D01*
X99143263Y-60107397D01*
X99144667Y-60367334D01*
X99142343Y-60752683D01*
X99131284Y-60999369D01*
X99105361Y-61138040D01*
X99058444Y-61199344D01*
X98984402Y-61213931D01*
X98975334Y-61214000D01*
X98892385Y-61200386D01*
X98842005Y-61137278D01*
X98816190Y-60991280D01*
X98806935Y-60728994D01*
X98806000Y-60507456D01*
X98799110Y-60138078D01*
X98773631Y-59898223D01*
X98722355Y-59748461D01*
X98651167Y-59660789D01*
X98419001Y-59532771D01*
X98196083Y-59572640D01*
X98092381Y-59653714D01*
X98020733Y-59776020D01*
X97978573Y-59988473D01*
X97960777Y-60323675D01*
X97959334Y-60500381D01*
X97957349Y-60847104D01*
X97944739Y-61058161D01*
X97911517Y-61167218D01*
X97847697Y-61207942D01*
X97747667Y-61214000D01*
X97536000Y-61214000D01*
X97536000Y-56903075D01*
X97959334Y-56903075D01*
X98004802Y-57229543D01*
X98124094Y-57459139D01*
X98291541Y-57574550D01*
X98481473Y-57558466D01*
X98668221Y-57393576D01*
X98674199Y-57385161D01*
X98783847Y-57114274D01*
X98799603Y-56799838D01*
X98724204Y-56514579D01*
X98636667Y-56388000D01*
X98416958Y-56245434D01*
X98220412Y-56257168D01*
X98066753Y-56408201D01*
X97975704Y-56683536D01*
X97959334Y-56903075D01*
X97536000Y-56903075D01*
X97536000Y-55880000D01*
X97747667Y-55880000D01*
X97906765Y-55909995D01*
X97906765Y-55909995D01*
G37*
X97906765Y-55909995D02*
X97959334Y-55967646D01*
X98011162Y-56012046D01*
X98123101Y-55967646D01*
X98433894Y-55882120D01*
X98742960Y-55930975D01*
X98960575Y-56075957D01*
X99057552Y-56205081D01*
X99113668Y-56366815D01*
X99139239Y-56608605D01*
X99144667Y-56922624D01*
X99136855Y-57276035D01*
X99107254Y-57505360D01*
X99046618Y-57655379D01*
X98975334Y-57742667D01*
X98772559Y-57858129D01*
X98503112Y-57910739D01*
X98240053Y-57895087D01*
X98060933Y-57810400D01*
X98013275Y-57798885D01*
X97982353Y-57891897D01*
X97965347Y-58109879D01*
X97959438Y-58473270D01*
X97959334Y-58547000D01*
X97963714Y-58935800D01*
X97978737Y-59175888D01*
X98007220Y-59287705D01*
X98051984Y-59291691D01*
X98060933Y-59283600D01*
X98248745Y-59197071D01*
X98513329Y-59184018D01*
X98781622Y-59239030D01*
X98975334Y-59351334D01*
X99054399Y-59451561D01*
X99104584Y-59586027D01*
X99132126Y-59792162D01*
X99143263Y-60107397D01*
X99144667Y-60367334D01*
X99142343Y-60752683D01*
X99131284Y-60999369D01*
X99105361Y-61138040D01*
X99058444Y-61199344D01*
X98984402Y-61213931D01*
X98975334Y-61214000D01*
X98892385Y-61200386D01*
X98842005Y-61137278D01*
X98816190Y-60991280D01*
X98806935Y-60728994D01*
X98806000Y-60507456D01*
X98799110Y-60138078D01*
X98773631Y-59898223D01*
X98722355Y-59748461D01*
X98651167Y-59660789D01*
X98419001Y-59532771D01*
X98196083Y-59572640D01*
X98092381Y-59653714D01*
X98020733Y-59776020D01*
X97978573Y-59988473D01*
X97960777Y-60323675D01*
X97959334Y-60500381D01*
X97957349Y-60847104D01*
X97944739Y-61058161D01*
X97911517Y-61167218D01*
X97847697Y-61207942D01*
X97747667Y-61214000D01*
X97536000Y-61214000D01*
X97536000Y-56903075D01*
X97959334Y-56903075D01*
X98004802Y-57229543D01*
X98124094Y-57459139D01*
X98291541Y-57574550D01*
X98481473Y-57558466D01*
X98668221Y-57393576D01*
X98674199Y-57385161D01*
X98783847Y-57114274D01*
X98799603Y-56799838D01*
X98724204Y-56514579D01*
X98636667Y-56388000D01*
X98416958Y-56245434D01*
X98220412Y-56257168D01*
X98066753Y-56408201D01*
X97975704Y-56683536D01*
X97959334Y-56903075D01*
X97536000Y-56903075D01*
X97536000Y-55880000D01*
X97747667Y-55880000D01*
X97906765Y-55909995D01*
G36*
X100632151Y-59194671D02*
X100843566Y-59249915D01*
X100978370Y-59373577D01*
X101053446Y-59591502D01*
X101085675Y-59929537D01*
X101092000Y-60352834D01*
X101089748Y-60742064D01*
X101079007Y-60992380D01*
X101053800Y-61134182D01*
X101008148Y-61197869D01*
X100936074Y-61213841D01*
X100922667Y-61214000D01*
X100785210Y-61171556D01*
X100753334Y-61112400D01*
X100728343Y-61053496D01*
X100651734Y-61112400D01*
X100453083Y-61206005D01*
X100180568Y-61212942D01*
X99901122Y-61140614D01*
X99691152Y-61006182D01*
X99518741Y-60762906D01*
X99509231Y-60542189D01*
X99864692Y-60542189D01*
X99921834Y-60704819D01*
X99958645Y-60745883D01*
X100155023Y-60848400D01*
X100402113Y-60869046D01*
X100613747Y-60804357D01*
X100651734Y-60773734D01*
X100733757Y-60611549D01*
X100753334Y-60477400D01*
X100718656Y-60333090D01*
X100582439Y-60285354D01*
X100520500Y-60283823D01*
X100180313Y-60318296D01*
X99956281Y-60408883D01*
X99864692Y-60542189D01*
X99509231Y-60542189D01*
X99508328Y-60521242D01*
X99658659Y-60251946D01*
X99658812Y-60251752D01*
X99787653Y-60118937D01*
X99942787Y-60051989D01*
X100184889Y-60029780D01*
X100299436Y-60028667D01*
X100564909Y-60024473D01*
X100700287Y-59997998D01*
X100744799Y-59928405D01*
X100737791Y-59795834D01*
X100711984Y-59664281D01*
X100644672Y-59594204D01*
X100492694Y-59565553D01*
X100226631Y-59558409D01*
X99895616Y-59543774D01*
X99715930Y-59501984D01*
X99670597Y-59424486D01*
X99735635Y-59311046D01*
X99898672Y-59222269D01*
X100206175Y-59184062D01*
X100327245Y-59182000D01*
X100632151Y-59194671D01*
X100632151Y-59194671D01*
G37*
X100632151Y-59194671D02*
X100843566Y-59249915D01*
X100978370Y-59373577D01*
X101053446Y-59591502D01*
X101085675Y-59929537D01*
X101092000Y-60352834D01*
X101089748Y-60742064D01*
X101079007Y-60992380D01*
X101053800Y-61134182D01*
X101008148Y-61197869D01*
X100936074Y-61213841D01*
X100922667Y-61214000D01*
X100785210Y-61171556D01*
X100753334Y-61112400D01*
X100728343Y-61053496D01*
X100651734Y-61112400D01*
X100453083Y-61206005D01*
X100180568Y-61212942D01*
X99901122Y-61140614D01*
X99691152Y-61006182D01*
X99518741Y-60762906D01*
X99509231Y-60542189D01*
X99864692Y-60542189D01*
X99921834Y-60704819D01*
X99958645Y-60745883D01*
X100155023Y-60848400D01*
X100402113Y-60869046D01*
X100613747Y-60804357D01*
X100651734Y-60773734D01*
X100733757Y-60611549D01*
X100753334Y-60477400D01*
X100718656Y-60333090D01*
X100582439Y-60285354D01*
X100520500Y-60283823D01*
X100180313Y-60318296D01*
X99956281Y-60408883D01*
X99864692Y-60542189D01*
X99509231Y-60542189D01*
X99508328Y-60521242D01*
X99658659Y-60251946D01*
X99658812Y-60251752D01*
X99787653Y-60118937D01*
X99942787Y-60051989D01*
X100184889Y-60029780D01*
X100299436Y-60028667D01*
X100564909Y-60024473D01*
X100700287Y-59997998D01*
X100744799Y-59928405D01*
X100737791Y-59795834D01*
X100711984Y-59664281D01*
X100644672Y-59594204D01*
X100492694Y-59565553D01*
X100226631Y-59558409D01*
X99895616Y-59543774D01*
X99715930Y-59501984D01*
X99670597Y-59424486D01*
X99735635Y-59311046D01*
X99898672Y-59222269D01*
X100206175Y-59184062D01*
X100327245Y-59182000D01*
X100632151Y-59194671D01*
G36*
X101970681Y-59216724D02*
X102023334Y-59283600D01*
X102048324Y-59342505D01*
X102124933Y-59283600D01*
X102266423Y-59221164D01*
X102490208Y-59186631D01*
X102719415Y-59185020D01*
X102877171Y-59221346D01*
X102893239Y-59233462D01*
X102895722Y-59336348D01*
X102848087Y-59439626D01*
X102703768Y-59553009D01*
X102528263Y-59549686D01*
X102312767Y-59543205D01*
X102164384Y-59636798D01*
X102073455Y-59848650D01*
X102030319Y-60196951D01*
X102023334Y-60500381D01*
X102021349Y-60847104D01*
X102008739Y-61058161D01*
X101975517Y-61167218D01*
X101911697Y-61207942D01*
X101811667Y-61214000D01*
X101600000Y-61214000D01*
X101600000Y-59182000D01*
X101811667Y-59182000D01*
X101970681Y-59216724D01*
X101970681Y-59216724D01*
G37*
X101970681Y-59216724D02*
X102023334Y-59283600D01*
X102048324Y-59342505D01*
X102124933Y-59283600D01*
X102266423Y-59221164D01*
X102490208Y-59186631D01*
X102719415Y-59185020D01*
X102877171Y-59221346D01*
X102893239Y-59233462D01*
X102895722Y-59336348D01*
X102848087Y-59439626D01*
X102703768Y-59553009D01*
X102528263Y-59549686D01*
X102312767Y-59543205D01*
X102164384Y-59636798D01*
X102073455Y-59848650D01*
X102030319Y-60196951D01*
X102023334Y-60500381D01*
X102021349Y-60847104D01*
X102008739Y-61058161D01*
X101975517Y-61167218D01*
X101911697Y-61207942D01*
X101811667Y-61214000D01*
X101600000Y-61214000D01*
X101600000Y-59182000D01*
X101811667Y-59182000D01*
X101970681Y-59216724D01*
G36*
X104540363Y-58342878D02*
X104584920Y-58381276D01*
X104615120Y-58474176D01*
X104633745Y-58645227D01*
X104643577Y-58918076D01*
X104647399Y-59316373D01*
X104648000Y-59774667D01*
X104646983Y-60299543D01*
X104642157Y-60678677D01*
X104630864Y-60935655D01*
X104610445Y-61094063D01*
X104578239Y-61177489D01*
X104531589Y-61209518D01*
X104485722Y-61214000D01*
X104335579Y-61170246D01*
X104291175Y-61117192D01*
X104225057Y-61062728D01*
X104078019Y-61117192D01*
X103749446Y-61209170D01*
X103435491Y-61142183D01*
X103247152Y-61006182D01*
X103133916Y-60870383D01*
X103070838Y-60713532D01*
X103044020Y-60482602D01*
X103039334Y-60213267D01*
X103043817Y-60150291D01*
X103406038Y-60150291D01*
X103420338Y-60325000D01*
X103511342Y-60628765D01*
X103665950Y-60815013D01*
X103858306Y-60867464D01*
X104062555Y-60769836D01*
X104088293Y-60745612D01*
X104227091Y-60504965D01*
X104281458Y-60190553D01*
X104241232Y-59880786D01*
X104210431Y-59803035D01*
X104076133Y-59620807D01*
X103877010Y-59563573D01*
X103845026Y-59563000D01*
X103603787Y-59634200D01*
X103454144Y-59835909D01*
X103406038Y-60150291D01*
X103043817Y-60150291D01*
X103071796Y-59757344D01*
X103175822Y-59444018D01*
X103361368Y-59258153D01*
X103638390Y-59184617D01*
X103717815Y-59182000D01*
X103941193Y-59202038D01*
X104083248Y-59251694D01*
X104097667Y-59266667D01*
X104192546Y-59355865D01*
X104261981Y-59285760D01*
X104301615Y-59065066D01*
X104309334Y-58843334D01*
X104315512Y-58559605D01*
X104342653Y-58406293D01*
X104403666Y-58344673D01*
X104478667Y-58335334D01*
X104540363Y-58342878D01*
X104540363Y-58342878D01*
G37*
X104540363Y-58342878D02*
X104584920Y-58381276D01*
X104615120Y-58474176D01*
X104633745Y-58645227D01*
X104643577Y-58918076D01*
X104647399Y-59316373D01*
X104648000Y-59774667D01*
X104646983Y-60299543D01*
X104642157Y-60678677D01*
X104630864Y-60935655D01*
X104610445Y-61094063D01*
X104578239Y-61177489D01*
X104531589Y-61209518D01*
X104485722Y-61214000D01*
X104335579Y-61170246D01*
X104291175Y-61117192D01*
X104225057Y-61062728D01*
X104078019Y-61117192D01*
X103749446Y-61209170D01*
X103435491Y-61142183D01*
X103247152Y-61006182D01*
X103133916Y-60870383D01*
X103070838Y-60713532D01*
X103044020Y-60482602D01*
X103039334Y-60213267D01*
X103043817Y-60150291D01*
X103406038Y-60150291D01*
X103420338Y-60325000D01*
X103511342Y-60628765D01*
X103665950Y-60815013D01*
X103858306Y-60867464D01*
X104062555Y-60769836D01*
X104088293Y-60745612D01*
X104227091Y-60504965D01*
X104281458Y-60190553D01*
X104241232Y-59880786D01*
X104210431Y-59803035D01*
X104076133Y-59620807D01*
X103877010Y-59563573D01*
X103845026Y-59563000D01*
X103603787Y-59634200D01*
X103454144Y-59835909D01*
X103406038Y-60150291D01*
X103043817Y-60150291D01*
X103071796Y-59757344D01*
X103175822Y-59444018D01*
X103361368Y-59258153D01*
X103638390Y-59184617D01*
X103717815Y-59182000D01*
X103941193Y-59202038D01*
X104083248Y-59251694D01*
X104097667Y-59266667D01*
X104192546Y-59355865D01*
X104261981Y-59285760D01*
X104301615Y-59065066D01*
X104309334Y-58843334D01*
X104315512Y-58559605D01*
X104342653Y-58406293D01*
X104403666Y-58344673D01*
X104478667Y-58335334D01*
X104540363Y-58342878D01*
G36*
X106487662Y-59291642D02*
X106619561Y-59571861D01*
X106725561Y-59869025D01*
X106844443Y-60207135D01*
X106934928Y-60393175D01*
X107010541Y-60424138D01*
X107084807Y-60297016D01*
X107171251Y-60008803D01*
X107234966Y-59755765D01*
X107315145Y-59452609D01*
X107383950Y-59279757D01*
X107463308Y-59201488D01*
X107575148Y-59182080D01*
X107587179Y-59182000D01*
X107741657Y-59216012D01*
X107761268Y-59287834D01*
X107722166Y-59407883D01*
X107644906Y-59652242D01*
X107541280Y-59983421D01*
X107441694Y-60303834D01*
X107315079Y-60701789D01*
X107219892Y-60964256D01*
X107141646Y-61118733D01*
X107065851Y-61192721D01*
X106978018Y-61213720D01*
X106962152Y-61214000D01*
X106809410Y-61175442D01*
X106763063Y-61108167D01*
X106738297Y-60980969D01*
X106674181Y-60740088D01*
X106583512Y-60432947D01*
X106563190Y-60367334D01*
X106364921Y-59732334D01*
X106136337Y-60473167D01*
X106018244Y-60834763D01*
X105924972Y-61059936D01*
X105841491Y-61176841D01*
X105752774Y-61213632D01*
X105740886Y-61214000D01*
X105585225Y-61167079D01*
X105535159Y-61108167D01*
X105495129Y-60988262D01*
X105416352Y-60744211D01*
X105310832Y-60413414D01*
X105209139Y-60092167D01*
X104921979Y-59182000D01*
X105121291Y-59182000D01*
X105226275Y-59207269D01*
X105316392Y-59299075D01*
X105402469Y-59481413D01*
X105495332Y-59778280D01*
X105605805Y-60213674D01*
X105627129Y-60303248D01*
X105684154Y-60458028D01*
X105741152Y-60498978D01*
X105792648Y-60406177D01*
X105876327Y-60192733D01*
X105976179Y-59900334D01*
X106001027Y-59822230D01*
X106135195Y-59443067D01*
X106254805Y-59227847D01*
X106369185Y-59177171D01*
X106487662Y-59291642D01*
X106487662Y-59291642D01*
G37*
X106487662Y-59291642D02*
X106619561Y-59571861D01*
X106725561Y-59869025D01*
X106844443Y-60207135D01*
X106934928Y-60393175D01*
X107010541Y-60424138D01*
X107084807Y-60297016D01*
X107171251Y-60008803D01*
X107234966Y-59755765D01*
X107315145Y-59452609D01*
X107383950Y-59279757D01*
X107463308Y-59201488D01*
X107575148Y-59182080D01*
X107587179Y-59182000D01*
X107741657Y-59216012D01*
X107761268Y-59287834D01*
X107722166Y-59407883D01*
X107644906Y-59652242D01*
X107541280Y-59983421D01*
X107441694Y-60303834D01*
X107315079Y-60701789D01*
X107219892Y-60964256D01*
X107141646Y-61118733D01*
X107065851Y-61192721D01*
X106978018Y-61213720D01*
X106962152Y-61214000D01*
X106809410Y-61175442D01*
X106763063Y-61108167D01*
X106738297Y-60980969D01*
X106674181Y-60740088D01*
X106583512Y-60432947D01*
X106563190Y-60367334D01*
X106364921Y-59732334D01*
X106136337Y-60473167D01*
X106018244Y-60834763D01*
X105924972Y-61059936D01*
X105841491Y-61176841D01*
X105752774Y-61213632D01*
X105740886Y-61214000D01*
X105585225Y-61167079D01*
X105535159Y-61108167D01*
X105495129Y-60988262D01*
X105416352Y-60744211D01*
X105310832Y-60413414D01*
X105209139Y-60092167D01*
X104921979Y-59182000D01*
X105121291Y-59182000D01*
X105226275Y-59207269D01*
X105316392Y-59299075D01*
X105402469Y-59481413D01*
X105495332Y-59778280D01*
X105605805Y-60213674D01*
X105627129Y-60303248D01*
X105684154Y-60458028D01*
X105741152Y-60498978D01*
X105792648Y-60406177D01*
X105876327Y-60192733D01*
X105976179Y-59900334D01*
X106001027Y-59822230D01*
X106135195Y-59443067D01*
X106254805Y-59227847D01*
X106369185Y-59177171D01*
X106487662Y-59291642D01*
G36*
X109014151Y-59194671D02*
X109225566Y-59249915D01*
X109360370Y-59373577D01*
X109435446Y-59591502D01*
X109467675Y-59929537D01*
X109474000Y-60352834D01*
X109471748Y-60742064D01*
X109461007Y-60992380D01*
X109435800Y-61134182D01*
X109390148Y-61197869D01*
X109318074Y-61213841D01*
X109304667Y-61214000D01*
X109167210Y-61171556D01*
X109135334Y-61112400D01*
X109110343Y-61053496D01*
X109033734Y-61112400D01*
X108835083Y-61206005D01*
X108562568Y-61212942D01*
X108283122Y-61140614D01*
X108073152Y-61006182D01*
X107902201Y-60740854D01*
X107886592Y-60494186D01*
X108258106Y-60494186D01*
X108269678Y-60652836D01*
X108400205Y-60780475D01*
X108599809Y-60859126D01*
X108818613Y-60870814D01*
X109006742Y-60797562D01*
X109033734Y-60773734D01*
X109124647Y-60600839D01*
X109111559Y-60421089D01*
X109007696Y-60313040D01*
X108813439Y-60290188D01*
X108576189Y-60324543D01*
X108367120Y-60398905D01*
X108258106Y-60494186D01*
X107886592Y-60494186D01*
X107884648Y-60463480D01*
X108022240Y-60210777D01*
X108034667Y-60198000D01*
X108197825Y-60088500D01*
X108436233Y-60037393D01*
X108669667Y-60028667D01*
X108942028Y-60019876D01*
X109083497Y-59985442D01*
X109131973Y-59913273D01*
X109134037Y-59880500D01*
X109091148Y-59660937D01*
X108950933Y-59549921D01*
X108688743Y-59531673D01*
X108601651Y-59539712D01*
X108276369Y-59552750D01*
X108094430Y-59504995D01*
X108062682Y-59399594D01*
X108113978Y-59315453D01*
X108268047Y-59225696D01*
X108553022Y-59185434D01*
X108709245Y-59182000D01*
X109014151Y-59194671D01*
X109014151Y-59194671D01*
G37*
X109014151Y-59194671D02*
X109225566Y-59249915D01*
X109360370Y-59373577D01*
X109435446Y-59591502D01*
X109467675Y-59929537D01*
X109474000Y-60352834D01*
X109471748Y-60742064D01*
X109461007Y-60992380D01*
X109435800Y-61134182D01*
X109390148Y-61197869D01*
X109318074Y-61213841D01*
X109304667Y-61214000D01*
X109167210Y-61171556D01*
X109135334Y-61112400D01*
X109110343Y-61053496D01*
X109033734Y-61112400D01*
X108835083Y-61206005D01*
X108562568Y-61212942D01*
X108283122Y-61140614D01*
X108073152Y-61006182D01*
X107902201Y-60740854D01*
X107886592Y-60494186D01*
X108258106Y-60494186D01*
X108269678Y-60652836D01*
X108400205Y-60780475D01*
X108599809Y-60859126D01*
X108818613Y-60870814D01*
X109006742Y-60797562D01*
X109033734Y-60773734D01*
X109124647Y-60600839D01*
X109111559Y-60421089D01*
X109007696Y-60313040D01*
X108813439Y-60290188D01*
X108576189Y-60324543D01*
X108367120Y-60398905D01*
X108258106Y-60494186D01*
X107886592Y-60494186D01*
X107884648Y-60463480D01*
X108022240Y-60210777D01*
X108034667Y-60198000D01*
X108197825Y-60088500D01*
X108436233Y-60037393D01*
X108669667Y-60028667D01*
X108942028Y-60019876D01*
X109083497Y-59985442D01*
X109131973Y-59913273D01*
X109134037Y-59880500D01*
X109091148Y-59660937D01*
X108950933Y-59549921D01*
X108688743Y-59531673D01*
X108601651Y-59539712D01*
X108276369Y-59552750D01*
X108094430Y-59504995D01*
X108062682Y-59399594D01*
X108113978Y-59315453D01*
X108268047Y-59225696D01*
X108553022Y-59185434D01*
X108709245Y-59182000D01*
X109014151Y-59194671D01*
G36*
X110352681Y-59216724D02*
X110405334Y-59283600D01*
X110430324Y-59342505D01*
X110506934Y-59283600D01*
X110651069Y-59219818D01*
X110877198Y-59186187D01*
X111107986Y-59187205D01*
X111266099Y-59227367D01*
X111280407Y-59238629D01*
X111286355Y-59337438D01*
X111189021Y-59451597D01*
X111042894Y-59534964D01*
X110917179Y-59546204D01*
X110720341Y-59552007D01*
X110583323Y-59600701D01*
X110497843Y-59662369D01*
X110445003Y-59760212D01*
X110417132Y-59931040D01*
X110406562Y-60211661D01*
X110405334Y-60454979D01*
X110403631Y-60814847D01*
X110392455Y-61038031D01*
X110362701Y-61157180D01*
X110305262Y-61204943D01*
X110211036Y-61213969D01*
X110193667Y-61214000D01*
X109982000Y-61214000D01*
X109982000Y-59182000D01*
X110193667Y-59182000D01*
X110352681Y-59216724D01*
X110352681Y-59216724D01*
G37*
X110352681Y-59216724D02*
X110405334Y-59283600D01*
X110430324Y-59342505D01*
X110506934Y-59283600D01*
X110651069Y-59219818D01*
X110877198Y-59186187D01*
X111107986Y-59187205D01*
X111266099Y-59227367D01*
X111280407Y-59238629D01*
X111286355Y-59337438D01*
X111189021Y-59451597D01*
X111042894Y-59534964D01*
X110917179Y-59546204D01*
X110720341Y-59552007D01*
X110583323Y-59600701D01*
X110497843Y-59662369D01*
X110445003Y-59760212D01*
X110417132Y-59931040D01*
X110406562Y-60211661D01*
X110405334Y-60454979D01*
X110403631Y-60814847D01*
X110392455Y-61038031D01*
X110362701Y-61157180D01*
X110305262Y-61204943D01*
X110211036Y-61213969D01*
X110193667Y-61214000D01*
X109982000Y-61214000D01*
X109982000Y-59182000D01*
X110193667Y-59182000D01*
X110352681Y-59216724D01*
G36*
X112592249Y-59239152D02*
X112855432Y-59416710D01*
X113016851Y-59723828D01*
X113026238Y-59755996D01*
X113092678Y-60015605D01*
X113096210Y-60171809D01*
X113009820Y-60250874D01*
X112806497Y-60279071D01*
X112484664Y-60282667D01*
X112175996Y-60290601D01*
X111940158Y-60311555D01*
X111822039Y-60341258D01*
X111817271Y-60346167D01*
X111811685Y-60499006D01*
X111905507Y-60676432D01*
X112056543Y-60810170D01*
X112119473Y-60835163D01*
X112343765Y-60841526D01*
X112561135Y-60791883D01*
X112763889Y-60741940D01*
X112897768Y-60793323D01*
X112921913Y-60815627D01*
X112977078Y-60947754D01*
X112878130Y-61062807D01*
X112640149Y-61150542D01*
X112365370Y-61193647D01*
X112088034Y-61203018D01*
X111895479Y-61150641D01*
X111716751Y-61023022D01*
X111578532Y-60882374D01*
X111498569Y-60722471D01*
X111455905Y-60486510D01*
X111438454Y-60268677D01*
X111426374Y-59958832D01*
X111436145Y-59869906D01*
X111809231Y-59869906D01*
X111846333Y-59970353D01*
X112022290Y-60018602D01*
X112272997Y-60028667D01*
X112541888Y-60013408D01*
X112670422Y-59962495D01*
X112691334Y-59907714D01*
X112621233Y-59705573D01*
X112447630Y-59576994D01*
X112225572Y-59536080D01*
X112010106Y-59596933D01*
X111895332Y-59703798D01*
X111809231Y-59869906D01*
X111436145Y-59869906D01*
X111448668Y-59755943D01*
X111519841Y-59598802D01*
X111631742Y-59452936D01*
X111820921Y-59268648D01*
X112023621Y-59192917D01*
X112214354Y-59182000D01*
X112592249Y-59239152D01*
X112592249Y-59239152D01*
G37*
X112592249Y-59239152D02*
X112855432Y-59416710D01*
X113016851Y-59723828D01*
X113026238Y-59755996D01*
X113092678Y-60015605D01*
X113096210Y-60171809D01*
X113009820Y-60250874D01*
X112806497Y-60279071D01*
X112484664Y-60282667D01*
X112175996Y-60290601D01*
X111940158Y-60311555D01*
X111822039Y-60341258D01*
X111817271Y-60346167D01*
X111811685Y-60499006D01*
X111905507Y-60676432D01*
X112056543Y-60810170D01*
X112119473Y-60835163D01*
X112343765Y-60841526D01*
X112561135Y-60791883D01*
X112763889Y-60741940D01*
X112897768Y-60793323D01*
X112921913Y-60815627D01*
X112977078Y-60947754D01*
X112878130Y-61062807D01*
X112640149Y-61150542D01*
X112365370Y-61193647D01*
X112088034Y-61203018D01*
X111895479Y-61150641D01*
X111716751Y-61023022D01*
X111578532Y-60882374D01*
X111498569Y-60722471D01*
X111455905Y-60486510D01*
X111438454Y-60268677D01*
X111426374Y-59958832D01*
X111436145Y-59869906D01*
X111809231Y-59869906D01*
X111846333Y-59970353D01*
X112022290Y-60018602D01*
X112272997Y-60028667D01*
X112541888Y-60013408D01*
X112670422Y-59962495D01*
X112691334Y-59907714D01*
X112621233Y-59705573D01*
X112447630Y-59576994D01*
X112225572Y-59536080D01*
X112010106Y-59596933D01*
X111895332Y-59703798D01*
X111809231Y-59869906D01*
X111436145Y-59869906D01*
X111448668Y-59755943D01*
X111519841Y-59598802D01*
X111631742Y-59452936D01*
X111820921Y-59268648D01*
X112023621Y-59192917D01*
X112214354Y-59182000D01*
X112592249Y-59239152D01*
G36*
X96724521Y-55945780D02*
X96837399Y-56010100D01*
X97009158Y-56220357D01*
X97123929Y-56542324D01*
X97168053Y-56924015D01*
X97149645Y-57198530D01*
X97032849Y-57561163D01*
X96807714Y-57794515D01*
X96469275Y-57902778D01*
X96304442Y-57912000D01*
X96039321Y-57887315D01*
X95853211Y-57787460D01*
X95723193Y-57651504D01*
X95592734Y-57464782D01*
X95526295Y-57261093D01*
X95504660Y-56973067D01*
X95504000Y-56882991D01*
X95507743Y-56772958D01*
X95867768Y-56772958D01*
X95878718Y-57103954D01*
X95990155Y-57383825D01*
X96175785Y-57539093D01*
X96402389Y-57554986D01*
X96619167Y-57433211D01*
X96730972Y-57251707D01*
X96773034Y-56954417D01*
X96774000Y-56884830D01*
X96757286Y-56613010D01*
X96693089Y-56449914D01*
X96581602Y-56350506D01*
X96336305Y-56265953D01*
X96119713Y-56325171D01*
X95955608Y-56502670D01*
X95867768Y-56772958D01*
X95507743Y-56772958D01*
X95514287Y-56580603D01*
X95559169Y-56382791D01*
X95659683Y-56225343D01*
X95751487Y-56127487D01*
X96047252Y-55936975D01*
X96391025Y-55874306D01*
X96724521Y-55945780D01*
X96724521Y-55945780D01*
G37*
X96724521Y-55945780D02*
X96837399Y-56010100D01*
X97009158Y-56220357D01*
X97123929Y-56542324D01*
X97168053Y-56924015D01*
X97149645Y-57198530D01*
X97032849Y-57561163D01*
X96807714Y-57794515D01*
X96469275Y-57902778D01*
X96304442Y-57912000D01*
X96039321Y-57887315D01*
X95853211Y-57787460D01*
X95723193Y-57651504D01*
X95592734Y-57464782D01*
X95526295Y-57261093D01*
X95504660Y-56973067D01*
X95504000Y-56882991D01*
X95507743Y-56772958D01*
X95867768Y-56772958D01*
X95878718Y-57103954D01*
X95990155Y-57383825D01*
X96175785Y-57539093D01*
X96402389Y-57554986D01*
X96619167Y-57433211D01*
X96730972Y-57251707D01*
X96773034Y-56954417D01*
X96774000Y-56884830D01*
X96757286Y-56613010D01*
X96693089Y-56449914D01*
X96581602Y-56350506D01*
X96336305Y-56265953D01*
X96119713Y-56325171D01*
X95955608Y-56502670D01*
X95867768Y-56772958D01*
X95507743Y-56772958D01*
X95514287Y-56580603D01*
X95559169Y-56382791D01*
X95659683Y-56225343D01*
X95751487Y-56127487D01*
X96047252Y-55936975D01*
X96391025Y-55874306D01*
X96724521Y-55945780D01*
G36*
X100693220Y-55947689D02*
X100960628Y-56147838D01*
X101119021Y-56476070D01*
X101153674Y-56665961D01*
X101198689Y-57065334D01*
X100552678Y-57065334D01*
X100210566Y-57072470D01*
X100008797Y-57097441D01*
X99918846Y-57145586D01*
X99906667Y-57186286D01*
X99980205Y-57373356D01*
X100162491Y-57508492D01*
X100396029Y-57571971D01*
X100623325Y-57544071D01*
X100737005Y-57471129D01*
X100845097Y-57419437D01*
X100974886Y-57504680D01*
X100982920Y-57512634D01*
X101077795Y-57629666D01*
X101041263Y-57716584D01*
X100961148Y-57781479D01*
X100778230Y-57857609D01*
X100510090Y-57903520D01*
X100389652Y-57909307D01*
X100093024Y-57887469D01*
X99888776Y-57801342D01*
X99781429Y-57709793D01*
X99590569Y-57409233D01*
X99500322Y-57016769D01*
X99521072Y-56605714D01*
X99906667Y-56605714D01*
X99958898Y-56683036D01*
X100133520Y-56720293D01*
X100330000Y-56726667D01*
X100600626Y-56711744D01*
X100731024Y-56661852D01*
X100753334Y-56605714D01*
X100681703Y-56425064D01*
X100512764Y-56275193D01*
X100330000Y-56218667D01*
X100132414Y-56284157D01*
X99968492Y-56438616D01*
X99906667Y-56605714D01*
X99521072Y-56605714D01*
X99521855Y-56590207D01*
X99659817Y-56230297D01*
X99905917Y-55989120D01*
X100241303Y-55883418D01*
X100321430Y-55880000D01*
X100693220Y-55947689D01*
X100693220Y-55947689D01*
G37*
X100693220Y-55947689D02*
X100960628Y-56147838D01*
X101119021Y-56476070D01*
X101153674Y-56665961D01*
X101198689Y-57065334D01*
X100552678Y-57065334D01*
X100210566Y-57072470D01*
X100008797Y-57097441D01*
X99918846Y-57145586D01*
X99906667Y-57186286D01*
X99980205Y-57373356D01*
X100162491Y-57508492D01*
X100396029Y-57571971D01*
X100623325Y-57544071D01*
X100737005Y-57471129D01*
X100845097Y-57419437D01*
X100974886Y-57504680D01*
X100982920Y-57512634D01*
X101077795Y-57629666D01*
X101041263Y-57716584D01*
X100961148Y-57781479D01*
X100778230Y-57857609D01*
X100510090Y-57903520D01*
X100389652Y-57909307D01*
X100093024Y-57887469D01*
X99888776Y-57801342D01*
X99781429Y-57709793D01*
X99590569Y-57409233D01*
X99500322Y-57016769D01*
X99521072Y-56605714D01*
X99906667Y-56605714D01*
X99958898Y-56683036D01*
X100133520Y-56720293D01*
X100330000Y-56726667D01*
X100600626Y-56711744D01*
X100731024Y-56661852D01*
X100753334Y-56605714D01*
X100681703Y-56425064D01*
X100512764Y-56275193D01*
X100330000Y-56218667D01*
X100132414Y-56284157D01*
X99968492Y-56438616D01*
X99906667Y-56605714D01*
X99521072Y-56605714D01*
X99521855Y-56590207D01*
X99659817Y-56230297D01*
X99905917Y-55989120D01*
X100241303Y-55883418D01*
X100321430Y-55880000D01*
X100693220Y-55947689D01*
G36*
X101915813Y-55928152D02*
X101963361Y-55985834D01*
X102019897Y-56049209D01*
X102114350Y-55985834D01*
X102303595Y-55901442D01*
X102566559Y-55885817D01*
X102821128Y-55941464D01*
X102866661Y-55962880D01*
X103035705Y-56142044D01*
X103147090Y-56470300D01*
X103202008Y-56952129D01*
X103208667Y-57247301D01*
X103206305Y-57579409D01*
X103191818Y-57777059D01*
X103154099Y-57875124D01*
X103082045Y-57908476D01*
X102997000Y-57912000D01*
X102894391Y-57905366D01*
X102831821Y-57863083D01*
X102799388Y-57751581D01*
X102787192Y-57537288D01*
X102785334Y-57194285D01*
X102781819Y-56841225D01*
X102764585Y-56616856D01*
X102723597Y-56480575D01*
X102648820Y-56391780D01*
X102573667Y-56337881D01*
X102407957Y-56248298D01*
X102277662Y-56262787D01*
X102150334Y-56337881D01*
X102046889Y-56417577D01*
X101984049Y-56517187D01*
X101951777Y-56677313D01*
X101940040Y-56938558D01*
X101938667Y-57194285D01*
X101935499Y-57543642D01*
X101920783Y-57756859D01*
X101886695Y-57867089D01*
X101825414Y-57907485D01*
X101769334Y-57912000D01*
X101697853Y-57902032D01*
X101649917Y-57853420D01*
X101620847Y-57738103D01*
X101605968Y-57528021D01*
X101600602Y-57195111D01*
X101600000Y-56896000D01*
X101601846Y-56466575D01*
X101610359Y-56178518D01*
X101630004Y-56003876D01*
X101665246Y-55914697D01*
X101720549Y-55883031D01*
X101762278Y-55880000D01*
X101915813Y-55928152D01*
X101915813Y-55928152D01*
G37*
X101915813Y-55928152D02*
X101963361Y-55985834D01*
X102019897Y-56049209D01*
X102114350Y-55985834D01*
X102303595Y-55901442D01*
X102566559Y-55885817D01*
X102821128Y-55941464D01*
X102866661Y-55962880D01*
X103035705Y-56142044D01*
X103147090Y-56470300D01*
X103202008Y-56952129D01*
X103208667Y-57247301D01*
X103206305Y-57579409D01*
X103191818Y-57777059D01*
X103154099Y-57875124D01*
X103082045Y-57908476D01*
X102997000Y-57912000D01*
X102894391Y-57905366D01*
X102831821Y-57863083D01*
X102799388Y-57751581D01*
X102787192Y-57537288D01*
X102785334Y-57194285D01*
X102781819Y-56841225D01*
X102764585Y-56616856D01*
X102723597Y-56480575D01*
X102648820Y-56391780D01*
X102573667Y-56337881D01*
X102407957Y-56248298D01*
X102277662Y-56262787D01*
X102150334Y-56337881D01*
X102046889Y-56417577D01*
X101984049Y-56517187D01*
X101951777Y-56677313D01*
X101940040Y-56938558D01*
X101938667Y-57194285D01*
X101935499Y-57543642D01*
X101920783Y-57756859D01*
X101886695Y-57867089D01*
X101825414Y-57907485D01*
X101769334Y-57912000D01*
X101697853Y-57902032D01*
X101649917Y-57853420D01*
X101620847Y-57738103D01*
X101605968Y-57528021D01*
X101600602Y-57195111D01*
X101600000Y-56896000D01*
X101601846Y-56466575D01*
X101610359Y-56178518D01*
X101630004Y-56003876D01*
X101665246Y-55914697D01*
X101720549Y-55883031D01*
X101762278Y-55880000D01*
X101915813Y-55928152D01*
G36*
X105510717Y-55905732D02*
X105759518Y-55970775D01*
X105941031Y-56056901D01*
X106002667Y-56137223D01*
X105932221Y-56271497D01*
X105769948Y-56338903D01*
X105590312Y-56309209D01*
X105321626Y-56224804D01*
X105076542Y-56247566D01*
X104911460Y-56371315D01*
X104903903Y-56384445D01*
X104886579Y-56546297D01*
X105019978Y-56661431D01*
X105289698Y-56720666D01*
X105440622Y-56726667D01*
X105710372Y-56776731D01*
X105911855Y-56949752D01*
X106062293Y-57219075D01*
X106051987Y-57460749D01*
X105879684Y-57704014D01*
X105879515Y-57704182D01*
X105629004Y-57851500D01*
X105294184Y-57919495D01*
X104941611Y-57905748D01*
X104637840Y-57807838D01*
X104554293Y-57752371D01*
X104425056Y-57624329D01*
X104423863Y-57522174D01*
X104469322Y-57457594D01*
X104570824Y-57369537D01*
X104684072Y-57397620D01*
X104760581Y-57447889D01*
X104997565Y-57552484D01*
X105255154Y-57576981D01*
X105483534Y-57528881D01*
X105632889Y-57415681D01*
X105664000Y-57311888D01*
X105649347Y-57223272D01*
X105583349Y-57160337D01*
X105432952Y-57109449D01*
X105165099Y-57056977D01*
X104966529Y-57024235D01*
X104681538Y-56919629D01*
X104518630Y-56740042D01*
X104469631Y-56518692D01*
X104526368Y-56288796D01*
X104680665Y-56083570D01*
X104924350Y-55936233D01*
X105248101Y-55880000D01*
X105510717Y-55905732D01*
X105510717Y-55905732D01*
G37*
X105510717Y-55905732D02*
X105759518Y-55970775D01*
X105941031Y-56056901D01*
X106002667Y-56137223D01*
X105932221Y-56271497D01*
X105769948Y-56338903D01*
X105590312Y-56309209D01*
X105321626Y-56224804D01*
X105076542Y-56247566D01*
X104911460Y-56371315D01*
X104903903Y-56384445D01*
X104886579Y-56546297D01*
X105019978Y-56661431D01*
X105289698Y-56720666D01*
X105440622Y-56726667D01*
X105710372Y-56776731D01*
X105911855Y-56949752D01*
X106062293Y-57219075D01*
X106051987Y-57460749D01*
X105879684Y-57704014D01*
X105879515Y-57704182D01*
X105629004Y-57851500D01*
X105294184Y-57919495D01*
X104941611Y-57905748D01*
X104637840Y-57807838D01*
X104554293Y-57752371D01*
X104425056Y-57624329D01*
X104423863Y-57522174D01*
X104469322Y-57457594D01*
X104570824Y-57369537D01*
X104684072Y-57397620D01*
X104760581Y-57447889D01*
X104997565Y-57552484D01*
X105255154Y-57576981D01*
X105483534Y-57528881D01*
X105632889Y-57415681D01*
X105664000Y-57311888D01*
X105649347Y-57223272D01*
X105583349Y-57160337D01*
X105432952Y-57109449D01*
X105165099Y-57056977D01*
X104966529Y-57024235D01*
X104681538Y-56919629D01*
X104518630Y-56740042D01*
X104469631Y-56518692D01*
X104526368Y-56288796D01*
X104680665Y-56083570D01*
X104924350Y-55936233D01*
X105248101Y-55880000D01*
X105510717Y-55905732D01*
G36*
X107579755Y-55954920D02*
X107670682Y-56007263D01*
X107861927Y-56234757D01*
X107977287Y-56562510D01*
X108013855Y-56937982D01*
X107968721Y-57308631D01*
X107838980Y-57621915D01*
X107765284Y-57716708D01*
X107590168Y-57849286D01*
X107354744Y-57905469D01*
X107180768Y-57912000D01*
X106911865Y-57894786D01*
X106732479Y-57820684D01*
X106564388Y-57656001D01*
X106551742Y-57641064D01*
X106426703Y-57474185D01*
X106363064Y-57314403D01*
X106346321Y-57100512D01*
X106353877Y-56929122D01*
X106747862Y-56929122D01*
X106757583Y-57107667D01*
X106838783Y-57367898D01*
X107009498Y-57528203D01*
X107226555Y-57568657D01*
X107446782Y-57469335D01*
X107478286Y-57440286D01*
X107574583Y-57241724D01*
X107611209Y-56915041D01*
X107611334Y-56891904D01*
X107596706Y-56622834D01*
X107537286Y-56460725D01*
X107409766Y-56344572D01*
X107399667Y-56337881D01*
X107233957Y-56248298D01*
X107103662Y-56262787D01*
X106976334Y-56337881D01*
X106833700Y-56467980D01*
X106761879Y-56649800D01*
X106747862Y-56929122D01*
X106353877Y-56929122D01*
X106358454Y-56825323D01*
X106388795Y-56508620D01*
X106443278Y-56305275D01*
X106541984Y-56159365D01*
X106625960Y-56080260D01*
X106918383Y-55924487D01*
X107259758Y-55881069D01*
X107579755Y-55954920D01*
X107579755Y-55954920D01*
G37*
X107579755Y-55954920D02*
X107670682Y-56007263D01*
X107861927Y-56234757D01*
X107977287Y-56562510D01*
X108013855Y-56937982D01*
X107968721Y-57308631D01*
X107838980Y-57621915D01*
X107765284Y-57716708D01*
X107590168Y-57849286D01*
X107354744Y-57905469D01*
X107180768Y-57912000D01*
X106911865Y-57894786D01*
X106732479Y-57820684D01*
X106564388Y-57656001D01*
X106551742Y-57641064D01*
X106426703Y-57474185D01*
X106363064Y-57314403D01*
X106346321Y-57100512D01*
X106353877Y-56929122D01*
X106747862Y-56929122D01*
X106757583Y-57107667D01*
X106838783Y-57367898D01*
X107009498Y-57528203D01*
X107226555Y-57568657D01*
X107446782Y-57469335D01*
X107478286Y-57440286D01*
X107574583Y-57241724D01*
X107611209Y-56915041D01*
X107611334Y-56891904D01*
X107596706Y-56622834D01*
X107537286Y-56460725D01*
X107409766Y-56344572D01*
X107399667Y-56337881D01*
X107233957Y-56248298D01*
X107103662Y-56262787D01*
X106976334Y-56337881D01*
X106833700Y-56467980D01*
X106761879Y-56649800D01*
X106747862Y-56929122D01*
X106353877Y-56929122D01*
X106358454Y-56825323D01*
X106388795Y-56508620D01*
X106443278Y-56305275D01*
X106541984Y-56159365D01*
X106625960Y-56080260D01*
X106918383Y-55924487D01*
X107259758Y-55881069D01*
X107579755Y-55954920D01*
G36*
X108683753Y-55885851D02*
X108748694Y-55925851D01*
X108782252Y-56033677D01*
X108794789Y-56243001D01*
X108796667Y-56587499D01*
X108796667Y-56593619D01*
X108813561Y-57032360D01*
X108870554Y-57326467D01*
X108977110Y-57497844D01*
X109142695Y-57568397D01*
X109220000Y-57573334D01*
X109409580Y-57534235D01*
X109536663Y-57402338D01*
X109610714Y-57155736D01*
X109641200Y-56772524D01*
X109643334Y-56593619D01*
X109646535Y-56245453D01*
X109661400Y-56033336D01*
X109695814Y-55924027D01*
X109757666Y-55884284D01*
X109812667Y-55880000D01*
X109884147Y-55889968D01*
X109932084Y-55938580D01*
X109961153Y-56053897D01*
X109976032Y-56263980D01*
X109981398Y-56596889D01*
X109982000Y-56896000D01*
X109980339Y-57324882D01*
X109972237Y-57612501D01*
X109953017Y-57786918D01*
X109918004Y-57876194D01*
X109862519Y-57908390D01*
X109812667Y-57912000D01*
X109675210Y-57869556D01*
X109643334Y-57810400D01*
X109618343Y-57751496D01*
X109541734Y-57810400D01*
X109353202Y-57897977D01*
X109085541Y-57914412D01*
X108810522Y-57865391D01*
X108599919Y-57756599D01*
X108576956Y-57733980D01*
X108497779Y-57614927D01*
X108444656Y-57441913D01*
X108410716Y-57178271D01*
X108389086Y-56787333D01*
X108386566Y-56717980D01*
X108357466Y-55880000D01*
X108577066Y-55880000D01*
X108683753Y-55885851D01*
X108683753Y-55885851D01*
G37*
X108683753Y-55885851D02*
X108748694Y-55925851D01*
X108782252Y-56033677D01*
X108794789Y-56243001D01*
X108796667Y-56587499D01*
X108796667Y-56593619D01*
X108813561Y-57032360D01*
X108870554Y-57326467D01*
X108977110Y-57497844D01*
X109142695Y-57568397D01*
X109220000Y-57573334D01*
X109409580Y-57534235D01*
X109536663Y-57402338D01*
X109610714Y-57155736D01*
X109641200Y-56772524D01*
X109643334Y-56593619D01*
X109646535Y-56245453D01*
X109661400Y-56033336D01*
X109695814Y-55924027D01*
X109757666Y-55884284D01*
X109812667Y-55880000D01*
X109884147Y-55889968D01*
X109932084Y-55938580D01*
X109961153Y-56053897D01*
X109976032Y-56263980D01*
X109981398Y-56596889D01*
X109982000Y-56896000D01*
X109980339Y-57324882D01*
X109972237Y-57612501D01*
X109953017Y-57786918D01*
X109918004Y-57876194D01*
X109862519Y-57908390D01*
X109812667Y-57912000D01*
X109675210Y-57869556D01*
X109643334Y-57810400D01*
X109618343Y-57751496D01*
X109541734Y-57810400D01*
X109353202Y-57897977D01*
X109085541Y-57914412D01*
X108810522Y-57865391D01*
X108599919Y-57756599D01*
X108576956Y-57733980D01*
X108497779Y-57614927D01*
X108444656Y-57441913D01*
X108410716Y-57178271D01*
X108389086Y-56787333D01*
X108386566Y-56717980D01*
X108357466Y-55880000D01*
X108577066Y-55880000D01*
X108683753Y-55885851D01*
G36*
X110860765Y-55909995D02*
X110913334Y-55967646D01*
X110965162Y-56012046D01*
X111077101Y-55967646D01*
X111286401Y-55900925D01*
X111526008Y-55883340D01*
X111725336Y-55914821D01*
X111804626Y-55968376D01*
X111809653Y-56104020D01*
X111702092Y-56222525D01*
X111535916Y-56276250D01*
X111464347Y-56268736D01*
X111258748Y-56280497D01*
X111098231Y-56352761D01*
X111006853Y-56434128D01*
X110951544Y-56547628D01*
X110923509Y-56733429D01*
X110913953Y-57031697D01*
X110913334Y-57197134D01*
X110911358Y-57544223D01*
X110898790Y-57755617D01*
X110865672Y-57864953D01*
X110802042Y-57905868D01*
X110701667Y-57912000D01*
X110490000Y-57912000D01*
X110490000Y-55880000D01*
X110701667Y-55880000D01*
X110860765Y-55909995D01*
X110860765Y-55909995D01*
G37*
X110860765Y-55909995D02*
X110913334Y-55967646D01*
X110965162Y-56012046D01*
X111077101Y-55967646D01*
X111286401Y-55900925D01*
X111526008Y-55883340D01*
X111725336Y-55914821D01*
X111804626Y-55968376D01*
X111809653Y-56104020D01*
X111702092Y-56222525D01*
X111535916Y-56276250D01*
X111464347Y-56268736D01*
X111258748Y-56280497D01*
X111098231Y-56352761D01*
X111006853Y-56434128D01*
X110951544Y-56547628D01*
X110923509Y-56733429D01*
X110913953Y-57031697D01*
X110913334Y-57197134D01*
X110911358Y-57544223D01*
X110898790Y-57755617D01*
X110865672Y-57864953D01*
X110802042Y-57905868D01*
X110701667Y-57912000D01*
X110490000Y-57912000D01*
X110490000Y-55880000D01*
X110701667Y-55880000D01*
X110860765Y-55909995D01*
G36*
X113052760Y-55918572D02*
X113273266Y-56017623D01*
X113401174Y-56152162D01*
X113403027Y-56297194D01*
X113379323Y-56332827D01*
X113280881Y-56418925D01*
X113168543Y-56396519D01*
X113073534Y-56338668D01*
X112827019Y-56257809D01*
X112572175Y-56293868D01*
X112378046Y-56433650D01*
X112350434Y-56476840D01*
X112272804Y-56752607D01*
X112284451Y-57062016D01*
X112378080Y-57327237D01*
X112437334Y-57404000D01*
X112663094Y-57552959D01*
X112906303Y-57542653D01*
X113035566Y-57485688D01*
X113247810Y-57446353D01*
X113382489Y-57496064D01*
X113565645Y-57594086D01*
X113361322Y-57751161D01*
X113066925Y-57886152D01*
X112719704Y-57915341D01*
X112386515Y-57841706D01*
X112161478Y-57697720D01*
X111945994Y-57383980D01*
X111856463Y-57030661D01*
X111881187Y-56672530D01*
X112008467Y-56344356D01*
X112226603Y-56080907D01*
X112523897Y-55916952D01*
X112773117Y-55880000D01*
X113052760Y-55918572D01*
X113052760Y-55918572D01*
G37*
X113052760Y-55918572D02*
X113273266Y-56017623D01*
X113401174Y-56152162D01*
X113403027Y-56297194D01*
X113379323Y-56332827D01*
X113280881Y-56418925D01*
X113168543Y-56396519D01*
X113073534Y-56338668D01*
X112827019Y-56257809D01*
X112572175Y-56293868D01*
X112378046Y-56433650D01*
X112350434Y-56476840D01*
X112272804Y-56752607D01*
X112284451Y-57062016D01*
X112378080Y-57327237D01*
X112437334Y-57404000D01*
X112663094Y-57552959D01*
X112906303Y-57542653D01*
X113035566Y-57485688D01*
X113247810Y-57446353D01*
X113382489Y-57496064D01*
X113565645Y-57594086D01*
X113361322Y-57751161D01*
X113066925Y-57886152D01*
X112719704Y-57915341D01*
X112386515Y-57841706D01*
X112161478Y-57697720D01*
X111945994Y-57383980D01*
X111856463Y-57030661D01*
X111881187Y-56672530D01*
X112008467Y-56344356D01*
X112226603Y-56080907D01*
X112523897Y-55916952D01*
X112773117Y-55880000D01*
X113052760Y-55918572D01*
G36*
X114823236Y-55944642D02*
X115078770Y-56124948D01*
X115255060Y-56396570D01*
X115316000Y-56720154D01*
X115316000Y-57065334D01*
X114681000Y-57065334D01*
X114342181Y-57072674D01*
X114143593Y-57098329D01*
X114056625Y-57147748D01*
X114046000Y-57186286D01*
X114119290Y-57383074D01*
X114306395Y-57516129D01*
X114558166Y-57567724D01*
X114825453Y-57520134D01*
X114889343Y-57490446D01*
X115052253Y-57460889D01*
X115155747Y-57541941D01*
X115218529Y-57661504D01*
X115145396Y-57764145D01*
X115106122Y-57794162D01*
X114883947Y-57879143D01*
X114577488Y-57907998D01*
X114261928Y-57881549D01*
X114012456Y-57800615D01*
X113982601Y-57781900D01*
X113788002Y-57550725D01*
X113680967Y-57223950D01*
X113662622Y-56851587D01*
X113703740Y-56639893D01*
X114060884Y-56639893D01*
X114214777Y-56706875D01*
X114508939Y-56726667D01*
X114772179Y-56722329D01*
X114901144Y-56697991D01*
X114930865Y-56636669D01*
X114901840Y-56536167D01*
X114754355Y-56336362D01*
X114535401Y-56246507D01*
X114305498Y-56283665D01*
X114217897Y-56343347D01*
X114063243Y-56520454D01*
X114060884Y-56639893D01*
X113703740Y-56639893D01*
X113734089Y-56483645D01*
X113896493Y-56170134D01*
X113945095Y-56112834D01*
X114220006Y-55922462D01*
X114524850Y-55871772D01*
X114823236Y-55944642D01*
X114823236Y-55944642D01*
G37*
X114823236Y-55944642D02*
X115078770Y-56124948D01*
X115255060Y-56396570D01*
X115316000Y-56720154D01*
X115316000Y-57065334D01*
X114681000Y-57065334D01*
X114342181Y-57072674D01*
X114143593Y-57098329D01*
X114056625Y-57147748D01*
X114046000Y-57186286D01*
X114119290Y-57383074D01*
X114306395Y-57516129D01*
X114558166Y-57567724D01*
X114825453Y-57520134D01*
X114889343Y-57490446D01*
X115052253Y-57460889D01*
X115155747Y-57541941D01*
X115218529Y-57661504D01*
X115145396Y-57764145D01*
X115106122Y-57794162D01*
X114883947Y-57879143D01*
X114577488Y-57907998D01*
X114261928Y-57881549D01*
X114012456Y-57800615D01*
X113982601Y-57781900D01*
X113788002Y-57550725D01*
X113680967Y-57223950D01*
X113662622Y-56851587D01*
X113703740Y-56639893D01*
X114060884Y-56639893D01*
X114214777Y-56706875D01*
X114508939Y-56726667D01*
X114772179Y-56722329D01*
X114901144Y-56697991D01*
X114930865Y-56636669D01*
X114901840Y-56536167D01*
X114754355Y-56336362D01*
X114535401Y-56246507D01*
X114305498Y-56283665D01*
X114217897Y-56343347D01*
X114063243Y-56520454D01*
X114060884Y-56639893D01*
X113703740Y-56639893D01*
X113734089Y-56483645D01*
X113896493Y-56170134D01*
X113945095Y-56112834D01*
X114220006Y-55922462D01*
X114524850Y-55871772D01*
X114823236Y-55944642D01*
G36*
X106574625Y-41021000D02*
X106647121Y-41400442D01*
X106721489Y-41786775D01*
X106772038Y-42047149D01*
X106856764Y-42480632D01*
X107590831Y-42791370D01*
X108324897Y-43102109D01*
X110100829Y-41902973D01*
X111594222Y-43396366D01*
X110999807Y-44254415D01*
X110405391Y-45112463D01*
X110705384Y-45818398D01*
X110851395Y-46142799D01*
X110986794Y-46410117D01*
X111090100Y-46579205D01*
X111119506Y-46611620D01*
X111245600Y-46660595D01*
X111500038Y-46726517D01*
X111843865Y-46800167D01*
X112176552Y-46861828D01*
X113119467Y-47024750D01*
X113095900Y-48082573D01*
X113072334Y-49140395D01*
X111125000Y-49495105D01*
X110794156Y-50309016D01*
X110463312Y-51122926D01*
X111028089Y-51953517D01*
X111592865Y-52784108D01*
X110857008Y-53523391D01*
X110568720Y-53802009D01*
X110318113Y-54023749D01*
X110130987Y-54167186D01*
X110033144Y-54210898D01*
X110030409Y-54209730D01*
X109925925Y-54141782D01*
X109716058Y-54000480D01*
X109434714Y-53808769D01*
X109214156Y-53657383D01*
X108488645Y-53157979D01*
X108094180Y-53349625D01*
X107864294Y-53450530D01*
X107702658Y-53501425D01*
X107658407Y-53499963D01*
X107598662Y-53395264D01*
X107493179Y-53166171D01*
X107353062Y-52840662D01*
X107189415Y-52446718D01*
X107013343Y-52012318D01*
X106835948Y-51565441D01*
X106668335Y-51134068D01*
X106521609Y-50746176D01*
X106406872Y-50429746D01*
X106335230Y-50212757D01*
X106317785Y-50123189D01*
X106318148Y-50122817D01*
X106419113Y-50042864D01*
X106603947Y-49899604D01*
X106726655Y-49805293D01*
X107138396Y-49397282D01*
X107409225Y-48931903D01*
X107547095Y-48432487D01*
X107559959Y-47922365D01*
X107455772Y-47424870D01*
X107242488Y-46963333D01*
X106928059Y-46561087D01*
X106520440Y-46241462D01*
X106027584Y-46027792D01*
X105457446Y-45943407D01*
X105410000Y-45942940D01*
X104804399Y-46018352D01*
X104278549Y-46242746D01*
X103837053Y-46613357D01*
X103506839Y-47085652D01*
X103304742Y-47623537D01*
X103255599Y-48185121D01*
X103352487Y-48738306D01*
X103588486Y-49250994D01*
X103956672Y-49691088D01*
X104093345Y-49805293D01*
X104303187Y-49966923D01*
X104457909Y-50087594D01*
X104501852Y-50122817D01*
X104485940Y-50208757D01*
X104415546Y-50422834D01*
X104301774Y-50737069D01*
X104155727Y-51123480D01*
X103988511Y-51554090D01*
X103811228Y-52000919D01*
X103634983Y-52435988D01*
X103470880Y-52831316D01*
X103330022Y-53158924D01*
X103223515Y-53390833D01*
X103162460Y-53499064D01*
X103161593Y-53499963D01*
X103068983Y-53489610D01*
X102876400Y-53418301D01*
X102725820Y-53349625D01*
X102331355Y-53157979D01*
X101605844Y-53657383D01*
X101294711Y-53870677D01*
X101031402Y-54049568D01*
X100849820Y-54171112D01*
X100789591Y-54209730D01*
X100698670Y-54173485D01*
X100516734Y-54036076D01*
X100269583Y-53818925D01*
X99983017Y-53543456D01*
X99962992Y-53523391D01*
X99227135Y-52784108D01*
X99791912Y-51953517D01*
X100356688Y-51122926D01*
X100025844Y-50309016D01*
X99695000Y-49495105D01*
X98721334Y-49317750D01*
X97747667Y-49140395D01*
X97724100Y-48082573D01*
X97700534Y-47024750D01*
X98643449Y-46861828D01*
X99032560Y-46788851D01*
X99365322Y-46715780D01*
X99602778Y-46651838D01*
X99700494Y-46611620D01*
X99783203Y-46497923D01*
X99907322Y-46268152D01*
X100051370Y-45963454D01*
X100114617Y-45818398D01*
X100414609Y-45112463D01*
X99820193Y-44254415D01*
X99225778Y-43396366D01*
X99972475Y-42649670D01*
X100719172Y-41902973D01*
X101607137Y-42502541D01*
X102495103Y-43102109D01*
X103229169Y-42791370D01*
X103963236Y-42480632D01*
X104047963Y-42047149D01*
X104109931Y-41727645D01*
X104185227Y-41336030D01*
X104245375Y-41021000D01*
X104358061Y-40428334D01*
X106461939Y-40428334D01*
X106574625Y-41021000D01*
X106574625Y-41021000D01*
G37*
X106574625Y-41021000D02*
X106647121Y-41400442D01*
X106721489Y-41786775D01*
X106772038Y-42047149D01*
X106856764Y-42480632D01*
X107590831Y-42791370D01*
X108324897Y-43102109D01*
X110100829Y-41902973D01*
X111594222Y-43396366D01*
X110999807Y-44254415D01*
X110405391Y-45112463D01*
X110705384Y-45818398D01*
X110851395Y-46142799D01*
X110986794Y-46410117D01*
X111090100Y-46579205D01*
X111119506Y-46611620D01*
X111245600Y-46660595D01*
X111500038Y-46726517D01*
X111843865Y-46800167D01*
X112176552Y-46861828D01*
X113119467Y-47024750D01*
X113095900Y-48082573D01*
X113072334Y-49140395D01*
X111125000Y-49495105D01*
X110794156Y-50309016D01*
X110463312Y-51122926D01*
X111028089Y-51953517D01*
X111592865Y-52784108D01*
X110857008Y-53523391D01*
X110568720Y-53802009D01*
X110318113Y-54023749D01*
X110130987Y-54167186D01*
X110033144Y-54210898D01*
X110030409Y-54209730D01*
X109925925Y-54141782D01*
X109716058Y-54000480D01*
X109434714Y-53808769D01*
X109214156Y-53657383D01*
X108488645Y-53157979D01*
X108094180Y-53349625D01*
X107864294Y-53450530D01*
X107702658Y-53501425D01*
X107658407Y-53499963D01*
X107598662Y-53395264D01*
X107493179Y-53166171D01*
X107353062Y-52840662D01*
X107189415Y-52446718D01*
X107013343Y-52012318D01*
X106835948Y-51565441D01*
X106668335Y-51134068D01*
X106521609Y-50746176D01*
X106406872Y-50429746D01*
X106335230Y-50212757D01*
X106317785Y-50123189D01*
X106318148Y-50122817D01*
X106419113Y-50042864D01*
X106603947Y-49899604D01*
X106726655Y-49805293D01*
X107138396Y-49397282D01*
X107409225Y-48931903D01*
X107547095Y-48432487D01*
X107559959Y-47922365D01*
X107455772Y-47424870D01*
X107242488Y-46963333D01*
X106928059Y-46561087D01*
X106520440Y-46241462D01*
X106027584Y-46027792D01*
X105457446Y-45943407D01*
X105410000Y-45942940D01*
X104804399Y-46018352D01*
X104278549Y-46242746D01*
X103837053Y-46613357D01*
X103506839Y-47085652D01*
X103304742Y-47623537D01*
X103255599Y-48185121D01*
X103352487Y-48738306D01*
X103588486Y-49250994D01*
X103956672Y-49691088D01*
X104093345Y-49805293D01*
X104303187Y-49966923D01*
X104457909Y-50087594D01*
X104501852Y-50122817D01*
X104485940Y-50208757D01*
X104415546Y-50422834D01*
X104301774Y-50737069D01*
X104155727Y-51123480D01*
X103988511Y-51554090D01*
X103811228Y-52000919D01*
X103634983Y-52435988D01*
X103470880Y-52831316D01*
X103330022Y-53158924D01*
X103223515Y-53390833D01*
X103162460Y-53499064D01*
X103161593Y-53499963D01*
X103068983Y-53489610D01*
X102876400Y-53418301D01*
X102725820Y-53349625D01*
X102331355Y-53157979D01*
X101605844Y-53657383D01*
X101294711Y-53870677D01*
X101031402Y-54049568D01*
X100849820Y-54171112D01*
X100789591Y-54209730D01*
X100698670Y-54173485D01*
X100516734Y-54036076D01*
X100269583Y-53818925D01*
X99983017Y-53543456D01*
X99962992Y-53523391D01*
X99227135Y-52784108D01*
X99791912Y-51953517D01*
X100356688Y-51122926D01*
X100025844Y-50309016D01*
X99695000Y-49495105D01*
X98721334Y-49317750D01*
X97747667Y-49140395D01*
X97724100Y-48082573D01*
X97700534Y-47024750D01*
X98643449Y-46861828D01*
X99032560Y-46788851D01*
X99365322Y-46715780D01*
X99602778Y-46651838D01*
X99700494Y-46611620D01*
X99783203Y-46497923D01*
X99907322Y-46268152D01*
X100051370Y-45963454D01*
X100114617Y-45818398D01*
X100414609Y-45112463D01*
X99820193Y-44254415D01*
X99225778Y-43396366D01*
X99972475Y-42649670D01*
X100719172Y-41902973D01*
X101607137Y-42502541D01*
X102495103Y-43102109D01*
X103229169Y-42791370D01*
X103963236Y-42480632D01*
X104047963Y-42047149D01*
X104109931Y-41727645D01*
X104185227Y-41336030D01*
X104245375Y-41021000D01*
X104358061Y-40428334D01*
X106461939Y-40428334D01*
X106574625Y-41021000D01*
D15*
X83807300Y-120624600D02*
X99047300Y-120624600D01*
X99047300Y-120624600D02*
X99047300Y-135864600D01*
X99047300Y-135864600D02*
X83807300Y-135864600D01*
X83807300Y-135864600D02*
X83807300Y-120624600D01*
X83820000Y-101600000D02*
X99060000Y-101600000D01*
X99060000Y-101600000D02*
X99060000Y-116840000D01*
X99060000Y-116840000D02*
X83820000Y-116840000D01*
X83820000Y-116840000D02*
X83820000Y-101600000D01*
X83820000Y-63500000D02*
X99060000Y-63500000D01*
X99060000Y-63500000D02*
X99060000Y-78740000D01*
X99060000Y-78740000D02*
X83820000Y-78740000D01*
X83820000Y-78740000D02*
X83820000Y-63500000D01*
X102870000Y-120650000D02*
X118110000Y-120650000D01*
X118110000Y-120650000D02*
X118110000Y-135890000D01*
X118110000Y-135890000D02*
X102870000Y-135890000D01*
X102870000Y-135890000D02*
X102870000Y-120650000D01*
X102870000Y-101600000D02*
X118110000Y-101600000D01*
X118110000Y-101600000D02*
X118110000Y-116840000D01*
X118110000Y-116840000D02*
X102870000Y-116840000D01*
X102870000Y-116840000D02*
X102870000Y-101600000D01*
X102870000Y-82550000D02*
X118110000Y-82550000D01*
X118110000Y-82550000D02*
X118110000Y-97790000D01*
X118110000Y-97790000D02*
X102870000Y-97790000D01*
X102870000Y-97790000D02*
X102870000Y-82550000D01*
X102870000Y-63500000D02*
X118110000Y-63500000D01*
X118110000Y-63500000D02*
X118110000Y-78740000D01*
X118110000Y-78740000D02*
X102870000Y-78740000D01*
X102870000Y-78740000D02*
X102870000Y-63500000D01*
X121920000Y-120650000D02*
X137160000Y-120650000D01*
X137160000Y-120650000D02*
X137160000Y-135890000D01*
X137160000Y-135890000D02*
X121920000Y-135890000D01*
X121920000Y-135890000D02*
X121920000Y-120650000D01*
X121920000Y-82550000D02*
X137160000Y-82550000D01*
X137160000Y-82550000D02*
X137160000Y-97790000D01*
X137160000Y-97790000D02*
X121920000Y-97790000D01*
X121920000Y-97790000D02*
X121920000Y-82550000D01*
X140970000Y-120650000D02*
X156210000Y-120650000D01*
X156210000Y-120650000D02*
X156210000Y-135890000D01*
X156210000Y-135890000D02*
X140970000Y-135890000D01*
X140970000Y-135890000D02*
X140970000Y-120650000D01*
X140970000Y-101600000D02*
X156210000Y-101600000D01*
X156210000Y-101600000D02*
X156210000Y-116840000D01*
X156210000Y-116840000D02*
X140970000Y-116840000D01*
X140970000Y-116840000D02*
X140970000Y-101600000D01*
X140970000Y-82550000D02*
X156210000Y-82550000D01*
X156210000Y-82550000D02*
X156210000Y-97790000D01*
X156210000Y-97790000D02*
X140970000Y-97790000D01*
X140970000Y-97790000D02*
X140970000Y-82550000D01*
X140970000Y-63500000D02*
X156210000Y-63500000D01*
X156210000Y-63500000D02*
X156210000Y-78740000D01*
X156210000Y-78740000D02*
X140970000Y-78740000D01*
X140970000Y-78740000D02*
X140970000Y-63500000D01*
D17*
X128084964Y-50026179D02*
X128491550Y-50432765D01*
X135403519Y-42707624D02*
X135880816Y-43184921D01*
X142722074Y-50026179D02*
X142244777Y-49548882D01*
X135403519Y-57344734D02*
X134926222Y-56867437D01*
X128084964Y-50026179D02*
X128562261Y-49548882D01*
X135403519Y-57344734D02*
X135880816Y-56867437D01*
X142722074Y-50026179D02*
X142244777Y-50503476D01*
X135403519Y-42707624D02*
X134926222Y-43184921D01*
X128491550Y-50432765D02*
X127589989Y-51334327D01*
D14*
X82375275Y-57485929D02*
X82375275Y-56225929D01*
X82375275Y-50665929D02*
X82375275Y-51925929D01*
X78615275Y-57485929D02*
X82375275Y-57485929D01*
X76365275Y-50665929D02*
X82375275Y-50665929D01*
X163413000Y-81010000D02*
X163413000Y-79010000D01*
X163413000Y-79010000D02*
X159513000Y-79010000D01*
X163413000Y-81010000D02*
X159513000Y-81010000D01*
X160519391Y-68644299D02*
X161719391Y-68644299D01*
X161719391Y-70404299D02*
X160519391Y-70404299D01*
X160519391Y-73724299D02*
X161719391Y-73724299D01*
X161719391Y-75484299D02*
X160519391Y-75484299D01*
X160516000Y-84464000D02*
X161716000Y-84464000D01*
X161716000Y-86224000D02*
X160516000Y-86224000D01*
D18*
X88913800Y-40817800D02*
X88913800Y-40563800D01*
X88913800Y-40563800D02*
X88964600Y-40563800D01*
X88964600Y-40563800D02*
X88964600Y-40568880D01*
X88964600Y-40568880D02*
X93915060Y-40568880D01*
X93915060Y-40568880D02*
X93915060Y-40800020D01*
X88893480Y-45499020D02*
X88893480Y-45770800D01*
X88893480Y-45770800D02*
X88944280Y-45770800D01*
X88944280Y-45770800D02*
X88944280Y-45773340D01*
X88944280Y-45773340D02*
X93912520Y-45773340D01*
X93912520Y-45773340D02*
X93912520Y-45547280D01*
X88863000Y-44069000D02*
X88863000Y-42367200D01*
X93943000Y-42316400D02*
X93943000Y-43180000D01*
X93943000Y-43180000D02*
X93943000Y-44043600D01*
X93943000Y-43180000D02*
X91403000Y-45720000D01*
D14*
X165040000Y-102870000D02*
X165040000Y-123250000D01*
X165040000Y-123250000D02*
X167700000Y-123250000D01*
X167700000Y-123250000D02*
X167700000Y-102870000D01*
X167700000Y-102870000D02*
X165040000Y-102870000D01*
X165040000Y-101600000D02*
X165040000Y-100270000D01*
X165040000Y-100270000D02*
X166370000Y-100270000D01*
X72330000Y-102870000D02*
X72330000Y-123250000D01*
X72330000Y-123250000D02*
X74990000Y-123250000D01*
X74990000Y-123250000D02*
X74990000Y-102870000D01*
X74990000Y-102870000D02*
X72330000Y-102870000D01*
X72330000Y-101600000D02*
X72330000Y-100270000D01*
X72330000Y-100270000D02*
X73660000Y-100270000D01*
X154973282Y-45731420D02*
X149833282Y-45731420D01*
X149833282Y-45731420D02*
X149833282Y-50931420D01*
X149833282Y-50931420D02*
X157573282Y-50931420D01*
X157573282Y-50931420D02*
X157573282Y-48331420D01*
X157573282Y-48331420D02*
X154973282Y-48331420D01*
X154973282Y-48331420D02*
X154973282Y-45731420D01*
X156243282Y-45731420D02*
X157573282Y-45731420D01*
X157573282Y-45731420D02*
X157573282Y-47061420D01*
X154940000Y-40580000D02*
X147260000Y-40580000D01*
X147260000Y-40580000D02*
X147260000Y-43240000D01*
X147260000Y-43240000D02*
X154940000Y-43240000D01*
X154940000Y-43240000D02*
X154940000Y-40580000D01*
X156210000Y-40580000D02*
X157540000Y-40580000D01*
X157540000Y-40580000D02*
X157540000Y-41910000D01*
X128870000Y-42282000D02*
X127670000Y-42282000D01*
X127670000Y-40522000D02*
X128870000Y-40522000D01*
D17*
X159472334Y-62809381D02*
X159139000Y-62333190D01*
X158900905Y-62809381D02*
X158900905Y-61809381D01*
X159281858Y-61809381D01*
X159377096Y-61857000D01*
X159424715Y-61904619D01*
X159472334Y-61999857D01*
X159472334Y-62142714D01*
X159424715Y-62237952D01*
X159377096Y-62285571D01*
X159281858Y-62333190D01*
X158900905Y-62333190D01*
X160424715Y-62809381D02*
X159853286Y-62809381D01*
X160139000Y-62809381D02*
X160139000Y-61809381D01*
X160043762Y-61952238D01*
X159948524Y-62047476D01*
X159853286Y-62095095D01*
D12*
X97166205Y-122092981D02*
X97166205Y-121092981D01*
X97404300Y-121092981D01*
X97547158Y-121140600D01*
X97642396Y-121235838D01*
X97690015Y-121331076D01*
X97737634Y-121521552D01*
X97737634Y-121664410D01*
X97690015Y-121854886D01*
X97642396Y-121950124D01*
X97547158Y-122045362D01*
X97404300Y-122092981D01*
X97166205Y-122092981D01*
X98690015Y-122092981D02*
X98118586Y-122092981D01*
X98404300Y-122092981D02*
X98404300Y-121092981D01*
X98309062Y-121235838D01*
X98213824Y-121331076D01*
X98118586Y-121378695D01*
D17*
X95499205Y-131300600D02*
X95403967Y-131252981D01*
X95261110Y-131252981D01*
X95118252Y-131300600D01*
X95023014Y-131395838D01*
X94975395Y-131491076D01*
X94927776Y-131681552D01*
X94927776Y-131824410D01*
X94975395Y-132014886D01*
X95023014Y-132110124D01*
X95118252Y-132205362D01*
X95261110Y-132252981D01*
X95356348Y-132252981D01*
X95499205Y-132205362D01*
X95546824Y-132157743D01*
X95546824Y-131824410D01*
X95356348Y-131824410D01*
X92768729Y-131729171D02*
X92911586Y-131776790D01*
X92959205Y-131824410D01*
X93006824Y-131919648D01*
X93006824Y-132062505D01*
X92959205Y-132157743D01*
X92911586Y-132205362D01*
X92816348Y-132252981D01*
X92435395Y-132252981D01*
X92435395Y-131252981D01*
X92768729Y-131252981D01*
X92863967Y-131300600D01*
X92911586Y-131348219D01*
X92959205Y-131443457D01*
X92959205Y-131538695D01*
X92911586Y-131633933D01*
X92863967Y-131681552D01*
X92768729Y-131729171D01*
X92435395Y-131729171D01*
X89395396Y-131300600D02*
X89300158Y-131252981D01*
X89157301Y-131252981D01*
X89014443Y-131300600D01*
X88919205Y-131395838D01*
X88871586Y-131491076D01*
X88823967Y-131681552D01*
X88823967Y-131824410D01*
X88871586Y-132014886D01*
X88919205Y-132110124D01*
X89014443Y-132205362D01*
X89157301Y-132252981D01*
X89252539Y-132252981D01*
X89395396Y-132205362D01*
X89443015Y-132157743D01*
X89443015Y-131824410D01*
X89252539Y-131824410D01*
X89871586Y-132252981D02*
X89871586Y-131252981D01*
X90443015Y-132252981D01*
X90443015Y-131252981D01*
X90919205Y-132252981D02*
X90919205Y-131252981D01*
X91157300Y-131252981D01*
X91300158Y-131300600D01*
X91395396Y-131395838D01*
X91443015Y-131491076D01*
X91490634Y-131681552D01*
X91490634Y-131824410D01*
X91443015Y-132014886D01*
X91395396Y-132110124D01*
X91300158Y-132205362D01*
X91157300Y-132252981D01*
X90919205Y-132252981D01*
X87926824Y-132252981D02*
X87593490Y-131776790D01*
X87355395Y-132252981D02*
X87355395Y-131252981D01*
X87736348Y-131252981D01*
X87831586Y-131300600D01*
X87879205Y-131348219D01*
X87926824Y-131443457D01*
X87926824Y-131586314D01*
X87879205Y-131681552D01*
X87831586Y-131729171D01*
X87736348Y-131776790D01*
X87355395Y-131776790D01*
X71191524Y-40092381D02*
X71762953Y-40092381D01*
X71477238Y-41092381D02*
X71477238Y-40092381D01*
X72572477Y-41092381D02*
X72096286Y-41092381D01*
X72096286Y-40092381D01*
X71802667Y-136834571D02*
X71945524Y-136882190D01*
X71993143Y-136929810D01*
X72040762Y-137025048D01*
X72040762Y-137167905D01*
X71993143Y-137263143D01*
X71945524Y-137310762D01*
X71850286Y-137358381D01*
X71469333Y-137358381D01*
X71469333Y-136358381D01*
X71802667Y-136358381D01*
X71897905Y-136406000D01*
X71945524Y-136453619D01*
X71993143Y-136548857D01*
X71993143Y-136644095D01*
X71945524Y-136739333D01*
X71897905Y-136786952D01*
X71802667Y-136834571D01*
X71469333Y-136834571D01*
X72945524Y-137358381D02*
X72469333Y-137358381D01*
X72469333Y-136358381D01*
X167465429Y-136834571D02*
X167608286Y-136882190D01*
X167655905Y-136929810D01*
X167703524Y-137025048D01*
X167703524Y-137167905D01*
X167655905Y-137263143D01*
X167608286Y-137310762D01*
X167513048Y-137358381D01*
X167132095Y-137358381D01*
X167132095Y-136358381D01*
X167465429Y-136358381D01*
X167560667Y-136406000D01*
X167608286Y-136453619D01*
X167655905Y-136548857D01*
X167655905Y-136644095D01*
X167608286Y-136739333D01*
X167560667Y-136786952D01*
X167465429Y-136834571D01*
X167132095Y-136834571D01*
X168703524Y-137358381D02*
X168370190Y-136882190D01*
X168132095Y-137358381D02*
X168132095Y-136358381D01*
X168513048Y-136358381D01*
X168608286Y-136406000D01*
X168655905Y-136453619D01*
X168703524Y-136548857D01*
X168703524Y-136691714D01*
X168655905Y-136786952D01*
X168608286Y-136834571D01*
X168513048Y-136882190D01*
X168132095Y-136882190D01*
D12*
X97178905Y-103068381D02*
X97178905Y-102068381D01*
X97417000Y-102068381D01*
X97559858Y-102116000D01*
X97655096Y-102211238D01*
X97702715Y-102306476D01*
X97750334Y-102496952D01*
X97750334Y-102639810D01*
X97702715Y-102830286D01*
X97655096Y-102925524D01*
X97559858Y-103020762D01*
X97417000Y-103068381D01*
X97178905Y-103068381D01*
X98131286Y-102163619D02*
X98178905Y-102116000D01*
X98274143Y-102068381D01*
X98512239Y-102068381D01*
X98607477Y-102116000D01*
X98655096Y-102163619D01*
X98702715Y-102258857D01*
X98702715Y-102354095D01*
X98655096Y-102496952D01*
X98083667Y-103068381D01*
X98702715Y-103068381D01*
D17*
X95511905Y-112276000D02*
X95416667Y-112228381D01*
X95273810Y-112228381D01*
X95130952Y-112276000D01*
X95035714Y-112371238D01*
X94988095Y-112466476D01*
X94940476Y-112656952D01*
X94940476Y-112799810D01*
X94988095Y-112990286D01*
X95035714Y-113085524D01*
X95130952Y-113180762D01*
X95273810Y-113228381D01*
X95369048Y-113228381D01*
X95511905Y-113180762D01*
X95559524Y-113133143D01*
X95559524Y-112799810D01*
X95369048Y-112799810D01*
X92781429Y-112704571D02*
X92924286Y-112752190D01*
X92971905Y-112799810D01*
X93019524Y-112895048D01*
X93019524Y-113037905D01*
X92971905Y-113133143D01*
X92924286Y-113180762D01*
X92829048Y-113228381D01*
X92448095Y-113228381D01*
X92448095Y-112228381D01*
X92781429Y-112228381D01*
X92876667Y-112276000D01*
X92924286Y-112323619D01*
X92971905Y-112418857D01*
X92971905Y-112514095D01*
X92924286Y-112609333D01*
X92876667Y-112656952D01*
X92781429Y-112704571D01*
X92448095Y-112704571D01*
X89408096Y-112276000D02*
X89312858Y-112228381D01*
X89170001Y-112228381D01*
X89027143Y-112276000D01*
X88931905Y-112371238D01*
X88884286Y-112466476D01*
X88836667Y-112656952D01*
X88836667Y-112799810D01*
X88884286Y-112990286D01*
X88931905Y-113085524D01*
X89027143Y-113180762D01*
X89170001Y-113228381D01*
X89265239Y-113228381D01*
X89408096Y-113180762D01*
X89455715Y-113133143D01*
X89455715Y-112799810D01*
X89265239Y-112799810D01*
X89884286Y-113228381D02*
X89884286Y-112228381D01*
X90455715Y-113228381D01*
X90455715Y-112228381D01*
X90931905Y-113228381D02*
X90931905Y-112228381D01*
X91170000Y-112228381D01*
X91312858Y-112276000D01*
X91408096Y-112371238D01*
X91455715Y-112466476D01*
X91503334Y-112656952D01*
X91503334Y-112799810D01*
X91455715Y-112990286D01*
X91408096Y-113085524D01*
X91312858Y-113180762D01*
X91170000Y-113228381D01*
X90931905Y-113228381D01*
X87939524Y-113228381D02*
X87606190Y-112752190D01*
X87368095Y-113228381D02*
X87368095Y-112228381D01*
X87749048Y-112228381D01*
X87844286Y-112276000D01*
X87891905Y-112323619D01*
X87939524Y-112418857D01*
X87939524Y-112561714D01*
X87891905Y-112656952D01*
X87844286Y-112704571D01*
X87749048Y-112752190D01*
X87368095Y-112752190D01*
D12*
X97178905Y-84018381D02*
X97178905Y-83018381D01*
X97417000Y-83018381D01*
X97559858Y-83066000D01*
X97655096Y-83161238D01*
X97702715Y-83256476D01*
X97750334Y-83446952D01*
X97750334Y-83589810D01*
X97702715Y-83780286D01*
X97655096Y-83875524D01*
X97559858Y-83970762D01*
X97417000Y-84018381D01*
X97178905Y-84018381D01*
X98083667Y-83018381D02*
X98702715Y-83018381D01*
X98369381Y-83399333D01*
X98512239Y-83399333D01*
X98607477Y-83446952D01*
X98655096Y-83494571D01*
X98702715Y-83589810D01*
X98702715Y-83827905D01*
X98655096Y-83923143D01*
X98607477Y-83970762D01*
X98512239Y-84018381D01*
X98226524Y-84018381D01*
X98131286Y-83970762D01*
X98083667Y-83923143D01*
D17*
X95511905Y-93226000D02*
X95416667Y-93178381D01*
X95273810Y-93178381D01*
X95130952Y-93226000D01*
X95035714Y-93321238D01*
X94988095Y-93416476D01*
X94940476Y-93606952D01*
X94940476Y-93749810D01*
X94988095Y-93940286D01*
X95035714Y-94035524D01*
X95130952Y-94130762D01*
X95273810Y-94178381D01*
X95369048Y-94178381D01*
X95511905Y-94130762D01*
X95559524Y-94083143D01*
X95559524Y-93749810D01*
X95369048Y-93749810D01*
X92781429Y-93654571D02*
X92924286Y-93702190D01*
X92971905Y-93749810D01*
X93019524Y-93845048D01*
X93019524Y-93987905D01*
X92971905Y-94083143D01*
X92924286Y-94130762D01*
X92829048Y-94178381D01*
X92448095Y-94178381D01*
X92448095Y-93178381D01*
X92781429Y-93178381D01*
X92876667Y-93226000D01*
X92924286Y-93273619D01*
X92971905Y-93368857D01*
X92971905Y-93464095D01*
X92924286Y-93559333D01*
X92876667Y-93606952D01*
X92781429Y-93654571D01*
X92448095Y-93654571D01*
X89408096Y-93226000D02*
X89312858Y-93178381D01*
X89170001Y-93178381D01*
X89027143Y-93226000D01*
X88931905Y-93321238D01*
X88884286Y-93416476D01*
X88836667Y-93606952D01*
X88836667Y-93749810D01*
X88884286Y-93940286D01*
X88931905Y-94035524D01*
X89027143Y-94130762D01*
X89170001Y-94178381D01*
X89265239Y-94178381D01*
X89408096Y-94130762D01*
X89455715Y-94083143D01*
X89455715Y-93749810D01*
X89265239Y-93749810D01*
X89884286Y-94178381D02*
X89884286Y-93178381D01*
X90455715Y-94178381D01*
X90455715Y-93178381D01*
X90931905Y-94178381D02*
X90931905Y-93178381D01*
X91170000Y-93178381D01*
X91312858Y-93226000D01*
X91408096Y-93321238D01*
X91455715Y-93416476D01*
X91503334Y-93606952D01*
X91503334Y-93749810D01*
X91455715Y-93940286D01*
X91408096Y-94035524D01*
X91312858Y-94130762D01*
X91170000Y-94178381D01*
X90931905Y-94178381D01*
X87939524Y-94178381D02*
X87606190Y-93702190D01*
X87368095Y-94178381D02*
X87368095Y-93178381D01*
X87749048Y-93178381D01*
X87844286Y-93226000D01*
X87891905Y-93273619D01*
X87939524Y-93368857D01*
X87939524Y-93511714D01*
X87891905Y-93606952D01*
X87844286Y-93654571D01*
X87749048Y-93702190D01*
X87368095Y-93702190D01*
D12*
X97178905Y-64968381D02*
X97178905Y-63968381D01*
X97417000Y-63968381D01*
X97559858Y-64016000D01*
X97655096Y-64111238D01*
X97702715Y-64206476D01*
X97750334Y-64396952D01*
X97750334Y-64539810D01*
X97702715Y-64730286D01*
X97655096Y-64825524D01*
X97559858Y-64920762D01*
X97417000Y-64968381D01*
X97178905Y-64968381D01*
X98607477Y-64301714D02*
X98607477Y-64968381D01*
X98369381Y-63920762D02*
X98131286Y-64635048D01*
X98750334Y-64635048D01*
D17*
X95511905Y-74176000D02*
X95416667Y-74128381D01*
X95273810Y-74128381D01*
X95130952Y-74176000D01*
X95035714Y-74271238D01*
X94988095Y-74366476D01*
X94940476Y-74556952D01*
X94940476Y-74699810D01*
X94988095Y-74890286D01*
X95035714Y-74985524D01*
X95130952Y-75080762D01*
X95273810Y-75128381D01*
X95369048Y-75128381D01*
X95511905Y-75080762D01*
X95559524Y-75033143D01*
X95559524Y-74699810D01*
X95369048Y-74699810D01*
X92781429Y-74604571D02*
X92924286Y-74652190D01*
X92971905Y-74699810D01*
X93019524Y-74795048D01*
X93019524Y-74937905D01*
X92971905Y-75033143D01*
X92924286Y-75080762D01*
X92829048Y-75128381D01*
X92448095Y-75128381D01*
X92448095Y-74128381D01*
X92781429Y-74128381D01*
X92876667Y-74176000D01*
X92924286Y-74223619D01*
X92971905Y-74318857D01*
X92971905Y-74414095D01*
X92924286Y-74509333D01*
X92876667Y-74556952D01*
X92781429Y-74604571D01*
X92448095Y-74604571D01*
X89408096Y-74176000D02*
X89312858Y-74128381D01*
X89170001Y-74128381D01*
X89027143Y-74176000D01*
X88931905Y-74271238D01*
X88884286Y-74366476D01*
X88836667Y-74556952D01*
X88836667Y-74699810D01*
X88884286Y-74890286D01*
X88931905Y-74985524D01*
X89027143Y-75080762D01*
X89170001Y-75128381D01*
X89265239Y-75128381D01*
X89408096Y-75080762D01*
X89455715Y-75033143D01*
X89455715Y-74699810D01*
X89265239Y-74699810D01*
X89884286Y-75128381D02*
X89884286Y-74128381D01*
X90455715Y-75128381D01*
X90455715Y-74128381D01*
X90931905Y-75128381D02*
X90931905Y-74128381D01*
X91170000Y-74128381D01*
X91312858Y-74176000D01*
X91408096Y-74271238D01*
X91455715Y-74366476D01*
X91503334Y-74556952D01*
X91503334Y-74699810D01*
X91455715Y-74890286D01*
X91408096Y-74985524D01*
X91312858Y-75080762D01*
X91170000Y-75128381D01*
X90931905Y-75128381D01*
X87939524Y-75128381D02*
X87606190Y-74652190D01*
X87368095Y-75128381D02*
X87368095Y-74128381D01*
X87749048Y-74128381D01*
X87844286Y-74176000D01*
X87891905Y-74223619D01*
X87939524Y-74318857D01*
X87939524Y-74461714D01*
X87891905Y-74556952D01*
X87844286Y-74604571D01*
X87749048Y-74652190D01*
X87368095Y-74652190D01*
D12*
X116228905Y-122118381D02*
X116228905Y-121118381D01*
X116467000Y-121118381D01*
X116609858Y-121166000D01*
X116705096Y-121261238D01*
X116752715Y-121356476D01*
X116800334Y-121546952D01*
X116800334Y-121689810D01*
X116752715Y-121880286D01*
X116705096Y-121975524D01*
X116609858Y-122070762D01*
X116467000Y-122118381D01*
X116228905Y-122118381D01*
X117705096Y-121118381D02*
X117228905Y-121118381D01*
X117181286Y-121594571D01*
X117228905Y-121546952D01*
X117324143Y-121499333D01*
X117562239Y-121499333D01*
X117657477Y-121546952D01*
X117705096Y-121594571D01*
X117752715Y-121689810D01*
X117752715Y-121927905D01*
X117705096Y-122023143D01*
X117657477Y-122070762D01*
X117562239Y-122118381D01*
X117324143Y-122118381D01*
X117228905Y-122070762D01*
X117181286Y-122023143D01*
D17*
X114561905Y-131326000D02*
X114466667Y-131278381D01*
X114323810Y-131278381D01*
X114180952Y-131326000D01*
X114085714Y-131421238D01*
X114038095Y-131516476D01*
X113990476Y-131706952D01*
X113990476Y-131849810D01*
X114038095Y-132040286D01*
X114085714Y-132135524D01*
X114180952Y-132230762D01*
X114323810Y-132278381D01*
X114419048Y-132278381D01*
X114561905Y-132230762D01*
X114609524Y-132183143D01*
X114609524Y-131849810D01*
X114419048Y-131849810D01*
X111831429Y-131754571D02*
X111974286Y-131802190D01*
X112021905Y-131849810D01*
X112069524Y-131945048D01*
X112069524Y-132087905D01*
X112021905Y-132183143D01*
X111974286Y-132230762D01*
X111879048Y-132278381D01*
X111498095Y-132278381D01*
X111498095Y-131278381D01*
X111831429Y-131278381D01*
X111926667Y-131326000D01*
X111974286Y-131373619D01*
X112021905Y-131468857D01*
X112021905Y-131564095D01*
X111974286Y-131659333D01*
X111926667Y-131706952D01*
X111831429Y-131754571D01*
X111498095Y-131754571D01*
X108458096Y-131326000D02*
X108362858Y-131278381D01*
X108220001Y-131278381D01*
X108077143Y-131326000D01*
X107981905Y-131421238D01*
X107934286Y-131516476D01*
X107886667Y-131706952D01*
X107886667Y-131849810D01*
X107934286Y-132040286D01*
X107981905Y-132135524D01*
X108077143Y-132230762D01*
X108220001Y-132278381D01*
X108315239Y-132278381D01*
X108458096Y-132230762D01*
X108505715Y-132183143D01*
X108505715Y-131849810D01*
X108315239Y-131849810D01*
X108934286Y-132278381D02*
X108934286Y-131278381D01*
X109505715Y-132278381D01*
X109505715Y-131278381D01*
X109981905Y-132278381D02*
X109981905Y-131278381D01*
X110220000Y-131278381D01*
X110362858Y-131326000D01*
X110458096Y-131421238D01*
X110505715Y-131516476D01*
X110553334Y-131706952D01*
X110553334Y-131849810D01*
X110505715Y-132040286D01*
X110458096Y-132135524D01*
X110362858Y-132230762D01*
X110220000Y-132278381D01*
X109981905Y-132278381D01*
X106989524Y-132278381D02*
X106656190Y-131802190D01*
X106418095Y-132278381D02*
X106418095Y-131278381D01*
X106799048Y-131278381D01*
X106894286Y-131326000D01*
X106941905Y-131373619D01*
X106989524Y-131468857D01*
X106989524Y-131611714D01*
X106941905Y-131706952D01*
X106894286Y-131754571D01*
X106799048Y-131802190D01*
X106418095Y-131802190D01*
D12*
X116228905Y-103068381D02*
X116228905Y-102068381D01*
X116467000Y-102068381D01*
X116609858Y-102116000D01*
X116705096Y-102211238D01*
X116752715Y-102306476D01*
X116800334Y-102496952D01*
X116800334Y-102639810D01*
X116752715Y-102830286D01*
X116705096Y-102925524D01*
X116609858Y-103020762D01*
X116467000Y-103068381D01*
X116228905Y-103068381D01*
X117657477Y-102068381D02*
X117467000Y-102068381D01*
X117371762Y-102116000D01*
X117324143Y-102163619D01*
X117228905Y-102306476D01*
X117181286Y-102496952D01*
X117181286Y-102877905D01*
X117228905Y-102973143D01*
X117276524Y-103020762D01*
X117371762Y-103068381D01*
X117562239Y-103068381D01*
X117657477Y-103020762D01*
X117705096Y-102973143D01*
X117752715Y-102877905D01*
X117752715Y-102639810D01*
X117705096Y-102544571D01*
X117657477Y-102496952D01*
X117562239Y-102449333D01*
X117371762Y-102449333D01*
X117276524Y-102496952D01*
X117228905Y-102544571D01*
X117181286Y-102639810D01*
D17*
X114561905Y-112276000D02*
X114466667Y-112228381D01*
X114323810Y-112228381D01*
X114180952Y-112276000D01*
X114085714Y-112371238D01*
X114038095Y-112466476D01*
X113990476Y-112656952D01*
X113990476Y-112799810D01*
X114038095Y-112990286D01*
X114085714Y-113085524D01*
X114180952Y-113180762D01*
X114323810Y-113228381D01*
X114419048Y-113228381D01*
X114561905Y-113180762D01*
X114609524Y-113133143D01*
X114609524Y-112799810D01*
X114419048Y-112799810D01*
X111831429Y-112704571D02*
X111974286Y-112752190D01*
X112021905Y-112799810D01*
X112069524Y-112895048D01*
X112069524Y-113037905D01*
X112021905Y-113133143D01*
X111974286Y-113180762D01*
X111879048Y-113228381D01*
X111498095Y-113228381D01*
X111498095Y-112228381D01*
X111831429Y-112228381D01*
X111926667Y-112276000D01*
X111974286Y-112323619D01*
X112021905Y-112418857D01*
X112021905Y-112514095D01*
X111974286Y-112609333D01*
X111926667Y-112656952D01*
X111831429Y-112704571D01*
X111498095Y-112704571D01*
X108458096Y-112276000D02*
X108362858Y-112228381D01*
X108220001Y-112228381D01*
X108077143Y-112276000D01*
X107981905Y-112371238D01*
X107934286Y-112466476D01*
X107886667Y-112656952D01*
X107886667Y-112799810D01*
X107934286Y-112990286D01*
X107981905Y-113085524D01*
X108077143Y-113180762D01*
X108220001Y-113228381D01*
X108315239Y-113228381D01*
X108458096Y-113180762D01*
X108505715Y-113133143D01*
X108505715Y-112799810D01*
X108315239Y-112799810D01*
X108934286Y-113228381D02*
X108934286Y-112228381D01*
X109505715Y-113228381D01*
X109505715Y-112228381D01*
X109981905Y-113228381D02*
X109981905Y-112228381D01*
X110220000Y-112228381D01*
X110362858Y-112276000D01*
X110458096Y-112371238D01*
X110505715Y-112466476D01*
X110553334Y-112656952D01*
X110553334Y-112799810D01*
X110505715Y-112990286D01*
X110458096Y-113085524D01*
X110362858Y-113180762D01*
X110220000Y-113228381D01*
X109981905Y-113228381D01*
X106989524Y-113228381D02*
X106656190Y-112752190D01*
X106418095Y-113228381D02*
X106418095Y-112228381D01*
X106799048Y-112228381D01*
X106894286Y-112276000D01*
X106941905Y-112323619D01*
X106989524Y-112418857D01*
X106989524Y-112561714D01*
X106941905Y-112656952D01*
X106894286Y-112704571D01*
X106799048Y-112752190D01*
X106418095Y-112752190D01*
D12*
X116228905Y-84018381D02*
X116228905Y-83018381D01*
X116467000Y-83018381D01*
X116609858Y-83066000D01*
X116705096Y-83161238D01*
X116752715Y-83256476D01*
X116800334Y-83446952D01*
X116800334Y-83589810D01*
X116752715Y-83780286D01*
X116705096Y-83875524D01*
X116609858Y-83970762D01*
X116467000Y-84018381D01*
X116228905Y-84018381D01*
X117133667Y-83018381D02*
X117800334Y-83018381D01*
X117371762Y-84018381D01*
D17*
X114561905Y-93226000D02*
X114466667Y-93178381D01*
X114323810Y-93178381D01*
X114180952Y-93226000D01*
X114085714Y-93321238D01*
X114038095Y-93416476D01*
X113990476Y-93606952D01*
X113990476Y-93749810D01*
X114038095Y-93940286D01*
X114085714Y-94035524D01*
X114180952Y-94130762D01*
X114323810Y-94178381D01*
X114419048Y-94178381D01*
X114561905Y-94130762D01*
X114609524Y-94083143D01*
X114609524Y-93749810D01*
X114419048Y-93749810D01*
X111831429Y-93654571D02*
X111974286Y-93702190D01*
X112021905Y-93749810D01*
X112069524Y-93845048D01*
X112069524Y-93987905D01*
X112021905Y-94083143D01*
X111974286Y-94130762D01*
X111879048Y-94178381D01*
X111498095Y-94178381D01*
X111498095Y-93178381D01*
X111831429Y-93178381D01*
X111926667Y-93226000D01*
X111974286Y-93273619D01*
X112021905Y-93368857D01*
X112021905Y-93464095D01*
X111974286Y-93559333D01*
X111926667Y-93606952D01*
X111831429Y-93654571D01*
X111498095Y-93654571D01*
X108458096Y-93226000D02*
X108362858Y-93178381D01*
X108220001Y-93178381D01*
X108077143Y-93226000D01*
X107981905Y-93321238D01*
X107934286Y-93416476D01*
X107886667Y-93606952D01*
X107886667Y-93749810D01*
X107934286Y-93940286D01*
X107981905Y-94035524D01*
X108077143Y-94130762D01*
X108220001Y-94178381D01*
X108315239Y-94178381D01*
X108458096Y-94130762D01*
X108505715Y-94083143D01*
X108505715Y-93749810D01*
X108315239Y-93749810D01*
X108934286Y-94178381D02*
X108934286Y-93178381D01*
X109505715Y-94178381D01*
X109505715Y-93178381D01*
X109981905Y-94178381D02*
X109981905Y-93178381D01*
X110220000Y-93178381D01*
X110362858Y-93226000D01*
X110458096Y-93321238D01*
X110505715Y-93416476D01*
X110553334Y-93606952D01*
X110553334Y-93749810D01*
X110505715Y-93940286D01*
X110458096Y-94035524D01*
X110362858Y-94130762D01*
X110220000Y-94178381D01*
X109981905Y-94178381D01*
X106989524Y-94178381D02*
X106656190Y-93702190D01*
X106418095Y-94178381D02*
X106418095Y-93178381D01*
X106799048Y-93178381D01*
X106894286Y-93226000D01*
X106941905Y-93273619D01*
X106989524Y-93368857D01*
X106989524Y-93511714D01*
X106941905Y-93606952D01*
X106894286Y-93654571D01*
X106799048Y-93702190D01*
X106418095Y-93702190D01*
D12*
X116228905Y-64968381D02*
X116228905Y-63968381D01*
X116467000Y-63968381D01*
X116609858Y-64016000D01*
X116705096Y-64111238D01*
X116752715Y-64206476D01*
X116800334Y-64396952D01*
X116800334Y-64539810D01*
X116752715Y-64730286D01*
X116705096Y-64825524D01*
X116609858Y-64920762D01*
X116467000Y-64968381D01*
X116228905Y-64968381D01*
X117371762Y-64396952D02*
X117276524Y-64349333D01*
X117228905Y-64301714D01*
X117181286Y-64206476D01*
X117181286Y-64158857D01*
X117228905Y-64063619D01*
X117276524Y-64016000D01*
X117371762Y-63968381D01*
X117562239Y-63968381D01*
X117657477Y-64016000D01*
X117705096Y-64063619D01*
X117752715Y-64158857D01*
X117752715Y-64206476D01*
X117705096Y-64301714D01*
X117657477Y-64349333D01*
X117562239Y-64396952D01*
X117371762Y-64396952D01*
X117276524Y-64444571D01*
X117228905Y-64492190D01*
X117181286Y-64587429D01*
X117181286Y-64777905D01*
X117228905Y-64873143D01*
X117276524Y-64920762D01*
X117371762Y-64968381D01*
X117562239Y-64968381D01*
X117657477Y-64920762D01*
X117705096Y-64873143D01*
X117752715Y-64777905D01*
X117752715Y-64587429D01*
X117705096Y-64492190D01*
X117657477Y-64444571D01*
X117562239Y-64396952D01*
D17*
X114561905Y-74176000D02*
X114466667Y-74128381D01*
X114323810Y-74128381D01*
X114180952Y-74176000D01*
X114085714Y-74271238D01*
X114038095Y-74366476D01*
X113990476Y-74556952D01*
X113990476Y-74699810D01*
X114038095Y-74890286D01*
X114085714Y-74985524D01*
X114180952Y-75080762D01*
X114323810Y-75128381D01*
X114419048Y-75128381D01*
X114561905Y-75080762D01*
X114609524Y-75033143D01*
X114609524Y-74699810D01*
X114419048Y-74699810D01*
X111831429Y-74604571D02*
X111974286Y-74652190D01*
X112021905Y-74699810D01*
X112069524Y-74795048D01*
X112069524Y-74937905D01*
X112021905Y-75033143D01*
X111974286Y-75080762D01*
X111879048Y-75128381D01*
X111498095Y-75128381D01*
X111498095Y-74128381D01*
X111831429Y-74128381D01*
X111926667Y-74176000D01*
X111974286Y-74223619D01*
X112021905Y-74318857D01*
X112021905Y-74414095D01*
X111974286Y-74509333D01*
X111926667Y-74556952D01*
X111831429Y-74604571D01*
X111498095Y-74604571D01*
X108458096Y-74176000D02*
X108362858Y-74128381D01*
X108220001Y-74128381D01*
X108077143Y-74176000D01*
X107981905Y-74271238D01*
X107934286Y-74366476D01*
X107886667Y-74556952D01*
X107886667Y-74699810D01*
X107934286Y-74890286D01*
X107981905Y-74985524D01*
X108077143Y-75080762D01*
X108220001Y-75128381D01*
X108315239Y-75128381D01*
X108458096Y-75080762D01*
X108505715Y-75033143D01*
X108505715Y-74699810D01*
X108315239Y-74699810D01*
X108934286Y-75128381D02*
X108934286Y-74128381D01*
X109505715Y-75128381D01*
X109505715Y-74128381D01*
X109981905Y-75128381D02*
X109981905Y-74128381D01*
X110220000Y-74128381D01*
X110362858Y-74176000D01*
X110458096Y-74271238D01*
X110505715Y-74366476D01*
X110553334Y-74556952D01*
X110553334Y-74699810D01*
X110505715Y-74890286D01*
X110458096Y-74985524D01*
X110362858Y-75080762D01*
X110220000Y-75128381D01*
X109981905Y-75128381D01*
X106989524Y-75128381D02*
X106656190Y-74652190D01*
X106418095Y-75128381D02*
X106418095Y-74128381D01*
X106799048Y-74128381D01*
X106894286Y-74176000D01*
X106941905Y-74223619D01*
X106989524Y-74318857D01*
X106989524Y-74461714D01*
X106941905Y-74556952D01*
X106894286Y-74604571D01*
X106799048Y-74652190D01*
X106418095Y-74652190D01*
D12*
X135278905Y-122118381D02*
X135278905Y-121118381D01*
X135517000Y-121118381D01*
X135659858Y-121166000D01*
X135755096Y-121261238D01*
X135802715Y-121356476D01*
X135850334Y-121546952D01*
X135850334Y-121689810D01*
X135802715Y-121880286D01*
X135755096Y-121975524D01*
X135659858Y-122070762D01*
X135517000Y-122118381D01*
X135278905Y-122118381D01*
X136326524Y-122118381D02*
X136517000Y-122118381D01*
X136612239Y-122070762D01*
X136659858Y-122023143D01*
X136755096Y-121880286D01*
X136802715Y-121689810D01*
X136802715Y-121308857D01*
X136755096Y-121213619D01*
X136707477Y-121166000D01*
X136612239Y-121118381D01*
X136421762Y-121118381D01*
X136326524Y-121166000D01*
X136278905Y-121213619D01*
X136231286Y-121308857D01*
X136231286Y-121546952D01*
X136278905Y-121642190D01*
X136326524Y-121689810D01*
X136421762Y-121737429D01*
X136612239Y-121737429D01*
X136707477Y-121689810D01*
X136755096Y-121642190D01*
X136802715Y-121546952D01*
D17*
X133611905Y-131326000D02*
X133516667Y-131278381D01*
X133373810Y-131278381D01*
X133230952Y-131326000D01*
X133135714Y-131421238D01*
X133088095Y-131516476D01*
X133040476Y-131706952D01*
X133040476Y-131849810D01*
X133088095Y-132040286D01*
X133135714Y-132135524D01*
X133230952Y-132230762D01*
X133373810Y-132278381D01*
X133469048Y-132278381D01*
X133611905Y-132230762D01*
X133659524Y-132183143D01*
X133659524Y-131849810D01*
X133469048Y-131849810D01*
X130881429Y-131754571D02*
X131024286Y-131802190D01*
X131071905Y-131849810D01*
X131119524Y-131945048D01*
X131119524Y-132087905D01*
X131071905Y-132183143D01*
X131024286Y-132230762D01*
X130929048Y-132278381D01*
X130548095Y-132278381D01*
X130548095Y-131278381D01*
X130881429Y-131278381D01*
X130976667Y-131326000D01*
X131024286Y-131373619D01*
X131071905Y-131468857D01*
X131071905Y-131564095D01*
X131024286Y-131659333D01*
X130976667Y-131706952D01*
X130881429Y-131754571D01*
X130548095Y-131754571D01*
X127508096Y-131326000D02*
X127412858Y-131278381D01*
X127270001Y-131278381D01*
X127127143Y-131326000D01*
X127031905Y-131421238D01*
X126984286Y-131516476D01*
X126936667Y-131706952D01*
X126936667Y-131849810D01*
X126984286Y-132040286D01*
X127031905Y-132135524D01*
X127127143Y-132230762D01*
X127270001Y-132278381D01*
X127365239Y-132278381D01*
X127508096Y-132230762D01*
X127555715Y-132183143D01*
X127555715Y-131849810D01*
X127365239Y-131849810D01*
X127984286Y-132278381D02*
X127984286Y-131278381D01*
X128555715Y-132278381D01*
X128555715Y-131278381D01*
X129031905Y-132278381D02*
X129031905Y-131278381D01*
X129270000Y-131278381D01*
X129412858Y-131326000D01*
X129508096Y-131421238D01*
X129555715Y-131516476D01*
X129603334Y-131706952D01*
X129603334Y-131849810D01*
X129555715Y-132040286D01*
X129508096Y-132135524D01*
X129412858Y-132230762D01*
X129270000Y-132278381D01*
X129031905Y-132278381D01*
X126039524Y-132278381D02*
X125706190Y-131802190D01*
X125468095Y-132278381D02*
X125468095Y-131278381D01*
X125849048Y-131278381D01*
X125944286Y-131326000D01*
X125991905Y-131373619D01*
X126039524Y-131468857D01*
X126039524Y-131611714D01*
X125991905Y-131706952D01*
X125944286Y-131754571D01*
X125849048Y-131802190D01*
X125468095Y-131802190D01*
D12*
X134294714Y-103068381D02*
X134294714Y-102068381D01*
X134532809Y-102068381D01*
X134675667Y-102116000D01*
X134770905Y-102211238D01*
X134818524Y-102306476D01*
X134866143Y-102496952D01*
X134866143Y-102639810D01*
X134818524Y-102830286D01*
X134770905Y-102925524D01*
X134675667Y-103020762D01*
X134532809Y-103068381D01*
X134294714Y-103068381D01*
X135818524Y-103068381D02*
X135247095Y-103068381D01*
X135532809Y-103068381D02*
X135532809Y-102068381D01*
X135437571Y-102211238D01*
X135342333Y-102306476D01*
X135247095Y-102354095D01*
X136437571Y-102068381D02*
X136532810Y-102068381D01*
X136628048Y-102116000D01*
X136675667Y-102163619D01*
X136723286Y-102258857D01*
X136770905Y-102449333D01*
X136770905Y-102687429D01*
X136723286Y-102877905D01*
X136675667Y-102973143D01*
X136628048Y-103020762D01*
X136532810Y-103068381D01*
X136437571Y-103068381D01*
X136342333Y-103020762D01*
X136294714Y-102973143D01*
X136247095Y-102877905D01*
X136199476Y-102687429D01*
X136199476Y-102449333D01*
X136247095Y-102258857D01*
X136294714Y-102163619D01*
X136342333Y-102116000D01*
X136437571Y-102068381D01*
D17*
X133611905Y-112276000D02*
X133516667Y-112228381D01*
X133373810Y-112228381D01*
X133230952Y-112276000D01*
X133135714Y-112371238D01*
X133088095Y-112466476D01*
X133040476Y-112656952D01*
X133040476Y-112799810D01*
X133088095Y-112990286D01*
X133135714Y-113085524D01*
X133230952Y-113180762D01*
X133373810Y-113228381D01*
X133469048Y-113228381D01*
X133611905Y-113180762D01*
X133659524Y-113133143D01*
X133659524Y-112799810D01*
X133469048Y-112799810D01*
X130881429Y-112704571D02*
X131024286Y-112752190D01*
X131071905Y-112799810D01*
X131119524Y-112895048D01*
X131119524Y-113037905D01*
X131071905Y-113133143D01*
X131024286Y-113180762D01*
X130929048Y-113228381D01*
X130548095Y-113228381D01*
X130548095Y-112228381D01*
X130881429Y-112228381D01*
X130976667Y-112276000D01*
X131024286Y-112323619D01*
X131071905Y-112418857D01*
X131071905Y-112514095D01*
X131024286Y-112609333D01*
X130976667Y-112656952D01*
X130881429Y-112704571D01*
X130548095Y-112704571D01*
X127508096Y-112276000D02*
X127412858Y-112228381D01*
X127270001Y-112228381D01*
X127127143Y-112276000D01*
X127031905Y-112371238D01*
X126984286Y-112466476D01*
X126936667Y-112656952D01*
X126936667Y-112799810D01*
X126984286Y-112990286D01*
X127031905Y-113085524D01*
X127127143Y-113180762D01*
X127270001Y-113228381D01*
X127365239Y-113228381D01*
X127508096Y-113180762D01*
X127555715Y-113133143D01*
X127555715Y-112799810D01*
X127365239Y-112799810D01*
X127984286Y-113228381D02*
X127984286Y-112228381D01*
X128555715Y-113228381D01*
X128555715Y-112228381D01*
X129031905Y-113228381D02*
X129031905Y-112228381D01*
X129270000Y-112228381D01*
X129412858Y-112276000D01*
X129508096Y-112371238D01*
X129555715Y-112466476D01*
X129603334Y-112656952D01*
X129603334Y-112799810D01*
X129555715Y-112990286D01*
X129508096Y-113085524D01*
X129412858Y-113180762D01*
X129270000Y-113228381D01*
X129031905Y-113228381D01*
X126039524Y-113228381D02*
X125706190Y-112752190D01*
X125468095Y-113228381D02*
X125468095Y-112228381D01*
X125849048Y-112228381D01*
X125944286Y-112276000D01*
X125991905Y-112323619D01*
X126039524Y-112418857D01*
X126039524Y-112561714D01*
X125991905Y-112656952D01*
X125944286Y-112704571D01*
X125849048Y-112752190D01*
X125468095Y-112752190D01*
D12*
X134294714Y-84018381D02*
X134294714Y-83018381D01*
X134532809Y-83018381D01*
X134675667Y-83066000D01*
X134770905Y-83161238D01*
X134818524Y-83256476D01*
X134866143Y-83446952D01*
X134866143Y-83589810D01*
X134818524Y-83780286D01*
X134770905Y-83875524D01*
X134675667Y-83970762D01*
X134532809Y-84018381D01*
X134294714Y-84018381D01*
X135818524Y-84018381D02*
X135247095Y-84018381D01*
X135532809Y-84018381D02*
X135532809Y-83018381D01*
X135437571Y-83161238D01*
X135342333Y-83256476D01*
X135247095Y-83304095D01*
X136770905Y-84018381D02*
X136199476Y-84018381D01*
X136485190Y-84018381D02*
X136485190Y-83018381D01*
X136389952Y-83161238D01*
X136294714Y-83256476D01*
X136199476Y-83304095D01*
D17*
X133611905Y-93226000D02*
X133516667Y-93178381D01*
X133373810Y-93178381D01*
X133230952Y-93226000D01*
X133135714Y-93321238D01*
X133088095Y-93416476D01*
X133040476Y-93606952D01*
X133040476Y-93749810D01*
X133088095Y-93940286D01*
X133135714Y-94035524D01*
X133230952Y-94130762D01*
X133373810Y-94178381D01*
X133469048Y-94178381D01*
X133611905Y-94130762D01*
X133659524Y-94083143D01*
X133659524Y-93749810D01*
X133469048Y-93749810D01*
X130881429Y-93654571D02*
X131024286Y-93702190D01*
X131071905Y-93749810D01*
X131119524Y-93845048D01*
X131119524Y-93987905D01*
X131071905Y-94083143D01*
X131024286Y-94130762D01*
X130929048Y-94178381D01*
X130548095Y-94178381D01*
X130548095Y-93178381D01*
X130881429Y-93178381D01*
X130976667Y-93226000D01*
X131024286Y-93273619D01*
X131071905Y-93368857D01*
X131071905Y-93464095D01*
X131024286Y-93559333D01*
X130976667Y-93606952D01*
X130881429Y-93654571D01*
X130548095Y-93654571D01*
X127508096Y-93226000D02*
X127412858Y-93178381D01*
X127270001Y-93178381D01*
X127127143Y-93226000D01*
X127031905Y-93321238D01*
X126984286Y-93416476D01*
X126936667Y-93606952D01*
X126936667Y-93749810D01*
X126984286Y-93940286D01*
X127031905Y-94035524D01*
X127127143Y-94130762D01*
X127270001Y-94178381D01*
X127365239Y-94178381D01*
X127508096Y-94130762D01*
X127555715Y-94083143D01*
X127555715Y-93749810D01*
X127365239Y-93749810D01*
X127984286Y-94178381D02*
X127984286Y-93178381D01*
X128555715Y-94178381D01*
X128555715Y-93178381D01*
X129031905Y-94178381D02*
X129031905Y-93178381D01*
X129270000Y-93178381D01*
X129412858Y-93226000D01*
X129508096Y-93321238D01*
X129555715Y-93416476D01*
X129603334Y-93606952D01*
X129603334Y-93749810D01*
X129555715Y-93940286D01*
X129508096Y-94035524D01*
X129412858Y-94130762D01*
X129270000Y-94178381D01*
X129031905Y-94178381D01*
X126039524Y-94178381D02*
X125706190Y-93702190D01*
X125468095Y-94178381D02*
X125468095Y-93178381D01*
X125849048Y-93178381D01*
X125944286Y-93226000D01*
X125991905Y-93273619D01*
X126039524Y-93368857D01*
X126039524Y-93511714D01*
X125991905Y-93606952D01*
X125944286Y-93654571D01*
X125849048Y-93702190D01*
X125468095Y-93702190D01*
D12*
X134294714Y-64968381D02*
X134294714Y-63968381D01*
X134532809Y-63968381D01*
X134675667Y-64016000D01*
X134770905Y-64111238D01*
X134818524Y-64206476D01*
X134866143Y-64396952D01*
X134866143Y-64539810D01*
X134818524Y-64730286D01*
X134770905Y-64825524D01*
X134675667Y-64920762D01*
X134532809Y-64968381D01*
X134294714Y-64968381D01*
X135818524Y-64968381D02*
X135247095Y-64968381D01*
X135532809Y-64968381D02*
X135532809Y-63968381D01*
X135437571Y-64111238D01*
X135342333Y-64206476D01*
X135247095Y-64254095D01*
X136199476Y-64063619D02*
X136247095Y-64016000D01*
X136342333Y-63968381D01*
X136580429Y-63968381D01*
X136675667Y-64016000D01*
X136723286Y-64063619D01*
X136770905Y-64158857D01*
X136770905Y-64254095D01*
X136723286Y-64396952D01*
X136151857Y-64968381D01*
X136770905Y-64968381D01*
D17*
X133611905Y-74176000D02*
X133516667Y-74128381D01*
X133373810Y-74128381D01*
X133230952Y-74176000D01*
X133135714Y-74271238D01*
X133088095Y-74366476D01*
X133040476Y-74556952D01*
X133040476Y-74699810D01*
X133088095Y-74890286D01*
X133135714Y-74985524D01*
X133230952Y-75080762D01*
X133373810Y-75128381D01*
X133469048Y-75128381D01*
X133611905Y-75080762D01*
X133659524Y-75033143D01*
X133659524Y-74699810D01*
X133469048Y-74699810D01*
X130881429Y-74604571D02*
X131024286Y-74652190D01*
X131071905Y-74699810D01*
X131119524Y-74795048D01*
X131119524Y-74937905D01*
X131071905Y-75033143D01*
X131024286Y-75080762D01*
X130929048Y-75128381D01*
X130548095Y-75128381D01*
X130548095Y-74128381D01*
X130881429Y-74128381D01*
X130976667Y-74176000D01*
X131024286Y-74223619D01*
X131071905Y-74318857D01*
X131071905Y-74414095D01*
X131024286Y-74509333D01*
X130976667Y-74556952D01*
X130881429Y-74604571D01*
X130548095Y-74604571D01*
X127508096Y-74176000D02*
X127412858Y-74128381D01*
X127270001Y-74128381D01*
X127127143Y-74176000D01*
X127031905Y-74271238D01*
X126984286Y-74366476D01*
X126936667Y-74556952D01*
X126936667Y-74699810D01*
X126984286Y-74890286D01*
X127031905Y-74985524D01*
X127127143Y-75080762D01*
X127270001Y-75128381D01*
X127365239Y-75128381D01*
X127508096Y-75080762D01*
X127555715Y-75033143D01*
X127555715Y-74699810D01*
X127365239Y-74699810D01*
X127984286Y-75128381D02*
X127984286Y-74128381D01*
X128555715Y-75128381D01*
X128555715Y-74128381D01*
X129031905Y-75128381D02*
X129031905Y-74128381D01*
X129270000Y-74128381D01*
X129412858Y-74176000D01*
X129508096Y-74271238D01*
X129555715Y-74366476D01*
X129603334Y-74556952D01*
X129603334Y-74699810D01*
X129555715Y-74890286D01*
X129508096Y-74985524D01*
X129412858Y-75080762D01*
X129270000Y-75128381D01*
X129031905Y-75128381D01*
X126039524Y-75128381D02*
X125706190Y-74652190D01*
X125468095Y-75128381D02*
X125468095Y-74128381D01*
X125849048Y-74128381D01*
X125944286Y-74176000D01*
X125991905Y-74223619D01*
X126039524Y-74318857D01*
X126039524Y-74461714D01*
X125991905Y-74556952D01*
X125944286Y-74604571D01*
X125849048Y-74652190D01*
X125468095Y-74652190D01*
D12*
X153344714Y-122118381D02*
X153344714Y-121118381D01*
X153582809Y-121118381D01*
X153725667Y-121166000D01*
X153820905Y-121261238D01*
X153868524Y-121356476D01*
X153916143Y-121546952D01*
X153916143Y-121689810D01*
X153868524Y-121880286D01*
X153820905Y-121975524D01*
X153725667Y-122070762D01*
X153582809Y-122118381D01*
X153344714Y-122118381D01*
X154868524Y-122118381D02*
X154297095Y-122118381D01*
X154582809Y-122118381D02*
X154582809Y-121118381D01*
X154487571Y-121261238D01*
X154392333Y-121356476D01*
X154297095Y-121404095D01*
X155201857Y-121118381D02*
X155820905Y-121118381D01*
X155487571Y-121499333D01*
X155630429Y-121499333D01*
X155725667Y-121546952D01*
X155773286Y-121594571D01*
X155820905Y-121689810D01*
X155820905Y-121927905D01*
X155773286Y-122023143D01*
X155725667Y-122070762D01*
X155630429Y-122118381D01*
X155344714Y-122118381D01*
X155249476Y-122070762D01*
X155201857Y-122023143D01*
D17*
X152661905Y-131326000D02*
X152566667Y-131278381D01*
X152423810Y-131278381D01*
X152280952Y-131326000D01*
X152185714Y-131421238D01*
X152138095Y-131516476D01*
X152090476Y-131706952D01*
X152090476Y-131849810D01*
X152138095Y-132040286D01*
X152185714Y-132135524D01*
X152280952Y-132230762D01*
X152423810Y-132278381D01*
X152519048Y-132278381D01*
X152661905Y-132230762D01*
X152709524Y-132183143D01*
X152709524Y-131849810D01*
X152519048Y-131849810D01*
X149931429Y-131754571D02*
X150074286Y-131802190D01*
X150121905Y-131849810D01*
X150169524Y-131945048D01*
X150169524Y-132087905D01*
X150121905Y-132183143D01*
X150074286Y-132230762D01*
X149979048Y-132278381D01*
X149598095Y-132278381D01*
X149598095Y-131278381D01*
X149931429Y-131278381D01*
X150026667Y-131326000D01*
X150074286Y-131373619D01*
X150121905Y-131468857D01*
X150121905Y-131564095D01*
X150074286Y-131659333D01*
X150026667Y-131706952D01*
X149931429Y-131754571D01*
X149598095Y-131754571D01*
X146558096Y-131326000D02*
X146462858Y-131278381D01*
X146320001Y-131278381D01*
X146177143Y-131326000D01*
X146081905Y-131421238D01*
X146034286Y-131516476D01*
X145986667Y-131706952D01*
X145986667Y-131849810D01*
X146034286Y-132040286D01*
X146081905Y-132135524D01*
X146177143Y-132230762D01*
X146320001Y-132278381D01*
X146415239Y-132278381D01*
X146558096Y-132230762D01*
X146605715Y-132183143D01*
X146605715Y-131849810D01*
X146415239Y-131849810D01*
X147034286Y-132278381D02*
X147034286Y-131278381D01*
X147605715Y-132278381D01*
X147605715Y-131278381D01*
X148081905Y-132278381D02*
X148081905Y-131278381D01*
X148320000Y-131278381D01*
X148462858Y-131326000D01*
X148558096Y-131421238D01*
X148605715Y-131516476D01*
X148653334Y-131706952D01*
X148653334Y-131849810D01*
X148605715Y-132040286D01*
X148558096Y-132135524D01*
X148462858Y-132230762D01*
X148320000Y-132278381D01*
X148081905Y-132278381D01*
X145089524Y-132278381D02*
X144756190Y-131802190D01*
X144518095Y-132278381D02*
X144518095Y-131278381D01*
X144899048Y-131278381D01*
X144994286Y-131326000D01*
X145041905Y-131373619D01*
X145089524Y-131468857D01*
X145089524Y-131611714D01*
X145041905Y-131706952D01*
X144994286Y-131754571D01*
X144899048Y-131802190D01*
X144518095Y-131802190D01*
D12*
X153344714Y-103068381D02*
X153344714Y-102068381D01*
X153582809Y-102068381D01*
X153725667Y-102116000D01*
X153820905Y-102211238D01*
X153868524Y-102306476D01*
X153916143Y-102496952D01*
X153916143Y-102639810D01*
X153868524Y-102830286D01*
X153820905Y-102925524D01*
X153725667Y-103020762D01*
X153582809Y-103068381D01*
X153344714Y-103068381D01*
X154868524Y-103068381D02*
X154297095Y-103068381D01*
X154582809Y-103068381D02*
X154582809Y-102068381D01*
X154487571Y-102211238D01*
X154392333Y-102306476D01*
X154297095Y-102354095D01*
X155725667Y-102401714D02*
X155725667Y-103068381D01*
X155487571Y-102020762D02*
X155249476Y-102735048D01*
X155868524Y-102735048D01*
D17*
X152661905Y-112276000D02*
X152566667Y-112228381D01*
X152423810Y-112228381D01*
X152280952Y-112276000D01*
X152185714Y-112371238D01*
X152138095Y-112466476D01*
X152090476Y-112656952D01*
X152090476Y-112799810D01*
X152138095Y-112990286D01*
X152185714Y-113085524D01*
X152280952Y-113180762D01*
X152423810Y-113228381D01*
X152519048Y-113228381D01*
X152661905Y-113180762D01*
X152709524Y-113133143D01*
X152709524Y-112799810D01*
X152519048Y-112799810D01*
X149931429Y-112704571D02*
X150074286Y-112752190D01*
X150121905Y-112799810D01*
X150169524Y-112895048D01*
X150169524Y-113037905D01*
X150121905Y-113133143D01*
X150074286Y-113180762D01*
X149979048Y-113228381D01*
X149598095Y-113228381D01*
X149598095Y-112228381D01*
X149931429Y-112228381D01*
X150026667Y-112276000D01*
X150074286Y-112323619D01*
X150121905Y-112418857D01*
X150121905Y-112514095D01*
X150074286Y-112609333D01*
X150026667Y-112656952D01*
X149931429Y-112704571D01*
X149598095Y-112704571D01*
X146558096Y-112276000D02*
X146462858Y-112228381D01*
X146320001Y-112228381D01*
X146177143Y-112276000D01*
X146081905Y-112371238D01*
X146034286Y-112466476D01*
X145986667Y-112656952D01*
X145986667Y-112799810D01*
X146034286Y-112990286D01*
X146081905Y-113085524D01*
X146177143Y-113180762D01*
X146320001Y-113228381D01*
X146415239Y-113228381D01*
X146558096Y-113180762D01*
X146605715Y-113133143D01*
X146605715Y-112799810D01*
X146415239Y-112799810D01*
X147034286Y-113228381D02*
X147034286Y-112228381D01*
X147605715Y-113228381D01*
X147605715Y-112228381D01*
X148081905Y-113228381D02*
X148081905Y-112228381D01*
X148320000Y-112228381D01*
X148462858Y-112276000D01*
X148558096Y-112371238D01*
X148605715Y-112466476D01*
X148653334Y-112656952D01*
X148653334Y-112799810D01*
X148605715Y-112990286D01*
X148558096Y-113085524D01*
X148462858Y-113180762D01*
X148320000Y-113228381D01*
X148081905Y-113228381D01*
X145089524Y-113228381D02*
X144756190Y-112752190D01*
X144518095Y-113228381D02*
X144518095Y-112228381D01*
X144899048Y-112228381D01*
X144994286Y-112276000D01*
X145041905Y-112323619D01*
X145089524Y-112418857D01*
X145089524Y-112561714D01*
X145041905Y-112656952D01*
X144994286Y-112704571D01*
X144899048Y-112752190D01*
X144518095Y-112752190D01*
D12*
X153344714Y-84018381D02*
X153344714Y-83018381D01*
X153582809Y-83018381D01*
X153725667Y-83066000D01*
X153820905Y-83161238D01*
X153868524Y-83256476D01*
X153916143Y-83446952D01*
X153916143Y-83589810D01*
X153868524Y-83780286D01*
X153820905Y-83875524D01*
X153725667Y-83970762D01*
X153582809Y-84018381D01*
X153344714Y-84018381D01*
X154868524Y-84018381D02*
X154297095Y-84018381D01*
X154582809Y-84018381D02*
X154582809Y-83018381D01*
X154487571Y-83161238D01*
X154392333Y-83256476D01*
X154297095Y-83304095D01*
X155773286Y-83018381D02*
X155297095Y-83018381D01*
X155249476Y-83494571D01*
X155297095Y-83446952D01*
X155392333Y-83399333D01*
X155630429Y-83399333D01*
X155725667Y-83446952D01*
X155773286Y-83494571D01*
X155820905Y-83589810D01*
X155820905Y-83827905D01*
X155773286Y-83923143D01*
X155725667Y-83970762D01*
X155630429Y-84018381D01*
X155392333Y-84018381D01*
X155297095Y-83970762D01*
X155249476Y-83923143D01*
D17*
X152661905Y-93226000D02*
X152566667Y-93178381D01*
X152423810Y-93178381D01*
X152280952Y-93226000D01*
X152185714Y-93321238D01*
X152138095Y-93416476D01*
X152090476Y-93606952D01*
X152090476Y-93749810D01*
X152138095Y-93940286D01*
X152185714Y-94035524D01*
X152280952Y-94130762D01*
X152423810Y-94178381D01*
X152519048Y-94178381D01*
X152661905Y-94130762D01*
X152709524Y-94083143D01*
X152709524Y-93749810D01*
X152519048Y-93749810D01*
X149931429Y-93654571D02*
X150074286Y-93702190D01*
X150121905Y-93749810D01*
X150169524Y-93845048D01*
X150169524Y-93987905D01*
X150121905Y-94083143D01*
X150074286Y-94130762D01*
X149979048Y-94178381D01*
X149598095Y-94178381D01*
X149598095Y-93178381D01*
X149931429Y-93178381D01*
X150026667Y-93226000D01*
X150074286Y-93273619D01*
X150121905Y-93368857D01*
X150121905Y-93464095D01*
X150074286Y-93559333D01*
X150026667Y-93606952D01*
X149931429Y-93654571D01*
X149598095Y-93654571D01*
X146558096Y-93226000D02*
X146462858Y-93178381D01*
X146320001Y-93178381D01*
X146177143Y-93226000D01*
X146081905Y-93321238D01*
X146034286Y-93416476D01*
X145986667Y-93606952D01*
X145986667Y-93749810D01*
X146034286Y-93940286D01*
X146081905Y-94035524D01*
X146177143Y-94130762D01*
X146320001Y-94178381D01*
X146415239Y-94178381D01*
X146558096Y-94130762D01*
X146605715Y-94083143D01*
X146605715Y-93749810D01*
X146415239Y-93749810D01*
X147034286Y-94178381D02*
X147034286Y-93178381D01*
X147605715Y-94178381D01*
X147605715Y-93178381D01*
X148081905Y-94178381D02*
X148081905Y-93178381D01*
X148320000Y-93178381D01*
X148462858Y-93226000D01*
X148558096Y-93321238D01*
X148605715Y-93416476D01*
X148653334Y-93606952D01*
X148653334Y-93749810D01*
X148605715Y-93940286D01*
X148558096Y-94035524D01*
X148462858Y-94130762D01*
X148320000Y-94178381D01*
X148081905Y-94178381D01*
X145089524Y-94178381D02*
X144756190Y-93702190D01*
X144518095Y-94178381D02*
X144518095Y-93178381D01*
X144899048Y-93178381D01*
X144994286Y-93226000D01*
X145041905Y-93273619D01*
X145089524Y-93368857D01*
X145089524Y-93511714D01*
X145041905Y-93606952D01*
X144994286Y-93654571D01*
X144899048Y-93702190D01*
X144518095Y-93702190D01*
D12*
X153344714Y-64968381D02*
X153344714Y-63968381D01*
X153582809Y-63968381D01*
X153725667Y-64016000D01*
X153820905Y-64111238D01*
X153868524Y-64206476D01*
X153916143Y-64396952D01*
X153916143Y-64539810D01*
X153868524Y-64730286D01*
X153820905Y-64825524D01*
X153725667Y-64920762D01*
X153582809Y-64968381D01*
X153344714Y-64968381D01*
X154868524Y-64968381D02*
X154297095Y-64968381D01*
X154582809Y-64968381D02*
X154582809Y-63968381D01*
X154487571Y-64111238D01*
X154392333Y-64206476D01*
X154297095Y-64254095D01*
X155725667Y-63968381D02*
X155535190Y-63968381D01*
X155439952Y-64016000D01*
X155392333Y-64063619D01*
X155297095Y-64206476D01*
X155249476Y-64396952D01*
X155249476Y-64777905D01*
X155297095Y-64873143D01*
X155344714Y-64920762D01*
X155439952Y-64968381D01*
X155630429Y-64968381D01*
X155725667Y-64920762D01*
X155773286Y-64873143D01*
X155820905Y-64777905D01*
X155820905Y-64539810D01*
X155773286Y-64444571D01*
X155725667Y-64396952D01*
X155630429Y-64349333D01*
X155439952Y-64349333D01*
X155344714Y-64396952D01*
X155297095Y-64444571D01*
X155249476Y-64539810D01*
D17*
X152661905Y-74176000D02*
X152566667Y-74128381D01*
X152423810Y-74128381D01*
X152280952Y-74176000D01*
X152185714Y-74271238D01*
X152138095Y-74366476D01*
X152090476Y-74556952D01*
X152090476Y-74699810D01*
X152138095Y-74890286D01*
X152185714Y-74985524D01*
X152280952Y-75080762D01*
X152423810Y-75128381D01*
X152519048Y-75128381D01*
X152661905Y-75080762D01*
X152709524Y-75033143D01*
X152709524Y-74699810D01*
X152519048Y-74699810D01*
X149931429Y-74604571D02*
X150074286Y-74652190D01*
X150121905Y-74699810D01*
X150169524Y-74795048D01*
X150169524Y-74937905D01*
X150121905Y-75033143D01*
X150074286Y-75080762D01*
X149979048Y-75128381D01*
X149598095Y-75128381D01*
X149598095Y-74128381D01*
X149931429Y-74128381D01*
X150026667Y-74176000D01*
X150074286Y-74223619D01*
X150121905Y-74318857D01*
X150121905Y-74414095D01*
X150074286Y-74509333D01*
X150026667Y-74556952D01*
X149931429Y-74604571D01*
X149598095Y-74604571D01*
X146558096Y-74176000D02*
X146462858Y-74128381D01*
X146320001Y-74128381D01*
X146177143Y-74176000D01*
X146081905Y-74271238D01*
X146034286Y-74366476D01*
X145986667Y-74556952D01*
X145986667Y-74699810D01*
X146034286Y-74890286D01*
X146081905Y-74985524D01*
X146177143Y-75080762D01*
X146320001Y-75128381D01*
X146415239Y-75128381D01*
X146558096Y-75080762D01*
X146605715Y-75033143D01*
X146605715Y-74699810D01*
X146415239Y-74699810D01*
X147034286Y-75128381D02*
X147034286Y-74128381D01*
X147605715Y-75128381D01*
X147605715Y-74128381D01*
X148081905Y-75128381D02*
X148081905Y-74128381D01*
X148320000Y-74128381D01*
X148462858Y-74176000D01*
X148558096Y-74271238D01*
X148605715Y-74366476D01*
X148653334Y-74556952D01*
X148653334Y-74699810D01*
X148605715Y-74890286D01*
X148558096Y-74985524D01*
X148462858Y-75080762D01*
X148320000Y-75128381D01*
X148081905Y-75128381D01*
X145089524Y-75128381D02*
X144756190Y-74652190D01*
X144518095Y-75128381D02*
X144518095Y-74128381D01*
X144899048Y-74128381D01*
X144994286Y-74176000D01*
X145041905Y-74223619D01*
X145089524Y-74318857D01*
X145089524Y-74461714D01*
X145041905Y-74556952D01*
X144994286Y-74604571D01*
X144899048Y-74652190D01*
X144518095Y-74652190D01*
X134456027Y-50189523D02*
X135028447Y-50761943D01*
X135129462Y-50795615D01*
X135196805Y-50795615D01*
X135297820Y-50761943D01*
X135432508Y-50627255D01*
X135466180Y-50526240D01*
X135466180Y-50458897D01*
X135432508Y-50357882D01*
X134860088Y-49785462D01*
X136274302Y-49785462D02*
X135870240Y-50189523D01*
X136072271Y-49987493D02*
X135365164Y-49280386D01*
X135398836Y-49448745D01*
X135398836Y-49583431D01*
X135365164Y-49684447D01*
X79576370Y-53528310D02*
X79576370Y-54337834D01*
X79623989Y-54433072D01*
X79671608Y-54480691D01*
X79766846Y-54528310D01*
X79957323Y-54528310D01*
X80052561Y-54480691D01*
X80100180Y-54433072D01*
X80147799Y-54337834D01*
X80147799Y-53528310D01*
X81100180Y-53528310D02*
X80623989Y-53528310D01*
X80576370Y-54004500D01*
X80623989Y-53956881D01*
X80719227Y-53909262D01*
X80957323Y-53909262D01*
X81052561Y-53956881D01*
X81100180Y-54004500D01*
X81147799Y-54099739D01*
X81147799Y-54337834D01*
X81100180Y-54433072D01*
X81052561Y-54480691D01*
X80957323Y-54528310D01*
X80719227Y-54528310D01*
X80623989Y-54480691D01*
X80576370Y-54433072D01*
X158805714Y-78430381D02*
X158805714Y-77430381D01*
X159043809Y-77430381D01*
X159186667Y-77478000D01*
X159281905Y-77573238D01*
X159329524Y-77668476D01*
X159377143Y-77858952D01*
X159377143Y-78001810D01*
X159329524Y-78192286D01*
X159281905Y-78287524D01*
X159186667Y-78382762D01*
X159043809Y-78430381D01*
X158805714Y-78430381D01*
X159758095Y-77525619D02*
X159805714Y-77478000D01*
X159900952Y-77430381D01*
X160139048Y-77430381D01*
X160234286Y-77478000D01*
X160281905Y-77525619D01*
X160329524Y-77620857D01*
X160329524Y-77716095D01*
X160281905Y-77858952D01*
X159710476Y-78430381D01*
X160329524Y-78430381D01*
X161281905Y-78430381D02*
X160710476Y-78430381D01*
X160996190Y-78430381D02*
X160996190Y-77430381D01*
X160900952Y-77573238D01*
X160805714Y-77668476D01*
X160710476Y-77716095D01*
X167362286Y-40092381D02*
X167933715Y-40092381D01*
X167648000Y-41092381D02*
X167648000Y-40092381D01*
X168838477Y-41092381D02*
X168505143Y-40616190D01*
X168267048Y-41092381D02*
X168267048Y-40092381D01*
X168648001Y-40092381D01*
X168743239Y-40140000D01*
X168790858Y-40187619D01*
X168838477Y-40282857D01*
X168838477Y-40425714D01*
X168790858Y-40520952D01*
X168743239Y-40568571D01*
X168648001Y-40616190D01*
X168267048Y-40616190D01*
X159472334Y-68016381D02*
X159139000Y-67540190D01*
X158900905Y-68016381D02*
X158900905Y-67016381D01*
X159281858Y-67016381D01*
X159377096Y-67064000D01*
X159424715Y-67111619D01*
X159472334Y-67206857D01*
X159472334Y-67349714D01*
X159424715Y-67444952D01*
X159377096Y-67492571D01*
X159281858Y-67540190D01*
X158900905Y-67540190D01*
X159853286Y-67111619D02*
X159900905Y-67064000D01*
X159996143Y-67016381D01*
X160234239Y-67016381D01*
X160329477Y-67064000D01*
X160377096Y-67111619D01*
X160424715Y-67206857D01*
X160424715Y-67302095D01*
X160377096Y-67444952D01*
X159805667Y-68016381D01*
X160424715Y-68016381D01*
X159472334Y-73223381D02*
X159139000Y-72747190D01*
X158900905Y-73223381D02*
X158900905Y-72223381D01*
X159281858Y-72223381D01*
X159377096Y-72271000D01*
X159424715Y-72318619D01*
X159472334Y-72413857D01*
X159472334Y-72556714D01*
X159424715Y-72651952D01*
X159377096Y-72699571D01*
X159281858Y-72747190D01*
X158900905Y-72747190D01*
X159805667Y-72223381D02*
X160424715Y-72223381D01*
X160091381Y-72604333D01*
X160234239Y-72604333D01*
X160329477Y-72651952D01*
X160377096Y-72699571D01*
X160424715Y-72794810D01*
X160424715Y-73032905D01*
X160377096Y-73128143D01*
X160329477Y-73175762D01*
X160234239Y-73223381D01*
X159948524Y-73223381D01*
X159853286Y-73175762D01*
X159805667Y-73128143D01*
X159472334Y-83891381D02*
X159139000Y-83415190D01*
X158900905Y-83891381D02*
X158900905Y-82891381D01*
X159281858Y-82891381D01*
X159377096Y-82939000D01*
X159424715Y-82986619D01*
X159472334Y-83081857D01*
X159472334Y-83224714D01*
X159424715Y-83319952D01*
X159377096Y-83367571D01*
X159281858Y-83415190D01*
X158900905Y-83415190D01*
X160329477Y-83224714D02*
X160329477Y-83891381D01*
X160091381Y-82843762D02*
X159853286Y-83558048D01*
X160472334Y-83558048D01*
D12*
X90590000Y-47052667D02*
X90590000Y-46352667D01*
X90756666Y-46352667D01*
X90856666Y-46386000D01*
X90923333Y-46452667D01*
X90956666Y-46519333D01*
X90990000Y-46652667D01*
X90990000Y-46752667D01*
X90956666Y-46886000D01*
X90923333Y-46952667D01*
X90856666Y-47019333D01*
X90756666Y-47052667D01*
X90590000Y-47052667D01*
X91656666Y-47052667D02*
X91256666Y-47052667D01*
X91456666Y-47052667D02*
X91456666Y-46352667D01*
X91390000Y-46452667D01*
X91323333Y-46519333D01*
X91256666Y-46552667D01*
X91890000Y-46352667D02*
X92356667Y-46352667D01*
X92056667Y-47052667D01*
D19*
X89851428Y-39615143D02*
X89965714Y-40095143D01*
X90057143Y-39752286D01*
X90148571Y-40095143D01*
X90262857Y-39615143D01*
X90422857Y-40072286D02*
X90491428Y-40095143D01*
X90605714Y-40095143D01*
X90651428Y-40072286D01*
X90674285Y-40049429D01*
X90697142Y-40003714D01*
X90697142Y-39958000D01*
X90674285Y-39912286D01*
X90651428Y-39889429D01*
X90605714Y-39866571D01*
X90514285Y-39843714D01*
X90468571Y-39820857D01*
X90445714Y-39798000D01*
X90422857Y-39752286D01*
X90422857Y-39706571D01*
X90445714Y-39660857D01*
X90468571Y-39638000D01*
X90514285Y-39615143D01*
X90628571Y-39615143D01*
X90697142Y-39638000D01*
X90880000Y-39660857D02*
X90902857Y-39638000D01*
X90948571Y-39615143D01*
X91062857Y-39615143D01*
X91108571Y-39638000D01*
X91131428Y-39660857D01*
X91154285Y-39706571D01*
X91154285Y-39752286D01*
X91131428Y-39820857D01*
X90857142Y-40095143D01*
X91154285Y-40095143D01*
X91428571Y-39820857D02*
X91382857Y-39798000D01*
X91360000Y-39775143D01*
X91337143Y-39729429D01*
X91337143Y-39706571D01*
X91360000Y-39660857D01*
X91382857Y-39638000D01*
X91428571Y-39615143D01*
X91520000Y-39615143D01*
X91565714Y-39638000D01*
X91588571Y-39660857D01*
X91611428Y-39706571D01*
X91611428Y-39729429D01*
X91588571Y-39775143D01*
X91565714Y-39798000D01*
X91520000Y-39820857D01*
X91428571Y-39820857D01*
X91382857Y-39843714D01*
X91360000Y-39866571D01*
X91337143Y-39912286D01*
X91337143Y-40003714D01*
X91360000Y-40049429D01*
X91382857Y-40072286D01*
X91428571Y-40095143D01*
X91520000Y-40095143D01*
X91565714Y-40072286D01*
X91588571Y-40049429D01*
X91611428Y-40003714D01*
X91611428Y-39912286D01*
X91588571Y-39866571D01*
X91565714Y-39843714D01*
X91520000Y-39820857D01*
X92068571Y-40095143D02*
X91794286Y-40095143D01*
X91931428Y-40095143D02*
X91931428Y-39615143D01*
X91885714Y-39683714D01*
X91840000Y-39729429D01*
X91794286Y-39752286D01*
X92251429Y-39660857D02*
X92274286Y-39638000D01*
X92320000Y-39615143D01*
X92434286Y-39615143D01*
X92480000Y-39638000D01*
X92502857Y-39660857D01*
X92525714Y-39706571D01*
X92525714Y-39752286D01*
X92502857Y-39820857D01*
X92228571Y-40095143D01*
X92525714Y-40095143D01*
X92891429Y-39843714D02*
X92960000Y-39866571D01*
X92982857Y-39889429D01*
X93005714Y-39935143D01*
X93005714Y-40003714D01*
X92982857Y-40049429D01*
X92960000Y-40072286D01*
X92914286Y-40095143D01*
X92731429Y-40095143D01*
X92731429Y-39615143D01*
X92891429Y-39615143D01*
X92937143Y-39638000D01*
X92960000Y-39660857D01*
X92982857Y-39706571D01*
X92982857Y-39752286D01*
X92960000Y-39798000D01*
X92937143Y-39820857D01*
X92891429Y-39843714D01*
X92731429Y-39843714D01*
D17*
X166036667Y-98722381D02*
X166036667Y-99436667D01*
X165989047Y-99579524D01*
X165893809Y-99674762D01*
X165750952Y-99722381D01*
X165655714Y-99722381D01*
X167036667Y-99722381D02*
X166465238Y-99722381D01*
X166750952Y-99722381D02*
X166750952Y-98722381D01*
X166655714Y-98865238D01*
X166560476Y-98960476D01*
X166465238Y-99008095D01*
X73326667Y-98722381D02*
X73326667Y-99436667D01*
X73279047Y-99579524D01*
X73183809Y-99674762D01*
X73040952Y-99722381D01*
X72945714Y-99722381D01*
X73755238Y-98817619D02*
X73802857Y-98770000D01*
X73898095Y-98722381D01*
X74136191Y-98722381D01*
X74231429Y-98770000D01*
X74279048Y-98817619D01*
X74326667Y-98912857D01*
X74326667Y-99008095D01*
X74279048Y-99150952D01*
X73707619Y-99722381D01*
X74326667Y-99722381D01*
X158025663Y-48664753D02*
X158739949Y-48664753D01*
X158882806Y-48712373D01*
X158978044Y-48807611D01*
X159025663Y-48950468D01*
X159025663Y-49045706D01*
X158025663Y-48283801D02*
X158025663Y-47664753D01*
X158406615Y-47998087D01*
X158406615Y-47855229D01*
X158454234Y-47759991D01*
X158501853Y-47712372D01*
X158597092Y-47664753D01*
X158835187Y-47664753D01*
X158930425Y-47712372D01*
X158978044Y-47759991D01*
X159025663Y-47855229D01*
X159025663Y-48140944D01*
X158978044Y-48236182D01*
X158930425Y-48283801D01*
X157992381Y-42243333D02*
X158706667Y-42243333D01*
X158849524Y-42290953D01*
X158944762Y-42386191D01*
X158992381Y-42529048D01*
X158992381Y-42624286D01*
X158325714Y-41338571D02*
X158992381Y-41338571D01*
X157944762Y-41576667D02*
X158659048Y-41814762D01*
X158659048Y-41195714D01*
X126579334Y-40330381D02*
X126246000Y-39854190D01*
X126007905Y-40330381D02*
X126007905Y-39330381D01*
X126388858Y-39330381D01*
X126484096Y-39378000D01*
X126531715Y-39425619D01*
X126579334Y-39520857D01*
X126579334Y-39663714D01*
X126531715Y-39758952D01*
X126484096Y-39806571D01*
X126388858Y-39854190D01*
X126007905Y-39854190D01*
X127484096Y-39330381D02*
X127007905Y-39330381D01*
X126960286Y-39806571D01*
X127007905Y-39758952D01*
X127103143Y-39711333D01*
X127341239Y-39711333D01*
X127436477Y-39758952D01*
X127484096Y-39806571D01*
X127531715Y-39901810D01*
X127531715Y-40139905D01*
X127484096Y-40235143D01*
X127436477Y-40282762D01*
X127341239Y-40330381D01*
X127103143Y-40330381D01*
X127007905Y-40282762D01*
X126960286Y-40235143D01*
M02*
