G04 #@! TF.FileFunction,Copper,L1,Top,Signal*
%FSLAX46Y46*%
G04 Gerber Fmt 4.6, Leading zero omitted, Abs format (unit mm)*
G04 Created by KiCad (PCBNEW 4.0.6) date 2017 July 24, Monday 19:52:19*
%MOMM*%
%LPD*%
G01*
G04 APERTURE LIST*
%ADD10C,0.100000*%
%ADD11R,1.099820X0.398780*%
%ADD12R,1.500000X1.300000*%
%ADD13C,3.980180*%
%ADD14C,2.600000*%
%ADD15C,1.699260*%
%ADD16C,1.500000*%
%ADD17R,2.000000X3.800000*%
%ADD18R,2.000000X1.500000*%
%ADD19R,0.900000X1.200000*%
%ADD20R,1.651000X1.000000*%
%ADD21R,1.700000X1.700000*%
%ADD22O,1.700000X1.700000*%
%ADD23C,0.600000*%
%ADD24C,0.250000*%
%ADD25C,0.500000*%
%ADD26C,1.000000*%
%ADD27C,0.254000*%
G04 APERTURE END LIST*
D10*
D11*
X159843639Y-54671939D03*
X159843639Y-55322179D03*
X159843639Y-55972419D03*
X159843639Y-56622659D03*
X159843639Y-57272899D03*
X159843639Y-57918059D03*
X159843639Y-58568299D03*
X159843639Y-59218539D03*
X159843639Y-59868779D03*
X159843639Y-60519019D03*
X165543399Y-60519019D03*
X165543399Y-59868779D03*
X165543399Y-59218539D03*
X165543399Y-58568299D03*
X165543399Y-57918059D03*
X165543399Y-57272899D03*
X165543399Y-56622659D03*
X165543399Y-55972419D03*
X165543399Y-55322179D03*
X165543399Y-54671939D03*
D12*
X162469391Y-64317299D03*
X159769391Y-64317299D03*
D13*
X91440000Y-90170000D03*
D14*
X93980000Y-85090000D03*
X87630000Y-87630000D03*
D15*
X86360000Y-90170000D03*
X96520000Y-90170000D03*
D13*
X129540000Y-109220000D03*
D14*
X132080000Y-104140000D03*
X125730000Y-106680000D03*
D15*
X124460000Y-109220000D03*
X134620000Y-109220000D03*
D13*
X129540000Y-71120000D03*
D14*
X132080000Y-66040000D03*
X125730000Y-68580000D03*
D15*
X124460000Y-71120000D03*
X134620000Y-71120000D03*
D16*
X95237300Y-133324600D03*
X87617300Y-133324600D03*
X92697300Y-133324600D03*
X90157300Y-133324600D03*
D13*
X91427300Y-128244600D03*
D14*
X93967300Y-123164600D03*
X87617300Y-125704600D03*
D15*
X86347300Y-128244600D03*
X96507300Y-128244600D03*
D16*
X95250000Y-114300000D03*
X87630000Y-114300000D03*
X92710000Y-114300000D03*
X90170000Y-114300000D03*
X95250000Y-95250000D03*
X87630000Y-95250000D03*
X92710000Y-95250000D03*
X90170000Y-95250000D03*
X95250000Y-76200000D03*
X87630000Y-76200000D03*
X92710000Y-76200000D03*
X90170000Y-76200000D03*
X114300000Y-133350000D03*
X106680000Y-133350000D03*
X111760000Y-133350000D03*
X109220000Y-133350000D03*
X114300000Y-114300000D03*
X106680000Y-114300000D03*
X111760000Y-114300000D03*
X109220000Y-114300000D03*
X114300000Y-95250000D03*
X106680000Y-95250000D03*
X111760000Y-95250000D03*
X109220000Y-95250000D03*
X114300000Y-76200000D03*
X106680000Y-76200000D03*
X111760000Y-76200000D03*
X109220000Y-76200000D03*
X133350000Y-133350000D03*
X125730000Y-133350000D03*
X130810000Y-133350000D03*
X128270000Y-133350000D03*
X133350000Y-114300000D03*
X125730000Y-114300000D03*
X130810000Y-114300000D03*
X128270000Y-114300000D03*
X133350000Y-95250000D03*
X125730000Y-95250000D03*
X130810000Y-95250000D03*
X128270000Y-95250000D03*
X133350000Y-76200000D03*
X125730000Y-76200000D03*
X130810000Y-76200000D03*
X128270000Y-76200000D03*
X152400000Y-133350000D03*
X144780000Y-133350000D03*
X149860000Y-133350000D03*
X147320000Y-133350000D03*
X152400000Y-114300000D03*
X144780000Y-114300000D03*
X149860000Y-114300000D03*
X147320000Y-114300000D03*
X152400000Y-95250000D03*
X144780000Y-95250000D03*
X149860000Y-95250000D03*
X147320000Y-95250000D03*
X152400000Y-76200000D03*
X144780000Y-76200000D03*
X149860000Y-76200000D03*
X147320000Y-76200000D03*
D13*
X91440000Y-109220000D03*
D14*
X93980000Y-104140000D03*
X87630000Y-106680000D03*
D15*
X86360000Y-109220000D03*
X96520000Y-109220000D03*
D13*
X91440000Y-71120000D03*
D14*
X93980000Y-66040000D03*
X87630000Y-68580000D03*
D15*
X86360000Y-71120000D03*
X96520000Y-71120000D03*
D13*
X110490000Y-128270000D03*
D14*
X113030000Y-123190000D03*
X106680000Y-125730000D03*
D15*
X105410000Y-128270000D03*
X115570000Y-128270000D03*
D13*
X110490000Y-109220000D03*
D14*
X113030000Y-104140000D03*
X106680000Y-106680000D03*
D15*
X105410000Y-109220000D03*
X115570000Y-109220000D03*
D13*
X110490000Y-90170000D03*
D14*
X113030000Y-85090000D03*
X106680000Y-87630000D03*
D15*
X105410000Y-90170000D03*
X115570000Y-90170000D03*
D13*
X110490000Y-71120000D03*
D14*
X113030000Y-66040000D03*
X106680000Y-68580000D03*
D15*
X105410000Y-71120000D03*
X115570000Y-71120000D03*
D13*
X129540000Y-128270000D03*
D14*
X132080000Y-123190000D03*
X125730000Y-125730000D03*
D15*
X124460000Y-128270000D03*
X134620000Y-128270000D03*
D13*
X129540000Y-90170000D03*
D14*
X132080000Y-85090000D03*
X125730000Y-87630000D03*
D15*
X124460000Y-90170000D03*
X134620000Y-90170000D03*
D13*
X148590000Y-128270000D03*
D14*
X151130000Y-123190000D03*
X144780000Y-125730000D03*
D15*
X143510000Y-128270000D03*
X153670000Y-128270000D03*
D13*
X148590000Y-109220000D03*
D14*
X151130000Y-104140000D03*
X144780000Y-106680000D03*
D15*
X143510000Y-109220000D03*
X153670000Y-109220000D03*
D13*
X148590000Y-90170000D03*
D14*
X151130000Y-85090000D03*
X144780000Y-87630000D03*
D15*
X143510000Y-90170000D03*
X153670000Y-90170000D03*
D13*
X148590000Y-71120000D03*
D14*
X151130000Y-66040000D03*
X144780000Y-68580000D03*
D15*
X143510000Y-71120000D03*
X153670000Y-71120000D03*
D10*
G36*
X128208707Y-51953045D02*
X127819799Y-51564137D01*
X128880459Y-50503477D01*
X129269367Y-50892385D01*
X128208707Y-51953045D01*
X128208707Y-51953045D01*
G37*
G36*
X128774393Y-52518730D02*
X128385485Y-52129822D01*
X129446145Y-51069162D01*
X129835053Y-51458070D01*
X128774393Y-52518730D01*
X128774393Y-52518730D01*
G37*
G36*
X129340078Y-53084415D02*
X128951170Y-52695507D01*
X130011830Y-51634847D01*
X130400738Y-52023755D01*
X129340078Y-53084415D01*
X129340078Y-53084415D01*
G37*
G36*
X129905763Y-53650101D02*
X129516855Y-53261193D01*
X130577515Y-52200533D01*
X130966423Y-52589441D01*
X129905763Y-53650101D01*
X129905763Y-53650101D01*
G37*
G36*
X130471449Y-54215786D02*
X130082541Y-53826878D01*
X131143201Y-52766218D01*
X131532109Y-53155126D01*
X130471449Y-54215786D01*
X130471449Y-54215786D01*
G37*
G36*
X131037134Y-54781472D02*
X130648226Y-54392564D01*
X131708886Y-53331904D01*
X132097794Y-53720812D01*
X131037134Y-54781472D01*
X131037134Y-54781472D01*
G37*
G36*
X131602820Y-55347157D02*
X131213912Y-54958249D01*
X132274572Y-53897589D01*
X132663480Y-54286497D01*
X131602820Y-55347157D01*
X131602820Y-55347157D01*
G37*
G36*
X132168505Y-55912843D02*
X131779597Y-55523935D01*
X132840257Y-54463275D01*
X133229165Y-54852183D01*
X132168505Y-55912843D01*
X132168505Y-55912843D01*
G37*
G36*
X132734191Y-56478528D02*
X132345283Y-56089620D01*
X133405943Y-55028960D01*
X133794851Y-55417868D01*
X132734191Y-56478528D01*
X132734191Y-56478528D01*
G37*
G36*
X133299876Y-57044213D02*
X132910968Y-56655305D01*
X133971628Y-55594645D01*
X134360536Y-55983553D01*
X133299876Y-57044213D01*
X133299876Y-57044213D01*
G37*
G36*
X133865561Y-57609899D02*
X133476653Y-57220991D01*
X134537313Y-56160331D01*
X134926221Y-56549239D01*
X133865561Y-57609899D01*
X133865561Y-57609899D01*
G37*
G36*
X137330385Y-57220991D02*
X136941477Y-57609899D01*
X135880817Y-56549239D01*
X136269725Y-56160331D01*
X137330385Y-57220991D01*
X137330385Y-57220991D01*
G37*
G36*
X137896070Y-56655305D02*
X137507162Y-57044213D01*
X136446502Y-55983553D01*
X136835410Y-55594645D01*
X137896070Y-56655305D01*
X137896070Y-56655305D01*
G37*
G36*
X138461755Y-56089620D02*
X138072847Y-56478528D01*
X137012187Y-55417868D01*
X137401095Y-55028960D01*
X138461755Y-56089620D01*
X138461755Y-56089620D01*
G37*
G36*
X139027441Y-55523935D02*
X138638533Y-55912843D01*
X137577873Y-54852183D01*
X137966781Y-54463275D01*
X139027441Y-55523935D01*
X139027441Y-55523935D01*
G37*
G36*
X139593126Y-54958249D02*
X139204218Y-55347157D01*
X138143558Y-54286497D01*
X138532466Y-53897589D01*
X139593126Y-54958249D01*
X139593126Y-54958249D01*
G37*
G36*
X140158812Y-54392564D02*
X139769904Y-54781472D01*
X138709244Y-53720812D01*
X139098152Y-53331904D01*
X140158812Y-54392564D01*
X140158812Y-54392564D01*
G37*
G36*
X140724497Y-53826878D02*
X140335589Y-54215786D01*
X139274929Y-53155126D01*
X139663837Y-52766218D01*
X140724497Y-53826878D01*
X140724497Y-53826878D01*
G37*
G36*
X141290183Y-53261193D02*
X140901275Y-53650101D01*
X139840615Y-52589441D01*
X140229523Y-52200533D01*
X141290183Y-53261193D01*
X141290183Y-53261193D01*
G37*
G36*
X141855868Y-52695507D02*
X141466960Y-53084415D01*
X140406300Y-52023755D01*
X140795208Y-51634847D01*
X141855868Y-52695507D01*
X141855868Y-52695507D01*
G37*
G36*
X142421553Y-52129822D02*
X142032645Y-52518730D01*
X140971985Y-51458070D01*
X141360893Y-51069162D01*
X142421553Y-52129822D01*
X142421553Y-52129822D01*
G37*
G36*
X142987239Y-51564137D02*
X142598331Y-51953045D01*
X141537671Y-50892385D01*
X141926579Y-50503477D01*
X142987239Y-51564137D01*
X142987239Y-51564137D01*
G37*
G36*
X141926579Y-49548881D02*
X141537671Y-49159973D01*
X142598331Y-48099313D01*
X142987239Y-48488221D01*
X141926579Y-49548881D01*
X141926579Y-49548881D01*
G37*
G36*
X141360893Y-48983196D02*
X140971985Y-48594288D01*
X142032645Y-47533628D01*
X142421553Y-47922536D01*
X141360893Y-48983196D01*
X141360893Y-48983196D01*
G37*
G36*
X140795208Y-48417511D02*
X140406300Y-48028603D01*
X141466960Y-46967943D01*
X141855868Y-47356851D01*
X140795208Y-48417511D01*
X140795208Y-48417511D01*
G37*
G36*
X140229523Y-47851825D02*
X139840615Y-47462917D01*
X140901275Y-46402257D01*
X141290183Y-46791165D01*
X140229523Y-47851825D01*
X140229523Y-47851825D01*
G37*
G36*
X139663837Y-47286140D02*
X139274929Y-46897232D01*
X140335589Y-45836572D01*
X140724497Y-46225480D01*
X139663837Y-47286140D01*
X139663837Y-47286140D01*
G37*
G36*
X139098152Y-46720454D02*
X138709244Y-46331546D01*
X139769904Y-45270886D01*
X140158812Y-45659794D01*
X139098152Y-46720454D01*
X139098152Y-46720454D01*
G37*
G36*
X138532466Y-46154769D02*
X138143558Y-45765861D01*
X139204218Y-44705201D01*
X139593126Y-45094109D01*
X138532466Y-46154769D01*
X138532466Y-46154769D01*
G37*
G36*
X137966781Y-45589083D02*
X137577873Y-45200175D01*
X138638533Y-44139515D01*
X139027441Y-44528423D01*
X137966781Y-45589083D01*
X137966781Y-45589083D01*
G37*
G36*
X137401095Y-45023398D02*
X137012187Y-44634490D01*
X138072847Y-43573830D01*
X138461755Y-43962738D01*
X137401095Y-45023398D01*
X137401095Y-45023398D01*
G37*
G36*
X136835410Y-44457713D02*
X136446502Y-44068805D01*
X137507162Y-43008145D01*
X137896070Y-43397053D01*
X136835410Y-44457713D01*
X136835410Y-44457713D01*
G37*
G36*
X136269725Y-43892027D02*
X135880817Y-43503119D01*
X136941477Y-42442459D01*
X137330385Y-42831367D01*
X136269725Y-43892027D01*
X136269725Y-43892027D01*
G37*
G36*
X134926221Y-43503119D02*
X134537313Y-43892027D01*
X133476653Y-42831367D01*
X133865561Y-42442459D01*
X134926221Y-43503119D01*
X134926221Y-43503119D01*
G37*
G36*
X134360536Y-44068805D02*
X133971628Y-44457713D01*
X132910968Y-43397053D01*
X133299876Y-43008145D01*
X134360536Y-44068805D01*
X134360536Y-44068805D01*
G37*
G36*
X133794851Y-44634490D02*
X133405943Y-45023398D01*
X132345283Y-43962738D01*
X132734191Y-43573830D01*
X133794851Y-44634490D01*
X133794851Y-44634490D01*
G37*
G36*
X133229165Y-45200175D02*
X132840257Y-45589083D01*
X131779597Y-44528423D01*
X132168505Y-44139515D01*
X133229165Y-45200175D01*
X133229165Y-45200175D01*
G37*
G36*
X132663480Y-45765861D02*
X132274572Y-46154769D01*
X131213912Y-45094109D01*
X131602820Y-44705201D01*
X132663480Y-45765861D01*
X132663480Y-45765861D01*
G37*
G36*
X132097794Y-46331546D02*
X131708886Y-46720454D01*
X130648226Y-45659794D01*
X131037134Y-45270886D01*
X132097794Y-46331546D01*
X132097794Y-46331546D01*
G37*
G36*
X131532109Y-46897232D02*
X131143201Y-47286140D01*
X130082541Y-46225480D01*
X130471449Y-45836572D01*
X131532109Y-46897232D01*
X131532109Y-46897232D01*
G37*
G36*
X130966423Y-47462917D02*
X130577515Y-47851825D01*
X129516855Y-46791165D01*
X129905763Y-46402257D01*
X130966423Y-47462917D01*
X130966423Y-47462917D01*
G37*
G36*
X130400738Y-48028603D02*
X130011830Y-48417511D01*
X128951170Y-47356851D01*
X129340078Y-46967943D01*
X130400738Y-48028603D01*
X130400738Y-48028603D01*
G37*
G36*
X129835053Y-48594288D02*
X129446145Y-48983196D01*
X128385485Y-47922536D01*
X128774393Y-47533628D01*
X129835053Y-48594288D01*
X129835053Y-48594288D01*
G37*
G36*
X129269367Y-49159973D02*
X128880459Y-49548881D01*
X127819799Y-48488221D01*
X128208707Y-48099313D01*
X129269367Y-49159973D01*
X129269367Y-49159973D01*
G37*
D11*
X123323519Y-48606419D03*
X123323519Y-47956179D03*
X123323519Y-47305939D03*
X123323519Y-46655699D03*
X123323519Y-46005459D03*
X123323519Y-45360299D03*
X123323519Y-44710059D03*
X123323519Y-44059819D03*
X123323519Y-43409579D03*
X123323519Y-42759339D03*
X117623759Y-42759339D03*
X117623759Y-43409579D03*
X117623759Y-44059819D03*
X117623759Y-44710059D03*
X117623759Y-45360299D03*
X117623759Y-46005459D03*
X117623759Y-46655699D03*
X117623759Y-47305939D03*
X117623759Y-47956179D03*
X117623759Y-48606419D03*
X123379399Y-56963019D03*
X123379399Y-56312779D03*
X123379399Y-55662539D03*
X123379399Y-55012299D03*
X123379399Y-54362059D03*
X123379399Y-53716899D03*
X123379399Y-53066659D03*
X123379399Y-52416419D03*
X123379399Y-51766179D03*
X123379399Y-51115939D03*
X117679639Y-51115939D03*
X117679639Y-51766179D03*
X117679639Y-52416419D03*
X117679639Y-53066659D03*
X117679639Y-53716899D03*
X117679639Y-54362059D03*
X117679639Y-55012299D03*
X117679639Y-55662539D03*
X117679639Y-56312779D03*
X117679639Y-56963019D03*
D17*
X83615275Y-54075929D03*
D18*
X77315275Y-54075929D03*
X77315275Y-56375929D03*
X77315275Y-51775929D03*
D19*
X162813000Y-80010000D03*
X159513000Y-80010000D03*
D12*
X162469391Y-69524299D03*
X159769391Y-69524299D03*
X162469391Y-74604299D03*
X159769391Y-74604299D03*
X162466000Y-85344000D03*
X159766000Y-85344000D03*
D20*
X88826000Y-41580000D03*
X93980000Y-41580000D03*
X93980000Y-44780000D03*
X88826000Y-44780000D03*
D21*
X166370000Y-101600000D03*
D22*
X166370000Y-104140000D03*
X166370000Y-106680000D03*
X166370000Y-109220000D03*
X166370000Y-111760000D03*
X166370000Y-114300000D03*
X166370000Y-116840000D03*
X166370000Y-119380000D03*
X166370000Y-121920000D03*
D21*
X73660000Y-101600000D03*
D22*
X73660000Y-104140000D03*
X73660000Y-106680000D03*
X73660000Y-109220000D03*
X73660000Y-111760000D03*
X73660000Y-114300000D03*
X73660000Y-116840000D03*
X73660000Y-119380000D03*
X73660000Y-121920000D03*
D21*
X156243282Y-47061420D03*
D22*
X156243282Y-49601420D03*
X153703282Y-47061420D03*
X153703282Y-49601420D03*
X151163282Y-47061420D03*
X151163282Y-49601420D03*
D21*
X156210000Y-41910000D03*
D22*
X153670000Y-41910000D03*
X151130000Y-41910000D03*
X148590000Y-41910000D03*
D12*
X126920000Y-41402000D03*
X129620000Y-41402000D03*
D23*
X152400000Y-63500000D03*
X117475000Y-72390000D03*
X95250000Y-135890000D03*
X114300000Y-135890000D03*
X133350000Y-135890000D03*
X152400000Y-135890000D03*
X146685000Y-63500000D03*
X145415000Y-72390000D03*
X91440000Y-135255000D03*
X96520000Y-135255000D03*
X129540000Y-135255000D03*
X134620000Y-135255000D03*
X126365000Y-129540000D03*
X145415000Y-129540000D03*
X145415000Y-91440000D03*
X145415000Y-110490000D03*
X126365000Y-110490000D03*
X126365000Y-91440000D03*
X107315000Y-91440000D03*
X107315000Y-110490000D03*
X107315000Y-129540000D03*
X88265000Y-129540000D03*
X88265000Y-110490000D03*
X88265000Y-91440000D03*
X153162000Y-61341000D03*
X92710000Y-136525000D03*
X95250000Y-137160000D03*
X130810000Y-136525000D03*
X133350000Y-137160000D03*
X88900000Y-52070000D03*
X90170000Y-52070000D03*
X91440000Y-52070000D03*
X92710000Y-52070000D03*
X97790000Y-53340000D03*
X99060000Y-53340000D03*
X100330000Y-53340000D03*
X101600000Y-53340000D03*
X106680000Y-54610000D03*
X107950000Y-54610000D03*
X109220000Y-54610000D03*
X110490000Y-54610000D03*
X111760000Y-57150000D03*
X113030000Y-57150000D03*
X114300000Y-57150000D03*
X115570000Y-57150000D03*
X153162000Y-62357000D03*
X148640800Y-44272200D03*
X153314400Y-44704000D03*
X116205000Y-48260000D03*
X120523000Y-48133000D03*
X77343000Y-64770000D03*
X77343000Y-60960000D03*
X77315275Y-51775929D03*
X93980000Y-44780000D03*
X159513000Y-80010000D03*
X162693519Y-59727179D03*
X162687000Y-54102000D03*
X120523000Y-57531000D03*
X120529519Y-51893179D03*
X120529519Y-43511179D03*
X132504381Y-55188059D03*
X138302657Y-44864299D03*
X139999713Y-53491002D03*
X131938696Y-45429985D03*
X74853800Y-55499000D03*
X91516200Y-42595800D03*
X79375000Y-121539599D03*
X79375000Y-98171000D03*
X169545000Y-56769000D03*
X149987000Y-54610000D03*
X143637000Y-57150000D03*
X166370000Y-52070000D03*
X162693519Y-57227179D03*
X120529519Y-54393179D03*
X120529519Y-46011179D03*
X163830000Y-50673000D03*
X167386000Y-48768000D03*
X163830000Y-49403000D03*
X167386000Y-47371000D03*
X139478001Y-43085001D03*
X130810000Y-49022000D03*
X130810000Y-50038000D03*
X120015000Y-49738001D03*
X131373010Y-45995670D03*
X139964082Y-52324000D03*
X133070067Y-55753744D03*
X137736971Y-44298614D03*
D24*
X152781000Y-60579000D02*
X152400000Y-60960000D01*
X152400000Y-60960000D02*
X152400000Y-63500000D01*
X155956000Y-60579000D02*
X152781000Y-60579000D01*
X158496000Y-63119000D02*
X155956000Y-60579000D01*
X158496000Y-67350908D02*
X158496000Y-63119000D01*
X159769391Y-69524299D02*
X159769391Y-68624299D01*
X159769391Y-68624299D02*
X158496000Y-67350908D01*
X125095000Y-74295000D02*
X123190000Y-72390000D01*
X123190000Y-72390000D02*
X117475000Y-72390000D01*
X132505660Y-74295000D02*
X125095000Y-74295000D01*
X133350000Y-76200000D02*
X133350000Y-75139340D01*
X133350000Y-75139340D02*
X132505660Y-74295000D01*
X95885000Y-136525000D02*
X95250000Y-135890000D01*
X113665000Y-136525000D02*
X95885000Y-136525000D01*
X114300000Y-135890000D02*
X113665000Y-136525000D01*
X133985000Y-136525000D02*
X133350000Y-135890000D01*
X151765000Y-136525000D02*
X133985000Y-136525000D01*
X152400000Y-135890000D02*
X151765000Y-136525000D01*
X147828000Y-59690000D02*
X146685000Y-60833000D01*
X146685000Y-60833000D02*
X146685000Y-63500000D01*
X156042092Y-59690000D02*
X147828000Y-59690000D01*
X159769391Y-64317299D02*
X159769391Y-63417299D01*
X159769391Y-63417299D02*
X156042092Y-59690000D01*
X145529999Y-74409999D02*
X145415000Y-74295000D01*
X145415000Y-74295000D02*
X145415000Y-72390000D01*
X144780000Y-76200000D02*
X145529999Y-75450001D01*
X145529999Y-75450001D02*
X145529999Y-74409999D01*
X125730000Y-76200000D02*
X123190000Y-73660000D01*
X123190000Y-73660000D02*
X109220000Y-73660000D01*
X109220000Y-73660000D02*
X107429999Y-75450001D01*
X107429999Y-75450001D02*
X106680000Y-76200000D01*
X96520000Y-135255000D02*
X91440000Y-135255000D01*
X134620000Y-135255000D02*
X129540000Y-135255000D01*
X126365000Y-129540000D02*
X126365000Y-132715000D01*
X126365000Y-132715000D02*
X125730000Y-133350000D01*
X145415000Y-129540000D02*
X145415000Y-132715000D01*
X145415000Y-132715000D02*
X144780000Y-133350000D01*
X145415000Y-91440000D02*
X145415000Y-94615000D01*
X145415000Y-94615000D02*
X144780000Y-95250000D01*
X145415000Y-110490000D02*
X145415000Y-113665000D01*
X145415000Y-113665000D02*
X144780000Y-114300000D01*
X126365000Y-110490000D02*
X126365000Y-113665000D01*
X126365000Y-113665000D02*
X125730000Y-114300000D01*
X126365000Y-91440000D02*
X126365000Y-94615000D01*
X126365000Y-94615000D02*
X125730000Y-95250000D01*
X107315000Y-91440000D02*
X107315000Y-94615000D01*
X107315000Y-94615000D02*
X106680000Y-95250000D01*
X107315000Y-110490000D02*
X107315000Y-113665000D01*
X107315000Y-113665000D02*
X106680000Y-114300000D01*
X107315000Y-129540000D02*
X107315000Y-132715000D01*
X107315000Y-132715000D02*
X106680000Y-133350000D01*
X88265000Y-129540000D02*
X88265000Y-132676900D01*
X88265000Y-132676900D02*
X87617300Y-133324600D01*
X88265000Y-110490000D02*
X88265000Y-113665000D01*
X88265000Y-113665000D02*
X87630000Y-114300000D01*
X88265000Y-91440000D02*
X88265000Y-94615000D01*
X88265000Y-94615000D02*
X87630000Y-95250000D01*
X87617300Y-133324600D02*
X87617300Y-132689600D01*
X125730000Y-114300000D02*
X125730000Y-113665000D01*
X157861000Y-63500000D02*
X155702000Y-61341000D01*
X155702000Y-61341000D02*
X153162000Y-61341000D01*
X157861000Y-73695908D02*
X157861000Y-63500000D01*
X159769391Y-74604299D02*
X158769391Y-74604299D01*
X158769391Y-74604299D02*
X157861000Y-73695908D01*
X130810000Y-76200000D02*
X129734999Y-77275001D01*
X129734999Y-77275001D02*
X112835001Y-77275001D01*
X112835001Y-77275001D02*
X112509999Y-76949999D01*
X112509999Y-76949999D02*
X111760000Y-76200000D01*
X95250000Y-137160000D02*
X93345000Y-137160000D01*
X93345000Y-137160000D02*
X92710000Y-136525000D01*
X133350000Y-137160000D02*
X131445000Y-137160000D01*
X131445000Y-137160000D02*
X130810000Y-136525000D01*
X117623759Y-42759339D02*
X98210661Y-42759339D01*
X98210661Y-42759339D02*
X88900000Y-52070000D01*
X117623759Y-43409579D02*
X98830421Y-43409579D01*
X98830421Y-43409579D02*
X90170000Y-52070000D01*
X117623759Y-44059819D02*
X99450181Y-44059819D01*
X99450181Y-44059819D02*
X91440000Y-52070000D01*
X117623759Y-44710059D02*
X100069941Y-44710059D01*
X100069941Y-44710059D02*
X92710000Y-52070000D01*
X105769701Y-45360299D02*
X97790000Y-53340000D01*
X117623759Y-45360299D02*
X105769701Y-45360299D01*
X106394541Y-46005459D02*
X99060000Y-53340000D01*
X117623759Y-46005459D02*
X106394541Y-46005459D01*
X107014301Y-46655699D02*
X100330000Y-53340000D01*
X117623759Y-46655699D02*
X107014301Y-46655699D01*
X107634061Y-47305939D02*
X101600000Y-53340000D01*
X117623759Y-47305939D02*
X107634061Y-47305939D01*
X117679639Y-51115939D02*
X110174061Y-51115939D01*
X110174061Y-51115939D02*
X106680000Y-54610000D01*
X117679639Y-51766179D02*
X110793821Y-51766179D01*
X110793821Y-51766179D02*
X107950000Y-54610000D01*
X117679639Y-52416419D02*
X111413581Y-52416419D01*
X111413581Y-52416419D02*
X109220000Y-54610000D01*
X117679639Y-53066659D02*
X112033341Y-53066659D01*
X112033341Y-53066659D02*
X110490000Y-54610000D01*
X115193101Y-53716899D02*
X111760000Y-57150000D01*
X117679639Y-53716899D02*
X115193101Y-53716899D01*
X115817941Y-54362059D02*
X113030000Y-57150000D01*
X117679639Y-54362059D02*
X115817941Y-54362059D01*
X116437701Y-55012299D02*
X114300000Y-57150000D01*
X117679639Y-55012299D02*
X116437701Y-55012299D01*
X115570000Y-56972268D02*
X115570000Y-57150000D01*
X117679639Y-55662539D02*
X116879729Y-55662539D01*
X116879729Y-55662539D02*
X115570000Y-56972268D01*
X157099000Y-63881000D02*
X155575000Y-62357000D01*
X155575000Y-62357000D02*
X153162000Y-62357000D01*
X157099000Y-82777000D02*
X157099000Y-63881000D01*
X159766000Y-85344000D02*
X159666000Y-85344000D01*
X159666000Y-85344000D02*
X157099000Y-82777000D01*
X132080000Y-66040000D02*
X130241523Y-66040000D01*
X130241523Y-66040000D02*
X113030000Y-66040000D01*
X132080000Y-104140000D02*
X132305101Y-104365101D01*
X128544583Y-48824097D02*
X125725945Y-46005459D01*
X125725945Y-46005459D02*
X123323519Y-46005459D01*
X128544583Y-51228261D02*
X128544583Y-49748243D01*
X128544583Y-49748243D02*
X125452039Y-46655699D01*
X125452039Y-46655699D02*
X123323519Y-46655699D01*
X127133519Y-49607179D02*
X124832279Y-47305939D01*
X124832279Y-47305939D02*
X123323519Y-47305939D01*
X127133519Y-51337491D02*
X127133519Y-49607179D01*
X129110269Y-51793946D02*
X128509229Y-52394986D01*
X128509229Y-52394986D02*
X128191014Y-52394986D01*
X128191014Y-52394986D02*
X127133519Y-51337491D01*
X126498519Y-51338901D02*
X126498519Y-50242179D01*
X126498519Y-50242179D02*
X124212519Y-47956179D01*
X124212519Y-47956179D02*
X123323519Y-47956179D01*
X129675954Y-52359631D02*
X129074914Y-52960671D01*
X129074914Y-52960671D02*
X128120289Y-52960671D01*
X128120289Y-52960671D02*
X126498519Y-51338901D01*
X123379399Y-51766179D02*
X126289387Y-51766179D01*
X126289387Y-51766179D02*
X128049565Y-53526357D01*
X128049565Y-53526357D02*
X129640599Y-53526357D01*
X129640599Y-53526357D02*
X130241639Y-52925317D01*
X123379399Y-52416419D02*
X126303217Y-52416419D01*
X126303217Y-52416419D02*
X127978840Y-54092042D01*
X127978840Y-54092042D02*
X130206285Y-54092042D01*
X130206285Y-54092042D02*
X130807325Y-53491002D01*
X123379399Y-53066659D02*
X126317047Y-53066659D01*
X126317047Y-53066659D02*
X127908116Y-54657728D01*
X127908116Y-54657728D02*
X130771970Y-54657728D01*
X130771970Y-54657728D02*
X131373010Y-54056688D01*
X123379399Y-53716899D02*
X126330877Y-53716899D01*
X126330877Y-53716899D02*
X127936157Y-55322179D01*
X127936157Y-55322179D02*
X131238890Y-55322179D01*
X131238890Y-55322179D02*
X131938696Y-54622373D01*
X123379399Y-54362059D02*
X126173399Y-54362059D01*
X126173399Y-54362059D02*
X128731809Y-56920469D01*
X128731809Y-56920469D02*
X133034712Y-56920469D01*
X133034712Y-56920469D02*
X133635752Y-56319429D01*
X123379399Y-55012299D02*
X126187229Y-55012299D01*
X126187229Y-55012299D02*
X128661085Y-57486155D01*
X128661085Y-57486155D02*
X133600397Y-57486155D01*
X133600397Y-57486155D02*
X134201437Y-56885115D01*
X123379399Y-55662539D02*
X126201059Y-55662539D01*
X126201059Y-55662539D02*
X128474685Y-57936165D01*
X128474685Y-57936165D02*
X135554551Y-57936165D01*
X135554551Y-57936165D02*
X136605601Y-56885115D01*
X123379399Y-56312779D02*
X126214889Y-56312779D01*
X126214889Y-56312779D02*
X128288285Y-58386175D01*
X137772326Y-57238684D02*
X137772326Y-56920469D01*
X128288285Y-58386175D02*
X136624835Y-58386175D01*
X136624835Y-58386175D02*
X137772326Y-57238684D01*
X137772326Y-56920469D02*
X137171286Y-56319429D01*
X141696769Y-51793946D02*
X146525482Y-56622659D01*
X146525482Y-56622659D02*
X159843639Y-56622659D01*
X142262455Y-51228261D02*
X147006613Y-55972419D01*
X147006613Y-55972419D02*
X159843639Y-55972419D01*
X142262455Y-48824097D02*
X148760537Y-55322179D01*
X148760537Y-55322179D02*
X159843639Y-55322179D01*
X130807325Y-46561356D02*
X127655548Y-43409579D01*
X127655548Y-43409579D02*
X123323519Y-43409579D01*
X130241639Y-47127041D02*
X127174417Y-44059819D01*
X127174417Y-44059819D02*
X123323519Y-44059819D01*
X129675954Y-47692727D02*
X126693286Y-44710059D01*
X126693286Y-44710059D02*
X123323519Y-44710059D01*
X129110269Y-48258412D02*
X126212156Y-45360299D01*
X126212156Y-45360299D02*
X123323519Y-45360299D01*
X148590000Y-41910000D02*
X148590000Y-44221400D01*
X148590000Y-44221400D02*
X148640800Y-44272200D01*
X151163282Y-49601420D02*
X152338283Y-48426419D01*
X152338283Y-48426419D02*
X152338283Y-45680117D01*
X152338283Y-45680117D02*
X153314400Y-44704000D01*
X117623759Y-47956179D02*
X116508821Y-47956179D01*
X116508821Y-47956179D02*
X116205000Y-48260000D01*
X121306759Y-51115939D02*
X121306759Y-48916759D01*
X121306759Y-48916759D02*
X120523000Y-48133000D01*
X77343000Y-60960000D02*
X77343000Y-64770000D01*
X159843639Y-60519019D02*
X161901679Y-60519019D01*
X161901679Y-60519019D02*
X162693519Y-59727179D01*
X165543399Y-55322179D02*
X166343309Y-55322179D01*
X166343309Y-55322179D02*
X166418310Y-55247178D01*
X166418310Y-55247178D02*
X166418310Y-54212548D01*
X166418310Y-54212548D02*
X166307762Y-54102000D01*
X166307762Y-54102000D02*
X162687000Y-54102000D01*
X117679639Y-56312779D02*
X116879729Y-56312779D01*
X116913318Y-57531000D02*
X120523000Y-57531000D01*
X116879729Y-56312779D02*
X116804728Y-56387780D01*
X116804728Y-56387780D02*
X116804728Y-57422410D01*
X116804728Y-57422410D02*
X116913318Y-57531000D01*
X123379399Y-51115939D02*
X121306759Y-51115939D01*
X121306759Y-51115939D02*
X120529519Y-51893179D01*
X123323519Y-42759339D02*
X121281359Y-42759339D01*
X121281359Y-42759339D02*
X120529519Y-43511179D01*
X126920000Y-41402000D02*
X126920000Y-42302000D01*
X126920000Y-42302000D02*
X126462661Y-42759339D01*
X126462661Y-42759339D02*
X124123429Y-42759339D01*
X124123429Y-42759339D02*
X123323519Y-42759339D01*
X138302657Y-44864299D02*
X138302657Y-45147126D01*
X74853800Y-55499000D02*
X74853800Y-55923264D01*
X74853800Y-55923264D02*
X75306465Y-56375929D01*
X75306465Y-56375929D02*
X76065275Y-56375929D01*
X76065275Y-56375929D02*
X77315275Y-56375929D01*
X88826000Y-41580000D02*
X90500400Y-41580000D01*
X90500400Y-41580000D02*
X91516200Y-42595800D01*
X75779403Y-121539599D02*
X79375000Y-121539599D01*
X79375000Y-121539599D02*
X154813599Y-121539599D01*
X76370000Y-97790000D02*
X78994000Y-97790000D01*
X78994000Y-97790000D02*
X79375000Y-98171000D01*
X74719000Y-99441000D02*
X76370000Y-97790000D01*
X73660000Y-101600000D02*
X73660000Y-100500000D01*
X73660000Y-100500000D02*
X74719000Y-99441000D01*
X120529519Y-54393179D02*
X120529519Y-53393179D01*
X120777000Y-49901003D02*
X120777000Y-49574999D01*
X120529519Y-53393179D02*
X119904518Y-52768178D01*
X119904518Y-52768178D02*
X119904518Y-50773485D01*
X119904518Y-50773485D02*
X120777000Y-49901003D01*
X120777000Y-49574999D02*
X119808420Y-48606419D01*
X119808420Y-48606419D02*
X118423669Y-48606419D01*
X118423669Y-48606419D02*
X117623759Y-48606419D01*
X88826000Y-41580000D02*
X81049404Y-41580000D01*
X73095999Y-123095001D02*
X74224001Y-123095001D01*
X74224001Y-123095001D02*
X75779403Y-121539599D01*
X169545000Y-105664000D02*
X169545000Y-56769000D01*
X81049404Y-41580000D02*
X70993000Y-51636404D01*
X70993000Y-51636404D02*
X70993000Y-120992002D01*
X70993000Y-120992002D02*
X73095999Y-123095001D01*
X166934001Y-123095001D02*
X169545000Y-120484002D01*
X154813599Y-121539599D02*
X156369001Y-123095001D01*
X156369001Y-123095001D02*
X166934001Y-123095001D01*
X169545000Y-120484002D02*
X169545000Y-105664000D01*
X149987000Y-54610000D02*
X159781700Y-54610000D01*
X159781700Y-54610000D02*
X159843639Y-54671939D01*
X123379399Y-56963019D02*
X124179309Y-56963019D01*
X124179309Y-56963019D02*
X126052475Y-58836185D01*
X141950815Y-58836185D02*
X143637000Y-57150000D01*
X126052475Y-58836185D02*
X141950815Y-58836185D01*
X159843639Y-54671939D02*
X161192059Y-54671939D01*
X161192059Y-54671939D02*
X163793998Y-52070000D01*
X163793998Y-52070000D02*
X166370000Y-52070000D01*
X162693519Y-56896000D02*
X162693519Y-57227179D01*
X159843639Y-54671939D02*
X160643549Y-54671939D01*
X160643549Y-54671939D02*
X162693519Y-56721909D01*
X162693519Y-56721909D02*
X162693519Y-56896000D01*
X165543399Y-54671939D02*
X164743489Y-54671939D01*
X164743489Y-54671939D02*
X162693519Y-56721909D01*
X120529519Y-54737000D02*
X120529519Y-54393179D01*
X117679639Y-56963019D02*
X118479549Y-56963019D01*
X118479549Y-56963019D02*
X120529519Y-54913049D01*
X120529519Y-54913049D02*
X120529519Y-54737000D01*
X120529519Y-46612329D02*
X120529519Y-46482000D01*
X120529519Y-46482000D02*
X120529519Y-46011179D01*
X120529519Y-46500569D02*
X120529519Y-46482000D01*
X118423669Y-48606419D02*
X120529519Y-46500569D01*
X123379399Y-56963019D02*
X122579489Y-56963019D01*
X122579489Y-56963019D02*
X120529519Y-54913049D01*
X123323519Y-48606419D02*
X122523609Y-48606419D01*
X122523609Y-48606419D02*
X120529519Y-46612329D01*
X134201437Y-43167243D02*
X137083691Y-40284989D01*
X137083691Y-40284989D02*
X155684989Y-40284989D01*
X155684989Y-40284989D02*
X156210000Y-40810000D01*
X156210000Y-40810000D02*
X156210000Y-41910000D01*
X156210000Y-41910000D02*
X156210000Y-47028138D01*
X156210000Y-47028138D02*
X156243282Y-47061420D01*
X134201437Y-43167243D02*
X134686802Y-43652608D01*
X133635752Y-43732929D02*
X134236792Y-44333969D01*
X134236792Y-44333969D02*
X134641851Y-44333969D01*
X135555807Y-43368493D02*
X138189301Y-40734999D01*
X134641851Y-44333969D02*
X135555807Y-43420013D01*
X135555807Y-43420013D02*
X135555807Y-43368493D01*
X138189301Y-40734999D02*
X152494999Y-40734999D01*
X152494999Y-40734999D02*
X152820001Y-41060001D01*
X152820001Y-41060001D02*
X153670000Y-41910000D01*
X153670000Y-41910000D02*
X151163282Y-44416718D01*
X151163282Y-44416718D02*
X151163282Y-47061420D01*
X163830000Y-50673000D02*
X160655000Y-53848000D01*
X160655000Y-53848000D02*
X148806651Y-53848000D01*
X148806651Y-53848000D02*
X140353281Y-45394630D01*
X140353281Y-45394630D02*
X140035068Y-45394630D01*
X140035068Y-45394630D02*
X139434028Y-45995670D01*
X166370000Y-111760000D02*
X168468347Y-109661653D01*
X168468347Y-109661653D02*
X168468347Y-49850347D01*
X168468347Y-49850347D02*
X167386000Y-48768000D01*
X166370000Y-111760000D02*
X162560000Y-115570000D01*
X77470000Y-115570000D02*
X73660000Y-111760000D01*
X162560000Y-115570000D02*
X77470000Y-115570000D01*
X140539682Y-44944621D02*
X148808061Y-53213000D01*
X148808061Y-53213000D02*
X160020000Y-53213000D01*
X160020000Y-53213000D02*
X163530001Y-49702999D01*
X163530001Y-49702999D02*
X163830000Y-49403000D01*
X138868342Y-45429985D02*
X139353706Y-44944621D01*
X139353706Y-44944621D02*
X140539682Y-44944621D01*
X168918357Y-112953724D02*
X168918357Y-48903357D01*
X168918357Y-48903357D02*
X167386000Y-47371000D01*
X166370000Y-114300000D02*
X167572081Y-114300000D01*
X167572081Y-114300000D02*
X168918357Y-112953724D01*
X73660000Y-114300000D02*
X74862081Y-114300000D01*
X74862081Y-114300000D02*
X76767081Y-116205000D01*
X76767081Y-116205000D02*
X164465000Y-116205000D01*
X164465000Y-116205000D02*
X166370000Y-114300000D01*
X139478001Y-43085001D02*
X137819214Y-43085001D01*
X137819214Y-43085001D02*
X137171286Y-43732929D01*
X136605601Y-43167243D02*
X130810000Y-48962844D01*
X130810000Y-48962844D02*
X130810000Y-49022000D01*
X136605601Y-43167243D02*
X136605601Y-43254103D01*
X136605601Y-43167243D02*
X136623271Y-43184913D01*
X133070067Y-44298614D02*
X132469027Y-43697574D01*
X132469027Y-43697574D02*
X132469027Y-42266025D01*
X132469027Y-42266025D02*
X130630001Y-40426999D01*
X130630001Y-40426999D02*
X97271687Y-40426999D01*
X97271687Y-40426999D02*
X93743687Y-43954999D01*
X93743687Y-43954999D02*
X79310815Y-43954999D01*
X79310815Y-43954999D02*
X71784989Y-51480825D01*
X71784989Y-51480825D02*
X71784989Y-114964989D01*
X71784989Y-114964989D02*
X72810001Y-115990001D01*
X72810001Y-115990001D02*
X73660000Y-116840000D01*
X73660000Y-116840000D02*
X166370000Y-116840000D01*
X133070067Y-55753744D02*
X133671107Y-55152704D01*
X133671107Y-55152704D02*
X133671107Y-52899107D01*
X133671107Y-52899107D02*
X130810000Y-50038000D01*
X120015000Y-49738001D02*
X106127001Y-49738001D01*
X106127001Y-49738001D02*
X99564072Y-56300930D01*
X77565275Y-54075929D02*
X77315275Y-54075929D01*
X99564072Y-56300930D02*
X79790276Y-56300930D01*
X79790276Y-56300930D02*
X77565275Y-54075929D01*
X151130000Y-41910000D02*
X149988281Y-43051719D01*
X149988281Y-43051719D02*
X149988281Y-50165421D01*
X149988281Y-50165421D02*
X150599281Y-50776421D01*
X155068281Y-50776421D02*
X155393283Y-50451419D01*
X150599281Y-50776421D02*
X155068281Y-50776421D01*
X155393283Y-50451419D02*
X156243282Y-49601420D01*
X139964082Y-52324000D02*
X140565399Y-52925317D01*
X139954000Y-52324000D02*
X139964082Y-52324000D01*
X140565399Y-52925317D02*
X140565399Y-52879059D01*
D25*
X166370000Y-109220000D02*
X167893337Y-107696663D01*
X156434002Y-39624000D02*
X97261500Y-39624000D01*
X167893337Y-107696663D02*
X167893337Y-50926337D01*
X167893337Y-50926337D02*
X165227000Y-48260000D01*
X165227000Y-48260000D02*
X163957000Y-48260000D01*
X163957000Y-48260000D02*
X158750000Y-43053000D01*
X158750000Y-43053000D02*
X158750000Y-41939998D01*
X158750000Y-41939998D02*
X156434002Y-39624000D01*
X97261500Y-39624000D02*
X95305500Y-41580000D01*
X95305500Y-41580000D02*
X93980000Y-41580000D01*
X79299000Y-44780000D02*
X72359999Y-51719001D01*
X72359999Y-51719001D02*
X72359999Y-107919999D01*
X72810001Y-108370001D02*
X73660000Y-109220000D01*
X72359999Y-107919999D02*
X72810001Y-108370001D01*
X88826000Y-44780000D02*
X79299000Y-44780000D01*
D26*
X166370000Y-106680000D02*
X165167919Y-106680000D01*
X75946000Y-100925998D02*
X75946000Y-106680000D01*
X75946000Y-106680000D02*
X73660000Y-106680000D01*
X165167919Y-106680000D02*
X164338000Y-105850081D01*
X164338000Y-105850081D02*
X164338000Y-100711000D01*
X77176998Y-99695000D02*
X75946000Y-100925998D01*
X164338000Y-100711000D02*
X163322000Y-99695000D01*
X163322000Y-99695000D02*
X77176998Y-99695000D01*
D24*
X129620000Y-41402000D02*
X129720000Y-41402000D01*
X129720000Y-41402000D02*
X130620000Y-42302000D01*
X130620000Y-42302000D02*
X130620000Y-42979918D01*
X130620000Y-42979918D02*
X131903341Y-44263259D01*
X131903341Y-44263259D02*
X132504381Y-44864299D01*
X162469391Y-64317299D02*
X163469391Y-64317299D01*
X163469391Y-64317299D02*
X166418310Y-61368380D01*
X166418310Y-57347900D02*
X166343309Y-57272899D01*
X166418310Y-61368380D02*
X166418310Y-57347900D01*
X166343309Y-57272899D02*
X165543399Y-57272899D01*
X162469391Y-69524299D02*
X162569391Y-69524299D01*
X162569391Y-69524299D02*
X166868320Y-65225370D01*
X166868318Y-57147668D02*
X166343309Y-56622659D01*
X166868320Y-65225370D02*
X166868318Y-57147668D01*
X166343309Y-56622659D02*
X165543399Y-56622659D01*
X165568639Y-56597419D02*
X165543399Y-56622659D01*
X162469391Y-74604299D02*
X162469391Y-73704299D01*
X162469391Y-73704299D02*
X167318327Y-68855363D01*
X167318327Y-68855363D02*
X167318327Y-56947437D01*
X167318327Y-56947437D02*
X166343309Y-55972419D01*
X166343309Y-55972419D02*
X165543399Y-55972419D01*
X163119391Y-74139299D02*
X163119391Y-75239299D01*
X165543399Y-55972419D02*
X164743489Y-55972419D01*
X164743489Y-55972419D02*
X164668488Y-56047420D01*
X161036000Y-77383000D02*
X161036000Y-63598906D01*
X161036000Y-63598906D02*
X154841094Y-57404000D01*
X154841094Y-57404000D02*
X146175453Y-57404000D01*
X162813000Y-80010000D02*
X162813000Y-79160000D01*
X162813000Y-79160000D02*
X161036000Y-77383000D01*
X162813000Y-80010000D02*
X162813000Y-84997000D01*
X162813000Y-84997000D02*
X162466000Y-85344000D01*
X141131084Y-52359631D02*
X146175453Y-57404000D01*
X73660000Y-121920000D02*
X74835001Y-120744999D01*
X74835001Y-120744999D02*
X165194999Y-120744999D01*
X165194999Y-120744999D02*
X165520001Y-121070001D01*
X165520001Y-121070001D02*
X166370000Y-121920000D01*
D27*
G36*
X95112617Y-40521304D02*
X95057390Y-40483569D01*
X94805500Y-40432560D01*
X93154500Y-40432560D01*
X92919183Y-40476838D01*
X92703059Y-40615910D01*
X92558069Y-40828110D01*
X92507060Y-41080000D01*
X92507060Y-42080000D01*
X92551338Y-42315317D01*
X92690410Y-42531441D01*
X92902610Y-42676431D01*
X93154500Y-42727440D01*
X93896444Y-42727440D01*
X93428885Y-43194999D01*
X79310815Y-43194999D01*
X79019975Y-43252851D01*
X78773414Y-43417598D01*
X71247588Y-50943424D01*
X71082841Y-51189986D01*
X71024989Y-51480825D01*
X71024989Y-114964989D01*
X71082841Y-115255828D01*
X71247588Y-115502390D01*
X72218790Y-116473592D01*
X72145907Y-116840000D01*
X72258946Y-117408285D01*
X72580853Y-117890054D01*
X72910026Y-118110000D01*
X72580853Y-118329946D01*
X72258946Y-118811715D01*
X72145907Y-119380000D01*
X72258946Y-119948285D01*
X72580853Y-120430054D01*
X72910026Y-120650000D01*
X72580853Y-120869946D01*
X72258946Y-121351715D01*
X72145907Y-121920000D01*
X72258946Y-122488285D01*
X72580853Y-122970054D01*
X73062622Y-123291961D01*
X73630907Y-123405000D01*
X73689093Y-123405000D01*
X74257378Y-123291961D01*
X74739147Y-122970054D01*
X75061054Y-122488285D01*
X75174093Y-121920000D01*
X75101210Y-121553592D01*
X75149803Y-121504999D01*
X92916764Y-121504999D01*
X92872642Y-121523230D01*
X92327843Y-122067079D01*
X92032637Y-122778016D01*
X92031965Y-123547807D01*
X92325930Y-124259258D01*
X92869779Y-124804057D01*
X93580716Y-125099263D01*
X94350507Y-125099935D01*
X95061958Y-124805970D01*
X95606757Y-124262121D01*
X95901963Y-123551184D01*
X95902635Y-122781393D01*
X95608670Y-122069942D01*
X95064821Y-121525143D01*
X95016309Y-121504999D01*
X112040937Y-121504999D01*
X111935342Y-121548630D01*
X111390543Y-122092479D01*
X111095337Y-122803416D01*
X111094665Y-123573207D01*
X111388630Y-124284658D01*
X111932479Y-124829457D01*
X112643416Y-125124663D01*
X113413207Y-125125335D01*
X114124658Y-124831370D01*
X114669457Y-124287521D01*
X114964663Y-123576584D01*
X114965335Y-122806793D01*
X114671370Y-122095342D01*
X114127521Y-121550543D01*
X114017839Y-121504999D01*
X131090937Y-121504999D01*
X130985342Y-121548630D01*
X130440543Y-122092479D01*
X130145337Y-122803416D01*
X130144665Y-123573207D01*
X130438630Y-124284658D01*
X130982479Y-124829457D01*
X131693416Y-125124663D01*
X132463207Y-125125335D01*
X133174658Y-124831370D01*
X133719457Y-124287521D01*
X134014663Y-123576584D01*
X134015335Y-122806793D01*
X133721370Y-122095342D01*
X133177521Y-121550543D01*
X133067839Y-121504999D01*
X150140937Y-121504999D01*
X150035342Y-121548630D01*
X149490543Y-122092479D01*
X149195337Y-122803416D01*
X149194665Y-123573207D01*
X149488630Y-124284658D01*
X150032479Y-124829457D01*
X150743416Y-125124663D01*
X151513207Y-125125335D01*
X152224658Y-124831370D01*
X152769457Y-124287521D01*
X153064663Y-123576584D01*
X153065335Y-122806793D01*
X152771370Y-122095342D01*
X152227521Y-121550543D01*
X152117839Y-121504999D01*
X164880197Y-121504999D01*
X164928790Y-121553592D01*
X164855907Y-121920000D01*
X164968946Y-122488285D01*
X165290853Y-122970054D01*
X165772622Y-123291961D01*
X166340907Y-123405000D01*
X166399093Y-123405000D01*
X166967378Y-123291961D01*
X167449147Y-122970054D01*
X167771054Y-122488285D01*
X167884093Y-121920000D01*
X167771054Y-121351715D01*
X167449147Y-120869946D01*
X167119974Y-120650000D01*
X167449147Y-120430054D01*
X167771054Y-119948285D01*
X167884093Y-119380000D01*
X167771054Y-118811715D01*
X167449147Y-118329946D01*
X167119974Y-118110000D01*
X167449147Y-117890054D01*
X167771054Y-117408285D01*
X167884093Y-116840000D01*
X167771054Y-116271715D01*
X167449147Y-115789946D01*
X167119974Y-115570000D01*
X167449147Y-115350054D01*
X167653818Y-115043741D01*
X167862920Y-115002148D01*
X168109482Y-114837401D01*
X169290000Y-113656883D01*
X169290000Y-138090000D01*
X133547660Y-138090000D01*
X133878943Y-137953117D01*
X134142192Y-137690327D01*
X134284838Y-137346799D01*
X134284892Y-137285000D01*
X151765000Y-137285000D01*
X152055839Y-137227148D01*
X152302401Y-137062401D01*
X152539680Y-136825122D01*
X152585167Y-136825162D01*
X152928943Y-136683117D01*
X153192192Y-136420327D01*
X153334838Y-136076799D01*
X153335162Y-135704833D01*
X153193117Y-135361057D01*
X152930327Y-135097808D01*
X152845583Y-135062619D01*
X162864613Y-135062619D01*
X163204155Y-135884372D01*
X163832321Y-136513636D01*
X164653481Y-136854611D01*
X165542619Y-136855387D01*
X166364372Y-136515845D01*
X166993636Y-135887679D01*
X167334611Y-135066519D01*
X167335387Y-134177381D01*
X166995845Y-133355628D01*
X166367679Y-132726364D01*
X165546519Y-132385389D01*
X164657381Y-132384613D01*
X163835628Y-132724155D01*
X163206364Y-133352321D01*
X162865389Y-134173481D01*
X162864613Y-135062619D01*
X152845583Y-135062619D01*
X152586799Y-134955162D01*
X152214833Y-134954838D01*
X151871057Y-135096883D01*
X151607808Y-135359673D01*
X151465162Y-135703201D01*
X151465121Y-135750077D01*
X151450198Y-135765000D01*
X135420633Y-135765000D01*
X135554838Y-135441799D01*
X135555162Y-135069833D01*
X135413117Y-134726057D01*
X135150327Y-134462808D01*
X134806799Y-134320162D01*
X134434833Y-134319838D01*
X134271091Y-134387495D01*
X134523461Y-134135564D01*
X134734759Y-133626702D01*
X134735240Y-133075715D01*
X134524831Y-132566485D01*
X134135564Y-132176539D01*
X133626702Y-131965241D01*
X133075715Y-131964760D01*
X132566485Y-132175169D01*
X132176539Y-132564436D01*
X132080024Y-132796870D01*
X131984831Y-132566485D01*
X131595564Y-132176539D01*
X131086702Y-131965241D01*
X130535715Y-131964760D01*
X130026485Y-132175169D01*
X129636539Y-132564436D01*
X129540024Y-132796870D01*
X129444831Y-132566485D01*
X129055564Y-132176539D01*
X128546702Y-131965241D01*
X127995715Y-131964760D01*
X127486485Y-132175169D01*
X127125000Y-132536025D01*
X127125000Y-130102463D01*
X127157192Y-130070327D01*
X127299838Y-129726799D01*
X127299842Y-129722580D01*
X127313259Y-129755052D01*
X128051064Y-130494146D01*
X129015546Y-130894634D01*
X130059872Y-130895545D01*
X131025052Y-130496741D01*
X131764146Y-129758936D01*
X132164634Y-128794454D01*
X132164835Y-128564016D01*
X133135112Y-128564016D01*
X133360658Y-129109877D01*
X133777926Y-129527874D01*
X134323393Y-129754372D01*
X134914016Y-129754888D01*
X135459877Y-129529342D01*
X135877874Y-129112074D01*
X136104372Y-128566607D01*
X136104374Y-128564016D01*
X142025112Y-128564016D01*
X142250658Y-129109877D01*
X142667926Y-129527874D01*
X143213393Y-129754372D01*
X143804016Y-129754888D01*
X144349877Y-129529342D01*
X144480122Y-129399324D01*
X144479838Y-129725167D01*
X144621883Y-130068943D01*
X144655000Y-130102118D01*
X144655000Y-131964890D01*
X144505715Y-131964760D01*
X143996485Y-132175169D01*
X143606539Y-132564436D01*
X143395241Y-133073298D01*
X143394760Y-133624285D01*
X143605169Y-134133515D01*
X143994436Y-134523461D01*
X144503298Y-134734759D01*
X145054285Y-134735240D01*
X145563515Y-134524831D01*
X145953461Y-134135564D01*
X146049976Y-133903130D01*
X146145169Y-134133515D01*
X146534436Y-134523461D01*
X147043298Y-134734759D01*
X147594285Y-134735240D01*
X148103515Y-134524831D01*
X148493461Y-134135564D01*
X148589976Y-133903130D01*
X148685169Y-134133515D01*
X149074436Y-134523461D01*
X149583298Y-134734759D01*
X150134285Y-134735240D01*
X150643515Y-134524831D01*
X151033461Y-134135564D01*
X151129976Y-133903130D01*
X151225169Y-134133515D01*
X151614436Y-134523461D01*
X152123298Y-134734759D01*
X152674285Y-134735240D01*
X153183515Y-134524831D01*
X153573461Y-134135564D01*
X153784759Y-133626702D01*
X153785240Y-133075715D01*
X153574831Y-132566485D01*
X153185564Y-132176539D01*
X152676702Y-131965241D01*
X152125715Y-131964760D01*
X151616485Y-132175169D01*
X151226539Y-132564436D01*
X151130024Y-132796870D01*
X151034831Y-132566485D01*
X150645564Y-132176539D01*
X150136702Y-131965241D01*
X149585715Y-131964760D01*
X149076485Y-132175169D01*
X148686539Y-132564436D01*
X148590024Y-132796870D01*
X148494831Y-132566485D01*
X148105564Y-132176539D01*
X147596702Y-131965241D01*
X147045715Y-131964760D01*
X146536485Y-132175169D01*
X146175000Y-132536025D01*
X146175000Y-130102463D01*
X146207192Y-130070327D01*
X146349838Y-129726799D01*
X146349842Y-129722580D01*
X146363259Y-129755052D01*
X147101064Y-130494146D01*
X148065546Y-130894634D01*
X149109872Y-130895545D01*
X150075052Y-130496741D01*
X150814146Y-129758936D01*
X151214634Y-128794454D01*
X151214835Y-128564016D01*
X152185112Y-128564016D01*
X152410658Y-129109877D01*
X152827926Y-129527874D01*
X153373393Y-129754372D01*
X153964016Y-129754888D01*
X154509877Y-129529342D01*
X154927874Y-129112074D01*
X155154372Y-128566607D01*
X155154888Y-127975984D01*
X154929342Y-127430123D01*
X154512074Y-127012126D01*
X153966607Y-126785628D01*
X153375984Y-126785112D01*
X152830123Y-127010658D01*
X152412126Y-127427926D01*
X152185628Y-127973393D01*
X152185112Y-128564016D01*
X151214835Y-128564016D01*
X151215545Y-127750128D01*
X150816741Y-126784948D01*
X150078936Y-126045854D01*
X149114454Y-125645366D01*
X148070128Y-125644455D01*
X147104948Y-126043259D01*
X146490354Y-126656781D01*
X146714663Y-126116584D01*
X146715335Y-125346793D01*
X146421370Y-124635342D01*
X145877521Y-124090543D01*
X145166584Y-123795337D01*
X144396793Y-123794665D01*
X143685342Y-124088630D01*
X143140543Y-124632479D01*
X142845337Y-125343416D01*
X142844665Y-126113207D01*
X143135953Y-126818180D01*
X142670123Y-127010658D01*
X142252126Y-127427926D01*
X142025628Y-127973393D01*
X142025112Y-128564016D01*
X136104374Y-128564016D01*
X136104888Y-127975984D01*
X135879342Y-127430123D01*
X135462074Y-127012126D01*
X134916607Y-126785628D01*
X134325984Y-126785112D01*
X133780123Y-127010658D01*
X133362126Y-127427926D01*
X133135628Y-127973393D01*
X133135112Y-128564016D01*
X132164835Y-128564016D01*
X132165545Y-127750128D01*
X131766741Y-126784948D01*
X131028936Y-126045854D01*
X130064454Y-125645366D01*
X129020128Y-125644455D01*
X128054948Y-126043259D01*
X127440354Y-126656781D01*
X127664663Y-126116584D01*
X127665335Y-125346793D01*
X127371370Y-124635342D01*
X126827521Y-124090543D01*
X126116584Y-123795337D01*
X125346793Y-123794665D01*
X124635342Y-124088630D01*
X124090543Y-124632479D01*
X123795337Y-125343416D01*
X123794665Y-126113207D01*
X124085953Y-126818180D01*
X123620123Y-127010658D01*
X123202126Y-127427926D01*
X122975628Y-127973393D01*
X122975112Y-128564016D01*
X123200658Y-129109877D01*
X123617926Y-129527874D01*
X124163393Y-129754372D01*
X124754016Y-129754888D01*
X125299877Y-129529342D01*
X125430122Y-129399324D01*
X125429838Y-129725167D01*
X125571883Y-130068943D01*
X125605000Y-130102118D01*
X125605000Y-131964890D01*
X125455715Y-131964760D01*
X124946485Y-132175169D01*
X124556539Y-132564436D01*
X124345241Y-133073298D01*
X124344760Y-133624285D01*
X124555169Y-134133515D01*
X124944436Y-134523461D01*
X125453298Y-134734759D01*
X126004285Y-134735240D01*
X126513515Y-134524831D01*
X126903461Y-134135564D01*
X126999976Y-133903130D01*
X127095169Y-134133515D01*
X127484436Y-134523461D01*
X127993298Y-134734759D01*
X128544285Y-134735240D01*
X128873481Y-134599219D01*
X128747808Y-134724673D01*
X128605162Y-135068201D01*
X128604838Y-135440167D01*
X128746883Y-135783943D01*
X129009673Y-136047192D01*
X129353201Y-136189838D01*
X129725167Y-136190162D01*
X129980430Y-136084690D01*
X129875162Y-136338201D01*
X129874838Y-136710167D01*
X130016883Y-137053943D01*
X130279673Y-137317192D01*
X130623201Y-137459838D01*
X130670077Y-137459879D01*
X130907599Y-137697401D01*
X131154161Y-137862148D01*
X131445000Y-137920000D01*
X132787537Y-137920000D01*
X132819673Y-137952192D01*
X133151550Y-138090000D01*
X95447660Y-138090000D01*
X95778943Y-137953117D01*
X96042192Y-137690327D01*
X96184838Y-137346799D01*
X96184892Y-137285000D01*
X113665000Y-137285000D01*
X113955839Y-137227148D01*
X114202401Y-137062401D01*
X114439680Y-136825122D01*
X114485167Y-136825162D01*
X114828943Y-136683117D01*
X115092192Y-136420327D01*
X115234838Y-136076799D01*
X115235162Y-135704833D01*
X115093117Y-135361057D01*
X114830327Y-135097808D01*
X114486799Y-134955162D01*
X114114833Y-134954838D01*
X113771057Y-135096883D01*
X113507808Y-135359673D01*
X113365162Y-135703201D01*
X113365121Y-135750077D01*
X113350198Y-135765000D01*
X97320633Y-135765000D01*
X97454838Y-135441799D01*
X97455162Y-135069833D01*
X97313117Y-134726057D01*
X97050327Y-134462808D01*
X96706799Y-134320162D01*
X96334833Y-134319838D01*
X96106008Y-134414386D01*
X96410761Y-134110164D01*
X96622059Y-133601302D01*
X96622540Y-133050315D01*
X96412131Y-132541085D01*
X96022864Y-132151139D01*
X95514002Y-131939841D01*
X94963015Y-131939360D01*
X94453785Y-132149769D01*
X94063839Y-132539036D01*
X93967324Y-132771470D01*
X93872131Y-132541085D01*
X93482864Y-132151139D01*
X92974002Y-131939841D01*
X92423015Y-131939360D01*
X91913785Y-132149769D01*
X91523839Y-132539036D01*
X91427324Y-132771470D01*
X91332131Y-132541085D01*
X90942864Y-132151139D01*
X90434002Y-131939841D01*
X89883015Y-131939360D01*
X89373785Y-132149769D01*
X89025000Y-132497947D01*
X89025000Y-130102463D01*
X89057192Y-130070327D01*
X89199609Y-129727352D01*
X89200559Y-129729652D01*
X89938364Y-130468746D01*
X90902846Y-130869234D01*
X91947172Y-130870145D01*
X92912352Y-130471341D01*
X93651446Y-129733536D01*
X94051934Y-128769054D01*
X94052135Y-128538616D01*
X95022412Y-128538616D01*
X95247958Y-129084477D01*
X95665226Y-129502474D01*
X96210693Y-129728972D01*
X96801316Y-129729488D01*
X97347177Y-129503942D01*
X97765174Y-129086674D01*
X97982200Y-128564016D01*
X103925112Y-128564016D01*
X104150658Y-129109877D01*
X104567926Y-129527874D01*
X105113393Y-129754372D01*
X105704016Y-129754888D01*
X106249877Y-129529342D01*
X106380122Y-129399324D01*
X106379838Y-129725167D01*
X106521883Y-130068943D01*
X106555000Y-130102118D01*
X106555000Y-131964890D01*
X106405715Y-131964760D01*
X105896485Y-132175169D01*
X105506539Y-132564436D01*
X105295241Y-133073298D01*
X105294760Y-133624285D01*
X105505169Y-134133515D01*
X105894436Y-134523461D01*
X106403298Y-134734759D01*
X106954285Y-134735240D01*
X107463515Y-134524831D01*
X107853461Y-134135564D01*
X107949976Y-133903130D01*
X108045169Y-134133515D01*
X108434436Y-134523461D01*
X108943298Y-134734759D01*
X109494285Y-134735240D01*
X110003515Y-134524831D01*
X110393461Y-134135564D01*
X110489976Y-133903130D01*
X110585169Y-134133515D01*
X110974436Y-134523461D01*
X111483298Y-134734759D01*
X112034285Y-134735240D01*
X112543515Y-134524831D01*
X112933461Y-134135564D01*
X113029976Y-133903130D01*
X113125169Y-134133515D01*
X113514436Y-134523461D01*
X114023298Y-134734759D01*
X114574285Y-134735240D01*
X115083515Y-134524831D01*
X115473461Y-134135564D01*
X115684759Y-133626702D01*
X115685240Y-133075715D01*
X115474831Y-132566485D01*
X115085564Y-132176539D01*
X114576702Y-131965241D01*
X114025715Y-131964760D01*
X113516485Y-132175169D01*
X113126539Y-132564436D01*
X113030024Y-132796870D01*
X112934831Y-132566485D01*
X112545564Y-132176539D01*
X112036702Y-131965241D01*
X111485715Y-131964760D01*
X110976485Y-132175169D01*
X110586539Y-132564436D01*
X110490024Y-132796870D01*
X110394831Y-132566485D01*
X110005564Y-132176539D01*
X109496702Y-131965241D01*
X108945715Y-131964760D01*
X108436485Y-132175169D01*
X108075000Y-132536025D01*
X108075000Y-130102463D01*
X108107192Y-130070327D01*
X108249838Y-129726799D01*
X108249842Y-129722580D01*
X108263259Y-129755052D01*
X109001064Y-130494146D01*
X109965546Y-130894634D01*
X111009872Y-130895545D01*
X111975052Y-130496741D01*
X112714146Y-129758936D01*
X113114634Y-128794454D01*
X113114835Y-128564016D01*
X114085112Y-128564016D01*
X114310658Y-129109877D01*
X114727926Y-129527874D01*
X115273393Y-129754372D01*
X115864016Y-129754888D01*
X116409877Y-129529342D01*
X116827874Y-129112074D01*
X117054372Y-128566607D01*
X117054888Y-127975984D01*
X116829342Y-127430123D01*
X116412074Y-127012126D01*
X115866607Y-126785628D01*
X115275984Y-126785112D01*
X114730123Y-127010658D01*
X114312126Y-127427926D01*
X114085628Y-127973393D01*
X114085112Y-128564016D01*
X113114835Y-128564016D01*
X113115545Y-127750128D01*
X112716741Y-126784948D01*
X111978936Y-126045854D01*
X111014454Y-125645366D01*
X109970128Y-125644455D01*
X109004948Y-126043259D01*
X108390354Y-126656781D01*
X108614663Y-126116584D01*
X108615335Y-125346793D01*
X108321370Y-124635342D01*
X107777521Y-124090543D01*
X107066584Y-123795337D01*
X106296793Y-123794665D01*
X105585342Y-124088630D01*
X105040543Y-124632479D01*
X104745337Y-125343416D01*
X104744665Y-126113207D01*
X105035953Y-126818180D01*
X104570123Y-127010658D01*
X104152126Y-127427926D01*
X103925628Y-127973393D01*
X103925112Y-128564016D01*
X97982200Y-128564016D01*
X97991672Y-128541207D01*
X97992188Y-127950584D01*
X97766642Y-127404723D01*
X97349374Y-126986726D01*
X96803907Y-126760228D01*
X96213284Y-126759712D01*
X95667423Y-126985258D01*
X95249426Y-127402526D01*
X95022928Y-127947993D01*
X95022412Y-128538616D01*
X94052135Y-128538616D01*
X94052845Y-127724728D01*
X93654041Y-126759548D01*
X92916236Y-126020454D01*
X91951754Y-125619966D01*
X90907428Y-125619055D01*
X89942248Y-126017859D01*
X89327654Y-126631381D01*
X89551963Y-126091184D01*
X89552635Y-125321393D01*
X89258670Y-124609942D01*
X88714821Y-124065143D01*
X88003884Y-123769937D01*
X87234093Y-123769265D01*
X86522642Y-124063230D01*
X85977843Y-124607079D01*
X85682637Y-125318016D01*
X85681965Y-126087807D01*
X85973253Y-126792780D01*
X85507423Y-126985258D01*
X85089426Y-127402526D01*
X84862928Y-127947993D01*
X84862412Y-128538616D01*
X85087958Y-129084477D01*
X85505226Y-129502474D01*
X86050693Y-129728972D01*
X86641316Y-129729488D01*
X87187177Y-129503942D01*
X87330155Y-129361213D01*
X87329838Y-129725167D01*
X87471883Y-130068943D01*
X87505000Y-130102118D01*
X87505000Y-131939501D01*
X87343015Y-131939360D01*
X86833785Y-132149769D01*
X86443839Y-132539036D01*
X86232541Y-133047898D01*
X86232060Y-133598885D01*
X86442469Y-134108115D01*
X86831736Y-134498061D01*
X87340598Y-134709359D01*
X87891585Y-134709840D01*
X88400815Y-134499431D01*
X88790761Y-134110164D01*
X88887276Y-133877730D01*
X88982469Y-134108115D01*
X89371736Y-134498061D01*
X89880598Y-134709359D01*
X90431585Y-134709840D01*
X90825864Y-134546928D01*
X90647808Y-134724673D01*
X90505162Y-135068201D01*
X90504838Y-135440167D01*
X90646883Y-135783943D01*
X90909673Y-136047192D01*
X91253201Y-136189838D01*
X91625167Y-136190162D01*
X91880430Y-136084690D01*
X91775162Y-136338201D01*
X91774838Y-136710167D01*
X91916883Y-137053943D01*
X92179673Y-137317192D01*
X92523201Y-137459838D01*
X92570077Y-137459879D01*
X92807599Y-137697401D01*
X93054161Y-137862148D01*
X93345000Y-137920000D01*
X94687537Y-137920000D01*
X94719673Y-137952192D01*
X95051550Y-138090000D01*
X70710000Y-138090000D01*
X70710000Y-135062619D01*
X72694613Y-135062619D01*
X73034155Y-135884372D01*
X73662321Y-136513636D01*
X74483481Y-136854611D01*
X75372619Y-136855387D01*
X76194372Y-136515845D01*
X76823636Y-135887679D01*
X77164611Y-135066519D01*
X77165387Y-134177381D01*
X76825845Y-133355628D01*
X76197679Y-132726364D01*
X75376519Y-132385389D01*
X74487381Y-132384613D01*
X73665628Y-132724155D01*
X73036364Y-133352321D01*
X72695389Y-134173481D01*
X72694613Y-135062619D01*
X70710000Y-135062619D01*
X70710000Y-43622619D01*
X72694613Y-43622619D01*
X73034155Y-44444372D01*
X73662321Y-45073636D01*
X74483481Y-45414611D01*
X75372619Y-45415387D01*
X76194372Y-45075845D01*
X76823636Y-44447679D01*
X77164611Y-43626519D01*
X77165387Y-42737381D01*
X76825845Y-41915628D01*
X76776055Y-41865750D01*
X87365500Y-41865750D01*
X87365500Y-42206310D01*
X87462173Y-42439699D01*
X87640802Y-42618327D01*
X87874191Y-42715000D01*
X88540250Y-42715000D01*
X88699000Y-42556250D01*
X88699000Y-41707000D01*
X88953000Y-41707000D01*
X88953000Y-42556250D01*
X89111750Y-42715000D01*
X89777809Y-42715000D01*
X90011198Y-42618327D01*
X90189827Y-42439699D01*
X90286500Y-42206310D01*
X90286500Y-41865750D01*
X90127750Y-41707000D01*
X88953000Y-41707000D01*
X88699000Y-41707000D01*
X87524250Y-41707000D01*
X87365500Y-41865750D01*
X76776055Y-41865750D01*
X76197679Y-41286364D01*
X75396511Y-40953690D01*
X87365500Y-40953690D01*
X87365500Y-41294250D01*
X87524250Y-41453000D01*
X88699000Y-41453000D01*
X88699000Y-40603750D01*
X88953000Y-40603750D01*
X88953000Y-41453000D01*
X90127750Y-41453000D01*
X90286500Y-41294250D01*
X90286500Y-40953690D01*
X90189827Y-40720301D01*
X90011198Y-40541673D01*
X89777809Y-40445000D01*
X89111750Y-40445000D01*
X88953000Y-40603750D01*
X88699000Y-40603750D01*
X88540250Y-40445000D01*
X87874191Y-40445000D01*
X87640802Y-40541673D01*
X87462173Y-40720301D01*
X87365500Y-40953690D01*
X75396511Y-40953690D01*
X75376519Y-40945389D01*
X74487381Y-40944613D01*
X73665628Y-41284155D01*
X73036364Y-41912321D01*
X72695389Y-42733481D01*
X72694613Y-43622619D01*
X70710000Y-43622619D01*
X70710000Y-39510000D01*
X96123921Y-39510000D01*
X95112617Y-40521304D01*
X95112617Y-40521304D01*
G37*
X95112617Y-40521304D02*
X95057390Y-40483569D01*
X94805500Y-40432560D01*
X93154500Y-40432560D01*
X92919183Y-40476838D01*
X92703059Y-40615910D01*
X92558069Y-40828110D01*
X92507060Y-41080000D01*
X92507060Y-42080000D01*
X92551338Y-42315317D01*
X92690410Y-42531441D01*
X92902610Y-42676431D01*
X93154500Y-42727440D01*
X93896444Y-42727440D01*
X93428885Y-43194999D01*
X79310815Y-43194999D01*
X79019975Y-43252851D01*
X78773414Y-43417598D01*
X71247588Y-50943424D01*
X71082841Y-51189986D01*
X71024989Y-51480825D01*
X71024989Y-114964989D01*
X71082841Y-115255828D01*
X71247588Y-115502390D01*
X72218790Y-116473592D01*
X72145907Y-116840000D01*
X72258946Y-117408285D01*
X72580853Y-117890054D01*
X72910026Y-118110000D01*
X72580853Y-118329946D01*
X72258946Y-118811715D01*
X72145907Y-119380000D01*
X72258946Y-119948285D01*
X72580853Y-120430054D01*
X72910026Y-120650000D01*
X72580853Y-120869946D01*
X72258946Y-121351715D01*
X72145907Y-121920000D01*
X72258946Y-122488285D01*
X72580853Y-122970054D01*
X73062622Y-123291961D01*
X73630907Y-123405000D01*
X73689093Y-123405000D01*
X74257378Y-123291961D01*
X74739147Y-122970054D01*
X75061054Y-122488285D01*
X75174093Y-121920000D01*
X75101210Y-121553592D01*
X75149803Y-121504999D01*
X92916764Y-121504999D01*
X92872642Y-121523230D01*
X92327843Y-122067079D01*
X92032637Y-122778016D01*
X92031965Y-123547807D01*
X92325930Y-124259258D01*
X92869779Y-124804057D01*
X93580716Y-125099263D01*
X94350507Y-125099935D01*
X95061958Y-124805970D01*
X95606757Y-124262121D01*
X95901963Y-123551184D01*
X95902635Y-122781393D01*
X95608670Y-122069942D01*
X95064821Y-121525143D01*
X95016309Y-121504999D01*
X112040937Y-121504999D01*
X111935342Y-121548630D01*
X111390543Y-122092479D01*
X111095337Y-122803416D01*
X111094665Y-123573207D01*
X111388630Y-124284658D01*
X111932479Y-124829457D01*
X112643416Y-125124663D01*
X113413207Y-125125335D01*
X114124658Y-124831370D01*
X114669457Y-124287521D01*
X114964663Y-123576584D01*
X114965335Y-122806793D01*
X114671370Y-122095342D01*
X114127521Y-121550543D01*
X114017839Y-121504999D01*
X131090937Y-121504999D01*
X130985342Y-121548630D01*
X130440543Y-122092479D01*
X130145337Y-122803416D01*
X130144665Y-123573207D01*
X130438630Y-124284658D01*
X130982479Y-124829457D01*
X131693416Y-125124663D01*
X132463207Y-125125335D01*
X133174658Y-124831370D01*
X133719457Y-124287521D01*
X134014663Y-123576584D01*
X134015335Y-122806793D01*
X133721370Y-122095342D01*
X133177521Y-121550543D01*
X133067839Y-121504999D01*
X150140937Y-121504999D01*
X150035342Y-121548630D01*
X149490543Y-122092479D01*
X149195337Y-122803416D01*
X149194665Y-123573207D01*
X149488630Y-124284658D01*
X150032479Y-124829457D01*
X150743416Y-125124663D01*
X151513207Y-125125335D01*
X152224658Y-124831370D01*
X152769457Y-124287521D01*
X153064663Y-123576584D01*
X153065335Y-122806793D01*
X152771370Y-122095342D01*
X152227521Y-121550543D01*
X152117839Y-121504999D01*
X164880197Y-121504999D01*
X164928790Y-121553592D01*
X164855907Y-121920000D01*
X164968946Y-122488285D01*
X165290853Y-122970054D01*
X165772622Y-123291961D01*
X166340907Y-123405000D01*
X166399093Y-123405000D01*
X166967378Y-123291961D01*
X167449147Y-122970054D01*
X167771054Y-122488285D01*
X167884093Y-121920000D01*
X167771054Y-121351715D01*
X167449147Y-120869946D01*
X167119974Y-120650000D01*
X167449147Y-120430054D01*
X167771054Y-119948285D01*
X167884093Y-119380000D01*
X167771054Y-118811715D01*
X167449147Y-118329946D01*
X167119974Y-118110000D01*
X167449147Y-117890054D01*
X167771054Y-117408285D01*
X167884093Y-116840000D01*
X167771054Y-116271715D01*
X167449147Y-115789946D01*
X167119974Y-115570000D01*
X167449147Y-115350054D01*
X167653818Y-115043741D01*
X167862920Y-115002148D01*
X168109482Y-114837401D01*
X169290000Y-113656883D01*
X169290000Y-138090000D01*
X133547660Y-138090000D01*
X133878943Y-137953117D01*
X134142192Y-137690327D01*
X134284838Y-137346799D01*
X134284892Y-137285000D01*
X151765000Y-137285000D01*
X152055839Y-137227148D01*
X152302401Y-137062401D01*
X152539680Y-136825122D01*
X152585167Y-136825162D01*
X152928943Y-136683117D01*
X153192192Y-136420327D01*
X153334838Y-136076799D01*
X153335162Y-135704833D01*
X153193117Y-135361057D01*
X152930327Y-135097808D01*
X152845583Y-135062619D01*
X162864613Y-135062619D01*
X163204155Y-135884372D01*
X163832321Y-136513636D01*
X164653481Y-136854611D01*
X165542619Y-136855387D01*
X166364372Y-136515845D01*
X166993636Y-135887679D01*
X167334611Y-135066519D01*
X167335387Y-134177381D01*
X166995845Y-133355628D01*
X166367679Y-132726364D01*
X165546519Y-132385389D01*
X164657381Y-132384613D01*
X163835628Y-132724155D01*
X163206364Y-133352321D01*
X162865389Y-134173481D01*
X162864613Y-135062619D01*
X152845583Y-135062619D01*
X152586799Y-134955162D01*
X152214833Y-134954838D01*
X151871057Y-135096883D01*
X151607808Y-135359673D01*
X151465162Y-135703201D01*
X151465121Y-135750077D01*
X151450198Y-135765000D01*
X135420633Y-135765000D01*
X135554838Y-135441799D01*
X135555162Y-135069833D01*
X135413117Y-134726057D01*
X135150327Y-134462808D01*
X134806799Y-134320162D01*
X134434833Y-134319838D01*
X134271091Y-134387495D01*
X134523461Y-134135564D01*
X134734759Y-133626702D01*
X134735240Y-133075715D01*
X134524831Y-132566485D01*
X134135564Y-132176539D01*
X133626702Y-131965241D01*
X133075715Y-131964760D01*
X132566485Y-132175169D01*
X132176539Y-132564436D01*
X132080024Y-132796870D01*
X131984831Y-132566485D01*
X131595564Y-132176539D01*
X131086702Y-131965241D01*
X130535715Y-131964760D01*
X130026485Y-132175169D01*
X129636539Y-132564436D01*
X129540024Y-132796870D01*
X129444831Y-132566485D01*
X129055564Y-132176539D01*
X128546702Y-131965241D01*
X127995715Y-131964760D01*
X127486485Y-132175169D01*
X127125000Y-132536025D01*
X127125000Y-130102463D01*
X127157192Y-130070327D01*
X127299838Y-129726799D01*
X127299842Y-129722580D01*
X127313259Y-129755052D01*
X128051064Y-130494146D01*
X129015546Y-130894634D01*
X130059872Y-130895545D01*
X131025052Y-130496741D01*
X131764146Y-129758936D01*
X132164634Y-128794454D01*
X132164835Y-128564016D01*
X133135112Y-128564016D01*
X133360658Y-129109877D01*
X133777926Y-129527874D01*
X134323393Y-129754372D01*
X134914016Y-129754888D01*
X135459877Y-129529342D01*
X135877874Y-129112074D01*
X136104372Y-128566607D01*
X136104374Y-128564016D01*
X142025112Y-128564016D01*
X142250658Y-129109877D01*
X142667926Y-129527874D01*
X143213393Y-129754372D01*
X143804016Y-129754888D01*
X144349877Y-129529342D01*
X144480122Y-129399324D01*
X144479838Y-129725167D01*
X144621883Y-130068943D01*
X144655000Y-130102118D01*
X144655000Y-131964890D01*
X144505715Y-131964760D01*
X143996485Y-132175169D01*
X143606539Y-132564436D01*
X143395241Y-133073298D01*
X143394760Y-133624285D01*
X143605169Y-134133515D01*
X143994436Y-134523461D01*
X144503298Y-134734759D01*
X145054285Y-134735240D01*
X145563515Y-134524831D01*
X145953461Y-134135564D01*
X146049976Y-133903130D01*
X146145169Y-134133515D01*
X146534436Y-134523461D01*
X147043298Y-134734759D01*
X147594285Y-134735240D01*
X148103515Y-134524831D01*
X148493461Y-134135564D01*
X148589976Y-133903130D01*
X148685169Y-134133515D01*
X149074436Y-134523461D01*
X149583298Y-134734759D01*
X150134285Y-134735240D01*
X150643515Y-134524831D01*
X151033461Y-134135564D01*
X151129976Y-133903130D01*
X151225169Y-134133515D01*
X151614436Y-134523461D01*
X152123298Y-134734759D01*
X152674285Y-134735240D01*
X153183515Y-134524831D01*
X153573461Y-134135564D01*
X153784759Y-133626702D01*
X153785240Y-133075715D01*
X153574831Y-132566485D01*
X153185564Y-132176539D01*
X152676702Y-131965241D01*
X152125715Y-131964760D01*
X151616485Y-132175169D01*
X151226539Y-132564436D01*
X151130024Y-132796870D01*
X151034831Y-132566485D01*
X150645564Y-132176539D01*
X150136702Y-131965241D01*
X149585715Y-131964760D01*
X149076485Y-132175169D01*
X148686539Y-132564436D01*
X148590024Y-132796870D01*
X148494831Y-132566485D01*
X148105564Y-132176539D01*
X147596702Y-131965241D01*
X147045715Y-131964760D01*
X146536485Y-132175169D01*
X146175000Y-132536025D01*
X146175000Y-130102463D01*
X146207192Y-130070327D01*
X146349838Y-129726799D01*
X146349842Y-129722580D01*
X146363259Y-129755052D01*
X147101064Y-130494146D01*
X148065546Y-130894634D01*
X149109872Y-130895545D01*
X150075052Y-130496741D01*
X150814146Y-129758936D01*
X151214634Y-128794454D01*
X151214835Y-128564016D01*
X152185112Y-128564016D01*
X152410658Y-129109877D01*
X152827926Y-129527874D01*
X153373393Y-129754372D01*
X153964016Y-129754888D01*
X154509877Y-129529342D01*
X154927874Y-129112074D01*
X155154372Y-128566607D01*
X155154888Y-127975984D01*
X154929342Y-127430123D01*
X154512074Y-127012126D01*
X153966607Y-126785628D01*
X153375984Y-126785112D01*
X152830123Y-127010658D01*
X152412126Y-127427926D01*
X152185628Y-127973393D01*
X152185112Y-128564016D01*
X151214835Y-128564016D01*
X151215545Y-127750128D01*
X150816741Y-126784948D01*
X150078936Y-126045854D01*
X149114454Y-125645366D01*
X148070128Y-125644455D01*
X147104948Y-126043259D01*
X146490354Y-126656781D01*
X146714663Y-126116584D01*
X146715335Y-125346793D01*
X146421370Y-124635342D01*
X145877521Y-124090543D01*
X145166584Y-123795337D01*
X144396793Y-123794665D01*
X143685342Y-124088630D01*
X143140543Y-124632479D01*
X142845337Y-125343416D01*
X142844665Y-126113207D01*
X143135953Y-126818180D01*
X142670123Y-127010658D01*
X142252126Y-127427926D01*
X142025628Y-127973393D01*
X142025112Y-128564016D01*
X136104374Y-128564016D01*
X136104888Y-127975984D01*
X135879342Y-127430123D01*
X135462074Y-127012126D01*
X134916607Y-126785628D01*
X134325984Y-126785112D01*
X133780123Y-127010658D01*
X133362126Y-127427926D01*
X133135628Y-127973393D01*
X133135112Y-128564016D01*
X132164835Y-128564016D01*
X132165545Y-127750128D01*
X131766741Y-126784948D01*
X131028936Y-126045854D01*
X130064454Y-125645366D01*
X129020128Y-125644455D01*
X128054948Y-126043259D01*
X127440354Y-126656781D01*
X127664663Y-126116584D01*
X127665335Y-125346793D01*
X127371370Y-124635342D01*
X126827521Y-124090543D01*
X126116584Y-123795337D01*
X125346793Y-123794665D01*
X124635342Y-124088630D01*
X124090543Y-124632479D01*
X123795337Y-125343416D01*
X123794665Y-126113207D01*
X124085953Y-126818180D01*
X123620123Y-127010658D01*
X123202126Y-127427926D01*
X122975628Y-127973393D01*
X122975112Y-128564016D01*
X123200658Y-129109877D01*
X123617926Y-129527874D01*
X124163393Y-129754372D01*
X124754016Y-129754888D01*
X125299877Y-129529342D01*
X125430122Y-129399324D01*
X125429838Y-129725167D01*
X125571883Y-130068943D01*
X125605000Y-130102118D01*
X125605000Y-131964890D01*
X125455715Y-131964760D01*
X124946485Y-132175169D01*
X124556539Y-132564436D01*
X124345241Y-133073298D01*
X124344760Y-133624285D01*
X124555169Y-134133515D01*
X124944436Y-134523461D01*
X125453298Y-134734759D01*
X126004285Y-134735240D01*
X126513515Y-134524831D01*
X126903461Y-134135564D01*
X126999976Y-133903130D01*
X127095169Y-134133515D01*
X127484436Y-134523461D01*
X127993298Y-134734759D01*
X128544285Y-134735240D01*
X128873481Y-134599219D01*
X128747808Y-134724673D01*
X128605162Y-135068201D01*
X128604838Y-135440167D01*
X128746883Y-135783943D01*
X129009673Y-136047192D01*
X129353201Y-136189838D01*
X129725167Y-136190162D01*
X129980430Y-136084690D01*
X129875162Y-136338201D01*
X129874838Y-136710167D01*
X130016883Y-137053943D01*
X130279673Y-137317192D01*
X130623201Y-137459838D01*
X130670077Y-137459879D01*
X130907599Y-137697401D01*
X131154161Y-137862148D01*
X131445000Y-137920000D01*
X132787537Y-137920000D01*
X132819673Y-137952192D01*
X133151550Y-138090000D01*
X95447660Y-138090000D01*
X95778943Y-137953117D01*
X96042192Y-137690327D01*
X96184838Y-137346799D01*
X96184892Y-137285000D01*
X113665000Y-137285000D01*
X113955839Y-137227148D01*
X114202401Y-137062401D01*
X114439680Y-136825122D01*
X114485167Y-136825162D01*
X114828943Y-136683117D01*
X115092192Y-136420327D01*
X115234838Y-136076799D01*
X115235162Y-135704833D01*
X115093117Y-135361057D01*
X114830327Y-135097808D01*
X114486799Y-134955162D01*
X114114833Y-134954838D01*
X113771057Y-135096883D01*
X113507808Y-135359673D01*
X113365162Y-135703201D01*
X113365121Y-135750077D01*
X113350198Y-135765000D01*
X97320633Y-135765000D01*
X97454838Y-135441799D01*
X97455162Y-135069833D01*
X97313117Y-134726057D01*
X97050327Y-134462808D01*
X96706799Y-134320162D01*
X96334833Y-134319838D01*
X96106008Y-134414386D01*
X96410761Y-134110164D01*
X96622059Y-133601302D01*
X96622540Y-133050315D01*
X96412131Y-132541085D01*
X96022864Y-132151139D01*
X95514002Y-131939841D01*
X94963015Y-131939360D01*
X94453785Y-132149769D01*
X94063839Y-132539036D01*
X93967324Y-132771470D01*
X93872131Y-132541085D01*
X93482864Y-132151139D01*
X92974002Y-131939841D01*
X92423015Y-131939360D01*
X91913785Y-132149769D01*
X91523839Y-132539036D01*
X91427324Y-132771470D01*
X91332131Y-132541085D01*
X90942864Y-132151139D01*
X90434002Y-131939841D01*
X89883015Y-131939360D01*
X89373785Y-132149769D01*
X89025000Y-132497947D01*
X89025000Y-130102463D01*
X89057192Y-130070327D01*
X89199609Y-129727352D01*
X89200559Y-129729652D01*
X89938364Y-130468746D01*
X90902846Y-130869234D01*
X91947172Y-130870145D01*
X92912352Y-130471341D01*
X93651446Y-129733536D01*
X94051934Y-128769054D01*
X94052135Y-128538616D01*
X95022412Y-128538616D01*
X95247958Y-129084477D01*
X95665226Y-129502474D01*
X96210693Y-129728972D01*
X96801316Y-129729488D01*
X97347177Y-129503942D01*
X97765174Y-129086674D01*
X97982200Y-128564016D01*
X103925112Y-128564016D01*
X104150658Y-129109877D01*
X104567926Y-129527874D01*
X105113393Y-129754372D01*
X105704016Y-129754888D01*
X106249877Y-129529342D01*
X106380122Y-129399324D01*
X106379838Y-129725167D01*
X106521883Y-130068943D01*
X106555000Y-130102118D01*
X106555000Y-131964890D01*
X106405715Y-131964760D01*
X105896485Y-132175169D01*
X105506539Y-132564436D01*
X105295241Y-133073298D01*
X105294760Y-133624285D01*
X105505169Y-134133515D01*
X105894436Y-134523461D01*
X106403298Y-134734759D01*
X106954285Y-134735240D01*
X107463515Y-134524831D01*
X107853461Y-134135564D01*
X107949976Y-133903130D01*
X108045169Y-134133515D01*
X108434436Y-134523461D01*
X108943298Y-134734759D01*
X109494285Y-134735240D01*
X110003515Y-134524831D01*
X110393461Y-134135564D01*
X110489976Y-133903130D01*
X110585169Y-134133515D01*
X110974436Y-134523461D01*
X111483298Y-134734759D01*
X112034285Y-134735240D01*
X112543515Y-134524831D01*
X112933461Y-134135564D01*
X113029976Y-133903130D01*
X113125169Y-134133515D01*
X113514436Y-134523461D01*
X114023298Y-134734759D01*
X114574285Y-134735240D01*
X115083515Y-134524831D01*
X115473461Y-134135564D01*
X115684759Y-133626702D01*
X115685240Y-133075715D01*
X115474831Y-132566485D01*
X115085564Y-132176539D01*
X114576702Y-131965241D01*
X114025715Y-131964760D01*
X113516485Y-132175169D01*
X113126539Y-132564436D01*
X113030024Y-132796870D01*
X112934831Y-132566485D01*
X112545564Y-132176539D01*
X112036702Y-131965241D01*
X111485715Y-131964760D01*
X110976485Y-132175169D01*
X110586539Y-132564436D01*
X110490024Y-132796870D01*
X110394831Y-132566485D01*
X110005564Y-132176539D01*
X109496702Y-131965241D01*
X108945715Y-131964760D01*
X108436485Y-132175169D01*
X108075000Y-132536025D01*
X108075000Y-130102463D01*
X108107192Y-130070327D01*
X108249838Y-129726799D01*
X108249842Y-129722580D01*
X108263259Y-129755052D01*
X109001064Y-130494146D01*
X109965546Y-130894634D01*
X111009872Y-130895545D01*
X111975052Y-130496741D01*
X112714146Y-129758936D01*
X113114634Y-128794454D01*
X113114835Y-128564016D01*
X114085112Y-128564016D01*
X114310658Y-129109877D01*
X114727926Y-129527874D01*
X115273393Y-129754372D01*
X115864016Y-129754888D01*
X116409877Y-129529342D01*
X116827874Y-129112074D01*
X117054372Y-128566607D01*
X117054888Y-127975984D01*
X116829342Y-127430123D01*
X116412074Y-127012126D01*
X115866607Y-126785628D01*
X115275984Y-126785112D01*
X114730123Y-127010658D01*
X114312126Y-127427926D01*
X114085628Y-127973393D01*
X114085112Y-128564016D01*
X113114835Y-128564016D01*
X113115545Y-127750128D01*
X112716741Y-126784948D01*
X111978936Y-126045854D01*
X111014454Y-125645366D01*
X109970128Y-125644455D01*
X109004948Y-126043259D01*
X108390354Y-126656781D01*
X108614663Y-126116584D01*
X108615335Y-125346793D01*
X108321370Y-124635342D01*
X107777521Y-124090543D01*
X107066584Y-123795337D01*
X106296793Y-123794665D01*
X105585342Y-124088630D01*
X105040543Y-124632479D01*
X104745337Y-125343416D01*
X104744665Y-126113207D01*
X105035953Y-126818180D01*
X104570123Y-127010658D01*
X104152126Y-127427926D01*
X103925628Y-127973393D01*
X103925112Y-128564016D01*
X97982200Y-128564016D01*
X97991672Y-128541207D01*
X97992188Y-127950584D01*
X97766642Y-127404723D01*
X97349374Y-126986726D01*
X96803907Y-126760228D01*
X96213284Y-126759712D01*
X95667423Y-126985258D01*
X95249426Y-127402526D01*
X95022928Y-127947993D01*
X95022412Y-128538616D01*
X94052135Y-128538616D01*
X94052845Y-127724728D01*
X93654041Y-126759548D01*
X92916236Y-126020454D01*
X91951754Y-125619966D01*
X90907428Y-125619055D01*
X89942248Y-126017859D01*
X89327654Y-126631381D01*
X89551963Y-126091184D01*
X89552635Y-125321393D01*
X89258670Y-124609942D01*
X88714821Y-124065143D01*
X88003884Y-123769937D01*
X87234093Y-123769265D01*
X86522642Y-124063230D01*
X85977843Y-124607079D01*
X85682637Y-125318016D01*
X85681965Y-126087807D01*
X85973253Y-126792780D01*
X85507423Y-126985258D01*
X85089426Y-127402526D01*
X84862928Y-127947993D01*
X84862412Y-128538616D01*
X85087958Y-129084477D01*
X85505226Y-129502474D01*
X86050693Y-129728972D01*
X86641316Y-129729488D01*
X87187177Y-129503942D01*
X87330155Y-129361213D01*
X87329838Y-129725167D01*
X87471883Y-130068943D01*
X87505000Y-130102118D01*
X87505000Y-131939501D01*
X87343015Y-131939360D01*
X86833785Y-132149769D01*
X86443839Y-132539036D01*
X86232541Y-133047898D01*
X86232060Y-133598885D01*
X86442469Y-134108115D01*
X86831736Y-134498061D01*
X87340598Y-134709359D01*
X87891585Y-134709840D01*
X88400815Y-134499431D01*
X88790761Y-134110164D01*
X88887276Y-133877730D01*
X88982469Y-134108115D01*
X89371736Y-134498061D01*
X89880598Y-134709359D01*
X90431585Y-134709840D01*
X90825864Y-134546928D01*
X90647808Y-134724673D01*
X90505162Y-135068201D01*
X90504838Y-135440167D01*
X90646883Y-135783943D01*
X90909673Y-136047192D01*
X91253201Y-136189838D01*
X91625167Y-136190162D01*
X91880430Y-136084690D01*
X91775162Y-136338201D01*
X91774838Y-136710167D01*
X91916883Y-137053943D01*
X92179673Y-137317192D01*
X92523201Y-137459838D01*
X92570077Y-137459879D01*
X92807599Y-137697401D01*
X93054161Y-137862148D01*
X93345000Y-137920000D01*
X94687537Y-137920000D01*
X94719673Y-137952192D01*
X95051550Y-138090000D01*
X70710000Y-138090000D01*
X70710000Y-135062619D01*
X72694613Y-135062619D01*
X73034155Y-135884372D01*
X73662321Y-136513636D01*
X74483481Y-136854611D01*
X75372619Y-136855387D01*
X76194372Y-136515845D01*
X76823636Y-135887679D01*
X77164611Y-135066519D01*
X77165387Y-134177381D01*
X76825845Y-133355628D01*
X76197679Y-132726364D01*
X75376519Y-132385389D01*
X74487381Y-132384613D01*
X73665628Y-132724155D01*
X73036364Y-133352321D01*
X72695389Y-134173481D01*
X72694613Y-135062619D01*
X70710000Y-135062619D01*
X70710000Y-43622619D01*
X72694613Y-43622619D01*
X73034155Y-44444372D01*
X73662321Y-45073636D01*
X74483481Y-45414611D01*
X75372619Y-45415387D01*
X76194372Y-45075845D01*
X76823636Y-44447679D01*
X77164611Y-43626519D01*
X77165387Y-42737381D01*
X76825845Y-41915628D01*
X76776055Y-41865750D01*
X87365500Y-41865750D01*
X87365500Y-42206310D01*
X87462173Y-42439699D01*
X87640802Y-42618327D01*
X87874191Y-42715000D01*
X88540250Y-42715000D01*
X88699000Y-42556250D01*
X88699000Y-41707000D01*
X88953000Y-41707000D01*
X88953000Y-42556250D01*
X89111750Y-42715000D01*
X89777809Y-42715000D01*
X90011198Y-42618327D01*
X90189827Y-42439699D01*
X90286500Y-42206310D01*
X90286500Y-41865750D01*
X90127750Y-41707000D01*
X88953000Y-41707000D01*
X88699000Y-41707000D01*
X87524250Y-41707000D01*
X87365500Y-41865750D01*
X76776055Y-41865750D01*
X76197679Y-41286364D01*
X75396511Y-40953690D01*
X87365500Y-40953690D01*
X87365500Y-41294250D01*
X87524250Y-41453000D01*
X88699000Y-41453000D01*
X88699000Y-40603750D01*
X88953000Y-40603750D01*
X88953000Y-41453000D01*
X90127750Y-41453000D01*
X90286500Y-41294250D01*
X90286500Y-40953690D01*
X90189827Y-40720301D01*
X90011198Y-40541673D01*
X89777809Y-40445000D01*
X89111750Y-40445000D01*
X88953000Y-40603750D01*
X88699000Y-40603750D01*
X88540250Y-40445000D01*
X87874191Y-40445000D01*
X87640802Y-40541673D01*
X87462173Y-40720301D01*
X87365500Y-40953690D01*
X75396511Y-40953690D01*
X75376519Y-40945389D01*
X74487381Y-40944613D01*
X73665628Y-41284155D01*
X73036364Y-41912321D01*
X72695389Y-42733481D01*
X72694613Y-43622619D01*
X70710000Y-43622619D01*
X70710000Y-39510000D01*
X96123921Y-39510000D01*
X95112617Y-40521304D01*
G36*
X92507060Y-45280000D02*
X92551338Y-45515317D01*
X92690410Y-45731441D01*
X92902610Y-45876431D01*
X93154500Y-45927440D01*
X93967758Y-45927440D01*
X88760320Y-51134878D01*
X88714833Y-51134838D01*
X88371057Y-51276883D01*
X88107808Y-51539673D01*
X87965162Y-51883201D01*
X87964838Y-52255167D01*
X88106883Y-52598943D01*
X88369673Y-52862192D01*
X88713201Y-53004838D01*
X89085167Y-53005162D01*
X89428943Y-52863117D01*
X89534954Y-52757290D01*
X89639673Y-52862192D01*
X89983201Y-53004838D01*
X90355167Y-53005162D01*
X90698943Y-52863117D01*
X90804954Y-52757290D01*
X90909673Y-52862192D01*
X91253201Y-53004838D01*
X91625167Y-53005162D01*
X91968943Y-52863117D01*
X92074954Y-52757290D01*
X92179673Y-52862192D01*
X92523201Y-53004838D01*
X92895167Y-53005162D01*
X93238943Y-52863117D01*
X93502192Y-52600327D01*
X93644838Y-52256799D01*
X93644879Y-52209923D01*
X100384743Y-45470059D01*
X104585139Y-45470059D01*
X97650320Y-52404878D01*
X97604833Y-52404838D01*
X97261057Y-52546883D01*
X96997808Y-52809673D01*
X96855162Y-53153201D01*
X96854838Y-53525167D01*
X96996883Y-53868943D01*
X97259673Y-54132192D01*
X97603201Y-54274838D01*
X97975167Y-54275162D01*
X98318943Y-54133117D01*
X98424954Y-54027290D01*
X98529673Y-54132192D01*
X98873201Y-54274838D01*
X99245167Y-54275162D01*
X99588943Y-54133117D01*
X99694954Y-54027290D01*
X99799673Y-54132192D01*
X100143201Y-54274838D01*
X100515038Y-54275162D01*
X99249270Y-55540930D01*
X85262715Y-55540930D01*
X85262715Y-52175929D01*
X85218437Y-51940612D01*
X85079365Y-51724488D01*
X84867165Y-51579498D01*
X84615275Y-51528489D01*
X82615275Y-51528489D01*
X82379958Y-51572767D01*
X82163834Y-51711839D01*
X82018844Y-51924039D01*
X81967835Y-52175929D01*
X81967835Y-55540930D01*
X80105078Y-55540930D01*
X78962715Y-54398567D01*
X78962715Y-53325929D01*
X78918437Y-53090612D01*
X78811516Y-52924452D01*
X78911706Y-52777819D01*
X78962715Y-52525929D01*
X78962715Y-51025929D01*
X78918437Y-50790612D01*
X78779365Y-50574488D01*
X78567165Y-50429498D01*
X78315275Y-50378489D01*
X76315275Y-50378489D01*
X76079958Y-50422767D01*
X75863834Y-50561839D01*
X75718844Y-50774039D01*
X75667835Y-51025929D01*
X75667835Y-52525929D01*
X75712113Y-52761246D01*
X75819034Y-52927406D01*
X75718844Y-53074039D01*
X75667835Y-53325929D01*
X75667835Y-54825929D01*
X75712113Y-55061246D01*
X75817757Y-55225421D01*
X75776948Y-55266230D01*
X75680275Y-55499619D01*
X75680275Y-56090179D01*
X75839025Y-56248929D01*
X77188275Y-56248929D01*
X77188275Y-56228929D01*
X77442275Y-56228929D01*
X77442275Y-56248929D01*
X77462275Y-56248929D01*
X77462275Y-56502929D01*
X77442275Y-56502929D01*
X77442275Y-57602179D01*
X77601025Y-57760929D01*
X78441584Y-57760929D01*
X78674973Y-57664256D01*
X78853602Y-57485628D01*
X78950275Y-57252239D01*
X78950275Y-56661679D01*
X78791527Y-56502931D01*
X78917475Y-56502931D01*
X79252875Y-56838331D01*
X79499437Y-57003078D01*
X79790276Y-57060930D01*
X99564072Y-57060930D01*
X99854911Y-57003078D01*
X100101473Y-56838331D01*
X106441803Y-50498001D01*
X109757192Y-50498001D01*
X109636660Y-50578538D01*
X106540320Y-53674878D01*
X106494833Y-53674838D01*
X106151057Y-53816883D01*
X105887808Y-54079673D01*
X105745162Y-54423201D01*
X105744838Y-54795167D01*
X105886883Y-55138943D01*
X106149673Y-55402192D01*
X106493201Y-55544838D01*
X106865167Y-55545162D01*
X107208943Y-55403117D01*
X107314954Y-55297290D01*
X107419673Y-55402192D01*
X107763201Y-55544838D01*
X108135167Y-55545162D01*
X108478943Y-55403117D01*
X108584954Y-55297290D01*
X108689673Y-55402192D01*
X109033201Y-55544838D01*
X109405167Y-55545162D01*
X109748943Y-55403117D01*
X109854954Y-55297290D01*
X109959673Y-55402192D01*
X110303201Y-55544838D01*
X110675167Y-55545162D01*
X111018943Y-55403117D01*
X111282192Y-55140327D01*
X111424838Y-54796799D01*
X111424879Y-54749923D01*
X112348143Y-53826659D01*
X114008539Y-53826659D01*
X111620320Y-56214878D01*
X111574833Y-56214838D01*
X111231057Y-56356883D01*
X110967808Y-56619673D01*
X110825162Y-56963201D01*
X110824838Y-57335167D01*
X110966883Y-57678943D01*
X111229673Y-57942192D01*
X111573201Y-58084838D01*
X111945167Y-58085162D01*
X112288943Y-57943117D01*
X112394954Y-57837290D01*
X112499673Y-57942192D01*
X112843201Y-58084838D01*
X113215167Y-58085162D01*
X113558943Y-57943117D01*
X113664954Y-57837290D01*
X113769673Y-57942192D01*
X114113201Y-58084838D01*
X114485167Y-58085162D01*
X114828943Y-57943117D01*
X114934954Y-57837290D01*
X115039673Y-57942192D01*
X115383201Y-58084838D01*
X115755167Y-58085162D01*
X116098943Y-57943117D01*
X116193261Y-57848963D01*
X116267327Y-57959811D01*
X116375917Y-58068401D01*
X116622478Y-58233148D01*
X116670732Y-58242746D01*
X116913318Y-58291000D01*
X119960537Y-58291000D01*
X119992673Y-58323192D01*
X120336201Y-58465838D01*
X120708167Y-58466162D01*
X121051943Y-58324117D01*
X121315192Y-58061327D01*
X121457838Y-57717799D01*
X121458162Y-57345833D01*
X121316117Y-57002057D01*
X121053327Y-56738808D01*
X120709799Y-56596162D01*
X120337833Y-56595838D01*
X119994057Y-56737883D01*
X119960882Y-56771000D01*
X118821237Y-56771000D01*
X118825980Y-56764059D01*
X118831291Y-56737832D01*
X118864549Y-56704574D01*
X118864549Y-56637320D01*
X118855882Y-56616397D01*
X118876989Y-56512169D01*
X118876989Y-56113389D01*
X118852463Y-55983043D01*
X118876989Y-55861929D01*
X118876989Y-55463149D01*
X118852463Y-55332803D01*
X118876989Y-55211689D01*
X118876989Y-54812909D01*
X118852463Y-54682563D01*
X118876989Y-54561449D01*
X118876989Y-54162669D01*
X118852958Y-54034957D01*
X118876989Y-53916289D01*
X118876989Y-53517509D01*
X118852463Y-53387163D01*
X118876989Y-53266049D01*
X118876989Y-52867269D01*
X118852463Y-52736923D01*
X118876989Y-52615809D01*
X118876989Y-52217029D01*
X118852463Y-52086683D01*
X118876989Y-51965569D01*
X118876989Y-51566789D01*
X118852463Y-51436443D01*
X118876989Y-51315329D01*
X118876989Y-50916549D01*
X118832711Y-50681232D01*
X118714805Y-50498001D01*
X119452537Y-50498001D01*
X119484673Y-50530193D01*
X119828201Y-50672839D01*
X120200167Y-50673163D01*
X120543943Y-50531118D01*
X120546759Y-50528307D01*
X120546759Y-50801137D01*
X120389839Y-50958057D01*
X120344352Y-50958017D01*
X120000576Y-51100062D01*
X119737327Y-51362852D01*
X119594681Y-51706380D01*
X119594357Y-52078346D01*
X119736402Y-52422122D01*
X119999192Y-52685371D01*
X120342720Y-52828017D01*
X120714686Y-52828341D01*
X121058462Y-52686296D01*
X121321711Y-52423506D01*
X121464357Y-52079978D01*
X121464398Y-52033102D01*
X121621561Y-51875939D01*
X122182049Y-51875939D01*
X122182049Y-51965569D01*
X122206575Y-52095915D01*
X122182049Y-52217029D01*
X122182049Y-52615809D01*
X122206575Y-52746155D01*
X122182049Y-52867269D01*
X122182049Y-53266049D01*
X122206575Y-53396395D01*
X122182049Y-53517509D01*
X122182049Y-53916289D01*
X122206080Y-54044001D01*
X122182049Y-54162669D01*
X122182049Y-54561449D01*
X122206575Y-54691795D01*
X122182049Y-54812909D01*
X122182049Y-55211689D01*
X122206575Y-55342035D01*
X122182049Y-55463149D01*
X122182049Y-55861929D01*
X122206575Y-55992275D01*
X122182049Y-56113389D01*
X122182049Y-56512169D01*
X122202128Y-56618878D01*
X122194489Y-56637320D01*
X122194489Y-56704574D01*
X122223760Y-56733845D01*
X122226327Y-56747486D01*
X122365399Y-56963610D01*
X122510443Y-57062714D01*
X122353239Y-57062714D01*
X122194489Y-57221464D01*
X122194489Y-57288718D01*
X122291162Y-57522107D01*
X122469790Y-57700736D01*
X122703179Y-57797409D01*
X123093649Y-57797409D01*
X123252399Y-57638659D01*
X123252399Y-57159609D01*
X123506399Y-57159609D01*
X123506399Y-57638659D01*
X123665149Y-57797409D01*
X124055619Y-57797409D01*
X124289008Y-57700736D01*
X124467636Y-57522107D01*
X124564309Y-57288718D01*
X124564309Y-57221464D01*
X124432866Y-57090021D01*
X124564309Y-57090021D01*
X124564309Y-57072779D01*
X125900087Y-57072779D01*
X127750884Y-58923576D01*
X127997446Y-59088323D01*
X128288285Y-59146175D01*
X136624835Y-59146175D01*
X136915674Y-59088323D01*
X137162236Y-58923576D01*
X138309727Y-57776085D01*
X138474474Y-57529524D01*
X138532326Y-57238684D01*
X138532326Y-56934667D01*
X138919564Y-56547429D01*
X138993954Y-56438555D01*
X139096342Y-56370652D01*
X139485250Y-55981744D01*
X139559643Y-55872867D01*
X139662027Y-55804966D01*
X140050935Y-55416058D01*
X140125325Y-55307184D01*
X140227713Y-55239281D01*
X140616621Y-54850373D01*
X140691014Y-54741496D01*
X140793398Y-54673595D01*
X141182306Y-54284687D01*
X141256696Y-54175813D01*
X141359084Y-54107910D01*
X141581823Y-53885172D01*
X145638052Y-57941401D01*
X145884614Y-58106148D01*
X146175453Y-58164000D01*
X154526292Y-58164000D01*
X155292292Y-58930000D01*
X147828000Y-58930000D01*
X147537161Y-58987852D01*
X147290599Y-59152599D01*
X146147599Y-60295599D01*
X145982852Y-60542161D01*
X145925000Y-60833000D01*
X145925000Y-62937537D01*
X145892808Y-62969673D01*
X145750162Y-63313201D01*
X145749838Y-63685167D01*
X145891883Y-64028943D01*
X146154673Y-64292192D01*
X146498201Y-64434838D01*
X146870167Y-64435162D01*
X147213943Y-64293117D01*
X147477192Y-64030327D01*
X147619838Y-63686799D01*
X147620162Y-63314833D01*
X147478117Y-62971057D01*
X147445000Y-62937882D01*
X147445000Y-61147802D01*
X148142802Y-60450000D01*
X151844290Y-60450000D01*
X151697852Y-60669161D01*
X151640000Y-60960000D01*
X151640000Y-62937537D01*
X151607808Y-62969673D01*
X151465162Y-63313201D01*
X151464838Y-63685167D01*
X151606883Y-64028943D01*
X151801064Y-64223463D01*
X151516584Y-64105337D01*
X150746793Y-64104665D01*
X150035342Y-64398630D01*
X149490543Y-64942479D01*
X149195337Y-65653416D01*
X149194665Y-66423207D01*
X149488630Y-67134658D01*
X150032479Y-67679457D01*
X150743416Y-67974663D01*
X151513207Y-67975335D01*
X152224658Y-67681370D01*
X152769457Y-67137521D01*
X153064663Y-66426584D01*
X153065335Y-65656793D01*
X152771370Y-64945342D01*
X152261798Y-64434880D01*
X152585167Y-64435162D01*
X152928943Y-64293117D01*
X153192192Y-64030327D01*
X153334838Y-63686799D01*
X153335162Y-63314833D01*
X153325787Y-63292143D01*
X153347167Y-63292162D01*
X153690943Y-63150117D01*
X153724118Y-63117000D01*
X155260198Y-63117000D01*
X156339000Y-64195802D01*
X156339000Y-82777000D01*
X156396852Y-83067839D01*
X156561599Y-83314401D01*
X158368560Y-85121362D01*
X158368560Y-85994000D01*
X158412838Y-86229317D01*
X158551910Y-86445441D01*
X158764110Y-86590431D01*
X159016000Y-86641440D01*
X160516000Y-86641440D01*
X160751317Y-86597162D01*
X160967441Y-86458090D01*
X161112431Y-86245890D01*
X161115081Y-86232803D01*
X161251910Y-86445441D01*
X161464110Y-86590431D01*
X161716000Y-86641440D01*
X163216000Y-86641440D01*
X163451317Y-86597162D01*
X163667441Y-86458090D01*
X163812431Y-86245890D01*
X163863440Y-85994000D01*
X163863440Y-84694000D01*
X163819162Y-84458683D01*
X163680090Y-84242559D01*
X163573000Y-84169388D01*
X163573000Y-81165105D01*
X163714441Y-81074090D01*
X163859431Y-80861890D01*
X163910440Y-80610000D01*
X163910440Y-79410000D01*
X163866162Y-79174683D01*
X163727090Y-78958559D01*
X163514890Y-78813569D01*
X163472230Y-78804930D01*
X163443920Y-78762560D01*
X163350402Y-78622599D01*
X161796000Y-77068198D01*
X161796000Y-75901739D01*
X162769125Y-75901739D01*
X162828552Y-75941447D01*
X163119391Y-75999299D01*
X163410230Y-75941447D01*
X163656792Y-75776700D01*
X163821539Y-75530138D01*
X163879391Y-75239299D01*
X163879391Y-74139299D01*
X163866831Y-74076156D01*
X163866831Y-73954299D01*
X163822553Y-73718982D01*
X163707816Y-73540676D01*
X167008337Y-70240155D01*
X167008337Y-100115000D01*
X166655750Y-100115000D01*
X166497000Y-100273750D01*
X166497000Y-101473000D01*
X166517000Y-101473000D01*
X166517000Y-101727000D01*
X166497000Y-101727000D01*
X166497000Y-101747000D01*
X166243000Y-101747000D01*
X166243000Y-101727000D01*
X166223000Y-101727000D01*
X166223000Y-101473000D01*
X166243000Y-101473000D01*
X166243000Y-100273750D01*
X166084250Y-100115000D01*
X165393691Y-100115000D01*
X165303540Y-100152342D01*
X165140566Y-99908434D01*
X164124566Y-98892434D01*
X163756346Y-98646397D01*
X163322000Y-98560000D01*
X77176998Y-98560000D01*
X76742652Y-98646397D01*
X76374432Y-98892434D01*
X75143434Y-100123432D01*
X74998447Y-100340421D01*
X74869698Y-100211673D01*
X74636309Y-100115000D01*
X73945750Y-100115000D01*
X73787000Y-100273750D01*
X73787000Y-101473000D01*
X73807000Y-101473000D01*
X73807000Y-101727000D01*
X73787000Y-101727000D01*
X73787000Y-101747000D01*
X73533000Y-101747000D01*
X73533000Y-101727000D01*
X73513000Y-101727000D01*
X73513000Y-101473000D01*
X73533000Y-101473000D01*
X73533000Y-100273750D01*
X73374250Y-100115000D01*
X73244999Y-100115000D01*
X73244999Y-90464016D01*
X84875112Y-90464016D01*
X85100658Y-91009877D01*
X85517926Y-91427874D01*
X86063393Y-91654372D01*
X86654016Y-91654888D01*
X87199877Y-91429342D01*
X87330122Y-91299324D01*
X87329838Y-91625167D01*
X87471883Y-91968943D01*
X87505000Y-92002118D01*
X87505000Y-93864890D01*
X87355715Y-93864760D01*
X86846485Y-94075169D01*
X86456539Y-94464436D01*
X86245241Y-94973298D01*
X86244760Y-95524285D01*
X86455169Y-96033515D01*
X86844436Y-96423461D01*
X87353298Y-96634759D01*
X87904285Y-96635240D01*
X88413515Y-96424831D01*
X88803461Y-96035564D01*
X88899976Y-95803130D01*
X88995169Y-96033515D01*
X89384436Y-96423461D01*
X89893298Y-96634759D01*
X90444285Y-96635240D01*
X90953515Y-96424831D01*
X91343461Y-96035564D01*
X91439976Y-95803130D01*
X91535169Y-96033515D01*
X91924436Y-96423461D01*
X92433298Y-96634759D01*
X92984285Y-96635240D01*
X93493515Y-96424831D01*
X93883461Y-96035564D01*
X93979976Y-95803130D01*
X94075169Y-96033515D01*
X94464436Y-96423461D01*
X94973298Y-96634759D01*
X95524285Y-96635240D01*
X96033515Y-96424831D01*
X96423461Y-96035564D01*
X96634759Y-95526702D01*
X96635240Y-94975715D01*
X96424831Y-94466485D01*
X96035564Y-94076539D01*
X95526702Y-93865241D01*
X94975715Y-93864760D01*
X94466485Y-94075169D01*
X94076539Y-94464436D01*
X93980024Y-94696870D01*
X93884831Y-94466485D01*
X93495564Y-94076539D01*
X92986702Y-93865241D01*
X92435715Y-93864760D01*
X91926485Y-94075169D01*
X91536539Y-94464436D01*
X91440024Y-94696870D01*
X91344831Y-94466485D01*
X90955564Y-94076539D01*
X90446702Y-93865241D01*
X89895715Y-93864760D01*
X89386485Y-94075169D01*
X89025000Y-94436025D01*
X89025000Y-92002463D01*
X89057192Y-91970327D01*
X89199838Y-91626799D01*
X89199842Y-91622580D01*
X89213259Y-91655052D01*
X89951064Y-92394146D01*
X90915546Y-92794634D01*
X91959872Y-92795545D01*
X92925052Y-92396741D01*
X93664146Y-91658936D01*
X94064634Y-90694454D01*
X94064835Y-90464016D01*
X95035112Y-90464016D01*
X95260658Y-91009877D01*
X95677926Y-91427874D01*
X96223393Y-91654372D01*
X96814016Y-91654888D01*
X97359877Y-91429342D01*
X97777874Y-91012074D01*
X98004372Y-90466607D01*
X98004374Y-90464016D01*
X103925112Y-90464016D01*
X104150658Y-91009877D01*
X104567926Y-91427874D01*
X105113393Y-91654372D01*
X105704016Y-91654888D01*
X106249877Y-91429342D01*
X106380122Y-91299324D01*
X106379838Y-91625167D01*
X106521883Y-91968943D01*
X106555000Y-92002118D01*
X106555000Y-93864890D01*
X106405715Y-93864760D01*
X105896485Y-94075169D01*
X105506539Y-94464436D01*
X105295241Y-94973298D01*
X105294760Y-95524285D01*
X105505169Y-96033515D01*
X105894436Y-96423461D01*
X106403298Y-96634759D01*
X106954285Y-96635240D01*
X107463515Y-96424831D01*
X107853461Y-96035564D01*
X107949976Y-95803130D01*
X108045169Y-96033515D01*
X108434436Y-96423461D01*
X108943298Y-96634759D01*
X109494285Y-96635240D01*
X110003515Y-96424831D01*
X110393461Y-96035564D01*
X110489976Y-95803130D01*
X110585169Y-96033515D01*
X110974436Y-96423461D01*
X111483298Y-96634759D01*
X112034285Y-96635240D01*
X112543515Y-96424831D01*
X112933461Y-96035564D01*
X113029976Y-95803130D01*
X113125169Y-96033515D01*
X113514436Y-96423461D01*
X114023298Y-96634759D01*
X114574285Y-96635240D01*
X115083515Y-96424831D01*
X115473461Y-96035564D01*
X115684759Y-95526702D01*
X115685240Y-94975715D01*
X115474831Y-94466485D01*
X115085564Y-94076539D01*
X114576702Y-93865241D01*
X114025715Y-93864760D01*
X113516485Y-94075169D01*
X113126539Y-94464436D01*
X113030024Y-94696870D01*
X112934831Y-94466485D01*
X112545564Y-94076539D01*
X112036702Y-93865241D01*
X111485715Y-93864760D01*
X110976485Y-94075169D01*
X110586539Y-94464436D01*
X110490024Y-94696870D01*
X110394831Y-94466485D01*
X110005564Y-94076539D01*
X109496702Y-93865241D01*
X108945715Y-93864760D01*
X108436485Y-94075169D01*
X108075000Y-94436025D01*
X108075000Y-92002463D01*
X108107192Y-91970327D01*
X108249838Y-91626799D01*
X108249842Y-91622580D01*
X108263259Y-91655052D01*
X109001064Y-92394146D01*
X109965546Y-92794634D01*
X111009872Y-92795545D01*
X111975052Y-92396741D01*
X112714146Y-91658936D01*
X113114634Y-90694454D01*
X113114835Y-90464016D01*
X114085112Y-90464016D01*
X114310658Y-91009877D01*
X114727926Y-91427874D01*
X115273393Y-91654372D01*
X115864016Y-91654888D01*
X116409877Y-91429342D01*
X116827874Y-91012074D01*
X117054372Y-90466607D01*
X117054374Y-90464016D01*
X122975112Y-90464016D01*
X123200658Y-91009877D01*
X123617926Y-91427874D01*
X124163393Y-91654372D01*
X124754016Y-91654888D01*
X125299877Y-91429342D01*
X125430122Y-91299324D01*
X125429838Y-91625167D01*
X125571883Y-91968943D01*
X125605000Y-92002118D01*
X125605000Y-93864890D01*
X125455715Y-93864760D01*
X124946485Y-94075169D01*
X124556539Y-94464436D01*
X124345241Y-94973298D01*
X124344760Y-95524285D01*
X124555169Y-96033515D01*
X124944436Y-96423461D01*
X125453298Y-96634759D01*
X126004285Y-96635240D01*
X126513515Y-96424831D01*
X126903461Y-96035564D01*
X126999976Y-95803130D01*
X127095169Y-96033515D01*
X127484436Y-96423461D01*
X127993298Y-96634759D01*
X128544285Y-96635240D01*
X129053515Y-96424831D01*
X129443461Y-96035564D01*
X129539976Y-95803130D01*
X129635169Y-96033515D01*
X130024436Y-96423461D01*
X130533298Y-96634759D01*
X131084285Y-96635240D01*
X131593515Y-96424831D01*
X131983461Y-96035564D01*
X132079976Y-95803130D01*
X132175169Y-96033515D01*
X132564436Y-96423461D01*
X133073298Y-96634759D01*
X133624285Y-96635240D01*
X134133515Y-96424831D01*
X134523461Y-96035564D01*
X134734759Y-95526702D01*
X134735240Y-94975715D01*
X134524831Y-94466485D01*
X134135564Y-94076539D01*
X133626702Y-93865241D01*
X133075715Y-93864760D01*
X132566485Y-94075169D01*
X132176539Y-94464436D01*
X132080024Y-94696870D01*
X131984831Y-94466485D01*
X131595564Y-94076539D01*
X131086702Y-93865241D01*
X130535715Y-93864760D01*
X130026485Y-94075169D01*
X129636539Y-94464436D01*
X129540024Y-94696870D01*
X129444831Y-94466485D01*
X129055564Y-94076539D01*
X128546702Y-93865241D01*
X127995715Y-93864760D01*
X127486485Y-94075169D01*
X127125000Y-94436025D01*
X127125000Y-92002463D01*
X127157192Y-91970327D01*
X127299838Y-91626799D01*
X127299842Y-91622580D01*
X127313259Y-91655052D01*
X128051064Y-92394146D01*
X129015546Y-92794634D01*
X130059872Y-92795545D01*
X131025052Y-92396741D01*
X131764146Y-91658936D01*
X132164634Y-90694454D01*
X132164835Y-90464016D01*
X133135112Y-90464016D01*
X133360658Y-91009877D01*
X133777926Y-91427874D01*
X134323393Y-91654372D01*
X134914016Y-91654888D01*
X135459877Y-91429342D01*
X135877874Y-91012074D01*
X136104372Y-90466607D01*
X136104374Y-90464016D01*
X142025112Y-90464016D01*
X142250658Y-91009877D01*
X142667926Y-91427874D01*
X143213393Y-91654372D01*
X143804016Y-91654888D01*
X144349877Y-91429342D01*
X144480122Y-91299324D01*
X144479838Y-91625167D01*
X144621883Y-91968943D01*
X144655000Y-92002118D01*
X144655000Y-93864890D01*
X144505715Y-93864760D01*
X143996485Y-94075169D01*
X143606539Y-94464436D01*
X143395241Y-94973298D01*
X143394760Y-95524285D01*
X143605169Y-96033515D01*
X143994436Y-96423461D01*
X144503298Y-96634759D01*
X145054285Y-96635240D01*
X145563515Y-96424831D01*
X145953461Y-96035564D01*
X146049976Y-95803130D01*
X146145169Y-96033515D01*
X146534436Y-96423461D01*
X147043298Y-96634759D01*
X147594285Y-96635240D01*
X148103515Y-96424831D01*
X148493461Y-96035564D01*
X148589976Y-95803130D01*
X148685169Y-96033515D01*
X149074436Y-96423461D01*
X149583298Y-96634759D01*
X150134285Y-96635240D01*
X150643515Y-96424831D01*
X151033461Y-96035564D01*
X151129976Y-95803130D01*
X151225169Y-96033515D01*
X151614436Y-96423461D01*
X152123298Y-96634759D01*
X152674285Y-96635240D01*
X153183515Y-96424831D01*
X153573461Y-96035564D01*
X153784759Y-95526702D01*
X153785240Y-94975715D01*
X153574831Y-94466485D01*
X153185564Y-94076539D01*
X152676702Y-93865241D01*
X152125715Y-93864760D01*
X151616485Y-94075169D01*
X151226539Y-94464436D01*
X151130024Y-94696870D01*
X151034831Y-94466485D01*
X150645564Y-94076539D01*
X150136702Y-93865241D01*
X149585715Y-93864760D01*
X149076485Y-94075169D01*
X148686539Y-94464436D01*
X148590024Y-94696870D01*
X148494831Y-94466485D01*
X148105564Y-94076539D01*
X147596702Y-93865241D01*
X147045715Y-93864760D01*
X146536485Y-94075169D01*
X146175000Y-94436025D01*
X146175000Y-92002463D01*
X146207192Y-91970327D01*
X146349838Y-91626799D01*
X146349842Y-91622580D01*
X146363259Y-91655052D01*
X147101064Y-92394146D01*
X148065546Y-92794634D01*
X149109872Y-92795545D01*
X150075052Y-92396741D01*
X150814146Y-91658936D01*
X151214634Y-90694454D01*
X151214835Y-90464016D01*
X152185112Y-90464016D01*
X152410658Y-91009877D01*
X152827926Y-91427874D01*
X153373393Y-91654372D01*
X153964016Y-91654888D01*
X154509877Y-91429342D01*
X154927874Y-91012074D01*
X155154372Y-90466607D01*
X155154888Y-89875984D01*
X154929342Y-89330123D01*
X154512074Y-88912126D01*
X153966607Y-88685628D01*
X153375984Y-88685112D01*
X152830123Y-88910658D01*
X152412126Y-89327926D01*
X152185628Y-89873393D01*
X152185112Y-90464016D01*
X151214835Y-90464016D01*
X151215545Y-89650128D01*
X150816741Y-88684948D01*
X150078936Y-87945854D01*
X149114454Y-87545366D01*
X148070128Y-87544455D01*
X147104948Y-87943259D01*
X146490354Y-88556781D01*
X146714663Y-88016584D01*
X146715335Y-87246793D01*
X146421370Y-86535342D01*
X145877521Y-85990543D01*
X145166584Y-85695337D01*
X144396793Y-85694665D01*
X143685342Y-85988630D01*
X143140543Y-86532479D01*
X142845337Y-87243416D01*
X142844665Y-88013207D01*
X143135953Y-88718180D01*
X142670123Y-88910658D01*
X142252126Y-89327926D01*
X142025628Y-89873393D01*
X142025112Y-90464016D01*
X136104374Y-90464016D01*
X136104888Y-89875984D01*
X135879342Y-89330123D01*
X135462074Y-88912126D01*
X134916607Y-88685628D01*
X134325984Y-88685112D01*
X133780123Y-88910658D01*
X133362126Y-89327926D01*
X133135628Y-89873393D01*
X133135112Y-90464016D01*
X132164835Y-90464016D01*
X132165545Y-89650128D01*
X131766741Y-88684948D01*
X131028936Y-87945854D01*
X130064454Y-87545366D01*
X129020128Y-87544455D01*
X128054948Y-87943259D01*
X127440354Y-88556781D01*
X127664663Y-88016584D01*
X127665335Y-87246793D01*
X127371370Y-86535342D01*
X126827521Y-85990543D01*
X126116584Y-85695337D01*
X125346793Y-85694665D01*
X124635342Y-85988630D01*
X124090543Y-86532479D01*
X123795337Y-87243416D01*
X123794665Y-88013207D01*
X124085953Y-88718180D01*
X123620123Y-88910658D01*
X123202126Y-89327926D01*
X122975628Y-89873393D01*
X122975112Y-90464016D01*
X117054374Y-90464016D01*
X117054888Y-89875984D01*
X116829342Y-89330123D01*
X116412074Y-88912126D01*
X115866607Y-88685628D01*
X115275984Y-88685112D01*
X114730123Y-88910658D01*
X114312126Y-89327926D01*
X114085628Y-89873393D01*
X114085112Y-90464016D01*
X113114835Y-90464016D01*
X113115545Y-89650128D01*
X112716741Y-88684948D01*
X111978936Y-87945854D01*
X111014454Y-87545366D01*
X109970128Y-87544455D01*
X109004948Y-87943259D01*
X108390354Y-88556781D01*
X108614663Y-88016584D01*
X108615335Y-87246793D01*
X108321370Y-86535342D01*
X107777521Y-85990543D01*
X107066584Y-85695337D01*
X106296793Y-85694665D01*
X105585342Y-85988630D01*
X105040543Y-86532479D01*
X104745337Y-87243416D01*
X104744665Y-88013207D01*
X105035953Y-88718180D01*
X104570123Y-88910658D01*
X104152126Y-89327926D01*
X103925628Y-89873393D01*
X103925112Y-90464016D01*
X98004374Y-90464016D01*
X98004888Y-89875984D01*
X97779342Y-89330123D01*
X97362074Y-88912126D01*
X96816607Y-88685628D01*
X96225984Y-88685112D01*
X95680123Y-88910658D01*
X95262126Y-89327926D01*
X95035628Y-89873393D01*
X95035112Y-90464016D01*
X94064835Y-90464016D01*
X94065545Y-89650128D01*
X93666741Y-88684948D01*
X92928936Y-87945854D01*
X91964454Y-87545366D01*
X90920128Y-87544455D01*
X89954948Y-87943259D01*
X89340354Y-88556781D01*
X89564663Y-88016584D01*
X89565335Y-87246793D01*
X89271370Y-86535342D01*
X88727521Y-85990543D01*
X88016584Y-85695337D01*
X87246793Y-85694665D01*
X86535342Y-85988630D01*
X85990543Y-86532479D01*
X85695337Y-87243416D01*
X85694665Y-88013207D01*
X85985953Y-88718180D01*
X85520123Y-88910658D01*
X85102126Y-89327926D01*
X84875628Y-89873393D01*
X84875112Y-90464016D01*
X73244999Y-90464016D01*
X73244999Y-85473207D01*
X92044665Y-85473207D01*
X92338630Y-86184658D01*
X92882479Y-86729457D01*
X93593416Y-87024663D01*
X94363207Y-87025335D01*
X95074658Y-86731370D01*
X95619457Y-86187521D01*
X95914663Y-85476584D01*
X95914665Y-85473207D01*
X111094665Y-85473207D01*
X111388630Y-86184658D01*
X111932479Y-86729457D01*
X112643416Y-87024663D01*
X113413207Y-87025335D01*
X114124658Y-86731370D01*
X114669457Y-86187521D01*
X114964663Y-85476584D01*
X114964665Y-85473207D01*
X130144665Y-85473207D01*
X130438630Y-86184658D01*
X130982479Y-86729457D01*
X131693416Y-87024663D01*
X132463207Y-87025335D01*
X133174658Y-86731370D01*
X133719457Y-86187521D01*
X134014663Y-85476584D01*
X134014665Y-85473207D01*
X149194665Y-85473207D01*
X149488630Y-86184658D01*
X150032479Y-86729457D01*
X150743416Y-87024663D01*
X151513207Y-87025335D01*
X152224658Y-86731370D01*
X152769457Y-86187521D01*
X153064663Y-85476584D01*
X153065335Y-84706793D01*
X152771370Y-83995342D01*
X152227521Y-83450543D01*
X151516584Y-83155337D01*
X150746793Y-83154665D01*
X150035342Y-83448630D01*
X149490543Y-83992479D01*
X149195337Y-84703416D01*
X149194665Y-85473207D01*
X134014665Y-85473207D01*
X134015335Y-84706793D01*
X133721370Y-83995342D01*
X133177521Y-83450543D01*
X132466584Y-83155337D01*
X131696793Y-83154665D01*
X130985342Y-83448630D01*
X130440543Y-83992479D01*
X130145337Y-84703416D01*
X130144665Y-85473207D01*
X114964665Y-85473207D01*
X114965335Y-84706793D01*
X114671370Y-83995342D01*
X114127521Y-83450543D01*
X113416584Y-83155337D01*
X112646793Y-83154665D01*
X111935342Y-83448630D01*
X111390543Y-83992479D01*
X111095337Y-84703416D01*
X111094665Y-85473207D01*
X95914665Y-85473207D01*
X95915335Y-84706793D01*
X95621370Y-83995342D01*
X95077521Y-83450543D01*
X94366584Y-83155337D01*
X93596793Y-83154665D01*
X92885342Y-83448630D01*
X92340543Y-83992479D01*
X92045337Y-84703416D01*
X92044665Y-85473207D01*
X73244999Y-85473207D01*
X73244999Y-76474285D01*
X86244760Y-76474285D01*
X86455169Y-76983515D01*
X86844436Y-77373461D01*
X87353298Y-77584759D01*
X87904285Y-77585240D01*
X88413515Y-77374831D01*
X88803461Y-76985564D01*
X88899976Y-76753130D01*
X88995169Y-76983515D01*
X89384436Y-77373461D01*
X89893298Y-77584759D01*
X90444285Y-77585240D01*
X90953515Y-77374831D01*
X91343461Y-76985564D01*
X91439976Y-76753130D01*
X91535169Y-76983515D01*
X91924436Y-77373461D01*
X92433298Y-77584759D01*
X92984285Y-77585240D01*
X93493515Y-77374831D01*
X93883461Y-76985564D01*
X93979976Y-76753130D01*
X94075169Y-76983515D01*
X94464436Y-77373461D01*
X94973298Y-77584759D01*
X95524285Y-77585240D01*
X96033515Y-77374831D01*
X96423461Y-76985564D01*
X96634759Y-76476702D01*
X96635240Y-75925715D01*
X96424831Y-75416485D01*
X96035564Y-75026539D01*
X95526702Y-74815241D01*
X94975715Y-74814760D01*
X94466485Y-75025169D01*
X94076539Y-75414436D01*
X93980024Y-75646870D01*
X93884831Y-75416485D01*
X93495564Y-75026539D01*
X92986702Y-74815241D01*
X92435715Y-74814760D01*
X91926485Y-75025169D01*
X91536539Y-75414436D01*
X91440024Y-75646870D01*
X91344831Y-75416485D01*
X90955564Y-75026539D01*
X90446702Y-74815241D01*
X89895715Y-74814760D01*
X89386485Y-75025169D01*
X88996539Y-75414436D01*
X88900024Y-75646870D01*
X88804831Y-75416485D01*
X88415564Y-75026539D01*
X87906702Y-74815241D01*
X87355715Y-74814760D01*
X86846485Y-75025169D01*
X86456539Y-75414436D01*
X86245241Y-75923298D01*
X86244760Y-76474285D01*
X73244999Y-76474285D01*
X73244999Y-71414016D01*
X84875112Y-71414016D01*
X85100658Y-71959877D01*
X85517926Y-72377874D01*
X86063393Y-72604372D01*
X86654016Y-72604888D01*
X87199877Y-72379342D01*
X87617874Y-71962074D01*
X87844372Y-71416607D01*
X87844888Y-70825984D01*
X87716423Y-70515076D01*
X88013207Y-70515335D01*
X88724658Y-70221370D01*
X89144956Y-69801805D01*
X88815366Y-70595546D01*
X88814455Y-71639872D01*
X89213259Y-72605052D01*
X89951064Y-73344146D01*
X90915546Y-73744634D01*
X91959872Y-73745545D01*
X92925052Y-73346741D01*
X93664146Y-72608936D01*
X94064634Y-71644454D01*
X94064835Y-71414016D01*
X95035112Y-71414016D01*
X95260658Y-71959877D01*
X95677926Y-72377874D01*
X96223393Y-72604372D01*
X96814016Y-72604888D01*
X97359877Y-72379342D01*
X97777874Y-71962074D01*
X98004372Y-71416607D01*
X98004374Y-71414016D01*
X103925112Y-71414016D01*
X104150658Y-71959877D01*
X104567926Y-72377874D01*
X105113393Y-72604372D01*
X105704016Y-72604888D01*
X106249877Y-72379342D01*
X106667874Y-71962074D01*
X106894372Y-71416607D01*
X106894888Y-70825984D01*
X106766423Y-70515076D01*
X107063207Y-70515335D01*
X107774658Y-70221370D01*
X108194956Y-69801805D01*
X107865366Y-70595546D01*
X107864455Y-71639872D01*
X108263259Y-72605052D01*
X108740970Y-73083597D01*
X108682599Y-73122599D01*
X106980200Y-74824998D01*
X106956702Y-74815241D01*
X106405715Y-74814760D01*
X105896485Y-75025169D01*
X105506539Y-75414436D01*
X105295241Y-75923298D01*
X105294760Y-76474285D01*
X105505169Y-76983515D01*
X105894436Y-77373461D01*
X106403298Y-77584759D01*
X106954285Y-77585240D01*
X107463515Y-77374831D01*
X107853461Y-76985564D01*
X107949976Y-76753130D01*
X108045169Y-76983515D01*
X108434436Y-77373461D01*
X108943298Y-77584759D01*
X109494285Y-77585240D01*
X110003515Y-77374831D01*
X110393461Y-76985564D01*
X110489976Y-76753130D01*
X110585169Y-76983515D01*
X110974436Y-77373461D01*
X111483298Y-77584759D01*
X112034285Y-77585240D01*
X112059868Y-77574670D01*
X112297600Y-77812402D01*
X112544161Y-77977149D01*
X112835001Y-78035001D01*
X129734999Y-78035001D01*
X130025838Y-77977149D01*
X130272400Y-77812402D01*
X130509800Y-77575002D01*
X130533298Y-77584759D01*
X131084285Y-77585240D01*
X131593515Y-77374831D01*
X131983461Y-76985564D01*
X132079976Y-76753130D01*
X132175169Y-76983515D01*
X132564436Y-77373461D01*
X133073298Y-77584759D01*
X133624285Y-77585240D01*
X134133515Y-77374831D01*
X134523461Y-76985564D01*
X134734759Y-76476702D01*
X134735240Y-75925715D01*
X134524831Y-75416485D01*
X134135564Y-75026539D01*
X134083241Y-75004812D01*
X134052148Y-74848501D01*
X133887401Y-74601939D01*
X133043061Y-73757599D01*
X132796499Y-73592852D01*
X132505660Y-73535000D01*
X130569430Y-73535000D01*
X131025052Y-73346741D01*
X131764146Y-72608936D01*
X132164634Y-71644454D01*
X132164835Y-71414016D01*
X133135112Y-71414016D01*
X133360658Y-71959877D01*
X133777926Y-72377874D01*
X134323393Y-72604372D01*
X134914016Y-72604888D01*
X135459877Y-72379342D01*
X135877874Y-71962074D01*
X136104372Y-71416607D01*
X136104374Y-71414016D01*
X142025112Y-71414016D01*
X142250658Y-71959877D01*
X142667926Y-72377874D01*
X143213393Y-72604372D01*
X143804016Y-72604888D01*
X144349877Y-72379342D01*
X144480122Y-72249324D01*
X144479838Y-72575167D01*
X144621883Y-72918943D01*
X144655000Y-72952118D01*
X144655000Y-74295000D01*
X144712852Y-74585839D01*
X144769999Y-74671366D01*
X144769999Y-74814991D01*
X144505715Y-74814760D01*
X143996485Y-75025169D01*
X143606539Y-75414436D01*
X143395241Y-75923298D01*
X143394760Y-76474285D01*
X143605169Y-76983515D01*
X143994436Y-77373461D01*
X144503298Y-77584759D01*
X145054285Y-77585240D01*
X145563515Y-77374831D01*
X145953461Y-76985564D01*
X146049976Y-76753130D01*
X146145169Y-76983515D01*
X146534436Y-77373461D01*
X147043298Y-77584759D01*
X147594285Y-77585240D01*
X148103515Y-77374831D01*
X148493461Y-76985564D01*
X148589976Y-76753130D01*
X148685169Y-76983515D01*
X149074436Y-77373461D01*
X149583298Y-77584759D01*
X150134285Y-77585240D01*
X150643515Y-77374831D01*
X151033461Y-76985564D01*
X151129976Y-76753130D01*
X151225169Y-76983515D01*
X151614436Y-77373461D01*
X152123298Y-77584759D01*
X152674285Y-77585240D01*
X153183515Y-77374831D01*
X153573461Y-76985564D01*
X153784759Y-76476702D01*
X153785240Y-75925715D01*
X153574831Y-75416485D01*
X153185564Y-75026539D01*
X152676702Y-74815241D01*
X152125715Y-74814760D01*
X151616485Y-75025169D01*
X151226539Y-75414436D01*
X151130024Y-75646870D01*
X151034831Y-75416485D01*
X150645564Y-75026539D01*
X150136702Y-74815241D01*
X149585715Y-74814760D01*
X149076485Y-75025169D01*
X148686539Y-75414436D01*
X148590024Y-75646870D01*
X148494831Y-75416485D01*
X148105564Y-75026539D01*
X147596702Y-74815241D01*
X147045715Y-74814760D01*
X146536485Y-75025169D01*
X146289999Y-75271226D01*
X146289999Y-74409999D01*
X146232147Y-74119160D01*
X146175000Y-74033633D01*
X146175000Y-72952463D01*
X146207192Y-72920327D01*
X146349838Y-72576799D01*
X146349842Y-72572580D01*
X146363259Y-72605052D01*
X147101064Y-73344146D01*
X148065546Y-73744634D01*
X149109872Y-73745545D01*
X150075052Y-73346741D01*
X150814146Y-72608936D01*
X151214634Y-71644454D01*
X151214835Y-71414016D01*
X152185112Y-71414016D01*
X152410658Y-71959877D01*
X152827926Y-72377874D01*
X153373393Y-72604372D01*
X153964016Y-72604888D01*
X154509877Y-72379342D01*
X154927874Y-71962074D01*
X155154372Y-71416607D01*
X155154888Y-70825984D01*
X154929342Y-70280123D01*
X154512074Y-69862126D01*
X153966607Y-69635628D01*
X153375984Y-69635112D01*
X152830123Y-69860658D01*
X152412126Y-70277926D01*
X152185628Y-70823393D01*
X152185112Y-71414016D01*
X151214835Y-71414016D01*
X151215545Y-70600128D01*
X150816741Y-69634948D01*
X150078936Y-68895854D01*
X149114454Y-68495366D01*
X148070128Y-68494455D01*
X147104948Y-68893259D01*
X146490354Y-69506781D01*
X146714663Y-68966584D01*
X146715335Y-68196793D01*
X146421370Y-67485342D01*
X145877521Y-66940543D01*
X145166584Y-66645337D01*
X144396793Y-66644665D01*
X143685342Y-66938630D01*
X143140543Y-67482479D01*
X142845337Y-68193416D01*
X142844665Y-68963207D01*
X143135953Y-69668180D01*
X142670123Y-69860658D01*
X142252126Y-70277926D01*
X142025628Y-70823393D01*
X142025112Y-71414016D01*
X136104374Y-71414016D01*
X136104888Y-70825984D01*
X135879342Y-70280123D01*
X135462074Y-69862126D01*
X134916607Y-69635628D01*
X134325984Y-69635112D01*
X133780123Y-69860658D01*
X133362126Y-70277926D01*
X133135628Y-70823393D01*
X133135112Y-71414016D01*
X132164835Y-71414016D01*
X132165545Y-70600128D01*
X131766741Y-69634948D01*
X131028936Y-68895854D01*
X130064454Y-68495366D01*
X129020128Y-68494455D01*
X128054948Y-68893259D01*
X127440354Y-69506781D01*
X127664663Y-68966584D01*
X127665335Y-68196793D01*
X127371370Y-67485342D01*
X126827521Y-66940543D01*
X126489055Y-66800000D01*
X130300352Y-66800000D01*
X130438630Y-67134658D01*
X130982479Y-67679457D01*
X131693416Y-67974663D01*
X132463207Y-67975335D01*
X133174658Y-67681370D01*
X133719457Y-67137521D01*
X134014663Y-66426584D01*
X134015335Y-65656793D01*
X133721370Y-64945342D01*
X133177521Y-64400543D01*
X132466584Y-64105337D01*
X131696793Y-64104665D01*
X130985342Y-64398630D01*
X130440543Y-64942479D01*
X130300392Y-65280000D01*
X114809648Y-65280000D01*
X114671370Y-64945342D01*
X114127521Y-64400543D01*
X113416584Y-64105337D01*
X112646793Y-64104665D01*
X111935342Y-64398630D01*
X111390543Y-64942479D01*
X111095337Y-65653416D01*
X111094665Y-66423207D01*
X111388630Y-67134658D01*
X111932479Y-67679457D01*
X112643416Y-67974663D01*
X113413207Y-67975335D01*
X114124658Y-67681370D01*
X114669457Y-67137521D01*
X114809608Y-66800000D01*
X124970853Y-66800000D01*
X124635342Y-66938630D01*
X124090543Y-67482479D01*
X123795337Y-68193416D01*
X123794665Y-68963207D01*
X124085953Y-69668180D01*
X123620123Y-69860658D01*
X123202126Y-70277926D01*
X122975628Y-70823393D01*
X122975112Y-71414016D01*
X123064355Y-71630000D01*
X118037463Y-71630000D01*
X118005327Y-71597808D01*
X117661799Y-71455162D01*
X117289833Y-71454838D01*
X116986444Y-71580195D01*
X117054372Y-71416607D01*
X117054888Y-70825984D01*
X116829342Y-70280123D01*
X116412074Y-69862126D01*
X115866607Y-69635628D01*
X115275984Y-69635112D01*
X114730123Y-69860658D01*
X114312126Y-70277926D01*
X114085628Y-70823393D01*
X114085112Y-71414016D01*
X114310658Y-71959877D01*
X114727926Y-72377874D01*
X115273393Y-72604372D01*
X115864016Y-72604888D01*
X116409877Y-72379342D01*
X116540122Y-72249324D01*
X116539838Y-72575167D01*
X116674056Y-72900000D01*
X112422573Y-72900000D01*
X112714146Y-72608936D01*
X113114634Y-71644454D01*
X113115545Y-70600128D01*
X112716741Y-69634948D01*
X111978936Y-68895854D01*
X111014454Y-68495366D01*
X109970128Y-68494455D01*
X109004948Y-68893259D01*
X108390354Y-69506781D01*
X108614663Y-68966584D01*
X108615335Y-68196793D01*
X108321370Y-67485342D01*
X107777521Y-66940543D01*
X107066584Y-66645337D01*
X106296793Y-66644665D01*
X105585342Y-66938630D01*
X105040543Y-67482479D01*
X104745337Y-68193416D01*
X104744665Y-68963207D01*
X105035953Y-69668180D01*
X104570123Y-69860658D01*
X104152126Y-70277926D01*
X103925628Y-70823393D01*
X103925112Y-71414016D01*
X98004374Y-71414016D01*
X98004888Y-70825984D01*
X97779342Y-70280123D01*
X97362074Y-69862126D01*
X96816607Y-69635628D01*
X96225984Y-69635112D01*
X95680123Y-69860658D01*
X95262126Y-70277926D01*
X95035628Y-70823393D01*
X95035112Y-71414016D01*
X94064835Y-71414016D01*
X94065545Y-70600128D01*
X93666741Y-69634948D01*
X92928936Y-68895854D01*
X91964454Y-68495366D01*
X90920128Y-68494455D01*
X89954948Y-68893259D01*
X89340354Y-69506781D01*
X89564663Y-68966584D01*
X89565335Y-68196793D01*
X89271370Y-67485342D01*
X88727521Y-66940543D01*
X88016584Y-66645337D01*
X87246793Y-66644665D01*
X86535342Y-66938630D01*
X85990543Y-67482479D01*
X85695337Y-68193416D01*
X85694665Y-68963207D01*
X85985953Y-69668180D01*
X85520123Y-69860658D01*
X85102126Y-70277926D01*
X84875628Y-70823393D01*
X84875112Y-71414016D01*
X73244999Y-71414016D01*
X73244999Y-66423207D01*
X92044665Y-66423207D01*
X92338630Y-67134658D01*
X92882479Y-67679457D01*
X93593416Y-67974663D01*
X94363207Y-67975335D01*
X95074658Y-67681370D01*
X95619457Y-67137521D01*
X95914663Y-66426584D01*
X95915335Y-65656793D01*
X95621370Y-64945342D01*
X95077521Y-64400543D01*
X94366584Y-64105337D01*
X93596793Y-64104665D01*
X92885342Y-64398630D01*
X92340543Y-64942479D01*
X92045337Y-65653416D01*
X92044665Y-66423207D01*
X73244999Y-66423207D01*
X73244999Y-61145167D01*
X76407838Y-61145167D01*
X76549883Y-61488943D01*
X76583000Y-61522118D01*
X76583000Y-64207537D01*
X76550808Y-64239673D01*
X76408162Y-64583201D01*
X76407838Y-64955167D01*
X76549883Y-65298943D01*
X76812673Y-65562192D01*
X77156201Y-65704838D01*
X77528167Y-65705162D01*
X77871943Y-65563117D01*
X78135192Y-65300327D01*
X78277838Y-64956799D01*
X78278162Y-64584833D01*
X78136117Y-64241057D01*
X78103000Y-64207882D01*
X78103000Y-61522463D01*
X78135192Y-61490327D01*
X78277838Y-61146799D01*
X78278162Y-60774833D01*
X78136117Y-60431057D01*
X77873327Y-60167808D01*
X77529799Y-60025162D01*
X77157833Y-60024838D01*
X76814057Y-60166883D01*
X76550808Y-60429673D01*
X76408162Y-60773201D01*
X76407838Y-61145167D01*
X73244999Y-61145167D01*
X73244999Y-56661679D01*
X75680275Y-56661679D01*
X75680275Y-57252239D01*
X75776948Y-57485628D01*
X75955577Y-57664256D01*
X76188966Y-57760929D01*
X77029525Y-57760929D01*
X77188275Y-57602179D01*
X77188275Y-56502929D01*
X75839025Y-56502929D01*
X75680275Y-56661679D01*
X73244999Y-56661679D01*
X73244999Y-52085581D01*
X79665579Y-45665000D01*
X87493656Y-45665000D01*
X87536410Y-45731441D01*
X87748610Y-45876431D01*
X88000500Y-45927440D01*
X89651500Y-45927440D01*
X89886817Y-45883162D01*
X90102941Y-45744090D01*
X90247931Y-45531890D01*
X90298940Y-45280000D01*
X90298940Y-44714999D01*
X92507060Y-44714999D01*
X92507060Y-45280000D01*
X92507060Y-45280000D01*
G37*
X92507060Y-45280000D02*
X92551338Y-45515317D01*
X92690410Y-45731441D01*
X92902610Y-45876431D01*
X93154500Y-45927440D01*
X93967758Y-45927440D01*
X88760320Y-51134878D01*
X88714833Y-51134838D01*
X88371057Y-51276883D01*
X88107808Y-51539673D01*
X87965162Y-51883201D01*
X87964838Y-52255167D01*
X88106883Y-52598943D01*
X88369673Y-52862192D01*
X88713201Y-53004838D01*
X89085167Y-53005162D01*
X89428943Y-52863117D01*
X89534954Y-52757290D01*
X89639673Y-52862192D01*
X89983201Y-53004838D01*
X90355167Y-53005162D01*
X90698943Y-52863117D01*
X90804954Y-52757290D01*
X90909673Y-52862192D01*
X91253201Y-53004838D01*
X91625167Y-53005162D01*
X91968943Y-52863117D01*
X92074954Y-52757290D01*
X92179673Y-52862192D01*
X92523201Y-53004838D01*
X92895167Y-53005162D01*
X93238943Y-52863117D01*
X93502192Y-52600327D01*
X93644838Y-52256799D01*
X93644879Y-52209923D01*
X100384743Y-45470059D01*
X104585139Y-45470059D01*
X97650320Y-52404878D01*
X97604833Y-52404838D01*
X97261057Y-52546883D01*
X96997808Y-52809673D01*
X96855162Y-53153201D01*
X96854838Y-53525167D01*
X96996883Y-53868943D01*
X97259673Y-54132192D01*
X97603201Y-54274838D01*
X97975167Y-54275162D01*
X98318943Y-54133117D01*
X98424954Y-54027290D01*
X98529673Y-54132192D01*
X98873201Y-54274838D01*
X99245167Y-54275162D01*
X99588943Y-54133117D01*
X99694954Y-54027290D01*
X99799673Y-54132192D01*
X100143201Y-54274838D01*
X100515038Y-54275162D01*
X99249270Y-55540930D01*
X85262715Y-55540930D01*
X85262715Y-52175929D01*
X85218437Y-51940612D01*
X85079365Y-51724488D01*
X84867165Y-51579498D01*
X84615275Y-51528489D01*
X82615275Y-51528489D01*
X82379958Y-51572767D01*
X82163834Y-51711839D01*
X82018844Y-51924039D01*
X81967835Y-52175929D01*
X81967835Y-55540930D01*
X80105078Y-55540930D01*
X78962715Y-54398567D01*
X78962715Y-53325929D01*
X78918437Y-53090612D01*
X78811516Y-52924452D01*
X78911706Y-52777819D01*
X78962715Y-52525929D01*
X78962715Y-51025929D01*
X78918437Y-50790612D01*
X78779365Y-50574488D01*
X78567165Y-50429498D01*
X78315275Y-50378489D01*
X76315275Y-50378489D01*
X76079958Y-50422767D01*
X75863834Y-50561839D01*
X75718844Y-50774039D01*
X75667835Y-51025929D01*
X75667835Y-52525929D01*
X75712113Y-52761246D01*
X75819034Y-52927406D01*
X75718844Y-53074039D01*
X75667835Y-53325929D01*
X75667835Y-54825929D01*
X75712113Y-55061246D01*
X75817757Y-55225421D01*
X75776948Y-55266230D01*
X75680275Y-55499619D01*
X75680275Y-56090179D01*
X75839025Y-56248929D01*
X77188275Y-56248929D01*
X77188275Y-56228929D01*
X77442275Y-56228929D01*
X77442275Y-56248929D01*
X77462275Y-56248929D01*
X77462275Y-56502929D01*
X77442275Y-56502929D01*
X77442275Y-57602179D01*
X77601025Y-57760929D01*
X78441584Y-57760929D01*
X78674973Y-57664256D01*
X78853602Y-57485628D01*
X78950275Y-57252239D01*
X78950275Y-56661679D01*
X78791527Y-56502931D01*
X78917475Y-56502931D01*
X79252875Y-56838331D01*
X79499437Y-57003078D01*
X79790276Y-57060930D01*
X99564072Y-57060930D01*
X99854911Y-57003078D01*
X100101473Y-56838331D01*
X106441803Y-50498001D01*
X109757192Y-50498001D01*
X109636660Y-50578538D01*
X106540320Y-53674878D01*
X106494833Y-53674838D01*
X106151057Y-53816883D01*
X105887808Y-54079673D01*
X105745162Y-54423201D01*
X105744838Y-54795167D01*
X105886883Y-55138943D01*
X106149673Y-55402192D01*
X106493201Y-55544838D01*
X106865167Y-55545162D01*
X107208943Y-55403117D01*
X107314954Y-55297290D01*
X107419673Y-55402192D01*
X107763201Y-55544838D01*
X108135167Y-55545162D01*
X108478943Y-55403117D01*
X108584954Y-55297290D01*
X108689673Y-55402192D01*
X109033201Y-55544838D01*
X109405167Y-55545162D01*
X109748943Y-55403117D01*
X109854954Y-55297290D01*
X109959673Y-55402192D01*
X110303201Y-55544838D01*
X110675167Y-55545162D01*
X111018943Y-55403117D01*
X111282192Y-55140327D01*
X111424838Y-54796799D01*
X111424879Y-54749923D01*
X112348143Y-53826659D01*
X114008539Y-53826659D01*
X111620320Y-56214878D01*
X111574833Y-56214838D01*
X111231057Y-56356883D01*
X110967808Y-56619673D01*
X110825162Y-56963201D01*
X110824838Y-57335167D01*
X110966883Y-57678943D01*
X111229673Y-57942192D01*
X111573201Y-58084838D01*
X111945167Y-58085162D01*
X112288943Y-57943117D01*
X112394954Y-57837290D01*
X112499673Y-57942192D01*
X112843201Y-58084838D01*
X113215167Y-58085162D01*
X113558943Y-57943117D01*
X113664954Y-57837290D01*
X113769673Y-57942192D01*
X114113201Y-58084838D01*
X114485167Y-58085162D01*
X114828943Y-57943117D01*
X114934954Y-57837290D01*
X115039673Y-57942192D01*
X115383201Y-58084838D01*
X115755167Y-58085162D01*
X116098943Y-57943117D01*
X116193261Y-57848963D01*
X116267327Y-57959811D01*
X116375917Y-58068401D01*
X116622478Y-58233148D01*
X116670732Y-58242746D01*
X116913318Y-58291000D01*
X119960537Y-58291000D01*
X119992673Y-58323192D01*
X120336201Y-58465838D01*
X120708167Y-58466162D01*
X121051943Y-58324117D01*
X121315192Y-58061327D01*
X121457838Y-57717799D01*
X121458162Y-57345833D01*
X121316117Y-57002057D01*
X121053327Y-56738808D01*
X120709799Y-56596162D01*
X120337833Y-56595838D01*
X119994057Y-56737883D01*
X119960882Y-56771000D01*
X118821237Y-56771000D01*
X118825980Y-56764059D01*
X118831291Y-56737832D01*
X118864549Y-56704574D01*
X118864549Y-56637320D01*
X118855882Y-56616397D01*
X118876989Y-56512169D01*
X118876989Y-56113389D01*
X118852463Y-55983043D01*
X118876989Y-55861929D01*
X118876989Y-55463149D01*
X118852463Y-55332803D01*
X118876989Y-55211689D01*
X118876989Y-54812909D01*
X118852463Y-54682563D01*
X118876989Y-54561449D01*
X118876989Y-54162669D01*
X118852958Y-54034957D01*
X118876989Y-53916289D01*
X118876989Y-53517509D01*
X118852463Y-53387163D01*
X118876989Y-53266049D01*
X118876989Y-52867269D01*
X118852463Y-52736923D01*
X118876989Y-52615809D01*
X118876989Y-52217029D01*
X118852463Y-52086683D01*
X118876989Y-51965569D01*
X118876989Y-51566789D01*
X118852463Y-51436443D01*
X118876989Y-51315329D01*
X118876989Y-50916549D01*
X118832711Y-50681232D01*
X118714805Y-50498001D01*
X119452537Y-50498001D01*
X119484673Y-50530193D01*
X119828201Y-50672839D01*
X120200167Y-50673163D01*
X120543943Y-50531118D01*
X120546759Y-50528307D01*
X120546759Y-50801137D01*
X120389839Y-50958057D01*
X120344352Y-50958017D01*
X120000576Y-51100062D01*
X119737327Y-51362852D01*
X119594681Y-51706380D01*
X119594357Y-52078346D01*
X119736402Y-52422122D01*
X119999192Y-52685371D01*
X120342720Y-52828017D01*
X120714686Y-52828341D01*
X121058462Y-52686296D01*
X121321711Y-52423506D01*
X121464357Y-52079978D01*
X121464398Y-52033102D01*
X121621561Y-51875939D01*
X122182049Y-51875939D01*
X122182049Y-51965569D01*
X122206575Y-52095915D01*
X122182049Y-52217029D01*
X122182049Y-52615809D01*
X122206575Y-52746155D01*
X122182049Y-52867269D01*
X122182049Y-53266049D01*
X122206575Y-53396395D01*
X122182049Y-53517509D01*
X122182049Y-53916289D01*
X122206080Y-54044001D01*
X122182049Y-54162669D01*
X122182049Y-54561449D01*
X122206575Y-54691795D01*
X122182049Y-54812909D01*
X122182049Y-55211689D01*
X122206575Y-55342035D01*
X122182049Y-55463149D01*
X122182049Y-55861929D01*
X122206575Y-55992275D01*
X122182049Y-56113389D01*
X122182049Y-56512169D01*
X122202128Y-56618878D01*
X122194489Y-56637320D01*
X122194489Y-56704574D01*
X122223760Y-56733845D01*
X122226327Y-56747486D01*
X122365399Y-56963610D01*
X122510443Y-57062714D01*
X122353239Y-57062714D01*
X122194489Y-57221464D01*
X122194489Y-57288718D01*
X122291162Y-57522107D01*
X122469790Y-57700736D01*
X122703179Y-57797409D01*
X123093649Y-57797409D01*
X123252399Y-57638659D01*
X123252399Y-57159609D01*
X123506399Y-57159609D01*
X123506399Y-57638659D01*
X123665149Y-57797409D01*
X124055619Y-57797409D01*
X124289008Y-57700736D01*
X124467636Y-57522107D01*
X124564309Y-57288718D01*
X124564309Y-57221464D01*
X124432866Y-57090021D01*
X124564309Y-57090021D01*
X124564309Y-57072779D01*
X125900087Y-57072779D01*
X127750884Y-58923576D01*
X127997446Y-59088323D01*
X128288285Y-59146175D01*
X136624835Y-59146175D01*
X136915674Y-59088323D01*
X137162236Y-58923576D01*
X138309727Y-57776085D01*
X138474474Y-57529524D01*
X138532326Y-57238684D01*
X138532326Y-56934667D01*
X138919564Y-56547429D01*
X138993954Y-56438555D01*
X139096342Y-56370652D01*
X139485250Y-55981744D01*
X139559643Y-55872867D01*
X139662027Y-55804966D01*
X140050935Y-55416058D01*
X140125325Y-55307184D01*
X140227713Y-55239281D01*
X140616621Y-54850373D01*
X140691014Y-54741496D01*
X140793398Y-54673595D01*
X141182306Y-54284687D01*
X141256696Y-54175813D01*
X141359084Y-54107910D01*
X141581823Y-53885172D01*
X145638052Y-57941401D01*
X145884614Y-58106148D01*
X146175453Y-58164000D01*
X154526292Y-58164000D01*
X155292292Y-58930000D01*
X147828000Y-58930000D01*
X147537161Y-58987852D01*
X147290599Y-59152599D01*
X146147599Y-60295599D01*
X145982852Y-60542161D01*
X145925000Y-60833000D01*
X145925000Y-62937537D01*
X145892808Y-62969673D01*
X145750162Y-63313201D01*
X145749838Y-63685167D01*
X145891883Y-64028943D01*
X146154673Y-64292192D01*
X146498201Y-64434838D01*
X146870167Y-64435162D01*
X147213943Y-64293117D01*
X147477192Y-64030327D01*
X147619838Y-63686799D01*
X147620162Y-63314833D01*
X147478117Y-62971057D01*
X147445000Y-62937882D01*
X147445000Y-61147802D01*
X148142802Y-60450000D01*
X151844290Y-60450000D01*
X151697852Y-60669161D01*
X151640000Y-60960000D01*
X151640000Y-62937537D01*
X151607808Y-62969673D01*
X151465162Y-63313201D01*
X151464838Y-63685167D01*
X151606883Y-64028943D01*
X151801064Y-64223463D01*
X151516584Y-64105337D01*
X150746793Y-64104665D01*
X150035342Y-64398630D01*
X149490543Y-64942479D01*
X149195337Y-65653416D01*
X149194665Y-66423207D01*
X149488630Y-67134658D01*
X150032479Y-67679457D01*
X150743416Y-67974663D01*
X151513207Y-67975335D01*
X152224658Y-67681370D01*
X152769457Y-67137521D01*
X153064663Y-66426584D01*
X153065335Y-65656793D01*
X152771370Y-64945342D01*
X152261798Y-64434880D01*
X152585167Y-64435162D01*
X152928943Y-64293117D01*
X153192192Y-64030327D01*
X153334838Y-63686799D01*
X153335162Y-63314833D01*
X153325787Y-63292143D01*
X153347167Y-63292162D01*
X153690943Y-63150117D01*
X153724118Y-63117000D01*
X155260198Y-63117000D01*
X156339000Y-64195802D01*
X156339000Y-82777000D01*
X156396852Y-83067839D01*
X156561599Y-83314401D01*
X158368560Y-85121362D01*
X158368560Y-85994000D01*
X158412838Y-86229317D01*
X158551910Y-86445441D01*
X158764110Y-86590431D01*
X159016000Y-86641440D01*
X160516000Y-86641440D01*
X160751317Y-86597162D01*
X160967441Y-86458090D01*
X161112431Y-86245890D01*
X161115081Y-86232803D01*
X161251910Y-86445441D01*
X161464110Y-86590431D01*
X161716000Y-86641440D01*
X163216000Y-86641440D01*
X163451317Y-86597162D01*
X163667441Y-86458090D01*
X163812431Y-86245890D01*
X163863440Y-85994000D01*
X163863440Y-84694000D01*
X163819162Y-84458683D01*
X163680090Y-84242559D01*
X163573000Y-84169388D01*
X163573000Y-81165105D01*
X163714441Y-81074090D01*
X163859431Y-80861890D01*
X163910440Y-80610000D01*
X163910440Y-79410000D01*
X163866162Y-79174683D01*
X163727090Y-78958559D01*
X163514890Y-78813569D01*
X163472230Y-78804930D01*
X163443920Y-78762560D01*
X163350402Y-78622599D01*
X161796000Y-77068198D01*
X161796000Y-75901739D01*
X162769125Y-75901739D01*
X162828552Y-75941447D01*
X163119391Y-75999299D01*
X163410230Y-75941447D01*
X163656792Y-75776700D01*
X163821539Y-75530138D01*
X163879391Y-75239299D01*
X163879391Y-74139299D01*
X163866831Y-74076156D01*
X163866831Y-73954299D01*
X163822553Y-73718982D01*
X163707816Y-73540676D01*
X167008337Y-70240155D01*
X167008337Y-100115000D01*
X166655750Y-100115000D01*
X166497000Y-100273750D01*
X166497000Y-101473000D01*
X166517000Y-101473000D01*
X166517000Y-101727000D01*
X166497000Y-101727000D01*
X166497000Y-101747000D01*
X166243000Y-101747000D01*
X166243000Y-101727000D01*
X166223000Y-101727000D01*
X166223000Y-101473000D01*
X166243000Y-101473000D01*
X166243000Y-100273750D01*
X166084250Y-100115000D01*
X165393691Y-100115000D01*
X165303540Y-100152342D01*
X165140566Y-99908434D01*
X164124566Y-98892434D01*
X163756346Y-98646397D01*
X163322000Y-98560000D01*
X77176998Y-98560000D01*
X76742652Y-98646397D01*
X76374432Y-98892434D01*
X75143434Y-100123432D01*
X74998447Y-100340421D01*
X74869698Y-100211673D01*
X74636309Y-100115000D01*
X73945750Y-100115000D01*
X73787000Y-100273750D01*
X73787000Y-101473000D01*
X73807000Y-101473000D01*
X73807000Y-101727000D01*
X73787000Y-101727000D01*
X73787000Y-101747000D01*
X73533000Y-101747000D01*
X73533000Y-101727000D01*
X73513000Y-101727000D01*
X73513000Y-101473000D01*
X73533000Y-101473000D01*
X73533000Y-100273750D01*
X73374250Y-100115000D01*
X73244999Y-100115000D01*
X73244999Y-90464016D01*
X84875112Y-90464016D01*
X85100658Y-91009877D01*
X85517926Y-91427874D01*
X86063393Y-91654372D01*
X86654016Y-91654888D01*
X87199877Y-91429342D01*
X87330122Y-91299324D01*
X87329838Y-91625167D01*
X87471883Y-91968943D01*
X87505000Y-92002118D01*
X87505000Y-93864890D01*
X87355715Y-93864760D01*
X86846485Y-94075169D01*
X86456539Y-94464436D01*
X86245241Y-94973298D01*
X86244760Y-95524285D01*
X86455169Y-96033515D01*
X86844436Y-96423461D01*
X87353298Y-96634759D01*
X87904285Y-96635240D01*
X88413515Y-96424831D01*
X88803461Y-96035564D01*
X88899976Y-95803130D01*
X88995169Y-96033515D01*
X89384436Y-96423461D01*
X89893298Y-96634759D01*
X90444285Y-96635240D01*
X90953515Y-96424831D01*
X91343461Y-96035564D01*
X91439976Y-95803130D01*
X91535169Y-96033515D01*
X91924436Y-96423461D01*
X92433298Y-96634759D01*
X92984285Y-96635240D01*
X93493515Y-96424831D01*
X93883461Y-96035564D01*
X93979976Y-95803130D01*
X94075169Y-96033515D01*
X94464436Y-96423461D01*
X94973298Y-96634759D01*
X95524285Y-96635240D01*
X96033515Y-96424831D01*
X96423461Y-96035564D01*
X96634759Y-95526702D01*
X96635240Y-94975715D01*
X96424831Y-94466485D01*
X96035564Y-94076539D01*
X95526702Y-93865241D01*
X94975715Y-93864760D01*
X94466485Y-94075169D01*
X94076539Y-94464436D01*
X93980024Y-94696870D01*
X93884831Y-94466485D01*
X93495564Y-94076539D01*
X92986702Y-93865241D01*
X92435715Y-93864760D01*
X91926485Y-94075169D01*
X91536539Y-94464436D01*
X91440024Y-94696870D01*
X91344831Y-94466485D01*
X90955564Y-94076539D01*
X90446702Y-93865241D01*
X89895715Y-93864760D01*
X89386485Y-94075169D01*
X89025000Y-94436025D01*
X89025000Y-92002463D01*
X89057192Y-91970327D01*
X89199838Y-91626799D01*
X89199842Y-91622580D01*
X89213259Y-91655052D01*
X89951064Y-92394146D01*
X90915546Y-92794634D01*
X91959872Y-92795545D01*
X92925052Y-92396741D01*
X93664146Y-91658936D01*
X94064634Y-90694454D01*
X94064835Y-90464016D01*
X95035112Y-90464016D01*
X95260658Y-91009877D01*
X95677926Y-91427874D01*
X96223393Y-91654372D01*
X96814016Y-91654888D01*
X97359877Y-91429342D01*
X97777874Y-91012074D01*
X98004372Y-90466607D01*
X98004374Y-90464016D01*
X103925112Y-90464016D01*
X104150658Y-91009877D01*
X104567926Y-91427874D01*
X105113393Y-91654372D01*
X105704016Y-91654888D01*
X106249877Y-91429342D01*
X106380122Y-91299324D01*
X106379838Y-91625167D01*
X106521883Y-91968943D01*
X106555000Y-92002118D01*
X106555000Y-93864890D01*
X106405715Y-93864760D01*
X105896485Y-94075169D01*
X105506539Y-94464436D01*
X105295241Y-94973298D01*
X105294760Y-95524285D01*
X105505169Y-96033515D01*
X105894436Y-96423461D01*
X106403298Y-96634759D01*
X106954285Y-96635240D01*
X107463515Y-96424831D01*
X107853461Y-96035564D01*
X107949976Y-95803130D01*
X108045169Y-96033515D01*
X108434436Y-96423461D01*
X108943298Y-96634759D01*
X109494285Y-96635240D01*
X110003515Y-96424831D01*
X110393461Y-96035564D01*
X110489976Y-95803130D01*
X110585169Y-96033515D01*
X110974436Y-96423461D01*
X111483298Y-96634759D01*
X112034285Y-96635240D01*
X112543515Y-96424831D01*
X112933461Y-96035564D01*
X113029976Y-95803130D01*
X113125169Y-96033515D01*
X113514436Y-96423461D01*
X114023298Y-96634759D01*
X114574285Y-96635240D01*
X115083515Y-96424831D01*
X115473461Y-96035564D01*
X115684759Y-95526702D01*
X115685240Y-94975715D01*
X115474831Y-94466485D01*
X115085564Y-94076539D01*
X114576702Y-93865241D01*
X114025715Y-93864760D01*
X113516485Y-94075169D01*
X113126539Y-94464436D01*
X113030024Y-94696870D01*
X112934831Y-94466485D01*
X112545564Y-94076539D01*
X112036702Y-93865241D01*
X111485715Y-93864760D01*
X110976485Y-94075169D01*
X110586539Y-94464436D01*
X110490024Y-94696870D01*
X110394831Y-94466485D01*
X110005564Y-94076539D01*
X109496702Y-93865241D01*
X108945715Y-93864760D01*
X108436485Y-94075169D01*
X108075000Y-94436025D01*
X108075000Y-92002463D01*
X108107192Y-91970327D01*
X108249838Y-91626799D01*
X108249842Y-91622580D01*
X108263259Y-91655052D01*
X109001064Y-92394146D01*
X109965546Y-92794634D01*
X111009872Y-92795545D01*
X111975052Y-92396741D01*
X112714146Y-91658936D01*
X113114634Y-90694454D01*
X113114835Y-90464016D01*
X114085112Y-90464016D01*
X114310658Y-91009877D01*
X114727926Y-91427874D01*
X115273393Y-91654372D01*
X115864016Y-91654888D01*
X116409877Y-91429342D01*
X116827874Y-91012074D01*
X117054372Y-90466607D01*
X117054374Y-90464016D01*
X122975112Y-90464016D01*
X123200658Y-91009877D01*
X123617926Y-91427874D01*
X124163393Y-91654372D01*
X124754016Y-91654888D01*
X125299877Y-91429342D01*
X125430122Y-91299324D01*
X125429838Y-91625167D01*
X125571883Y-91968943D01*
X125605000Y-92002118D01*
X125605000Y-93864890D01*
X125455715Y-93864760D01*
X124946485Y-94075169D01*
X124556539Y-94464436D01*
X124345241Y-94973298D01*
X124344760Y-95524285D01*
X124555169Y-96033515D01*
X124944436Y-96423461D01*
X125453298Y-96634759D01*
X126004285Y-96635240D01*
X126513515Y-96424831D01*
X126903461Y-96035564D01*
X126999976Y-95803130D01*
X127095169Y-96033515D01*
X127484436Y-96423461D01*
X127993298Y-96634759D01*
X128544285Y-96635240D01*
X129053515Y-96424831D01*
X129443461Y-96035564D01*
X129539976Y-95803130D01*
X129635169Y-96033515D01*
X130024436Y-96423461D01*
X130533298Y-96634759D01*
X131084285Y-96635240D01*
X131593515Y-96424831D01*
X131983461Y-96035564D01*
X132079976Y-95803130D01*
X132175169Y-96033515D01*
X132564436Y-96423461D01*
X133073298Y-96634759D01*
X133624285Y-96635240D01*
X134133515Y-96424831D01*
X134523461Y-96035564D01*
X134734759Y-95526702D01*
X134735240Y-94975715D01*
X134524831Y-94466485D01*
X134135564Y-94076539D01*
X133626702Y-93865241D01*
X133075715Y-93864760D01*
X132566485Y-94075169D01*
X132176539Y-94464436D01*
X132080024Y-94696870D01*
X131984831Y-94466485D01*
X131595564Y-94076539D01*
X131086702Y-93865241D01*
X130535715Y-93864760D01*
X130026485Y-94075169D01*
X129636539Y-94464436D01*
X129540024Y-94696870D01*
X129444831Y-94466485D01*
X129055564Y-94076539D01*
X128546702Y-93865241D01*
X127995715Y-93864760D01*
X127486485Y-94075169D01*
X127125000Y-94436025D01*
X127125000Y-92002463D01*
X127157192Y-91970327D01*
X127299838Y-91626799D01*
X127299842Y-91622580D01*
X127313259Y-91655052D01*
X128051064Y-92394146D01*
X129015546Y-92794634D01*
X130059872Y-92795545D01*
X131025052Y-92396741D01*
X131764146Y-91658936D01*
X132164634Y-90694454D01*
X132164835Y-90464016D01*
X133135112Y-90464016D01*
X133360658Y-91009877D01*
X133777926Y-91427874D01*
X134323393Y-91654372D01*
X134914016Y-91654888D01*
X135459877Y-91429342D01*
X135877874Y-91012074D01*
X136104372Y-90466607D01*
X136104374Y-90464016D01*
X142025112Y-90464016D01*
X142250658Y-91009877D01*
X142667926Y-91427874D01*
X143213393Y-91654372D01*
X143804016Y-91654888D01*
X144349877Y-91429342D01*
X144480122Y-91299324D01*
X144479838Y-91625167D01*
X144621883Y-91968943D01*
X144655000Y-92002118D01*
X144655000Y-93864890D01*
X144505715Y-93864760D01*
X143996485Y-94075169D01*
X143606539Y-94464436D01*
X143395241Y-94973298D01*
X143394760Y-95524285D01*
X143605169Y-96033515D01*
X143994436Y-96423461D01*
X144503298Y-96634759D01*
X145054285Y-96635240D01*
X145563515Y-96424831D01*
X145953461Y-96035564D01*
X146049976Y-95803130D01*
X146145169Y-96033515D01*
X146534436Y-96423461D01*
X147043298Y-96634759D01*
X147594285Y-96635240D01*
X148103515Y-96424831D01*
X148493461Y-96035564D01*
X148589976Y-95803130D01*
X148685169Y-96033515D01*
X149074436Y-96423461D01*
X149583298Y-96634759D01*
X150134285Y-96635240D01*
X150643515Y-96424831D01*
X151033461Y-96035564D01*
X151129976Y-95803130D01*
X151225169Y-96033515D01*
X151614436Y-96423461D01*
X152123298Y-96634759D01*
X152674285Y-96635240D01*
X153183515Y-96424831D01*
X153573461Y-96035564D01*
X153784759Y-95526702D01*
X153785240Y-94975715D01*
X153574831Y-94466485D01*
X153185564Y-94076539D01*
X152676702Y-93865241D01*
X152125715Y-93864760D01*
X151616485Y-94075169D01*
X151226539Y-94464436D01*
X151130024Y-94696870D01*
X151034831Y-94466485D01*
X150645564Y-94076539D01*
X150136702Y-93865241D01*
X149585715Y-93864760D01*
X149076485Y-94075169D01*
X148686539Y-94464436D01*
X148590024Y-94696870D01*
X148494831Y-94466485D01*
X148105564Y-94076539D01*
X147596702Y-93865241D01*
X147045715Y-93864760D01*
X146536485Y-94075169D01*
X146175000Y-94436025D01*
X146175000Y-92002463D01*
X146207192Y-91970327D01*
X146349838Y-91626799D01*
X146349842Y-91622580D01*
X146363259Y-91655052D01*
X147101064Y-92394146D01*
X148065546Y-92794634D01*
X149109872Y-92795545D01*
X150075052Y-92396741D01*
X150814146Y-91658936D01*
X151214634Y-90694454D01*
X151214835Y-90464016D01*
X152185112Y-90464016D01*
X152410658Y-91009877D01*
X152827926Y-91427874D01*
X153373393Y-91654372D01*
X153964016Y-91654888D01*
X154509877Y-91429342D01*
X154927874Y-91012074D01*
X155154372Y-90466607D01*
X155154888Y-89875984D01*
X154929342Y-89330123D01*
X154512074Y-88912126D01*
X153966607Y-88685628D01*
X153375984Y-88685112D01*
X152830123Y-88910658D01*
X152412126Y-89327926D01*
X152185628Y-89873393D01*
X152185112Y-90464016D01*
X151214835Y-90464016D01*
X151215545Y-89650128D01*
X150816741Y-88684948D01*
X150078936Y-87945854D01*
X149114454Y-87545366D01*
X148070128Y-87544455D01*
X147104948Y-87943259D01*
X146490354Y-88556781D01*
X146714663Y-88016584D01*
X146715335Y-87246793D01*
X146421370Y-86535342D01*
X145877521Y-85990543D01*
X145166584Y-85695337D01*
X144396793Y-85694665D01*
X143685342Y-85988630D01*
X143140543Y-86532479D01*
X142845337Y-87243416D01*
X142844665Y-88013207D01*
X143135953Y-88718180D01*
X142670123Y-88910658D01*
X142252126Y-89327926D01*
X142025628Y-89873393D01*
X142025112Y-90464016D01*
X136104374Y-90464016D01*
X136104888Y-89875984D01*
X135879342Y-89330123D01*
X135462074Y-88912126D01*
X134916607Y-88685628D01*
X134325984Y-88685112D01*
X133780123Y-88910658D01*
X133362126Y-89327926D01*
X133135628Y-89873393D01*
X133135112Y-90464016D01*
X132164835Y-90464016D01*
X132165545Y-89650128D01*
X131766741Y-88684948D01*
X131028936Y-87945854D01*
X130064454Y-87545366D01*
X129020128Y-87544455D01*
X128054948Y-87943259D01*
X127440354Y-88556781D01*
X127664663Y-88016584D01*
X127665335Y-87246793D01*
X127371370Y-86535342D01*
X126827521Y-85990543D01*
X126116584Y-85695337D01*
X125346793Y-85694665D01*
X124635342Y-85988630D01*
X124090543Y-86532479D01*
X123795337Y-87243416D01*
X123794665Y-88013207D01*
X124085953Y-88718180D01*
X123620123Y-88910658D01*
X123202126Y-89327926D01*
X122975628Y-89873393D01*
X122975112Y-90464016D01*
X117054374Y-90464016D01*
X117054888Y-89875984D01*
X116829342Y-89330123D01*
X116412074Y-88912126D01*
X115866607Y-88685628D01*
X115275984Y-88685112D01*
X114730123Y-88910658D01*
X114312126Y-89327926D01*
X114085628Y-89873393D01*
X114085112Y-90464016D01*
X113114835Y-90464016D01*
X113115545Y-89650128D01*
X112716741Y-88684948D01*
X111978936Y-87945854D01*
X111014454Y-87545366D01*
X109970128Y-87544455D01*
X109004948Y-87943259D01*
X108390354Y-88556781D01*
X108614663Y-88016584D01*
X108615335Y-87246793D01*
X108321370Y-86535342D01*
X107777521Y-85990543D01*
X107066584Y-85695337D01*
X106296793Y-85694665D01*
X105585342Y-85988630D01*
X105040543Y-86532479D01*
X104745337Y-87243416D01*
X104744665Y-88013207D01*
X105035953Y-88718180D01*
X104570123Y-88910658D01*
X104152126Y-89327926D01*
X103925628Y-89873393D01*
X103925112Y-90464016D01*
X98004374Y-90464016D01*
X98004888Y-89875984D01*
X97779342Y-89330123D01*
X97362074Y-88912126D01*
X96816607Y-88685628D01*
X96225984Y-88685112D01*
X95680123Y-88910658D01*
X95262126Y-89327926D01*
X95035628Y-89873393D01*
X95035112Y-90464016D01*
X94064835Y-90464016D01*
X94065545Y-89650128D01*
X93666741Y-88684948D01*
X92928936Y-87945854D01*
X91964454Y-87545366D01*
X90920128Y-87544455D01*
X89954948Y-87943259D01*
X89340354Y-88556781D01*
X89564663Y-88016584D01*
X89565335Y-87246793D01*
X89271370Y-86535342D01*
X88727521Y-85990543D01*
X88016584Y-85695337D01*
X87246793Y-85694665D01*
X86535342Y-85988630D01*
X85990543Y-86532479D01*
X85695337Y-87243416D01*
X85694665Y-88013207D01*
X85985953Y-88718180D01*
X85520123Y-88910658D01*
X85102126Y-89327926D01*
X84875628Y-89873393D01*
X84875112Y-90464016D01*
X73244999Y-90464016D01*
X73244999Y-85473207D01*
X92044665Y-85473207D01*
X92338630Y-86184658D01*
X92882479Y-86729457D01*
X93593416Y-87024663D01*
X94363207Y-87025335D01*
X95074658Y-86731370D01*
X95619457Y-86187521D01*
X95914663Y-85476584D01*
X95914665Y-85473207D01*
X111094665Y-85473207D01*
X111388630Y-86184658D01*
X111932479Y-86729457D01*
X112643416Y-87024663D01*
X113413207Y-87025335D01*
X114124658Y-86731370D01*
X114669457Y-86187521D01*
X114964663Y-85476584D01*
X114964665Y-85473207D01*
X130144665Y-85473207D01*
X130438630Y-86184658D01*
X130982479Y-86729457D01*
X131693416Y-87024663D01*
X132463207Y-87025335D01*
X133174658Y-86731370D01*
X133719457Y-86187521D01*
X134014663Y-85476584D01*
X134014665Y-85473207D01*
X149194665Y-85473207D01*
X149488630Y-86184658D01*
X150032479Y-86729457D01*
X150743416Y-87024663D01*
X151513207Y-87025335D01*
X152224658Y-86731370D01*
X152769457Y-86187521D01*
X153064663Y-85476584D01*
X153065335Y-84706793D01*
X152771370Y-83995342D01*
X152227521Y-83450543D01*
X151516584Y-83155337D01*
X150746793Y-83154665D01*
X150035342Y-83448630D01*
X149490543Y-83992479D01*
X149195337Y-84703416D01*
X149194665Y-85473207D01*
X134014665Y-85473207D01*
X134015335Y-84706793D01*
X133721370Y-83995342D01*
X133177521Y-83450543D01*
X132466584Y-83155337D01*
X131696793Y-83154665D01*
X130985342Y-83448630D01*
X130440543Y-83992479D01*
X130145337Y-84703416D01*
X130144665Y-85473207D01*
X114964665Y-85473207D01*
X114965335Y-84706793D01*
X114671370Y-83995342D01*
X114127521Y-83450543D01*
X113416584Y-83155337D01*
X112646793Y-83154665D01*
X111935342Y-83448630D01*
X111390543Y-83992479D01*
X111095337Y-84703416D01*
X111094665Y-85473207D01*
X95914665Y-85473207D01*
X95915335Y-84706793D01*
X95621370Y-83995342D01*
X95077521Y-83450543D01*
X94366584Y-83155337D01*
X93596793Y-83154665D01*
X92885342Y-83448630D01*
X92340543Y-83992479D01*
X92045337Y-84703416D01*
X92044665Y-85473207D01*
X73244999Y-85473207D01*
X73244999Y-76474285D01*
X86244760Y-76474285D01*
X86455169Y-76983515D01*
X86844436Y-77373461D01*
X87353298Y-77584759D01*
X87904285Y-77585240D01*
X88413515Y-77374831D01*
X88803461Y-76985564D01*
X88899976Y-76753130D01*
X88995169Y-76983515D01*
X89384436Y-77373461D01*
X89893298Y-77584759D01*
X90444285Y-77585240D01*
X90953515Y-77374831D01*
X91343461Y-76985564D01*
X91439976Y-76753130D01*
X91535169Y-76983515D01*
X91924436Y-77373461D01*
X92433298Y-77584759D01*
X92984285Y-77585240D01*
X93493515Y-77374831D01*
X93883461Y-76985564D01*
X93979976Y-76753130D01*
X94075169Y-76983515D01*
X94464436Y-77373461D01*
X94973298Y-77584759D01*
X95524285Y-77585240D01*
X96033515Y-77374831D01*
X96423461Y-76985564D01*
X96634759Y-76476702D01*
X96635240Y-75925715D01*
X96424831Y-75416485D01*
X96035564Y-75026539D01*
X95526702Y-74815241D01*
X94975715Y-74814760D01*
X94466485Y-75025169D01*
X94076539Y-75414436D01*
X93980024Y-75646870D01*
X93884831Y-75416485D01*
X93495564Y-75026539D01*
X92986702Y-74815241D01*
X92435715Y-74814760D01*
X91926485Y-75025169D01*
X91536539Y-75414436D01*
X91440024Y-75646870D01*
X91344831Y-75416485D01*
X90955564Y-75026539D01*
X90446702Y-74815241D01*
X89895715Y-74814760D01*
X89386485Y-75025169D01*
X88996539Y-75414436D01*
X88900024Y-75646870D01*
X88804831Y-75416485D01*
X88415564Y-75026539D01*
X87906702Y-74815241D01*
X87355715Y-74814760D01*
X86846485Y-75025169D01*
X86456539Y-75414436D01*
X86245241Y-75923298D01*
X86244760Y-76474285D01*
X73244999Y-76474285D01*
X73244999Y-71414016D01*
X84875112Y-71414016D01*
X85100658Y-71959877D01*
X85517926Y-72377874D01*
X86063393Y-72604372D01*
X86654016Y-72604888D01*
X87199877Y-72379342D01*
X87617874Y-71962074D01*
X87844372Y-71416607D01*
X87844888Y-70825984D01*
X87716423Y-70515076D01*
X88013207Y-70515335D01*
X88724658Y-70221370D01*
X89144956Y-69801805D01*
X88815366Y-70595546D01*
X88814455Y-71639872D01*
X89213259Y-72605052D01*
X89951064Y-73344146D01*
X90915546Y-73744634D01*
X91959872Y-73745545D01*
X92925052Y-73346741D01*
X93664146Y-72608936D01*
X94064634Y-71644454D01*
X94064835Y-71414016D01*
X95035112Y-71414016D01*
X95260658Y-71959877D01*
X95677926Y-72377874D01*
X96223393Y-72604372D01*
X96814016Y-72604888D01*
X97359877Y-72379342D01*
X97777874Y-71962074D01*
X98004372Y-71416607D01*
X98004374Y-71414016D01*
X103925112Y-71414016D01*
X104150658Y-71959877D01*
X104567926Y-72377874D01*
X105113393Y-72604372D01*
X105704016Y-72604888D01*
X106249877Y-72379342D01*
X106667874Y-71962074D01*
X106894372Y-71416607D01*
X106894888Y-70825984D01*
X106766423Y-70515076D01*
X107063207Y-70515335D01*
X107774658Y-70221370D01*
X108194956Y-69801805D01*
X107865366Y-70595546D01*
X107864455Y-71639872D01*
X108263259Y-72605052D01*
X108740970Y-73083597D01*
X108682599Y-73122599D01*
X106980200Y-74824998D01*
X106956702Y-74815241D01*
X106405715Y-74814760D01*
X105896485Y-75025169D01*
X105506539Y-75414436D01*
X105295241Y-75923298D01*
X105294760Y-76474285D01*
X105505169Y-76983515D01*
X105894436Y-77373461D01*
X106403298Y-77584759D01*
X106954285Y-77585240D01*
X107463515Y-77374831D01*
X107853461Y-76985564D01*
X107949976Y-76753130D01*
X108045169Y-76983515D01*
X108434436Y-77373461D01*
X108943298Y-77584759D01*
X109494285Y-77585240D01*
X110003515Y-77374831D01*
X110393461Y-76985564D01*
X110489976Y-76753130D01*
X110585169Y-76983515D01*
X110974436Y-77373461D01*
X111483298Y-77584759D01*
X112034285Y-77585240D01*
X112059868Y-77574670D01*
X112297600Y-77812402D01*
X112544161Y-77977149D01*
X112835001Y-78035001D01*
X129734999Y-78035001D01*
X130025838Y-77977149D01*
X130272400Y-77812402D01*
X130509800Y-77575002D01*
X130533298Y-77584759D01*
X131084285Y-77585240D01*
X131593515Y-77374831D01*
X131983461Y-76985564D01*
X132079976Y-76753130D01*
X132175169Y-76983515D01*
X132564436Y-77373461D01*
X133073298Y-77584759D01*
X133624285Y-77585240D01*
X134133515Y-77374831D01*
X134523461Y-76985564D01*
X134734759Y-76476702D01*
X134735240Y-75925715D01*
X134524831Y-75416485D01*
X134135564Y-75026539D01*
X134083241Y-75004812D01*
X134052148Y-74848501D01*
X133887401Y-74601939D01*
X133043061Y-73757599D01*
X132796499Y-73592852D01*
X132505660Y-73535000D01*
X130569430Y-73535000D01*
X131025052Y-73346741D01*
X131764146Y-72608936D01*
X132164634Y-71644454D01*
X132164835Y-71414016D01*
X133135112Y-71414016D01*
X133360658Y-71959877D01*
X133777926Y-72377874D01*
X134323393Y-72604372D01*
X134914016Y-72604888D01*
X135459877Y-72379342D01*
X135877874Y-71962074D01*
X136104372Y-71416607D01*
X136104374Y-71414016D01*
X142025112Y-71414016D01*
X142250658Y-71959877D01*
X142667926Y-72377874D01*
X143213393Y-72604372D01*
X143804016Y-72604888D01*
X144349877Y-72379342D01*
X144480122Y-72249324D01*
X144479838Y-72575167D01*
X144621883Y-72918943D01*
X144655000Y-72952118D01*
X144655000Y-74295000D01*
X144712852Y-74585839D01*
X144769999Y-74671366D01*
X144769999Y-74814991D01*
X144505715Y-74814760D01*
X143996485Y-75025169D01*
X143606539Y-75414436D01*
X143395241Y-75923298D01*
X143394760Y-76474285D01*
X143605169Y-76983515D01*
X143994436Y-77373461D01*
X144503298Y-77584759D01*
X145054285Y-77585240D01*
X145563515Y-77374831D01*
X145953461Y-76985564D01*
X146049976Y-76753130D01*
X146145169Y-76983515D01*
X146534436Y-77373461D01*
X147043298Y-77584759D01*
X147594285Y-77585240D01*
X148103515Y-77374831D01*
X148493461Y-76985564D01*
X148589976Y-76753130D01*
X148685169Y-76983515D01*
X149074436Y-77373461D01*
X149583298Y-77584759D01*
X150134285Y-77585240D01*
X150643515Y-77374831D01*
X151033461Y-76985564D01*
X151129976Y-76753130D01*
X151225169Y-76983515D01*
X151614436Y-77373461D01*
X152123298Y-77584759D01*
X152674285Y-77585240D01*
X153183515Y-77374831D01*
X153573461Y-76985564D01*
X153784759Y-76476702D01*
X153785240Y-75925715D01*
X153574831Y-75416485D01*
X153185564Y-75026539D01*
X152676702Y-74815241D01*
X152125715Y-74814760D01*
X151616485Y-75025169D01*
X151226539Y-75414436D01*
X151130024Y-75646870D01*
X151034831Y-75416485D01*
X150645564Y-75026539D01*
X150136702Y-74815241D01*
X149585715Y-74814760D01*
X149076485Y-75025169D01*
X148686539Y-75414436D01*
X148590024Y-75646870D01*
X148494831Y-75416485D01*
X148105564Y-75026539D01*
X147596702Y-74815241D01*
X147045715Y-74814760D01*
X146536485Y-75025169D01*
X146289999Y-75271226D01*
X146289999Y-74409999D01*
X146232147Y-74119160D01*
X146175000Y-74033633D01*
X146175000Y-72952463D01*
X146207192Y-72920327D01*
X146349838Y-72576799D01*
X146349842Y-72572580D01*
X146363259Y-72605052D01*
X147101064Y-73344146D01*
X148065546Y-73744634D01*
X149109872Y-73745545D01*
X150075052Y-73346741D01*
X150814146Y-72608936D01*
X151214634Y-71644454D01*
X151214835Y-71414016D01*
X152185112Y-71414016D01*
X152410658Y-71959877D01*
X152827926Y-72377874D01*
X153373393Y-72604372D01*
X153964016Y-72604888D01*
X154509877Y-72379342D01*
X154927874Y-71962074D01*
X155154372Y-71416607D01*
X155154888Y-70825984D01*
X154929342Y-70280123D01*
X154512074Y-69862126D01*
X153966607Y-69635628D01*
X153375984Y-69635112D01*
X152830123Y-69860658D01*
X152412126Y-70277926D01*
X152185628Y-70823393D01*
X152185112Y-71414016D01*
X151214835Y-71414016D01*
X151215545Y-70600128D01*
X150816741Y-69634948D01*
X150078936Y-68895854D01*
X149114454Y-68495366D01*
X148070128Y-68494455D01*
X147104948Y-68893259D01*
X146490354Y-69506781D01*
X146714663Y-68966584D01*
X146715335Y-68196793D01*
X146421370Y-67485342D01*
X145877521Y-66940543D01*
X145166584Y-66645337D01*
X144396793Y-66644665D01*
X143685342Y-66938630D01*
X143140543Y-67482479D01*
X142845337Y-68193416D01*
X142844665Y-68963207D01*
X143135953Y-69668180D01*
X142670123Y-69860658D01*
X142252126Y-70277926D01*
X142025628Y-70823393D01*
X142025112Y-71414016D01*
X136104374Y-71414016D01*
X136104888Y-70825984D01*
X135879342Y-70280123D01*
X135462074Y-69862126D01*
X134916607Y-69635628D01*
X134325984Y-69635112D01*
X133780123Y-69860658D01*
X133362126Y-70277926D01*
X133135628Y-70823393D01*
X133135112Y-71414016D01*
X132164835Y-71414016D01*
X132165545Y-70600128D01*
X131766741Y-69634948D01*
X131028936Y-68895854D01*
X130064454Y-68495366D01*
X129020128Y-68494455D01*
X128054948Y-68893259D01*
X127440354Y-69506781D01*
X127664663Y-68966584D01*
X127665335Y-68196793D01*
X127371370Y-67485342D01*
X126827521Y-66940543D01*
X126489055Y-66800000D01*
X130300352Y-66800000D01*
X130438630Y-67134658D01*
X130982479Y-67679457D01*
X131693416Y-67974663D01*
X132463207Y-67975335D01*
X133174658Y-67681370D01*
X133719457Y-67137521D01*
X134014663Y-66426584D01*
X134015335Y-65656793D01*
X133721370Y-64945342D01*
X133177521Y-64400543D01*
X132466584Y-64105337D01*
X131696793Y-64104665D01*
X130985342Y-64398630D01*
X130440543Y-64942479D01*
X130300392Y-65280000D01*
X114809648Y-65280000D01*
X114671370Y-64945342D01*
X114127521Y-64400543D01*
X113416584Y-64105337D01*
X112646793Y-64104665D01*
X111935342Y-64398630D01*
X111390543Y-64942479D01*
X111095337Y-65653416D01*
X111094665Y-66423207D01*
X111388630Y-67134658D01*
X111932479Y-67679457D01*
X112643416Y-67974663D01*
X113413207Y-67975335D01*
X114124658Y-67681370D01*
X114669457Y-67137521D01*
X114809608Y-66800000D01*
X124970853Y-66800000D01*
X124635342Y-66938630D01*
X124090543Y-67482479D01*
X123795337Y-68193416D01*
X123794665Y-68963207D01*
X124085953Y-69668180D01*
X123620123Y-69860658D01*
X123202126Y-70277926D01*
X122975628Y-70823393D01*
X122975112Y-71414016D01*
X123064355Y-71630000D01*
X118037463Y-71630000D01*
X118005327Y-71597808D01*
X117661799Y-71455162D01*
X117289833Y-71454838D01*
X116986444Y-71580195D01*
X117054372Y-71416607D01*
X117054888Y-70825984D01*
X116829342Y-70280123D01*
X116412074Y-69862126D01*
X115866607Y-69635628D01*
X115275984Y-69635112D01*
X114730123Y-69860658D01*
X114312126Y-70277926D01*
X114085628Y-70823393D01*
X114085112Y-71414016D01*
X114310658Y-71959877D01*
X114727926Y-72377874D01*
X115273393Y-72604372D01*
X115864016Y-72604888D01*
X116409877Y-72379342D01*
X116540122Y-72249324D01*
X116539838Y-72575167D01*
X116674056Y-72900000D01*
X112422573Y-72900000D01*
X112714146Y-72608936D01*
X113114634Y-71644454D01*
X113115545Y-70600128D01*
X112716741Y-69634948D01*
X111978936Y-68895854D01*
X111014454Y-68495366D01*
X109970128Y-68494455D01*
X109004948Y-68893259D01*
X108390354Y-69506781D01*
X108614663Y-68966584D01*
X108615335Y-68196793D01*
X108321370Y-67485342D01*
X107777521Y-66940543D01*
X107066584Y-66645337D01*
X106296793Y-66644665D01*
X105585342Y-66938630D01*
X105040543Y-67482479D01*
X104745337Y-68193416D01*
X104744665Y-68963207D01*
X105035953Y-69668180D01*
X104570123Y-69860658D01*
X104152126Y-70277926D01*
X103925628Y-70823393D01*
X103925112Y-71414016D01*
X98004374Y-71414016D01*
X98004888Y-70825984D01*
X97779342Y-70280123D01*
X97362074Y-69862126D01*
X96816607Y-69635628D01*
X96225984Y-69635112D01*
X95680123Y-69860658D01*
X95262126Y-70277926D01*
X95035628Y-70823393D01*
X95035112Y-71414016D01*
X94064835Y-71414016D01*
X94065545Y-70600128D01*
X93666741Y-69634948D01*
X92928936Y-68895854D01*
X91964454Y-68495366D01*
X90920128Y-68494455D01*
X89954948Y-68893259D01*
X89340354Y-69506781D01*
X89564663Y-68966584D01*
X89565335Y-68196793D01*
X89271370Y-67485342D01*
X88727521Y-66940543D01*
X88016584Y-66645337D01*
X87246793Y-66644665D01*
X86535342Y-66938630D01*
X85990543Y-67482479D01*
X85695337Y-68193416D01*
X85694665Y-68963207D01*
X85985953Y-69668180D01*
X85520123Y-69860658D01*
X85102126Y-70277926D01*
X84875628Y-70823393D01*
X84875112Y-71414016D01*
X73244999Y-71414016D01*
X73244999Y-66423207D01*
X92044665Y-66423207D01*
X92338630Y-67134658D01*
X92882479Y-67679457D01*
X93593416Y-67974663D01*
X94363207Y-67975335D01*
X95074658Y-67681370D01*
X95619457Y-67137521D01*
X95914663Y-66426584D01*
X95915335Y-65656793D01*
X95621370Y-64945342D01*
X95077521Y-64400543D01*
X94366584Y-64105337D01*
X93596793Y-64104665D01*
X92885342Y-64398630D01*
X92340543Y-64942479D01*
X92045337Y-65653416D01*
X92044665Y-66423207D01*
X73244999Y-66423207D01*
X73244999Y-61145167D01*
X76407838Y-61145167D01*
X76549883Y-61488943D01*
X76583000Y-61522118D01*
X76583000Y-64207537D01*
X76550808Y-64239673D01*
X76408162Y-64583201D01*
X76407838Y-64955167D01*
X76549883Y-65298943D01*
X76812673Y-65562192D01*
X77156201Y-65704838D01*
X77528167Y-65705162D01*
X77871943Y-65563117D01*
X78135192Y-65300327D01*
X78277838Y-64956799D01*
X78278162Y-64584833D01*
X78136117Y-64241057D01*
X78103000Y-64207882D01*
X78103000Y-61522463D01*
X78135192Y-61490327D01*
X78277838Y-61146799D01*
X78278162Y-60774833D01*
X78136117Y-60431057D01*
X77873327Y-60167808D01*
X77529799Y-60025162D01*
X77157833Y-60024838D01*
X76814057Y-60166883D01*
X76550808Y-60429673D01*
X76408162Y-60773201D01*
X76407838Y-61145167D01*
X73244999Y-61145167D01*
X73244999Y-56661679D01*
X75680275Y-56661679D01*
X75680275Y-57252239D01*
X75776948Y-57485628D01*
X75955577Y-57664256D01*
X76188966Y-57760929D01*
X77029525Y-57760929D01*
X77188275Y-57602179D01*
X77188275Y-56502929D01*
X75839025Y-56502929D01*
X75680275Y-56661679D01*
X73244999Y-56661679D01*
X73244999Y-52085581D01*
X79665579Y-45665000D01*
X87493656Y-45665000D01*
X87536410Y-45731441D01*
X87748610Y-45876431D01*
X88000500Y-45927440D01*
X89651500Y-45927440D01*
X89886817Y-45883162D01*
X90102941Y-45744090D01*
X90247931Y-45531890D01*
X90298940Y-45280000D01*
X90298940Y-44714999D01*
X92507060Y-44714999D01*
X92507060Y-45280000D01*
G36*
X161752162Y-53915201D02*
X161751838Y-54287167D01*
X161893883Y-54630943D01*
X162156673Y-54894192D01*
X162500201Y-55036838D01*
X162872167Y-55037162D01*
X163215943Y-54895117D01*
X163249118Y-54862000D01*
X164403138Y-54862000D01*
X164397058Y-54870899D01*
X164391747Y-54897126D01*
X164358489Y-54930384D01*
X164358489Y-54997638D01*
X164367156Y-55018561D01*
X164346049Y-55122789D01*
X164346049Y-55341499D01*
X164206088Y-55435018D01*
X164131087Y-55510019D01*
X163966340Y-55756581D01*
X163908488Y-56047420D01*
X163966340Y-56338259D01*
X164131087Y-56584821D01*
X164346049Y-56728454D01*
X164346049Y-56822049D01*
X164370575Y-56952395D01*
X164346049Y-57073509D01*
X164346049Y-57472289D01*
X164370080Y-57600001D01*
X164346049Y-57718669D01*
X164346049Y-58117449D01*
X164370575Y-58247795D01*
X164346049Y-58368909D01*
X164346049Y-58767689D01*
X164370575Y-58898035D01*
X164346049Y-59019149D01*
X164346049Y-59417929D01*
X164370575Y-59548275D01*
X164346049Y-59669389D01*
X164346049Y-60068169D01*
X164370575Y-60198515D01*
X164346049Y-60319629D01*
X164346049Y-60718409D01*
X164390327Y-60953726D01*
X164529399Y-61169850D01*
X164741599Y-61314840D01*
X164993489Y-61365849D01*
X165346039Y-61365849D01*
X163572120Y-63139768D01*
X163471281Y-63070868D01*
X163219391Y-63019859D01*
X161719391Y-63019859D01*
X161561470Y-63049574D01*
X159877745Y-61365849D01*
X160393549Y-61365849D01*
X160628866Y-61321571D01*
X160694994Y-61279019D01*
X161901679Y-61279019D01*
X162192518Y-61221167D01*
X162439080Y-61056420D01*
X162833199Y-60662301D01*
X162878686Y-60662341D01*
X163222462Y-60520296D01*
X163485711Y-60257506D01*
X163628357Y-59913978D01*
X163628681Y-59542012D01*
X163486636Y-59198236D01*
X163223846Y-58934987D01*
X162880318Y-58792341D01*
X162508352Y-58792017D01*
X162164576Y-58934062D01*
X161901327Y-59196852D01*
X161758681Y-59540380D01*
X161758640Y-59587256D01*
X161586877Y-59759019D01*
X161040989Y-59759019D01*
X161040989Y-59669389D01*
X161016463Y-59539043D01*
X161040989Y-59417929D01*
X161040989Y-59019149D01*
X161016463Y-58888803D01*
X161040989Y-58767689D01*
X161040989Y-58368909D01*
X161016463Y-58238563D01*
X161040989Y-58117449D01*
X161040989Y-57718669D01*
X161016958Y-57590957D01*
X161040989Y-57472289D01*
X161040989Y-57073509D01*
X161016463Y-56943163D01*
X161040989Y-56822049D01*
X161040989Y-56423269D01*
X161016463Y-56292923D01*
X161040989Y-56171809D01*
X161040989Y-55773029D01*
X161016463Y-55642683D01*
X161040989Y-55521569D01*
X161040989Y-55122789D01*
X161020910Y-55016080D01*
X161028549Y-54997638D01*
X161028549Y-54930384D01*
X160999278Y-54901113D01*
X160996711Y-54887472D01*
X160857639Y-54671348D01*
X160740140Y-54591064D01*
X160834756Y-54572244D01*
X160869799Y-54572244D01*
X160878500Y-54563543D01*
X160945839Y-54550148D01*
X161192401Y-54385401D01*
X161815759Y-53762043D01*
X161752162Y-53915201D01*
X161752162Y-53915201D01*
G37*
X161752162Y-53915201D02*
X161751838Y-54287167D01*
X161893883Y-54630943D01*
X162156673Y-54894192D01*
X162500201Y-55036838D01*
X162872167Y-55037162D01*
X163215943Y-54895117D01*
X163249118Y-54862000D01*
X164403138Y-54862000D01*
X164397058Y-54870899D01*
X164391747Y-54897126D01*
X164358489Y-54930384D01*
X164358489Y-54997638D01*
X164367156Y-55018561D01*
X164346049Y-55122789D01*
X164346049Y-55341499D01*
X164206088Y-55435018D01*
X164131087Y-55510019D01*
X163966340Y-55756581D01*
X163908488Y-56047420D01*
X163966340Y-56338259D01*
X164131087Y-56584821D01*
X164346049Y-56728454D01*
X164346049Y-56822049D01*
X164370575Y-56952395D01*
X164346049Y-57073509D01*
X164346049Y-57472289D01*
X164370080Y-57600001D01*
X164346049Y-57718669D01*
X164346049Y-58117449D01*
X164370575Y-58247795D01*
X164346049Y-58368909D01*
X164346049Y-58767689D01*
X164370575Y-58898035D01*
X164346049Y-59019149D01*
X164346049Y-59417929D01*
X164370575Y-59548275D01*
X164346049Y-59669389D01*
X164346049Y-60068169D01*
X164370575Y-60198515D01*
X164346049Y-60319629D01*
X164346049Y-60718409D01*
X164390327Y-60953726D01*
X164529399Y-61169850D01*
X164741599Y-61314840D01*
X164993489Y-61365849D01*
X165346039Y-61365849D01*
X163572120Y-63139768D01*
X163471281Y-63070868D01*
X163219391Y-63019859D01*
X161719391Y-63019859D01*
X161561470Y-63049574D01*
X159877745Y-61365849D01*
X160393549Y-61365849D01*
X160628866Y-61321571D01*
X160694994Y-61279019D01*
X161901679Y-61279019D01*
X162192518Y-61221167D01*
X162439080Y-61056420D01*
X162833199Y-60662301D01*
X162878686Y-60662341D01*
X163222462Y-60520296D01*
X163485711Y-60257506D01*
X163628357Y-59913978D01*
X163628681Y-59542012D01*
X163486636Y-59198236D01*
X163223846Y-58934987D01*
X162880318Y-58792341D01*
X162508352Y-58792017D01*
X162164576Y-58934062D01*
X161901327Y-59196852D01*
X161758681Y-59540380D01*
X161758640Y-59587256D01*
X161586877Y-59759019D01*
X161040989Y-59759019D01*
X161040989Y-59669389D01*
X161016463Y-59539043D01*
X161040989Y-59417929D01*
X161040989Y-59019149D01*
X161016463Y-58888803D01*
X161040989Y-58767689D01*
X161040989Y-58368909D01*
X161016463Y-58238563D01*
X161040989Y-58117449D01*
X161040989Y-57718669D01*
X161016958Y-57590957D01*
X161040989Y-57472289D01*
X161040989Y-57073509D01*
X161016463Y-56943163D01*
X161040989Y-56822049D01*
X161040989Y-56423269D01*
X161016463Y-56292923D01*
X161040989Y-56171809D01*
X161040989Y-55773029D01*
X161016463Y-55642683D01*
X161040989Y-55521569D01*
X161040989Y-55122789D01*
X161020910Y-55016080D01*
X161028549Y-54997638D01*
X161028549Y-54930384D01*
X160999278Y-54901113D01*
X160996711Y-54887472D01*
X160857639Y-54671348D01*
X160740140Y-54591064D01*
X160834756Y-54572244D01*
X160869799Y-54572244D01*
X160878500Y-54563543D01*
X160945839Y-54550148D01*
X161192401Y-54385401D01*
X161815759Y-53762043D01*
X161752162Y-53915201D01*
G36*
X167008337Y-51292916D02*
X167008337Y-53753907D01*
X166955711Y-53675147D01*
X166845163Y-53564599D01*
X166598601Y-53399852D01*
X166307762Y-53342000D01*
X163249463Y-53342000D01*
X163217327Y-53309808D01*
X162873799Y-53167162D01*
X162501833Y-53166838D01*
X162346980Y-53230822D01*
X163969680Y-51608122D01*
X164015167Y-51608162D01*
X164358943Y-51466117D01*
X164622192Y-51203327D01*
X164764838Y-50859799D01*
X164765162Y-50487833D01*
X164623117Y-50144057D01*
X164517290Y-50038046D01*
X164622192Y-49933327D01*
X164764838Y-49589799D01*
X164765162Y-49217833D01*
X164735068Y-49145000D01*
X164860420Y-49145000D01*
X167008337Y-51292916D01*
X167008337Y-51292916D01*
G37*
X167008337Y-51292916D02*
X167008337Y-53753907D01*
X166955711Y-53675147D01*
X166845163Y-53564599D01*
X166598601Y-53399852D01*
X166307762Y-53342000D01*
X163249463Y-53342000D01*
X163217327Y-53309808D01*
X162873799Y-53167162D01*
X162501833Y-53166838D01*
X162346980Y-53230822D01*
X163969680Y-51608122D01*
X164015167Y-51608162D01*
X164358943Y-51466117D01*
X164622192Y-51203327D01*
X164764838Y-50859799D01*
X164765162Y-50487833D01*
X164623117Y-50144057D01*
X164517290Y-50038046D01*
X164622192Y-49933327D01*
X164764838Y-49589799D01*
X164765162Y-49217833D01*
X164735068Y-49145000D01*
X164860420Y-49145000D01*
X167008337Y-51292916D01*
G36*
X125522560Y-41999339D02*
X124177745Y-41999339D01*
X124125319Y-41963518D01*
X123873429Y-41912509D01*
X122773609Y-41912509D01*
X122538292Y-41956787D01*
X122472164Y-41999339D01*
X121281359Y-41999339D01*
X120990519Y-42057191D01*
X120743958Y-42221938D01*
X120389839Y-42576057D01*
X120344352Y-42576017D01*
X120000576Y-42718062D01*
X119737327Y-42980852D01*
X119594681Y-43324380D01*
X119594357Y-43696346D01*
X119736402Y-44040122D01*
X119999192Y-44303371D01*
X120342720Y-44446017D01*
X120714686Y-44446341D01*
X121058462Y-44304296D01*
X121321711Y-44041506D01*
X121464357Y-43697978D01*
X121464398Y-43651102D01*
X121596161Y-43519339D01*
X122126169Y-43519339D01*
X122126169Y-43608969D01*
X122150695Y-43739315D01*
X122126169Y-43860429D01*
X122126169Y-44259209D01*
X122150695Y-44389555D01*
X122126169Y-44510669D01*
X122126169Y-44909449D01*
X122150695Y-45039795D01*
X122126169Y-45160909D01*
X122126169Y-45559689D01*
X122150200Y-45687401D01*
X122126169Y-45806069D01*
X122126169Y-46204849D01*
X122150695Y-46335195D01*
X122126169Y-46456309D01*
X122126169Y-46855089D01*
X122150695Y-46985435D01*
X122126169Y-47106549D01*
X122126169Y-47505329D01*
X122150695Y-47635675D01*
X122126169Y-47756789D01*
X122126169Y-48155569D01*
X122146248Y-48262278D01*
X122138609Y-48280720D01*
X122138609Y-48347974D01*
X122167880Y-48377245D01*
X122170447Y-48390886D01*
X122309519Y-48607010D01*
X122454563Y-48706114D01*
X122297359Y-48706114D01*
X122138609Y-48864864D01*
X122138609Y-48932118D01*
X122235282Y-49165507D01*
X122413910Y-49344136D01*
X122647299Y-49440809D01*
X123037769Y-49440809D01*
X123196519Y-49282059D01*
X123196519Y-48803009D01*
X123450519Y-48803009D01*
X123450519Y-49282059D01*
X123609269Y-49440809D01*
X123999739Y-49440809D01*
X124233128Y-49344136D01*
X124379401Y-49197863D01*
X125738519Y-50556981D01*
X125738519Y-51006179D01*
X124576749Y-51006179D01*
X124576749Y-50916549D01*
X124532471Y-50681232D01*
X124393399Y-50465108D01*
X124181199Y-50320118D01*
X123929309Y-50269109D01*
X122829489Y-50269109D01*
X122594172Y-50313387D01*
X122528044Y-50355939D01*
X122066759Y-50355939D01*
X122066759Y-48916759D01*
X122008907Y-48625920D01*
X121844160Y-48379358D01*
X121458122Y-47993320D01*
X121458162Y-47947833D01*
X121316117Y-47604057D01*
X121053327Y-47340808D01*
X120709799Y-47198162D01*
X120337833Y-47197838D01*
X119994057Y-47339883D01*
X119730808Y-47602673D01*
X119588162Y-47946201D01*
X119587838Y-48318167D01*
X119729883Y-48661943D01*
X119870569Y-48802874D01*
X119829833Y-48802839D01*
X119486057Y-48944884D01*
X119452882Y-48978001D01*
X118789664Y-48978001D01*
X118808669Y-48932118D01*
X118808669Y-48864864D01*
X118649919Y-48706114D01*
X118490755Y-48706114D01*
X118625110Y-48619659D01*
X118770100Y-48407459D01*
X118775411Y-48381232D01*
X118808669Y-48347974D01*
X118808669Y-48280720D01*
X118800002Y-48259797D01*
X118821109Y-48155569D01*
X118821109Y-47756789D01*
X118796583Y-47626443D01*
X118821109Y-47505329D01*
X118821109Y-47106549D01*
X118796583Y-46976203D01*
X118821109Y-46855089D01*
X118821109Y-46456309D01*
X118796583Y-46325963D01*
X118821109Y-46204849D01*
X118821109Y-45806069D01*
X118797078Y-45678357D01*
X118821109Y-45559689D01*
X118821109Y-45160909D01*
X118796583Y-45030563D01*
X118821109Y-44909449D01*
X118821109Y-44510669D01*
X118796583Y-44380323D01*
X118821109Y-44259209D01*
X118821109Y-43860429D01*
X118796583Y-43730083D01*
X118821109Y-43608969D01*
X118821109Y-43210189D01*
X118796583Y-43079843D01*
X118821109Y-42958729D01*
X118821109Y-42559949D01*
X118776831Y-42324632D01*
X118637759Y-42108508D01*
X118425559Y-41963518D01*
X118173669Y-41912509D01*
X117073849Y-41912509D01*
X116838532Y-41956787D01*
X116772404Y-41999339D01*
X98210661Y-41999339D01*
X97919822Y-42057191D01*
X97673260Y-42221938D01*
X95452940Y-44442258D01*
X95452940Y-44280000D01*
X95408662Y-44044683D01*
X95269590Y-43828559D01*
X95076715Y-43696773D01*
X97586489Y-41186999D01*
X125522560Y-41186999D01*
X125522560Y-41999339D01*
X125522560Y-41999339D01*
G37*
X125522560Y-41999339D02*
X124177745Y-41999339D01*
X124125319Y-41963518D01*
X123873429Y-41912509D01*
X122773609Y-41912509D01*
X122538292Y-41956787D01*
X122472164Y-41999339D01*
X121281359Y-41999339D01*
X120990519Y-42057191D01*
X120743958Y-42221938D01*
X120389839Y-42576057D01*
X120344352Y-42576017D01*
X120000576Y-42718062D01*
X119737327Y-42980852D01*
X119594681Y-43324380D01*
X119594357Y-43696346D01*
X119736402Y-44040122D01*
X119999192Y-44303371D01*
X120342720Y-44446017D01*
X120714686Y-44446341D01*
X121058462Y-44304296D01*
X121321711Y-44041506D01*
X121464357Y-43697978D01*
X121464398Y-43651102D01*
X121596161Y-43519339D01*
X122126169Y-43519339D01*
X122126169Y-43608969D01*
X122150695Y-43739315D01*
X122126169Y-43860429D01*
X122126169Y-44259209D01*
X122150695Y-44389555D01*
X122126169Y-44510669D01*
X122126169Y-44909449D01*
X122150695Y-45039795D01*
X122126169Y-45160909D01*
X122126169Y-45559689D01*
X122150200Y-45687401D01*
X122126169Y-45806069D01*
X122126169Y-46204849D01*
X122150695Y-46335195D01*
X122126169Y-46456309D01*
X122126169Y-46855089D01*
X122150695Y-46985435D01*
X122126169Y-47106549D01*
X122126169Y-47505329D01*
X122150695Y-47635675D01*
X122126169Y-47756789D01*
X122126169Y-48155569D01*
X122146248Y-48262278D01*
X122138609Y-48280720D01*
X122138609Y-48347974D01*
X122167880Y-48377245D01*
X122170447Y-48390886D01*
X122309519Y-48607010D01*
X122454563Y-48706114D01*
X122297359Y-48706114D01*
X122138609Y-48864864D01*
X122138609Y-48932118D01*
X122235282Y-49165507D01*
X122413910Y-49344136D01*
X122647299Y-49440809D01*
X123037769Y-49440809D01*
X123196519Y-49282059D01*
X123196519Y-48803009D01*
X123450519Y-48803009D01*
X123450519Y-49282059D01*
X123609269Y-49440809D01*
X123999739Y-49440809D01*
X124233128Y-49344136D01*
X124379401Y-49197863D01*
X125738519Y-50556981D01*
X125738519Y-51006179D01*
X124576749Y-51006179D01*
X124576749Y-50916549D01*
X124532471Y-50681232D01*
X124393399Y-50465108D01*
X124181199Y-50320118D01*
X123929309Y-50269109D01*
X122829489Y-50269109D01*
X122594172Y-50313387D01*
X122528044Y-50355939D01*
X122066759Y-50355939D01*
X122066759Y-48916759D01*
X122008907Y-48625920D01*
X121844160Y-48379358D01*
X121458122Y-47993320D01*
X121458162Y-47947833D01*
X121316117Y-47604057D01*
X121053327Y-47340808D01*
X120709799Y-47198162D01*
X120337833Y-47197838D01*
X119994057Y-47339883D01*
X119730808Y-47602673D01*
X119588162Y-47946201D01*
X119587838Y-48318167D01*
X119729883Y-48661943D01*
X119870569Y-48802874D01*
X119829833Y-48802839D01*
X119486057Y-48944884D01*
X119452882Y-48978001D01*
X118789664Y-48978001D01*
X118808669Y-48932118D01*
X118808669Y-48864864D01*
X118649919Y-48706114D01*
X118490755Y-48706114D01*
X118625110Y-48619659D01*
X118770100Y-48407459D01*
X118775411Y-48381232D01*
X118808669Y-48347974D01*
X118808669Y-48280720D01*
X118800002Y-48259797D01*
X118821109Y-48155569D01*
X118821109Y-47756789D01*
X118796583Y-47626443D01*
X118821109Y-47505329D01*
X118821109Y-47106549D01*
X118796583Y-46976203D01*
X118821109Y-46855089D01*
X118821109Y-46456309D01*
X118796583Y-46325963D01*
X118821109Y-46204849D01*
X118821109Y-45806069D01*
X118797078Y-45678357D01*
X118821109Y-45559689D01*
X118821109Y-45160909D01*
X118796583Y-45030563D01*
X118821109Y-44909449D01*
X118821109Y-44510669D01*
X118796583Y-44380323D01*
X118821109Y-44259209D01*
X118821109Y-43860429D01*
X118796583Y-43730083D01*
X118821109Y-43608969D01*
X118821109Y-43210189D01*
X118796583Y-43079843D01*
X118821109Y-42958729D01*
X118821109Y-42559949D01*
X118776831Y-42324632D01*
X118637759Y-42108508D01*
X118425559Y-41963518D01*
X118173669Y-41912509D01*
X117073849Y-41912509D01*
X116838532Y-41956787D01*
X116772404Y-41999339D01*
X98210661Y-41999339D01*
X97919822Y-42057191D01*
X97673260Y-42221938D01*
X95452940Y-44442258D01*
X95452940Y-44280000D01*
X95408662Y-44044683D01*
X95269590Y-43828559D01*
X95076715Y-43696773D01*
X97586489Y-41186999D01*
X125522560Y-41186999D01*
X125522560Y-41999339D01*
M02*
