G04 #@! TF.FileFunction,Soldermask,Bot*
%FSLAX46Y46*%
G04 Gerber Fmt 4.6, Leading zero omitted, Abs format (unit mm)*
G04 Created by KiCad (PCBNEW 4.0.6) date 2017 August 09, Wednesday 05:31:59*
%MOMM*%
%LPD*%
G01*
G04 APERTURE LIST*
%ADD10C,0.100000*%
%ADD11C,4.380180*%
%ADD12C,3.000000*%
%ADD13C,2.099260*%
%ADD14C,1.900000*%
%ADD15R,1.300000X1.600000*%
%ADD16C,3.600000*%
%ADD17R,1.650000X1.900000*%
%ADD18R,2.100000X2.100000*%
%ADD19O,2.100000X2.100000*%
%ADD20R,1.900000X1.650000*%
G04 APERTURE END LIST*
D10*
D11*
X91440000Y-90170000D03*
D12*
X93980000Y-85090000D03*
X87630000Y-87630000D03*
D13*
X86360000Y-90170000D03*
X96520000Y-90170000D03*
D11*
X129540000Y-109220000D03*
D12*
X132080000Y-104140000D03*
X125730000Y-106680000D03*
D13*
X124460000Y-109220000D03*
X134620000Y-109220000D03*
D11*
X129540000Y-71120000D03*
D12*
X132080000Y-66040000D03*
X125730000Y-68580000D03*
D13*
X124460000Y-71120000D03*
X134620000Y-71120000D03*
D14*
X95237300Y-133324600D03*
X87617300Y-133324600D03*
X92697300Y-133324600D03*
X90157300Y-133324600D03*
D15*
X87997300Y-121894600D03*
X84697300Y-121894600D03*
D11*
X91427300Y-128244600D03*
D12*
X93967300Y-123164600D03*
X87617300Y-125704600D03*
D13*
X86347300Y-128244600D03*
X96507300Y-128244600D03*
D16*
X74930000Y-43180000D03*
X74930000Y-134620000D03*
X165100000Y-134620000D03*
D14*
X95250000Y-114300000D03*
X87630000Y-114300000D03*
X92710000Y-114300000D03*
X90170000Y-114300000D03*
X95250000Y-95250000D03*
X87630000Y-95250000D03*
X92710000Y-95250000D03*
X90170000Y-95250000D03*
X95250000Y-76200000D03*
X87630000Y-76200000D03*
X92710000Y-76200000D03*
X90170000Y-76200000D03*
X114300000Y-133350000D03*
X106680000Y-133350000D03*
X111760000Y-133350000D03*
X109220000Y-133350000D03*
X114300000Y-114300000D03*
X106680000Y-114300000D03*
X111760000Y-114300000D03*
X109220000Y-114300000D03*
X114300000Y-95250000D03*
X106680000Y-95250000D03*
X111760000Y-95250000D03*
X109220000Y-95250000D03*
X114300000Y-76200000D03*
X106680000Y-76200000D03*
X111760000Y-76200000D03*
X109220000Y-76200000D03*
X133350000Y-133350000D03*
X125730000Y-133350000D03*
X130810000Y-133350000D03*
X128270000Y-133350000D03*
X133350000Y-114300000D03*
X125730000Y-114300000D03*
X130810000Y-114300000D03*
X128270000Y-114300000D03*
X133350000Y-95250000D03*
X125730000Y-95250000D03*
X130810000Y-95250000D03*
X128270000Y-95250000D03*
X133350000Y-76200000D03*
X125730000Y-76200000D03*
X130810000Y-76200000D03*
X128270000Y-76200000D03*
X152400000Y-133350000D03*
X144780000Y-133350000D03*
X149860000Y-133350000D03*
X147320000Y-133350000D03*
X152400000Y-114300000D03*
X144780000Y-114300000D03*
X149860000Y-114300000D03*
X147320000Y-114300000D03*
X152400000Y-95250000D03*
X144780000Y-95250000D03*
X149860000Y-95250000D03*
X147320000Y-95250000D03*
X152400000Y-76200000D03*
X144780000Y-76200000D03*
X149860000Y-76200000D03*
X147320000Y-76200000D03*
D15*
X88010000Y-102870000D03*
X84710000Y-102870000D03*
X88010000Y-83820000D03*
X84710000Y-83820000D03*
X88010000Y-64770000D03*
X84710000Y-64770000D03*
X107060000Y-121920000D03*
X103760000Y-121920000D03*
X107060000Y-102870000D03*
X103760000Y-102870000D03*
X107060000Y-83820000D03*
X103760000Y-83820000D03*
X107060000Y-64770000D03*
X103760000Y-64770000D03*
X126110000Y-121920000D03*
X122810000Y-121920000D03*
X126110000Y-102870000D03*
X122810000Y-102870000D03*
X126110000Y-83820000D03*
X122810000Y-83820000D03*
X126110000Y-64770000D03*
X122810000Y-64770000D03*
X145160000Y-121920000D03*
X141860000Y-121920000D03*
X145160000Y-102870000D03*
X141860000Y-102870000D03*
X145160000Y-83820000D03*
X141860000Y-83820000D03*
X145160000Y-64770000D03*
X141860000Y-64770000D03*
D11*
X91440000Y-109220000D03*
D12*
X93980000Y-104140000D03*
X87630000Y-106680000D03*
D13*
X86360000Y-109220000D03*
X96520000Y-109220000D03*
D11*
X91440000Y-71120000D03*
D12*
X93980000Y-66040000D03*
X87630000Y-68580000D03*
D13*
X86360000Y-71120000D03*
X96520000Y-71120000D03*
D11*
X110490000Y-128270000D03*
D12*
X113030000Y-123190000D03*
X106680000Y-125730000D03*
D13*
X105410000Y-128270000D03*
X115570000Y-128270000D03*
D11*
X110490000Y-109220000D03*
D12*
X113030000Y-104140000D03*
X106680000Y-106680000D03*
D13*
X105410000Y-109220000D03*
X115570000Y-109220000D03*
D11*
X110490000Y-90170000D03*
D12*
X113030000Y-85090000D03*
X106680000Y-87630000D03*
D13*
X105410000Y-90170000D03*
X115570000Y-90170000D03*
D11*
X110490000Y-71120000D03*
D12*
X113030000Y-66040000D03*
X106680000Y-68580000D03*
D13*
X105410000Y-71120000D03*
X115570000Y-71120000D03*
D11*
X129540000Y-128270000D03*
D12*
X132080000Y-123190000D03*
X125730000Y-125730000D03*
D13*
X124460000Y-128270000D03*
X134620000Y-128270000D03*
D11*
X129540000Y-90170000D03*
D12*
X132080000Y-85090000D03*
X125730000Y-87630000D03*
D13*
X124460000Y-90170000D03*
X134620000Y-90170000D03*
D11*
X148590000Y-128270000D03*
D12*
X151130000Y-123190000D03*
X144780000Y-125730000D03*
D13*
X143510000Y-128270000D03*
X153670000Y-128270000D03*
D11*
X148590000Y-109220000D03*
D12*
X151130000Y-104140000D03*
X144780000Y-106680000D03*
D13*
X143510000Y-109220000D03*
X153670000Y-109220000D03*
D11*
X148590000Y-90170000D03*
D12*
X151130000Y-85090000D03*
X144780000Y-87630000D03*
D13*
X143510000Y-90170000D03*
X153670000Y-90170000D03*
D11*
X148590000Y-71120000D03*
D12*
X151130000Y-66040000D03*
X144780000Y-68580000D03*
D13*
X143510000Y-71120000D03*
X153670000Y-71120000D03*
D16*
X165100000Y-43180000D03*
D17*
X162693519Y-57227179D03*
X162693519Y-59727179D03*
X120529519Y-54393179D03*
X120529519Y-51893179D03*
X120529519Y-46011179D03*
X120529519Y-43511179D03*
D18*
X166370000Y-101600000D03*
D19*
X166370000Y-104140000D03*
X166370000Y-106680000D03*
X166370000Y-109220000D03*
X166370000Y-111760000D03*
X166370000Y-114300000D03*
X166370000Y-116840000D03*
X166370000Y-119380000D03*
X166370000Y-121920000D03*
D18*
X73660000Y-101600000D03*
D19*
X73660000Y-104140000D03*
X73660000Y-106680000D03*
X73660000Y-109220000D03*
X73660000Y-111760000D03*
X73660000Y-114300000D03*
X73660000Y-116840000D03*
X73660000Y-119380000D03*
X73660000Y-121920000D03*
D18*
X156243282Y-47061420D03*
D19*
X156243282Y-49601420D03*
X153703282Y-47061420D03*
X153703282Y-49601420D03*
X151163282Y-47061420D03*
X151163282Y-49601420D03*
D18*
X156210000Y-41910000D03*
D19*
X153670000Y-41910000D03*
X151130000Y-41910000D03*
X148590000Y-41910000D03*
D20*
X136612000Y-45847000D03*
X134112000Y-45847000D03*
D17*
X136779000Y-51268000D03*
X136779000Y-48768000D03*
X133985000Y-48808000D03*
X133985000Y-51308000D03*
D20*
X134112000Y-54229000D03*
X136612000Y-54229000D03*
M02*
