G04 #@! TF.FileFunction,Paste,Bot*
%FSLAX46Y46*%
G04 Gerber Fmt 4.6, Leading zero omitted, Abs format (unit mm)*
G04 Created by KiCad (PCBNEW 4.0.6) date 2017 July 07, Friday 18:31:51*
%MOMM*%
%LPD*%
G01*
G04 APERTURE LIST*
%ADD10C,0.100000*%
%ADD11R,0.900000X1.200000*%
%ADD12R,1.250000X1.500000*%
%ADD13R,1.500000X1.250000*%
G04 APERTURE END LIST*
D10*
D11*
X87997300Y-121894600D03*
X84697300Y-121894600D03*
X88010000Y-102870000D03*
X84710000Y-102870000D03*
X88010000Y-83820000D03*
X84710000Y-83820000D03*
X88010000Y-64770000D03*
X84710000Y-64770000D03*
X107060000Y-121920000D03*
X103760000Y-121920000D03*
X107060000Y-102870000D03*
X103760000Y-102870000D03*
X107060000Y-83820000D03*
X103760000Y-83820000D03*
X107060000Y-64770000D03*
X103760000Y-64770000D03*
X126110000Y-121920000D03*
X122810000Y-121920000D03*
X126110000Y-102870000D03*
X122810000Y-102870000D03*
X126110000Y-83820000D03*
X122810000Y-83820000D03*
X126110000Y-64770000D03*
X122810000Y-64770000D03*
X145160000Y-121920000D03*
X141860000Y-121920000D03*
X145160000Y-102870000D03*
X141860000Y-102870000D03*
X145160000Y-83820000D03*
X141860000Y-83820000D03*
X145160000Y-64770000D03*
X141860000Y-64770000D03*
D12*
X162693519Y-57227179D03*
X162693519Y-59727179D03*
X120529519Y-54393179D03*
X120529519Y-51893179D03*
X120529519Y-46011179D03*
X120529519Y-43511179D03*
D13*
X136612000Y-45847000D03*
X134112000Y-45847000D03*
D12*
X136779000Y-51268000D03*
X136779000Y-48768000D03*
X133985000Y-48808000D03*
X133985000Y-51308000D03*
D13*
X134112000Y-54229000D03*
X136612000Y-54229000D03*
M02*
