G04 #@! TF.FileFunction,Legend,Bot*
%FSLAX46Y46*%
G04 Gerber Fmt 4.6, Leading zero omitted, Abs format (unit mm)*
G04 Created by KiCad (PCBNEW 4.0.6) date 2017 May 14, Sunday 21:17:59*
%MOMM*%
%LPD*%
G01*
G04 APERTURE LIST*
%ADD10C,0.100000*%
%ADD11C,0.250000*%
%ADD12C,0.300000*%
%ADD13C,0.120000*%
%ADD14C,0.010000*%
%ADD15C,0.150000*%
G04 APERTURE END LIST*
D10*
D11*
X75763333Y-84306998D02*
X75715714Y-84259378D01*
X75572857Y-84164140D01*
X75477619Y-84116521D01*
X75334762Y-84068902D01*
X75096667Y-84021283D01*
X74906190Y-84021283D01*
X74668095Y-84068902D01*
X74525238Y-84116521D01*
X74430000Y-84164140D01*
X74287143Y-84259378D01*
X74239524Y-84306998D01*
X75334762Y-85116522D02*
X75382381Y-85021284D01*
X75382381Y-84830807D01*
X75334762Y-84735569D01*
X75287143Y-84687950D01*
X75191905Y-84640331D01*
X74906190Y-84640331D01*
X74810952Y-84687950D01*
X74763333Y-84735569D01*
X74715714Y-84830807D01*
X74715714Y-85021284D01*
X74763333Y-85116522D01*
X75763333Y-85449855D02*
X75715714Y-85497474D01*
X75572857Y-85592712D01*
X75477619Y-85640331D01*
X75334762Y-85687950D01*
X75096667Y-85735569D01*
X74906190Y-85735569D01*
X74668095Y-85687950D01*
X74525238Y-85640331D01*
X74430000Y-85592712D01*
X74287143Y-85497474D01*
X74239524Y-85449855D01*
X74477619Y-86926046D02*
X74430000Y-86973665D01*
X74382381Y-87068903D01*
X74382381Y-87306999D01*
X74430000Y-87402237D01*
X74477619Y-87449856D01*
X74572857Y-87497475D01*
X74668095Y-87497475D01*
X74810952Y-87449856D01*
X75382381Y-86878427D01*
X75382381Y-87497475D01*
X74382381Y-88116522D02*
X74382381Y-88211761D01*
X74430000Y-88306999D01*
X74477619Y-88354618D01*
X74572857Y-88402237D01*
X74763333Y-88449856D01*
X75001429Y-88449856D01*
X75191905Y-88402237D01*
X75287143Y-88354618D01*
X75334762Y-88306999D01*
X75382381Y-88211761D01*
X75382381Y-88116522D01*
X75334762Y-88021284D01*
X75287143Y-87973665D01*
X75191905Y-87926046D01*
X75001429Y-87878427D01*
X74763333Y-87878427D01*
X74572857Y-87926046D01*
X74477619Y-87973665D01*
X74430000Y-88021284D01*
X74382381Y-88116522D01*
X75382381Y-89402237D02*
X75382381Y-88830808D01*
X75382381Y-89116522D02*
X74382381Y-89116522D01*
X74525238Y-89021284D01*
X74620476Y-88926046D01*
X74668095Y-88830808D01*
X74382381Y-89735570D02*
X74382381Y-90402237D01*
X75382381Y-89973665D01*
X75382381Y-91545094D02*
X74382381Y-91545094D01*
X74763333Y-91545094D02*
X74715714Y-91640332D01*
X74715714Y-91830809D01*
X74763333Y-91926047D01*
X74810952Y-91973666D01*
X74906190Y-92021285D01*
X75191905Y-92021285D01*
X75287143Y-91973666D01*
X75334762Y-91926047D01*
X75382381Y-91830809D01*
X75382381Y-91640332D01*
X75334762Y-91545094D01*
X74715714Y-92354618D02*
X75382381Y-92592713D01*
X74715714Y-92830809D02*
X75382381Y-92592713D01*
X75620476Y-92497475D01*
X75668095Y-92449856D01*
X75715714Y-92354618D01*
X74382381Y-94259381D02*
X75096667Y-94259381D01*
X75239524Y-94211761D01*
X75334762Y-94116523D01*
X75382381Y-93973666D01*
X75382381Y-93878428D01*
X74715714Y-95164143D02*
X75382381Y-95164143D01*
X74715714Y-94735571D02*
X75239524Y-94735571D01*
X75334762Y-94783190D01*
X75382381Y-94878428D01*
X75382381Y-95021286D01*
X75334762Y-95116524D01*
X75287143Y-95164143D01*
X75334762Y-96021286D02*
X75382381Y-95926048D01*
X75382381Y-95735571D01*
X75334762Y-95640333D01*
X75239524Y-95592714D01*
X74858571Y-95592714D01*
X74763333Y-95640333D01*
X74715714Y-95735571D01*
X74715714Y-95926048D01*
X74763333Y-96021286D01*
X74858571Y-96068905D01*
X74953810Y-96068905D01*
X75049048Y-95592714D01*
X75382381Y-96497476D02*
X74715714Y-96497476D01*
X74906190Y-96497476D02*
X74810952Y-96545095D01*
X74763333Y-96592714D01*
X74715714Y-96687952D01*
X74715714Y-96783191D01*
X74715714Y-97545096D02*
X75525238Y-97545096D01*
X75620476Y-97497477D01*
X75668095Y-97449858D01*
X75715714Y-97354619D01*
X75715714Y-97211762D01*
X75668095Y-97116524D01*
X75334762Y-97545096D02*
X75382381Y-97449858D01*
X75382381Y-97259381D01*
X75334762Y-97164143D01*
X75287143Y-97116524D01*
X75191905Y-97068905D01*
X74906190Y-97068905D01*
X74810952Y-97116524D01*
X74763333Y-97164143D01*
X74715714Y-97259381D01*
X74715714Y-97449858D01*
X74763333Y-97545096D01*
X75334762Y-98402239D02*
X75382381Y-98307001D01*
X75382381Y-98116524D01*
X75334762Y-98021286D01*
X75239524Y-97973667D01*
X74858571Y-97973667D01*
X74763333Y-98021286D01*
X74715714Y-98116524D01*
X74715714Y-98307001D01*
X74763333Y-98402239D01*
X74858571Y-98449858D01*
X74953810Y-98449858D01*
X75049048Y-97973667D01*
X74715714Y-98878429D02*
X75382381Y-98878429D01*
X74810952Y-98878429D02*
X74763333Y-98926048D01*
X74715714Y-99021286D01*
X74715714Y-99164144D01*
X74763333Y-99259382D01*
X74858571Y-99307001D01*
X75382381Y-99307001D01*
X75334762Y-100497477D02*
X75382381Y-100640334D01*
X75382381Y-100878430D01*
X75334762Y-100973668D01*
X75287143Y-101021287D01*
X75191905Y-101068906D01*
X75096667Y-101068906D01*
X75001429Y-101021287D01*
X74953810Y-100973668D01*
X74906190Y-100878430D01*
X74858571Y-100687953D01*
X74810952Y-100592715D01*
X74763333Y-100545096D01*
X74668095Y-100497477D01*
X74572857Y-100497477D01*
X74477619Y-100545096D01*
X74430000Y-100592715D01*
X74382381Y-100687953D01*
X74382381Y-100926049D01*
X74430000Y-101068906D01*
X75382381Y-101497477D02*
X74382381Y-101497477D01*
X75001429Y-101592715D02*
X75382381Y-101878430D01*
X74715714Y-101878430D02*
X75096667Y-101497477D01*
X75382381Y-102307001D02*
X74715714Y-102307001D01*
X74906190Y-102307001D02*
X74810952Y-102354620D01*
X74763333Y-102402239D01*
X74715714Y-102497477D01*
X74715714Y-102592716D01*
X75382381Y-103068906D02*
X75334762Y-102973668D01*
X75287143Y-102926049D01*
X75191905Y-102878430D01*
X74906190Y-102878430D01*
X74810952Y-102926049D01*
X74763333Y-102973668D01*
X74715714Y-103068906D01*
X74715714Y-103211764D01*
X74763333Y-103307002D01*
X74810952Y-103354621D01*
X74906190Y-103402240D01*
X75191905Y-103402240D01*
X75287143Y-103354621D01*
X75334762Y-103307002D01*
X75382381Y-103211764D01*
X75382381Y-103068906D01*
X74715714Y-103687954D02*
X74715714Y-104068906D01*
X74382381Y-103830811D02*
X75239524Y-103830811D01*
X75334762Y-103878430D01*
X75382381Y-103973668D01*
X75382381Y-104068906D01*
X74715714Y-104307002D02*
X74715714Y-104830812D01*
X75382381Y-104307002D01*
X75382381Y-104830812D01*
X75382381Y-105211764D02*
X74382381Y-105211764D01*
X75001429Y-105307002D02*
X75382381Y-105592717D01*
X74715714Y-105592717D02*
X75096667Y-105211764D01*
X74715714Y-105926050D02*
X75382381Y-106164145D01*
X74715714Y-106402241D02*
X75382381Y-106164145D01*
X75620476Y-106068907D01*
X75668095Y-106021288D01*
X75715714Y-105926050D01*
X75763333Y-107830813D02*
X75715714Y-107783193D01*
X75572857Y-107687955D01*
X75477619Y-107640336D01*
X75334762Y-107592717D01*
X75096667Y-107545098D01*
X74906190Y-107545098D01*
X74668095Y-107592717D01*
X74525238Y-107640336D01*
X74430000Y-107687955D01*
X74287143Y-107783193D01*
X74239524Y-107830813D01*
X74382381Y-108497480D02*
X75096667Y-108497480D01*
X75239524Y-108449860D01*
X75334762Y-108354622D01*
X75382381Y-108211765D01*
X75382381Y-108116527D01*
X75382381Y-109116527D02*
X75334762Y-109021289D01*
X75287143Y-108973670D01*
X75191905Y-108926051D01*
X74906190Y-108926051D01*
X74810952Y-108973670D01*
X74763333Y-109021289D01*
X74715714Y-109116527D01*
X74715714Y-109259385D01*
X74763333Y-109354623D01*
X74810952Y-109402242D01*
X74906190Y-109449861D01*
X75191905Y-109449861D01*
X75287143Y-109402242D01*
X75334762Y-109354623D01*
X75382381Y-109259385D01*
X75382381Y-109116527D01*
X75382381Y-109878432D02*
X74715714Y-109878432D01*
X74906190Y-109878432D02*
X74810952Y-109926051D01*
X74763333Y-109973670D01*
X74715714Y-110068908D01*
X74715714Y-110164147D01*
X74715714Y-110926052D02*
X75525238Y-110926052D01*
X75620476Y-110878433D01*
X75668095Y-110830814D01*
X75715714Y-110735575D01*
X75715714Y-110592718D01*
X75668095Y-110497480D01*
X75334762Y-110926052D02*
X75382381Y-110830814D01*
X75382381Y-110640337D01*
X75334762Y-110545099D01*
X75287143Y-110497480D01*
X75191905Y-110449861D01*
X74906190Y-110449861D01*
X74810952Y-110497480D01*
X74763333Y-110545099D01*
X74715714Y-110640337D01*
X74715714Y-110830814D01*
X74763333Y-110926052D01*
X75334762Y-111783195D02*
X75382381Y-111687957D01*
X75382381Y-111497480D01*
X75334762Y-111402242D01*
X75239524Y-111354623D01*
X74858571Y-111354623D01*
X74763333Y-111402242D01*
X74715714Y-111497480D01*
X74715714Y-111687957D01*
X74763333Y-111783195D01*
X74858571Y-111830814D01*
X74953810Y-111830814D01*
X75049048Y-111354623D01*
X74715714Y-112259385D02*
X75382381Y-112259385D01*
X74810952Y-112259385D02*
X74763333Y-112307004D01*
X74715714Y-112402242D01*
X74715714Y-112545100D01*
X74763333Y-112640338D01*
X74858571Y-112687957D01*
X75382381Y-112687957D01*
X74382381Y-113021290D02*
X75382381Y-113354623D01*
X74382381Y-113687957D01*
X75382381Y-114021290D02*
X74715714Y-114021290D01*
X74382381Y-114021290D02*
X74430000Y-113973671D01*
X74477619Y-114021290D01*
X74430000Y-114068909D01*
X74382381Y-114021290D01*
X74477619Y-114021290D01*
X75382381Y-114497480D02*
X74382381Y-114497480D01*
X75001429Y-114592718D02*
X75382381Y-114878433D01*
X74715714Y-114878433D02*
X75096667Y-114497480D01*
X75382381Y-115307004D02*
X74715714Y-115307004D01*
X74382381Y-115307004D02*
X74430000Y-115259385D01*
X74477619Y-115307004D01*
X74430000Y-115354623D01*
X74382381Y-115307004D01*
X74477619Y-115307004D01*
X74715714Y-115783194D02*
X75382381Y-115783194D01*
X74810952Y-115783194D02*
X74763333Y-115830813D01*
X74715714Y-115926051D01*
X74715714Y-116068909D01*
X74763333Y-116164147D01*
X74858571Y-116211766D01*
X75382381Y-116211766D01*
X74715714Y-117116528D02*
X75525238Y-117116528D01*
X75620476Y-117068909D01*
X75668095Y-117021290D01*
X75715714Y-116926051D01*
X75715714Y-116783194D01*
X75668095Y-116687956D01*
X75334762Y-117116528D02*
X75382381Y-117021290D01*
X75382381Y-116830813D01*
X75334762Y-116735575D01*
X75287143Y-116687956D01*
X75191905Y-116640337D01*
X74906190Y-116640337D01*
X74810952Y-116687956D01*
X74763333Y-116735575D01*
X74715714Y-116830813D01*
X74715714Y-117021290D01*
X74763333Y-117116528D01*
X74430000Y-118116528D02*
X74382381Y-118021290D01*
X74382381Y-117878433D01*
X74430000Y-117735575D01*
X74525238Y-117640337D01*
X74620476Y-117592718D01*
X74810952Y-117545099D01*
X74953810Y-117545099D01*
X75144286Y-117592718D01*
X75239524Y-117640337D01*
X75334762Y-117735575D01*
X75382381Y-117878433D01*
X75382381Y-117973671D01*
X75334762Y-118116528D01*
X75287143Y-118164147D01*
X74953810Y-118164147D01*
X74953810Y-117973671D01*
X75382381Y-118735575D02*
X75334762Y-118640337D01*
X75287143Y-118592718D01*
X75191905Y-118545099D01*
X74906190Y-118545099D01*
X74810952Y-118592718D01*
X74763333Y-118640337D01*
X74715714Y-118735575D01*
X74715714Y-118878433D01*
X74763333Y-118973671D01*
X74810952Y-119021290D01*
X74906190Y-119068909D01*
X75191905Y-119068909D01*
X75287143Y-119021290D01*
X75334762Y-118973671D01*
X75382381Y-118878433D01*
X75382381Y-118735575D01*
X75382381Y-119926052D02*
X74382381Y-119926052D01*
X75334762Y-119926052D02*
X75382381Y-119830814D01*
X75382381Y-119640337D01*
X75334762Y-119545099D01*
X75287143Y-119497480D01*
X75191905Y-119449861D01*
X74906190Y-119449861D01*
X74810952Y-119497480D01*
X74763333Y-119545099D01*
X74715714Y-119640337D01*
X74715714Y-119830814D01*
X74763333Y-119926052D01*
X74906190Y-121021290D02*
X74858571Y-120973671D01*
X74810952Y-120878433D01*
X74810952Y-120783195D01*
X74858571Y-120687957D01*
X74906190Y-120640337D01*
X75001429Y-120592718D01*
X75096667Y-120592718D01*
X75191905Y-120640337D01*
X75239524Y-120687957D01*
X75287143Y-120783195D01*
X75287143Y-120878433D01*
X75239524Y-120973671D01*
X75191905Y-121021290D01*
X74810952Y-121021290D02*
X75191905Y-121021290D01*
X75239524Y-121068909D01*
X75239524Y-121116528D01*
X75191905Y-121211766D01*
X75096667Y-121259385D01*
X74858571Y-121259385D01*
X74715714Y-121164147D01*
X74620476Y-121021290D01*
X74572857Y-120830814D01*
X74620476Y-120640337D01*
X74715714Y-120497480D01*
X74858571Y-120402242D01*
X75049048Y-120354623D01*
X75239524Y-120402242D01*
X75382381Y-120497480D01*
X75477619Y-120640337D01*
X75525238Y-120830814D01*
X75477619Y-121021290D01*
X75382381Y-121164147D01*
X74715714Y-122116528D02*
X75525238Y-122116528D01*
X75620476Y-122068909D01*
X75668095Y-122021290D01*
X75715714Y-121926051D01*
X75715714Y-121783194D01*
X75668095Y-121687956D01*
X75334762Y-122116528D02*
X75382381Y-122021290D01*
X75382381Y-121830813D01*
X75334762Y-121735575D01*
X75287143Y-121687956D01*
X75191905Y-121640337D01*
X74906190Y-121640337D01*
X74810952Y-121687956D01*
X74763333Y-121735575D01*
X74715714Y-121830813D01*
X74715714Y-122021290D01*
X74763333Y-122116528D01*
X75382381Y-122592718D02*
X74715714Y-122592718D01*
X74810952Y-122592718D02*
X74763333Y-122640337D01*
X74715714Y-122735575D01*
X74715714Y-122878433D01*
X74763333Y-122973671D01*
X74858571Y-123021290D01*
X75382381Y-123021290D01*
X74858571Y-123021290D02*
X74763333Y-123068909D01*
X74715714Y-123164147D01*
X74715714Y-123307004D01*
X74763333Y-123402242D01*
X74858571Y-123449861D01*
X75382381Y-123449861D01*
X75382381Y-124354623D02*
X74858571Y-124354623D01*
X74763333Y-124307004D01*
X74715714Y-124211766D01*
X74715714Y-124021289D01*
X74763333Y-123926051D01*
X75334762Y-124354623D02*
X75382381Y-124259385D01*
X75382381Y-124021289D01*
X75334762Y-123926051D01*
X75239524Y-123878432D01*
X75144286Y-123878432D01*
X75049048Y-123926051D01*
X75001429Y-124021289D01*
X75001429Y-124259385D01*
X74953810Y-124354623D01*
X75382381Y-124830813D02*
X74715714Y-124830813D01*
X74382381Y-124830813D02*
X74430000Y-124783194D01*
X74477619Y-124830813D01*
X74430000Y-124878432D01*
X74382381Y-124830813D01*
X74477619Y-124830813D01*
X75382381Y-125449860D02*
X75334762Y-125354622D01*
X75239524Y-125307003D01*
X74382381Y-125307003D01*
X75287143Y-125830813D02*
X75334762Y-125878432D01*
X75382381Y-125830813D01*
X75334762Y-125783194D01*
X75287143Y-125830813D01*
X75382381Y-125830813D01*
X75334762Y-126735575D02*
X75382381Y-126640337D01*
X75382381Y-126449860D01*
X75334762Y-126354622D01*
X75287143Y-126307003D01*
X75191905Y-126259384D01*
X74906190Y-126259384D01*
X74810952Y-126307003D01*
X74763333Y-126354622D01*
X74715714Y-126449860D01*
X74715714Y-126640337D01*
X74763333Y-126735575D01*
X75382381Y-127307003D02*
X75334762Y-127211765D01*
X75287143Y-127164146D01*
X75191905Y-127116527D01*
X74906190Y-127116527D01*
X74810952Y-127164146D01*
X74763333Y-127211765D01*
X74715714Y-127307003D01*
X74715714Y-127449861D01*
X74763333Y-127545099D01*
X74810952Y-127592718D01*
X74906190Y-127640337D01*
X75191905Y-127640337D01*
X75287143Y-127592718D01*
X75334762Y-127545099D01*
X75382381Y-127449861D01*
X75382381Y-127307003D01*
X75382381Y-128068908D02*
X74715714Y-128068908D01*
X74810952Y-128068908D02*
X74763333Y-128116527D01*
X74715714Y-128211765D01*
X74715714Y-128354623D01*
X74763333Y-128449861D01*
X74858571Y-128497480D01*
X75382381Y-128497480D01*
X74858571Y-128497480D02*
X74763333Y-128545099D01*
X74715714Y-128640337D01*
X74715714Y-128783194D01*
X74763333Y-128878432D01*
X74858571Y-128926051D01*
X75382381Y-128926051D01*
X75763333Y-129307003D02*
X75715714Y-129354622D01*
X75572857Y-129449860D01*
X75477619Y-129497479D01*
X75334762Y-129545098D01*
X75096667Y-129592717D01*
X74906190Y-129592717D01*
X74668095Y-129545098D01*
X74525238Y-129497479D01*
X74430000Y-129449860D01*
X74287143Y-129354622D01*
X74239524Y-129307003D01*
D12*
X149665716Y-41318571D02*
X149665716Y-39818571D01*
X149022859Y-41318571D02*
X149022859Y-40532857D01*
X149094288Y-40390000D01*
X149237145Y-40318571D01*
X149451430Y-40318571D01*
X149594288Y-40390000D01*
X149665716Y-40461429D01*
X148522859Y-40318571D02*
X147951430Y-40318571D01*
X148308573Y-39818571D02*
X148308573Y-41104286D01*
X148237145Y-41247143D01*
X148094287Y-41318571D01*
X147951430Y-41318571D01*
X147665716Y-40318571D02*
X147094287Y-40318571D01*
X147451430Y-39818571D02*
X147451430Y-41104286D01*
X147380002Y-41247143D01*
X147237144Y-41318571D01*
X147094287Y-41318571D01*
X146594287Y-40318571D02*
X146594287Y-41818571D01*
X146594287Y-40390000D02*
X146451430Y-40318571D01*
X146165716Y-40318571D01*
X146022859Y-40390000D01*
X145951430Y-40461429D01*
X145880001Y-40604286D01*
X145880001Y-41032857D01*
X145951430Y-41175714D01*
X146022859Y-41247143D01*
X146165716Y-41318571D01*
X146451430Y-41318571D01*
X146594287Y-41247143D01*
X145308573Y-41247143D02*
X145165716Y-41318571D01*
X144880001Y-41318571D01*
X144737144Y-41247143D01*
X144665716Y-41104286D01*
X144665716Y-41032857D01*
X144737144Y-40890000D01*
X144880001Y-40818571D01*
X145094287Y-40818571D01*
X145237144Y-40747143D01*
X145308573Y-40604286D01*
X145308573Y-40532857D01*
X145237144Y-40390000D01*
X145094287Y-40318571D01*
X144880001Y-40318571D01*
X144737144Y-40390000D01*
X144022858Y-41175714D02*
X143951430Y-41247143D01*
X144022858Y-41318571D01*
X144094287Y-41247143D01*
X144022858Y-41175714D01*
X144022858Y-41318571D01*
X144022858Y-40390000D02*
X143951430Y-40461429D01*
X144022858Y-40532857D01*
X144094287Y-40461429D01*
X144022858Y-40390000D01*
X144022858Y-40532857D01*
X142237144Y-39747143D02*
X143522858Y-41675714D01*
X140665715Y-39747143D02*
X141951429Y-41675714D01*
X139522857Y-40318571D02*
X139522857Y-41532857D01*
X139594286Y-41675714D01*
X139665714Y-41747143D01*
X139808571Y-41818571D01*
X140022857Y-41818571D01*
X140165714Y-41747143D01*
X139522857Y-41247143D02*
X139665714Y-41318571D01*
X139951428Y-41318571D01*
X140094286Y-41247143D01*
X140165714Y-41175714D01*
X140237143Y-41032857D01*
X140237143Y-40604286D01*
X140165714Y-40461429D01*
X140094286Y-40390000D01*
X139951428Y-40318571D01*
X139665714Y-40318571D01*
X139522857Y-40390000D01*
X138808571Y-41318571D02*
X138808571Y-40318571D01*
X138808571Y-39818571D02*
X138880000Y-39890000D01*
X138808571Y-39961429D01*
X138737143Y-39890000D01*
X138808571Y-39818571D01*
X138808571Y-39961429D01*
X138308571Y-40318571D02*
X137737142Y-40318571D01*
X138094285Y-39818571D02*
X138094285Y-41104286D01*
X138022857Y-41247143D01*
X137879999Y-41318571D01*
X137737142Y-41318571D01*
X137237142Y-41318571D02*
X137237142Y-39818571D01*
X136594285Y-41318571D02*
X136594285Y-40532857D01*
X136665714Y-40390000D01*
X136808571Y-40318571D01*
X137022856Y-40318571D01*
X137165714Y-40390000D01*
X137237142Y-40461429D01*
X135237142Y-40318571D02*
X135237142Y-41318571D01*
X135879999Y-40318571D02*
X135879999Y-41104286D01*
X135808571Y-41247143D01*
X135665713Y-41318571D01*
X135451428Y-41318571D01*
X135308571Y-41247143D01*
X135237142Y-41175714D01*
X134522856Y-41318571D02*
X134522856Y-39818571D01*
X134522856Y-40390000D02*
X134379999Y-40318571D01*
X134094285Y-40318571D01*
X133951428Y-40390000D01*
X133879999Y-40461429D01*
X133808570Y-40604286D01*
X133808570Y-41032857D01*
X133879999Y-41175714D01*
X133951428Y-41247143D01*
X134094285Y-41318571D01*
X134379999Y-41318571D01*
X134522856Y-41247143D01*
X133165713Y-41175714D02*
X133094285Y-41247143D01*
X133165713Y-41318571D01*
X133237142Y-41247143D01*
X133165713Y-41175714D01*
X133165713Y-41318571D01*
X131808570Y-41247143D02*
X131951427Y-41318571D01*
X132237141Y-41318571D01*
X132379999Y-41247143D01*
X132451427Y-41175714D01*
X132522856Y-41032857D01*
X132522856Y-40604286D01*
X132451427Y-40461429D01*
X132379999Y-40390000D01*
X132237141Y-40318571D01*
X131951427Y-40318571D01*
X131808570Y-40390000D01*
X130951427Y-41318571D02*
X131094285Y-41247143D01*
X131165713Y-41175714D01*
X131237142Y-41032857D01*
X131237142Y-40604286D01*
X131165713Y-40461429D01*
X131094285Y-40390000D01*
X130951427Y-40318571D01*
X130737142Y-40318571D01*
X130594285Y-40390000D01*
X130522856Y-40461429D01*
X130451427Y-40604286D01*
X130451427Y-41032857D01*
X130522856Y-41175714D01*
X130594285Y-41247143D01*
X130737142Y-41318571D01*
X130951427Y-41318571D01*
X129808570Y-41318571D02*
X129808570Y-40318571D01*
X129808570Y-40461429D02*
X129737142Y-40390000D01*
X129594284Y-40318571D01*
X129379999Y-40318571D01*
X129237142Y-40390000D01*
X129165713Y-40532857D01*
X129165713Y-41318571D01*
X129165713Y-40532857D02*
X129094284Y-40390000D01*
X128951427Y-40318571D01*
X128737142Y-40318571D01*
X128594284Y-40390000D01*
X128522856Y-40532857D01*
X128522856Y-41318571D01*
X126737142Y-39747143D02*
X128022856Y-41675714D01*
X125808570Y-39818571D02*
X125808570Y-40890000D01*
X125879998Y-41104286D01*
X126022855Y-41247143D01*
X126237141Y-41318571D01*
X126379998Y-41318571D01*
X124879998Y-41318571D02*
X125022856Y-41247143D01*
X125094284Y-41175714D01*
X125165713Y-41032857D01*
X125165713Y-40604286D01*
X125094284Y-40461429D01*
X125022856Y-40390000D01*
X124879998Y-40318571D01*
X124665713Y-40318571D01*
X124522856Y-40390000D01*
X124451427Y-40461429D01*
X124379998Y-40604286D01*
X124379998Y-41032857D01*
X124451427Y-41175714D01*
X124522856Y-41247143D01*
X124665713Y-41318571D01*
X124879998Y-41318571D01*
X123737141Y-41318571D02*
X123737141Y-40318571D01*
X123737141Y-40604286D02*
X123665713Y-40461429D01*
X123594284Y-40390000D01*
X123451427Y-40318571D01*
X123308570Y-40318571D01*
X122165713Y-40318571D02*
X122165713Y-41532857D01*
X122237142Y-41675714D01*
X122308570Y-41747143D01*
X122451427Y-41818571D01*
X122665713Y-41818571D01*
X122808570Y-41747143D01*
X122165713Y-41247143D02*
X122308570Y-41318571D01*
X122594284Y-41318571D01*
X122737142Y-41247143D01*
X122808570Y-41175714D01*
X122879999Y-41032857D01*
X122879999Y-40604286D01*
X122808570Y-40461429D01*
X122737142Y-40390000D01*
X122594284Y-40318571D01*
X122308570Y-40318571D01*
X122165713Y-40390000D01*
X120879999Y-41247143D02*
X121022856Y-41318571D01*
X121308570Y-41318571D01*
X121451427Y-41247143D01*
X121522856Y-41104286D01*
X121522856Y-40532857D01*
X121451427Y-40390000D01*
X121308570Y-40318571D01*
X121022856Y-40318571D01*
X120879999Y-40390000D01*
X120808570Y-40532857D01*
X120808570Y-40675714D01*
X121522856Y-40818571D01*
X120165713Y-40318571D02*
X120165713Y-41318571D01*
X120165713Y-40461429D02*
X120094285Y-40390000D01*
X119951427Y-40318571D01*
X119737142Y-40318571D01*
X119594285Y-40390000D01*
X119522856Y-40532857D01*
X119522856Y-41318571D01*
X118808570Y-40747143D02*
X117665713Y-40747143D01*
X117165713Y-39818571D02*
X116665713Y-41318571D01*
X116165713Y-39818571D01*
X115665713Y-41318571D02*
X115665713Y-40318571D01*
X115665713Y-39818571D02*
X115737142Y-39890000D01*
X115665713Y-39961429D01*
X115594285Y-39890000D01*
X115665713Y-39818571D01*
X115665713Y-39961429D01*
X114951427Y-41318571D02*
X114951427Y-39818571D01*
X114808570Y-40747143D02*
X114379999Y-41318571D01*
X114379999Y-40318571D02*
X114951427Y-40890000D01*
X113737141Y-41318571D02*
X113737141Y-40318571D01*
X113737141Y-39818571D02*
X113808570Y-39890000D01*
X113737141Y-39961429D01*
X113665713Y-39890000D01*
X113737141Y-39818571D01*
X113737141Y-39961429D01*
X113022855Y-40318571D02*
X113022855Y-41318571D01*
X113022855Y-40461429D02*
X112951427Y-40390000D01*
X112808569Y-40318571D01*
X112594284Y-40318571D01*
X112451427Y-40390000D01*
X112379998Y-40532857D01*
X112379998Y-41318571D01*
X111022855Y-40318571D02*
X111022855Y-41532857D01*
X111094284Y-41675714D01*
X111165712Y-41747143D01*
X111308569Y-41818571D01*
X111522855Y-41818571D01*
X111665712Y-41747143D01*
X111022855Y-41247143D02*
X111165712Y-41318571D01*
X111451426Y-41318571D01*
X111594284Y-41247143D01*
X111665712Y-41175714D01*
X111737141Y-41032857D01*
X111737141Y-40604286D01*
X111665712Y-40461429D01*
X111594284Y-40390000D01*
X111451426Y-40318571D01*
X111165712Y-40318571D01*
X111022855Y-40390000D01*
X109522855Y-39890000D02*
X109665712Y-39818571D01*
X109879998Y-39818571D01*
X110094283Y-39890000D01*
X110237141Y-40032857D01*
X110308569Y-40175714D01*
X110379998Y-40461429D01*
X110379998Y-40675714D01*
X110308569Y-40961429D01*
X110237141Y-41104286D01*
X110094283Y-41247143D01*
X109879998Y-41318571D01*
X109737141Y-41318571D01*
X109522855Y-41247143D01*
X109451426Y-41175714D01*
X109451426Y-40675714D01*
X109737141Y-40675714D01*
X108594283Y-41318571D02*
X108737141Y-41247143D01*
X108808569Y-41175714D01*
X108879998Y-41032857D01*
X108879998Y-40604286D01*
X108808569Y-40461429D01*
X108737141Y-40390000D01*
X108594283Y-40318571D01*
X108379998Y-40318571D01*
X108237141Y-40390000D01*
X108165712Y-40461429D01*
X108094283Y-40604286D01*
X108094283Y-41032857D01*
X108165712Y-41175714D01*
X108237141Y-41247143D01*
X108379998Y-41318571D01*
X108594283Y-41318571D01*
X106808569Y-41318571D02*
X106808569Y-39818571D01*
X106808569Y-41247143D02*
X106951426Y-41318571D01*
X107237140Y-41318571D01*
X107379998Y-41247143D01*
X107451426Y-41175714D01*
X107522855Y-41032857D01*
X107522855Y-40604286D01*
X107451426Y-40461429D01*
X107379998Y-40390000D01*
X107237140Y-40318571D01*
X106951426Y-40318571D01*
X106808569Y-40390000D01*
X105022855Y-39747143D02*
X106308569Y-41675714D01*
X104665711Y-39818571D02*
X103737140Y-39818571D01*
X104237140Y-40390000D01*
X104022854Y-40390000D01*
X103879997Y-40461429D01*
X103808568Y-40532857D01*
X103737140Y-40675714D01*
X103737140Y-41032857D01*
X103808568Y-41175714D01*
X103879997Y-41247143D01*
X104022854Y-41318571D01*
X104451426Y-41318571D01*
X104594283Y-41247143D01*
X104665711Y-41175714D01*
X103094283Y-41318571D02*
X103094283Y-39818571D01*
X102594283Y-40890000D01*
X102094283Y-39818571D01*
X102094283Y-41318571D01*
X101379997Y-40747143D02*
X100237140Y-40747143D01*
X98665711Y-41175714D02*
X98737140Y-41247143D01*
X98951426Y-41318571D01*
X99094283Y-41318571D01*
X99308568Y-41247143D01*
X99451426Y-41104286D01*
X99522854Y-40961429D01*
X99594283Y-40675714D01*
X99594283Y-40461429D01*
X99522854Y-40175714D01*
X99451426Y-40032857D01*
X99308568Y-39890000D01*
X99094283Y-39818571D01*
X98951426Y-39818571D01*
X98737140Y-39890000D01*
X98665711Y-39961429D01*
X97808568Y-41318571D02*
X97951426Y-41247143D01*
X98022854Y-41175714D01*
X98094283Y-41032857D01*
X98094283Y-40604286D01*
X98022854Y-40461429D01*
X97951426Y-40390000D01*
X97808568Y-40318571D01*
X97594283Y-40318571D01*
X97451426Y-40390000D01*
X97379997Y-40461429D01*
X97308568Y-40604286D01*
X97308568Y-41032857D01*
X97379997Y-41175714D01*
X97451426Y-41247143D01*
X97594283Y-41318571D01*
X97808568Y-41318571D01*
X96665711Y-40318571D02*
X96665711Y-41318571D01*
X96665711Y-40461429D02*
X96594283Y-40390000D01*
X96451425Y-40318571D01*
X96237140Y-40318571D01*
X96094283Y-40390000D01*
X96022854Y-40532857D01*
X96022854Y-41318571D01*
X95522854Y-40318571D02*
X94951425Y-40318571D01*
X95308568Y-39818571D02*
X95308568Y-41104286D01*
X95237140Y-41247143D01*
X95094282Y-41318571D01*
X94951425Y-41318571D01*
X94451425Y-41318571D02*
X94451425Y-40318571D01*
X94451425Y-40604286D02*
X94379997Y-40461429D01*
X94308568Y-40390000D01*
X94165711Y-40318571D01*
X94022854Y-40318571D01*
X93308568Y-41318571D02*
X93451426Y-41247143D01*
X93522854Y-41175714D01*
X93594283Y-41032857D01*
X93594283Y-40604286D01*
X93522854Y-40461429D01*
X93451426Y-40390000D01*
X93308568Y-40318571D01*
X93094283Y-40318571D01*
X92951426Y-40390000D01*
X92879997Y-40461429D01*
X92808568Y-40604286D01*
X92808568Y-41032857D01*
X92879997Y-41175714D01*
X92951426Y-41247143D01*
X93094283Y-41318571D01*
X93308568Y-41318571D01*
X91951425Y-41318571D02*
X92094283Y-41247143D01*
X92165711Y-41104286D01*
X92165711Y-39818571D01*
X91165711Y-41318571D02*
X91308569Y-41247143D01*
X91379997Y-41104286D01*
X91379997Y-39818571D01*
X90022855Y-41247143D02*
X90165712Y-41318571D01*
X90451426Y-41318571D01*
X90594283Y-41247143D01*
X90665712Y-41104286D01*
X90665712Y-40532857D01*
X90594283Y-40390000D01*
X90451426Y-40318571D01*
X90165712Y-40318571D01*
X90022855Y-40390000D01*
X89951426Y-40532857D01*
X89951426Y-40675714D01*
X90665712Y-40818571D01*
X89308569Y-41318571D02*
X89308569Y-40318571D01*
X89308569Y-40604286D02*
X89237141Y-40461429D01*
X89165712Y-40390000D01*
X89022855Y-40318571D01*
X88879998Y-40318571D01*
D13*
X82895000Y-45990000D02*
X82895000Y-47990000D01*
X82895000Y-47990000D02*
X78995000Y-47990000D01*
X82895000Y-45990000D02*
X78995000Y-45990000D01*
X82895000Y-63770000D02*
X82895000Y-65770000D01*
X82895000Y-65770000D02*
X78995000Y-65770000D01*
X82895000Y-63770000D02*
X78995000Y-63770000D01*
X82895000Y-81550000D02*
X82895000Y-83550000D01*
X82895000Y-83550000D02*
X78995000Y-83550000D01*
X82895000Y-81550000D02*
X78995000Y-81550000D01*
X82895000Y-99330000D02*
X82895000Y-101330000D01*
X82895000Y-101330000D02*
X78995000Y-101330000D01*
X82895000Y-99330000D02*
X78995000Y-99330000D01*
X82895000Y-117110000D02*
X82895000Y-119110000D01*
X82895000Y-119110000D02*
X78995000Y-119110000D01*
X82895000Y-117110000D02*
X78995000Y-117110000D01*
X100675000Y-117110000D02*
X100675000Y-119110000D01*
X100675000Y-119110000D02*
X96775000Y-119110000D01*
X100675000Y-117110000D02*
X96775000Y-117110000D01*
X100675000Y-99330000D02*
X100675000Y-101330000D01*
X100675000Y-101330000D02*
X96775000Y-101330000D01*
X100675000Y-99330000D02*
X96775000Y-99330000D01*
X100675000Y-81550000D02*
X100675000Y-83550000D01*
X100675000Y-83550000D02*
X96775000Y-83550000D01*
X100675000Y-81550000D02*
X96775000Y-81550000D01*
X100675000Y-63770000D02*
X100675000Y-65770000D01*
X100675000Y-65770000D02*
X96775000Y-65770000D01*
X100675000Y-63770000D02*
X96775000Y-63770000D01*
X100675000Y-45990000D02*
X100675000Y-47990000D01*
X100675000Y-47990000D02*
X96775000Y-47990000D01*
X100675000Y-45990000D02*
X96775000Y-45990000D01*
X118455000Y-45990000D02*
X118455000Y-47990000D01*
X118455000Y-47990000D02*
X114555000Y-47990000D01*
X118455000Y-45990000D02*
X114555000Y-45990000D01*
X118455000Y-63770000D02*
X118455000Y-65770000D01*
X118455000Y-65770000D02*
X114555000Y-65770000D01*
X118455000Y-63770000D02*
X114555000Y-63770000D01*
X118455000Y-81550000D02*
X118455000Y-83550000D01*
X118455000Y-83550000D02*
X114555000Y-83550000D01*
X118455000Y-81550000D02*
X114555000Y-81550000D01*
X118455000Y-99330000D02*
X118455000Y-101330000D01*
X118455000Y-101330000D02*
X114555000Y-101330000D01*
X118455000Y-99330000D02*
X114555000Y-99330000D01*
X118455000Y-117110000D02*
X118455000Y-119110000D01*
X118455000Y-119110000D02*
X114555000Y-119110000D01*
X118455000Y-117110000D02*
X114555000Y-117110000D01*
X136235000Y-117110000D02*
X136235000Y-119110000D01*
X136235000Y-119110000D02*
X132335000Y-119110000D01*
X136235000Y-117110000D02*
X132335000Y-117110000D01*
X136235000Y-99330000D02*
X136235000Y-101330000D01*
X136235000Y-101330000D02*
X132335000Y-101330000D01*
X136235000Y-99330000D02*
X132335000Y-99330000D01*
X136235000Y-81550000D02*
X136235000Y-83550000D01*
X136235000Y-83550000D02*
X132335000Y-83550000D01*
X136235000Y-81550000D02*
X132335000Y-81550000D01*
X136235000Y-63770000D02*
X136235000Y-65770000D01*
X136235000Y-65770000D02*
X132335000Y-65770000D01*
X136235000Y-63770000D02*
X132335000Y-63770000D01*
X136235000Y-45990000D02*
X136235000Y-47990000D01*
X136235000Y-47990000D02*
X132335000Y-47990000D01*
X136235000Y-45990000D02*
X132335000Y-45990000D01*
X156456000Y-100418000D02*
X155456000Y-100418000D01*
X155456000Y-98718000D02*
X156456000Y-98718000D01*
X162532000Y-100418000D02*
X161532000Y-100418000D01*
X161532000Y-98718000D02*
X162532000Y-98718000D01*
D14*
G36*
X164475235Y-59211995D02*
X164422666Y-59269646D01*
X164370838Y-59314046D01*
X164258899Y-59269646D01*
X163948106Y-59184120D01*
X163639040Y-59232975D01*
X163421425Y-59377957D01*
X163324448Y-59507081D01*
X163268332Y-59668815D01*
X163242761Y-59910605D01*
X163237333Y-60224624D01*
X163245145Y-60578035D01*
X163274746Y-60807360D01*
X163335382Y-60957379D01*
X163406666Y-61044667D01*
X163609441Y-61160129D01*
X163878888Y-61212739D01*
X164141947Y-61197087D01*
X164321067Y-61112400D01*
X164368725Y-61100885D01*
X164399647Y-61193897D01*
X164416653Y-61411879D01*
X164422562Y-61775270D01*
X164422666Y-61849000D01*
X164418286Y-62237800D01*
X164403263Y-62477888D01*
X164374780Y-62589705D01*
X164330016Y-62593691D01*
X164321067Y-62585600D01*
X164133255Y-62499071D01*
X163868671Y-62486018D01*
X163600378Y-62541030D01*
X163406666Y-62653334D01*
X163327601Y-62753561D01*
X163277416Y-62888027D01*
X163249874Y-63094162D01*
X163238737Y-63409397D01*
X163237333Y-63669334D01*
X163239657Y-64054683D01*
X163250716Y-64301369D01*
X163276639Y-64440040D01*
X163323556Y-64501344D01*
X163397598Y-64515931D01*
X163406666Y-64516000D01*
X163489615Y-64502386D01*
X163539995Y-64439278D01*
X163565810Y-64293280D01*
X163575065Y-64030994D01*
X163576000Y-63809456D01*
X163582890Y-63440078D01*
X163608369Y-63200223D01*
X163659645Y-63050461D01*
X163730833Y-62962789D01*
X163962999Y-62834771D01*
X164185917Y-62874640D01*
X164289619Y-62955714D01*
X164361267Y-63078020D01*
X164403427Y-63290473D01*
X164421223Y-63625675D01*
X164422666Y-63802381D01*
X164424651Y-64149104D01*
X164437261Y-64360161D01*
X164470483Y-64469218D01*
X164534303Y-64509942D01*
X164634333Y-64516000D01*
X164846000Y-64516000D01*
X164846000Y-60205075D01*
X164422666Y-60205075D01*
X164377198Y-60531543D01*
X164257906Y-60761139D01*
X164090459Y-60876550D01*
X163900527Y-60860466D01*
X163713779Y-60695576D01*
X163707801Y-60687161D01*
X163598153Y-60416274D01*
X163582397Y-60101838D01*
X163657796Y-59816579D01*
X163745333Y-59690000D01*
X163965042Y-59547434D01*
X164161588Y-59559168D01*
X164315247Y-59710201D01*
X164406296Y-59985536D01*
X164422666Y-60205075D01*
X164846000Y-60205075D01*
X164846000Y-59182000D01*
X164634333Y-59182000D01*
X164475235Y-59211995D01*
X164475235Y-59211995D01*
G37*
X164475235Y-59211995D02*
X164422666Y-59269646D01*
X164370838Y-59314046D01*
X164258899Y-59269646D01*
X163948106Y-59184120D01*
X163639040Y-59232975D01*
X163421425Y-59377957D01*
X163324448Y-59507081D01*
X163268332Y-59668815D01*
X163242761Y-59910605D01*
X163237333Y-60224624D01*
X163245145Y-60578035D01*
X163274746Y-60807360D01*
X163335382Y-60957379D01*
X163406666Y-61044667D01*
X163609441Y-61160129D01*
X163878888Y-61212739D01*
X164141947Y-61197087D01*
X164321067Y-61112400D01*
X164368725Y-61100885D01*
X164399647Y-61193897D01*
X164416653Y-61411879D01*
X164422562Y-61775270D01*
X164422666Y-61849000D01*
X164418286Y-62237800D01*
X164403263Y-62477888D01*
X164374780Y-62589705D01*
X164330016Y-62593691D01*
X164321067Y-62585600D01*
X164133255Y-62499071D01*
X163868671Y-62486018D01*
X163600378Y-62541030D01*
X163406666Y-62653334D01*
X163327601Y-62753561D01*
X163277416Y-62888027D01*
X163249874Y-63094162D01*
X163238737Y-63409397D01*
X163237333Y-63669334D01*
X163239657Y-64054683D01*
X163250716Y-64301369D01*
X163276639Y-64440040D01*
X163323556Y-64501344D01*
X163397598Y-64515931D01*
X163406666Y-64516000D01*
X163489615Y-64502386D01*
X163539995Y-64439278D01*
X163565810Y-64293280D01*
X163575065Y-64030994D01*
X163576000Y-63809456D01*
X163582890Y-63440078D01*
X163608369Y-63200223D01*
X163659645Y-63050461D01*
X163730833Y-62962789D01*
X163962999Y-62834771D01*
X164185917Y-62874640D01*
X164289619Y-62955714D01*
X164361267Y-63078020D01*
X164403427Y-63290473D01*
X164421223Y-63625675D01*
X164422666Y-63802381D01*
X164424651Y-64149104D01*
X164437261Y-64360161D01*
X164470483Y-64469218D01*
X164534303Y-64509942D01*
X164634333Y-64516000D01*
X164846000Y-64516000D01*
X164846000Y-60205075D01*
X164422666Y-60205075D01*
X164377198Y-60531543D01*
X164257906Y-60761139D01*
X164090459Y-60876550D01*
X163900527Y-60860466D01*
X163713779Y-60695576D01*
X163707801Y-60687161D01*
X163598153Y-60416274D01*
X163582397Y-60101838D01*
X163657796Y-59816579D01*
X163745333Y-59690000D01*
X163965042Y-59547434D01*
X164161588Y-59559168D01*
X164315247Y-59710201D01*
X164406296Y-59985536D01*
X164422666Y-60205075D01*
X164846000Y-60205075D01*
X164846000Y-59182000D01*
X164634333Y-59182000D01*
X164475235Y-59211995D01*
G36*
X161749849Y-62496671D02*
X161538434Y-62551915D01*
X161403630Y-62675577D01*
X161328554Y-62893502D01*
X161296325Y-63231537D01*
X161290000Y-63654834D01*
X161292252Y-64044064D01*
X161302993Y-64294380D01*
X161328200Y-64436182D01*
X161373852Y-64499869D01*
X161445926Y-64515841D01*
X161459333Y-64516000D01*
X161596790Y-64473556D01*
X161628666Y-64414400D01*
X161653657Y-64355496D01*
X161730266Y-64414400D01*
X161928917Y-64508005D01*
X162201432Y-64514942D01*
X162480878Y-64442614D01*
X162690848Y-64308182D01*
X162863259Y-64064906D01*
X162872769Y-63844189D01*
X162517308Y-63844189D01*
X162460166Y-64006819D01*
X162423355Y-64047883D01*
X162226977Y-64150400D01*
X161979887Y-64171046D01*
X161768253Y-64106357D01*
X161730266Y-64075734D01*
X161648243Y-63913549D01*
X161628666Y-63779400D01*
X161663344Y-63635090D01*
X161799561Y-63587354D01*
X161861500Y-63585823D01*
X162201687Y-63620296D01*
X162425719Y-63710883D01*
X162517308Y-63844189D01*
X162872769Y-63844189D01*
X162873672Y-63823242D01*
X162723341Y-63553946D01*
X162723188Y-63553752D01*
X162594347Y-63420937D01*
X162439213Y-63353989D01*
X162197111Y-63331780D01*
X162082564Y-63330667D01*
X161817091Y-63326473D01*
X161681713Y-63299998D01*
X161637201Y-63230405D01*
X161644209Y-63097834D01*
X161670016Y-62966281D01*
X161737328Y-62896204D01*
X161889306Y-62867553D01*
X162155369Y-62860409D01*
X162486384Y-62845774D01*
X162666070Y-62803984D01*
X162711403Y-62726486D01*
X162646365Y-62613046D01*
X162483328Y-62524269D01*
X162175825Y-62486062D01*
X162054755Y-62484000D01*
X161749849Y-62496671D01*
X161749849Y-62496671D01*
G37*
X161749849Y-62496671D02*
X161538434Y-62551915D01*
X161403630Y-62675577D01*
X161328554Y-62893502D01*
X161296325Y-63231537D01*
X161290000Y-63654834D01*
X161292252Y-64044064D01*
X161302993Y-64294380D01*
X161328200Y-64436182D01*
X161373852Y-64499869D01*
X161445926Y-64515841D01*
X161459333Y-64516000D01*
X161596790Y-64473556D01*
X161628666Y-64414400D01*
X161653657Y-64355496D01*
X161730266Y-64414400D01*
X161928917Y-64508005D01*
X162201432Y-64514942D01*
X162480878Y-64442614D01*
X162690848Y-64308182D01*
X162863259Y-64064906D01*
X162872769Y-63844189D01*
X162517308Y-63844189D01*
X162460166Y-64006819D01*
X162423355Y-64047883D01*
X162226977Y-64150400D01*
X161979887Y-64171046D01*
X161768253Y-64106357D01*
X161730266Y-64075734D01*
X161648243Y-63913549D01*
X161628666Y-63779400D01*
X161663344Y-63635090D01*
X161799561Y-63587354D01*
X161861500Y-63585823D01*
X162201687Y-63620296D01*
X162425719Y-63710883D01*
X162517308Y-63844189D01*
X162872769Y-63844189D01*
X162873672Y-63823242D01*
X162723341Y-63553946D01*
X162723188Y-63553752D01*
X162594347Y-63420937D01*
X162439213Y-63353989D01*
X162197111Y-63331780D01*
X162082564Y-63330667D01*
X161817091Y-63326473D01*
X161681713Y-63299998D01*
X161637201Y-63230405D01*
X161644209Y-63097834D01*
X161670016Y-62966281D01*
X161737328Y-62896204D01*
X161889306Y-62867553D01*
X162155369Y-62860409D01*
X162486384Y-62845774D01*
X162666070Y-62803984D01*
X162711403Y-62726486D01*
X162646365Y-62613046D01*
X162483328Y-62524269D01*
X162175825Y-62486062D01*
X162054755Y-62484000D01*
X161749849Y-62496671D01*
G36*
X160411319Y-62518724D02*
X160358666Y-62585600D01*
X160333676Y-62644505D01*
X160257067Y-62585600D01*
X160115577Y-62523164D01*
X159891792Y-62488631D01*
X159662585Y-62487020D01*
X159504829Y-62523346D01*
X159488761Y-62535462D01*
X159486278Y-62638348D01*
X159533913Y-62741626D01*
X159678232Y-62855009D01*
X159853737Y-62851686D01*
X160069233Y-62845205D01*
X160217616Y-62938798D01*
X160308545Y-63150650D01*
X160351681Y-63498951D01*
X160358666Y-63802381D01*
X160360651Y-64149104D01*
X160373261Y-64360161D01*
X160406483Y-64469218D01*
X160470303Y-64509942D01*
X160570333Y-64516000D01*
X160782000Y-64516000D01*
X160782000Y-62484000D01*
X160570333Y-62484000D01*
X160411319Y-62518724D01*
X160411319Y-62518724D01*
G37*
X160411319Y-62518724D02*
X160358666Y-62585600D01*
X160333676Y-62644505D01*
X160257067Y-62585600D01*
X160115577Y-62523164D01*
X159891792Y-62488631D01*
X159662585Y-62487020D01*
X159504829Y-62523346D01*
X159488761Y-62535462D01*
X159486278Y-62638348D01*
X159533913Y-62741626D01*
X159678232Y-62855009D01*
X159853737Y-62851686D01*
X160069233Y-62845205D01*
X160217616Y-62938798D01*
X160308545Y-63150650D01*
X160351681Y-63498951D01*
X160358666Y-63802381D01*
X160360651Y-64149104D01*
X160373261Y-64360161D01*
X160406483Y-64469218D01*
X160470303Y-64509942D01*
X160570333Y-64516000D01*
X160782000Y-64516000D01*
X160782000Y-62484000D01*
X160570333Y-62484000D01*
X160411319Y-62518724D01*
G36*
X157841637Y-61644878D02*
X157797080Y-61683276D01*
X157766880Y-61776176D01*
X157748255Y-61947227D01*
X157738423Y-62220076D01*
X157734601Y-62618373D01*
X157734000Y-63076667D01*
X157735017Y-63601543D01*
X157739843Y-63980677D01*
X157751136Y-64237655D01*
X157771555Y-64396063D01*
X157803761Y-64479489D01*
X157850411Y-64511518D01*
X157896278Y-64516000D01*
X158046421Y-64472246D01*
X158090825Y-64419192D01*
X158156943Y-64364728D01*
X158303981Y-64419192D01*
X158632554Y-64511170D01*
X158946509Y-64444183D01*
X159134848Y-64308182D01*
X159248084Y-64172383D01*
X159311162Y-64015532D01*
X159337980Y-63784602D01*
X159342666Y-63515267D01*
X159338183Y-63452291D01*
X158975962Y-63452291D01*
X158961662Y-63627000D01*
X158870658Y-63930765D01*
X158716050Y-64117013D01*
X158523694Y-64169464D01*
X158319445Y-64071836D01*
X158293707Y-64047612D01*
X158154909Y-63806965D01*
X158100542Y-63492553D01*
X158140768Y-63182786D01*
X158171569Y-63105035D01*
X158305867Y-62922807D01*
X158504990Y-62865573D01*
X158536974Y-62865000D01*
X158778213Y-62936200D01*
X158927856Y-63137909D01*
X158975962Y-63452291D01*
X159338183Y-63452291D01*
X159310204Y-63059344D01*
X159206178Y-62746018D01*
X159020632Y-62560153D01*
X158743610Y-62486617D01*
X158664185Y-62484000D01*
X158440807Y-62504038D01*
X158298752Y-62553694D01*
X158284333Y-62568667D01*
X158189454Y-62657865D01*
X158120019Y-62587760D01*
X158080385Y-62367066D01*
X158072666Y-62145334D01*
X158066488Y-61861605D01*
X158039347Y-61708293D01*
X157978334Y-61646673D01*
X157903333Y-61637334D01*
X157841637Y-61644878D01*
X157841637Y-61644878D01*
G37*
X157841637Y-61644878D02*
X157797080Y-61683276D01*
X157766880Y-61776176D01*
X157748255Y-61947227D01*
X157738423Y-62220076D01*
X157734601Y-62618373D01*
X157734000Y-63076667D01*
X157735017Y-63601543D01*
X157739843Y-63980677D01*
X157751136Y-64237655D01*
X157771555Y-64396063D01*
X157803761Y-64479489D01*
X157850411Y-64511518D01*
X157896278Y-64516000D01*
X158046421Y-64472246D01*
X158090825Y-64419192D01*
X158156943Y-64364728D01*
X158303981Y-64419192D01*
X158632554Y-64511170D01*
X158946509Y-64444183D01*
X159134848Y-64308182D01*
X159248084Y-64172383D01*
X159311162Y-64015532D01*
X159337980Y-63784602D01*
X159342666Y-63515267D01*
X159338183Y-63452291D01*
X158975962Y-63452291D01*
X158961662Y-63627000D01*
X158870658Y-63930765D01*
X158716050Y-64117013D01*
X158523694Y-64169464D01*
X158319445Y-64071836D01*
X158293707Y-64047612D01*
X158154909Y-63806965D01*
X158100542Y-63492553D01*
X158140768Y-63182786D01*
X158171569Y-63105035D01*
X158305867Y-62922807D01*
X158504990Y-62865573D01*
X158536974Y-62865000D01*
X158778213Y-62936200D01*
X158927856Y-63137909D01*
X158975962Y-63452291D01*
X159338183Y-63452291D01*
X159310204Y-63059344D01*
X159206178Y-62746018D01*
X159020632Y-62560153D01*
X158743610Y-62486617D01*
X158664185Y-62484000D01*
X158440807Y-62504038D01*
X158298752Y-62553694D01*
X158284333Y-62568667D01*
X158189454Y-62657865D01*
X158120019Y-62587760D01*
X158080385Y-62367066D01*
X158072666Y-62145334D01*
X158066488Y-61861605D01*
X158039347Y-61708293D01*
X157978334Y-61646673D01*
X157903333Y-61637334D01*
X157841637Y-61644878D01*
G36*
X155894338Y-62593642D02*
X155762439Y-62873861D01*
X155656439Y-63171025D01*
X155537557Y-63509135D01*
X155447072Y-63695175D01*
X155371459Y-63726138D01*
X155297193Y-63599016D01*
X155210749Y-63310803D01*
X155147034Y-63057765D01*
X155066855Y-62754609D01*
X154998050Y-62581757D01*
X154918692Y-62503488D01*
X154806852Y-62484080D01*
X154794821Y-62484000D01*
X154640343Y-62518012D01*
X154620732Y-62589834D01*
X154659834Y-62709883D01*
X154737094Y-62954242D01*
X154840720Y-63285421D01*
X154940306Y-63605834D01*
X155066921Y-64003789D01*
X155162108Y-64266256D01*
X155240354Y-64420733D01*
X155316149Y-64494721D01*
X155403982Y-64515720D01*
X155419848Y-64516000D01*
X155572590Y-64477442D01*
X155618937Y-64410167D01*
X155643703Y-64282969D01*
X155707819Y-64042088D01*
X155798488Y-63734947D01*
X155818810Y-63669334D01*
X156017079Y-63034334D01*
X156245663Y-63775167D01*
X156363756Y-64136763D01*
X156457028Y-64361936D01*
X156540509Y-64478841D01*
X156629226Y-64515632D01*
X156641114Y-64516000D01*
X156796775Y-64469079D01*
X156846841Y-64410167D01*
X156886871Y-64290262D01*
X156965648Y-64046211D01*
X157071168Y-63715414D01*
X157172861Y-63394167D01*
X157460021Y-62484000D01*
X157260709Y-62484000D01*
X157155725Y-62509269D01*
X157065608Y-62601075D01*
X156979531Y-62783413D01*
X156886668Y-63080280D01*
X156776195Y-63515674D01*
X156754871Y-63605248D01*
X156697846Y-63760028D01*
X156640848Y-63800978D01*
X156589352Y-63708177D01*
X156505673Y-63494733D01*
X156405821Y-63202334D01*
X156380973Y-63124230D01*
X156246805Y-62745067D01*
X156127195Y-62529847D01*
X156012815Y-62479171D01*
X155894338Y-62593642D01*
X155894338Y-62593642D01*
G37*
X155894338Y-62593642D02*
X155762439Y-62873861D01*
X155656439Y-63171025D01*
X155537557Y-63509135D01*
X155447072Y-63695175D01*
X155371459Y-63726138D01*
X155297193Y-63599016D01*
X155210749Y-63310803D01*
X155147034Y-63057765D01*
X155066855Y-62754609D01*
X154998050Y-62581757D01*
X154918692Y-62503488D01*
X154806852Y-62484080D01*
X154794821Y-62484000D01*
X154640343Y-62518012D01*
X154620732Y-62589834D01*
X154659834Y-62709883D01*
X154737094Y-62954242D01*
X154840720Y-63285421D01*
X154940306Y-63605834D01*
X155066921Y-64003789D01*
X155162108Y-64266256D01*
X155240354Y-64420733D01*
X155316149Y-64494721D01*
X155403982Y-64515720D01*
X155419848Y-64516000D01*
X155572590Y-64477442D01*
X155618937Y-64410167D01*
X155643703Y-64282969D01*
X155707819Y-64042088D01*
X155798488Y-63734947D01*
X155818810Y-63669334D01*
X156017079Y-63034334D01*
X156245663Y-63775167D01*
X156363756Y-64136763D01*
X156457028Y-64361936D01*
X156540509Y-64478841D01*
X156629226Y-64515632D01*
X156641114Y-64516000D01*
X156796775Y-64469079D01*
X156846841Y-64410167D01*
X156886871Y-64290262D01*
X156965648Y-64046211D01*
X157071168Y-63715414D01*
X157172861Y-63394167D01*
X157460021Y-62484000D01*
X157260709Y-62484000D01*
X157155725Y-62509269D01*
X157065608Y-62601075D01*
X156979531Y-62783413D01*
X156886668Y-63080280D01*
X156776195Y-63515674D01*
X156754871Y-63605248D01*
X156697846Y-63760028D01*
X156640848Y-63800978D01*
X156589352Y-63708177D01*
X156505673Y-63494733D01*
X156405821Y-63202334D01*
X156380973Y-63124230D01*
X156246805Y-62745067D01*
X156127195Y-62529847D01*
X156012815Y-62479171D01*
X155894338Y-62593642D01*
G36*
X153367849Y-62496671D02*
X153156434Y-62551915D01*
X153021630Y-62675577D01*
X152946554Y-62893502D01*
X152914325Y-63231537D01*
X152908000Y-63654834D01*
X152910252Y-64044064D01*
X152920993Y-64294380D01*
X152946200Y-64436182D01*
X152991852Y-64499869D01*
X153063926Y-64515841D01*
X153077333Y-64516000D01*
X153214790Y-64473556D01*
X153246666Y-64414400D01*
X153271657Y-64355496D01*
X153348266Y-64414400D01*
X153546917Y-64508005D01*
X153819432Y-64514942D01*
X154098878Y-64442614D01*
X154308848Y-64308182D01*
X154479799Y-64042854D01*
X154495408Y-63796186D01*
X154123894Y-63796186D01*
X154112322Y-63954836D01*
X153981795Y-64082475D01*
X153782191Y-64161126D01*
X153563387Y-64172814D01*
X153375258Y-64099562D01*
X153348266Y-64075734D01*
X153257353Y-63902839D01*
X153270441Y-63723089D01*
X153374304Y-63615040D01*
X153568561Y-63592188D01*
X153805811Y-63626543D01*
X154014880Y-63700905D01*
X154123894Y-63796186D01*
X154495408Y-63796186D01*
X154497352Y-63765480D01*
X154359760Y-63512777D01*
X154347333Y-63500000D01*
X154184175Y-63390500D01*
X153945767Y-63339393D01*
X153712333Y-63330667D01*
X153439972Y-63321876D01*
X153298503Y-63287442D01*
X153250027Y-63215273D01*
X153247963Y-63182500D01*
X153290852Y-62962937D01*
X153431067Y-62851921D01*
X153693257Y-62833673D01*
X153780349Y-62841712D01*
X154105631Y-62854750D01*
X154287570Y-62806995D01*
X154319318Y-62701594D01*
X154268022Y-62617453D01*
X154113953Y-62527696D01*
X153828978Y-62487434D01*
X153672755Y-62484000D01*
X153367849Y-62496671D01*
X153367849Y-62496671D01*
G37*
X153367849Y-62496671D02*
X153156434Y-62551915D01*
X153021630Y-62675577D01*
X152946554Y-62893502D01*
X152914325Y-63231537D01*
X152908000Y-63654834D01*
X152910252Y-64044064D01*
X152920993Y-64294380D01*
X152946200Y-64436182D01*
X152991852Y-64499869D01*
X153063926Y-64515841D01*
X153077333Y-64516000D01*
X153214790Y-64473556D01*
X153246666Y-64414400D01*
X153271657Y-64355496D01*
X153348266Y-64414400D01*
X153546917Y-64508005D01*
X153819432Y-64514942D01*
X154098878Y-64442614D01*
X154308848Y-64308182D01*
X154479799Y-64042854D01*
X154495408Y-63796186D01*
X154123894Y-63796186D01*
X154112322Y-63954836D01*
X153981795Y-64082475D01*
X153782191Y-64161126D01*
X153563387Y-64172814D01*
X153375258Y-64099562D01*
X153348266Y-64075734D01*
X153257353Y-63902839D01*
X153270441Y-63723089D01*
X153374304Y-63615040D01*
X153568561Y-63592188D01*
X153805811Y-63626543D01*
X154014880Y-63700905D01*
X154123894Y-63796186D01*
X154495408Y-63796186D01*
X154497352Y-63765480D01*
X154359760Y-63512777D01*
X154347333Y-63500000D01*
X154184175Y-63390500D01*
X153945767Y-63339393D01*
X153712333Y-63330667D01*
X153439972Y-63321876D01*
X153298503Y-63287442D01*
X153250027Y-63215273D01*
X153247963Y-63182500D01*
X153290852Y-62962937D01*
X153431067Y-62851921D01*
X153693257Y-62833673D01*
X153780349Y-62841712D01*
X154105631Y-62854750D01*
X154287570Y-62806995D01*
X154319318Y-62701594D01*
X154268022Y-62617453D01*
X154113953Y-62527696D01*
X153828978Y-62487434D01*
X153672755Y-62484000D01*
X153367849Y-62496671D01*
G36*
X152029319Y-62518724D02*
X151976666Y-62585600D01*
X151951676Y-62644505D01*
X151875066Y-62585600D01*
X151730931Y-62521818D01*
X151504802Y-62488187D01*
X151274014Y-62489205D01*
X151115901Y-62529367D01*
X151101593Y-62540629D01*
X151095645Y-62639438D01*
X151192979Y-62753597D01*
X151339106Y-62836964D01*
X151464821Y-62848204D01*
X151661659Y-62854007D01*
X151798677Y-62902701D01*
X151884157Y-62964369D01*
X151936997Y-63062212D01*
X151964868Y-63233040D01*
X151975438Y-63513661D01*
X151976666Y-63756979D01*
X151978369Y-64116847D01*
X151989545Y-64340031D01*
X152019299Y-64459180D01*
X152076738Y-64506943D01*
X152170964Y-64515969D01*
X152188333Y-64516000D01*
X152400000Y-64516000D01*
X152400000Y-62484000D01*
X152188333Y-62484000D01*
X152029319Y-62518724D01*
X152029319Y-62518724D01*
G37*
X152029319Y-62518724D02*
X151976666Y-62585600D01*
X151951676Y-62644505D01*
X151875066Y-62585600D01*
X151730931Y-62521818D01*
X151504802Y-62488187D01*
X151274014Y-62489205D01*
X151115901Y-62529367D01*
X151101593Y-62540629D01*
X151095645Y-62639438D01*
X151192979Y-62753597D01*
X151339106Y-62836964D01*
X151464821Y-62848204D01*
X151661659Y-62854007D01*
X151798677Y-62902701D01*
X151884157Y-62964369D01*
X151936997Y-63062212D01*
X151964868Y-63233040D01*
X151975438Y-63513661D01*
X151976666Y-63756979D01*
X151978369Y-64116847D01*
X151989545Y-64340031D01*
X152019299Y-64459180D01*
X152076738Y-64506943D01*
X152170964Y-64515969D01*
X152188333Y-64516000D01*
X152400000Y-64516000D01*
X152400000Y-62484000D01*
X152188333Y-62484000D01*
X152029319Y-62518724D01*
G36*
X149789751Y-62541152D02*
X149526568Y-62718710D01*
X149365149Y-63025828D01*
X149355762Y-63057996D01*
X149289322Y-63317605D01*
X149285790Y-63473809D01*
X149372180Y-63552874D01*
X149575503Y-63581071D01*
X149897336Y-63584667D01*
X150206004Y-63592601D01*
X150441842Y-63613555D01*
X150559961Y-63643258D01*
X150564729Y-63648167D01*
X150570315Y-63801006D01*
X150476493Y-63978432D01*
X150325457Y-64112170D01*
X150262527Y-64137163D01*
X150038235Y-64143526D01*
X149820865Y-64093883D01*
X149618111Y-64043940D01*
X149484232Y-64095323D01*
X149460087Y-64117627D01*
X149404922Y-64249754D01*
X149503870Y-64364807D01*
X149741851Y-64452542D01*
X150016630Y-64495647D01*
X150293966Y-64505018D01*
X150486521Y-64452641D01*
X150665249Y-64325022D01*
X150803468Y-64184374D01*
X150883431Y-64024471D01*
X150926095Y-63788510D01*
X150943546Y-63570677D01*
X150955626Y-63260832D01*
X150945855Y-63171906D01*
X150572769Y-63171906D01*
X150535667Y-63272353D01*
X150359710Y-63320602D01*
X150109003Y-63330667D01*
X149840112Y-63315408D01*
X149711578Y-63264495D01*
X149690666Y-63209714D01*
X149760767Y-63007573D01*
X149934370Y-62878994D01*
X150156428Y-62838080D01*
X150371894Y-62898933D01*
X150486668Y-63005798D01*
X150572769Y-63171906D01*
X150945855Y-63171906D01*
X150933332Y-63057943D01*
X150862159Y-62900802D01*
X150750258Y-62754936D01*
X150561079Y-62570648D01*
X150358379Y-62494917D01*
X150167646Y-62484000D01*
X149789751Y-62541152D01*
X149789751Y-62541152D01*
G37*
X149789751Y-62541152D02*
X149526568Y-62718710D01*
X149365149Y-63025828D01*
X149355762Y-63057996D01*
X149289322Y-63317605D01*
X149285790Y-63473809D01*
X149372180Y-63552874D01*
X149575503Y-63581071D01*
X149897336Y-63584667D01*
X150206004Y-63592601D01*
X150441842Y-63613555D01*
X150559961Y-63643258D01*
X150564729Y-63648167D01*
X150570315Y-63801006D01*
X150476493Y-63978432D01*
X150325457Y-64112170D01*
X150262527Y-64137163D01*
X150038235Y-64143526D01*
X149820865Y-64093883D01*
X149618111Y-64043940D01*
X149484232Y-64095323D01*
X149460087Y-64117627D01*
X149404922Y-64249754D01*
X149503870Y-64364807D01*
X149741851Y-64452542D01*
X150016630Y-64495647D01*
X150293966Y-64505018D01*
X150486521Y-64452641D01*
X150665249Y-64325022D01*
X150803468Y-64184374D01*
X150883431Y-64024471D01*
X150926095Y-63788510D01*
X150943546Y-63570677D01*
X150955626Y-63260832D01*
X150945855Y-63171906D01*
X150572769Y-63171906D01*
X150535667Y-63272353D01*
X150359710Y-63320602D01*
X150109003Y-63330667D01*
X149840112Y-63315408D01*
X149711578Y-63264495D01*
X149690666Y-63209714D01*
X149760767Y-63007573D01*
X149934370Y-62878994D01*
X150156428Y-62838080D01*
X150371894Y-62898933D01*
X150486668Y-63005798D01*
X150572769Y-63171906D01*
X150945855Y-63171906D01*
X150933332Y-63057943D01*
X150862159Y-62900802D01*
X150750258Y-62754936D01*
X150561079Y-62570648D01*
X150358379Y-62494917D01*
X150167646Y-62484000D01*
X149789751Y-62541152D01*
G36*
X165657479Y-59247780D02*
X165544601Y-59312100D01*
X165372842Y-59522357D01*
X165258071Y-59844324D01*
X165213947Y-60226015D01*
X165232355Y-60500530D01*
X165349151Y-60863163D01*
X165574286Y-61096515D01*
X165912725Y-61204778D01*
X166077558Y-61214000D01*
X166342679Y-61189315D01*
X166528789Y-61089460D01*
X166658807Y-60953504D01*
X166789266Y-60766782D01*
X166855705Y-60563093D01*
X166877340Y-60275067D01*
X166878000Y-60184991D01*
X166874257Y-60074958D01*
X166514232Y-60074958D01*
X166503282Y-60405954D01*
X166391845Y-60685825D01*
X166206215Y-60841093D01*
X165979611Y-60856986D01*
X165762833Y-60735211D01*
X165651028Y-60553707D01*
X165608966Y-60256417D01*
X165608000Y-60186830D01*
X165624714Y-59915010D01*
X165688911Y-59751914D01*
X165800398Y-59652506D01*
X166045695Y-59567953D01*
X166262287Y-59627171D01*
X166426392Y-59804670D01*
X166514232Y-60074958D01*
X166874257Y-60074958D01*
X166867713Y-59882603D01*
X166822831Y-59684791D01*
X166722317Y-59527343D01*
X166630513Y-59429487D01*
X166334748Y-59238975D01*
X165990975Y-59176306D01*
X165657479Y-59247780D01*
X165657479Y-59247780D01*
G37*
X165657479Y-59247780D02*
X165544601Y-59312100D01*
X165372842Y-59522357D01*
X165258071Y-59844324D01*
X165213947Y-60226015D01*
X165232355Y-60500530D01*
X165349151Y-60863163D01*
X165574286Y-61096515D01*
X165912725Y-61204778D01*
X166077558Y-61214000D01*
X166342679Y-61189315D01*
X166528789Y-61089460D01*
X166658807Y-60953504D01*
X166789266Y-60766782D01*
X166855705Y-60563093D01*
X166877340Y-60275067D01*
X166878000Y-60184991D01*
X166874257Y-60074958D01*
X166514232Y-60074958D01*
X166503282Y-60405954D01*
X166391845Y-60685825D01*
X166206215Y-60841093D01*
X165979611Y-60856986D01*
X165762833Y-60735211D01*
X165651028Y-60553707D01*
X165608966Y-60256417D01*
X165608000Y-60186830D01*
X165624714Y-59915010D01*
X165688911Y-59751914D01*
X165800398Y-59652506D01*
X166045695Y-59567953D01*
X166262287Y-59627171D01*
X166426392Y-59804670D01*
X166514232Y-60074958D01*
X166874257Y-60074958D01*
X166867713Y-59882603D01*
X166822831Y-59684791D01*
X166722317Y-59527343D01*
X166630513Y-59429487D01*
X166334748Y-59238975D01*
X165990975Y-59176306D01*
X165657479Y-59247780D01*
G36*
X161688780Y-59249689D02*
X161421372Y-59449838D01*
X161262979Y-59778070D01*
X161228326Y-59967961D01*
X161183311Y-60367334D01*
X161829322Y-60367334D01*
X162171434Y-60374470D01*
X162373203Y-60399441D01*
X162463154Y-60447586D01*
X162475333Y-60488286D01*
X162401795Y-60675356D01*
X162219509Y-60810492D01*
X161985971Y-60873971D01*
X161758675Y-60846071D01*
X161644995Y-60773129D01*
X161536903Y-60721437D01*
X161407114Y-60806680D01*
X161399080Y-60814634D01*
X161304205Y-60931666D01*
X161340737Y-61018584D01*
X161420852Y-61083479D01*
X161603770Y-61159609D01*
X161871910Y-61205520D01*
X161992348Y-61211307D01*
X162288976Y-61189469D01*
X162493224Y-61103342D01*
X162600571Y-61011793D01*
X162791431Y-60711233D01*
X162881678Y-60318769D01*
X162860928Y-59907714D01*
X162475333Y-59907714D01*
X162423102Y-59985036D01*
X162248480Y-60022293D01*
X162052000Y-60028667D01*
X161781374Y-60013744D01*
X161650976Y-59963852D01*
X161628666Y-59907714D01*
X161700297Y-59727064D01*
X161869236Y-59577193D01*
X162052000Y-59520667D01*
X162249586Y-59586157D01*
X162413508Y-59740616D01*
X162475333Y-59907714D01*
X162860928Y-59907714D01*
X162860145Y-59892207D01*
X162722183Y-59532297D01*
X162476083Y-59291120D01*
X162140697Y-59185418D01*
X162060570Y-59182000D01*
X161688780Y-59249689D01*
X161688780Y-59249689D01*
G37*
X161688780Y-59249689D02*
X161421372Y-59449838D01*
X161262979Y-59778070D01*
X161228326Y-59967961D01*
X161183311Y-60367334D01*
X161829322Y-60367334D01*
X162171434Y-60374470D01*
X162373203Y-60399441D01*
X162463154Y-60447586D01*
X162475333Y-60488286D01*
X162401795Y-60675356D01*
X162219509Y-60810492D01*
X161985971Y-60873971D01*
X161758675Y-60846071D01*
X161644995Y-60773129D01*
X161536903Y-60721437D01*
X161407114Y-60806680D01*
X161399080Y-60814634D01*
X161304205Y-60931666D01*
X161340737Y-61018584D01*
X161420852Y-61083479D01*
X161603770Y-61159609D01*
X161871910Y-61205520D01*
X161992348Y-61211307D01*
X162288976Y-61189469D01*
X162493224Y-61103342D01*
X162600571Y-61011793D01*
X162791431Y-60711233D01*
X162881678Y-60318769D01*
X162860928Y-59907714D01*
X162475333Y-59907714D01*
X162423102Y-59985036D01*
X162248480Y-60022293D01*
X162052000Y-60028667D01*
X161781374Y-60013744D01*
X161650976Y-59963852D01*
X161628666Y-59907714D01*
X161700297Y-59727064D01*
X161869236Y-59577193D01*
X162052000Y-59520667D01*
X162249586Y-59586157D01*
X162413508Y-59740616D01*
X162475333Y-59907714D01*
X162860928Y-59907714D01*
X162860145Y-59892207D01*
X162722183Y-59532297D01*
X162476083Y-59291120D01*
X162140697Y-59185418D01*
X162060570Y-59182000D01*
X161688780Y-59249689D01*
G36*
X160466187Y-59230152D02*
X160418639Y-59287834D01*
X160362103Y-59351209D01*
X160267650Y-59287834D01*
X160078405Y-59203442D01*
X159815441Y-59187817D01*
X159560872Y-59243464D01*
X159515339Y-59264880D01*
X159346295Y-59444044D01*
X159234910Y-59772300D01*
X159179992Y-60254129D01*
X159173333Y-60549301D01*
X159175695Y-60881409D01*
X159190182Y-61079059D01*
X159227901Y-61177124D01*
X159299955Y-61210476D01*
X159385000Y-61214000D01*
X159487609Y-61207366D01*
X159550179Y-61165083D01*
X159582612Y-61053581D01*
X159594808Y-60839288D01*
X159596666Y-60496285D01*
X159600181Y-60143225D01*
X159617415Y-59918856D01*
X159658403Y-59782575D01*
X159733180Y-59693780D01*
X159808333Y-59639881D01*
X159974043Y-59550298D01*
X160104338Y-59564787D01*
X160231666Y-59639881D01*
X160335111Y-59719577D01*
X160397951Y-59819187D01*
X160430223Y-59979313D01*
X160441960Y-60240558D01*
X160443333Y-60496285D01*
X160446501Y-60845642D01*
X160461217Y-61058859D01*
X160495305Y-61169089D01*
X160556586Y-61209485D01*
X160612666Y-61214000D01*
X160684147Y-61204032D01*
X160732083Y-61155420D01*
X160761153Y-61040103D01*
X160776032Y-60830021D01*
X160781398Y-60497111D01*
X160782000Y-60198000D01*
X160780154Y-59768575D01*
X160771641Y-59480518D01*
X160751996Y-59305876D01*
X160716754Y-59216697D01*
X160661451Y-59185031D01*
X160619722Y-59182000D01*
X160466187Y-59230152D01*
X160466187Y-59230152D01*
G37*
X160466187Y-59230152D02*
X160418639Y-59287834D01*
X160362103Y-59351209D01*
X160267650Y-59287834D01*
X160078405Y-59203442D01*
X159815441Y-59187817D01*
X159560872Y-59243464D01*
X159515339Y-59264880D01*
X159346295Y-59444044D01*
X159234910Y-59772300D01*
X159179992Y-60254129D01*
X159173333Y-60549301D01*
X159175695Y-60881409D01*
X159190182Y-61079059D01*
X159227901Y-61177124D01*
X159299955Y-61210476D01*
X159385000Y-61214000D01*
X159487609Y-61207366D01*
X159550179Y-61165083D01*
X159582612Y-61053581D01*
X159594808Y-60839288D01*
X159596666Y-60496285D01*
X159600181Y-60143225D01*
X159617415Y-59918856D01*
X159658403Y-59782575D01*
X159733180Y-59693780D01*
X159808333Y-59639881D01*
X159974043Y-59550298D01*
X160104338Y-59564787D01*
X160231666Y-59639881D01*
X160335111Y-59719577D01*
X160397951Y-59819187D01*
X160430223Y-59979313D01*
X160441960Y-60240558D01*
X160443333Y-60496285D01*
X160446501Y-60845642D01*
X160461217Y-61058859D01*
X160495305Y-61169089D01*
X160556586Y-61209485D01*
X160612666Y-61214000D01*
X160684147Y-61204032D01*
X160732083Y-61155420D01*
X160761153Y-61040103D01*
X160776032Y-60830021D01*
X160781398Y-60497111D01*
X160782000Y-60198000D01*
X160780154Y-59768575D01*
X160771641Y-59480518D01*
X160751996Y-59305876D01*
X160716754Y-59216697D01*
X160661451Y-59185031D01*
X160619722Y-59182000D01*
X160466187Y-59230152D01*
G36*
X156871283Y-59207732D02*
X156622482Y-59272775D01*
X156440969Y-59358901D01*
X156379333Y-59439223D01*
X156449779Y-59573497D01*
X156612052Y-59640903D01*
X156791688Y-59611209D01*
X157060374Y-59526804D01*
X157305458Y-59549566D01*
X157470540Y-59673315D01*
X157478097Y-59686445D01*
X157495421Y-59848297D01*
X157362022Y-59963431D01*
X157092302Y-60022666D01*
X156941378Y-60028667D01*
X156671628Y-60078731D01*
X156470145Y-60251752D01*
X156319707Y-60521075D01*
X156330013Y-60762749D01*
X156502316Y-61006014D01*
X156502485Y-61006182D01*
X156752996Y-61153500D01*
X157087816Y-61221495D01*
X157440389Y-61207748D01*
X157744160Y-61109838D01*
X157827707Y-61054371D01*
X157956944Y-60926329D01*
X157958137Y-60824174D01*
X157912678Y-60759594D01*
X157811176Y-60671537D01*
X157697928Y-60699620D01*
X157621419Y-60749889D01*
X157384435Y-60854484D01*
X157126846Y-60878981D01*
X156898466Y-60830881D01*
X156749111Y-60717681D01*
X156718000Y-60613888D01*
X156732653Y-60525272D01*
X156798651Y-60462337D01*
X156949048Y-60411449D01*
X157216901Y-60358977D01*
X157415471Y-60326235D01*
X157700462Y-60221629D01*
X157863370Y-60042042D01*
X157912369Y-59820692D01*
X157855632Y-59590796D01*
X157701335Y-59385570D01*
X157457650Y-59238233D01*
X157133899Y-59182000D01*
X156871283Y-59207732D01*
X156871283Y-59207732D01*
G37*
X156871283Y-59207732D02*
X156622482Y-59272775D01*
X156440969Y-59358901D01*
X156379333Y-59439223D01*
X156449779Y-59573497D01*
X156612052Y-59640903D01*
X156791688Y-59611209D01*
X157060374Y-59526804D01*
X157305458Y-59549566D01*
X157470540Y-59673315D01*
X157478097Y-59686445D01*
X157495421Y-59848297D01*
X157362022Y-59963431D01*
X157092302Y-60022666D01*
X156941378Y-60028667D01*
X156671628Y-60078731D01*
X156470145Y-60251752D01*
X156319707Y-60521075D01*
X156330013Y-60762749D01*
X156502316Y-61006014D01*
X156502485Y-61006182D01*
X156752996Y-61153500D01*
X157087816Y-61221495D01*
X157440389Y-61207748D01*
X157744160Y-61109838D01*
X157827707Y-61054371D01*
X157956944Y-60926329D01*
X157958137Y-60824174D01*
X157912678Y-60759594D01*
X157811176Y-60671537D01*
X157697928Y-60699620D01*
X157621419Y-60749889D01*
X157384435Y-60854484D01*
X157126846Y-60878981D01*
X156898466Y-60830881D01*
X156749111Y-60717681D01*
X156718000Y-60613888D01*
X156732653Y-60525272D01*
X156798651Y-60462337D01*
X156949048Y-60411449D01*
X157216901Y-60358977D01*
X157415471Y-60326235D01*
X157700462Y-60221629D01*
X157863370Y-60042042D01*
X157912369Y-59820692D01*
X157855632Y-59590796D01*
X157701335Y-59385570D01*
X157457650Y-59238233D01*
X157133899Y-59182000D01*
X156871283Y-59207732D01*
G36*
X154802245Y-59256920D02*
X154711318Y-59309263D01*
X154520073Y-59536757D01*
X154404713Y-59864510D01*
X154368145Y-60239982D01*
X154413279Y-60610631D01*
X154543020Y-60923915D01*
X154616716Y-61018708D01*
X154791832Y-61151286D01*
X155027256Y-61207469D01*
X155201232Y-61214000D01*
X155470135Y-61196786D01*
X155649521Y-61122684D01*
X155817612Y-60958001D01*
X155830258Y-60943064D01*
X155955297Y-60776185D01*
X156018936Y-60616403D01*
X156035679Y-60402512D01*
X156028123Y-60231122D01*
X155634138Y-60231122D01*
X155624417Y-60409667D01*
X155543217Y-60669898D01*
X155372502Y-60830203D01*
X155155445Y-60870657D01*
X154935218Y-60771335D01*
X154903714Y-60742286D01*
X154807417Y-60543724D01*
X154770791Y-60217041D01*
X154770666Y-60193904D01*
X154785294Y-59924834D01*
X154844714Y-59762725D01*
X154972234Y-59646572D01*
X154982333Y-59639881D01*
X155148043Y-59550298D01*
X155278338Y-59564787D01*
X155405666Y-59639881D01*
X155548300Y-59769980D01*
X155620121Y-59951800D01*
X155634138Y-60231122D01*
X156028123Y-60231122D01*
X156023546Y-60127323D01*
X155993205Y-59810620D01*
X155938722Y-59607275D01*
X155840016Y-59461365D01*
X155756040Y-59382260D01*
X155463617Y-59226487D01*
X155122242Y-59183069D01*
X154802245Y-59256920D01*
X154802245Y-59256920D01*
G37*
X154802245Y-59256920D02*
X154711318Y-59309263D01*
X154520073Y-59536757D01*
X154404713Y-59864510D01*
X154368145Y-60239982D01*
X154413279Y-60610631D01*
X154543020Y-60923915D01*
X154616716Y-61018708D01*
X154791832Y-61151286D01*
X155027256Y-61207469D01*
X155201232Y-61214000D01*
X155470135Y-61196786D01*
X155649521Y-61122684D01*
X155817612Y-60958001D01*
X155830258Y-60943064D01*
X155955297Y-60776185D01*
X156018936Y-60616403D01*
X156035679Y-60402512D01*
X156028123Y-60231122D01*
X155634138Y-60231122D01*
X155624417Y-60409667D01*
X155543217Y-60669898D01*
X155372502Y-60830203D01*
X155155445Y-60870657D01*
X154935218Y-60771335D01*
X154903714Y-60742286D01*
X154807417Y-60543724D01*
X154770791Y-60217041D01*
X154770666Y-60193904D01*
X154785294Y-59924834D01*
X154844714Y-59762725D01*
X154972234Y-59646572D01*
X154982333Y-59639881D01*
X155148043Y-59550298D01*
X155278338Y-59564787D01*
X155405666Y-59639881D01*
X155548300Y-59769980D01*
X155620121Y-59951800D01*
X155634138Y-60231122D01*
X156028123Y-60231122D01*
X156023546Y-60127323D01*
X155993205Y-59810620D01*
X155938722Y-59607275D01*
X155840016Y-59461365D01*
X155756040Y-59382260D01*
X155463617Y-59226487D01*
X155122242Y-59183069D01*
X154802245Y-59256920D01*
G36*
X153698247Y-59187851D02*
X153633306Y-59227851D01*
X153599748Y-59335677D01*
X153587211Y-59545001D01*
X153585333Y-59889499D01*
X153585333Y-59895619D01*
X153568439Y-60334360D01*
X153511446Y-60628467D01*
X153404890Y-60799844D01*
X153239305Y-60870397D01*
X153162000Y-60875334D01*
X152972420Y-60836235D01*
X152845337Y-60704338D01*
X152771286Y-60457736D01*
X152740800Y-60074524D01*
X152738666Y-59895619D01*
X152735465Y-59547453D01*
X152720600Y-59335336D01*
X152686186Y-59226027D01*
X152624334Y-59186284D01*
X152569333Y-59182000D01*
X152497853Y-59191968D01*
X152449916Y-59240580D01*
X152420847Y-59355897D01*
X152405968Y-59565980D01*
X152400602Y-59898889D01*
X152400000Y-60198000D01*
X152401661Y-60626882D01*
X152409763Y-60914501D01*
X152428983Y-61088918D01*
X152463996Y-61178194D01*
X152519481Y-61210390D01*
X152569333Y-61214000D01*
X152706790Y-61171556D01*
X152738666Y-61112400D01*
X152763657Y-61053496D01*
X152840266Y-61112400D01*
X153028798Y-61199977D01*
X153296459Y-61216412D01*
X153571478Y-61167391D01*
X153782081Y-61058599D01*
X153805044Y-61035980D01*
X153884221Y-60916927D01*
X153937344Y-60743913D01*
X153971284Y-60480271D01*
X153992914Y-60089333D01*
X153995434Y-60019980D01*
X154024534Y-59182000D01*
X153804934Y-59182000D01*
X153698247Y-59187851D01*
X153698247Y-59187851D01*
G37*
X153698247Y-59187851D02*
X153633306Y-59227851D01*
X153599748Y-59335677D01*
X153587211Y-59545001D01*
X153585333Y-59889499D01*
X153585333Y-59895619D01*
X153568439Y-60334360D01*
X153511446Y-60628467D01*
X153404890Y-60799844D01*
X153239305Y-60870397D01*
X153162000Y-60875334D01*
X152972420Y-60836235D01*
X152845337Y-60704338D01*
X152771286Y-60457736D01*
X152740800Y-60074524D01*
X152738666Y-59895619D01*
X152735465Y-59547453D01*
X152720600Y-59335336D01*
X152686186Y-59226027D01*
X152624334Y-59186284D01*
X152569333Y-59182000D01*
X152497853Y-59191968D01*
X152449916Y-59240580D01*
X152420847Y-59355897D01*
X152405968Y-59565980D01*
X152400602Y-59898889D01*
X152400000Y-60198000D01*
X152401661Y-60626882D01*
X152409763Y-60914501D01*
X152428983Y-61088918D01*
X152463996Y-61178194D01*
X152519481Y-61210390D01*
X152569333Y-61214000D01*
X152706790Y-61171556D01*
X152738666Y-61112400D01*
X152763657Y-61053496D01*
X152840266Y-61112400D01*
X153028798Y-61199977D01*
X153296459Y-61216412D01*
X153571478Y-61167391D01*
X153782081Y-61058599D01*
X153805044Y-61035980D01*
X153884221Y-60916927D01*
X153937344Y-60743913D01*
X153971284Y-60480271D01*
X153992914Y-60089333D01*
X153995434Y-60019980D01*
X154024534Y-59182000D01*
X153804934Y-59182000D01*
X153698247Y-59187851D01*
G36*
X151521235Y-59211995D02*
X151468666Y-59269646D01*
X151416838Y-59314046D01*
X151304899Y-59269646D01*
X151095599Y-59202925D01*
X150855992Y-59185340D01*
X150656664Y-59216821D01*
X150577374Y-59270376D01*
X150572347Y-59406020D01*
X150679908Y-59524525D01*
X150846084Y-59578250D01*
X150917653Y-59570736D01*
X151123252Y-59582497D01*
X151283769Y-59654761D01*
X151375147Y-59736128D01*
X151430456Y-59849628D01*
X151458491Y-60035429D01*
X151468047Y-60333697D01*
X151468666Y-60499134D01*
X151470642Y-60846223D01*
X151483210Y-61057617D01*
X151516328Y-61166953D01*
X151579958Y-61207868D01*
X151680333Y-61214000D01*
X151892000Y-61214000D01*
X151892000Y-59182000D01*
X151680333Y-59182000D01*
X151521235Y-59211995D01*
X151521235Y-59211995D01*
G37*
X151521235Y-59211995D02*
X151468666Y-59269646D01*
X151416838Y-59314046D01*
X151304899Y-59269646D01*
X151095599Y-59202925D01*
X150855992Y-59185340D01*
X150656664Y-59216821D01*
X150577374Y-59270376D01*
X150572347Y-59406020D01*
X150679908Y-59524525D01*
X150846084Y-59578250D01*
X150917653Y-59570736D01*
X151123252Y-59582497D01*
X151283769Y-59654761D01*
X151375147Y-59736128D01*
X151430456Y-59849628D01*
X151458491Y-60035429D01*
X151468047Y-60333697D01*
X151468666Y-60499134D01*
X151470642Y-60846223D01*
X151483210Y-61057617D01*
X151516328Y-61166953D01*
X151579958Y-61207868D01*
X151680333Y-61214000D01*
X151892000Y-61214000D01*
X151892000Y-59182000D01*
X151680333Y-59182000D01*
X151521235Y-59211995D01*
G36*
X149329240Y-59220572D02*
X149108734Y-59319623D01*
X148980826Y-59454162D01*
X148978973Y-59599194D01*
X149002677Y-59634827D01*
X149101119Y-59720925D01*
X149213457Y-59698519D01*
X149308466Y-59640668D01*
X149554981Y-59559809D01*
X149809825Y-59595868D01*
X150003954Y-59735650D01*
X150031566Y-59778840D01*
X150109196Y-60054607D01*
X150097549Y-60364016D01*
X150003920Y-60629237D01*
X149944666Y-60706000D01*
X149718906Y-60854959D01*
X149475697Y-60844653D01*
X149346434Y-60787688D01*
X149134190Y-60748353D01*
X148999511Y-60798064D01*
X148816355Y-60896086D01*
X149020678Y-61053161D01*
X149315075Y-61188152D01*
X149662296Y-61217341D01*
X149995485Y-61143706D01*
X150220522Y-60999720D01*
X150436006Y-60685980D01*
X150525537Y-60332661D01*
X150500813Y-59974530D01*
X150373533Y-59646356D01*
X150155397Y-59382907D01*
X149858103Y-59218952D01*
X149608883Y-59182000D01*
X149329240Y-59220572D01*
X149329240Y-59220572D01*
G37*
X149329240Y-59220572D02*
X149108734Y-59319623D01*
X148980826Y-59454162D01*
X148978973Y-59599194D01*
X149002677Y-59634827D01*
X149101119Y-59720925D01*
X149213457Y-59698519D01*
X149308466Y-59640668D01*
X149554981Y-59559809D01*
X149809825Y-59595868D01*
X150003954Y-59735650D01*
X150031566Y-59778840D01*
X150109196Y-60054607D01*
X150097549Y-60364016D01*
X150003920Y-60629237D01*
X149944666Y-60706000D01*
X149718906Y-60854959D01*
X149475697Y-60844653D01*
X149346434Y-60787688D01*
X149134190Y-60748353D01*
X148999511Y-60798064D01*
X148816355Y-60896086D01*
X149020678Y-61053161D01*
X149315075Y-61188152D01*
X149662296Y-61217341D01*
X149995485Y-61143706D01*
X150220522Y-60999720D01*
X150436006Y-60685980D01*
X150525537Y-60332661D01*
X150500813Y-59974530D01*
X150373533Y-59646356D01*
X150155397Y-59382907D01*
X149858103Y-59218952D01*
X149608883Y-59182000D01*
X149329240Y-59220572D01*
G36*
X147558764Y-59246642D02*
X147303230Y-59426948D01*
X147126940Y-59698570D01*
X147066000Y-60022154D01*
X147066000Y-60367334D01*
X147701000Y-60367334D01*
X148039819Y-60374674D01*
X148238407Y-60400329D01*
X148325375Y-60449748D01*
X148336000Y-60488286D01*
X148262710Y-60685074D01*
X148075605Y-60818129D01*
X147823834Y-60869724D01*
X147556547Y-60822134D01*
X147492657Y-60792446D01*
X147329747Y-60762889D01*
X147226253Y-60843941D01*
X147163471Y-60963504D01*
X147236604Y-61066145D01*
X147275878Y-61096162D01*
X147498053Y-61181143D01*
X147804512Y-61209998D01*
X148120072Y-61183549D01*
X148369544Y-61102615D01*
X148399399Y-61083900D01*
X148593998Y-60852725D01*
X148701033Y-60525950D01*
X148719378Y-60153587D01*
X148678260Y-59941893D01*
X148321116Y-59941893D01*
X148167223Y-60008875D01*
X147873061Y-60028667D01*
X147609821Y-60024329D01*
X147480856Y-59999991D01*
X147451135Y-59938669D01*
X147480160Y-59838167D01*
X147627645Y-59638362D01*
X147846599Y-59548507D01*
X148076502Y-59585665D01*
X148164103Y-59645347D01*
X148318757Y-59822454D01*
X148321116Y-59941893D01*
X148678260Y-59941893D01*
X148647911Y-59785645D01*
X148485507Y-59472134D01*
X148436905Y-59414834D01*
X148161994Y-59224462D01*
X147857150Y-59173772D01*
X147558764Y-59246642D01*
X147558764Y-59246642D01*
G37*
X147558764Y-59246642D02*
X147303230Y-59426948D01*
X147126940Y-59698570D01*
X147066000Y-60022154D01*
X147066000Y-60367334D01*
X147701000Y-60367334D01*
X148039819Y-60374674D01*
X148238407Y-60400329D01*
X148325375Y-60449748D01*
X148336000Y-60488286D01*
X148262710Y-60685074D01*
X148075605Y-60818129D01*
X147823834Y-60869724D01*
X147556547Y-60822134D01*
X147492657Y-60792446D01*
X147329747Y-60762889D01*
X147226253Y-60843941D01*
X147163471Y-60963504D01*
X147236604Y-61066145D01*
X147275878Y-61096162D01*
X147498053Y-61181143D01*
X147804512Y-61209998D01*
X148120072Y-61183549D01*
X148369544Y-61102615D01*
X148399399Y-61083900D01*
X148593998Y-60852725D01*
X148701033Y-60525950D01*
X148719378Y-60153587D01*
X148678260Y-59941893D01*
X148321116Y-59941893D01*
X148167223Y-60008875D01*
X147873061Y-60028667D01*
X147609821Y-60024329D01*
X147480856Y-59999991D01*
X147451135Y-59938669D01*
X147480160Y-59838167D01*
X147627645Y-59638362D01*
X147846599Y-59548507D01*
X148076502Y-59585665D01*
X148164103Y-59645347D01*
X148318757Y-59822454D01*
X148321116Y-59941893D01*
X148678260Y-59941893D01*
X148647911Y-59785645D01*
X148485507Y-59472134D01*
X148436905Y-59414834D01*
X148161994Y-59224462D01*
X147857150Y-59173772D01*
X147558764Y-59246642D01*
G36*
X155807375Y-44323000D02*
X155734879Y-44702442D01*
X155660511Y-45088775D01*
X155609962Y-45349149D01*
X155525236Y-45782632D01*
X154791169Y-46093370D01*
X154057103Y-46404109D01*
X152281171Y-45204973D01*
X150787778Y-46698366D01*
X151382193Y-47556415D01*
X151976609Y-48414463D01*
X151676616Y-49120398D01*
X151530605Y-49444799D01*
X151395206Y-49712117D01*
X151291900Y-49881205D01*
X151262494Y-49913620D01*
X151136400Y-49962595D01*
X150881962Y-50028517D01*
X150538135Y-50102167D01*
X150205448Y-50163828D01*
X149262533Y-50326750D01*
X149286100Y-51384573D01*
X149309666Y-52442395D01*
X151257000Y-52797105D01*
X151587844Y-53611016D01*
X151918688Y-54424926D01*
X151353911Y-55255517D01*
X150789135Y-56086108D01*
X151524992Y-56825391D01*
X151813280Y-57104009D01*
X152063887Y-57325749D01*
X152251013Y-57469186D01*
X152348856Y-57512898D01*
X152351591Y-57511730D01*
X152456075Y-57443782D01*
X152665942Y-57302480D01*
X152947286Y-57110769D01*
X153167844Y-56959383D01*
X153893355Y-56459979D01*
X154287820Y-56651625D01*
X154517706Y-56752530D01*
X154679342Y-56803425D01*
X154723593Y-56801963D01*
X154783338Y-56697264D01*
X154888821Y-56468171D01*
X155028938Y-56142662D01*
X155192585Y-55748718D01*
X155368657Y-55314318D01*
X155546052Y-54867441D01*
X155713665Y-54436068D01*
X155860391Y-54048176D01*
X155975128Y-53731746D01*
X156046770Y-53514757D01*
X156064215Y-53425189D01*
X156063852Y-53424817D01*
X155962887Y-53344864D01*
X155778053Y-53201604D01*
X155655345Y-53107293D01*
X155243604Y-52699282D01*
X154972775Y-52233903D01*
X154834905Y-51734487D01*
X154822041Y-51224365D01*
X154926228Y-50726870D01*
X155139512Y-50265333D01*
X155453941Y-49863087D01*
X155861560Y-49543462D01*
X156354416Y-49329792D01*
X156924554Y-49245407D01*
X156972000Y-49244940D01*
X157577601Y-49320352D01*
X158103451Y-49544746D01*
X158544947Y-49915357D01*
X158875161Y-50387652D01*
X159077258Y-50925537D01*
X159126401Y-51487121D01*
X159029513Y-52040306D01*
X158793514Y-52552994D01*
X158425328Y-52993088D01*
X158288655Y-53107293D01*
X158078813Y-53268923D01*
X157924091Y-53389594D01*
X157880148Y-53424817D01*
X157896060Y-53510757D01*
X157966454Y-53724834D01*
X158080226Y-54039069D01*
X158226273Y-54425480D01*
X158393489Y-54856090D01*
X158570772Y-55302919D01*
X158747017Y-55737988D01*
X158911120Y-56133316D01*
X159051978Y-56460924D01*
X159158485Y-56692833D01*
X159219540Y-56801064D01*
X159220407Y-56801963D01*
X159313017Y-56791610D01*
X159505600Y-56720301D01*
X159656180Y-56651625D01*
X160050645Y-56459979D01*
X160776156Y-56959383D01*
X161087289Y-57172677D01*
X161350598Y-57351568D01*
X161532180Y-57473112D01*
X161592409Y-57511730D01*
X161683330Y-57475485D01*
X161865266Y-57338076D01*
X162112417Y-57120925D01*
X162398983Y-56845456D01*
X162419008Y-56825391D01*
X163154865Y-56086108D01*
X162590088Y-55255517D01*
X162025312Y-54424926D01*
X162356156Y-53611016D01*
X162687000Y-52797105D01*
X163660666Y-52619750D01*
X164634333Y-52442395D01*
X164657900Y-51384573D01*
X164681466Y-50326750D01*
X163738551Y-50163828D01*
X163349440Y-50090851D01*
X163016678Y-50017780D01*
X162779222Y-49953838D01*
X162681506Y-49913620D01*
X162598797Y-49799923D01*
X162474678Y-49570152D01*
X162330630Y-49265454D01*
X162267383Y-49120398D01*
X161967391Y-48414463D01*
X162561807Y-47556415D01*
X163156222Y-46698366D01*
X162409525Y-45951670D01*
X161662828Y-45204973D01*
X160774863Y-45804541D01*
X159886897Y-46404109D01*
X159152831Y-46093370D01*
X158418764Y-45782632D01*
X158334037Y-45349149D01*
X158272069Y-45029645D01*
X158196773Y-44638030D01*
X158136625Y-44323000D01*
X158023939Y-43730334D01*
X155920061Y-43730334D01*
X155807375Y-44323000D01*
X155807375Y-44323000D01*
G37*
X155807375Y-44323000D02*
X155734879Y-44702442D01*
X155660511Y-45088775D01*
X155609962Y-45349149D01*
X155525236Y-45782632D01*
X154791169Y-46093370D01*
X154057103Y-46404109D01*
X152281171Y-45204973D01*
X150787778Y-46698366D01*
X151382193Y-47556415D01*
X151976609Y-48414463D01*
X151676616Y-49120398D01*
X151530605Y-49444799D01*
X151395206Y-49712117D01*
X151291900Y-49881205D01*
X151262494Y-49913620D01*
X151136400Y-49962595D01*
X150881962Y-50028517D01*
X150538135Y-50102167D01*
X150205448Y-50163828D01*
X149262533Y-50326750D01*
X149286100Y-51384573D01*
X149309666Y-52442395D01*
X151257000Y-52797105D01*
X151587844Y-53611016D01*
X151918688Y-54424926D01*
X151353911Y-55255517D01*
X150789135Y-56086108D01*
X151524992Y-56825391D01*
X151813280Y-57104009D01*
X152063887Y-57325749D01*
X152251013Y-57469186D01*
X152348856Y-57512898D01*
X152351591Y-57511730D01*
X152456075Y-57443782D01*
X152665942Y-57302480D01*
X152947286Y-57110769D01*
X153167844Y-56959383D01*
X153893355Y-56459979D01*
X154287820Y-56651625D01*
X154517706Y-56752530D01*
X154679342Y-56803425D01*
X154723593Y-56801963D01*
X154783338Y-56697264D01*
X154888821Y-56468171D01*
X155028938Y-56142662D01*
X155192585Y-55748718D01*
X155368657Y-55314318D01*
X155546052Y-54867441D01*
X155713665Y-54436068D01*
X155860391Y-54048176D01*
X155975128Y-53731746D01*
X156046770Y-53514757D01*
X156064215Y-53425189D01*
X156063852Y-53424817D01*
X155962887Y-53344864D01*
X155778053Y-53201604D01*
X155655345Y-53107293D01*
X155243604Y-52699282D01*
X154972775Y-52233903D01*
X154834905Y-51734487D01*
X154822041Y-51224365D01*
X154926228Y-50726870D01*
X155139512Y-50265333D01*
X155453941Y-49863087D01*
X155861560Y-49543462D01*
X156354416Y-49329792D01*
X156924554Y-49245407D01*
X156972000Y-49244940D01*
X157577601Y-49320352D01*
X158103451Y-49544746D01*
X158544947Y-49915357D01*
X158875161Y-50387652D01*
X159077258Y-50925537D01*
X159126401Y-51487121D01*
X159029513Y-52040306D01*
X158793514Y-52552994D01*
X158425328Y-52993088D01*
X158288655Y-53107293D01*
X158078813Y-53268923D01*
X157924091Y-53389594D01*
X157880148Y-53424817D01*
X157896060Y-53510757D01*
X157966454Y-53724834D01*
X158080226Y-54039069D01*
X158226273Y-54425480D01*
X158393489Y-54856090D01*
X158570772Y-55302919D01*
X158747017Y-55737988D01*
X158911120Y-56133316D01*
X159051978Y-56460924D01*
X159158485Y-56692833D01*
X159219540Y-56801064D01*
X159220407Y-56801963D01*
X159313017Y-56791610D01*
X159505600Y-56720301D01*
X159656180Y-56651625D01*
X160050645Y-56459979D01*
X160776156Y-56959383D01*
X161087289Y-57172677D01*
X161350598Y-57351568D01*
X161532180Y-57473112D01*
X161592409Y-57511730D01*
X161683330Y-57475485D01*
X161865266Y-57338076D01*
X162112417Y-57120925D01*
X162398983Y-56845456D01*
X162419008Y-56825391D01*
X163154865Y-56086108D01*
X162590088Y-55255517D01*
X162025312Y-54424926D01*
X162356156Y-53611016D01*
X162687000Y-52797105D01*
X163660666Y-52619750D01*
X164634333Y-52442395D01*
X164657900Y-51384573D01*
X164681466Y-50326750D01*
X163738551Y-50163828D01*
X163349440Y-50090851D01*
X163016678Y-50017780D01*
X162779222Y-49953838D01*
X162681506Y-49913620D01*
X162598797Y-49799923D01*
X162474678Y-49570152D01*
X162330630Y-49265454D01*
X162267383Y-49120398D01*
X161967391Y-48414463D01*
X162561807Y-47556415D01*
X163156222Y-46698366D01*
X162409525Y-45951670D01*
X161662828Y-45204973D01*
X160774863Y-45804541D01*
X159886897Y-46404109D01*
X159152831Y-46093370D01*
X158418764Y-45782632D01*
X158334037Y-45349149D01*
X158272069Y-45029645D01*
X158196773Y-44638030D01*
X158136625Y-44323000D01*
X158023939Y-43730334D01*
X155920061Y-43730334D01*
X155807375Y-44323000D01*
D15*
X83097381Y-45442381D02*
X83097381Y-44442381D01*
X82859286Y-44442381D01*
X82716428Y-44490000D01*
X82621190Y-44585238D01*
X82573571Y-44680476D01*
X82525952Y-44870952D01*
X82525952Y-45013810D01*
X82573571Y-45204286D01*
X82621190Y-45299524D01*
X82716428Y-45394762D01*
X82859286Y-45442381D01*
X83097381Y-45442381D01*
X82335476Y-45537619D02*
X81573571Y-45537619D01*
X80811666Y-45442381D02*
X81383095Y-45442381D01*
X81097381Y-45442381D02*
X81097381Y-44442381D01*
X81192619Y-44585238D01*
X81287857Y-44680476D01*
X81383095Y-44728095D01*
X80621190Y-45537619D02*
X79859285Y-45537619D01*
X79668809Y-45394762D02*
X79525952Y-45442381D01*
X79287856Y-45442381D01*
X79192618Y-45394762D01*
X79144999Y-45347143D01*
X79097380Y-45251905D01*
X79097380Y-45156667D01*
X79144999Y-45061429D01*
X79192618Y-45013810D01*
X79287856Y-44966190D01*
X79478333Y-44918571D01*
X79573571Y-44870952D01*
X79621190Y-44823333D01*
X79668809Y-44728095D01*
X79668809Y-44632857D01*
X79621190Y-44537619D01*
X79573571Y-44490000D01*
X79478333Y-44442381D01*
X79240237Y-44442381D01*
X79097380Y-44490000D01*
X78144999Y-45442381D02*
X78716428Y-45442381D01*
X78430714Y-45442381D02*
X78430714Y-44442381D01*
X78525952Y-44585238D01*
X78621190Y-44680476D01*
X78716428Y-44728095D01*
X83097381Y-63222381D02*
X83097381Y-62222381D01*
X82859286Y-62222381D01*
X82716428Y-62270000D01*
X82621190Y-62365238D01*
X82573571Y-62460476D01*
X82525952Y-62650952D01*
X82525952Y-62793810D01*
X82573571Y-62984286D01*
X82621190Y-63079524D01*
X82716428Y-63174762D01*
X82859286Y-63222381D01*
X83097381Y-63222381D01*
X82335476Y-63317619D02*
X81573571Y-63317619D01*
X81383095Y-62317619D02*
X81335476Y-62270000D01*
X81240238Y-62222381D01*
X81002142Y-62222381D01*
X80906904Y-62270000D01*
X80859285Y-62317619D01*
X80811666Y-62412857D01*
X80811666Y-62508095D01*
X80859285Y-62650952D01*
X81430714Y-63222381D01*
X80811666Y-63222381D01*
X80621190Y-63317619D02*
X79859285Y-63317619D01*
X79668809Y-63174762D02*
X79525952Y-63222381D01*
X79287856Y-63222381D01*
X79192618Y-63174762D01*
X79144999Y-63127143D01*
X79097380Y-63031905D01*
X79097380Y-62936667D01*
X79144999Y-62841429D01*
X79192618Y-62793810D01*
X79287856Y-62746190D01*
X79478333Y-62698571D01*
X79573571Y-62650952D01*
X79621190Y-62603333D01*
X79668809Y-62508095D01*
X79668809Y-62412857D01*
X79621190Y-62317619D01*
X79573571Y-62270000D01*
X79478333Y-62222381D01*
X79240237Y-62222381D01*
X79097380Y-62270000D01*
X78144999Y-63222381D02*
X78716428Y-63222381D01*
X78430714Y-63222381D02*
X78430714Y-62222381D01*
X78525952Y-62365238D01*
X78621190Y-62460476D01*
X78716428Y-62508095D01*
X83097381Y-81002381D02*
X83097381Y-80002381D01*
X82859286Y-80002381D01*
X82716428Y-80050000D01*
X82621190Y-80145238D01*
X82573571Y-80240476D01*
X82525952Y-80430952D01*
X82525952Y-80573810D01*
X82573571Y-80764286D01*
X82621190Y-80859524D01*
X82716428Y-80954762D01*
X82859286Y-81002381D01*
X83097381Y-81002381D01*
X82335476Y-81097619D02*
X81573571Y-81097619D01*
X81430714Y-80002381D02*
X80811666Y-80002381D01*
X81145000Y-80383333D01*
X81002142Y-80383333D01*
X80906904Y-80430952D01*
X80859285Y-80478571D01*
X80811666Y-80573810D01*
X80811666Y-80811905D01*
X80859285Y-80907143D01*
X80906904Y-80954762D01*
X81002142Y-81002381D01*
X81287857Y-81002381D01*
X81383095Y-80954762D01*
X81430714Y-80907143D01*
X80621190Y-81097619D02*
X79859285Y-81097619D01*
X79668809Y-80954762D02*
X79525952Y-81002381D01*
X79287856Y-81002381D01*
X79192618Y-80954762D01*
X79144999Y-80907143D01*
X79097380Y-80811905D01*
X79097380Y-80716667D01*
X79144999Y-80621429D01*
X79192618Y-80573810D01*
X79287856Y-80526190D01*
X79478333Y-80478571D01*
X79573571Y-80430952D01*
X79621190Y-80383333D01*
X79668809Y-80288095D01*
X79668809Y-80192857D01*
X79621190Y-80097619D01*
X79573571Y-80050000D01*
X79478333Y-80002381D01*
X79240237Y-80002381D01*
X79097380Y-80050000D01*
X78144999Y-81002381D02*
X78716428Y-81002381D01*
X78430714Y-81002381D02*
X78430714Y-80002381D01*
X78525952Y-80145238D01*
X78621190Y-80240476D01*
X78716428Y-80288095D01*
X83097381Y-98782381D02*
X83097381Y-97782381D01*
X82859286Y-97782381D01*
X82716428Y-97830000D01*
X82621190Y-97925238D01*
X82573571Y-98020476D01*
X82525952Y-98210952D01*
X82525952Y-98353810D01*
X82573571Y-98544286D01*
X82621190Y-98639524D01*
X82716428Y-98734762D01*
X82859286Y-98782381D01*
X83097381Y-98782381D01*
X82335476Y-98877619D02*
X81573571Y-98877619D01*
X80906904Y-98115714D02*
X80906904Y-98782381D01*
X81145000Y-97734762D02*
X81383095Y-98449048D01*
X80764047Y-98449048D01*
X80621190Y-98877619D02*
X79859285Y-98877619D01*
X79668809Y-98734762D02*
X79525952Y-98782381D01*
X79287856Y-98782381D01*
X79192618Y-98734762D01*
X79144999Y-98687143D01*
X79097380Y-98591905D01*
X79097380Y-98496667D01*
X79144999Y-98401429D01*
X79192618Y-98353810D01*
X79287856Y-98306190D01*
X79478333Y-98258571D01*
X79573571Y-98210952D01*
X79621190Y-98163333D01*
X79668809Y-98068095D01*
X79668809Y-97972857D01*
X79621190Y-97877619D01*
X79573571Y-97830000D01*
X79478333Y-97782381D01*
X79240237Y-97782381D01*
X79097380Y-97830000D01*
X78144999Y-98782381D02*
X78716428Y-98782381D01*
X78430714Y-98782381D02*
X78430714Y-97782381D01*
X78525952Y-97925238D01*
X78621190Y-98020476D01*
X78716428Y-98068095D01*
X83097381Y-116562381D02*
X83097381Y-115562381D01*
X82859286Y-115562381D01*
X82716428Y-115610000D01*
X82621190Y-115705238D01*
X82573571Y-115800476D01*
X82525952Y-115990952D01*
X82525952Y-116133810D01*
X82573571Y-116324286D01*
X82621190Y-116419524D01*
X82716428Y-116514762D01*
X82859286Y-116562381D01*
X83097381Y-116562381D01*
X82335476Y-116657619D02*
X81573571Y-116657619D01*
X80859285Y-115562381D02*
X81335476Y-115562381D01*
X81383095Y-116038571D01*
X81335476Y-115990952D01*
X81240238Y-115943333D01*
X81002142Y-115943333D01*
X80906904Y-115990952D01*
X80859285Y-116038571D01*
X80811666Y-116133810D01*
X80811666Y-116371905D01*
X80859285Y-116467143D01*
X80906904Y-116514762D01*
X81002142Y-116562381D01*
X81240238Y-116562381D01*
X81335476Y-116514762D01*
X81383095Y-116467143D01*
X80621190Y-116657619D02*
X79859285Y-116657619D01*
X79668809Y-116514762D02*
X79525952Y-116562381D01*
X79287856Y-116562381D01*
X79192618Y-116514762D01*
X79144999Y-116467143D01*
X79097380Y-116371905D01*
X79097380Y-116276667D01*
X79144999Y-116181429D01*
X79192618Y-116133810D01*
X79287856Y-116086190D01*
X79478333Y-116038571D01*
X79573571Y-115990952D01*
X79621190Y-115943333D01*
X79668809Y-115848095D01*
X79668809Y-115752857D01*
X79621190Y-115657619D01*
X79573571Y-115610000D01*
X79478333Y-115562381D01*
X79240237Y-115562381D01*
X79097380Y-115610000D01*
X78144999Y-116562381D02*
X78716428Y-116562381D01*
X78430714Y-116562381D02*
X78430714Y-115562381D01*
X78525952Y-115705238D01*
X78621190Y-115800476D01*
X78716428Y-115848095D01*
X100877381Y-116562381D02*
X100877381Y-115562381D01*
X100639286Y-115562381D01*
X100496428Y-115610000D01*
X100401190Y-115705238D01*
X100353571Y-115800476D01*
X100305952Y-115990952D01*
X100305952Y-116133810D01*
X100353571Y-116324286D01*
X100401190Y-116419524D01*
X100496428Y-116514762D01*
X100639286Y-116562381D01*
X100877381Y-116562381D01*
X100115476Y-116657619D02*
X99353571Y-116657619D01*
X98686904Y-115562381D02*
X98877381Y-115562381D01*
X98972619Y-115610000D01*
X99020238Y-115657619D01*
X99115476Y-115800476D01*
X99163095Y-115990952D01*
X99163095Y-116371905D01*
X99115476Y-116467143D01*
X99067857Y-116514762D01*
X98972619Y-116562381D01*
X98782142Y-116562381D01*
X98686904Y-116514762D01*
X98639285Y-116467143D01*
X98591666Y-116371905D01*
X98591666Y-116133810D01*
X98639285Y-116038571D01*
X98686904Y-115990952D01*
X98782142Y-115943333D01*
X98972619Y-115943333D01*
X99067857Y-115990952D01*
X99115476Y-116038571D01*
X99163095Y-116133810D01*
X98401190Y-116657619D02*
X97639285Y-116657619D01*
X97448809Y-116514762D02*
X97305952Y-116562381D01*
X97067856Y-116562381D01*
X96972618Y-116514762D01*
X96924999Y-116467143D01*
X96877380Y-116371905D01*
X96877380Y-116276667D01*
X96924999Y-116181429D01*
X96972618Y-116133810D01*
X97067856Y-116086190D01*
X97258333Y-116038571D01*
X97353571Y-115990952D01*
X97401190Y-115943333D01*
X97448809Y-115848095D01*
X97448809Y-115752857D01*
X97401190Y-115657619D01*
X97353571Y-115610000D01*
X97258333Y-115562381D01*
X97020237Y-115562381D01*
X96877380Y-115610000D01*
X95924999Y-116562381D02*
X96496428Y-116562381D01*
X96210714Y-116562381D02*
X96210714Y-115562381D01*
X96305952Y-115705238D01*
X96401190Y-115800476D01*
X96496428Y-115848095D01*
X100877381Y-98782381D02*
X100877381Y-97782381D01*
X100639286Y-97782381D01*
X100496428Y-97830000D01*
X100401190Y-97925238D01*
X100353571Y-98020476D01*
X100305952Y-98210952D01*
X100305952Y-98353810D01*
X100353571Y-98544286D01*
X100401190Y-98639524D01*
X100496428Y-98734762D01*
X100639286Y-98782381D01*
X100877381Y-98782381D01*
X100115476Y-98877619D02*
X99353571Y-98877619D01*
X99210714Y-97782381D02*
X98544047Y-97782381D01*
X98972619Y-98782381D01*
X98401190Y-98877619D02*
X97639285Y-98877619D01*
X97448809Y-98734762D02*
X97305952Y-98782381D01*
X97067856Y-98782381D01*
X96972618Y-98734762D01*
X96924999Y-98687143D01*
X96877380Y-98591905D01*
X96877380Y-98496667D01*
X96924999Y-98401429D01*
X96972618Y-98353810D01*
X97067856Y-98306190D01*
X97258333Y-98258571D01*
X97353571Y-98210952D01*
X97401190Y-98163333D01*
X97448809Y-98068095D01*
X97448809Y-97972857D01*
X97401190Y-97877619D01*
X97353571Y-97830000D01*
X97258333Y-97782381D01*
X97020237Y-97782381D01*
X96877380Y-97830000D01*
X95924999Y-98782381D02*
X96496428Y-98782381D01*
X96210714Y-98782381D02*
X96210714Y-97782381D01*
X96305952Y-97925238D01*
X96401190Y-98020476D01*
X96496428Y-98068095D01*
X100877381Y-81002381D02*
X100877381Y-80002381D01*
X100639286Y-80002381D01*
X100496428Y-80050000D01*
X100401190Y-80145238D01*
X100353571Y-80240476D01*
X100305952Y-80430952D01*
X100305952Y-80573810D01*
X100353571Y-80764286D01*
X100401190Y-80859524D01*
X100496428Y-80954762D01*
X100639286Y-81002381D01*
X100877381Y-81002381D01*
X100115476Y-81097619D02*
X99353571Y-81097619D01*
X98972619Y-80430952D02*
X99067857Y-80383333D01*
X99115476Y-80335714D01*
X99163095Y-80240476D01*
X99163095Y-80192857D01*
X99115476Y-80097619D01*
X99067857Y-80050000D01*
X98972619Y-80002381D01*
X98782142Y-80002381D01*
X98686904Y-80050000D01*
X98639285Y-80097619D01*
X98591666Y-80192857D01*
X98591666Y-80240476D01*
X98639285Y-80335714D01*
X98686904Y-80383333D01*
X98782142Y-80430952D01*
X98972619Y-80430952D01*
X99067857Y-80478571D01*
X99115476Y-80526190D01*
X99163095Y-80621429D01*
X99163095Y-80811905D01*
X99115476Y-80907143D01*
X99067857Y-80954762D01*
X98972619Y-81002381D01*
X98782142Y-81002381D01*
X98686904Y-80954762D01*
X98639285Y-80907143D01*
X98591666Y-80811905D01*
X98591666Y-80621429D01*
X98639285Y-80526190D01*
X98686904Y-80478571D01*
X98782142Y-80430952D01*
X98401190Y-81097619D02*
X97639285Y-81097619D01*
X97448809Y-80954762D02*
X97305952Y-81002381D01*
X97067856Y-81002381D01*
X96972618Y-80954762D01*
X96924999Y-80907143D01*
X96877380Y-80811905D01*
X96877380Y-80716667D01*
X96924999Y-80621429D01*
X96972618Y-80573810D01*
X97067856Y-80526190D01*
X97258333Y-80478571D01*
X97353571Y-80430952D01*
X97401190Y-80383333D01*
X97448809Y-80288095D01*
X97448809Y-80192857D01*
X97401190Y-80097619D01*
X97353571Y-80050000D01*
X97258333Y-80002381D01*
X97020237Y-80002381D01*
X96877380Y-80050000D01*
X95924999Y-81002381D02*
X96496428Y-81002381D01*
X96210714Y-81002381D02*
X96210714Y-80002381D01*
X96305952Y-80145238D01*
X96401190Y-80240476D01*
X96496428Y-80288095D01*
X100877381Y-63222381D02*
X100877381Y-62222381D01*
X100639286Y-62222381D01*
X100496428Y-62270000D01*
X100401190Y-62365238D01*
X100353571Y-62460476D01*
X100305952Y-62650952D01*
X100305952Y-62793810D01*
X100353571Y-62984286D01*
X100401190Y-63079524D01*
X100496428Y-63174762D01*
X100639286Y-63222381D01*
X100877381Y-63222381D01*
X100115476Y-63317619D02*
X99353571Y-63317619D01*
X99067857Y-63222381D02*
X98877381Y-63222381D01*
X98782142Y-63174762D01*
X98734523Y-63127143D01*
X98639285Y-62984286D01*
X98591666Y-62793810D01*
X98591666Y-62412857D01*
X98639285Y-62317619D01*
X98686904Y-62270000D01*
X98782142Y-62222381D01*
X98972619Y-62222381D01*
X99067857Y-62270000D01*
X99115476Y-62317619D01*
X99163095Y-62412857D01*
X99163095Y-62650952D01*
X99115476Y-62746190D01*
X99067857Y-62793810D01*
X98972619Y-62841429D01*
X98782142Y-62841429D01*
X98686904Y-62793810D01*
X98639285Y-62746190D01*
X98591666Y-62650952D01*
X98401190Y-63317619D02*
X97639285Y-63317619D01*
X97448809Y-63174762D02*
X97305952Y-63222381D01*
X97067856Y-63222381D01*
X96972618Y-63174762D01*
X96924999Y-63127143D01*
X96877380Y-63031905D01*
X96877380Y-62936667D01*
X96924999Y-62841429D01*
X96972618Y-62793810D01*
X97067856Y-62746190D01*
X97258333Y-62698571D01*
X97353571Y-62650952D01*
X97401190Y-62603333D01*
X97448809Y-62508095D01*
X97448809Y-62412857D01*
X97401190Y-62317619D01*
X97353571Y-62270000D01*
X97258333Y-62222381D01*
X97020237Y-62222381D01*
X96877380Y-62270000D01*
X95924999Y-63222381D02*
X96496428Y-63222381D01*
X96210714Y-63222381D02*
X96210714Y-62222381D01*
X96305952Y-62365238D01*
X96401190Y-62460476D01*
X96496428Y-62508095D01*
X101353572Y-45442381D02*
X101353572Y-44442381D01*
X101115477Y-44442381D01*
X100972619Y-44490000D01*
X100877381Y-44585238D01*
X100829762Y-44680476D01*
X100782143Y-44870952D01*
X100782143Y-45013810D01*
X100829762Y-45204286D01*
X100877381Y-45299524D01*
X100972619Y-45394762D01*
X101115477Y-45442381D01*
X101353572Y-45442381D01*
X100591667Y-45537619D02*
X99829762Y-45537619D01*
X99067857Y-45442381D02*
X99639286Y-45442381D01*
X99353572Y-45442381D02*
X99353572Y-44442381D01*
X99448810Y-44585238D01*
X99544048Y-44680476D01*
X99639286Y-44728095D01*
X98448810Y-44442381D02*
X98353571Y-44442381D01*
X98258333Y-44490000D01*
X98210714Y-44537619D01*
X98163095Y-44632857D01*
X98115476Y-44823333D01*
X98115476Y-45061429D01*
X98163095Y-45251905D01*
X98210714Y-45347143D01*
X98258333Y-45394762D01*
X98353571Y-45442381D01*
X98448810Y-45442381D01*
X98544048Y-45394762D01*
X98591667Y-45347143D01*
X98639286Y-45251905D01*
X98686905Y-45061429D01*
X98686905Y-44823333D01*
X98639286Y-44632857D01*
X98591667Y-44537619D01*
X98544048Y-44490000D01*
X98448810Y-44442381D01*
X97925000Y-45537619D02*
X97163095Y-45537619D01*
X96972619Y-45394762D02*
X96829762Y-45442381D01*
X96591666Y-45442381D01*
X96496428Y-45394762D01*
X96448809Y-45347143D01*
X96401190Y-45251905D01*
X96401190Y-45156667D01*
X96448809Y-45061429D01*
X96496428Y-45013810D01*
X96591666Y-44966190D01*
X96782143Y-44918571D01*
X96877381Y-44870952D01*
X96925000Y-44823333D01*
X96972619Y-44728095D01*
X96972619Y-44632857D01*
X96925000Y-44537619D01*
X96877381Y-44490000D01*
X96782143Y-44442381D01*
X96544047Y-44442381D01*
X96401190Y-44490000D01*
X95448809Y-45442381D02*
X96020238Y-45442381D01*
X95734524Y-45442381D02*
X95734524Y-44442381D01*
X95829762Y-44585238D01*
X95925000Y-44680476D01*
X96020238Y-44728095D01*
X119133572Y-45442381D02*
X119133572Y-44442381D01*
X118895477Y-44442381D01*
X118752619Y-44490000D01*
X118657381Y-44585238D01*
X118609762Y-44680476D01*
X118562143Y-44870952D01*
X118562143Y-45013810D01*
X118609762Y-45204286D01*
X118657381Y-45299524D01*
X118752619Y-45394762D01*
X118895477Y-45442381D01*
X119133572Y-45442381D01*
X118371667Y-45537619D02*
X117609762Y-45537619D01*
X116847857Y-45442381D02*
X117419286Y-45442381D01*
X117133572Y-45442381D02*
X117133572Y-44442381D01*
X117228810Y-44585238D01*
X117324048Y-44680476D01*
X117419286Y-44728095D01*
X115895476Y-45442381D02*
X116466905Y-45442381D01*
X116181191Y-45442381D02*
X116181191Y-44442381D01*
X116276429Y-44585238D01*
X116371667Y-44680476D01*
X116466905Y-44728095D01*
X115705000Y-45537619D02*
X114943095Y-45537619D01*
X114752619Y-45394762D02*
X114609762Y-45442381D01*
X114371666Y-45442381D01*
X114276428Y-45394762D01*
X114228809Y-45347143D01*
X114181190Y-45251905D01*
X114181190Y-45156667D01*
X114228809Y-45061429D01*
X114276428Y-45013810D01*
X114371666Y-44966190D01*
X114562143Y-44918571D01*
X114657381Y-44870952D01*
X114705000Y-44823333D01*
X114752619Y-44728095D01*
X114752619Y-44632857D01*
X114705000Y-44537619D01*
X114657381Y-44490000D01*
X114562143Y-44442381D01*
X114324047Y-44442381D01*
X114181190Y-44490000D01*
X113228809Y-45442381D02*
X113800238Y-45442381D01*
X113514524Y-45442381D02*
X113514524Y-44442381D01*
X113609762Y-44585238D01*
X113705000Y-44680476D01*
X113800238Y-44728095D01*
X119133572Y-63222381D02*
X119133572Y-62222381D01*
X118895477Y-62222381D01*
X118752619Y-62270000D01*
X118657381Y-62365238D01*
X118609762Y-62460476D01*
X118562143Y-62650952D01*
X118562143Y-62793810D01*
X118609762Y-62984286D01*
X118657381Y-63079524D01*
X118752619Y-63174762D01*
X118895477Y-63222381D01*
X119133572Y-63222381D01*
X118371667Y-63317619D02*
X117609762Y-63317619D01*
X116847857Y-63222381D02*
X117419286Y-63222381D01*
X117133572Y-63222381D02*
X117133572Y-62222381D01*
X117228810Y-62365238D01*
X117324048Y-62460476D01*
X117419286Y-62508095D01*
X116466905Y-62317619D02*
X116419286Y-62270000D01*
X116324048Y-62222381D01*
X116085952Y-62222381D01*
X115990714Y-62270000D01*
X115943095Y-62317619D01*
X115895476Y-62412857D01*
X115895476Y-62508095D01*
X115943095Y-62650952D01*
X116514524Y-63222381D01*
X115895476Y-63222381D01*
X115705000Y-63317619D02*
X114943095Y-63317619D01*
X114752619Y-63174762D02*
X114609762Y-63222381D01*
X114371666Y-63222381D01*
X114276428Y-63174762D01*
X114228809Y-63127143D01*
X114181190Y-63031905D01*
X114181190Y-62936667D01*
X114228809Y-62841429D01*
X114276428Y-62793810D01*
X114371666Y-62746190D01*
X114562143Y-62698571D01*
X114657381Y-62650952D01*
X114705000Y-62603333D01*
X114752619Y-62508095D01*
X114752619Y-62412857D01*
X114705000Y-62317619D01*
X114657381Y-62270000D01*
X114562143Y-62222381D01*
X114324047Y-62222381D01*
X114181190Y-62270000D01*
X113228809Y-63222381D02*
X113800238Y-63222381D01*
X113514524Y-63222381D02*
X113514524Y-62222381D01*
X113609762Y-62365238D01*
X113705000Y-62460476D01*
X113800238Y-62508095D01*
X119133572Y-81002381D02*
X119133572Y-80002381D01*
X118895477Y-80002381D01*
X118752619Y-80050000D01*
X118657381Y-80145238D01*
X118609762Y-80240476D01*
X118562143Y-80430952D01*
X118562143Y-80573810D01*
X118609762Y-80764286D01*
X118657381Y-80859524D01*
X118752619Y-80954762D01*
X118895477Y-81002381D01*
X119133572Y-81002381D01*
X118371667Y-81097619D02*
X117609762Y-81097619D01*
X116847857Y-81002381D02*
X117419286Y-81002381D01*
X117133572Y-81002381D02*
X117133572Y-80002381D01*
X117228810Y-80145238D01*
X117324048Y-80240476D01*
X117419286Y-80288095D01*
X116514524Y-80002381D02*
X115895476Y-80002381D01*
X116228810Y-80383333D01*
X116085952Y-80383333D01*
X115990714Y-80430952D01*
X115943095Y-80478571D01*
X115895476Y-80573810D01*
X115895476Y-80811905D01*
X115943095Y-80907143D01*
X115990714Y-80954762D01*
X116085952Y-81002381D01*
X116371667Y-81002381D01*
X116466905Y-80954762D01*
X116514524Y-80907143D01*
X115705000Y-81097619D02*
X114943095Y-81097619D01*
X114752619Y-80954762D02*
X114609762Y-81002381D01*
X114371666Y-81002381D01*
X114276428Y-80954762D01*
X114228809Y-80907143D01*
X114181190Y-80811905D01*
X114181190Y-80716667D01*
X114228809Y-80621429D01*
X114276428Y-80573810D01*
X114371666Y-80526190D01*
X114562143Y-80478571D01*
X114657381Y-80430952D01*
X114705000Y-80383333D01*
X114752619Y-80288095D01*
X114752619Y-80192857D01*
X114705000Y-80097619D01*
X114657381Y-80050000D01*
X114562143Y-80002381D01*
X114324047Y-80002381D01*
X114181190Y-80050000D01*
X113228809Y-81002381D02*
X113800238Y-81002381D01*
X113514524Y-81002381D02*
X113514524Y-80002381D01*
X113609762Y-80145238D01*
X113705000Y-80240476D01*
X113800238Y-80288095D01*
X119133572Y-98782381D02*
X119133572Y-97782381D01*
X118895477Y-97782381D01*
X118752619Y-97830000D01*
X118657381Y-97925238D01*
X118609762Y-98020476D01*
X118562143Y-98210952D01*
X118562143Y-98353810D01*
X118609762Y-98544286D01*
X118657381Y-98639524D01*
X118752619Y-98734762D01*
X118895477Y-98782381D01*
X119133572Y-98782381D01*
X118371667Y-98877619D02*
X117609762Y-98877619D01*
X116847857Y-98782381D02*
X117419286Y-98782381D01*
X117133572Y-98782381D02*
X117133572Y-97782381D01*
X117228810Y-97925238D01*
X117324048Y-98020476D01*
X117419286Y-98068095D01*
X115990714Y-98115714D02*
X115990714Y-98782381D01*
X116228810Y-97734762D02*
X116466905Y-98449048D01*
X115847857Y-98449048D01*
X115705000Y-98877619D02*
X114943095Y-98877619D01*
X114752619Y-98734762D02*
X114609762Y-98782381D01*
X114371666Y-98782381D01*
X114276428Y-98734762D01*
X114228809Y-98687143D01*
X114181190Y-98591905D01*
X114181190Y-98496667D01*
X114228809Y-98401429D01*
X114276428Y-98353810D01*
X114371666Y-98306190D01*
X114562143Y-98258571D01*
X114657381Y-98210952D01*
X114705000Y-98163333D01*
X114752619Y-98068095D01*
X114752619Y-97972857D01*
X114705000Y-97877619D01*
X114657381Y-97830000D01*
X114562143Y-97782381D01*
X114324047Y-97782381D01*
X114181190Y-97830000D01*
X113228809Y-98782381D02*
X113800238Y-98782381D01*
X113514524Y-98782381D02*
X113514524Y-97782381D01*
X113609762Y-97925238D01*
X113705000Y-98020476D01*
X113800238Y-98068095D01*
X119133572Y-116562381D02*
X119133572Y-115562381D01*
X118895477Y-115562381D01*
X118752619Y-115610000D01*
X118657381Y-115705238D01*
X118609762Y-115800476D01*
X118562143Y-115990952D01*
X118562143Y-116133810D01*
X118609762Y-116324286D01*
X118657381Y-116419524D01*
X118752619Y-116514762D01*
X118895477Y-116562381D01*
X119133572Y-116562381D01*
X118371667Y-116657619D02*
X117609762Y-116657619D01*
X116847857Y-116562381D02*
X117419286Y-116562381D01*
X117133572Y-116562381D02*
X117133572Y-115562381D01*
X117228810Y-115705238D01*
X117324048Y-115800476D01*
X117419286Y-115848095D01*
X115943095Y-115562381D02*
X116419286Y-115562381D01*
X116466905Y-116038571D01*
X116419286Y-115990952D01*
X116324048Y-115943333D01*
X116085952Y-115943333D01*
X115990714Y-115990952D01*
X115943095Y-116038571D01*
X115895476Y-116133810D01*
X115895476Y-116371905D01*
X115943095Y-116467143D01*
X115990714Y-116514762D01*
X116085952Y-116562381D01*
X116324048Y-116562381D01*
X116419286Y-116514762D01*
X116466905Y-116467143D01*
X115705000Y-116657619D02*
X114943095Y-116657619D01*
X114752619Y-116514762D02*
X114609762Y-116562381D01*
X114371666Y-116562381D01*
X114276428Y-116514762D01*
X114228809Y-116467143D01*
X114181190Y-116371905D01*
X114181190Y-116276667D01*
X114228809Y-116181429D01*
X114276428Y-116133810D01*
X114371666Y-116086190D01*
X114562143Y-116038571D01*
X114657381Y-115990952D01*
X114705000Y-115943333D01*
X114752619Y-115848095D01*
X114752619Y-115752857D01*
X114705000Y-115657619D01*
X114657381Y-115610000D01*
X114562143Y-115562381D01*
X114324047Y-115562381D01*
X114181190Y-115610000D01*
X113228809Y-116562381D02*
X113800238Y-116562381D01*
X113514524Y-116562381D02*
X113514524Y-115562381D01*
X113609762Y-115705238D01*
X113705000Y-115800476D01*
X113800238Y-115848095D01*
X136913572Y-116562381D02*
X136913572Y-115562381D01*
X136675477Y-115562381D01*
X136532619Y-115610000D01*
X136437381Y-115705238D01*
X136389762Y-115800476D01*
X136342143Y-115990952D01*
X136342143Y-116133810D01*
X136389762Y-116324286D01*
X136437381Y-116419524D01*
X136532619Y-116514762D01*
X136675477Y-116562381D01*
X136913572Y-116562381D01*
X136151667Y-116657619D02*
X135389762Y-116657619D01*
X134627857Y-116562381D02*
X135199286Y-116562381D01*
X134913572Y-116562381D02*
X134913572Y-115562381D01*
X135008810Y-115705238D01*
X135104048Y-115800476D01*
X135199286Y-115848095D01*
X133770714Y-115562381D02*
X133961191Y-115562381D01*
X134056429Y-115610000D01*
X134104048Y-115657619D01*
X134199286Y-115800476D01*
X134246905Y-115990952D01*
X134246905Y-116371905D01*
X134199286Y-116467143D01*
X134151667Y-116514762D01*
X134056429Y-116562381D01*
X133865952Y-116562381D01*
X133770714Y-116514762D01*
X133723095Y-116467143D01*
X133675476Y-116371905D01*
X133675476Y-116133810D01*
X133723095Y-116038571D01*
X133770714Y-115990952D01*
X133865952Y-115943333D01*
X134056429Y-115943333D01*
X134151667Y-115990952D01*
X134199286Y-116038571D01*
X134246905Y-116133810D01*
X133485000Y-116657619D02*
X132723095Y-116657619D01*
X132532619Y-116514762D02*
X132389762Y-116562381D01*
X132151666Y-116562381D01*
X132056428Y-116514762D01*
X132008809Y-116467143D01*
X131961190Y-116371905D01*
X131961190Y-116276667D01*
X132008809Y-116181429D01*
X132056428Y-116133810D01*
X132151666Y-116086190D01*
X132342143Y-116038571D01*
X132437381Y-115990952D01*
X132485000Y-115943333D01*
X132532619Y-115848095D01*
X132532619Y-115752857D01*
X132485000Y-115657619D01*
X132437381Y-115610000D01*
X132342143Y-115562381D01*
X132104047Y-115562381D01*
X131961190Y-115610000D01*
X131008809Y-116562381D02*
X131580238Y-116562381D01*
X131294524Y-116562381D02*
X131294524Y-115562381D01*
X131389762Y-115705238D01*
X131485000Y-115800476D01*
X131580238Y-115848095D01*
X136913572Y-98782381D02*
X136913572Y-97782381D01*
X136675477Y-97782381D01*
X136532619Y-97830000D01*
X136437381Y-97925238D01*
X136389762Y-98020476D01*
X136342143Y-98210952D01*
X136342143Y-98353810D01*
X136389762Y-98544286D01*
X136437381Y-98639524D01*
X136532619Y-98734762D01*
X136675477Y-98782381D01*
X136913572Y-98782381D01*
X136151667Y-98877619D02*
X135389762Y-98877619D01*
X134627857Y-98782381D02*
X135199286Y-98782381D01*
X134913572Y-98782381D02*
X134913572Y-97782381D01*
X135008810Y-97925238D01*
X135104048Y-98020476D01*
X135199286Y-98068095D01*
X134294524Y-97782381D02*
X133627857Y-97782381D01*
X134056429Y-98782381D01*
X133485000Y-98877619D02*
X132723095Y-98877619D01*
X132532619Y-98734762D02*
X132389762Y-98782381D01*
X132151666Y-98782381D01*
X132056428Y-98734762D01*
X132008809Y-98687143D01*
X131961190Y-98591905D01*
X131961190Y-98496667D01*
X132008809Y-98401429D01*
X132056428Y-98353810D01*
X132151666Y-98306190D01*
X132342143Y-98258571D01*
X132437381Y-98210952D01*
X132485000Y-98163333D01*
X132532619Y-98068095D01*
X132532619Y-97972857D01*
X132485000Y-97877619D01*
X132437381Y-97830000D01*
X132342143Y-97782381D01*
X132104047Y-97782381D01*
X131961190Y-97830000D01*
X131008809Y-98782381D02*
X131580238Y-98782381D01*
X131294524Y-98782381D02*
X131294524Y-97782381D01*
X131389762Y-97925238D01*
X131485000Y-98020476D01*
X131580238Y-98068095D01*
X136913572Y-81002381D02*
X136913572Y-80002381D01*
X136675477Y-80002381D01*
X136532619Y-80050000D01*
X136437381Y-80145238D01*
X136389762Y-80240476D01*
X136342143Y-80430952D01*
X136342143Y-80573810D01*
X136389762Y-80764286D01*
X136437381Y-80859524D01*
X136532619Y-80954762D01*
X136675477Y-81002381D01*
X136913572Y-81002381D01*
X136151667Y-81097619D02*
X135389762Y-81097619D01*
X134627857Y-81002381D02*
X135199286Y-81002381D01*
X134913572Y-81002381D02*
X134913572Y-80002381D01*
X135008810Y-80145238D01*
X135104048Y-80240476D01*
X135199286Y-80288095D01*
X134056429Y-80430952D02*
X134151667Y-80383333D01*
X134199286Y-80335714D01*
X134246905Y-80240476D01*
X134246905Y-80192857D01*
X134199286Y-80097619D01*
X134151667Y-80050000D01*
X134056429Y-80002381D01*
X133865952Y-80002381D01*
X133770714Y-80050000D01*
X133723095Y-80097619D01*
X133675476Y-80192857D01*
X133675476Y-80240476D01*
X133723095Y-80335714D01*
X133770714Y-80383333D01*
X133865952Y-80430952D01*
X134056429Y-80430952D01*
X134151667Y-80478571D01*
X134199286Y-80526190D01*
X134246905Y-80621429D01*
X134246905Y-80811905D01*
X134199286Y-80907143D01*
X134151667Y-80954762D01*
X134056429Y-81002381D01*
X133865952Y-81002381D01*
X133770714Y-80954762D01*
X133723095Y-80907143D01*
X133675476Y-80811905D01*
X133675476Y-80621429D01*
X133723095Y-80526190D01*
X133770714Y-80478571D01*
X133865952Y-80430952D01*
X133485000Y-81097619D02*
X132723095Y-81097619D01*
X132532619Y-80954762D02*
X132389762Y-81002381D01*
X132151666Y-81002381D01*
X132056428Y-80954762D01*
X132008809Y-80907143D01*
X131961190Y-80811905D01*
X131961190Y-80716667D01*
X132008809Y-80621429D01*
X132056428Y-80573810D01*
X132151666Y-80526190D01*
X132342143Y-80478571D01*
X132437381Y-80430952D01*
X132485000Y-80383333D01*
X132532619Y-80288095D01*
X132532619Y-80192857D01*
X132485000Y-80097619D01*
X132437381Y-80050000D01*
X132342143Y-80002381D01*
X132104047Y-80002381D01*
X131961190Y-80050000D01*
X131008809Y-81002381D02*
X131580238Y-81002381D01*
X131294524Y-81002381D02*
X131294524Y-80002381D01*
X131389762Y-80145238D01*
X131485000Y-80240476D01*
X131580238Y-80288095D01*
X136913572Y-63222381D02*
X136913572Y-62222381D01*
X136675477Y-62222381D01*
X136532619Y-62270000D01*
X136437381Y-62365238D01*
X136389762Y-62460476D01*
X136342143Y-62650952D01*
X136342143Y-62793810D01*
X136389762Y-62984286D01*
X136437381Y-63079524D01*
X136532619Y-63174762D01*
X136675477Y-63222381D01*
X136913572Y-63222381D01*
X136151667Y-63317619D02*
X135389762Y-63317619D01*
X134627857Y-63222381D02*
X135199286Y-63222381D01*
X134913572Y-63222381D02*
X134913572Y-62222381D01*
X135008810Y-62365238D01*
X135104048Y-62460476D01*
X135199286Y-62508095D01*
X134151667Y-63222381D02*
X133961191Y-63222381D01*
X133865952Y-63174762D01*
X133818333Y-63127143D01*
X133723095Y-62984286D01*
X133675476Y-62793810D01*
X133675476Y-62412857D01*
X133723095Y-62317619D01*
X133770714Y-62270000D01*
X133865952Y-62222381D01*
X134056429Y-62222381D01*
X134151667Y-62270000D01*
X134199286Y-62317619D01*
X134246905Y-62412857D01*
X134246905Y-62650952D01*
X134199286Y-62746190D01*
X134151667Y-62793810D01*
X134056429Y-62841429D01*
X133865952Y-62841429D01*
X133770714Y-62793810D01*
X133723095Y-62746190D01*
X133675476Y-62650952D01*
X133485000Y-63317619D02*
X132723095Y-63317619D01*
X132532619Y-63174762D02*
X132389762Y-63222381D01*
X132151666Y-63222381D01*
X132056428Y-63174762D01*
X132008809Y-63127143D01*
X131961190Y-63031905D01*
X131961190Y-62936667D01*
X132008809Y-62841429D01*
X132056428Y-62793810D01*
X132151666Y-62746190D01*
X132342143Y-62698571D01*
X132437381Y-62650952D01*
X132485000Y-62603333D01*
X132532619Y-62508095D01*
X132532619Y-62412857D01*
X132485000Y-62317619D01*
X132437381Y-62270000D01*
X132342143Y-62222381D01*
X132104047Y-62222381D01*
X131961190Y-62270000D01*
X131008809Y-63222381D02*
X131580238Y-63222381D01*
X131294524Y-63222381D02*
X131294524Y-62222381D01*
X131389762Y-62365238D01*
X131485000Y-62460476D01*
X131580238Y-62508095D01*
X136913572Y-45442381D02*
X136913572Y-44442381D01*
X136675477Y-44442381D01*
X136532619Y-44490000D01*
X136437381Y-44585238D01*
X136389762Y-44680476D01*
X136342143Y-44870952D01*
X136342143Y-45013810D01*
X136389762Y-45204286D01*
X136437381Y-45299524D01*
X136532619Y-45394762D01*
X136675477Y-45442381D01*
X136913572Y-45442381D01*
X136151667Y-45537619D02*
X135389762Y-45537619D01*
X135199286Y-44537619D02*
X135151667Y-44490000D01*
X135056429Y-44442381D01*
X134818333Y-44442381D01*
X134723095Y-44490000D01*
X134675476Y-44537619D01*
X134627857Y-44632857D01*
X134627857Y-44728095D01*
X134675476Y-44870952D01*
X135246905Y-45442381D01*
X134627857Y-45442381D01*
X134008810Y-44442381D02*
X133913571Y-44442381D01*
X133818333Y-44490000D01*
X133770714Y-44537619D01*
X133723095Y-44632857D01*
X133675476Y-44823333D01*
X133675476Y-45061429D01*
X133723095Y-45251905D01*
X133770714Y-45347143D01*
X133818333Y-45394762D01*
X133913571Y-45442381D01*
X134008810Y-45442381D01*
X134104048Y-45394762D01*
X134151667Y-45347143D01*
X134199286Y-45251905D01*
X134246905Y-45061429D01*
X134246905Y-44823333D01*
X134199286Y-44632857D01*
X134151667Y-44537619D01*
X134104048Y-44490000D01*
X134008810Y-44442381D01*
X133485000Y-45537619D02*
X132723095Y-45537619D01*
X132532619Y-45394762D02*
X132389762Y-45442381D01*
X132151666Y-45442381D01*
X132056428Y-45394762D01*
X132008809Y-45347143D01*
X131961190Y-45251905D01*
X131961190Y-45156667D01*
X132008809Y-45061429D01*
X132056428Y-45013810D01*
X132151666Y-44966190D01*
X132342143Y-44918571D01*
X132437381Y-44870952D01*
X132485000Y-44823333D01*
X132532619Y-44728095D01*
X132532619Y-44632857D01*
X132485000Y-44537619D01*
X132437381Y-44490000D01*
X132342143Y-44442381D01*
X132104047Y-44442381D01*
X131961190Y-44490000D01*
X131008809Y-45442381D02*
X131580238Y-45442381D01*
X131294524Y-45442381D02*
X131294524Y-44442381D01*
X131389762Y-44585238D01*
X131485000Y-44680476D01*
X131580238Y-44728095D01*
X156122666Y-101675143D02*
X156170285Y-101722762D01*
X156313142Y-101770381D01*
X156408380Y-101770381D01*
X156551238Y-101722762D01*
X156646476Y-101627524D01*
X156694095Y-101532286D01*
X156741714Y-101341810D01*
X156741714Y-101198952D01*
X156694095Y-101008476D01*
X156646476Y-100913238D01*
X156551238Y-100818000D01*
X156408380Y-100770381D01*
X156313142Y-100770381D01*
X156170285Y-100818000D01*
X156122666Y-100865619D01*
X155741714Y-100865619D02*
X155694095Y-100818000D01*
X155598857Y-100770381D01*
X155360761Y-100770381D01*
X155265523Y-100818000D01*
X155217904Y-100865619D01*
X155170285Y-100960857D01*
X155170285Y-101056095D01*
X155217904Y-101198952D01*
X155789333Y-101770381D01*
X155170285Y-101770381D01*
X162198666Y-101675143D02*
X162246285Y-101722762D01*
X162389142Y-101770381D01*
X162484380Y-101770381D01*
X162627238Y-101722762D01*
X162722476Y-101627524D01*
X162770095Y-101532286D01*
X162817714Y-101341810D01*
X162817714Y-101198952D01*
X162770095Y-101008476D01*
X162722476Y-100913238D01*
X162627238Y-100818000D01*
X162484380Y-100770381D01*
X162389142Y-100770381D01*
X162246285Y-100818000D01*
X162198666Y-100865619D01*
X161865333Y-100770381D02*
X161246285Y-100770381D01*
X161579619Y-101151333D01*
X161436761Y-101151333D01*
X161341523Y-101198952D01*
X161293904Y-101246571D01*
X161246285Y-101341810D01*
X161246285Y-101579905D01*
X161293904Y-101675143D01*
X161341523Y-101722762D01*
X161436761Y-101770381D01*
X161722476Y-101770381D01*
X161817714Y-101722762D01*
X161865333Y-101675143D01*
M02*
